<svg width="30" height="30" viewBox="0 0 30 30" xmlns="http://www.w3.org/2000/svg"><g id="Page-1" stroke="none" stroke-width="1" fill="none" fill-rule="evenodd"><g id="aff_des_home" transform="translate(-1323 -3070)" fill="#949FB6" fill-rule="nonzero"><g id="footer" transform="translate(-31 2904)"><g id="18plus" transform="translate(1354 166)"><path d="M14.955 29.691C6.716 29.691 0 23.074 0 14.956 0 6.838 6.716.22 14.955.22c1.612 0 3.224.264 4.746.75.672.22 1.03.926.806 1.588a1.273 1.273 0 0 1-1.611.794c-1.254-.441-2.597-.618-3.94-.618-6.852-.044-12.449 5.47-12.449 12.22 0 6.75 5.597 12.266 12.448 12.266s12.448-5.515 12.448-12.265A12.27 12.27 0 0 0 27 11.824c-.18-.662.224-1.324.896-1.5a1.244 1.244 0 0 1 1.522.882c.313 1.235.492 2.515.492 3.794 0 8.074-6.716 14.691-14.955 14.691z" id="round"/><path d="M12.448 21.353H9.985v-9.177c-.895.839-1.97 1.456-3.179 1.853v-2.205c.627-.221 1.343-.618 2.104-1.192.762-.573 1.254-1.235 1.568-2.03h2.015v12.75h-.045z" id="_x31_" stroke="#949FB6" stroke-width=".5"/><path d="M16.164 14.47c-.627-.264-1.12-.617-1.388-1.102-.269-.486-.448-.97-.448-1.544 0-.927.314-1.721.985-2.339.672-.617 1.612-.926 2.866-.926 1.21 0 2.194.309 2.866.926a3.082 3.082 0 0 1 1.03 2.339c0 .573-.135 1.102-.448 1.588-.314.44-.761.794-1.299 1.059.717.264 1.254.705 1.612 1.235.359.53.538 1.147.538 1.897 0 1.191-.359 2.118-1.12 2.868-.761.75-1.746 1.103-3.045 1.103-1.164 0-2.149-.31-2.91-.927-.94-.706-1.388-1.676-1.388-2.956 0-.706.179-1.323.537-1.897.314-.53.851-.97 1.612-1.323zm.269 3c0 .662.179 1.192.537 1.589.358.397.761.573 1.299.573.492 0 .94-.176 1.253-.53.314-.352.493-.881.493-1.543 0-.574-.18-1.059-.493-1.412a1.735 1.735 0 0 0-1.298-.53c-.582 0-1.075.221-1.343.618-.314.31-.448.75-.448 1.236zm.224-5.426c0 .485.134.882.403 1.147.268.265.627.397 1.12.397.447 0 .85-.132 1.119-.397.268-.265.402-.662.402-1.147 0-.441-.134-.838-.402-1.103-.27-.265-.627-.397-1.12-.397-.492 0-.85.132-1.12.397-.268.265-.402.662-.402 1.103z" id="_x38_" stroke="#949FB6" stroke-width=".5"/><path d="M28.701 3.75h-1.567V2.206c0-.706-.582-1.235-1.253-1.235-.717 0-1.254.573-1.254 1.235V3.75H23.06c-.717 0-1.254.574-1.254 1.235 0 .662.582 1.236 1.254 1.236h1.567v1.544c0 .706.582 1.235 1.254 1.235.716 0 1.253-.574 1.253-1.235V6.22h1.567c.717 0 1.254-.574 1.254-1.236 0-.661-.582-1.235-1.254-1.235z" id="plus"/></g></g></g></g></svg>