<svg xmlns="http://www.w3.org/2000/svg" xmlns:xlink="http://www.w3.org/1999/xlink" width="40" height="40" viewBox="0 0 40 40"><defs><path id="d5qsa" d="M538.72 1899.2l10.04-10.23a1.26 1.26 0 0 1 1.78 0l.4.42v3.79c0 1.46 1.2 2.64 2.68 2.64h3.65l3.32 3.38c.5.53.5 1.35 0 1.87l-10.05 10.23a1.26 1.26 0 0 1-1.78 0l-10.04-10.23a1.33 1.33 0 0 1 0-1.87zm13.57-20.56c0-.73.6-1.32 1.33-1.32h14.7c.74 0 1.33.6 1.33 1.32v14.54c0 .73-.6 1.32-1.33 1.32h-14.7c-.74 0-1.33-.6-1.33-1.32zM537.76 1902l10.04 10.23a2.58 2.58 0 0 0 3.7 0l10.06-10.23c1-1.04 1-2.67 0-3.7l-2.42-2.47h9.19a2.66 2.66 0 0 0 2.67-2.64v-14.54c0-1.46-1.2-2.64-2.67-2.64h-14.7a2.66 2.66 0 0 0-2.68 2.64v9a2.55 2.55 0 0 0-3.15.41l-10.04 10.23a2.65 2.65 0 0 0 0 3.71z"/><path id="d5qsb" d="M545.53 1895.53a.67.67 0 0 1 .94.94.67.67 0 1 1-.94-.94zm.47 2.47a2 2 0 1 0 0-4 2 2 0 0 0 0 4z"/><path id="d5qsc" d="M549.53 1899.52a.66.66 0 0 1 .94 0 .68.68 0 0 1 0 .95.67.67 0 0 1-.94 0 .68.68 0 0 1 0-.95zm-.94 1.9a2 2 0 0 0 2.82-.01c.78-.78.79-2.05.01-2.84a2.05 2.05 0 0 0-2.83 0 2.02 2.02 0 0 0 0 2.85z"/><path id="d5qsd" d="M552.53 1903.53a.67.67 0 1 1 .95.95.67.67 0 0 1-.95-.95zm-.94 1.88a2 2 0 1 0 2.82-2.83 2 2 0 0 0-2.82 2.83z"/><path id="d5qse" d="M558 1879.33a.67.67 0 1 1 0 1.35.67.67 0 0 1 0-1.35zm0 2.67a2 2 0 1 0 0-4 2 2 0 0 0 0 4z"/><path id="d5qsf" d="M558 1885.33a.67.67 0 1 1 0 1.35.67.67 0 0 1 0-1.35zm0 2.67a2 2 0 1 0 0-4 2 2 0 0 0 0 4z"/><path id="d5qsg" d="M558 1890.33a.67.67 0 1 1 0 1.35.67.67 0 0 1 0-1.35zm0 2.67a2 2 0 1 0 0-4 2 2 0 0 0 0 4z"/><path id="d5qsh" d="M565 1879.33a.67.67 0 1 1 0 1.35.67.67 0 0 1 0-1.35zm0 2.67a2 2 0 1 0 0-4 2 2 0 0 0 0 4z"/><path id="d5qsi" d="M565 1885.33a.67.67 0 1 1 0 1.35.67.67 0 0 1 0-1.35zm0 2.67a2 2 0 1 0 0-4 2 2 0 0 0 0 4z"/><path id="d5qsj" d="M565 1890.33a.67.67 0 1 1 0 1.35.67.67 0 0 1 0-1.35zm0 2.67a2 2 0 1 0 0-4 2 2 0 0 0 0 4z"/><path id="d5qsk" d="M571.2 1873h-3.5a.7.7 0 1 0 0 1.4h3.5c.77 0 1.4.63 1.4 1.4v3.5a.7.7 0 0 0 1.4 0v-3.5a2.8 2.8 0 0 0-2.8-2.8z"/><path id="d5qsl" d="M565.33 1874c.37 0 .67-.22.67-.5s-.3-.5-.67-.5h-.66c-.37 0-.67.22-.67.5s.3.5.67.5z"/><path id="d5qsm" d="M573.5 1881c-.28 0-.5.3-.5.67v.66c0 .37.22.67.5.67s.5-.3.5-.67v-.66c0-.37-.22-.67-.5-.67z"/><path id="d5qsn" d="M536.93 1895.19l-2.2 2.39a2.88 2.88 0 0 0 0 3.82l2.2 2.4a.6.6 0 0 0 .6.18.65.65 0 0 0 .45-.48.72.72 0 0 0-.17-.66l-2.2-2.4a1.44 1.44 0 0 1 0-1.9l2.2-2.4a.72.72 0 0 0 0-.94.59.59 0 0 0-.88-.01z"/><path id="d5qso" d="M539.22 1905.22a.74.74 0 0 0 0 1.05l.52.52a.74.74 0 0 0 1.05-1.05l-.52-.52a.74.74 0 0 0-1.05 0z"/><path id="d5qsp" d="M540.27 1894.77l.52-.52a.74.74 0 0 0-1.04-1.04l-.52.52a.74.74 0 1 0 1.04 1.04z"/></defs><g><g transform="translate(-534 -1873)"><g><use fill="#e4d73b" xlink:href="#d5qsa"/></g><g><use fill="#e4d73b" xlink:href="#d5qsb"/></g><g><use fill="#e4d73b" xlink:href="#d5qsc"/></g><g><use fill="#e4d73b" xlink:href="#d5qsd"/></g><g><use fill="#e4d73b" xlink:href="#d5qse"/></g><g><use fill="#e4d73b" xlink:href="#d5qsf"/></g><g><use fill="#e4d73b" xlink:href="#d5qsg"/></g><g><use fill="#e4d73b" xlink:href="#d5qsh"/></g><g><use fill="#e4d73b" xlink:href="#d5qsi"/></g><g><use fill="#e4d73b" xlink:href="#d5qsj"/></g><g><use fill="#e4d73b" xlink:href="#d5qsk"/></g><g><use fill="#e4d73b" xlink:href="#d5qsl"/></g><g><use fill="#e4d73b" xlink:href="#d5qsm"/></g><g><use fill="#e4d73b" xlink:href="#d5qsn"/></g><g><use fill="#e4d73b" xlink:href="#d5qso"/></g><g><use fill="#e4d73b" xlink:href="#d5qsp"/></g></g></g></svg>