<svg width="70" height="30" viewBox="0 0 70 30" xmlns="http://www.w3.org/2000/svg"><g id="Page-1" stroke="none" stroke-width="1" fill="none" fill-rule="evenodd"><g id="aff_des_home" transform="translate(-1372 -3066)" fill="#949FB6" fill-rule="nonzero"><g id="footer" transform="translate(-31 2904)"><g id="dmca-seal" transform="translate(1403 162)"><path id="XMLID_23_" d="M59.36 17.965h2.415l-1.225-3.977z"/><path d="M16.87 13.64h-.84v6.034h.84c.7 0 1.225-.07 1.54-.244.315-.174.525-.418.7-.837.175-.384.245-1.046.245-1.919 0-1.186-.175-1.988-.56-2.407-.385-.418-1.015-.627-1.925-.627z" id="XMLID_24_"/><path d="M66.5 4.047H7.28c1.085.872 1.785 2.197 1.82 3.906H6.93c-.07-1.988-1.54-3.558-3.325-3.558C1.96 4.395.56 5.755.315 7.57v1.535h9.695c.595 0 1.05.453 1.05 1.046v12.872c0 .558-.455 1.047-1.05 1.047H.35v2.337c0 1.919 1.575 3.488 3.5 3.488H66.5c1.925 0 3.5-1.57 3.5-3.488V7.5c0-1.884-1.575-3.453-3.5-3.453zM22.4 19.36c-.28.663-.63 1.187-1.12 1.64-.49.453-.98.733-1.54.872-.735.21-1.435.314-2.03.314H12.6V11.128h5.11c1.015 0 1.82.14 2.45.419.63.279 1.12.662 1.54 1.186.42.523.7 1.081.875 1.779a8.44 8.44 0 0 1 .28 2.128c-.035 1.15-.175 2.093-.455 2.72zm13.86 2.826h-2.8v-8.442l-2.17 8.442h-2.555L26.6 13.744v8.442h-2.8V11.128h4.515l1.75 6.732 1.715-6.732h4.515v11.058h-.035zm14.175 1.954a8.596 8.596 0 0 1-4.34 1.15c-1.54 0-3.01-.383-4.34-1.15-1.33-.768-2.415-1.814-3.185-3.175a8.523 8.523 0 0 1-1.155-4.325c0-1.535.385-3 1.155-4.326.77-1.36 1.855-2.407 3.185-3.174a8.596 8.596 0 0 1 4.34-1.152c1.54 0 3.01.384 4.34 1.152 1.33.767 2.415 1.813 3.185 3.174.77 1.36 1.155 2.79 1.155 4.326 0 1.534-.385 3-1.155 4.325-.77 1.326-1.82 2.407-3.185 3.175zm12.635-1.954l-.56-1.814h-3.885l-.525 1.814h-3.5l4.165-11.058h3.745l4.165 11.058H63.07z" id="XMLID_30_"/><path d="M46.095 9.628c-1.925 0-3.605.698-4.97 2.058-1.365 1.36-2.065 3-2.065 4.954 0 1.918.7 3.593 2.065 4.953 1.365 1.36 3.01 2.058 4.97 2.058s3.605-.698 4.97-2.058c1.365-1.36 2.065-3 2.065-4.953 0-1.92-.7-3.593-2.065-4.954-1.365-1.36-3.045-2.058-4.97-2.058zm3.185 10.744c-.805.768-1.855 1.151-3.115 1.151-1.4 0-2.52-.453-3.43-1.36-.875-.907-1.33-2.093-1.33-3.558 0-1.396.455-2.547 1.365-3.454.91-.907 2.03-1.36 3.395-1.36 1.085 0 2.03.279 2.765.872.735.593 1.225 1.325 1.435 2.267l-2.24.35c-.14-.629-.385-1.082-.735-1.361a2.11 2.11 0 0 0-1.33-.454c-.595 0-1.085.244-1.505.768-.42.488-.595 1.29-.595 2.372 0 1.081.14 1.848.42 2.302.385.663.98 1.012 1.715 1.012.455 0 .875-.175 1.26-.524.385-.348.63-.907.805-1.674l2.345.558c-.315.872-.735 1.605-1.225 2.093z" id="XMLID_27_"/><g id="XMLID_1_" transform="translate(3.15)"><path d="M.175.035h1.54c.35 0 .595.07.77.244.175.174.245.384.245.698a.916.916 0 0 1-.28.697c-.175.175-.455.245-.84.245h-.525v1.116h-.91v-3zm.945 1.29h.245c.175 0 .315-.034.385-.104.07-.07.105-.14.105-.244A.316.316 0 0 0 1.75.733C1.68.663 1.575.628 1.4.628h-.28v.698z" id="XMLID_2_"/><path d="M3.29 3.035v-3h1.54c.28 0 .49.035.665.07a.48.48 0 0 1 .35.279c.07.14.14.279.14.488a.742.742 0 0 1-.105.419c-.07.104-.175.209-.28.279a1.63 1.63 0 0 1-.315.104c.105.035.175.07.245.105.035.035.07.07.14.174.07.07.105.14.14.175L6.265 3h-1.05l-.49-.907c-.07-.105-.105-.21-.175-.244a.507.507 0 0 0-.245-.07H4.2V3h-.91v.035zm.91-1.78h.385c.035 0 .14 0 .245-.034.07 0 .105-.035.14-.105.035-.07.07-.104.07-.174 0-.105-.035-.175-.105-.21a.755.755 0 0 0-.35-.07H4.2v.594z" id="XMLID_6_"/><path d="M6.405 1.535c0-.488.14-.872.42-1.151.28-.28.63-.384 1.12-.384.49 0 .875.14 1.155.419.28.279.42.628.42 1.116 0 .349-.07.628-.175.872-.105.244-.315.384-.525.488a1.88 1.88 0 0 1-.84.175c-.35 0-.63-.07-.84-.175a1.307 1.307 0 0 1-.525-.453c-.14-.21-.21-.523-.21-.907zm.91.035c0 .314.07.523.175.663.105.14.28.209.455.209.21 0 .35-.07.455-.21.105-.139.175-.348.175-.697 0-.28-.07-.488-.175-.628-.105-.14-.245-.21-.455-.21-.175 0-.35.07-.455.21-.105.14-.175.349-.175.663z" id="XMLID_9_"/><path id="XMLID_13_" d="M9.73.035h2.835v.732h-.945v2.268h-.945V.802H9.73V.035z"/><path id="XMLID_15_" d="M13.055.035h2.485v.663h-1.575v.488H15.4v.628h-1.435v.593h1.61v.663h-2.52z"/><path d="M18.13 1.814l.805.244c-.07.244-.14.419-.245.558-.105.14-.28.28-.455.35a1.729 1.729 0 0 1-.665.139c-.315 0-.595-.035-.805-.14a1.17 1.17 0 0 1-.525-.488c-.14-.244-.21-.558-.21-.907 0-.489.14-.872.385-1.151.28-.28.63-.419 1.12-.419.385 0 .665.07.91.244.245.175.385.384.49.698l-.805.174a.567.567 0 0 0-.105-.209.421.421 0 0 0-.175-.174c-.07-.035-.175-.035-.28-.035-.21 0-.385.07-.49.244-.07.14-.14.314-.14.593 0 .349.035.558.14.698.105.14.245.174.42.174s.315-.035.42-.14c.105-.104.175-.244.21-.453z" id="XMLID_17_"/><path id="XMLID_19_" d="M19.25.035h2.8v.732h-.945v2.268h-.945V.802h-.91z"/><path id="XMLID_21_" d="M22.54.035h2.485v.663H23.45v.488h1.435v.628H23.45v.593h1.61v.663h-2.52V.035z"/><path d="M25.655.035h1.365c.28 0 .49.035.665.105.175.07.315.209.42.348.105.14.175.314.245.489.07.174.07.383.07.593 0 .314-.035.558-.105.732a.953.953 0 0 1-.315.419c-.14.105-.28.21-.42.244-.21.07-.385.07-.56.07h-1.365v-3zm.91.698v1.64h.245c.21 0 .315-.036.42-.07.105-.036.14-.105.21-.21.07-.105.07-.279.07-.523 0-.314-.035-.523-.14-.663-.105-.14-.28-.174-.525-.174h-.28z" id="XMLID_34_"/><path d="M32.795 1.605l.665.14c-.035.104-.07.208-.105.278-.035.07-.07.175-.14.244l.315.21c.035.035.07.07.14.104l-.455.524c-.07-.035-.175-.105-.245-.14-.07-.035-.175-.105-.245-.14-.14.105-.28.175-.42.21-.21.07-.42.105-.7.105-.385 0-.7-.07-.91-.245a.736.736 0 0 1-.28-.593.83.83 0 0 1 .175-.488c.105-.14.315-.28.56-.384a1.305 1.305 0 0 1-.21-.349 1.01 1.01 0 0 1-.07-.314c0-.209.07-.383.245-.523S31.5 0 31.85 0s.595.07.735.21c.14.139.245.278.245.453 0 .104-.035.21-.07.279a1.06 1.06 0 0 1-.175.244c-.07.07-.175.14-.35.28.14.139.315.278.455.418.035-.105.07-.21.105-.28zm-1.26.174c-.105.07-.175.14-.245.21-.07.07-.07.104-.07.174 0 .104.035.174.14.279.105.105.21.105.35.105.14 0 .315-.07.49-.175-.175-.105-.385-.314-.665-.593zm.28-.698c.105-.07.175-.14.245-.174.07-.035.105-.14.105-.21 0-.07-.035-.104-.07-.174-.035-.07-.105-.07-.21-.07-.07 0-.14.035-.21.07-.07.035-.07.105-.07.175 0 .07.07.209.21.383z" id="XMLID_37_"/><path id="XMLID_41_" d="M35.63.035h1.225l.455 1.814.455-1.814h1.225v3h-.77V.767l-.595 2.303h-.7L36.4.767V3.07h-.77z"/><path d="M39.55 1.535c0-.488.14-.872.42-1.151.28-.28.63-.384 1.12-.384.49 0 .875.14 1.155.419.28.279.42.628.42 1.116 0 .349-.07.628-.175.872-.105.244-.28.384-.525.523-.245.14-.49.175-.84.175s-.63-.07-.84-.175a1.401 1.401 0 0 1-.525-.488c-.14-.21-.21-.523-.21-.907zm.945.035c0 .314.07.523.175.663.105.14.28.209.455.209.21 0 .35-.07.455-.21.105-.139.175-.348.175-.697 0-.28-.07-.488-.175-.628-.105-.14-.28-.21-.49-.21-.175 0-.35.07-.455.21-.105.14-.14.349-.14.663z" id="XMLID_43_"/><path id="XMLID_46_" d="M43.225.035h.875l1.12 1.674V.035h.875v3h-.875l-1.12-1.64v1.64h-.875z"/><path id="XMLID_48_" d="M46.83.035h.945v3h-.945z"/><path id="XMLID_50_" d="M48.265.035H51.1v.732h-.945v2.268h-.945V.802h-.945V.035z"/><path d="M51.31 1.535c0-.488.14-.872.42-1.151.28-.28.63-.384 1.12-.384.49 0 .875.14 1.155.419.28.279.42.628.42 1.116 0 .349-.07.628-.175.872-.105.244-.28.384-.525.523-.245.14-.49.175-.84.175s-.63-.07-.84-.175a1.26 1.26 0 0 1-.525-.523c-.14-.244-.21-.488-.21-.872zm.91.035c0 .314.07.523.175.663.105.14.28.209.455.209.21 0 .35-.07.455-.21.105-.139.175-.348.175-.697 0-.28-.07-.488-.175-.628a.565.565 0 0 0-.455-.21c-.175 0-.35.07-.455.21-.105.14-.175.349-.175.663z" id="XMLID_52_"/><path d="M54.985 3.035v-3h1.54c.28 0 .49.035.665.07a.48.48 0 0 1 .35.279c.07.14.14.279.14.488a.742.742 0 0 1-.105.419c-.07.104-.175.209-.28.279a1.63 1.63 0 0 1-.315.104c.105.035.175.07.245.105.035.035.07.07.14.174.07.07.105.14.14.175L57.96 3h-1.05l-.49-.907c-.07-.105-.105-.21-.175-.244a.506.506 0 0 0-.245-.07h-.07V3h-.945v.035zm.91-1.78h.385c.035 0 .14 0 .245-.034.07 0 .105-.035.14-.105.035-.07.07-.104.07-.174 0-.105-.035-.175-.105-.21a.755.755 0 0 0-.35-.07h-.42v.594h.035z" id="XMLID_55_"/><path id="XMLID_58_" d="M58.275.035h2.485v.663h-1.575v.488h1.435v.628h-1.435v.593h1.61v.663h-2.52z"/><path d="M61.39.035h1.365c.28 0 .49.035.665.105a.96.96 0 0 1 .42.313c.105.14.175.314.245.489.07.174.07.384.07.593 0 .314-.035.558-.105.732-.07.175-.175.314-.315.454s-.28.21-.42.244c-.21.07-.385.07-.56.07H61.39v-3zm.91.698v1.64h.245c.21 0 .315-.036.42-.07.105-.036.14-.105.21-.21.07-.105.07-.279.07-.523 0-.314-.035-.523-.14-.663-.105-.14-.28-.174-.525-.174h-.28z" id="XMLID_60_"/></g><path d="M5.845 20.512L4.27 16.29c.63-.314 1.05-.977 1.05-1.744a1.954 1.954 0 0 0-1.96-1.954c-1.085 0-1.96.872-1.96 1.954 0 .837.525 1.534 1.26 1.813l-1.295 4.152h4.48z" id="XMLID_11_"/></g></g></g></g></svg>