<svg width="50" height="50" viewBox="0 0 50 50" xmlns="http://www.w3.org/2000/svg"><defs><filter x="-3.1%" y="-4.1%" width="106.1%" height="108.2%" filterUnits="objectBoundingBox" id="filter-1"><feOffset in="SourceAlpha" result="shadowOffsetOuter1"/><feGaussianBlur stdDeviation="7.5" in="shadowOffsetOuter1" result="shadowBlurOuter1"/><feColorMatrix values="0 0 0 0 0 0 0 0 0 0 0 0 0 0 0 0 0 0 0.5 0" in="shadowBlurOuter1" result="shadowMatrixOuter1"/><feMerge><feMergeNode in="shadowMatrixOuter1"/><feMergeNode in="SourceGraphic"/></feMerge></filter></defs><g id="Page-1" stroke="none" stroke-width="1" fill="none" fill-rule="evenodd"><g id="aff_des_slot_item" transform="translate(-1060 -268)" fill="#E4D73B" fill-rule="nonzero"><g id="casino_info" filter="url(#filter-1)" transform="translate(404 252)"><g id="full-screen-btn" transform="translate(656 16)"><g id="full-screen-icon" transform="translate(14 14)"><path d="M14.486 9.592a.65.65 0 0 0 .914 0l3.103-3.072.995.984a.783.783 0 0 0 .78.19.77.77 0 0 0 .533-.597L21.953.855a.683.683 0 0 0-.194-.61.698.698 0 0 0-.617-.189L14.868 1.22a.774.774 0 0 0-.6.529.764.764 0 0 0 .193.77l.994.984-3.105 3.072a.635.635 0 0 0 0 .906l2.136 2.11z" id="XMLID_578_"/><path d="M7.504 12.443a.651.651 0 0 0-.914 0l-3.104 3.072-.994-.984a.783.783 0 0 0-.78-.19.771.771 0 0 0-.533.597L.037 21.18c-.04.223.032.45.194.61.162.16.393.23.617.188l6.274-1.163a.774.774 0 0 0 .6-.53.764.764 0 0 0-.193-.77l-.994-.983 3.108-3.068a.635.635 0 0 0 0-.906l-2.14-2.115z" id="XMLID_577_"/><path d="M1.18 7.097a.77.77 0 0 0 .531.597.783.783 0 0 0 .78-.19l.995-.984L6.59 9.592a.65.65 0 0 0 .914 0L9.64 7.48a.635.635 0 0 0 0-.906L6.535 3.503l.994-.983a.764.764 0 0 0 .192-.771.774.774 0 0 0-.599-.529L.848.057a.698.698 0 0 0-.617.188.683.683 0 0 0-.194.61l1.142 6.242z" id="XMLID_576_"/><path d="M20.81 14.938a.771.771 0 0 0-.531-.597.783.783 0 0 0-.781.19l-.995.984-3.103-3.072a.651.651 0 0 0-.914 0l-2.14 2.115a.635.635 0 0 0 0 .906l3.109 3.068-.994.983a.764.764 0 0 0-.193.77.774.774 0 0 0 .6.53l6.274 1.163a.697.697 0 0 0 .617-.188.683.683 0 0 0 .194-.61l-1.142-6.242z" id="XMLID_575_"/></g></g></g></g></g></svg>