<svg width="129" height="20" viewBox="0 0 129 20" xmlns="http://www.w3.org/2000/svg"><g id="Page-1" stroke="none" stroke-width="1" fill="none" fill-rule="evenodd"><g id="aff_des_home" transform="translate(-1112 -3076)" fill="#949FB6" fill-rule="nonzero"><g id="footer" transform="translate(-31 2904)"><g id="gambleaware" transform="translate(1143 172)"><path d="M2.878 9.846c0 2 .874 3.128 2.467 3.128 1.49 0 2.621-1.333 2.621-3.23 0-1.795-1.028-3.129-2.415-3.129-1.645.052-2.673 1.282-2.673 3.231zm5.037 3.795c-.463.513-1.388 1.641-3.392 1.641C1.902 15.282 0 13.026 0 9.795c0-3.23 1.953-5.487 4.728-5.487 1.08 0 1.953.41 3.238 1.436v-1.18h3.803v2.154h-1.028v8.615c0 2.667-2.004 4.257-5.396 4.257-1.645 0-2.93-.36-3.855-1.128C.77 17.897.463 17.333.154 16h2.724c.36 1.026 1.13 1.487 2.416 1.487 1.593 0 2.672-.82 2.672-2.102-.051 0-.051-1.744-.051-1.744z" id="g"/><path d="M19.53 10.462c-2.621.256-4.369.461-4.369 2.05 0 .924.72 1.54 1.85 1.54 1.44 0 2.519-1.078 2.519-2.462v-1.128zm2.621 3.128h.976v2.154h-3.494V14.41c-1.131 1.18-2.005 1.539-3.392 1.539-2.262 0-3.958-1.487-3.958-3.487 0-3.283 3.7-3.641 7.298-4 0-1.744-.462-2.154-2.056-2.154-1.13 0-1.952.666-2.004 1.692l-2.724-.103c.154-2.256 1.953-3.692 4.626-3.692 3.083 0 4.78 1.385 4.78 3.949l-.052 5.436z" id="a_2_"/><path d="M27.599 5.897c1.182-1.282 1.953-1.59 3.238-1.59s1.953.462 2.672 1.744c.566-.564 1.593-1.743 3.392-1.743s3.032 1.282 3.032 3.18v6.153h1.028v2.154h-3.803v-7.59c0-.974-.462-1.59-1.182-1.59-1.13 0-2.21 1.488-2.21 3.026v3.897h1.08v2.154H30.99V8.308c0-1.129-.36-1.693-1.182-1.693-1.234 0-2.313 1.488-2.262 3.282v3.641h1.08v2.154h-4.78v-2.154h.925v-6.82h-.976V4.564h3.7v1.333h.103z" id="m"/><path d="M45.381 10.205c0 2.308.925 3.539 2.724 3.539 1.542 0 2.519-1.385 2.519-3.59s-.977-3.59-2.519-3.59c-1.747 0-2.724 1.333-2.724 3.641zM41.63.308h3.804v5.487c1.13-1.128 2.004-1.59 3.186-1.59 2.827 0 4.831 2.41 4.831 5.795 0 3.59-1.901 6-4.677 6-1.387 0-2.158-.359-3.443-1.487v1.23h-3.803V13.59h1.182V2.462h-1.08V.308z" id="b"/><path id="l" d="M54.118.308h3.804V13.59H59v2.154h-4.883V13.59h1.08V2.462h-1.08z"/><path d="M67.224 8.77c-.206-1.437-1.028-2.206-2.364-2.206-1.234 0-2.159.82-2.519 2.205h4.883zm2.878 3.333c-.514 2.41-2.518 3.948-5.294 3.948-3.135 0-5.447-2.461-5.447-5.897 0-3.385 2.312-5.898 5.499-5.898 1.799 0 3.34.82 4.317 2.308 1.028 1.59 1.08 3.077 1.13 4.205h-8.12c.257 2.923 2.159 3.077 2.724 3.077 1.13 0 1.85-.513 2.313-1.692l2.878-.051z" id="e_1_"/><path d="M78.428 10.051l-.977.154c-2.055.308-2.93.616-3.494 1.18a1.562 1.562 0 0 0-.463 1.077c0 1.025.874 1.897 1.953 1.897 1.542 0 2.98-1.385 2.98-2.77v-1.538zm0 4.205C77.4 15.18 76.475 16 74.625 16c-2.107 0-3.65-1.436-3.65-3.385 0-.871.31-1.59.823-2.205.874-.872 2.107-1.282 5.088-1.59l1.49-.153v-.718c0-1.282-.822-2-2.364-2-1.387 0-2.055.513-2.312 1.846h-2.313c.154-1.18.462-1.795 1.08-2.41.873-.77 2.106-1.18 3.7-1.18 2.775 0 4.42 1.385 4.42 3.744v6h1.336v1.795h-3.547l.052-1.488z" id="a_1_"/><path id="w" d="M81.769 4.513h4.317v1.795h-1.234l1.85 7.59 2.159-9.385h2.107l2.159 9.384 1.85-7.59h-1.234V4.514h4.266v1.795h-1.13l-2.57 9.436h-2.364l-2.056-8.41-2.005 8.41H85.47l-2.621-9.436h-1.08z"/><path d="M105.873 10.051l-.977.154c-2.056.308-2.93.616-3.495 1.18a1.562 1.562 0 0 0-.462 1.077c0 1.025.873 1.897 1.953 1.897 1.541 0 2.98-1.385 2.98-2.77v-1.538zm0 4.205C104.845 15.18 103.92 16 102.12 16c-2.107 0-3.65-1.436-3.65-3.385 0-.871.31-1.59.823-2.205.874-.872 2.107-1.282 5.088-1.59l1.49-.153v-.718c0-1.282-.822-2-2.364-2-1.387 0-2.055.513-2.312 1.846h-2.313c.154-1.18.462-1.795 1.08-2.41.873-.77 2.106-1.18 3.7-1.18 2.775 0 4.42 1.385 4.42 3.744v6h1.336v1.795h-3.546v-1.488z" id="a"/><path d="M113.633 7.026c.617-1.334 1.285-2.77 3.29-2.77.41 0 .616.052 1.079.154v2.103c-.566-.103-.771-.154-1.08-.154-2.518 0-3.238 2.513-3.238 3.333v4.257h1.285v1.795h-4.78v-1.795h1.286V6.256h-1.285V4.513h3.443v2.513z" id="r"/><path d="M126.122 9.026c-.103-1.847-.977-2.872-2.518-2.872-2.313 0-2.981 2.564-2.981 2.872h5.499zm2.313 3.282c-.463 1.128-1.594 3.692-4.831 3.692-3.187 0-5.345-2.41-5.345-6 0-3.333 2.312-5.744 5.396-5.744 1.799 0 4.985 1.026 4.985 6.308h-8.12c.103 2.513 1.696 3.539 3.186 3.539 1.182 0 1.902-.565 2.313-1.847h2.416v.052z" id="e"/></g></g></g></g></svg>