<svg width="27" height="30" viewBox="0 0 27 30" xmlns="http://www.w3.org/2000/svg"><g id="Page-1" stroke="none" stroke-width="1" fill="none" fill-rule="evenodd"><g id="aff_des_home" transform="translate(-1272 -3070)" fill="#949FB6" fill-rule="nonzero"><g id="footer" transform="translate(-31 2904)"><g id="gamcare" transform="translate(1303 166)"><g id="logo"><path d="M25.938 14.294c-.089-.044-.222-.088-.354-.132h-8.322a1 1 0 0 0-1.018 1.014 1 1 0 0 0 1.018 1.015h3.099c.088 0 .177.088.177.177 0 .044-.045.088-.089.132-1.726.926-3.895 1.456-6.33 1.456-.575 0-1.15-.044-1.726-.088v2.338c.487.044.974.044 1.461.044 3.364 0 6.418-.794 8.676-2.162.044 0 .044-.044.088-.044.133 0 .221.088.221.22v.045l-.487 1.28c-.265.661.089 1.411.797 1.676.133.044.31.088.443.088.531 0 1.018-.309 1.24-.838l1.725-4.677c.266-.573 0-1.235-.62-1.544z" id="XMLID_47_"/><path d="M14.164 5.515c2.434 0 4.647.573 6.374 1.5 0 0 1.106.794 1.593.044.576-.883-.575-1.412-.575-1.412-2.125-1.015-4.78-1.588-7.613-1.588-.487 0-.974 0-1.461.044v1.5c.531-.088 1.107-.088 1.682-.088z" id="XMLID_46_"/><g id="XMLID_43_"><path d="M1.815.132A1.82 1.82 0 0 0 0 1.942v19.72c0 1.014.797 1.809 1.815 1.809h10.623v-3.265c-6.374-.441-11.331-3.882-11.331-8.074 0-4.19 4.957-7.588 11.33-8.073V.132H1.816z" id="XMLID_45_"/><path d="M4.293 11.735c0 3.089 3.497 5.647 8.145 6.133V5.603c-4.604.485-8.145 3.044-8.145 6.132z" id="XMLID_44_"/></g></g><g id="text" transform="translate(0 25.147)"><path d="M4.16 2.426c-.044 1.28-.929 2.118-2.08 2.118-.62 0-1.15-.22-1.549-.706C.177 3.441 0 2.956 0 2.382a2.1 2.1 0 0 1 .62-1.5C1.018.485 1.505.31 2.125.31c.84 0 1.505.397 1.814 1.103h-.752c-.266-.353-.664-.53-1.107-.53-.398 0-.752.133-1.018.442-.31.308-.442.705-.442 1.102 0 .442.132.839.398 1.103.266.31.664.442 1.062.442.62 0 1.107-.31 1.417-.971h-1.86v-.574h2.524z" id="XMLID_64_"/><path d="M4.825 4.456h-.62L5.798.353h.576l1.593 4.103h-.664l-.442-1.191H5.267l-.442 1.19zm1.239-3.309l-.575 1.544h1.15l-.575-1.544z" id="XMLID_61_"/><path id="XMLID_59_" d="M8.189 4.456V.353h.885l1.195 3.176L11.464.353h.885v4.103h-.575l.044-3.53-1.328 3.53h-.442L8.72.926l.044 3.53z"/><path d="M14.96 4.544c-.619 0-1.106-.22-1.504-.662-.399-.397-.576-.926-.576-1.5A2.111 2.111 0 0 1 15.005.264c.974 0 1.77.618 2.036 1.633h-1.107c-.22-.397-.53-.618-.973-.618-.62 0-1.107.486-1.107 1.06 0 .661.487 1.146 1.062 1.146.399 0 .709-.22.93-.573h1.106c-.22 1.014-1.018 1.632-1.991 1.632z" id="XMLID_57_"/><path d="M18.015 4.456h-1.107L18.502.353h.84l1.594 4.103H19.83l-.222-.574h-1.372l-.221.574zM18.9 1.72l-.398 1.323h.796L18.9 1.721z" id="XMLID_54_"/><path d="M20.936 4.456V.353h1.372c.443 0 .753.044 1.018.22.354.265.576.618.576 1.148 0 .661-.354 1.147-.93 1.323l1.018 1.412h-1.24l-.796-1.324v1.324h-1.018zm1.24-2.206c.486 0 .752-.132.752-.485s-.221-.486-.664-.486h-.266v.971h.177z" id="XMLID_51_"/><path id="XMLID_49_" d="M24.433 4.456V.353h2.213v.882h-1.24v.662h1.24v.927h-1.24v.705h1.24v.883h-2.213z"/></g></g></g></g></g></svg>