<svg xmlns="http://www.w3.org/2000/svg" xmlns:xlink="http://www.w3.org/1999/xlink" width="40" height="40" viewBox="0 0 40 40"><defs><path id="5cvxa" d="M1288.17 1070.64c.76-2.65 1.2-5.64 1.28-8.74h7.74a18.23 18.23 0 0 1-4.92 11.57 19.95 19.95 0 0 0-4.1-2.83zm-1.6 4.13c.38-.76.72-1.56 1.03-2.4 1.2.64 2.34 1.42 3.39 2.34a18.03 18.03 0 0 1-7.06 3.83c.97-.97 1.86-2.24 2.63-3.77zm-6.66-4.52c2.1.1 4.14.56 6.05 1.35a21 21 0 0 1-1 2.38c-1.43 2.8-3.19 4.53-5.05 4.95zm-8.41-.36a32.83 32.83 0 0 1-1.14-8h7.75v6.56c-2.3.1-4.52.6-6.61 1.44zm1.56 4.09c-.38-.74-.71-1.54-1.02-2.38 1.92-.79 3.96-1.25 6.07-1.35v8.68c-1.87-.42-3.63-2.14-5.05-4.95zm-6.02.73c1.05-.91 2.18-1.7 3.39-2.34.3.84.65 1.65 1.03 2.4.78 1.54 1.66 2.8 2.64 3.76a18.25 18.25 0 0 1-7.06-3.82zm1.54-12.81c.07 3.1.51 6.09 1.28 8.74-1.47.76-2.85 1.7-4.1 2.83a18.13 18.13 0 0 1-4.94-11.57zm-2.86-13.33a20.15 20.15 0 0 0 4.12 2.84c-.76 2.64-1.2 5.6-1.26 8.7h-7.76a18.16 18.16 0 0 1 4.9-11.54zm8.37-5.1c-.98.97-1.86 2.24-2.63 3.76-.39.77-.74 1.6-1.06 2.46a18.46 18.46 0 0 1-3.4-2.37 18.12 18.12 0 0 1 7.09-3.85zm4.02-.4v8.75c-2.11-.1-4.17-.57-6.08-1.37.3-.85.64-1.66 1.03-2.42 1.42-2.82 3.18-4.54 5.05-4.96zm-7.75 17.03c.06-2.82.44-5.52 1.11-7.94 2.09.85 4.32 1.34 6.61 1.44v6.5zm17.28.01h-7.74v-6.5c2.3-.1 4.53-.6 6.62-1.44a32.83 32.83 0 0 1 1.12 7.94zm-7.74-17.04c1.87.42 3.63 2.14 5.05 4.96.38.76.73 1.57 1.03 2.42a18.3 18.3 0 0 1-6.08 1.37zm11.1 4.25c-1.04.93-2.19 1.71-3.4 2.37a20.9 20.9 0 0 0-1.05-2.46 14.41 14.41 0 0 0-2.63-3.76c2.66.75 5.06 2.08 7.08 3.85zm-3.37 14.58a32.87 32.87 0 0 1-1.13 7.99 20.14 20.14 0 0 0-6.6-1.44v-6.55zm9.56-1.8h-7.76c-.07-3.08-.5-6.06-1.26-8.7a19.83 19.83 0 0 0 4.12-2.83 18.16 18.16 0 0 1 4.9 11.53zm-4.05-13.24A19.85 19.85 0 0 0 1279 1041a19.85 19.85 0 0 0-14.14 5.86A19.9 19.9 0 0 0 1259 1061c0 5.34 2.08 10.37 5.86 14.14A19.9 19.9 0 0 0 1279 1081c5.34 0 10.37-2.08 14.14-5.86A19.9 19.9 0 0 0 1299 1061c0-5.34-2.08-10.37-5.86-14.14z"/></defs><use fill="#e4d73b" xlink:href="#5cvxa" transform="translate(-1259 -1041)"/></svg>