<svg width="68" height="30" viewBox="0 0 68 30" xmlns="http://www.w3.org/2000/svg"><g id="Page-1" stroke="none" stroke-width="1" fill="none" fill-rule="evenodd"><g id="aff_des_home" transform="translate(-1463 -3066)" fill-rule="nonzero"><g id="footer" transform="translate(-31 2904)"><g id="gpwa-seal-approval" transform="translate(1494 162)"><g id="GOLD" fill="#949FB6"><path d="M63.65 29.99H4.285A4.293 4.293 0 0 1 0 25.693V4.299A4.293 4.293 0 0 1 4.285 0H63.65a4.293 4.293 0 0 1 4.285 4.3v21.392c0 2.364-1.928 4.299-4.285 4.299zm0-.093c2.3 0 4.192-1.897 4.192-4.205V4.299c0-2.318-1.882-4.206-4.192-4.206H4.285C1.975.093.093 1.981.093 4.3v21.393c0 2.317 1.882 4.205 4.192 4.205H63.65zM4.285.187H63.65a4.105 4.105 0 0 1 4.098 4.112v21.393a4.105 4.105 0 0 1-4.098 4.112H4.285a4.105 4.105 0 0 1-4.099-4.112V4.299A4.105 4.105 0 0 1 4.285.187zM62.69 22.112c2.05 0 3.726-1.682 3.726-3.738V5c0-2.056-1.676-3.738-3.726-3.738H5.05C3 1.262 1.324 2.944 1.324 5v13.374c0 2.056 1.676 3.738 3.726 3.738h57.64z" id="Combined-Shape"/></g><g id="APPROVED_PORTAL" transform="translate(4.378 23.832)" fill="#0F205E"><path d="M4.304 3.7h-.932L3 2.889H1.276L.922 3.7H0L1.667.093h.913l1.724 3.608zM2.71 2.272L2.124.935 1.546 2.27h1.165z" id="XMLID_18_"/><path d="M4.76 3.7V.094h1.388c.522 0 .857.02 1.015.057.252.056.466.177.634.355.167.177.251.42.251.7 0 .262-.074.477-.214.655a1.14 1.14 0 0 1-.531.374c-.214.074-.587.102-1.108.102h-.569v1.365H4.76zM5.626.71v1.028h.475c.326 0 .54-.018.652-.046a.566.566 0 0 0 .29-.169.425.425 0 0 0 .111-.299.41.41 0 0 0-.112-.299.54.54 0 0 0-.28-.168C6.652.729 6.419.72 6.056.72h-.429V.71z" id="XMLID_21_"/><path d="M8.756 3.7V.094h1.388c.522 0 .857.02 1.015.057.252.056.466.177.634.355.168.177.251.42.251.7 0 .262-.074.477-.214.655-.14.177-.317.299-.53.374-.215.074-.588.102-1.11.102h-.568v1.365h-.866zM9.613.71v1.028h.475c.326 0 .54-.018.652-.046a.566.566 0 0 0 .289-.169.425.425 0 0 0 .112-.299.41.41 0 0 0-.112-.299.54.54 0 0 0-.28-.168c-.111-.028-.344-.037-.707-.037h-.429V.71z" id="XMLID_24_"/><path d="M12.752 3.7V.094h1.826c.466 0 .801.028.997.094.195.065.363.177.493.336.13.16.196.356.196.57a.88.88 0 0 1-.298.683c-.196.168-.475.28-.838.327.186.093.335.196.456.299.121.112.289.308.494.589l.521.7h-1.034l-.624-.784a7.384 7.384 0 0 0-.456-.533.675.675 0 0 0-.26-.15c-.094-.028-.234-.037-.439-.037h-.177v1.505h-.857V3.7zm.857-2.083h.643c.391 0 .643-.01.745-.038a.587.587 0 0 0 .261-.14.422.422 0 0 0 .103-.29.414.414 0 0 0-.103-.28.501.501 0 0 0-.27-.14c-.084-.019-.317-.028-.699-.028h-.68v.916z" id="XMLID_28_"/><path d="M16.898 1.925c0-.43.093-.785.279-1.065a1.66 1.66 0 0 1 .727-.617c.298-.14.66-.206 1.08-.206.615 0 1.109.16 1.5.486.382.327.577.785.577 1.384 0 .607-.205 1.074-.614 1.41-.364.3-.848.45-1.463.45-.624 0-1.108-.15-1.472-.45-.41-.336-.614-.803-.614-1.392zm.884-.028c0 .411.112.73.345.935.233.205.512.308.848.308.344 0 .624-.103.847-.308.224-.206.336-.524.336-.944 0-.42-.112-.73-.326-.925-.214-.197-.503-.3-.857-.3s-.643.103-.857.3c-.224.196-.336.514-.336.934z" id="XMLID_35_"/><path id="XMLID_38_" d="M22.831 3.7L21.294.094h.941l1.09 2.673L24.378.093h.922l-1.547 3.608z"/><path id="XMLID_40_" d="M25.728 3.7V.094h3.177v.608h-2.32v.804h2.152v.607h-2.152v.981h2.394v.608z"/><path d="M29.715.093h1.574c.4 0 .699.028.904.094.205.065.391.168.559.308.167.14.307.337.4.57.093.234.15.524.15.87 0 .308-.047.579-.15.813a1.544 1.544 0 0 1-.39.551c-.16.13-.346.234-.57.308a3.066 3.066 0 0 1-.856.103h-1.62V.093zm.857.617v2.383h.652c.28 0 .475-.018.606-.056a.868.868 0 0 0 .307-.158.719.719 0 0 0 .196-.346c.055-.16.074-.365.074-.626a1.94 1.94 0 0 0-.084-.636.8.8 0 0 0-.251-.364.963.963 0 0 0-.41-.178 5.565 5.565 0 0 0-.699-.028h-.39v.01z" id="XMLID_42_"/><path d="M35.705 3.7V.094h1.388c.521 0 .857.02 1.015.057.251.056.466.177.633.355.168.177.252.42.252.7 0 .262-.075.477-.214.655a1.14 1.14 0 0 1-.531.374c-.215.074-.587.102-1.109.102h-.568v1.365h-.866zM36.57.71v1.028h.475c.326 0 .54-.018.652-.046a.505.505 0 0 0 .28-.169.425.425 0 0 0 .111-.299.41.41 0 0 0-.111-.299.54.54 0 0 0-.28-.168C37.586.729 37.353.72 36.99.72h-.419V.71z" id="XMLID_45_"/><path d="M39.524 1.925c0-.43.093-.785.28-1.065a1.66 1.66 0 0 1 .726-.617c.298-.14.661-.206 1.08-.206.615 0 1.118.16 1.5.486.382.327.578.785.578 1.384 0 .607-.205 1.074-.615 1.41-.363.3-.848.45-1.463.45-.624 0-1.108-.15-1.471-.45-.41-.336-.615-.803-.615-1.392zm.894-.028c0 .411.112.73.345.935.233.205.512.308.847.308.345 0 .625-.103.848-.308.224-.206.335-.524.335-.944 0-.42-.111-.73-.326-.925-.214-.197-.503-.3-.857-.3s-.642.103-.857.3c-.214.196-.335.514-.335.934z" id="XMLID_48_"/><path d="M44.358 3.7V.094h1.826c.466 0 .801.028.997.094.195.065.363.177.494.336.13.16.195.356.195.57a.88.88 0 0 1-.298.683c-.196.168-.475.28-.838.327.186.093.335.196.456.299.121.112.289.308.494.589l.521.7h-1.033l-.625-.784a7.384 7.384 0 0 0-.456-.533.675.675 0 0 0-.26-.15c-.094-.028-.234-.037-.439-.037h-.177v1.505h-.857V3.7zm.867-2.083h.642c.392 0 .643-.01.746-.038a.587.587 0 0 0 .26-.14.422.422 0 0 0 .103-.29.414.414 0 0 0-.103-.28.501.501 0 0 0-.27-.14c-.084-.019-.316-.028-.698-.028h-.68v.916z" id="XMLID_51_"/><path id="XMLID_54_" d="M49.65 3.7v-3h-1.277V.094h3.41v.608h-1.267v3z"/><path d="M55.77 3.7h-.942l-.372-.812h-1.714l-.354.813h-.922L53.133.093h.913l1.723 3.608zm-1.594-1.429L53.58.935l-.577 1.336h1.173z" id="XMLID_56_"/><path id="XMLID_59_" d="M56.244 3.7V.122h.867v2.963h2.151v.608h-3.018z"/></g><g id="LOGO" transform="translate(3.633 2.897)"><g id="GPWA" transform="translate(.186 .28)" fill="#949FB6"><path d="M8.756 8.411h6.372v.393c0 1.626-.27 2.916-.801 3.888-.625 1.121-1.519 2.018-2.683 2.691a7.37 7.37 0 0 1-3.754 1.01c-2.152 0-3.996-.776-5.533-2.318C.81 12.523.047 10.655.047 8.477c0-2.197.782-4.066 2.338-5.617C3.94 1.308 5.822.523 8.02.523c1.742 0 3.298.524 4.676 1.561.569.43 1.156 1.019 1.761 1.766L13.199 5c-1.453-1.916-3.167-2.879-5.16-2.879-1.742 0-3.223.617-4.443 1.86C2.376 5.243 1.76 6.738 1.76 8.505c0 1.7.605 3.168 1.825 4.41 1.211 1.244 2.655 1.86 4.322 1.86.95 0 1.864-.242 2.74-.719.875-.486 1.555-1.112 2.03-1.897.354-.57.559-1.29.615-2.159H8.756V8.411z" id="XMLID_81_"/><path d="M19.087 9.402v6.71h-1.724V.776h2.776c1.723 0 3.009.364 3.847 1.084.95.813 1.426 1.897 1.426 3.243 0 1.29-.42 2.327-1.249 3.112-.829.785-2.03 1.187-3.586 1.187h-1.49zm0-1.57h1.378c1.043 0 1.845-.243 2.422-.72.578-.476.857-1.159.857-2.037 0-.86-.28-1.524-.829-2-.55-.477-1.407-.71-2.57-.71h-1.258v5.467z" id="XMLID_10_"/><path id="XMLID_7_" d="M28.383.776l4.08 11.495L37.251 0l4.518 12.28L46.259.785h1.853l-6.39 16.112-4.518-12.252-4.816 12.252L26.52.785h1.863z"/><path d="M56.468 11.766h-6.53l-1.835 4.346h-1.854L53.282.037l6.875 16.075h-1.882l-1.807-4.346zm-.661-1.588l-2.543-6.14-2.609 6.14h5.152z" id="XMLID_3_"/></g><g id="OUTLINES" fill="#FFF"><path d="M8.207.804a7.58 7.58 0 0 1 4.676 1.56c.568.43 1.155 1.02 1.76 1.767l-1.257 1.15c-1.453-1.917-3.167-2.88-5.16-2.88-1.743 0-3.224.618-4.444 1.86-1.22 1.262-1.835 2.758-1.835 4.524 0 1.701.605 3.168 1.826 4.411 1.21 1.243 2.654 1.86 4.322 1.86.95 0 1.863-.243 2.738-.72.876-.486 1.556-1.112 2.031-1.897.354-.57.559-1.29.615-2.159H8.942V8.692h6.372v.392c0 1.626-.27 2.916-.801 3.888-.624 1.121-1.518 2.019-2.683 2.692a7.37 7.37 0 0 1-3.754 1.009c-2.152 0-3.996-.776-5.533-2.318-1.546-1.551-2.31-3.42-2.31-5.598 0-2.196.782-4.065 2.338-5.617C4.127 1.58 6.008.804 8.207.804zm0-.187c-2.245 0-4.183.804-5.766 2.392C.857 4.6.047 6.533.047 8.766c0 2.215.791 4.14 2.356 5.72s3.475 2.374 5.664 2.374c1.37 0 2.664-.346 3.847-1.038 1.183-.691 2.114-1.616 2.748-2.757.55-.99.829-2.327.829-3.98v-.581H8.756v1.963h4.518c-.075.748-.27 1.383-.578 1.879-.456.747-1.117 1.364-1.956 1.832-.847.467-1.742.7-2.645.7-1.602 0-3.018-.607-4.183-1.803-1.173-1.196-1.77-2.645-1.77-4.28 0-1.702.597-3.178 1.78-4.374 1.183-1.197 2.626-1.804 4.313-1.804 1.918 0 3.595.944 5.011 2.804l.121.158.15-.14 1.257-1.15.13-.12-.112-.141c-.614-.757-1.22-1.364-1.797-1.804A7.765 7.765 0 0 0 8.207.617z" id="XMLID_13_"/><path d="M19.366 16.486h-1.91V.963h2.87c1.741 0 3.055.373 3.912 1.102.969.832 1.453 1.944 1.453 3.309 0 1.308-.429 2.383-1.276 3.187-.848.803-2.077 1.205-3.652 1.205h-1.397v6.72zm-1.714-.187h1.537V9.59h1.584c1.527 0 2.71-.393 3.52-1.16.811-.765 1.221-1.793 1.221-3.046 0-1.318-.466-2.383-1.388-3.168-.82-.701-2.096-1.056-3.791-1.056h-2.683V16.3zm3-8.093H19.18V2.55h1.35c1.174 0 2.059.243 2.627.739.568.495.857 1.187.857 2.074 0 .898-.298 1.608-.894 2.103-.578.496-1.416.739-2.468.739zm-1.286-.187h1.286c1.015 0 1.807-.234 2.356-.701.55-.458.83-1.122.83-1.963 0-.822-.27-1.476-.793-1.925-.53-.458-1.369-.692-2.505-.692h-1.165v5.28h-.009z" id="XMLID_73_"/><path d="M32.575 17.44l-6-16.477h2.06l4.014 11.317L37.437.01l4.518 12.28L46.38.963h2.058l-6.53 16.467-4.517-12.243-4.816 12.252zM37.39 4.663l4.517 12.252 6.25-15.766H46.5l-4.555 11.663L37.437.543l-4.788 12.28L28.504 1.15h-1.658l5.738 15.766 4.807-12.252z" id="XMLID_9_"/><path d="M60.492 16.486h-2.087l-1.807-4.346H50.19l-1.835 4.346h-2.06L53.469.084l7.024 16.402zm-1.965-.187h1.676L53.468.561l-6.893 15.738h1.65l1.834-4.346h6.651l1.817 4.346zm-2.394-5.748h-5.44l2.757-6.476 2.683 6.476zm-5.152-.187h4.872L53.45 4.561l-2.469 5.803z" id="XMLID_63_"/></g></g></g></g></g></g></svg>