<svg width="58" height="57" viewBox="0 0 58 57" xmlns="http://www.w3.org/2000/svg"><defs><linearGradient x1="50%" y1="0%" x2="50%" y2="100%" id="linearGradient-1"><stop stop-color="#B4EC51" offset="0%"/><stop stop-color="#429321" offset="100%"/></linearGradient></defs><g id="Page-1" stroke="none" stroke-width="1" fill="none" fill-rule="evenodd"><g id="aff_des_casino_item" transform="translate(-445 -656)" fill-rule="nonzero"><g id="sucs_block" transform="translate(405 656)"><g id="sucs_item"><g id="icon" transform="translate(40.571)"><g id="planets_2-02"><path d="M1.993 32.74a15.534 15.534 0 0 1-1.589-6.45l1.617-1.354A14.623 14.623 0 0 1 5.11 16.77l.622-.087a30.069 30.069 0 0 1 8.588-11.05 4.12 4.12 0 0 1 .901-1.675c.886-.087 2.587-.07 2.587-.07s1.84-.9 2.81-1.37a8.73 8.73 0 0 1 2.563.961A57.685 57.685 0 0 1 38.437.396a14.44 14.44 0 0 0-.061 3.293c.262.135.492.323.675.55-.028.915 0 1.837-.044 2.751 1.588-.423 4.725-1.274 4.725-1.274.35.102.69.235 1.015.396a30.85 30.85 0 0 1 8.053-.258c.064.824.13 1.734.194 2.557.15 1.948-.356 3.895-.938 5.764.279.19.606.324.885.51a28.915 28.915 0 0 0 .016 7.311 18.04 18.04 0 0 0 3.861.044c-1.431 2.83-1.944 6.16-1.9 9.318a12.545 12.545 0 0 0-1.463 1.955 22.76 22.76 0 0 1-.485 6.377 27.167 27.167 0 0 1-4.46 7.715c-.602.724-1.976 2.01-1.976 2.01s-1.658 2.91-2.83 4.18l-3.48.397a17.29 17.29 0 0 1-9.032 1.698s-2.631.526-3.998.768l-1.726-.82s-6.686-.047-9.35-1.955c-.794.034-1.589.007-2.377-.083-2.426-1.663-4.447-4.354-6.234-6.607-.87-.51-1.786-.941-2.737-1.286-2.595-3.662-3.557-8.578-2.777-12.968z" id="Shape" fill="url(#linearGradient-1)"/><path d="M16.21 8.879C10.9 12.857 7.044 18.41 5.22 24.712c4.754 5.05 10.826 8.76 18.632 10.782 3.638.942 7.062 2.712 10.822 2.506-.51-.44-1.108-1.12-1.617-1.556a29.073 29.073 0 0 0 8.49-5.541c-.142-.254-.441-.729-.583-.982a36.596 36.596 0 0 0 6.064-11.174c1.156-3.333.404-7.311-1.476-10.292C42.16 15.58 35.764 21.24 28.27 24.067a18.5 18.5 0 0 1-6.768 1.365c-2.316-.035-4.673-.736-6.407-2.24a8.614 8.614 0 0 1-2.83-7.006c.198-2.609 2.038-5.498 3.946-7.307z" id="Shape" fill="#126B26" opacity=".15" style="mix-blend-mode:multiply"/><path d="M9.399 19.214a16.595 16.595 0 0 0-2.632 5.328c6.67 6.586 15.584 11.348 24.987 12.468-.279-.395-.404-.76-.683-1.151a51.736 51.736 0 0 0 9.165-4.774c1.661-4.394 3.585-9.001 5.687-13.21-2.324 2.823-4.814 5.606-7.325 8.27-1.726 1.829-3.573 3.606-5.825 4.75-2.717 1.405-5.878 1.789-8.922 1.563-3.638-.28-7.277-1.46-10.062-3.804-2.785-2.343-4.762-5.878-4.39-9.44z" id="Shape" fill="#126B26" opacity=".15" style="mix-blend-mode:multiply"/><path d="M8.954 38.97c4.112 3.883 10.18 5.391 15.86 4.774 5.679-.618 10.987-3.167 15.595-6.48a10.168 10.168 0 0 1-3.33 4.726c4.879-1.048 9.27-3.64 12.495-7.374-1.65 6.512-6.273 11.915-12.532 14.645a22.93 22.93 0 0 1-19.61-.898c-3.89-2.102-5.74-5.942-8.478-9.393z" id="Shape" fill="#126B26" opacity=".15" style="mix-blend-mode:multiply"/><path d="M24.995 51.102c3.032.052 8.829-1.187 8.829-1.187s6.565-.65 8.966-2.926c-.07.465-.004.94.19 1.37 2.923-.135 5.474-2.26 6.743-4.841 1.27-2.58 1.27-5.482 1.084-8.344-2.567 1.108-4.54 3.467-6.873 4.971a16.45 16.45 0 0 1-7.086 2.462 11.48 11.48 0 0 0 5.66-3.024c-.583.024-1.25.08-1.836.103a18.675 18.675 0 0 0 7.434-4.936c-.404-.11-.723-.23-1.12-.34 1.9-.515 4.96-2.771 4.96-2.771s2.337-6.02 4.177-9.536c.234 0 .469-.027.695-.051-1.431 2.83-1.944 6.159-1.9 9.318a12.545 12.545 0 0 0-1.463 1.955 22.76 22.76 0 0 1-.485 6.377 27.168 27.168 0 0 1-4.46 7.703c-.602.724-1.976 2.01-1.976 2.01s-1.658 2.91-2.83 4.18l-2.611.306a25.14 25.14 0 0 0 4.39-4.335 54.238 54.238 0 0 1-20.488 1.536zM.453 26.988a15.5 15.5 0 0 0 1.544 5.751c-.784 4.39.182 9.306 2.773 12.972a16.53 16.53 0 0 1 2.737 1.286c1.79 2.253 3.812 4.944 6.238 6.603.788.09 1.583.117 2.377.083l.04.028a3.042 3.042 0 0 0-.194-1.022 12.331 12.331 0 0 1-4.726-2.691 4.252 4.252 0 0 1-.986-1.212 1.745 1.745 0 0 1-.154-1.464 6.652 6.652 0 0 0 5.49 1.073 36.986 36.986 0 0 1-6.064-2.154 12.157 12.157 0 0 1-4.85-4.03c-1.775-2.687-1.941-6.048-1.868-9.27.384.116.776.208 1.172.277.21.503.404 1.085.598 1.584 5.96 3.198 12.763 5.047 19.578 4.845-1.083-.321-3.234-1.223-3.234-1.223a47.196 47.196 0 0 1-13.647-5.839s-2.94-1.108-4.128-2.046c.243-.335.578-.594.966-.749a13.865 13.865 0 0 1-3.662-2.802zM52.76 5.85a23.563 23.563 0 0 1-.162 3.005s-2.284 4.793-2.588 7.477c-.246-.047-.404-.099-.404-.344-.703 2.228-1.176 6.729-1.176 6.729l-2.2 4.251s-.343 1.884-.533 2.818a46.812 46.812 0 0 1 5.154-3.309 2.735 2.735 0 0 1-.06-1.429c.186-1.345 1.148-2.47 2.138-3.562-.26-2.259-.251-4.54.028-6.797-.278-.19-.606-.324-.885-.51.582-1.869 1.088-3.816.938-5.764-.065-.823-.13-1.733-.194-2.557l-.057-.008zM38.65 7.343c.111-.2.232-.392.365-.578.02-.843 0-1.694.04-2.537a2.109 2.109 0 0 0-.675-.55 14.44 14.44 0 0 1 .057-3.286 12.416 12.416 0 0 0-2.107 1.73c.401.278.74.633.995 1.045-.809.277-2.248.74-2.248.74s-2.045 2.03-2.696 3.384c.121.685.206 1.358.327 2.043a17.803 17.803 0 0 0-2.243 7.291 12.831 12.831 0 0 1 3.76-4.006c.404-.277 1.018-.289 1.487-.396a4.79 4.79 0 0 1 .635-2.327c.279-.574 1.12-.91 1.673-1.24.141-.466.354-.91.63-1.313zm.696 18.64c.024.253.13.526.15.791-3.194 2.078-6.323 4.077-9.516 6.155 2.304-.791 5.372-2.189 7.276-3.685l.352.483a26.495 26.495 0 0 0 4.249-1.373c2.506-3.203 4.163-6.73 5.66-10.478-1.61 3.596-4.52 6.483-8.17 8.107zm-15.81-11.967c-.49-.479-9.553 2.403-13.34 4.75 4.305-1.302 8.853-2.77 14.047-3.206a39.522 39.522 0 0 0 2.943-5.387c-1.132 1.405-3.65 3.843-3.65 3.843z" id="Shape" fill="#126B26"/><path d="M44.832 48.917a37.777 37.777 0 0 1-34.726.166c1.282 1.64 2.778 3.488 4.82 3.994 2.603.65 5.161 2.209 7.838 1.948 1.067-.103 1.985-.285 3.052-.396.566.454 1.162.871 1.783 1.25 1.293-.312 2.554-.862 3.888-.815 3.032.115 8.773-1.868 8.773-1.868s1.831.052 2.83.115a10.93 10.93 0 0 0 3.08-4.394c-.433.067-.95-.206-1.338 0zm-9.961-5.922c-1.015.313-1.916.396-2.93.729 1.976-1.524 3.803-3 5.78-4.52-6.946 4.505-15.706 5.393-23.447 2.374 2.349 2.886 5.486 4.988 9.237 5.348 3.752.36 8.482-1.548 11.36-3.93zm-10.616-4.033c-5.886-1.583-10.87-5.653-16.809-7.03a11.436 11.436 0 0 1-3.363-1.496l.84-.824A22.906 22.906 0 0 1 1.25 26.58l1.213-1.029a18.27 18.27 0 0 1 2.927-7.675 20.29 20.29 0 0 0-2.155 7.616 8.537 8.537 0 0 0 2.143 2.426c.679-.958 1.354-1.947 2.02-2.905a19.087 19.087 0 0 0-1.147 4.9 7.322 7.322 0 0 0 3.695 1.678c.354-.757.79-1.475 1.301-2.141l-.161 2.264a108.5 108.5 0 0 0 13.17 7.248zM6.937 15.497a44.853 44.853 0 0 1 8.162-9.46c.062-.454.171-.9.327-1.33 1.04-.032 1.973-.115 3.012-.143a4.28 4.28 0 0 1 2.179-1.477c.945.24 1.877.531 2.79.871a48.071 48.071 0 0 1 13.49-2.798c-.448.244-.851.56-1.193.934.27.25.562.617.833.867-.631.182-1.811.649-1.811.649l-2.741 3.08a14.34 14.34 0 0 0-.316 2.545 8.837 8.837 0 0 1-.36-2.64c.76-.752 1.38-1.56 2.14-2.312-.433.043-.886-.04-1.319 0a15.243 15.243 0 0 1 1.827-1.116c0-.115-.084-.262-.097-.396a53.892 53.892 0 0 0-9.043 1.928c.178.158.243.28.404.439-.808-.19-1.677-.372-2.486-.558-.258.237-.59.49-.849.728-1.156-.075-2.377-.051-3.533-.127-.162.345-.465.753-.626 1.097l-1.929.25c.223.114.372.229.595.344a38.255 38.255 0 0 0-9.456 8.625zm33.084-8.043l3.542-1.315c.607.13 1.197.329 1.758.59a17.096 17.096 0 0 1 6.78-.459c.278.685 0 2.331-.106 2.415 0 0-1.73 4.39-2.534 6.511-.122-.067-.23-.17-.352-.241a28.025 28.025 0 0 0-.849 5.098c-.092-2.25.043-4.505.404-6.73.21.036.38-.09.59-.055.457-.839.902-1.78 1.359-2.62-.404-.21-.865-.59-1.306-.61.619-.578 1.156-1.286 1.775-1.864-.25-.182-.595-.305-.841-.487-.615.325-1.322.63-1.937.954.09-.427.073-.954.162-1.381a13.408 13.408 0 0 0-2.733 0c.227.205.356.395.583.61-.91-.377-1.933-.753-2.83-1.129-1.04.479-2.325.598-3.465.713zM30.51 31.88a99 99 0 0 0 8.489-5.379c0-.241 0-.515-.025-.752a19.678 19.678 0 0 0 7.705-7.125c-2.648 2.6-5.845 4.584-9.184 6.254.032.515-.049.97 0 1.485a1.395 1.395 0 0 1-.671.463c-.158-.36-.405-.67-.578-1.03-.037.5-.07 1.097-.106 1.584a12.23 12.23 0 0 1-2.013 1.516c0-.206-.08-.396-.08-.614-.922 1.307-2.402 2.447-3.538 3.598z" id="Shape" fill="#126B26"/><path d="M10.874 17.745a15.207 15.207 0 0 1 5.345-3.305c.21.119.311.234.521.352.732-.396 1.407-.724 2.139-1.108a2.881 2.881 0 0 0-1.496-.84 19.397 19.397 0 0 1 4.257.254c.141-.087.226-.123.368-.21-.384-.21-.72-.51-1.104-.72a50.181 50.181 0 0 1 5.255-1.512c-.808 1.104-3.052 2.85-3.052 2.85s-8.554 2.406-12.233 4.24zm44.384 8.823a22.733 22.733 0 0 0-.501 4.699 6.951 6.951 0 0 0-.744.906 17.63 17.63 0 0 0-.688 1.03l-.036.055v.067a22.613 22.613 0 0 1-.477 6.306 28.213 28.213 0 0 1-2.624 5.181 25.148 25.148 0 0 1-1.726 2.375 26.597 26.597 0 0 1-2.045 2.094l-.025.024v.028c-.404.724-.853 1.44-1.313 2.141-.433.68-.912 1.331-1.436 1.948l-3.4.396h-.068a16.095 16.095 0 0 1-4.338 1.436 18.766 18.766 0 0 1-4.584.238h-.057l-3.929.756-1.67-.792-.04-.02h-.048a26.54 26.54 0 0 1-2.398-.13 33.146 33.146 0 0 1-2.38-.297c-.787-.123-1.564-.3-2.325-.53a7.64 7.64 0 0 1-2.127-.958l-.064-.048h-.081a7.885 7.885 0 0 1-1.156 0c-.376 0-.752-.047-1.124-.079a19.376 19.376 0 0 1-3.343-2.941c-1.031-1.108-1.99-2.288-2.96-3.46.914 1.212 1.816 2.43 2.806 3.59a19.503 19.503 0 0 0 3.315 3.167l.036.028h.057c.404.051.808.083 1.213.103.38.022.763.022 1.144 0 .672.43 1.407.76 2.179.978.77.24 1.556.426 2.352.558a29.83 29.83 0 0 0 2.426.3c.808.068 1.58.115 2.381.131l1.694.792.065.031h.064l3.978-.764a19.17 19.17 0 0 0 4.657-.245 16.526 16.526 0 0 0 4.415-1.457l3.448-.395h.08l.053-.06a17.55 17.55 0 0 0 1.524-2.054c.457-.7.89-1.41 1.31-2.134a26.57 26.57 0 0 0 2.058-2.113 25.55 25.55 0 0 0 1.754-2.395 28.656 28.656 0 0 0 2.668-5.273v-.031c.459-2.09.624-4.232.493-6.365.203-.321.405-.646.64-.954.227-.321.48-.625.755-.907l.069-.067v-.087c0-.792 0-1.584.028-2.375a22.11 22.11 0 0 1 .263-2.375c.25-1.577.719-3.112 1.395-4.564a17.305 17.305 0 0 0-1.613 4.512z" id="Shape" fill="#126B26"/><path d="M53.212 7.944l-.162-2.101v-.17h-.173a31.068 31.068 0 0 0-8.041.249 6.318 6.318 0 0 0-.986-.396h-.122l-4.447 1.187.04-2.474V4.16l-.048-.06a2.414 2.414 0 0 0-.659-.537A14.2 14.2 0 0 1 38.68.396l.032-.254h-.258a58.03 58.03 0 0 0-15.224 3.08 9.01 9.01 0 0 0-2.535-.942h-.073l-.065.032-2.77 1.388c-.853 0-1.694 0-2.559.071h-.08l-.057.064a4.327 4.327 0 0 0-.926 1.674A30.26 30.26 0 0 0 5.62 16.506l-.517.072H5.02l-.053.067a14.855 14.855 0 0 0-3.125 8.19L.31 26.125l-.077.063v.1c.029 1.128.178 2.25.445 3.348.26 1.08.638 2.128 1.128 3.127-.347 2.238-.27 4.52.23 6.73a16.772 16.772 0 0 0 2.757 6.198 16.648 16.648 0 0 1-2.55-6.242 17.8 17.8 0 0 1 0-6.694v-.063l-.029-.063a15.262 15.262 0 0 1-1.548-6.247l1.516-1.278.069-.06v-.107a14.407 14.407 0 0 1 3.003-7.968l.538-.075h.113l.049-.103a29.857 29.857 0 0 1 8.53-10.996l.052-.044v-.063a3.93 3.93 0 0 1 .809-1.512c.808-.063 1.649-.063 2.478-.063h.052l.045-.024 2.736-1.354a8.443 8.443 0 0 1 2.426.923l.085.051.093-.036A57.323 57.323 0 0 1 38.218.61c-.12 1.025-.13 2.06-.032 3.087v.115l.105.051c.214.113.403.264.558.448l-.04 2.664v.277l.27-.072 4.665-1.258c.316.095.622.22.914.372l.069.04h.073a30.634 30.634 0 0 1 7.822-.274l.141 1.928c.072.69.084 1.383.037 2.074a19.738 19.738 0 0 1-.85 4.093l-.027.091.076.051c.283.183.578.305.841.468a29.043 29.043 0 0 0 .146 7.251 28.884 28.884 0 0 1 .089-7.295v-.067l-.057-.04c-.267-.182-.55-.313-.808-.475a19.75 19.75 0 0 0 .962-4.041 10.34 10.34 0 0 0 .04-2.154z" id="Shape" fill="#126B26"/><path d="M3.44 34.873c-.808 2.818.372 5.906 2.381 8.067 2.01 2.161 4.75 3.535 7.52 4.608a11.105 11.105 0 0 1-3.724-2.942c-.283-.336-.161-.886-.246-1.314a2.07 2.07 0 0 1-.938.792c-.938-.602-2.474-2.47-2.474-2.47a22.7 22.7 0 0 1-.105-3.345c-.26.499-.7.934-.958 1.433a15.217 15.217 0 0 1-1.456-4.83zm11.485 6.713a30.413 30.413 0 0 0 22.028-2.232 13.01 13.01 0 0 1-3.295.593A8.955 8.955 0 0 1 32.6 38.1a3.005 3.005 0 0 1-.808 2.316 3.052 3.052 0 0 1-2.244.997c-.47.03-.929-.149-1.25-.487a2.02 2.02 0 0 1-.286-1.334c-.833 1.212-2.268 1.896-3.74 2.146-1.477.182-2.972.17-4.446-.036a1.265 1.265 0 0 1-.19-.879 18.99 18.99 0 0 1-4.71.764zm26.657-2.941a18.07 18.07 0 0 0 5.312-3.65 3.572 3.572 0 0 0-1.355-.447c1.993-.95 3.901-1.979 5.894-2.913a45.523 45.523 0 0 1 3.873-8.677 6.082 6.082 0 0 0-2.05-.257c.336.253.579.546.914.792a12.827 12.827 0 0 1-1.84 3.226 8.22 8.22 0 0 1-1.774 4.24c-.598-.199-1.382-.397-1.98-.579.38.242.717.543.998.89a15.097 15.097 0 0 1-5.34 2.922c.427.174.76.514.921.938a10.35 10.35 0 0 1-3.573 3.515z" id="Shape" fill="#126B26"/><path d="M11.145 48.965A38.167 38.167 0 0 0 32.2 52.677a31.782 31.782 0 0 1-10.818-2.311 1.71 1.71 0 0 1-1.37.712A1.146 1.146 0 0 1 19 50.152c-2.692.056-5.348-.182-7.855-1.187zm15.588 1.702A59.362 59.362 0 0 0 42.2 47.294a5.267 5.267 0 0 1-3.52-.332c0 .308-.163.502-.175.811a23.02 23.02 0 0 1-5.287 1.097c-.114-.254-.283-.464-.405-.713-.077.423-.24.826-.477 1.188a9.608 9.608 0 0 1-2.793.53c-.053-.15-.125-.325-.182-.475a6.149 6.149 0 0 1-2.628 1.267zm23.742-13.17c.405 4.091-1.829 7.998-5.603 9.797a15.55 15.55 0 0 0 1.803-1.979 5.055 5.055 0 0 0 1.043-2.419c0 .218.146.297.364.285a.62.62 0 0 0 .501-.376 1.25 1.25 0 0 0 .077-.637 2.869 2.869 0 0 0-.436-1.27c.465.102.937-.266 1.253-.618.294-.37.492-.805.578-1.267.117-.475.263-1.072.42-1.516z" id="Shape" fill="#126B26" opacity=".15" style="mix-blend-mode:multiply"/></g><g id="checked-(1)" transform="translate(13 18)" fill="#040437"><path d="M11.872 24a2.59 2.59 0 0 1-1.85-.775L.767 13.871a2.666 2.666 0 0 1 0-3.742 2.598 2.598 0 0 1 3.702 0l7.403 7.483L28.532.775a2.598 2.598 0 0 1 3.701 0 2.665 2.665 0 0 1 0 3.741l-18.51 18.71a2.597 2.597 0 0 1-1.85.774z" id="Shape"/></g></g></g></g></g></g></svg>