<svg width="30" height="30" viewBox="1 2 29 28" xmlns="http://www.w3.org/2000/svg" xmlns:xlink="http://www.w3.org/1999/xlink"><defs><path d="M16.212 8c0-.68-.553-1.23-1.235-1.23h-4.818l.305-1.422c.233-1.084.17-2.406.032-3.334C10.358 1.086 9.523 0 8.65 0h-.073c-.745 0-1.011.818-1.011 1.846 0 5-2.47 4.923-2.47 4.923h-.618v9.846h8.955c.682 0 1.235-.55 1.235-1.23 0-.68-.553-1.231-1.235-1.231h.926c.682 0 1.235-.551 1.235-1.23 0-.68-.553-1.232-1.235-1.232h.926c.683 0 1.236-.55 1.236-1.23 0-.768-.498-1.06-1.236-1.168-.359-.054-1.011-.063-1.235-.063h.927c.682 0 1.235-.551 1.235-1.231z" id="path-1"/><filter x="-103.8%" y="-69.2%" width="307.6%" height="250.5%" filterUnits="objectBoundingBox" id="filter-2"><feOffset dy="1" in="SourceAlpha" result="shadowOffsetOuter1"/><feGaussianBlur stdDeviation="4" in="shadowOffsetOuter1" result="shadowBlurOuter1"/><feColorMatrix values="0 0 0 0 0 0 0 0 0 0 0 0 0 0 0 0 0 0 0.368517889 0" in="shadowBlurOuter1"/></filter></defs><g id="Page-1" stroke="none" stroke-width="1" fill="none" fill-rule="evenodd"><g id="aff_des_casino_item" transform="translate(-1289 -522)"><g id="casinos-infoblock" transform="translate(879 277)"><g id="stiker-ourch" transform="translate(411 247)"><g id="ourchoese_icon"><ellipse id="Oval-2" fill="#E4D73B" cx="14.5" cy="14" rx="14.5" ry="14"/><g id="like" transform="matrix(-1 0 0 1 23.2 4.308)" fill-rule="nonzero"><path id="Rectangle-path" fill="#383838" d="M.154 6.154h4.323v11.077H.154z"/><ellipse id="Oval" fill="#D8A852" cx="2.316" cy="14.462" rx="1.235" ry="1.231"/><g id="Shape"><use fill="#000" filter="url(#filter-2)" xlink:href="#path-1"/><use fill="#FFE1C0" xlink:href="#path-1"/></g><path d="M15.786 8.923h-3.897a.308.308 0 1 0 0 .615h4.155c-.203-.124-.46-.2-.759-.244-.359-.054-1.011-.063-1.235-.063h.927c.31 0 .592-.119.809-.308zm.308 2.462H11.89a.308.308 0 1 0 0 .615h3.28a1.227 1.227 0 0 0-.81-.308h.926c.312 0 .592-.118.81-.307zm-.926 2.461h-3.897a.308.308 0 1 0 0 .616h2.971a1.227 1.227 0 0 0-.81-.308h.927c.311 0 .592-.119.81-.308z" id="Shape" fill="#F7B563"/></g></g></g></g></g></g></svg>