<svg width="87" height="52" viewBox="0 0 87 52" xmlns="http://www.w3.org/2000/svg" xmlns:xlink="http://www.w3.org/1999/xlink"><defs><path id="path-1" d="M0 .189h86.777V51.5H0z"/></defs><g id="Page-1" stroke="none" stroke-width="1" fill="none" fill-rule="evenodd"><g id="aff_des_home" transform="translate(-414 -1525)"><g id="Group-Copy" transform="translate(414 1525)"><g id="Group-3" transform="translate(0 .311)"><g id="Fill-1-Clipped"><mask id="mask-2" fill="#fff"><use xlink:href="#path-1"/></mask><path d="M8.974 51.078c2.588-.574 5.226-1.114 7.794-1.741 20.3-4.964 39.325-16.255 55.39-29.3 3.942-3.2 7.963-6.385 11.249-10.28 1.42-1.685 3.351-3.99 3.37-6.327.053-6.58-11.015-1.268-13.513-.283-7.013 2.766-14.028 5.532-21.045 8.29-.423.166-.857.339-1.193.646-.773.706-.456 1.737.665 1.687.483-.022.925-.263 1.346-.498 3.799-2.122 7.458-4.043 11.436-5.678 4.284-1.76 8.553-3.555 12.828-5.332 1.314-.546 2.751-1.101 4.124-.728 5.326 1.449-2.118 7.272-3.686 8.46-.961.808-2.005 1.537-3.012 2.287A328.803 328.803 0 0 1 46.044 31.4c-11.532 6.842-23.175 13.349-36.32 16.228-1.35.296-4.41 1.53-5.143-.246-.994-2.407 3.665-5.163 5.143-6.175 2.985-2.043 5.958-4.103 8.969-6.108 5.923-3.947 11.99-7.714 18.408-10.82.38-.184.13-.828-.273-.69-6.968 2.396-13.333 5.963-19.352 10.142-5.828 4.047-11.56 8.326-16.294 13.64-4.518 5.07 5.197 4.284 7.792 3.708" id="Fill-1" fill="#003864" fill-rule="nonzero" mask="url(#mask-2)"/></g></g><path d="M22.972 22.53c.293-11.916 10.245-21.341 22.23-21.05 11.986.29 21.466 10.185 21.174 22.102-.292 11.917-10.245 21.342-22.23 21.051-11.986-.29-21.466-10.186-21.174-22.102" id="Fill-4" fill="#008CF7" fill-rule="nonzero"/><path d="M65.792 28.06c-.451-1.192-1.242-2.27-2.224-3.1-1.458-1.233-3.289-1.967-5.158-2.375-.678-.148-1.386-.255-2.062-.1-1.893.432-3.412 3.45-5.146 4.321-1.705.858-3.776.216-5.478-.65-1.7-.867-2.771-2.774-4.681-2.851a5.206 5.206 0 0 0-3.77 1.43 5.144 5.144 0 0 0-1.559 3.7c.013 1.421.62 2.825.393 4.228-.251 1.539-1.455 2.754-1.952 4.233-.428 1.272-.305 2.666-.007 3.974.097.423.216.844.36 1.256a21.71 21.71 0 0 0 9.637 2.507c10.437.253 19.33-6.862 21.647-16.572" id="Fill-6" fill="#0061D0" fill-rule="nonzero"/><path d="M57.059 15.799c-.611.33-2.566 3.963-2.715 4.396-.987 2.866-2.784 5.917-6.173 6.379-.617.084-1.02-.57-.582-1.051 1.165-1.275 2.34-2.78-.047-2.718-.53.014-.879-.468-.906-.946-.058-1.056.268-2.072 1.32-2.565.37-.174.794-.077 1.165-.212 2.296-.833.74-5.034-1.654-4.045-.723.298-1.35-.232-1.222-.982.22-1.29 1.066-2.014 2.326-2.364 1.595-.443 3.118.65 4.598.54a1.555 1.555 0 0 1 .114-.914c.6-1.353 2.68-.845 2.546-2.743-.09-1.272-.997-1.724-.29-3.138.15-.3.333-.535.537-.724 4.052 2.495 7.208 6.263 8.906 10.741-.421.219-.89.384-1.39.486-1.891.385-4.89-1.027-6.533-.14" id="Fill-8" fill="#4A4AE2" fill-rule="nonzero"/><path d="M37.25 43.294c.034-1.099.27-2.659 1.281-3.328 1.066-.705 1.895.105 2.683.865 1.317 1.27 2.355 2.66 3.758 3.78-.277.004-.548.029-.827.022a21.92 21.92 0 0 1-4.144-.506l-.067-.104c-.072-.03-.194-.072-.374-.135a3.79 3.79 0 0 0-.057.122 21.472 21.472 0 0 1-2.245-.683c0-.012-.008-.021-.007-.033" id="Fill-10" fill="#2929B4" fill-rule="nonzero"/><path d="M22.972 22.53c.117-4.792 1.817-9.166 4.563-12.683l.013.145c1.43-.396 2.802-.367 4.3.092.705.216.785 1.173.164 1.536-1.6.936-1.347 3.14.076 4.081 1.357.898 3.077.438 4.379-.233.378-.195.755-.043.988.283.169.238.252.492.28.74 1.45.228 1.637 2.188 1.16 3.426-1.463 3.81-9.416 3.262-7.108 8.881.308.747-.098 1.436-.915 1.5-1.533.122-1.15 2.537-.86 3.347.237.654.599 1.245.888 1.875.36.783.793 1.667.809 2.547.014.83-.22 1.38-.663 1.761-5.06-4.07-8.245-10.33-8.074-17.297" id="Fill-12" fill="#4A4AE2" fill-rule="nonzero"/><path d="M39.413 10.925c1.015-.141 1.875.439 2.198 1.398.264.786.083 1.792-.8 2.083-.043.014-.082.013-.124.022a.706.706 0 0 1-.21.255c-1.014.736-2.812.042-3.702-.603-.285-.207-.467-.637-.227-.957.72-.963 1.593-2.02 2.865-2.198" id="Fill-14" fill="#4A4AE2" fill-rule="nonzero"/><path d="M1.182 47.68a56.06 56.06 0 0 1 2.143-2.261c.594-.04 1.188-.08 1.783-.115-.57.785-.85 1.605-.527 2.388.733 1.776 3.792.542 5.144.246 13.144-2.88 24.787-9.386 36.319-16.227a328.917 328.917 0 0 0 28.683-19.118c1.007-.75 2.05-1.48 3.012-2.289 1.568-1.187 9.012-7.01 3.686-8.459-1.373-.373-2.81.182-4.124.729-2.582 1.073-5.164 2.145-7.745 3.219.46-.467.918-.937 1.37-1.414l2.338-.92c2.498-.986 13.566-6.297 13.513.282-.019 2.338-1.95 4.642-3.37 6.327-3.286 3.895-7.307 7.08-11.25 10.281-16.064 13.044-35.09 24.336-55.389 29.3-2.568.627-5.206 1.167-7.794 1.74-2.596.576-12.31 1.362-7.792-3.709" id="Fill-16" fill="#0052AA" fill-rule="nonzero"/><path d="M7.783 48.498c3.688.46 7.068-1.611 10.539-2.59 3.32-.936 6.73-1.56 9.997-2.682 7.09-2.435 13.673-6.967 20.155-10.661 6.48-3.693 12.783-7.567 18.733-12.065 5.61-4.241 12.138-8.47 15.876-14.518.076-.124.297-.036.24.108-1.13 2.842-3.49 4.956-5.802 6.873a310.57 310.57 0 0 1-9.113 7.246C62.154 25.008 55.565 29.1 48.7 32.973c-6.563 3.702-13.095 8.306-20.24 10.818-3.585 1.26-7.328 1.988-10.96 3.093-3.123.949-6.471 3.09-9.798 2.123-.275-.08-.218-.546.081-.509" id="Fill-18" fill="#003864" fill-rule="nonzero"/></g></g></g></svg>