<svg width="26" height="26" viewBox="0 0 26 26" xmlns="http://www.w3.org/2000/svg"><defs><radialGradient cx="30.097%" cy="32.747%" fx="30.097%" fy="32.747%" r="50.7%" gradientTransform="matrix(-.99376 0 0 -1 .6 .655)" id="radialGradient-1"><stop stop-color="#7EEEDA" offset="0%"/><stop stop-color="#78E8D6" offset="14%"/><stop stop-color="#67D6CB" offset="33%"/><stop stop-color="#4BB9B9" offset="56%"/><stop stop-color="#2590A0" offset="80%"/><stop stop-color="#016A88" offset="100%"/></radialGradient></defs><g id="Page-1" stroke="none" stroke-width="1" fill="none" fill-rule="evenodd"><g id="aff_des_home" transform="translate(-1508 -300)" fill-rule="nonzero"><g id="header" transform="translate(376)"><g id="planets_2-02" transform="translate(1132 300)"><path d="M.91 14.934a7.086 7.086 0 0 1-.726-2.941l.738-.618A6.67 6.67 0 0 1 2.331 7.65l.284-.04A13.716 13.716 0 0 1 6.53 2.57a1.88 1.88 0 0 1 .412-.764c.403-.04 1.18-.033 1.18-.033l1.281-.625a3.98 3.98 0 0 1 1.17.44A26.312 26.312 0 0 1 17.531.18a6.587 6.587 0 0 0-.027 1.502c.12.061.224.147.308.25-.013.418 0 .839-.02 1.256.724-.194 2.155-.582 2.155-.582.16.047.314.107.463.18a14.12 14.12 0 0 1 3.673-.117c.03.376.06.791.089 1.167.068.888-.163 1.776-.428 2.629.127.086.276.148.404.233a13.19 13.19 0 0 0 .007 3.334c.585.07 1.175.077 1.761.02-.653 1.291-.887 2.81-.867 4.25a5.722 5.722 0 0 0-.667.893c.063.974-.011 1.953-.221 2.908a12.392 12.392 0 0 1-2.034 3.52c-.275.33-.902.917-.902.917s-.756 1.327-1.29 1.906l-1.588.18a7.886 7.886 0 0 1-4.12.775s-1.2.24-1.824.35l-.787-.373s-3.05-.022-4.265-.892a6.922 6.922 0 0 1-1.084-.038c-1.107-.758-2.029-1.986-2.844-3.013a7.538 7.538 0 0 0-1.248-.587C.992 19.179.553 16.936.909 14.934z" id="Shape" fill="url(#radialGradient-1)"/><path d="M7.394 4.05a13.843 13.843 0 0 0-5.013 7.222c2.168 2.304 4.938 3.996 8.498 4.918 1.66.43 3.222 1.237 4.937 1.143-.233-.2-.506-.51-.738-.71a13.261 13.261 0 0 0 3.872-2.527c-.064-.116-.2-.332-.265-.448a16.693 16.693 0 0 0 2.766-5.097c.527-1.52.184-3.335-.673-4.694-1.547 3.25-4.464 5.832-7.883 7.12-.979.4-2.027.611-3.087.624-1.057-.017-2.132-.336-2.923-1.022a3.93 3.93 0 0 1-1.29-3.196c.09-1.19.929-2.508 1.8-3.333z" id="Shape" fill="#0A85AB" opacity=".15" style="mix-blend-mode:multiply"/><path d="M4.287 8.764a7.57 7.57 0 0 0-1.2 2.43c3.042 3.005 7.108 5.177 11.397 5.688-.127-.18-.184-.347-.311-.525a23.599 23.599 0 0 0 4.18-2.178c.758-2.004 1.636-4.106 2.595-6.025a76.007 76.007 0 0 1-3.342 3.772c-.787.834-1.63 1.645-2.657 2.166-1.24.641-2.681.816-4.07.714-1.66-.129-3.319-.667-4.59-1.736-1.27-1.068-2.171-2.68-2.002-4.306z" id="Shape" fill="#0A85AB" opacity=".15" style="mix-blend-mode:multiply"/><path d="M4.084 17.776c1.876 1.77 4.644 2.459 7.234 2.177 2.591-.281 5.012-1.444 7.114-2.956a4.638 4.638 0 0 1-1.52 2.156 10.415 10.415 0 0 0 5.7-3.363c-.752 2.97-2.86 5.435-5.716 6.68a10.459 10.459 0 0 1-8.945-.41c-1.774-.958-2.618-2.71-3.867-4.284z" id="Shape" fill="#0A85AB" opacity=".15" style="mix-blend-mode:multiply"/><path d="M11.401 23.31c1.383.023 4.028-.542 4.028-.542s2.994-.296 4.09-1.334c-.033.212-.003.428.086.624 1.333-.06 2.497-1.03 3.076-2.208.579-1.177.579-2.5.494-3.806-1.17.506-2.07 1.582-3.135 2.268a7.504 7.504 0 0 1-3.232 1.123 5.237 5.237 0 0 0 2.581-1.38c-.265.011-.57.037-.837.047a8.518 8.518 0 0 0 3.391-2.251c-.184-.05-.33-.105-.51-.155.866-.235 2.262-1.264 2.262-1.264s1.066-2.746 1.905-4.35c.107 0 .214-.012.317-.023-.653 1.29-.887 2.81-.867 4.25a5.722 5.722 0 0 0-.667.892c.063.975-.011 1.954-.221 2.909a12.392 12.392 0 0 1-2.034 3.513c-.275.33-.902.918-.902.918s-.756 1.327-1.29 1.906l-1.192.14c.748-.577 1.42-1.24 2.003-1.978a24.74 24.74 0 0 1-9.346.7zm-11.194-11c.062.91.301 1.801.704 2.624-.358 2.002.083 4.245 1.265 5.917a7.54 7.54 0 0 1 1.248.586c.817 1.028 1.74 2.255 2.846 3.012.36.041.722.054 1.084.038l.018.013a1.388 1.388 0 0 0-.088-.466 5.625 5.625 0 0 1-2.156-1.228 1.94 1.94 0 0 1-.45-.553.796.796 0 0 1-.07-.668 3.034 3.034 0 0 0 2.504.49 16.871 16.871 0 0 1-2.766-.982 5.545 5.545 0 0 1-2.213-1.839c-.809-1.226-.885-2.758-.851-4.228.175.052.354.095.534.126.096.23.185.495.273.722 2.718 1.46 5.822 2.303 8.93 2.21-.494-.146-1.475-.557-1.475-.557a21.528 21.528 0 0 1-6.225-2.664s-1.34-.505-1.883-.933a.997.997 0 0 1 .441-.341 6.325 6.325 0 0 1-1.67-1.279zm23.859-9.641c.004.457-.02.915-.074 1.37 0 0-1.042 2.187-1.18 3.41-.113-.02-.185-.044-.185-.156-.32 1.016-.536 3.07-.536 3.07L21.088 12.3s-.157.86-.244 1.286a21.353 21.353 0 0 1 2.351-1.51 1.247 1.247 0 0 1-.027-.651c.084-.614.523-1.127.975-1.625a13.015 13.015 0 0 1 .013-3.1c-.127-.087-.277-.149-.404-.233.266-.853.496-1.741.428-2.63-.03-.375-.059-.79-.089-1.166l-.025-.003zm-6.436.681c.05-.092.106-.18.166-.264.01-.385 0-.773.019-1.158a.962.962 0 0 0-.308-.25 6.587 6.587 0 0 1 .025-1.5 5.664 5.664 0 0 0-.96.79c.183.127.337.289.453.476-.368.127-1.025.338-1.025.338s-.933.926-1.23 1.544c.056.312.094.62.15.932a8.12 8.12 0 0 0-1.024 3.325 5.853 5.853 0 0 1 1.715-1.827c.184-.126.465-.132.679-.18a2.17 2.17 0 0 1 .29-1.062c.126-.262.51-.415.763-.565.064-.213.16-.415.287-.6zm.317 8.502c.011.115.06.24.069.36-1.457.949-2.884 1.86-4.341 2.808 1.051-.36 2.45-.998 3.319-1.68l.16.22a12.085 12.085 0 0 0 1.938-.627c1.144-1.46 1.9-3.07 2.582-4.78a7.34 7.34 0 0 1-3.727 3.699zm-7.211-5.459C10.512 6.175 6.378 7.49 4.65 8.56c1.964-.594 4.039-1.264 6.408-1.462a18.13 18.13 0 0 0 1.343-2.458c-.517.641-1.665 1.753-1.665 1.753z" id="Shape" fill="#0A85AB"/><path d="M20.45 22.313a17.233 17.233 0 0 1-15.84.076c.584.747 1.267 1.59 2.198 1.822 1.187.296 2.355 1.007 3.575.888.487-.047.906-.13 1.393-.18.258.206.53.397.813.57.59-.143 1.165-.394 1.774-.372 1.383.052 4.001-.852 4.001-.852s.835.023 1.29.052a4.985 4.985 0 0 0 1.406-2.004c-.197.03-.433-.094-.61 0zm-4.544-2.701c-.463.143-.874.18-1.337.332.902-.695 1.735-1.368 2.637-2.062a11.808 11.808 0 0 1-10.695 1.084c1.071 1.316 2.502 2.275 4.214 2.439 1.71.164 3.868-.706 5.181-1.793z" id="Shape" fill="#0A85AB"/><path d="M11.064 17.772c-2.685-.722-4.959-2.578-7.667-3.207a5.216 5.216 0 0 1-1.535-.682l.384-.376A10.449 10.449 0 0 1 .57 12.124l.553-.47a8.334 8.334 0 0 1 1.335-3.5 9.255 9.255 0 0 0-.983 3.474c.251.426.583.802.977 1.107.31-.437.618-.889.922-1.326a8.706 8.706 0 0 0-.523 2.236 3.34 3.34 0 0 0 1.685.765 5.27 5.27 0 0 1 .594-.977l-.074 1.033a49.491 49.491 0 0 0 6.008 3.306zm-7.9-10.703a20.46 20.46 0 0 1 3.723-4.316c.028-.206.078-.41.15-.606.473-.015.9-.053 1.373-.065.25-.322.598-.558.994-.674.431.11.856.242 1.273.398A21.927 21.927 0 0 1 16.83.529a2.1 2.1 0 0 0-.544.426c.124.114.256.282.38.396-.288.083-.826.296-.826.296L14.59 3.05a6.5 6.5 0 0 0-.144 1.161 4.031 4.031 0 0 1-.164-1.204c.346-.343.628-.711.975-1.054-.197.02-.404-.018-.601 0 .265-.19.544-.36.833-.51 0-.052-.038-.119-.044-.18a24.582 24.582 0 0 0-4.125.88c.081.071.11.127.185.2-.37-.087-.766-.17-1.135-.255-.118.108-.269.224-.387.332-.527-.034-1.084-.023-1.611-.058-.074.158-.212.344-.286.5l-.88.114c.102.053.17.105.271.157A17.45 17.45 0 0 0 3.164 7.07z" id="Shape" fill="#BCFFEE"/><path d="M18.255 3.4l1.616-.6c.277.06.546.15.802.27a7.798 7.798 0 0 1 3.092-.21c.127.312 0 1.063-.048 1.101 0 0-.79 2.003-1.156 2.97-.055-.03-.105-.077-.16-.11-.201.763-.33 1.54-.388 2.326-.042-1.027.02-2.055.185-3.07.096.017.173-.041.269-.025.208-.383.411-.812.62-1.195-.185-.096-.395-.27-.596-.278.282-.264.527-.587.81-.85-.115-.084-.272-.14-.384-.223-.28.148-.603.287-.883.436.04-.195.033-.436.073-.63a6.116 6.116 0 0 0-1.246 0c.103.093.162.18.265.277-.415-.171-.881-.343-1.29-.514-.474.218-1.06.272-1.58.325zm-4.339 11.142a45.158 45.158 0 0 0 3.873-2.454c0-.11 0-.235-.011-.343a8.976 8.976 0 0 0 3.514-3.25c-1.207 1.186-2.666 2.091-4.19 2.853.016.235-.021.442 0 .677a.636.636 0 0 1-.305.211c-.072-.164-.185-.305-.264-.47-.017.228-.031.5-.048.723-.28.261-.588.493-.918.692 0-.094-.037-.181-.037-.28-.42.596-1.095 1.116-1.614 1.64z" id="Shape" fill="#92EED6"/><path d="M4.96 8.094a6.936 6.936 0 0 1 2.438-1.507c.096.054.142.106.238.16.334-.18.642-.33.975-.505a1.314 1.314 0 0 0-.682-.383 8.832 8.832 0 0 1 1.942.116c.064-.04.103-.056.168-.096-.176-.096-.329-.233-.504-.329a22.89 22.89 0 0 1 2.397-.69c-.368.504-1.392 1.3-1.392 1.3S6.638 7.259 4.96 8.095z" id="Shape" fill="#BCFFEE"/><path d="M25.205 12.119a10.37 10.37 0 0 0-.229 2.143 3.17 3.17 0 0 0-.339.414 7.8 7.8 0 0 0-.313.469l-.017.025v.031c.063.964-.01 1.932-.217 2.876a12.87 12.87 0 0 1-1.197 2.364c-.24.375-.504.737-.787 1.083-.293.335-.605.654-.934.955l-.01.011v.013c-.185.33-.39.657-.6.976-.197.31-.416.608-.654.889l-1.551.18h-.032a7.342 7.342 0 0 1-1.978.656 8.56 8.56 0 0 1-2.091.108h-.026l-1.792.345-.762-.361-.018-.01h-.023c-.368 0-.737-.026-1.093-.059a15.12 15.12 0 0 1-1.086-.135 7.852 7.852 0 0 1-1.06-.242 3.485 3.485 0 0 1-.97-.437l-.03-.022H7.36a3.597 3.597 0 0 1-.527 0c-.172 0-.343-.021-.513-.036a8.838 8.838 0 0 1-1.525-1.341c-.47-.506-.907-1.044-1.35-1.578.417.552.828 1.108 1.28 1.637a8.896 8.896 0 0 0 1.512 1.445l.017.012h.026c.184.024.369.038.553.047.174.01.348.01.522 0 .307.196.642.347.994.446.35.11.71.195 1.073.255.369.061.737.106 1.106.137.369.03.721.052 1.086.06l.773.36.03.015h.029l1.814-.348c.71.049 1.424.011 2.125-.112.7-.126 1.378-.35 2.013-.665l1.573-.18h.037l.024-.027c.255-.296.487-.609.695-.937.209-.32.406-.643.598-.974.33-.304.644-.626.938-.964.288-.349.555-.713.8-1.092.489-.76.897-1.565 1.218-2.405v-.015c.209-.953.284-1.93.225-2.903.092-.146.184-.294.29-.435a3.41 3.41 0 0 1 .346-.414l.031-.03v-.04c0-.361 0-.722.013-1.083.02-.363.06-.725.12-1.084a7.83 7.83 0 0 1 .636-2.081 7.894 7.894 0 0 0-.736 2.058z" id="Shape" fill="#A1EADF"/><path d="M24.272 3.624l-.074-.959v-.078h-.079a14.171 14.171 0 0 0-3.668.114 2.882 2.882 0 0 0-.45-.18h-.055l-2.028.541.018-1.128v-.036l-.022-.027a1.101 1.101 0 0 0-.3-.246 6.477 6.477 0 0 1 .03-1.444l.014-.116h-.118a26.47 26.47 0 0 0-6.945 1.405 4.11 4.11 0 0 0-1.156-.43h-.033l-.03.014-1.263.634c-.389 0-.772 0-1.167.033H6.91l-.025.029c-.197.22-.341.481-.423.763A13.803 13.803 0 0 0 2.563 7.53l-.236.033H2.29l-.024.03a6.776 6.776 0 0 0-1.425 3.736l-.699.589-.035.029v.045a7.163 7.163 0 0 0 .717 2.954 8.205 8.205 0 0 0 .105 3.069 7.65 7.65 0 0 0 1.258 2.828 7.594 7.594 0 0 1-1.164-2.848 8.12 8.12 0 0 1 0-3.053v-.029l-.013-.029a6.962 6.962 0 0 1-.706-2.849l.692-.583.031-.027v-.049a6.572 6.572 0 0 1 1.37-3.635l.245-.034h.052l.022-.047a13.62 13.62 0 0 1 3.891-5.016l.024-.02v-.028c.07-.254.196-.49.369-.69.369-.029.752-.029 1.13-.029h.024l.02-.01 1.249-.618a3.83 3.83 0 0 1 1.106.42l.039.024.042-.016A26.147 26.147 0 0 1 17.433.278c-.055.468-.06.94-.015 1.408v.053l.048.023c.098.051.184.12.255.204l-.019 1.215v.127l.124-.033 2.128-.574c.144.044.283.1.416.17l.032.018h.033a13.974 13.974 0 0 1 3.568-.125l.065.88c.032.314.038.63.016.946a9.003 9.003 0 0 1-.387 1.867l-.013.041.035.024c.13.083.264.139.384.213a13.248 13.248 0 0 0 .066 3.308 13.175 13.175 0 0 1 .04-3.328v-.03l-.025-.019c-.122-.083-.251-.143-.37-.217a8.93 8.93 0 0 0 .44-1.843 4.74 4.74 0 0 0 .018-.982z" id="Shape" fill="#FED893"/><path d="M1.57 15.907c-.37 1.285.169 2.694 1.085 3.68.917.986 2.167 1.612 3.43 2.101a5.065 5.065 0 0 1-1.698-1.341c-.13-.154-.074-.405-.113-.6a.944.944 0 0 1-.427.361c-.428-.274-1.129-1.126-1.129-1.126a10.354 10.354 0 0 1-.048-1.526c-.118.228-.319.426-.437.654a6.941 6.941 0 0 1-.664-2.203zm5.238 3.063c3.359.934 6.956.57 10.048-1.02a5.934 5.934 0 0 1-1.503.272 4.085 4.085 0 0 1-.483-.844c.033.388-.1.77-.369 1.057-.26.287-.632.452-1.023.455a.722.722 0 0 1-.57-.222.921.921 0 0 1-.131-.609c-.38.553-1.035.865-1.706.979a7.761 7.761 0 0 1-2.028-.016.577.577 0 0 1-.087-.401 8.662 8.662 0 0 1-2.148.348zm12.159-1.342a8.242 8.242 0 0 0 2.423-1.665 1.63 1.63 0 0 0-.618-.204c.91-.433 1.78-.903 2.689-1.329a20.765 20.765 0 0 1 1.766-3.958 2.774 2.774 0 0 0-.935-.117c.154.115.264.249.417.361a5.85 5.85 0 0 1-.839 1.472 3.75 3.75 0 0 1-.81 1.933c-.272-.09-.63-.18-.903-.263.174.11.327.247.456.406a6.886 6.886 0 0 1-2.436 1.332c.194.08.347.235.42.428a4.721 4.721 0 0 1-1.63 1.604z" id="Shape" fill="#65D4C9"/><path d="M5.084 22.335a17.41 17.41 0 0 0 9.603 1.693 14.497 14.497 0 0 1-4.934-1.054.781.781 0 0 1-.625.325.523.523 0 0 1-.461-.423c-1.228.026-2.44-.083-3.583-.541zm7.11.776a27.077 27.077 0 0 0 7.055-1.538 2.402 2.402 0 0 1-1.606-.152c0 .14-.074.23-.08.37-.78.26-1.59.429-2.411.5-.052-.115-.13-.21-.184-.325-.036.193-.11.377-.218.542-.41.143-.84.225-1.274.242-.024-.069-.057-.148-.083-.217a2.805 2.805 0 0 1-1.199.578zm10.83-6.007c.185 1.866-.835 3.648-2.556 4.469.3-.277.575-.58.822-.903.254-.32.418-.701.476-1.103 0 .1.067.135.166.13a.283.283 0 0 0 .229-.172.57.57 0 0 0 .035-.29 1.309 1.309 0 0 0-.2-.58c.213.047.429-.121.572-.282.134-.169.225-.367.264-.577.054-.217.12-.49.192-.692z" id="Shape" fill="#0A85AB" opacity=".15" style="mix-blend-mode:multiply"/></g></g></g></g></svg>