<svg width="213" height="176" viewBox="0 0 213 176" xmlns="http://www.w3.org/2000/svg"><defs><radialGradient cx="29.208%" cy="23.669%" fx="29.208%" fy="23.669%" r="77.853%" id="radialGradient-1"><stop stop-color="#FE560F" offset="0%"/><stop stop-color="#FB5212" offset="23%"/><stop stop-color="#F2471B" offset="44%"/><stop stop-color="#E2342A" offset="64%"/><stop stop-color="#CD1A3F" offset="85%"/><stop stop-color="#B80054" offset="100%"/></radialGradient></defs><g id="Page-1" stroke="none" stroke-width="1" fill="none" fill-rule="evenodd"><g id="aff_des_home" transform="translate(-376 -265)" fill-rule="nonzero"><g id="header" transform="translate(376)"><g id="planets_2-05" transform="translate(0 265)"><circle id="Oval" fill="url(#radialGradient-1)" cx="107" cy="89" r="73"/><path d="M74.693 28.081c2.011 2.863 4.18 6.43 6.18 9.293-.982 5.059-1.49 10.457-2.424 15.516a105.448 105.448 0 0 0 12.276 9.947.315.315 0 1 1 0-.279c.573 2.762.93 5.565 1.066 8.383a121.174 121.174 0 0 0 17.51 2.196c1.006-2.1 2.194-4.986 3.2-7.085a7.118 7.118 0 0 1 3.877-.607c.873-2.826.679-6.065 2.545-8.334 2.654-3.287 5.502-6.587 8.143-9.874.546-5.12 1.212-10.846 1.794-15.965 1.817-2.087 3.829-4.185 5.647-6.272 1.066.291 2.18.728 3.26 1.019-1.794 4.853-3.418 10.081-5.211 14.934 1.539 5.592 2.835 11.597 4.374 17.202a117.36 117.36 0 0 0-9.064 11.342c1.66 4.186 3.769 8.59 5.429 12.774-.945-.06-1.709.425-2.654.364-.606 3.64-.74 8.262-1.345 11.901 3.175 4.72 6.92 9.123 10.458 13.575a19.377 19.377 0 0 0 5.453-2.22c3.569.528 7.2.462 10.748-.194.946-4.72 2.024-9.293 2.97-14.012 1.829-.728 3.635-.837 5.477-1.565a39.86 39.86 0 0 0 2.847-9.523c.788 1.286 1.963 2.96 2.751 4.246-2.145 5.326-4.484 10.457-6.628 15.77-.812.207-1.721.74-2.533.935-2.496 3.64-5.465 8.734-9.791 9.705a23.568 23.568 0 0 1-11.137.194c-.909.91-2.423 1.844-2.726 3.093a58.583 58.583 0 0 1-3.708 9.39 47.118 47.118 0 0 1-19.753-3.93 147.685 147.685 0 0 1-10.99 19.883c-1.467-.643-2.788-.692-4.254-1.335-1.393 2.426-2.993 5.022-4.387 7.497a18.668 18.668 0 0 1-5.974-1.334L82.194 150c-3.163-.497-6.241.315-9.089-1.14A72.108 72.108 0 0 1 59 139.397c0-5.726.158-11.367.182-17.093a58.611 58.611 0 0 0 11.124-4.282c1.03-6.332 2.181-12.677 3.211-19.01-.533-.812-.884-1.661-1.43-2.426 3.37-.946 6.471-1.213 9.828-2.171.315-5.326.29-10.736.606-16.062a151.126 151.126 0 0 1-18.177-9.62c-.388-4.792-.715-9.45-1.103-14.242a112.47 112.47 0 0 1 7.429-11.246l-2.206-12.361c2.218-1.226 4.011-1.565 6.229-2.803z" id="Shape" fill="#FF8933" opacity=".3" style="mix-blend-mode:screen"/><path d="M86.384 88.471L80.821 98.73c-.374 5.985-.724 11.982-1.207 17.966v.389l-.265.23-5.467 4.735c-1.798 1.53-3.62 3.083-5.382 4.6-1.207 4.553-2.27 9.117-3.5 13.658.76-4.71 1.653-9.384 2.486-14.082v-.158l.145-.134c1.725-1.687 3.487-3.326 5.237-5.001l4.984-4.698c.181-5.973.435-11.933.664-17.906v-.255l.12-.23 5.407-10.197c-.398-3.8-.736-7.6-1.098-11.4-4.453-2.73-8.87-5.523-13.275-8.303l-.53-.364.132-.692 1.762-9.274 1.81-9.19c-.265-3.035-.47-6.07-.7-9.129a568.16 568.16 0 0 1-.64-9.25c.495 3.047.942 6.07 1.376 9.165.435 3.096.905 6.07 1.304 9.178v.194l-1.424 9.335-1.34 8.62c4.453 2.658 8.918 5.316 13.36 8.023l.494.304v.595c.41 4.115.845 8.23 1.207 12.345v.377l-.097.291zm.797 31.951l.229-.218v-.34l1.315-10.67 1.207-10.416 5.793-9.712.313-.522-.229-.558-3.994-9.554-3.995-7.733-4.03-7.72-.073-.134-.072-.085-5.696-6.18.712-7.574.676-7.976v-.218a490.753 490.753 0 0 0-4.622-7.612 396.816 396.816 0 0 0 3.934 7.854l-1.207 7.806-1.147 7.915v.352l.254.304 5.611 6.543 3.79 7.72 3.704 7.612 3.62 8.983-5.538 9.493-.133.23v.244l-1.05 10.694-.953 10.392a1028.49 1028.49 0 0 0-11.344 11.642l-.072.072v.073c-1.57 3.788-3.174 7.563-4.695 11.375 1.883-3.642 3.68-7.284 5.515-10.926a471.626 471.626 0 0 0 12.177-11.156zM169 85.132c-2.558 2.684-5.068 5.415-7.579 8.134l-.072.073v.134a440.68 440.68 0 0 0-1.81 7.83 1028.73 1028.73 0 0 0-8.086 8.17l-7.723 1.735-7.977 1.833h-.205l-.18.134-7.7 5.341-9.4-.922-9.848-.91h-.531l-.362.363c-3.15 3.205-6.312 6.398-9.425 9.64-3.114 3.24-6.227 6.457-9.316 9.71l-6.469 4.747c-2.18 1.619-4.344 3.237-6.492 4.856a375.4 375.4 0 0 0 6.878-4.273l6.843-4.322c3.29-3.124 6.545-6.252 9.763-9.384 3.125-2.974 6.215-5.996 9.304-9.007l9.328.983 9.836.996h.434l.362-.255 7.856-5.536 7.772-1.906 7.928-2.027.29-.073.18-.194c2.692-2.95 5.395-5.9 8.062-8.874l.145-.17v-.182c.467-2.679.913-5.362 1.34-8.048 2.329-2.841 4.621-5.682 6.854-8.595zm-80.25 37.633c-2.221 2.586-4.442 5.172-6.626 7.806l7.24-7.284c2.414-2.428 4.828-4.856 7.157-7.284l.145-.157v-.243l1.279-7.624 1.207-7.405 5.225-8.376 5.262-8.583.06-.109v-.133c1.46-4.25 2.86-8.498 4.284-12.771 4.236-2.901 8.447-5.863 12.66-8.801l.35-.243.072-.4c.808-4.674 1.653-9.336 2.413-14.022.76-4.685 1.496-9.347 2.245-14.009L134.317 29l-3.005 3.909c-1.062 4.625-2.184 9.238-3.186 13.863-1.001 4.625-1.954 8.983-2.92 13.475-4.284 2.84-8.58 5.67-12.828 8.498l-.326.218-.133.376c-1.472 4.334-2.98 8.656-4.404 13.002l-5.13 8.497-5.128 8.668-.12.194v.194l-.978 7.673-.917 7.465a505.106 505.106 0 0 1-6.493 7.757v-.024zm45.676-66.16c-1.955 2.052-3.91 4.103-5.829 6.191-1.919 2.088-3.946 4.37-5.925 6.52l-.217.242-.06.34a472.343 472.343 0 0 0-1.51 8.85c-.482 2.864-.916 5.73-1.35 8.606a451.822 451.822 0 0 0-6.867 8.801c-2.317 3.047-4.61 6.07-6.807 9.263a270.491 270.491 0 0 0 7.88-8.364 558.245 558.245 0 0 0 7.615-8.57l.17-.207v-.304a437.429 437.429 0 0 0 1.629-8.837c.506-2.95.99-5.681 1.448-8.498 1.87-2.112 3.692-4.249 5.527-6.397a609.62 609.62 0 0 0 5.647-6.75l.23-.279v-.303c-.459-4.54-.966-9.093-1.617-13.62-.085 4.454-.085 8.897.036 13.34v-.024zm-6.987 54.106l-3.283-2.428-3.753-2.695-.64-.462-.64.401a189.213 189.213 0 0 0-7.445 4.856c-2.413 1.675-4.827 3.375-7.24 5.232 2.739-1.214 5.394-2.428 8.025-3.8a174.785 174.785 0 0 0 7.095-3.848l3.102 2.33 3.753 2.696.446.328.495-.134c2.8-.728 5.588-1.493 8.375-2.319 2.788-.825 5.54-1.736 8.267-2.792-2.909.267-5.769.717-8.629 1.214-2.619.364-5.273.886-7.928 1.445v-.024zM91.56 67.373l6.54 17.76v-8.255l-6.54-9.505zm30.821 31.866l4.067 4.552 9.654 1.639-13.72-6.191zm6.83-16.692l-.651-8.801-3.826 15.988 4.478-7.187zm-25.788 52.297l6.939-10.015-13.07 11.435 6.13-1.42z" id="Shape" fill="#DB4200" opacity=".4" style="mix-blend-mode:multiply"/><path d="M39 95.756c4.643 24.256 24.12 45.038 48.01 51.25 23.891 6.212 51.026-2.412 66.885-21.397 15.859-18.986 19.658-47.162 9.359-69.609 1.99 8.033.253 16.525-2.304 24.389-4.33 13.34-13.049 25.426-25.012 32.76-11.964 7.333-27.183 9.565-40.413 4.909-13.23-4.656-23.963-16.452-26.23-30.3-8.117 5.236-20.671 8.733-30.295 7.998z" id="Shape" fill="#DB4200" opacity=".6" style="mix-blend-mode:multiply"/><path d="M52.815 48.914a63.748 63.748 0 0 0-1.566 58.109c8.853 18.489 26.056 31.56 46.2 35.102 17.346 3.051 36.365-1.885 48.584-14.662 10.352-10.942 14.922-26.248 15.759-41.262a72.304 72.304 0 0 0-3.08-27.038A45.628 45.628 0 0 0 143.392 37c-.32 14.411-7.785 27.713-19.905 35.463-11.806 7.55-27.14 8.936-40.354 4.304-13.213-4.632-24.268-15.185-30.317-27.853z" id="Shape" fill="#DB4200" opacity=".4" style="mix-blend-mode:multiply"/><path d="M131.57 14.49c-.49.337-.777.661-1.267.998A81.77 81.77 0 0 0 120.552 8c6.5 16.045-10.05 28.845-4.326 44 0-.553.083-1.094.107-1.647 2.318-3.305 7.362-9.614 7.362-9.614l3.202-14.53 4.29-5.205s2.642-1.502 3.813-2.031a17.632 17.632 0 0 0-3.43-4.483zM101.272 26c5.149-3.521 9.652-8.345 11.728-14.472l-4.187-3.618c-.457 0-.82.097-1.278.12A71.207 71.207 0 0 0 98 1c3.718 7.754 5.371 16.377 3.272 25z" id="Shape" fill="#E6250C"/><path d="M120.436 7.589l-.644-.438a36.092 36.092 0 0 0-5.852 3.977l-.327-.28c-2.137 6.154-6.8 11.019-12.141 14.594 2.173-8.695.449-17.403-3.412-25.223L97.72 0c-.874.973-1.663 2.019-2.537 3.004-.814.231-1.433.499-2.246.73-2.78 3.794-5.585 7.71-8.365 11.505A53.527 53.527 0 0 0 76 17.355c.206.912.28 1.812.473 2.724 2.089.498 4.08 1.094 6.168 1.593-.74.45-1.687.827-2.428 1.216a75.787 75.787 0 0 1 8.183 9.292c-.971 5.266-1.882 10.58-2.331 15.92a23.175 23.175 0 0 0 9.615 8.196c.68-.134 1.348-.158 2.016-.292a51.834 51.834 0 0 0 3.4-14.873c.836 6.14 1.132 12.342.886 18.534A21.833 21.833 0 0 0 107.664 62l2.816-1.849c1.516-.448 3-.996 4.444-1.641.592-2.092.966-4.24 1.117-6.41-5.816-15.262 11-28.275 4.395-44.511z" id="Shape" fill="#FE560F"/><path d="M151 40c4.351 0 7.737 0 11-1.666a22.942 22.942 0 0 0-.978-6.193l-.489-.141c-3.52 3.449-4.742 6.85-9.533 8zm26.182 25.362A28.3 28.3 0 0 0 178.01 58c-1.34 1.092-3.407 2.307-4.509 4.466 1.252 3.681 0 6.135-2.505 8.59-.914-.896-2.505.159-3.269-.148-.238 1.043-.488 2.11-.726 3.104a13.912 13.912 0 0 0 4.509 2.025c.563.785.626 1.227 1.177 1.963A16.515 16.515 0 0 0 180 73.595a22.46 22.46 0 0 0-2.818-8.233zM141.89 83.518c-1.285 1.557-2.653 3.36-2.653 3.36A65.228 65.228 0 0 0 137 93.232a21.467 21.467 0 0 0 4.402 7.2c2.98.539 6.014.695 9.032.465a24.022 24.022 0 0 0 4.759-4.967 51.83 51.83 0 0 0 .107-6.44c1.547-.956 3.237-2.22 4.879-3.004a30.59 30.59 0 0 0 .82-7.212A43.776 43.776 0 0 0 157.835 74c-3.367 5.532-8.471 12.118-15.944 9.518z" id="Shape" fill="#E6250C"/><path d="M173.846 55.034c-4.991.941-10.622-1.653-15.71-2.485 5.595-2.233 12.217-2.413 16.048-7.24v-.265a43.53 43.53 0 0 0-12.399-6.238v-.072c-3.238 1.7-6.586 1.713-10.876 1.713 4.738-1.207 6.043-4.682 9.45-8.229a46.169 46.169 0 0 0-9.667-1.617A37.591 37.591 0 0 0 141.798 23a73.199 73.199 0 0 1-3.251 15.347l2.2 1.665c.24 3.113 1.413 9.038 1.413 9.038s3.529 4.91 5.462 7.372a60.251 60.251 0 0 1-2.658 10.28 12.756 12.756 0 0 1-3.13-1.653A34.494 34.494 0 0 1 137 68.825c.495 1.532 1.208 4.537 1.208 4.537s3.372 5.61 4.834 8.578c-.374.399-.846.93-1.317 1.484 7.59 2.558 12.773-3.92 16.23-9.375a11.31 11.31 0 0 0-1.209-1.435c2.417-1.714 4.556-3.379 7.033-4.935 1.124.458 2.514.929 3.626 1.387-.109.459-.218.942-.326 1.424.76.302 2.271-.736 3.154.145 2.417-2.413 3.625-4.826 2.417-8.446 1.063-2.124 3.057-3.306 4.35-4.392v-.108a22.795 22.795 0 0 0-3.154-2.655z" id="Shape" fill="#FE560F"/><path d="M174.989 45c-3.817 4.861-10.415 5.007-15.989 7.292 5.02.85 10.631 3.451 15.652 2.503l-.699-.498A34.332 34.332 0 0 0 174.99 45zm-135.745-.282a12.42 12.42 0 0 1 .08 3.957L39 49c4.166-.29 7.194-3.145 11-6a18.342 18.342 0 0 1-10.756 1.718zM49 55c-5.309 1.78-10.617 1.643-15.926.97l-.074.075c.087 3.447.396 6.595.78 9.955 6.954-1.257 11.656-3.833 15.22-11zm-3.564 45.64c-4.024-9.217-2.801-18.422.594-27.64a15.904 15.904 0 0 1-17.662 1.29c-.119.218-.25.411-.368.628 1.46 6.31 5.59 18.194 5.59 18.194l.475 17.108 6.398 9.146s3.311 10.158 5.543 14.948a12.86 12.86 0 0 0 4.902.664c.51-3.33 1.092-9.725 1.092-9.725l-7.763-15.069a94.49 94.49 0 0 1 1.2-9.543z" id="Shape" fill="#E6250C"/><path d="M46.084 103.5C46 105.711 46 107.35 46 107.35s4.424 7.031 7.709 9.65A35.186 35.186 0 0 0 63 110.411c-.731-2.846-1.81-7.725-2.17-9.411-4.328 3.492-9.915 5.118-14.746 2.5z" id="Shape" fill="#E6250C"/><path d="M63.132 89.91c1.714-.855 3.74-1.554 5.454-2.41A19.368 19.368 0 0 0 70 81.956c-1.438-.771-2.72-1.554-4.147-2.326.156-1.036.587-2.048.73-3.097a48.448 48.448 0 0 1-11.985-9.641c.647.072 1.654.385 2.313.458.057-4.915-.175-9.829-.695-14.716a3.22 3.22 0 0 0-1.93.097c2.973-5.026 6.64-9.642 10.092-14.342A29.783 29.783 0 0 0 61.813 27a102.238 102.238 0 0 0-14.096 4.544c1.043 1.892 2.398 3.483 5.298 3.483a10.465 10.465 0 0 1-7.107 1.434l-.132.421a37.053 37.053 0 0 0-6.281 7.075v.12a18.86 18.86 0 0 0 11.123-1.82c-3.931 2.965-7.06 5.93-11.363 6.231-2.157 2.206-4.303 4.58-6.46 6.761 5.142.651 10.284.784 15.426-.94-3.464 6.966-8.019 9.461-14.743 10.775l.072.602A59.824 59.824 0 0 0 28 73.761a16.205 16.205 0 0 0 17.836-1.29c-3.428 9.208-4.663 18.404-.6 27.611a30.257 30.257 0 0 1 1.87-6.64 47.89 47.89 0 0 0-1.067 9.256c4.795 2.65 10.416.976 14.732-2.52l-.132-.602a90.135 90.135 0 0 1 2.493-9.665z" id="Shape" fill="#FE560F"/><path d="M53 35.454c-2.88 0-4.19-1.59-5.218-3.454l-.247.096L46 36.876a10.248 10.248 0 0 0 7-1.422z" id="Shape" fill="#E6250C"/><path d="M110 165.131c1 .94-.32 2.604.244 3.869a34.525 34.525 0 0 0 5-2.724l.756.278c-1.051-2.194-3.936-1.423-6-1.423z" id="Shape" fill="#FE560F"/><path d="M177.993 106.332L181 92.62s-1.091-4.753-2.752-6.62c-1.213.34-2.316.812-3.565 1.152a82.875 82.875 0 0 1-5.456 22.005c-1.564.206-2.934.29-4.498.497l-10.657 8.571c-1.674-.351-3.529-1.055-5.202-1.406-1.867 1.77-3.637 3.407-5.492 5.177-1.055 3.637-2.498 7.929-3.553 11.542-.351-1.116-.254-2.183-.606-3.286-6.765.4-13.337.618-20.15 1.019l-4.644 6.862c1.212 3.03 2.012 5.589 3.225 8.62a16.84 16.84 0 0 0-3.056 3.637c2.11 1.624 3.977 3.298 6.063 4.922a48.184 48.184 0 0 1-15.629-4.534 146.116 146.116 0 0 0-14.61 5.88s-3.08.073-4.85.06c-.254.655-.351 1.213-.606 1.916-2.728-.267-5.614-.594-8.342-.86-.751-.813-1.212-2.207-2.291-2.535-2.17-.679-4.17-1.49-6.329-2.17a74.393 74.393 0 0 0 7.093 8.05s12.658 1.722 18.66 1.492c5.25 2.134 10.984 4.158 16.234 6.292l.206-.097c-.545-1.212.715-2.946-.23-3.892 1.952 0 4.668-.776 5.674 1.43 2.304.922 5.08 1.686 7.275 2.656h.097c-.146-3.77 2.218-6.268 6.353-5.238.271.282.522.581.752.898a68.81 68.81 0 0 0 14.003 1.855l.146-.328c-4.207-6.886 1.928-16.015 9.47-15.846a69.5 69.5 0 0 0 9.177-3.382l.122-.291c-1.104-1.528-1.577-3.516-3.371-3.516 2.716-7.274 6.778-15.822 13.713-21.229l.06-.158 3.892-4.716c-2.121-.618-4.328-.836-4.328-1.77-1.006-3.964 1.916-6.244 4.995-8.947z" id="Shape" fill="#E6250C"/><path d="M123.006 169a30.695 30.695 0 0 0 6.123-4.15l.871.189a7.786 7.786 0 0 0-.74-.821c-4.07-.954-6.397 1.331-6.254 4.782zm21.376-2c2.216-5.129 4.507-10 6.724-15.14l2.894-.858c-7.61-.171-13.88 9.058-9.618 15.998zM160 143.448c1.832 0 2.315 2.009 3.441 3.552 3.54-8.195 9.903-23.273 10.559-25-7.068 5.426-11.227 14.135-14 21.448zm17.791-35.445L178 107c-2.938 2.734-5.748 5.143-4.82 9.169 0 .978 2.114 1.254 4.146 1.831l.082-.113.383-9.884z" id="Shape" fill="#FE560F"/><path d="M70.072 82.949a19.588 19.588 0 0 1-1.41 5.557c-1.722.862-3.758 1.566-5.481 2.427a90.875 90.875 0 0 0-2.53 9.708s1.421 6.625 2.313 10.156a35.366 35.366 0 0 1-9.337 6.686c-3.29-2.657-7.747-9.792-7.747-9.792s0-8.822 1.204-13.227C44.674 99.585 44 110.761 44 110.761l7.88 15.156s-.59 6.431-1.109 9.78a13.237 13.237 0 0 1-4.82-.619A18.823 18.823 0 0 0 54.784 141a61.402 61.402 0 0 1 2.41-16.382c-.265-.873-.386-1.601-.663-2.426a29.746 29.746 0 0 0 11.097-6.48 67.443 67.443 0 0 0 1.53-14.258 22.927 22.927 0 0 1-4.097-3.386c.301-1.08.699-2.245 1-3.325a42.237 42.237 0 0 0 10.844-3.895A62.388 62.388 0 0 0 79 80.146L77.952 80a31.581 31.581 0 0 1-7.88 2.949z" id="Shape" fill="#800060"/><path d="M72.475 78.636c-.477-1.382-.905-2.849-1.394-4.243a17.224 17.224 0 0 1-9.507-5.492c.294-.266.734-.448 1.027-.715-.122-4.849 0-9.698-.122-14.547l-1.662-.34a73.176 73.176 0 0 0 9.397-11.516 62.32 62.32 0 0 0-2.7-13.334L62.734 28a29.622 29.622 0 0 1 2.554 11.31C61.77 44.062 58.031 48.681 55 53.736a3.325 3.325 0 0 1 1.967-.097c.531 4.916.768 9.858.71 14.802-.66-.073-1.687-.388-2.36-.46a49.278 49.278 0 0 0 12.22 9.697c-.158 1.043-.598 2.061-.745 3.116 1.467.654 2.689 1.43 4.167 2.206A32.338 32.338 0 0 0 79 80.03a60.012 60.012 0 0 1-6.525-1.394zm63.363-59.498c-1.215.58-3.719 1.973-3.719 1.973l-4.362 5.228-3.257 14.61s-5.13 6.366-7.487 9.682a33.762 33.762 0 0 1-1.215 8.037 35.897 35.897 0 0 1-4.448 1.634l-2.82 1.84a21.926 21.926 0 0 1-5.687-2.324 104.95 104.95 0 0 0-.9-18.446A51.336 51.336 0 0 1 98.59 56.2c-.68.133-1.349.157-2.017.29a23.163 23.163 0 0 1-9.626-8.157c.45-5.314 1.374-10.603 2.334-15.844a75.562 75.562 0 0 0-8.191-9.271c.741-.448 1.689-.823 2.43-1.21-2.09-.497-4.083-1.09-6.173-1.586-.183-.8-.268-1.598-.426-2.421A18.106 18.106 0 0 0 75 23.47a5.603 5.603 0 0 1 2.054.836c.073.424-.158.86-.085 1.283 3.05 2.227 5.98 4.454 8.823 6.935-1.215 5.822-2.37 11.692-3.524 17.514a22.279 22.279 0 0 0 13.368 9.102c.468 1.905.78 3.843.936 5.798A30.946 30.946 0 0 0 108.798 68c1.215-1.864 2.212-3.692 3.366-5.556l4.23-.532c1.36-3.026 1.215-5.362 1.506-8.666a94.315 94.315 0 0 0 9.006-9.683c.571-4.987.826-10.07 1.798-14.997a78.326 78.326 0 0 1 7.292-5.3 39.865 39.865 0 0 0-.158-4.128zM143 23.06V23zm36.07 48.3c0-.12 0-.24-.07-.36.03.12.05.21.07.36zm-39.811 15.956s2.63-3.318 4.081-4.88c-1.512-3-4.917-8.671-4.917-8.671s-.677-3.037-1.23-4.586a35.063 35.063 0 0 0 4.918-3.818 13.01 13.01 0 0 0 3.184 1.67A60.596 60.596 0 0 0 148 56.64c-1.967-2.44-5.557-7.453-5.557-7.453s-1.23-5.988-1.439-9.135l-2.237-1.684A73.59 73.59 0 0 0 142.049 23l-3.27.707a53.026 53.026 0 0 1-4.119 15.637l1.377 1.22a71.708 71.708 0 0 1 2.336 10.343c2.3 2.318 4.426 4.623 6.726 6.94a36.226 36.226 0 0 1-1.82 4.88 32.87 32.87 0 0 0-5.311-1.281c-1.906 2.354-3.96 4.72-5.73 7.171.468 2.696 1.955 7.746 1.955 7.746s3.984 3.854 5.852 6.013c-2.458 1.537-5.225 3-7.659 4.66a35.845 35.845 0 0 0-.283 7.964c1.697-.842 3.492-1.647 5.225-2.635.738-2.207 1.93-5.05 1.93-5.05z" id="Shape" fill="#B80054"/><path d="M155.897 96.195v-.392a23.624 23.624 0 0 1-4.763 4.813c-3.02.223-6.055.071-9.037-.451a20.71 20.71 0 0 1-4.406-6.977c.096-.356.215-.784.37-1.188-1.68.963-3.418 1.747-5.061 2.567 0 .297 0 .582.06.891.44 4.398 5.072 7.036 7.763 10.542a17.118 17.118 0 0 0 4.572-1.77 57.5 57.5 0 0 0 9.526.13 18.46 18.46 0 0 0 .976-8.165zM179 73.61a16.35 16.35 0 0 1-1.023 5.682 43.473 43.473 0 0 1-7.81 2.708c-.362-1.02-.614-2.052-.988-3.072a57.62 57.62 0 0 1-5.475-3.06c.06-.935.264-1.797.324-2.732a6.177 6.177 0 0 0-1.961-1.214 33.6 33.6 0 0 0-3.31 3.193A13.792 13.792 0 0 0 157 72.966c2.407-1.724 4.537-3.4 7.004-4.966 1.12.461 2.504.935 3.61 1.396-.348 1.457-.685 3.048-1.034 4.505a13.184 13.184 0 0 0 4.332 2.004c.542.777.602 1.214 1.132 1.942A15.705 15.705 0 0 0 179 73.61z" id="Shape" fill="#800060"/><path d="M161 78c.18.245.325.515.43.8 0 0-.16-.32-.43-.8z" id="Shape" fill="#B80054"/><path d="M162.114 79c1.143 3.414.873 4.882.822 8.447A56.741 56.741 0 0 0 156 91v-2.33c1.67-.909 3.494-2.109 5.266-2.854.587-2.233.872-4.521.848-6.816zm-93.836 74.415c2.158.682 4.147 1.497 6.293 2.178 1.05.329 1.52 1.74 2.279 2.543 2.712.268 5.582.596 8.294.864.254-.657.35-1.217.603-1.922 1.76 0 4.823-.061 4.823-.061a144.52 144.52 0 0 1 14.611-5.913 47.582 47.582 0 0 0 15.565 4.55c-2.098-1.63-3.955-3.31-6.028-4.94a16.863 16.863 0 0 1 3.038-3.65c-1.206-3.041-2.001-5.608-3.207-8.65l4.57-6.862c6.727-.402 13.26-.62 20.036-1.022.35 1.12.254 2.178.603 3.297 1.05-3.65 2.484-7.957 3.533-11.583 1.856-1.776 3.616-3.418 5.461-5.195 1.664.353 3.508 1.059 5.172 1.412l10.597-8.602c1.556-.207 2.918-.292 4.473-.5a83.795 83.795 0 0 0 5.462-22.082c1.205-.34 2.302-.815 3.544-1.156V86a18.257 18.257 0 0 0-6.233-.998 156.854 156.854 0 0 1-7.234 18.25c-1.519.268-4.183 1.095-4.183 1.095s-5.908 6.083-8.934 9.125c-2.41.061-4.677.085-7.064.146a63.347 63.347 0 0 0-5.619 4.867s-1.892 5.463-2.917 8.079c-3.798.243-11.164.632-11.164.632s-4.991-1.131-7.62-1.423a73.49 73.49 0 0 0-9.946 14.393c.278 1.594.724 3.236 1.001 4.867-3.315-.45-6.426-.937-9.741-1.387-.627 1.545-1.013 3.212-1.64 4.757a56.035 56.035 0 0 0-7.234-1.022 18.482 18.482 0 0 0-4.822 6.205 23.897 23.897 0 0 1-5.594.377c-.145-.28-.072-.548-.217-.827A114.318 114.318 0 0 0 67 149.01a16.636 16.636 0 0 0 1.278 4.404z" id="Shape" fill="#800060"/><path d="M93.7 22.49c-.557.964-1.344 1.976-2.421 2.06a3.642 3.642 0 0 1-2.422-1.024 58.637 58.637 0 0 1-5.704-5.228A33.184 33.184 0 0 0 95.88 6a22.864 22.864 0 0 1-2.18 16.49zm24.218-10.973l-4.08 3.168A28.456 28.456 0 0 1 98.156 31.09c2.325 2.409 4.553 5.107 6.878 7.564a45.77 45.77 0 0 0 12.92-27.138h-.036zm38.592 20.658a16.174 16.174 0 0 0-6.055-.566 18.631 18.631 0 0 0-5.776-5 14.384 14.384 0 0 0 .133 10.733 23.066 23.066 0 0 0 11.746-5.18l-.048.013zm16.165 12.37a28.786 28.786 0 0 0-9.748-4.288 21.24 21.24 0 0 1-10.752 1.88c2.421 2.938 5.182 5.3 8.936 5.769a17.612 17.612 0 0 0 11.564-3.36zm-19.798 7.589a11.927 11.927 0 0 0-2.422 5.938 16.373 16.373 0 0 0 14.107 7.228 18.594 18.594 0 0 1 6.624.855 7.38 7.38 0 0 0-1.623-5.698A34.065 34.065 0 0 0 175 57.422a130.135 130.135 0 0 1-22.123-5.3v.012zM59.529 28.513a29.652 29.652 0 0 0-9.93 3.794 12.5 12.5 0 0 0 4.699 1.205c2.252.096 4.77-2.759 5.23-5zm-6.975 7.962a8.962 8.962 0 0 1-6.055 1.385 20.035 20.035 0 0 0-4.165 4.53c3.826-.254 7.713-2.964 10.22-5.915zm-1.514 7.54c-3.39 2.77-11.406 6.42-11.406 6.42l-3.137 3.35c5.837-.362 11.6-4.674 14.543-9.77zm-6.72 26.813c3.863-3.613 4.916-9.299 5.74-14.55a23.665 23.665 0 0 1-15.088 10.166L31 72.84a12.073 12.073 0 0 0 13.32-2.012z" id="Shape" fill="#FF8933"/><path d="M99.036 159.649c-.498-3.836 4.233-5.207 7.08-4.618a7.63 7.63 0 0 1 3.405 1.287A60.94 60.94 0 0 0 107.94 165c-2.348-.842-8.526-2.441-8.904-5.351zm22.088 5.243a26.398 26.398 0 0 1 2.433-7.504c-.061.12-4.281 0-4.865.24a4.08 4.08 0 0 0-2.494 2.285c-1.18 3.103 2.603 4.293 4.926 4.979zm16.749-3.007c.364-8.265 5.463-15.602 13.135-18.903a35.653 35.653 0 0 0-11.14-4.954 18.918 18.918 0 0 0-12.018.974 13.433 13.433 0 0 0-6.081 5.507c-1.666 2.97-.742 4.317 1.216 6.746a34.956 34.956 0 0 0 14.9 10.63h-.012zM167.988 121c-.535.565-4.415.673-5.364.962a25.58 25.58 0 0 0-5.279 2.249 23.598 23.598 0 0 0-8.27 7.443c-2.336 3.608-.742 6.097 3.113 7.456.915.416 1.893.68 2.895.781 1.41 0 1.216-.6 1.824-1.936a54.9 54.9 0 0 1 2.676-5.507 56.3 56.3 0 0 1 8.417-11.4l-.012-.048z" id="Shape" fill="#CC0B1B"/><path d="M179.976 73.475a22.551 22.551 0 0 0-2.597-8.143c.61-2.404.916-4.874.91-7.354v-.122l-.097-.097a25.106 25.106 0 0 0-3.64-3.113 35.782 35.782 0 0 0 1.214-9.354v-.255l-.207-.17a40.837 40.837 0 0 0-12.194-6.276 26.623 26.623 0 0 0-.97-6.18l-.085-.339-.328-.096a46.164 46.164 0 0 0-10.07-1.77 38.484 38.484 0 0 0-8.494-7.27l-.085-.169v-.206l-.388.085-.789-.485-.072.679-2.427.533-3.434-1.6a18.15 18.15 0 0 0-.085-1.83l.377-.169-.34-.581-.158-.267v-.242h-.085a17.367 17.367 0 0 0-3.312-4.205l-.352-.315-.388.267c-.352.242-.643.497-.923.727A89.35 89.35 0 0 0 120.73 7.44l-.303-.194-.316.17a35.48 35.48 0 0 0-5.557 3.72L110.27 7.5l-.194-.17h-.242l-1.092.11A76.366 76.366 0 0 0 98.647.267L98.21 0l-.328.376-2.426 2.871-2.063.667-.206.072-.11.158-8.25 11.232a54.782 54.782 0 0 0-8.493 2.144l-.498.17.097.545v.097a18.812 18.812 0 0 0-1.771 4.98 73.432 73.432 0 0 0-7.693 4.41l-3.64-.35-.12-.28-.498.122-.304.072h-.449v.146a108.48 108.48 0 0 0-13.929 4.507l-.267.11-.084.278-1.663 5.125a38.572 38.572 0 0 0-6.321 7.088l-.146.194v.243c.227 1.275.268 2.577.122 3.865l-6.795 7.064-.182.194v.254c.085 3.405.425 6.785.813 10.13a73.021 73.021 0 0 0-3.058 4.083 64.494 64.494 0 0 0-2.839 4.555l-.109.206v.23c.764 3.139 1.71 6.192 2.681 9.246a289.305 289.305 0 0 0 3.022 9.002l.242 8.482c.073 2.86.146 5.73.28 8.59v.182l.096.133 6.637 9.051c.882 2.504 1.8 4.996 2.755 7.476.97 2.496 1.953 4.992 3.118 7.416v.072H46A19.064 19.064 0 0 0 55.003 141a18.892 18.892 0 0 1-8.711-5.95v-.084h-.231c-1.067-2.423-1.977-4.907-2.863-7.403a265.622 265.622 0 0 1-2.548-7.597l-6.297-9.136c0-2.811-.122-5.622-.207-8.482l-.242-8.59v-.182a384.278 384.278 0 0 1-3.046-9.063c-.946-2.957-1.856-5.925-2.596-8.918.837-1.454 1.699-2.884 2.657-4.253a79.089 79.089 0 0 1 3.155-4.204l.157-.194v-.255c-.376-3.344-.728-6.688-.825-10.02l6.759-7.028.133-.133v-.182a13.23 13.23 0 0 0-.073-4.156 36.087 36.087 0 0 1 6.067-6.81l.145-.108v-.17l1.626-5.004a104.656 104.656 0 0 1 14.16-4.531l-.11.145 4.235.4h.218l.182-.121a72.267 72.267 0 0 1 8.008-4.58l.28-.134v-.303c.333-1.791.943-3.52 1.807-5.125l.097-.182a52.56 52.56 0 0 1 7.972-1.926h.243l.145-.206L93.54 5.21l2.038-.666h.182l.097-.121 2.208-2.606a74.132 74.132 0 0 1 9.707 6.955l.194.17h.243l1.08-.097 4.465 3.78.376.328.388-.315a36.268 36.268 0 0 1 5.436-3.72 85.297 85.297 0 0 1 10.495 7.39l.352.328.4-.279c.34-.242.631-.472.898-.702a16.966 16.966 0 0 1 2.657 3.465l-.17.133a.593.593 0 0 0-.157.473c.017.224.157.42.364.509h.182v2.155l.364.17 3.93 1.842.207.097h.194l2.427-.521.255.315.618-.255a37.792 37.792 0 0 1 8.142 7.088l.17.194h.279c3.286.203 6.54.76 9.706 1.66a23.26 23.26 0 0 1 .874 5.962v.436l.412.145a66.323 66.323 0 0 1 6.407 2.63 33.984 33.984 0 0 1 5.702 3.344 33.881 33.881 0 0 1-.922 9.123l-.073.279.231.157c1.358.872 2.63 1.87 3.798 2.981a28.376 28.376 0 0 1-.692 7.197v.158a22.395 22.395 0 0 1 2.84 7.997l-.074.072a16.13 16.13 0 0 1-.691 4.847c.524-1.564.806-3.198.837-4.847l.085-.084-.024.097zM62.053 28.074l.934-.412-.46.642-.474-.23z" id="Shape" fill="#FED893"/><path d="M181 92.838v-.073a25.166 25.166 0 0 0-1.966-5.234 74.157 74.157 0 0 0-.977-9.531c.385 3.182.562 6.387.53 9.592a24.4 24.4 0 0 1 1.677 5.148c-1.206 4.857-2.412 9.714-3.425 14.57v.11l-.386 9.374-3.835 4.674v.158l-10.385 25.013a84.89 84.89 0 0 1-11.675 4.116l-.265.085-.12.267-6.562 14.959a71.07 71.07 0 0 1-6.995-.595 64.862 64.862 0 0 1-3.618-.607c-1.206-.23-2.412-.534-3.619-.801l-.313-.073-.23.182c-1.012.838-1.977 1.7-2.99 2.489a17.57 17.57 0 0 1-2.955 1.906c-1.206-.522-2.485-.959-3.727-1.384-1.242-.425-2.654-.923-3.92-1.445l-.326-.133-.265.194a31.97 31.97 0 0 1-4.607 2.683l-16.03-6.107h-.252a80.824 80.824 0 0 1-9.227-.437c-3.015-.28-6.03-.62-9.021-1.02l-3.546-3.716a40.7 40.7 0 0 1-3.414-4.007 13.224 13.224 0 0 1-.989-3.047v-.17l-.132-.073A72.71 72.71 0 0 1 55 140.325a73.13 73.13 0 0 0 11.892 10.114 13.26 13.26 0 0 0 .893 3.206 41.468 41.468 0 0 0 3.316 4.31 81.365 81.365 0 0 0 3.69 3.934l.146.146h.193c3.087.413 6.175.765 9.286 1.044 1.556.146 3.1.267 4.668.352 1.568.085 3.04.146 4.571.085l16.041 6.29.253.097.23-.11a33.785 33.785 0 0 0 4.727-2.72 56.56 56.56 0 0 0 3.715 1.36c1.242.414 2.666.9 3.92 1.458l.253.109.241-.121a18.485 18.485 0 0 0 3.402-2.174c.964-.753 1.869-1.554 2.786-2.319 1.121.255 2.243.534 3.389.753a75.2 75.2 0 0 0 3.727.62c2.496.341 5.008.552 7.526.63h.41l.168-.376 6.622-15.08a82.85 82.85 0 0 0 11.783-4.19l.217-.096.085-.207 10.469-25.158 3.907-4.76.133-.158v-.206l.386-9.52c1.122-4.856 1.966-9.81 2.943-14.715l.012-.085z" id="Shape" fill="#EA87B4"/><path d="M206.857 37.846A62.553 62.553 0 0 0 212 21.32c-2.426-5.541-4.852-11.637-7.278-17.178-4.572-.676-13.718 1.28-13.718 1.28l-10.989 13.821s-.182 10.6.716 15.814A36.308 36.308 0 0 0 196.608 43a62.995 62.995 0 0 0 10.25-5.154z" id="Shape" fill="#FE560F"/><path d="M212 22.937c-1.894 3.23-3.825 6.411-5.707 9.677-.599-3.002-1.332-6.003-1.93-8.957-1.003.768-1.968 1.657-2.958 2.401-3.947-2.005-7.808-3.902-11.743-5.907 0-1.753.379-3.398.415-5.151a11.29 11.29 0 0 0-3.666 5.355 49.402 49.402 0 0 0-3.116 10.314 39.01 39.01 0 0 1-1.833-9.413l-1.454.636a95.661 95.661 0 0 0 .745 13.207A36.762 36.762 0 0 0 196.75 43a63.803 63.803 0 0 0 10.363-5.09A63.214 63.214 0 0 0 212 22.936z" id="Shape" fill="#B80054"/><path d="M183 34.407C186.244 37.655 195.625 41 195.625 41l9.721-3.663L210 20.977s-3.33-9.12-6.404-12.977a23.796 23.796 0 0 1-4.228 18.069c-3.354 4.676-10.84 6.544-16.368 8.338z" id="Shape" fill="#DB4200" opacity=".6" style="mix-blend-mode:multiply"/><path d="M213 22.088c-.7-1.401-1.388-2.827-2.063-4.24l-2.014-4.264-3.918-8.527.503.377c-2.27-.17-4.553-.08-6.803.268a85.64 85.64 0 0 0-6.829 1.133l.442-.28a631.788 631.788 0 0 1-11.274 13.84l.123-.354a215.678 215.678 0 0 0-.135 7.98 76.34 76.34 0 0 0 .282 7.979 57.762 57.762 0 0 1-1.02-7.955 158.37 158.37 0 0 1-.294-8.016v-.207l.123-.17c3.586-4.752 7.27-9.418 10.967-14.072l.172-.219h.27a79.37 79.37 0 0 1 6.988-1.096c1.228-.122 2.358-.22 3.55-.244a20.353 20.353 0 0 1 3.623.158h.368l.123.317 3.488 8.76 1.682 4.41A172.483 172.483 0 0 1 213 22.087z" id="Shape" fill="#FED893"/><path d="M181 36.041a44.921 44.921 0 0 0 7.597 4.615 38.191 38.191 0 0 0 8.294 2.769h-.385a38.544 38.544 0 0 0 5.085-2.388c1.682-.886 3.33-1.845 4.964-2.818l-.277.32c1.202-2.633 2.344-5.328 3.318-8.085A79.657 79.657 0 0 0 212 22a44.566 44.566 0 0 1-1.503 8.811 58.94 58.94 0 0 1-2.92 8.405l-.085.197-.192.123a92.411 92.411 0 0 1-5 2.941 37.924 37.924 0 0 1-5.337 2.461l-.193.062h-.192a31.614 31.614 0 0 1-8.414-3.335A31.348 31.348 0 0 1 181 36.041z" id="Shape" fill="#EA87B4"/><path d="M183.007 31.374A34.918 34.918 0 0 0 195.652 38a45.779 45.779 0 0 0 8.766-4.078 70.487 70.487 0 0 0 2.562-13.55c.297-3.134-2.8-5.777-4.496-8.372a98.853 98.853 0 0 1-10.023 16.743 45.578 45.578 0 0 1-8.671-3.588 20.862 20.862 0 0 0-.783 6.22z" id="Shape" fill="#DB4200" opacity=".6" style="mix-blend-mode:multiply"/><path d="M3.007 134.388a53.326 53.326 0 0 1-1.89-18.031A41.414 41.414 0 0 1 8.147 109c3.666.092 7.306.64 10.835 1.635A54.11 54.11 0 0 1 26 119.17a75.319 75.319 0 0 1-5.947 19.005A33.383 33.383 0 0 1 9.22 141c-2.083-2.116-4.057-4.496-6.212-6.612z" id="Shape" fill="#FE560F"/><path d="M20.857 139.173A75.875 75.875 0 0 0 27 119.826a55.263 55.263 0 0 0-7.25-8.688A66.32 66.32 0 0 0 14.402 110a15.813 15.813 0 0 1 4.85 9.692 27.906 27.906 0 0 1-4.837 6.89 53.98 53.98 0 0 1 2.773 9.52A29.616 29.616 0 0 1 10 142a35.018 35.018 0 0 0 10.857-2.827z" id="Shape" fill="#B80054"/><path d="M5 132.843l7.455 6.156c2.16.026 4.298-.461 6.243-1.423A46.125 46.125 0 0 0 25 119.083L15.273 118a26.682 26.682 0 0 1-2.734 8.942c-1.51 2.786-4.46 5.877-7.539 5.9z" id="Shape" fill="#DB4200" opacity=".6" style="mix-blend-mode:multiply"/><path d="M25.663 119l.337.412a50.412 50.412 0 0 1-1.791 9.95 67.091 67.091 0 0 1-3.463 9.515l-.12.278-.277.121A29.963 29.963 0 0 1 9.276 142h-.289l-.156-.17a54.012 54.012 0 0 1-2.982-3.474c-.937-1.198-1.887-2.42-2.849-3.547 1.202.945 2.272 2.022 3.378 3.063 1.107 1.041 2.129 2.143 3.247 3.135l-.433-.157a37.32 37.32 0 0 0 10.508-3.002l-.397.4a117.36 117.36 0 0 0 3.727-9.237c1.13-3.184 2.056-6.331 2.886-9.587l-.253-.424z" id="Shape" fill="#EA87B4"/><path d="M2.767 134a41.185 41.185 0 0 1-2.268-8.838 45.026 45.026 0 0 1-.432-9.147v-.203l.136-.179a39.02 39.02 0 0 1 7.309-7.454l.222-.179h.283c3.812.107 7.588.738 11.216 1.872h.173l.086.096a45.943 45.943 0 0 1 3.525 4.09A41.791 41.791 0 0 1 26 118.496c-1.134-1.36-2.28-2.695-3.5-3.96-1.22-1.263-2.465-2.516-3.772-3.685l.259.144a53.276 53.276 0 0 0-10.945-1.372l.518-.179a44.802 44.802 0 0 0-7.087 7.156l.147-.382a59.81 59.81 0 0 0-.086 8.945 68.62 68.62 0 0 0 1.233 8.838z" id="Shape" fill="#FED893"/><path d="M19.053 113.02c1.66 1.702 4.13 3.596 3.936 5.91A43.092 43.092 0 0 1 17.48 137a21.67 21.67 0 0 1-5.438-2.494 38.325 38.325 0 0 0 4.7-11.847A39.99 39.99 0 0 0 11 112c2.604.276 5.45.72 8.053 1.02z" id="Shape" fill="#DB4200" opacity=".6" style="mix-blend-mode:multiply"/><path d="M43 168.974a37.597 37.597 0 0 0-5.567-16.696c-2.89-.817-5.84-1.633-8.803-1.117A31.66 31.66 0 0 0 15 157.043a47.112 47.112 0 0 0 5.483 14.86C23.708 173.56 30.828 175 30.828 175s8.756-4.213 12.172-6.026z" id="Shape" fill="#FE560F"/><path d="M26 168.664L31.751 175s8.808-4.24 12.249-6.023a37.634 37.634 0 0 0-5.607-16.755 21.924 21.924 0 0 0-8.098-1.204 34.593 34.593 0 0 1 5.74 10.37A107.57 107.57 0 0 1 26 168.665z" id="Shape" fill="#B80054"/><path d="M22 170.366a24.882 24.882 0 0 0 8.205 1.63c3.982.107 7.472-2.142 10.795-4.307a32.72 32.72 0 0 0-4.21-14.518 32.483 32.483 0 0 0-9.596.44 11.428 11.428 0 0 1 1.2 9.603A11.371 11.371 0 0 1 22 170.366z" id="Shape" fill="#DB4200" opacity=".6" style="mix-blend-mode:multiply"/><path d="M39 151.845a37.618 37.618 0 0 0-6.071-.813 12.902 12.902 0 0 0-2.937.271c-.987.21-1.962.48-2.936.764a35.733 35.733 0 0 0-10.76 5.31l.308-.776A62.548 62.548 0 0 0 21.54 172a39.389 39.389 0 0 1-6.441-15.116l-.099-.48.395-.308a30.549 30.549 0 0 1 11.34-5.409 33.397 33.397 0 0 1 3.097-.579 12.025 12.025 0 0 1 3.22 0c2.045.34 4.042.924 5.948 1.737z" id="Shape" fill="#FED893"/><path d="M21 172.141a36.591 36.591 0 0 0 5.36 1.475c1.798.418 3.622.774 5.445 1.07h-.407a295.75 295.75 0 0 1 12.42-6.305l-.42.786a51.322 51.322 0 0 0-1.589-8.798c-.394-1.45-.912-2.851-1.454-4.252A41.522 41.522 0 0 0 38.458 152a27.2 27.2 0 0 1 2.526 3.822 30.536 30.536 0 0 1 1.91 4.252A36.567 36.567 0 0 1 45 169.057v.54l-.48.246a279.063 279.063 0 0 1-6.284 3.097 272.517 272.517 0 0 1-6.357 2.962l-.222.098h-.185a82.15 82.15 0 0 1-5.408-1.536A27.323 27.323 0 0 1 21 172.14z" id="Shape" fill="#EA87B4"/><path d="M28 170.33c1.918.538 3.913.755 5.902.64 1.94-.314 3.89-2.55 5.098-3.964A27.23 27.23 0 0 0 34.463 154c-1.22.157-2.634.58-3.914.725a28.645 28.645 0 0 1 4.317 8.957c-2.037 1.837-4.83 4.822-6.866 6.647z" id="Shape" fill="#DB4200" opacity=".6" style="mix-blend-mode:multiply"/></g></g></g></g></svg>