<svg width="164" height="156" viewBox="0 0 164 156" xmlns="http://www.w3.org/2000/svg"><g id="Page-1" stroke="none" stroke-width="1" fill="none" fill-rule="evenodd"><g id="aff_des_home" transform="translate(-1439 -2378)" fill-rule="nonzero"><g id="header" transform="translate(376)"><g id="planets_2-03" transform="translate(1063 2378)"><path d="M13 54.37l-.8-6.28L23.39 32l16.27-16.43 7.82-1.32 4.74-3.73L69.47 9l6.84-2.59 17.4 2.3 15.4.47 7.6 4.76s.22 1.55.42 2.3c3.2 1.08 9.36 3.62 9.36 3.62l4 7.67 7.16 5.55 3.67 9.57s-.3 1.18-.39 1.7c1.86 1.89 5.54 5.72 5.54 5.72l.87 4.69 2.13 6.85-1.47 8.16 2.28 11.56-.81 4.14.72 4-4.69 18.36-7.24 9.6-2.84 6.19-7.23 11-16.7 10.08-5.43.78-7.31 4.52-15 2.47s-16.47-2.75-26.53-3.62a24.94 24.94 0 0 0-3.89-5.18 27 27 0 0 1-6.38 0c-.43-.67-1.43-1.34-1.85-2-3.38-.46-7.18-1.09-10.56-1.55a20.35 20.35 0 0 1-3.27-13.28c-.95-.72-3-2-3-2a87.28 87.28 0 0 1-10.41-4.14c0-1.38-.26-2.92-.3-4.3-1.33-1.1-2.93-2.32-4.26-3.42-.27-2.14-.84-6.28-.84-6.28L9 101.57s-.24-4.89-.29-7.13c-.86-1.14-1.7-2.44-2.56-3.58.13-3.33.08-6.5.21-9.83.07-1.88-1.28-3.66-2-5.41A74.17 74.17 0 0 1 10 62.07c-.19-.81-.5-1.34-.7-2.15 1.19-1.99 2.48-3.55 3.7-5.55z" id="Shape" fill="#FEAA0F"/><path d="M122.31 47.38a66.84 66.84 0 0 0-9-33.49l-4.75-3-15-.46-17.05-2.24-6.66 2.52-17 1.47-4.68 3.69-7.71 1.3-15.75 15.9-10.77 15.46.79 6.21-.3.51c-.63 1.05-1.27 2-1.9 2.88-.48.68-.93 1.34-1.37 2l.09.23c.165.417.302.845.41 1.28l.15.64-.32.58A71.12 71.12 0 0 0 6.23 75.5c.14.31.31.64.47 1a9.43 9.43 0 0 1 1.37 4.59C8 82.75 8 84.36 8 86c0 1.44 0 2.89-.08 4.36.32.44.63.89.95 1.35.32.46.83 1.19 1.24 1.74l.33.44v.55c0 .82.06 2 .11 3.2 19.776 17.566 48.022 21.887 72.146 11.039 24.123-10.85 39.633-34.848 39.614-61.299z" id="Shape" fill="#FC3"/><path d="M23.65 68.24a120.81 120.81 0 0 1 51.19-50.53c-1.73.89-6.16.19-8.22.45a59.47 59.47 0 0 0-8.27 1.65 60.24 60.24 0 0 0-15.61 6.79c-3.64 2.25-7.84 4.95-10.68 8.21-3.11 3.58-4.94 8.81-6.29 13.27a53.33 53.33 0 0 0-2.12 20.16z" id="Shape" fill="#FFDB6E" opacity=".35" style="mix-blend-mode:screen"/><path d="M22.25 100.44c-7.12-14.31-7-31.79-.62-46.45 6.38-14.66 18.74-26.41 33.3-33 14.56-6.59 31.17-8.19 46.93-5.5-19.61 5-38.06 15.39-51.8 30.23-13.74 14.84-24.37 34.79-27.81 54.72z" id="Shape" fill="#FFDB6E" opacity=".35" style="mix-blend-mode:screen"/><path d="M148.58 81.33l-2.28-11.54 1.41-8-2-6.55-.8-4.28c-1-1-3.67-3.81-5.18-5.34l-.62-.63.16-.87c.06-.32.19-.87.29-1.28l-3.3-8.62-7.08-5.49-3.87-7.44c-1.25-.51-4.28-1.73-6.76-2.65A67.85 67.85 0 1 1 10.59 99c0 .85.07 1.6.09 2.06l3.37 5.07.05.39s.47 3.39.76 5.63l1.58 1.26c.74.59 1.48 1.17 2.16 1.73l.6.5v.78c0 .66.08 1.35.14 2 0 .41.07.83.1 1.23 3.25 1.58 9.22 3.56 9.29 3.58l.18.06.16.1c.09.05 2.17 1.31 3.18 2.08l.8.61-.14 1a18.34 18.34 0 0 0 2.61 11.46c1.46.21 3 .43 4.49.66 1.79.27 3.57.54 5.25.77l.78.11.43.66c.2.245.421.473.66.68.2.19.42.39.63.61 1.09.09 2 .14 2.84.14a16.35 16.35 0 0 0 2.41-.16l.89-.13.62.66a28.37 28.37 0 0 1 3.69 4.73c9.32.87 23.33 3.16 25.48 3.51l14.41-2.37 7.33-4.55 5.44-.78 16.1-9.7 6.94-10.6 2.87-6.24L144 107l4.52-17.66-.71-3.93.77-4.08zM115.2 15.39l-.06-.38-1.36-.85c.48.4.96.84 1.42 1.23z" id="Shape" fill="#DE6C1C"/><path d="M39.9 98.07c2.13 8.78 4.86 17.53 9.59 25.22 4.73 7.69 11.66 14.31 20.2 17.26 7.68 2.65 16.13 2.19 24.07.46 8.43-1.83 16.72-5.15 23.15-10.91 7.1-6.36 11.47-15.31 13.86-24.54 3.39-13.1 2.94-27.54-3.28-39.56-6.22-12.02-18.73-21.09-32.26-21.28 2.36 5.15-1 10.8-3.86 15.72-5.73 10-11.85 19.89-20.27 27.7-8.42 7.81-19.73 10.45-31.2 9.93z" id="Shape" fill="#DE6C1C" opacity=".25" style="mix-blend-mode:multiply"/><path d="M109.84 28.59c11 7.93 21.93 16.84 28.05 28.95 8.29 16.38 6.23 37.08-3.77 52.48-10 15.4-27.2 25.48-45.33 28.42-13.64 2.21-28.21.47-40.06-6.64-11.85-7.11-20.54-20-20.88-33.8 13.7 15.63 37.21 22.17 57.12 16.21A44.13 44.13 0 0 0 103.09 104c9.48-9.19 13.35-23 13.25-36.18-.1-13.18-2.89-26.53-6.5-39.23z" id="Shape" fill="#DE6C1C" opacity=".25" style="mix-blend-mode:multiply"/><path d="M14 69.4a88.1 88.1 0 0 1-3 3.19 114.97 114.97 0 0 1 1.73-4l.91-2a14.94 14.94 0 0 1 1.15-1.83l.17-.3.4-.15 8.17-3 2-.75.51-.19.26-.09.18-.07a3.23 3.23 0 0 0 .69-.41c.92-.69 1.69-2 2.95-3.1l.23-.21.31-.06a17.68 17.68 0 0 0 1.8-.46c.52-.15 1.08-.31 1.66-.43l10.27-10.12.19-1c.11-.45.11-.91.24-1.36l.2-.69.43-.14 3.3-1.06c1.1-.37 2.21-.72 3.3-1.14a33.08 33.08 0 0 1-2.73 2.24c-.76.57-1.54 1.11-2.32 1.64-.06.31-.14.61-.18.92l-.25 1.36-.07.35-.25.24-10.71 10.6-.23.23-.34.06a17.71 17.71 0 0 0-1.8.46c-.52.15-1.08.31-1.66.43a37.2 37.2 0 0 1-2.87 3 5.51 5.51 0 0 1-1.17.7l-.32.13-.26.09-.51.19-2 .75-7.87 2.88a8.17 8.17 0 0 1-1 1.47L14 69.4zm16.8-19.94l3-1.07.32-.11.21-.28 5.53-7.57.09-.13.06-.15 4-10.64 5.45-3.16 2.9-1.68a13.63 13.63 0 0 0 2.73-2l.17-.14c.86-1.17 1.7-2.39 2.54-3.63-1.24.8-2.48 1.64-3.7 2.51l.17-.14a13.63 13.63 0 0 0-3.07 1.39l-2.9 1.68-5.8 3.36-.35.21-.14.38-4 10.88-5.31 7.2-2.65.94-1.49.51c-.49.2-1 .26-1.49.51l-2.84 1.46-2.86 1.46a51.75 51.75 0 0 0 6.42-.77c1.02-.29 2-.69 3.01-1.02zm26.69-25.28l-1.31.93c-.41.35-.95.51-1.25 1-.7.86-1.39 1.74-2 2.7 1.11-.28 2.17-.63 3.21-1 .57-.11.91-.57 1.37-.84l1.3-.97L64 22.35l.27-.19.12-.28 2.12-5 4.12-2.51c.38-.22.73-.47 1.12-.66a7.39 7.39 0 0 0 .94-.95c.61-.66 1.2-1.36 1.78-2.07-.9.18-1.79.39-2.66.63a7.38 7.38 0 0 0-1.27.4c-.34.27-.73.46-1.1.7L65 15.1l-.32.19-.13.32-2.14 5.06-4.92 3.51zm-35.23 50.7l2.9-1.57 9.39 1.17h.32l.29-.15 5-2.5.51-.25.11-.54c.52-2.45.84-4.88 1.3-7.23 1.24 0 2.53.14 3.89.13h.68l.32-.61 9.74-18.53 13.06 1h.47l.39-.35 7.69-6.84 2.41-1.56.17-.11.12-.17 7.37-9.93.21-.28v-.33l.35-9.45v-1.27l-1.31.14a92.025 92.025 0 0 0-7.38 1.1c-1.22.23-2.44.49-3.65.76a26.36 26.36 0 0 0-3.61 1l-.56.2-.15.42c-.89 2.44-2 4.86-3 7.39l-.22.6.5.23L73.12 29l.28.13.19-.15c1.93-1.52 3.82-3.09 5.73-4.64-2 1.24-4 2.47-6 3.73l-2.46-1.48c1-2 2.17-4 3.22-6 1-.22 2.06-.49 3.09-.75 1.03-.26 2.37-.52 3.56-.75 2-.37 3.92-.66 5.89-.9l-.28 7.68-7 9.48L77 36.79h-.12l-7.43 6.71-13.33-1-.74-.06-.35.67-9.74 18.6c-1.31 0-2.69-.15-4.14-.13h-.91l-.19.89c-.55 2.59-.87 5.15-1.37 7.62l-4.22 2.1L25.05 71h-.34l-.3.16-3.23 1.74C20.09 73.43 19 74 18 74.62l-.48.3-.07.45L16 84a938.79 938.79 0 0 0-4.89 9.33 859.537 859.537 0 0 0 6.1-8.77v-.2l2.16-7.95c1.04-.5 1.96-1.02 2.89-1.53zM55.43 72l.17-.16 5.76-5.75.14-.14.09-.19 1.68-3.54.86-1.76c.15-.29.32-.57.46-.87.14-.3.24-.61.35-.92L66.3 55c.47-1.23.94-2.47 1.47-3.69A63.36 63.36 0 0 0 63 57.73c-.18.28-.38.55-.54.84-.16.29-.27.6-.42.9l-.87 1.78-1.57 3.39-5.45 5.44-20.53 8.23-.45.18-.17.44L30.55 85c-.76 1.87-1.49 3.75-2.28 5.61l-1.5.56-2.06.78c-1.373.533-2.75 1.09-4.13 1.67 1.473-.113 2.953-.25 4.44-.41l2.23-.26c.74-.1 1.5-.16 2.23-.29l.54-.1.21-.58c.76-2.05 1.62-4.07 2.42-6.1l2.27-5.66 20.28-8.14.23-.08zM85 35.38a6.26 6.26 0 0 0-.85 1.22c-.26.43-.52.85-.77 1.29A20.1 20.1 0 0 0 82 40.6c.76-.65 1.54-1.24 2.32-1.83l1.16-.88a6.91 6.91 0 0 0 1.13-.91c.62-.73 1.32-1.39 2-2.08.68-.69 1.27-1.25 1.91-1.86l11.88-4.81.45-.18.18-.43c.61-1.43.81-2.79 1.2-3.93 1.09-.11 2.14-.26 3.19-.45l1.92-.37c.64-.12 1.26-.28 1.92-.39h.1l.24-.12a7.33 7.33 0 0 0 1.13-.92l1.1-1c.73-.66 1.46-1.34 2.18-2-1 .28-1.9.59-2.84.9l-1.4.5c-.39.16-.82.26-1.19.46-.55.15-1.13.26-1.69.38L107 21a33.88 33.88 0 0 1-3.67.5h-.71l-.27.64c-.64 1.51-.84 2.95-1.26 4.12L89.48 31l-.19.08-.15.15c-.72.68-1.41 1.36-2.11 2.05-.7.69-1.36 1.42-2.03 2.1zm-57 77.86h.28c2.36-.39 4.7-.81 7-1.31 1.17-.25 2.34-.51 3.5-.8.62 0 1.11-.52 1.64-.85a15.2 15.2 0 0 0 1.44-1.28l-1.9-.18a3.71 3.71 0 0 0-1.79.06c-1.13.29-2.27.54-3.42.78-2.2.46-4.43.87-6.65 1.24-1.28-.44-2.58-.93-3.83-1.47l-1-.44c-.28-.26-.69-.22-1.07-.28-.75-.11-1.53-.18-2.34-.34a8.88 8.88 0 0 0 1.49 2c.29.29.55.65.94.71l1.05.47c1.41.61 2.82 1.14 4.28 1.64l.38.05zM118.07 27a19.86 19.86 0 0 1-2.09 4.9 10.55 10.55 0 0 1-3.5 3.69 11.42 11.42 0 0 1-2.35 1c-.86.3-1.72.56-2.58.85a69.36 69.36 0 0 1-21.14 4.26H86l-.29.22a46.05 46.05 0 0 0-14.84 19.82l-.13.33.08.35a36 36 0 0 1 .6 4.18c.14 1.4.24 2.83.31 4.23a57.67 57.67 0 0 1-6.48 21.65 31.23 31.23 0 0 1-10 6.71 44.22 44.22 0 0 1-11.66 3c-.9-.42-1.82-.88-2.69-1.38a14.31 14.31 0 0 1-2.19-1.51 24.48 24.48 0 0 1 .3-2.61c.17-1.05.4-2.11.64-3.16.45-2 1-3.93 1.58-5.86.82-.48 1.66-.94 2.49-1.4l2.83-1.69c.95-.55 1.9-1.09 2.87-1.59a25.79 25.79 0 0 1 2.66-1.2l2.8 2.07a23.7 23.7 0 0 1-2.11 7.39 22.39 22.39 0 0 0 3.09-7.53v-.24l-.21-.19-3.07-2.79-.25-.23-.38.09a25.32 25.32 0 0 0-3.27 1.07c-1.06.41-2.09.86-3.12 1.32-1.03.46-2 .94-3 1.47s-1.93 1.13-2.9 1.71l-.37.22-.13.41A97.3 97.3 0 0 0 37.41 93c-.25 1.09-.48 2.18-.67 3.3a24 24 0 0 0-.37 3.45v.48l.32.32a14.4 14.4 0 0 0 3.05 2.23 35.64 35.64 0 0 0 3.2 1.63l.28.13h.32a46.76 46.76 0 0 0 12.59-3.25A33.5 33.5 0 0 0 67 94l.12-.12.08-.15A60 60 0 0 0 74 70.94v-.15c-.08-1.49-.18-2.95-.32-4.42a40.47 40.47 0 0 0-.57-4.09A43.77 43.77 0 0 1 86.88 44a73.3 73.3 0 0 0 21.44-4.34c.87-.34 1.71-.73 2.56-1.11a13.21 13.21 0 0 0 2.58-1.42A12 12 0 0 0 117 32.5a20.54 20.54 0 0 0 1.68-5.39c.1-2-1.07-3.6-1.05-5.47-.19 1.84.77 3.7.44 5.36zm-9.35 19.42a21.92 21.92 0 0 0-6.4 1.16 20.77 20.77 0 0 0-5.77 3.08 20.17 20.17 0 0 0-2.45 2.19 15.11 15.11 0 0 0-2 2.67 22 22 0 0 0-2.39 6.07c-.26 1-.46 2.09-.63 3.13a21.64 21.64 0 0 1-.58 2.92 60.43 60.43 0 0 1-2.06 5.73c-.79 2-1.37 3.89-2.24 5.73A50 50 0 0 1 78 89.52l-.93 1.2-1 1.16c-.64.79-1.35 1.5-2 2.25-.65.75-1.44 1.42-2.17 2.12l-1.15 1c-.37.34-.72.72-1.09 1.06a59.61 59.61 0 0 1-9.76 7.49A47.92 47.92 0 0 0 71 99.94a34 34 0 0 0 4.7-4.23c.72-.77 1.46-1.52 2.13-2.34l1-1.21 1-1.25A52.3 52.3 0 0 0 86.28 80c.9-1.91 1.54-4 2.28-5.83a62.05 62.05 0 0 0 2.13-5.95 24 24 0 0 0 .63-3.16c.16-1 .36-2 .59-3A19.75 19.75 0 0 1 94 56.71a14.78 14.78 0 0 1 3.89-4.21 18.49 18.49 0 0 1 5.14-2.74c3.67-1.37 7.72-1 12-1.26a21.44 21.44 0 0 0 3.25-.49 12.63 12.63 0 0 0 3.19-1.27 7.66 7.66 0 0 0 2.53-2.37 5.82 5.82 0 0 0 .83-1.67 2.92 2.92 0 0 0 0-1.77 20.41 20.41 0 0 1 2.06-3.42 12.73 12.73 0 0 1 3.21-3.05 12.1 12.1 0 0 0-3.8 2.54 22.18 22.18 0 0 0-3 3.55l-.2.28.17.45c.18.46-.24 1.22-.86 1.85a16.18 16.18 0 0 1-2.12 1.68 12.1 12.1 0 0 1-5.43 1.45c-1.96.11-4.02.07-6.14.19v-.03zM48.2 120.31a20.65 20.65 0 0 0 5.27-1 45.77 45.77 0 0 0 4.83-2 46.55 46.55 0 0 0 4.63-2.37 49.32 49.32 0 0 0 8.35-6.19c.63-.6 1.29-1.16 1.88-1.79.59-.63 1-1.4 1.54-2.11a44.26 44.26 0 0 0 2.69-4.43 100 100 0 0 1-3.87 3.35c-.65.54-1.32 1.05-2 1.57-.314.272-.61.563-.89.87-.3.29-.61.56-.91.85a47 47 0 0 1-8 5.9 44.17 44.17 0 0 1-4.43 2.26 43.64 43.64 0 0 1-4.59 1.87c-3 1-6.4 1.4-9.16.22l-.73-.31-.55.57a17.47 17.47 0 0 1-8 4.72l-1.15.27a7.12 7.12 0 0 0-1.16.2l-1.16.3-1.19.22a20.19 20.19 0 0 1-4.94.15 15.92 15.92 0 0 0 5 1.45L31 125h1.33a19.6 19.6 0 0 0 2.59-.54 19.84 19.84 0 0 0 8.51-4.82 12.72 12.72 0 0 0 4.77.67zm81.07-66.94l-.21.65a10.55 10.55 0 0 1-2.33 3.74 16.17 16.17 0 0 1-3.55 2.89 12 12 0 0 1-8.67 1.41l-.37-.08-.34.15a70.67 70.67 0 0 0-14.58 8.67 66.92 66.92 0 0 0-6.37 5.65 41.89 41.89 0 0 0-4.54 7.21 75.87 75.87 0 0 1 6.2-5.59 55.72 55.72 0 0 1 6.11-5.46 68.3 68.3 0 0 1 13.81-8.25 14.22 14.22 0 0 0 9.92-1.75 18.43 18.43 0 0 0 4.07-3.31 13.28 13.28 0 0 0 2.56-4 17.94 17.94 0 0 0 2.46-.74 9.19 9.19 0 0 0 2.64-1.8 12.38 12.38 0 0 0 3.4-5.1 13.89 13.89 0 0 1-4.48 3.72c-.81.46-1.72.7-2.52 1.09a10.1 10.1 0 0 1-2.58.78l-.63.12zm-48.85 52.37a45.75 45.75 0 0 1 16.12-17.06c1.67-1.07 3.38-2.09 5.16-3 .88-.47 1.78-.89 2.68-1.33l1.36-.61c.44-.2.91-.4 1.44-.67a12.42 12.42 0 0 0 4.74-4.6 20.78 20.78 0 0 0 2.3-5.45 28.09 28.09 0 0 1 15.12-4.31h.52l.62-.06a6.18 6.18 0 0 0 1.2-.24 8.7 8.7 0 0 0 2.19-1 13 13 0 0 0 3.31-3.05 38.88 38.88 0 0 0 4.33-7.42 46.9 46.9 0 0 1-5.25 6.59 11.45 11.45 0 0 1-3.25 2.3 6.73 6.73 0 0 1-1.78.51c-.297.05-.6.066-.9.05h-1a31.5 31.5 0 0 0-8.72 1.27 32.21 32.21 0 0 0-8 3.66l-.39.24-.11.44a18.88 18.88 0 0 1-2.11 5.27 10.15 10.15 0 0 1-3.87 3.73l-.61.29-.7.31-1.41.63c-.93.45-1.86.88-2.77 1.38-1.83.94-3.61 2-5.34 3.11a48.05 48.05 0 0 0-16.89 17.88c-3.8 7-8.5 13.65-14.73 18.53a34 34 0 0 1-4.92 3.23c-1.75.88-3.44 1.91-5.28 2.64a29.66 29.66 0 0 1-11.68 2.4 29.24 29.24 0 0 0 23.29-6.4c6.59-5.17 11.45-12.08 15.33-19.26zm-12.33 28.89l.16-.16c1.54-1.52 3.13-3 4.6-4.56 1.47-1.56 2.78-3 4.19-4.47a54.86 54.86 0 0 0 6.32-1.64 29.41 29.41 0 0 0 3.27-1.26 13.74 13.74 0 0 0 3.16-1.91l.31-.27.07-.42c1.65-10.34 6.11-20.35 13.38-27.89a52.46 52.46 0 0 1 26-14.68 23.62 23.62 0 0 1-6.58 21 42.84 42.84 0 0 1-4.79 3.81 49.1 49.1 0 0 1-5.21 3.27 24.08 24.08 0 0 1-10.26 3.06c.096-1.11.27-2.213.52-3.3a14.23 14.23 0 0 1 1.51-3.82c1-.51 1.82-1.08 2.61-1.43l.35-.16.18-.34A33.58 33.58 0 0 1 110.7 95a42.18 42.18 0 0 1 3.51-3.91c.31-.31.62-.62.95-.92.3-.28.617-.541.95-.78a11.54 11.54 0 0 1 2.21-1.19 31 31 0 0 1 3.88-1.2 20.76 20.76 0 0 1-8.77 10.24 20.68 20.68 0 0 0 6.25-4.45 21.28 21.28 0 0 0 4.24-6.54l.47-1.13-1.25.23a44 44 0 0 0-5.43 1.19A13.46 13.46 0 0 0 115 87.7c-.432.26-.846.546-1.24.86-.37.29-.73.59-1.09.9a26.59 26.59 0 0 0-3.8 4.18A35.72 35.72 0 0 0 106 98c-1 .51-1.83 1.08-2.62 1.44l-.32.14-.19.31a16.48 16.48 0 0 0-1.92 4.73 30 30 0 0 0-.68 4.91l-.08 1.19h1.19a25.46 25.46 0 0 0 12.62-3.27 51.4 51.4 0 0 0 5.45-3.42 44.79 44.79 0 0 0 5.06-4 25.86 25.86 0 0 0 7-24.27l-.26-1.06-1.07.22a54.72 54.72 0 0 0-28.29 15.59 50.41 50.41 0 0 0-9.22 13.5A58.3 58.3 0 0 0 88 119.13a12.81 12.81 0 0 1-2.32 1.33 27.16 27.16 0 0 1-3 1.17 53.24 53.24 0 0 1-6.39 1.64l-.38.07-.25.27a494.852 494.852 0 0 1-4.47 4.69c-1.45 1.52-2.8 3.15-4.19 4.73a105.1 105.1 0 0 1-9.76 4.17c-1.7.627-3.42 1.18-5.16 1.66a25.43 25.43 0 0 1-5.34 1 25.7 25.7 0 0 0 5.46-.43 52.13 52.13 0 0 0 5.36-1.22A106.85 106.85 0 0 0 68 134.73l.09-.1zm71.7-44a56.52 56.52 0 0 1-7.7 8.68 54.46 54.46 0 0 1-4.47 3.7c-.78.58-1.57 1.14-2.37 1.67a28.67 28.67 0 0 0-2.49 1.8 29.12 29.12 0 0 0-7.39 9.27c-1.12.57-2.26 1.11-3.41 1.59a32.45 32.45 0 0 1-3.85 1.38c-1.26.53-2.53 1.07-3.85 1.49-1.33.446-2.69.8-4.07 1.06 1.42.203 2.857.27 4.29.2a28.35 28.35 0 0 0 4.31-.52c1.36-.48 2.72-.94 4-1.51 1.28-.57 2.62-1.17 3.89-1.83l.33-.17.17-.34a26.93 26.93 0 0 1 7-8.86 26.12 26.12 0 0 1 2.31-1.67 48.466 48.466 0 0 0 2.47-1.74 56.76 56.76 0 0 0 4.65-3.86 58.82 58.82 0 0 0 8-9c2.57-3.13 3.92-7.09 5-10.92-1.12 1.66-2.27 3.28-3.45 4.84a25.53 25.53 0 0 0-1.75 2.34c-.49.77-1.05 1.59-1.62 2.38v.02zm2.8 9.58l-.15.09-.08.26a20.26 20.26 0 0 1-1.4 3.56c-.55 1.14-1.31 2.15-1.94 3.21a16.46 16.46 0 0 1-2.35 2.88 18.38 18.38 0 0 1-2.53 2.07l-1.29-.29-.8-.18-.43.65a44.62 44.62 0 0 1-17.51 15.28 69.63 69.63 0 0 0-24.58-.27l-.32.06-.24.22a74.1 74.1 0 0 1-12.17 8.88 34 34 0 0 0-3.26 1.91 93.564 93.564 0 0 1-10.09 5.41c2.519-.563 5-1.28 7.43-2.15a92.46 92.46 0 0 0 3.62-1.42c.59-.26 1.2-.51 1.78-.8.58-.29 1.12-.66 1.68-1a76.4 76.4 0 0 0 12.28-8.92 67.55 67.55 0 0 1 23.86.37l.36.07.34-.16a46.81 46.81 0 0 0 18.27-15.58l1.06.24.51.12.4-.26a20.73 20.73 0 0 0 3.26-2.63 22.09 22.09 0 0 0 2.67-3.23 13.77 13.77 0 0 0 1.73-3.8c.39-1.26.664-2.551.82-3.86a9.82 9.82 0 0 0 2.94-5.58 9.93 9.93 0 0 1-3.87 4.83v.02zM108 136a10.83 10.83 0 0 0-1.55.78c-2 1-4.09 2-6.18 2.8-1.39 0-2.77-.06-4.16-.06-1.39 0-2.95 0-4.48.14h-.35l-.28.23a33.47 33.47 0 0 1-9.08 5.38 35.91 35.91 0 0 1-5.06 1.57 55 55 0 0 1-5.17 1.87c1.87.33 3.774.44 5.67.33a34.29 34.29 0 0 0 5.4-1.66 35.77 35.77 0 0 0 9.38-5.5c1.29-.09 2.63-.11 4-.12 1.37-.01 2.9 0 4.34.07h.24l.21-.08a71 71 0 0 0 6.6-3l.81-.42c.284-.12.545-.29.77-.5.47-.4.94-.8 1.39-1.23a15.09 15.09 0 0 0 2.41-2.8 22.13 22.13 0 0 1-3.23 1.52c-.6.3-1.16.49-1.68.68z" id="Shape" fill="#FEAA0F"/><path d="M13 67.75c-.98 1.08-1.98 2.143-3 3.19a114.97 114.97 0 0 1 1.73-4l.91-2a14.94 14.94 0 0 1 1.15-1.83l.17-.3.4-.15 8.17-3 2-.75.51-.19.26-.09.18-.07a3.22 3.22 0 0 0 .69-.41c.92-.69 1.69-2 2.95-3.1l.23-.21.31-.06a17.74 17.74 0 0 0 1.8-.46c.52-.15 1.08-.31 1.66-.43l10.23-10.12.19-1c.11-.45.11-.91.24-1.36l.2-.69.43-.14 3.3-1.06c1.1-.37 2.21-.72 3.3-1.14a33.1 33.1 0 0 1-2.73 2.24c-.76.57-1.54 1.11-2.32 1.64-.06.31-.14.61-.18.92l-.25 1.36-.07.35-.25.24-10.72 10.6-.23.23-.34.06a17.68 17.68 0 0 0-1.8.46c-.52.15-1.08.31-1.66.43a37.19 37.19 0 0 1-2.87 3 5.51 5.51 0 0 1-1.17.7l-.32.13-.26.09-.51.19-2 .75-7.81 2.87a8.16 8.16 0 0 1-1 1.47L13 67.75zm16.76-19.94l3-1.07.32-.11.21-.28 5.53-7.57.09-.13.06-.15 4-10.64 5.45-3.16 2.85-1.7A13.63 13.63 0 0 0 54 21l.17-.14c.86-1.17 1.7-2.39 2.54-3.63-1.24.8-2.48 1.64-3.7 2.51l.17-.14a13.63 13.63 0 0 0-3.07 1.39l-2.9 1.68-5.8 3.36-.35.21-.14.38-4 10.88-5.23 7.16-2.69 1-1.49.51c-.49.2-1 .26-1.49.51l-2.84 1.46-2.86 1.46a51.77 51.77 0 0 0 6.42-.77c1.03-.29 2.01-.69 3.02-1.02zm26.69-25.28l-1.31.93c-.41.35-.95.51-1.25 1-.7.86-1.39 1.74-2 2.7 1.11-.28 2.17-.63 3.21-1 .57-.11.91-.57 1.37-.84l1.31-.93 5.22-3.7.27-.19.12-.28 2.12-5 4.12-2.51c.37-.22.73-.47 1.12-.66a7.41 7.41 0 0 0 .94-.95c.61-.66 1.2-1.36 1.78-2.07-.9.18-1.79.39-2.66.63a7.37 7.37 0 0 0-1.27.4c-.34.27-.73.46-1.1.7L64 13.45l-.32.19-.13.32L61.42 19l-4.97 3.53zm-35.24 50.7l2.9-1.57 9.39 1.17h.32l.29-.15 5-2.5.51-.25.11-.54c.52-2.45.84-4.88 1.3-7.23 1.24 0 2.53.14 3.89.13h.68l.32-.61 9.72-18.55 13.06 1h.47l.39-.35L77.28 37l2.41-1.56.17-.11.12-.17 7.37-9.93.21-.28v-.33l.35-9.45V13.9l-1.31.14a92.025 92.025 0 0 0-7.38 1.1c-1.22.23-2.44.49-3.65.76a26.36 26.36 0 0 0-3.61 1l-.56.2-.15.42c-.89 2.44-2 4.86-3 7.39l-.22.6.5.23 3.43 1.59.28.13.19-.15c1.93-1.52 3.82-3.09 5.73-4.64-2 1.24-4 2.47-6 3.73l-2.46-1.48c1-2 2.17-4 3.22-6 1-.22 2.06-.49 3.09-.75 1.03-.26 2.37-.52 3.56-.75 2-.37 3.92-.66 5.89-.9l-.28 7.68-7 9.48L76 35.14h-.12l-7.44 6.61-13.33-1-.74-.06-.35.67L44.25 60c-1.31 0-2.69-.15-4.14-.13h-.91l-.19.89c-.55 2.59-.87 5.15-1.37 7.62l-4.22 2.1L24 69.34h-.34l-.3.16-3.23 1.74C19 71.78 18 72.33 16.91 73l-.48.3-.07.45L15 82.33a938.79 938.79 0 0 0-4.89 9.33 859.537 859.537 0 0 0 6.1-8.77v-.2l2.16-7.95c.99-.48 1.92-1 2.84-1.51zm33.17-2.85l.16-.16 5.76-5.75.14-.14.09-.19 1.68-3.54.86-1.76c.15-.29.32-.57.46-.87.14-.3.24-.61.35-.92l1.37-3.71c.47-1.23.94-2.47 1.47-3.69A63.36 63.36 0 0 0 62 56.08c-.18.28-.38.55-.54.84-.16.29-.27.6-.42.9l-.87 1.78-1.62 3.4-5.45 5.43-20.53 8.23-.45.18-.17.44-2.45 6.09c-.76 1.87-1.49 3.75-2.28 5.61l-1.5.56-2.06.78c-1.373.533-2.75 1.09-4.13 1.67 1.473-.113 2.953-.25 4.44-.41l2.23-.26c.74-.1 1.5-.16 2.23-.29l.54-.1.21-.58c.76-2.05 1.62-4.07 2.42-6.1l2.27-5.66 20.28-8.14.23-.07zm29.53-36.65a6.27 6.27 0 0 0-.85 1.22c-.26.43-.52.85-.77 1.29A20.1 20.1 0 0 0 81 39c.76-.65 1.54-1.24 2.32-1.83l1.16-.88a6.92 6.92 0 0 0 1.13-.91c.62-.73 1.32-1.39 2-2.08.68-.69 1.27-1.25 1.91-1.86l11.88-4.81.45-.18.15-.45c.61-1.43.81-2.79 1.2-3.93 1.09-.11 2.14-.26 3.19-.45l1.92-.37c.64-.12 1.26-.28 1.92-.39h.1l.24-.12a7.35 7.35 0 0 0 1.13-.92l1.1-1c.73-.66 1.46-1.34 2.18-2-1 .28-1.9.59-2.84.9l-1.4.5c-.39.16-.82.26-1.19.46-.55.15-1.13.26-1.69.38l-1.86.36a33.88 33.88 0 0 1-3.67.5h-.71l-.27.64c-.64 1.51-.84 2.95-1.26 4.12L88.46 29.4l-.19.08-.15.15c-.72.68-1.41 1.36-2.11 2.05-.7.69-1.38 1.32-2.09 2.05h-.01zm-57 77.86h.28c2.36-.39 4.7-.81 7-1.31 1.17-.25 2.34-.51 3.5-.8.62 0 1.11-.52 1.64-.85a15.21 15.21 0 0 0 1.49-1.24l-1.9-.18a3.71 3.71 0 0 0-1.79.06c-1.13.29-2.27.54-3.42.78-2.2.46-4.43.87-6.65 1.24-1.28-.44-2.58-.93-3.83-1.47l-1-.44c-.28-.26-.69-.22-1.06-.28-.75-.11-1.53-.18-2.34-.34a8.88 8.88 0 0 0 1.49 2c.29.29.55.65.94.71l1.05.47c1.41.61 2.82 1.14 4.28 1.64l.32.01zM117 25.37a19.87 19.87 0 0 1-2.09 4.9 10.55 10.55 0 0 1-3.5 3.69 11.42 11.42 0 0 1-2.35 1c-.86.3-1.72.56-2.58.85a69.36 69.36 0 0 1-21.14 4.26H85l-.29.22a46.05 46.05 0 0 0-14.89 19.8l-.13.33.08.35a36 36 0 0 1 .6 4.18c.14 1.4.24 2.83.31 4.23a57.67 57.67 0 0 1-6.48 21.65 31.23 31.23 0 0 1-10 6.71 44.22 44.22 0 0 1-11.66 3c-.9-.42-1.82-.88-2.69-1.38a14.31 14.31 0 0 1-2.19-1.51 24.47 24.47 0 0 1 .3-2.61c.17-1.05.4-2.11.64-3.16.45-2 1-3.93 1.58-5.86.82-.48 1.66-.94 2.49-1.4L45.5 83c.95-.55 1.9-1.09 2.87-1.59.853-.46 1.73-.87 2.63-1.23l2.8 2.07a23.69 23.69 0 0 1-2.11 7.39 22.39 22.39 0 0 0 3.09-7.53v-.24l-.21-.19-3.07-2.79-.25-.23-.38.09a25.33 25.33 0 0 0-3.27 1.07c-1.06.41-2.09.86-3.12 1.32-1.03.46-2 .94-3 1.47s-1.93 1.13-2.9 1.71l-.37.22-.13.41a97.3 97.3 0 0 0-1.75 6.44c-.25 1.09-.48 2.18-.67 3.3a23.94 23.94 0 0 0-.37 3.45v.48l.32.32a14.4 14.4 0 0 0 3.05 2.23 35.66 35.66 0 0 0 3.2 1.63l.28.13h.32a46.77 46.77 0 0 0 12.59-3.25 33.5 33.5 0 0 0 10.85-7.32l.12-.12.08-.15a60 60 0 0 0 6.9-22.8v-.15c-.08-1.49-.18-2.94-.32-4.42a40.5 40.5 0 0 0-.57-4.09 43.77 43.77 0 0 1 13.77-18.31A73.3 73.3 0 0 0 107.29 38c.87-.34 1.71-.73 2.56-1.11a13.21 13.21 0 0 0 2.58-1.42 12 12 0 0 0 3.57-4.62 20.54 20.54 0 0 0 1.68-5.39c.1-2-1.07-3.6-1.05-5.47-.23 1.84.72 3.7.37 5.38zm-9.33 19.43a21.92 21.92 0 0 0-6.4 1.16A20.77 20.77 0 0 0 95.51 49a20.18 20.18 0 0 0-2.45 2.19 15.12 15.12 0 0 0-2 2.67A22 22 0 0 0 88.65 60c-.26 1-.46 2.09-.63 3.13a21.64 21.64 0 0 1-.58 2.92 60.35 60.35 0 0 1-2.06 5.73c-.79 2-1.37 3.89-2.24 5.73A50 50 0 0 1 77 87.87l-.93 1.2-1 1.16c-.64.79-1.35 1.5-2 2.25-.65.75-1.44 1.42-2.17 2.12l-1.15 1c-.37.34-.72.72-1.09 1.06a59.61 59.61 0 0 1-9.76 7.49 47.92 47.92 0 0 0 11.11-5.83 34 34 0 0 0 4.7-4.23c.72-.77 1.46-1.52 2.13-2.34l1-1.21 1-1.25a52.3 52.3 0 0 0 6.46-10.87c.9-1.91 1.54-4 2.28-5.83a62.08 62.08 0 0 0 2.13-5.95 24 24 0 0 0 .63-3.16c.16-1 .36-2 .59-3A19.75 19.75 0 0 1 93 55.06a14.79 14.79 0 0 1 3.89-4.21 18.49 18.49 0 0 1 5.11-2.74c3.67-1.37 7.72-1 12-1.26a21.42 21.42 0 0 0 3.25-.49 12.63 12.63 0 0 0 3.19-1.27 7.66 7.66 0 0 0 2.56-2.37 5.82 5.82 0 0 0 .83-1.67 2.92 2.92 0 0 0 0-1.77 20.41 20.41 0 0 1 2.06-3.42 12.73 12.73 0 0 1 3.21-3.05 12.1 12.1 0 0 0-3.82 2.5 22.17 22.17 0 0 0-3 3.55l-.2.28.17.45c.18.46-.24 1.22-.86 1.85a16.18 16.18 0 0 1-2.12 1.68 12.1 12.1 0 0 1-5.43 1.45c-1.98.15-4.05.11-6.17.23zm-60.52 73.86a20.65 20.65 0 0 0 5.27-1 45.74 45.74 0 0 0 4.83-2 46.53 46.53 0 0 0 4.63-2.37 49.32 49.32 0 0 0 8.35-6.19c.63-.6 1.29-1.16 1.88-1.79.59-.63 1-1.4 1.54-2.11a44.26 44.26 0 0 0 2.69-4.43 100 100 0 0 1-3.87 3.35c-.65.54-1.32 1.05-2 1.57-.314.272-.61.563-.89.87-.3.29-.61.56-.91.85a47 47 0 0 1-8 5.9 44.18 44.18 0 0 1-4.43 2.26 43.63 43.63 0 0 1-4.59 1.87c-3 1-6.4 1.4-9.16.22l-.73-.31-.55.57a17.47 17.47 0 0 1-8 4.72l-1.15.27a7.13 7.13 0 0 0-1.16.2l-1.16.3-1.19.22a20.19 20.19 0 0 1-4.94.15 15.92 15.92 0 0 0 5 1.45l1.32.12h1.33a19.59 19.59 0 0 0 2.59-.54 19.84 19.84 0 0 0 8.56-4.81 12.72 12.72 0 0 0 4.74.66zm81.07-66.94l-.21.65a10.55 10.55 0 0 1-2.33 3.74 16.16 16.16 0 0 1-3.55 2.89 12 12 0 0 1-8.67 1.41l-.37-.08-.34.15a70.67 70.67 0 0 0-14.58 8.67 66.93 66.93 0 0 0-6.37 5.65 41.9 41.9 0 0 0-4.54 7.2 75.85 75.85 0 0 1 6.2-5.59A55.72 55.72 0 0 1 99.58 71a68.3 68.3 0 0 1 13.81-8.25A14.22 14.22 0 0 0 123.3 61a18.43 18.43 0 0 0 4.07-3.31 13.28 13.28 0 0 0 2.56-4 17.91 17.91 0 0 0 2.46-.74 9.19 9.19 0 0 0 2.64-1.8 12.38 12.38 0 0 0 3.4-5.1 13.89 13.89 0 0 1-4.43 3.68c-.81.46-1.72.7-2.52 1.09a10.11 10.11 0 0 1-2.58.78l-.68.12zm-48.84 52.37A45.75 45.75 0 0 1 95.5 87c1.67-1.07 3.38-2.09 5.16-3 .88-.48 1.78-.89 2.68-1.33l1.36-.61c.44-.2.91-.4 1.44-.67a12.42 12.42 0 0 0 4.74-4.6 20.78 20.78 0 0 0 2.3-5.45 28.09 28.09 0 0 1 15.12-4.31h.52l.62-.06a6.19 6.19 0 0 0 1.2-.24 8.7 8.7 0 0 0 2.19-1 13 13 0 0 0 3.31-3.05 38.89 38.89 0 0 0 4.33-7.42 46.92 46.92 0 0 1-5.25 6.59 11.45 11.45 0 0 1-3.25 2.3 6.73 6.73 0 0 1-1.78.51c-.297.05-.6.066-.9.05h-1a31.5 31.5 0 0 0-8.7 1.29 32.21 32.21 0 0 0-8 3.66l-.39.24-.11.44a18.88 18.88 0 0 1-2.16 5.28 10.15 10.15 0 0 1-3.85 3.78l-.61.29-.7.31-1.41.63c-.93.45-1.86.88-2.77 1.38-1.83.94-3.61 2-5.34 3.11A48.05 48.05 0 0 0 77.37 103c-3.8 7-8.5 13.66-14.73 18.53a34 34 0 0 1-4.92 3.23c-1.75.88-3.44 1.91-5.28 2.64a29.66 29.66 0 0 1-11.68 2.35A29.24 29.24 0 0 0 64 123.33c6.63-5.15 11.49-12.06 15.38-19.24zM67 133l.16-.16c1.54-1.52 3.13-3 4.6-4.56 1.47-1.56 2.78-3 4.19-4.47a54.84 54.84 0 0 0 6.32-1.64 29.41 29.41 0 0 0 3.27-1.26A13.74 13.74 0 0 0 88.7 119l.31-.27.07-.42c1.65-10.34 6.11-20.35 13.38-27.89a52.46 52.46 0 0 1 26-14.68 23.62 23.62 0 0 1-6.58 21 42.84 42.84 0 0 1-4.79 3.81 49.12 49.12 0 0 1-5.21 3.27 24.08 24.08 0 0 1-10.26 3.06c.096-1.11.27-2.213.52-3.3a14.23 14.23 0 0 1 1.51-3.82c1-.51 1.82-1.08 2.61-1.43l.35-.16.18-.34a33.6 33.6 0 0 1 2.83-4.44 42.21 42.21 0 0 1 3.51-3.91c.31-.31.62-.62.95-.92.3-.28.617-.541.95-.78a11.54 11.54 0 0 1 2.21-1.19 31 31 0 0 1 3.88-1.23 20.76 20.76 0 0 1-8.77 10.24 20.68 20.68 0 0 0 6.25-4.45 21.28 21.28 0 0 0 4.24-6.54l.47-1.13-1.25.23a44 44 0 0 0-5.43 1.19A13.45 13.45 0 0 0 114 86a11.5 11.5 0 0 0-1.24.86c-.37.29-.73.59-1.09.9a26.59 26.59 0 0 0-3.8 4.18A35.72 35.72 0 0 0 105 96.4c-1 .51-1.83 1.08-2.62 1.44l-.32.14-.19.31A16.48 16.48 0 0 0 100 103a30 30 0 0 0-.68 4.91l-.08 1.19h1.19a25.46 25.46 0 0 0 12.57-3.3 51.36 51.36 0 0 0 5.45-3.42 44.79 44.79 0 0 0 5.06-4 25.86 25.86 0 0 0 7-24.27l-.29-1.11-1.07.22a54.72 54.72 0 0 0-28.29 15.59 50.41 50.41 0 0 0-9.22 13.5A58.3 58.3 0 0 0 87 117.48a12.81 12.81 0 0 1-2.32 1.33 27.19 27.19 0 0 1-3 1.17 53.27 53.27 0 0 1-6.39 1.64l-.38.07-.25.27a494.852 494.852 0 0 1-4.47 4.69c-1.45 1.52-2.8 3.15-4.19 4.73a105.12 105.12 0 0 1-9.76 4.17c-1.7.627-3.42 1.18-5.16 1.66a25.43 25.43 0 0 1-5.34 1 25.69 25.69 0 0 0 5.46-.43 52.1 52.1 0 0 0 5.36-1.22A106.83 106.83 0 0 0 66.9 133h.1zm71.7-44a56.52 56.52 0 0 1-7.7 8.68 54.48 54.48 0 0 1-4.47 3.71 48.869 48.869 0 0 1-2.37 1.67 28.7 28.7 0 0 0-2.49 1.8 29.12 29.12 0 0 0-7.39 9.27c-1.12.57-2.26 1.11-3.41 1.59a32.47 32.47 0 0 1-3.85 1.38c-1.26.53-2.53 1.07-3.85 1.49-1.33.446-2.69.8-4.07 1.06 1.42.203 2.857.27 4.29.2a28.34 28.34 0 0 0 4.31-.52c1.36-.48 2.73-.94 4-1.51 1.27-.57 2.62-1.17 3.89-1.83l.33-.17.17-.34a26.93 26.93 0 0 1 7-8.86 26.08 26.08 0 0 1 2.31-1.67 48.466 48.466 0 0 0 2.47-1.74 56.77 56.77 0 0 0 4.65-3.86 58.82 58.82 0 0 0 8-9c2.57-3.13 3.92-7.09 5-10.92-1.12 1.66-2.27 3.28-3.45 4.84a25.54 25.54 0 0 0-1.75 2.34c-.44.77-1.01 1.56-1.57 2.39h-.05zm2.8 9.58l-.15.09-.08.26a20.26 20.26 0 0 1-1.4 3.56c-.55 1.14-1.31 2.15-1.94 3.21a16.47 16.47 0 0 1-2.35 2.88 18.38 18.38 0 0 1-2.53 2.07l-1.29-.29-.8-.18-.43.65a44.62 44.62 0 0 1-17.51 15.28 69.63 69.63 0 0 0-24.58-.27l-.32.06-.24.22A74.09 74.09 0 0 1 75.75 135a34 34 0 0 0-3.26 1.91 93.564 93.564 0 0 1-10.09 5.41c2.519-.563 5-1.28 7.43-2.15a92.46 92.46 0 0 0 3.62-1.42c.59-.26 1.2-.51 1.78-.8.58-.29 1.12-.66 1.68-1A76.39 76.39 0 0 0 89.18 128a67.55 67.55 0 0 1 23.86.37l.36.07.34-.16A46.81 46.81 0 0 0 132 112.71l1.06.24.51.12.4-.26a20.73 20.73 0 0 0 3.26-2.63 22.08 22.08 0 0 0 2.67-3.23 13.76 13.76 0 0 0 1.73-3.8c.39-1.26.664-2.551.82-3.86a9.82 9.82 0 0 0 2.94-5.58 9.93 9.93 0 0 1-3.84 4.83l-.05.04zm-34.62 35.82a10.82 10.82 0 0 0-1.55.78c-2 1-4.09 2-6.18 2.8-1.39 0-2.77-.06-4.16-.06-1.39 0-2.95 0-4.48.14h-.35l-.28.23a33.47 33.47 0 0 1-9.08 5.38 35.91 35.91 0 0 1-5.06 1.57 54.94 54.94 0 0 1-5.17 1.87c1.87.33 3.774.44 5.67.33a34.32 34.32 0 0 0 5.4-1.66 35.77 35.77 0 0 0 9.38-5.5c1.29-.09 2.63-.11 4-.12 1.37-.01 2.9 0 4.34.07h.24l.21-.08a70.91 70.91 0 0 0 6.6-3l.81-.42c.284-.12.545-.29.77-.5.47-.4.94-.8 1.39-1.23a15.08 15.08 0 0 0 2.41-2.8 22.12 22.12 0 0 1-3.23 1.52c-.56.28-1.08.44-1.63.64l-.05.04z" id="Shape" fill="#DE6C1C"/><path d="M149.47 61.65l-1.24 8.16v-.07l2.56 11.5v.18l-.72 4.16v-.21c.253 1.333.493 2.667.72 4v.25l-4.7 18.36v.11l-.07.09-7.24 9.6.06-.1-2.84 6.15-7.23 11-.07.11-.11.07-16.73 10.08-.1.06h-.11l-5.43.78.22-.08-7.31 4.54-.1.06h-.11l-15 2.47h-.18A901.739 901.739 0 0 1 70.41 151c-4.41-.62-8.84-1.2-13.26-1.59h-.31l-.15-.28a24.31 24.31 0 0 0-3.8-5.06l.5.17a27.82 27.82 0 0 1-6.52 0h-.27l-.16-.24a6.22 6.22 0 0 0-.84-.89 6.59 6.59 0 0 1-1-1.12l.4.26-10.52-1.79h-.16l-.07-.12a23.36 23.36 0 0 1-2.67-6.5 17.71 17.71 0 0 1-.32-7 17.55 17.55 0 0 0 .64 6.87 22.88 22.88 0 0 0 2.9 6.24l-.23-.15 10.59 1.3h.25l.15.23a5.8 5.8 0 0 0 .84.89 6.24 6.24 0 0 1 1 1.11l-.43-.26a25.89 25.89 0 0 0 6.24 0h.3l.2.22a25.38 25.38 0 0 1 4 5.31l-.46-.3c4.47.4 8.9 1 13.32 1.6 4.42.6 8.84 1.3 13.25 2h-.19l15-2.47-.21.08 7.31-4.54.1-.06h.12l5.43-.78-.21.08 16.73-10.08-.18.18 7.23-11v.07l2.84-6.19v-.06l7.24-9.6-.1.2 4.69-18.36v.24a209.808 209.808 0 0 1-.72-4v-.22l.91-4.12v.18l-2-11.61v-.07l1.66-8.12z" id="Shape" fill="#A1EADF"/><path d="M31.26 126.83l-3.06-1.93c-1.78-.57-3.55-1.16-5.31-1.8a46 46 0 0 1-5.19-2.17l-.12-.06v-.15c-.06-1.42-.3-2.84-.37-4.3l.12.24-4.33-3.35-.12-.09v-.17l-.95-6.26.07.21a352.45 352.45 0 0 1-3.48-5.1l-.09-.14v-.16l-.28-7.14.11.33-2.56-3.58-.12-.17v-.2L5.76 83v-2a4.45 4.45 0 0 0-.3-1.7c-.4-1.15-1.12-2.25-1.62-3.54l-.07-.18.06-.19A74.69 74.69 0 0 1 9.5 61.8l-.06.41c-.14-.65-.5-1.32-.7-2.15l-.05-.23.12-.2c1.16-2 2.56-3.69 3.67-5.55l-.08.36-.8-6.28v-.22l.13-.18 11.19-16.12 16.33-16.47.13-.13h.18l7.82-1.32-.26.11 4.74-3.73.14-.1h.17l17.25-1.5h-.15l6.84-2.59.13-.05h.14l17.4 2.3h-.06l15.4.47h.15l.13.08 7.6 4.76.21.13v.27l.41 2.23-.37-.39 9.4 3.63.19.07.1.19 4 7.67-.16-.19a350.5 350.5 0 0 1 7.13 5.59l.12.1v.13l3.51 9.63v.22l-.41 1.68-.09-.29 5.57 5.86v.05l.8 4.7 2 6.88-2.24-6.81-.95-4.67.05.1-5.64-5.63-.12-.12v-.16l.37-1.73v.21l-3.82-9.51.17.23c-2.43-1.8-4.81-3.65-7.19-5.51l-.1-.08-.06-.11-4-7.67.29.26-9.17-3.61-.32-.12v-.27l-.43-2.37.26.4-7.6-4.76.29.09-15.4-.47h-.06L76.23 7h.28l-6.84 2.59h-.15l-17.25 1.5.3-.12-4.74 3.73-.11.09h-.14l-7.82 1.32.31-.16L23.8 32.37l.06-.08-11.23 16.13.1-.4.8 6.28v.19l-.1.17c-1.16 2-2.56 3.69-3.67 5.55l.06-.42c.14.65.5 1.32.7 2.15l.05.22-.11.19A73.58 73.58 0 0 0 5 75.8v-.37c.44 1.14 1.16 2.25 1.63 3.57a5.6 5.6 0 0 1 .36 2.13v2l-.17 7.82-.11-.37 2.56 3.58.11.15v.18l.3 7.11-.1-.29c1.14 1.71 2.25 3.44 3.36 5.18l.07.11v.11l.74 6.3-.15-.26 4.2 3.49.11.09v.14c0 1.41.21 2.84.23 4.3l-.13-.21a45.68 45.68 0 0 0 4.99 2.26c1.733.667 3.48 1.333 5.24 2l3.02 2.01z" id="Shape" fill="#FEEBC9"/><path d="M4.87 39.88A5.65 5.65 0 0 1 9.66 30a7.18 7.18 0 0 1 4.51-3 6.66 6.66 0 0 1 5 1.22A3.8 3.8 0 0 1 21.46 25 3.51 3.51 0 0 1 26 29.58a7.09 7.09 0 0 1-2.91 2.9 5 5 0 0 1 .84 5.16 7.41 7.41 0 0 1-3.69 4A13.52 13.52 0 0 1 14.85 43a8.38 8.38 0 0 1-3.37 4.89 3.93 3.93 0 0 1-2.29.93 1.94 1.94 0 0 1-1.92-1.33 12.91 12.91 0 0 1-2.48 1.16 3.42 3.42 0 0 1-2.37.23 3.13 3.13 0 0 1-2-2.89 5.13 5.13 0 0 1 1.36-3.41 18.17 18.17 0 0 1 3.09-2.7zm36.78-16.05a2.92 2.92 0 0 0 2.48-.8c.64-.63 1.51-1.48 1.38-2.37a12.68 12.68 0 0 0 11.39-4.11 4.36 4.36 0 0 0 .86 3.38 4.41 4.41 0 0 0 3 1.75 4.49 4.49 0 0 0 .15 4.63 6.22 6.22 0 0 0 4 2.63 10.29 10.29 0 0 0 4.83-.25 10.8 10.8 0 0 0 4.52-2.34 7.32 7.32 0 0 0 2.53-4.55 7.56 7.56 0 0 0 5 .88 7.47 7.47 0 0 0 4.37-2.6 6.11 6.11 0 0 0 7.19 1 6.24 6.24 0 0 0 2.75-6.81c.42-1.38.16-3.31-1.09-4a14 14 0 0 0 2.42-4.09 4.75 4.75 0 0 0-.68-4.52A5.42 5.42 0 0 0 93.33.11a11.21 11.21 0 0 0-9.68 3.63 4.86 4.86 0 0 0-5-1.87 7.82 7.82 0 0 0-4.47 2.76 11.34 11.34 0 0 0-11.73-3.45c-4.13 1.28-6.83 5.28-7.26 9.58a13.64 13.64 0 0 0-6.71-1 9.12 9.12 0 0 0-5.94 3.09 6 6 0 0 0-.8 6 9.83 9.83 0 0 0-4.11 1.84 4.8 4.8 0 0 0-1.84 4 3.22 3.22 0 0 0 2.92 3c1.79-.01 3.15-2.11 2.94-3.86zm70.92-12.35a5.55 5.55 0 0 0 1 6.81 7.24 7.24 0 0 0 4.55 1.65 26 26 0 0 0 5.4-.4 4.91 4.91 0 1 0 6.66-6.63 2.72 2.72 0 0 0-2.45-.33 5.93 5.93 0 0 0-1.13-3.81A4.43 4.43 0 0 0 123.12 7a3.55 3.55 0 0 0-3.2 2.1c-2.33-.9-6.05.26-7.35 2.38zM4.74 94.92a4.26 4.26 0 0 0 1.72 2.59 4.68 4.68 0 0 0 3.75.32 8.4 8.4 0 0 0 4.1-2.83A10.67 10.67 0 0 0 22 92.37c2-2 3.21-5.15 1.73-7.52a8.35 8.35 0 0 0 7-6.37 1.4 1.4 0 0 0 1-1.85 1.43 1.43 0 0 0-2.06-.45A3.54 3.54 0 0 0 27 73.9a8.39 8.39 0 0 0-5.69.56 8.65 8.65 0 0 0-4.05 4.16 3.65 3.65 0 0 0-2.63-1.49 2.82 2.82 0 0 0-2.54.68A6.33 6.33 0 0 0 6.43 89c-1.03 1.49-2.12 4.19-1.69 5.92zm65.75-18.81a3.21 3.21 0 0 0 2.51 1.4 7.9 7.9 0 0 0 3-.51c2.62-.85 5.32-2 6.7-4.38a11.69 11.69 0 0 0 5.79-.08 5.49 5.49 0 0 0 3.72-4.22 7.15 7.15 0 0 0 5.65-1.89A7 7 0 0 0 100.2 61a8.17 8.17 0 0 0 6.91-3.48 5.21 5.21 0 0 0 1-2.76 3.58 3.58 0 0 0-1-2.91 3.12 3.12 0 0 0 2.34-3.56 3.34 3.34 0 0 0-3.51-2.53 3.93 3.93 0 0 0-3.23 3.29 4.58 4.58 0 0 0-4.43-2.36 4.12 4.12 0 0 0-3.64 3 8.13 8.13 0 0 0-6-2.09 7.15 7.15 0 0 0-5.42 3.24 5.82 5.82 0 0 0 .1 5.95 5.16 5.16 0 0 0-5.53 1.65A4.72 4.72 0 0 0 77.4 64a5.57 5.57 0 0 0-5.9 8.42c-.85.53-1.5 2.83-1.01 3.69zM6.76 132.59a5.57 5.57 0 0 0 3.71 2.14 5.82 5.82 0 0 0-.07 6.15 7 7 0 0 0 5.37 3.22 9.58 9.58 0 0 0 6.37-1.71 3.44 3.44 0 0 0 2 2.13 4.09 4.09 0 0 0 3.18-.57 8 8 0 0 0 10.14-6 3.72 3.72 0 0 0 2.86-1.3 4.29 4.29 0 0 0 .9-3.27 7.35 7.35 0 0 0 6.73-1 7.23 7.23 0 0 0 3-6.05 6.65 6.65 0 0 0 6.28-3.53 6.26 6.26 0 0 0-.43-7 5.58 5.58 0 0 0 4.63-6.62 3.74 3.74 0 0 0-1.53-2.46 3.62 3.62 0 0 0-2.66-.38 5 5 0 0 0-4 4.25 5.58 5.58 0 0 0-4.71-.08 5.76 5.76 0 0 0-3.16 3.61 1.85 1.85 0 0 0-1.52-1.67 2.71 2.71 0 0 0-2.25.7 5.84 5.84 0 0 0-1.18 2.26 5.61 5.61 0 0 0-5.16-4.19 5.38 5.38 0 0 0-5.18 3.91 7.88 7.88 0 0 0-6.63-2.13 7.76 7.76 0 0 0-5.75 3.93 5 5 0 0 0-5 .61 6.49 6.49 0 0 0-6.85-1.08 6.41 6.41 0 0 0-3.69 5.86 6.33 6.33 0 0 0 4 5.63c-.25 1.28-.16 3.54.6 4.64zm120.33-70.24a5.79 5.79 0 0 0-1.39 3.31 3.36 3.36 0 0 0 1.8 2.88 6.19 6.19 0 0 0-5.07 8.3 9.07 9.07 0 0 0-5.8 2.26 9.23 9.23 0 0 0-2.63 5.71 2.31 2.31 0 0 0-2.4 1.83 2.93 2.93 0 0 0 1.24 2.88 4.07 4.07 0 0 0 3.1.9 9.81 9.81 0 0 0 13.78-3.69 5.92 5.92 0 0 0 7-1.42A10.63 10.63 0 0 0 149.19 80c1.25-2.43 1.71-6.14-.17-8.13a7.38 7.38 0 0 0 4.83-6.67c.05-2.92-1.65-6.26-4.37-7.32a8.63 8.63 0 0 0 .41-8.92 5.52 5.52 0 0 0-2.64-2.51 2.77 2.77 0 0 0-3.17.38 6.79 6.79 0 0 0-6.58-.13 6.59 6.59 0 0 0-3.23 5.61 5.46 5.46 0 0 0-4.61 7.68 16.16 16.16 0 0 0-2.57 2.36zM147.93 92a5.79 5.79 0 0 0-1.59 3.11 3.37 3.37 0 0 0 1.23 3.15 4.48 4.48 0 0 0 3 .6 6 6 0 0 0 2.61-.73 3.76 3.76 0 0 0 1.87-2.28 8.88 8.88 0 0 0 7.57-2.9 3.9 3.9 0 0 0 1.06-2.09 2.06 2.06 0 0 0-1-2.08 2.68 2.68 0 0 0 .72-2.39c-.17-.85-.48-2-1.28-2.3a3.52 3.52 0 0 0 .49-4.12 4.35 4.35 0 0 0-3.71-2.09 5.71 5.71 0 0 0-4 1.72 6.74 6.74 0 0 0-.11 9.47 10.85 10.85 0 0 0-6.86 2.93zm-49.24 61.25a10.35 10.35 0 0 0 6.66-1.5 17.64 17.64 0 0 0 16.74 2.77 7.83 7.83 0 0 0 2.89-1.67c.8-.79 1.74-1.67 1.61-2.79a9.34 9.34 0 0 0 8.35-9.44c0-1.16.26-2.72-.7-3.36a8.24 8.24 0 0 0 3-3.64 5.9 5.9 0 0 0-.05-4.67c-.69-1.45-1.48-2.86-3.08-3a3.33 3.33 0 0 0-.67-3.66 6 6 0 0 0-3.51-1.68 10.35 10.35 0 0 0-7.07 1.44 9.76 9.76 0 0 0-4.13 5.65 6.47 6.47 0 0 0-6 .79 6.34 6.34 0 0 0-2.57 5.41 5.51 5.51 0 0 0-4.33 2 5.81 5.81 0 0 0-1.12 4.76 8.8 8.8 0 0 0-7.51 3.27 8.11 8.11 0 0 0-7.39.71 2.45 2.45 0 0 0-1.32 1.91 2.25 2.25 0 0 0 1.26 1.74 5 5 0 0 0 2.83.68c1.65 1.62 3.83 4.03 6.11 4.28z" id="Shape" fill="#FFF8ED"/><path d="M137.27 133.63a5.9 5.9 0 0 0-.05-4.67c-.69-1.45-1.48-2.86-3.08-3a3 3 0 0 0 .13-2.27 17.15 17.15 0 0 0-3.77.82 4.34 4.34 0 0 1-1.42 4.26c-1.21 1-3.05 1.76-4.49 1.11a2.52 2.52 0 0 1 .31 3 2 2 0 0 1-2.47 1 6.1 6.1 0 0 1-2.43 10.49 5.48 5.48 0 0 1-5.64-1.47 2.62 2.62 0 0 1-1.17 3 3.94 3.94 0 0 1-3.33.23c-1.09-.38-1.75-1.39-2.59-2.18a6.58 6.58 0 0 1-4.58 4.12 4.6 4.6 0 0 1-5.06-3.05 4.17 4.17 0 0 1-6.73 1 8.9 8.9 0 0 0-.71 2.53 5 5 0 0 0 2.47.5c1.61 1.62 3.79 4.05 6.07 4.28a10.35 10.35 0 0 0 6.66-1.5 17.64 17.64 0 0 0 16.74 2.77 7.83 7.83 0 0 0 2.89-1.67c.8-.79 1.74-1.67 1.61-2.79a9.34 9.34 0 0 0 8.35-9.44c0-1.16.26-2.72-.7-3.36a8.24 8.24 0 0 0 2.99-3.71zm25.39-44.9a2.68 2.68 0 0 0 .72-2.39c-.17-.85-.48-2-1.28-2.3a3.52 3.52 0 0 0 .49-4.12 3.93 3.93 0 0 0-1.3-1.36A4.61 4.61 0 0 1 156.4 85a7.9 7.9 0 0 1 2.38 1.52 3.57 3.57 0 0 1 1.42 2.6 2.25 2.25 0 0 1-1.67 2.26 3.9 3.9 0 0 1-5.08.49 5.05 5.05 0 0 1-3 3.24 4.81 4.81 0 0 1-4.09-.07 3.37 3.37 0 0 0 1.23 3.15 4.48 4.48 0 0 0 3 .6 6 6 0 0 0 2.61-.73 3.76 3.76 0 0 0 1.87-2.28 8.88 8.88 0 0 0 7.57-2.9 3.91 3.91 0 0 0 1.06-2.09 2.06 2.06 0 0 0-1.04-2.06zM51 126.36a6.66 6.66 0 0 0 5.6-2.5c-.12.09-.24.19-.36.27-1.42.89-3.45 1.39-4.95.64a4.73 4.73 0 0 0 2.91-2.53 4.4 4.4 0 0 0 .07-3.71 4.68 4.68 0 0 1-3.68 3.16 4.09 4.09 0 0 1-4.2-1.69 4.29 4.29 0 0 1-7.74 2.31 1.87 1.87 0 0 1-.14 1.35 3 3 0 0 1-1.64 1.34 5 5 0 0 1-3.77-.08 11.13 11.13 0 0 1-1.93-.89 6.24 6.24 0 0 1-2.78 7 3 3 0 0 1-1.48.5c-.53 0-1.06.42-1.31 0a2.39 2.39 0 0 1-1.44 2.79 2.12 2.12 0 0 1-2.63-1.31 4.4 4.4 0 0 1-8.3 2.58 5.92 5.92 0 0 1-.32-3.92 20 20 0 0 1 1.73-3.93 1.62 1.62 0 0 1-1.64-1.1 2.65 2.65 0 0 1 .22-2.06 2.47 2.47 0 0 1 .15-.23 5.05 5.05 0 0 1-8.1-5.06 22.07 22.07 0 0 0-3 2.78v.34a6.33 6.33 0 0 0 4 5.63c-.31 1.33-.27 3.58.53 4.69a5.57 5.57 0 0 0 3.71 2.14 5.82 5.82 0 0 0-.07 6.15 7 7 0 0 0 5.37 3.22 9.58 9.58 0 0 0 6.37-1.71 3.44 3.44 0 0 0 2 2.13 4.09 4.09 0 0 0 3.18-.57 8 8 0 0 0 10.14-6 3.72 3.72 0 0 0 2.86-1.3 4.29 4.29 0 0 0 .9-3.27 7.35 7.35 0 0 0 6.73-1 7.23 7.23 0 0 0 3.01-6.16zm37.49-53.82a5.49 5.49 0 0 0 3.72-4.22 7.15 7.15 0 0 0 5.65-1.89A7 7 0 0 0 100.2 61a8.17 8.17 0 0 0 6.91-3.48 5.21 5.21 0 0 0 1-2.76 3.58 3.58 0 0 0-1-2.91 3.12 3.12 0 0 0 2.34-3.56 2.91 2.91 0 0 0-.42-1 3 3 0 0 1-2.43.85 4.05 4.05 0 0 1-2.21 2.77 3.55 3.55 0 0 1-3.3-.14 2.28 2.28 0 0 1-1.8 1.21 1.89 1.89 0 0 1-1.84-.66c.212.98-.112 2-.85 2.68a2.31 2.31 0 0 1-2.45.6 5.52 5.52 0 0 1-1 9.54 5.44 5.44 0 0 1-5.43-.27 3.05 3.05 0 0 1-2.55 2.55 2.85 2.85 0 0 1-3.07-1.61 7.16 7.16 0 0 1-2.61 4.35 4.62 4.62 0 0 1-3.95 1 2.76 2.76 0 0 1-2-3.21 37.89 37.89 0 0 0-2.88 2.53 5.54 5.54 0 0 0 .83 2.88c-.84.55-1.53 2.85-1 3.72A3.21 3.21 0 0 0 73 77.51a7.9 7.9 0 0 0 3-.51c2.62-.85 5.32-2 6.7-4.38a11.69 11.69 0 0 0 5.79-.08zm36.95-61.62a6.92 6.92 0 0 0-.07 1.45 1.13 1.13 0 0 0 .07-1.45zm1.14 62.54v.26a.53.53 0 0 0 0-.26zm-13.01-55.17a7.24 7.24 0 0 0 4.55 1.65 26 26 0 0 0 5.4-.4 4.91 4.91 0 0 0 9.2-1.48 5 5 0 0 0-.65-3.27 4.38 4.38 0 0 0-2.59-.13c.22 1-.92 1.92-1.93 1.74a2.67 2.67 0 0 1-1.95-2.14 11.18 11.18 0 0 1-.24-1.89 1.1 1.1 0 0 1-.14.16 1.69 1.69 0 0 1-1.73.12 2.44 2.44 0 0 1-1.2-1 12.23 12.23 0 0 1-2.6 2.61 4.67 4.67 0 0 1-3.5.84 2.93 2.93 0 0 1-2.36-2.5c-.657.133-1.3.328-1.92.58a5.57 5.57 0 0 0 1.66 5.11z" id="Shape" fill="#A1EAC5"/><path d="M149.19 80c1.25-2.43 1.71-6.14-.17-8.13a7.38 7.38 0 0 0 4.83-6.67c.05-2.92-1.65-6.26-4.37-7.32a8.63 8.63 0 0 0 .41-8.92v-.07a17.76 17.76 0 0 0-3.89-1.13 6.12 6.12 0 0 1-1 8.42 2.65 2.65 0 0 1-2.68.65 5.52 5.52 0 0 1 1.1 2.91 3.86 3.86 0 0 1-.84 3.19 2.78 2.78 0 0 1-3.11.73c2.59.87 4.43 3.93 4.43 6.66a4.21 4.21 0 0 1-1.47 3.4 2.48 2.48 0 0 1-3.42-.36 2.19 2.19 0 0 1-2.11 2 1.89 1.89 0 0 1-1.74-2c.1 1.45-1.15 2.78-2.37 3.56a4.06 4.06 0 0 1-6.24-3.18c-.06.45-.62 1-.94 1.28a1.47 1.47 0 0 1-1.51.33 7 7 0 0 1 1.9 3.12 2.4 2.4 0 0 1-1.3 3c1.2.76 1.25 2.68.59 3.93a4.35 4.35 0 0 1-3.49 2.11 3.2 3.2 0 0 1-2.16-.47 1.73 1.73 0 0 1-.68-2 7.09 7.09 0 0 1-1.72 1.87 2.49 2.49 0 0 1-2.14.66 1.6 1.6 0 0 1-1.26-1.7 5.4 5.4 0 0 0-1.75 2.77c.204.307.461.574.76.79a4.07 4.07 0 0 0 3.1.9 9.81 9.81 0 0 0 13.78-3.69 5.92 5.92 0 0 0 7-1.42A10.63 10.63 0 0 0 149.19 80zM35.83 24.69a3.22 3.22 0 0 0 2.92 3c1.76 0 3.11-2.07 2.9-3.82a2.92 2.92 0 0 0 2.48-.8c.64-.63 1.51-1.48 1.38-2.37a12.68 12.68 0 0 0 11.39-4.11 4.36 4.36 0 0 0 .86 3.38 4.41 4.41 0 0 0 3 1.75 4.49 4.49 0 0 0 .15 4.63 6.22 6.22 0 0 0 4 2.63 10.29 10.29 0 0 0 4.83-.24 10.8 10.8 0 0 0 4.52-2.34 7.32 7.32 0 0 0 2.53-4.55 7.56 7.56 0 0 0 5 .88 7.47 7.47 0 0 0 4.37-2.6 6.11 6.11 0 0 0 7.19 1 6.24 6.24 0 0 0 2.75-6.81c.42-1.38.16-3.31-1.09-4a14 14 0 0 0 2.42-4.09 5.15 5.15 0 0 0-.15-3.68 12 12 0 0 1-4.12 1 7.87 7.87 0 0 1-1.89 6.09c-1.45 1.64-3.25 3.09-5.43 3.09a10 10 0 0 1-6.53 5.49 9.15 9.15 0 0 1-8-1.61 3.29 3.29 0 0 1-1.91 2.52 5 5 0 0 1-3.23.26c-2.44-.55-4.22-2.88-4.83-5.31-1.84 1.55-4.94 1.92-6.79.38a16 16 0 0 1-4.8 2.39c-1.74.43-3.61.45-4.93-.76a6.69 6.69 0 0 1-8.41 6.1 4.25 4.25 0 0 0-.58 2.5zM.71 47.23a2.87 2.87 0 0 0 1.71 1.6 3.42 3.42 0 0 0 2.37-.23 12.91 12.91 0 0 0 2.48-1.16 1.94 1.94 0 0 0 1.92 1.33 3.92 3.92 0 0 0 2.29-.93A8.38 8.38 0 0 0 14.85 43a13.52 13.52 0 0 0 5.38-1.31 7.41 7.41 0 0 0 3.69-4 5 5 0 0 0-.84-5.16A7.09 7.09 0 0 0 26 29.58a3.6 3.6 0 0 0-.74-3.8l-.13-.11c-.2-.13-.4-.26-.62-.38l-1.88 3.41a15.65 15.65 0 0 1-2.37 3.51 7.91 7.91 0 0 1-5.68 2.34c.23 3.59-2.92 6.85-6.5 7.24a2.35 2.35 0 0 1-4.3 1.37 5.38 5.38 0 0 0-3.07 4.07zm20.64 32.59a7.68 7.68 0 0 1-6 .29c.43.07.38.81 0 1a1.27 1.27 0 0 1-1.21-.32 2.12 2.12 0 0 0-1-.53 8.16 8.16 0 0 1-1.28 3.83 3.79 3.79 0 0 1-3.49 1.68 2.51 2.51 0 0 1-2.1-2.93 31 31 0 0 0-2.15 3A6.25 6.25 0 0 0 6.43 89c-1 1.45-2.13 4.16-1.69 5.88a4.26 4.26 0 0 0 1.72 2.59 4.68 4.68 0 0 0 3.75.32 8.4 8.4 0 0 0 4.1-2.79A10.67 10.67 0 0 0 22 92.37c2-2 3.21-5.15 1.73-7.52a8.35 8.35 0 0 0 7-6.37 1.4 1.4 0 0 0 1-1.85 1.43 1.43 0 0 0-2.06-.45 3.15 3.15 0 0 0-2.06-2.05 16.52 16.52 0 0 0-2.2 1.17 7.85 7.85 0 0 1-4.06 4.52z" id="Shape" fill="#A1EAC5"/></g></g></g></g></svg>