<svg width="125" height="127" viewBox="0 0 125 127" xmlns="http://www.w3.org/2000/svg"><defs><filter x="-3.1%" y="-4.1%" width="106.1%" height="108.2%" filterUnits="objectBoundingBox" id="filter-1"><feOffset in="SourceAlpha" result="shadowOffsetOuter1"/><feGaussianBlur stdDeviation="7.5" in="shadowOffsetOuter1" result="shadowBlurOuter1"/><feColorMatrix values="0 0 0 0 0 0 0 0 0 0 0 0 0 0 0 0 0 0 0.5 0" in="shadowBlurOuter1" result="shadowMatrixOuter1"/><feMerge><feMergeNode in="shadowMatrixOuter1"/><feMergeNode in="SourceGraphic"/></feMerge></filter></defs><g id="Page-1" stroke="none" stroke-width="1" fill="none" fill-rule="evenodd"><g id="aff_des_slot_item" transform="translate(-712 -443)" fill-rule="nonzero"><g id="casino_info" filter="url(#filter-1)" transform="translate(404 252)"><g id="btn-play" transform="translate(302 184)"><g id="play-icon"><g id="space-03" transform="rotate(-50 82.017 36.983)"><path d="M37.903 83.61l3.815.47a5.448 5.448 0 0 1 4.725 6.061l-.357 2.92a5.441 5.441 0 0 1-6.048 4.735l-3.816-.471a5.448 5.448 0 0 1-4.724-6.07l.357-2.92a5.441 5.441 0 0 1 6.048-4.726z" id="Shape" fill="#E4D73B"/><rect id="Rectangle-path" fill="#E4D73B" transform="rotate(111.161 88.38 59.32)" x="81.054" y="52.433" width="14.653" height="13.775" rx="4.487"/><path d="M86.042 18.741l1.997 2.676a5.702 5.702 0 0 1-1.16 7.965l-1.94 1.456a5.675 5.675 0 0 1-7.932-1.164l-2.013-2.684a5.702 5.702 0 0 1 1.16-7.964l1.94-1.448a5.675 5.675 0 0 1 7.948 1.163z" id="Shape" fill="#E4D73B"/><rect id="Rectangle-path" fill="#E4D73B" transform="rotate(-178.03 44.353 7.225)" x="37.006" y=".318" width="14.693" height="13.813" rx="4.585"/><path d="M19.32 27.519l-2.06 2.611a6.907 6.907 0 0 1-9.685 1.139 6.94 6.94 0 0 1-1.136-9.705L8.5 18.953a6.899 6.899 0 0 1 9.676-1.14 6.933 6.933 0 0 1 1.145 9.706z" id="Shape" fill="#E4D73B"/><ellipse id="Oval" fill="#E4D73B" cx="47.238" cy="49.735" rx="46.792" ry="46.89"/><path d="M47.238 77.182C25.134 77.176 6.046 61.675 1.461 40.006c-3.94 18.688 3.825 37.903 19.632 48.577a46.71 46.71 0 0 0 52.3 0c15.806-10.674 23.57-29.89 19.63-48.577-4.585 21.672-23.677 37.174-45.785 37.176z" id="Shape" fill="#230753" opacity=".15" style="mix-blend-mode:multiply"/><ellipse id="Oval" fill="#E4D73B" transform="rotate(-22.6 30.875 24.867)" cx="30.875" cy="24.867" rx="5.52" ry="3.742"/><path d="M23.916 28.69c-1.194-2.872 1.274-6.638 5.52-8.411 3.141-1.31 6.364-1.156 8.313.17-1.786-1.879-5.472-2.285-9.044-.813-4.246 1.773-6.713 5.54-5.52 8.411a4.13 4.13 0 0 0 1.534 1.83 3.938 3.938 0 0 1-.803-1.187z" id="Shape" fill="#C7B835"/><path d="M35.97 22.735a2.708 2.708 0 0 0-.925-1.155c.56 1.871-1.063 4.19-3.758 5.312-2.127.887-4.32.765-5.61-.17 0 .089.057.178.09.268.811 1.903 3.717 2.497 6.494 1.326 2.776-1.172 4.497-3.669 3.71-5.58z" id="Shape" fill="#230753" opacity=".15" style="mix-blend-mode:multiply"/><ellipse id="Oval" fill="#E4D73B" transform="rotate(-6.31 48.407 12.348)" cx="48.407" cy="12.348" rx="3.694" ry="2.074"/><path d="M61.753 28.755c-.9-.52-1.071-1.928-.47-3.254-.088.118-.17.24-.244.366-.812 1.448-.714 3.092.276 3.661.99.57 2.435-.138 3.304-1.627a4.5 4.5 0 0 0 .195-.399c-.86 1.22-2.16 1.774-3.06 1.253z" id="Shape" fill="#C7B835"/><path d="M43.35 13.323c-.203-1.822 2.265-3.587 5.52-3.953a9.163 9.163 0 0 1 3.718.309 8.443 8.443 0 0 0-4.538-.635c-3.247.358-5.682 2.132-5.52 3.954.114 1.05 1.096 1.887 2.533 2.343a2.724 2.724 0 0 1-1.713-2.018z" id="Shape" fill="#230753" opacity=".15" style="mix-blend-mode:multiply"/><path d="M52.085 11.932c-.106-.984-1.429-1.668-3.101-1.692.917.277 1.55.814 1.623 1.473.122 1.138-1.42 2.245-3.45 2.44a6.47 6.47 0 0 1-.812 0 5.744 5.744 0 0 0 2.273.179c2.046-.155 3.597-1.261 3.467-2.4z" id="Shape" fill="#230753" opacity=".15" style="mix-blend-mode:multiply"/><ellipse id="Oval" fill="#E4D73B" transform="rotate(-58 10.368 44.302)" cx="10.368" cy="44.302" rx="5.423" ry="3.742"/><path d="M14.263 38.379c1.867 1.171 2.257 4.018 1.112 6.809 1.624-2.807 1.397-5.955-.511-7.143a3.695 3.695 0 0 0-3.483-.057 3.752 3.752 0 0 1 2.882.39zM6.316 49.89c-2.436-1.497-2.736-5.353-.917-8.908-.195.26-.382.529-.56.813-2.355 3.775-2.16 8.135.43 9.762 2.59 1.627 6.6-.122 8.93-3.896.178-.285.332-.57.486-.863-2.37 3.214-5.974 4.597-8.37 3.092z" id="Shape" fill="#230753" opacity=".15" style="mix-blend-mode:multiply"/><path d="M13.249 39.689c-1.746-1.099-4.457.08-6.04 2.627a7.8 7.8 0 0 0-.617 1.22c1.623-1.765 3.742-2.44 5.22-1.537 1.477.903 1.794 3.164.909 5.377.302-.339.574-.703.812-1.09 1.59-2.546 1.46-5.467-.284-6.597z" id="Shape" fill="#230753" opacity=".15" style="mix-blend-mode:multiply"/><ellipse id="Oval" fill="#E4D73B" transform="rotate(-58 23.412 63.963)" cx="23.412" cy="63.963" rx="6.608" ry="8.102"/><path d="M16.553 64.02c1.932-3.1 6.575-3.693 10.358-1.326a9.082 9.082 0 0 1 3.824 4.645c1.169-3.01-.382-6.841-3.808-8.948-3.783-2.368-8.426-1.782-10.358 1.326a6.088 6.088 0 0 0-.455 5.271c.115-.336.262-.66.439-.968z" id="Shape" fill="#230753" opacity=".15" style="mix-blend-mode:multiply"/><path d="M34.794 64.834a8.091 8.091 0 0 1-1.08 4.458c-2.606 4.523-9.206 5.605-14.726 2.44a12.742 12.742 0 0 1-5.934-7.232c.162 3.588 2.435 7.322 6.332 9.542 5.528 3.197 12.12 2.124 14.726-2.44a8.517 8.517 0 0 0 .682-6.768zm-4.36 20.199c1.486-2.376 5.431-2.587 8.816-.472 2.33 1.464 3.791 3.644 3.986 5.645.187-2.196-1.331-4.791-3.986-6.459-3.385-2.115-7.306-1.911-8.816.472a3.936 3.936 0 0 0-.544 2.498 3.756 3.756 0 0 1 .544-1.684z" id="Shape" fill="#230753" opacity=".15" style="mix-blend-mode:multiply"/><path d="M40.882 88.335c-.054.334-.17.654-.34.944-1.089 1.75-3.995 1.904-6.495.342a6.633 6.633 0 0 1-2.59-2.88c-.316 1.676.812 3.75 2.874 5.052 2.492 1.562 5.398 1.407 6.494-.342a3.317 3.317 0 0 0 .057-3.116z" id="Shape" fill="#230753" opacity=".15" style="mix-blend-mode:multiply"/><ellipse id="Oval" fill="#E4D73B" transform="rotate(-58 65.991 68.11)" cx="65.991" cy="68.11" rx="10.813" ry="12.137"/><path d="M58.888 68.03c3.166-5.076 10.326-6.312 16-2.757a13.417 13.417 0 0 1 2.72 2.245 12.658 12.658 0 0 0-5.878-8.598c-5.682-3.547-12.834-2.319-16 2.757-2.59 4.157-1.697 9.591 1.818 13.374a10.097 10.097 0 0 1 1.34-7.02z" id="Shape" fill="#230753" opacity=".15" style="mix-blend-mode:multiply"/><path d="M80.839 66.11a16.14 16.14 0 0 1-2.436 8.68c-4.586 7.322-14.003 9.763-21.033 5.345a14.643 14.643 0 0 1-6.535-9.387 14.886 14.886 0 0 0 6.892 12.617c7.03 4.401 16.447 2.01 21.042-5.345a16.021 16.021 0 0 0 2.07-11.91z" id="Shape" fill="#230753" opacity=".15" style="mix-blend-mode:multiply"/><ellipse id="Oval" fill="#E4D73B" transform="rotate(-70.86 34.745 43.691)" cx="34.745" cy="43.691" rx="1.81" ry="2.636"/><path d="M37.854 43.016a2 2 0 0 1 .17 1.627c-.446 1.285-2.313 1.798-4.172 1.147a4.562 4.562 0 0 1-2.03-1.367 4.231 4.231 0 0 0 2.395 1.904c1.86.65 3.734.13 4.173-1.147.22-.766.016-1.59-.536-2.164z" id="Shape" fill="#230753" opacity=".15" style="mix-blend-mode:multiply"/><path d="M32.91 43.504c.325-.944 1.705-1.326 3.077-.814.356.123.69.302.99.53a3.248 3.248 0 0 0-1.623-1.205c-1.372-.48-2.752-.097-3.077.814a1.921 1.921 0 0 0 .893 2.058 1.556 1.556 0 0 1-.26-1.383zm25.133-2.221a2.326 2.326 0 0 0-2.516.537 2.65 2.65 0 0 1 1.323.114 2.172 2.172 0 0 1 1.567 2.611 1.669 1.669 0 0 1-.309.537 1.884 1.884 0 0 0 1.502-1.188 2.172 2.172 0 0 0-1.567-2.611z" id="Shape" fill="#230753" opacity=".15" style="mix-blend-mode:multiply"/><path d="M57.353 45.79c-2.492-.684-4.059-2.929-3.474-5.011a3.33 3.33 0 0 1 .479-1.001 3.465 3.465 0 0 0-1.413 1.936c-.576 2.083.983 4.328 3.475 5.011a4.613 4.613 0 0 0 5.041-1.521 4.976 4.976 0 0 1-4.108.586zm25.012-.903c.02.4-.106.794-.357 1.106a1.395 1.395 0 0 1-1.916.407 1.065 1.065 0 0 1-.252-.293c.016.316.163.611.406.814.642.41 1.495.23 1.916-.407a1.5 1.5 0 0 0 .203-1.627zm-20.23-19.28a1.475 1.475 0 0 1 2.054.268c.19.313.232.695.113 1.042a1.354 1.354 0 0 0 .163-1.554 1.475 1.475 0 0 0-2.054-.269 1.732 1.732 0 0 0-.73.944 1.82 1.82 0 0 1 .454-.431zM82 31.651a1.476 1.476 0 0 0-1.916-.813 1.77 1.77 0 0 0-.86.585c.155-.113.327-.2.51-.26a1.476 1.476 0 0 1 1.916.814 1.26 1.26 0 0 1-.267 1.163A1.36 1.36 0 0 0 82 31.651zM63.661 16.724c.195-.944 1.737-1.424 3.442-1.074.435.088.858.23 1.258.423a4.308 4.308 0 0 0-2.378-1.285c-1.713-.35-3.247.13-3.442 1.073-.138.692.487 1.432 1.502 1.92a1.311 1.311 0 0 1-.382-1.057zM8.15 69.031c-1.274-2.676-3.247-4.409-4.416-3.84a1.13 1.13 0 0 0-.365.359c.771.268 2.338 1.79 3.466 4.165a8.403 8.403 0 0 1 .74 5.238 1 1 0 0 0 .81-.056c1.13-.562 1.04-3.165-.235-5.866z" id="Shape" fill="#230753" opacity=".15" style="mix-blend-mode:multiply"/><ellipse id="Oval" fill="#E4D73B" transform="rotate(-25.53 5.625 70.238)" cx="5.625" cy="70.238" rx="1.315" ry="5.206"/><path d="M6.811 69.666a20.606 20.606 0 0 0-.373-.732c.974 2.286 1.307 4.238.722 4.515-.584.276-1.891-1.204-3.052-3.4.105.243.21.495.333.748 1.234 2.595 2.768 4.441 3.417 4.132.65-.309.187-2.668-1.047-5.263zm74.466-35.867a2.263 2.263 0 0 1-2.939-1.229 1.964 1.964 0 0 1 .341-1.781 2.093 2.093 0 0 0-.812 2.27 2.263 2.263 0 0 0 2.947 1.252 2.644 2.644 0 0 0 1.315-.943 2.766 2.766 0 0 1-.852.43z" id="Shape" fill="#230753" opacity=".15" style="mix-blend-mode:multiply"/></g><g id="play-button" transform="translate(57 53)" fill="#030337"><path d="M31.068 20.176l-29-20A1 1 0 1 0 .5.999v40a1 1 0 0 0 1.568.823l29-20a.999.999 0 0 0 0-1.646z" id="Shape"/></g></g></g></g></g></g></svg>