<svg width="49" height="49" viewBox="0 0 49 49" xmlns="http://www.w3.org/2000/svg"><g id="Page-1" stroke="none" stroke-width="1" fill="none" fill-rule="evenodd"><g id="aff_des_casino_item" transform="translate(-404 -1362)" fill-rule="nonzero"><g id="faq_block" transform="translate(394 1352)"><g id="faq_item1" transform="translate(1)"><g id="question-mark"><g id="space-03" transform="rotate(-50 40.248 18.768)"><path d="M18.951 41.805l1.908.235a2.724 2.724 0 0 1 2.362 3.03l-.178 1.46a2.72 2.72 0 0 1-3.024 2.368l-1.908-.236a2.724 2.724 0 0 1-2.362-3.034l.178-1.46a2.72 2.72 0 0 1 3.024-2.363z" id="Shape" fill="#C2C2C2"/><rect id="Rectangle-path" fill="#C2C2C2" transform="rotate(111.161 44.19 29.66)" x="40.527" y="26.217" width="7.327" height="6.888" rx="2.244"/><path d="M43.021 9.37l.999 1.339a2.851 2.851 0 0 1-.58 3.982l-.97.728a2.837 2.837 0 0 1-3.967-.582l-1.006-1.342a2.851 2.851 0 0 1 .58-3.982l.97-.724a2.837 2.837 0 0 1 3.974.582z" id="Shape" fill="#D6D6D6"/><rect id="Rectangle-path" fill="#D6D6D6" transform="rotate(-178.03 22.177 3.612)" x="18.503" y=".159" width="7.347" height="6.907" rx="2.292"/><path d="M9.66 13.76l-1.03 1.305a3.453 3.453 0 0 1-4.843.57 3.47 3.47 0 0 1-.568-4.853l1.03-1.306a3.45 3.45 0 0 1 4.84-.57 3.466 3.466 0 0 1 .571 4.853z" id="Shape" fill="#D6D6D6"/><ellipse id="Oval" fill="#F6F6F6" cx="23.619" cy="24.868" rx="23.396" ry="23.445"/><path d="M23.62 38.591C12.566 38.588 3.022 30.838.73 20.003c-1.97 9.344 1.913 18.951 9.816 24.288a23.355 23.355 0 0 0 26.15 0c7.903-5.337 11.786-14.944 9.816-24.288C44.219 30.839 34.673 38.59 23.619 38.59z" id="Shape" fill="#230753" opacity=".15" style="mix-blend-mode:multiply"/><ellipse id="Oval" fill="#E3E3E3" transform="rotate(-22.6 15.438 12.433)" cx="15.438" cy="12.433" rx="2.76" ry="1.871"/><path d="M11.958 14.345c-.597-1.436.637-3.319 2.76-4.206 1.57-.655 3.182-.577 4.156.086-.893-.94-2.735-1.143-4.521-.407-2.123.887-3.357 2.77-2.76 4.206.16.374.427.692.767.915a1.969 1.969 0 0 1-.402-.594z" id="Shape" fill="#E3E3E3"/><path d="M17.985 11.368a1.354 1.354 0 0 0-.462-.578c.28.936-.532 2.095-1.88 2.656-1.063.444-2.159.382-2.804-.085 0 .044.028.09.044.134.406.952 1.86 1.249 3.247.663 1.389-.586 2.25-1.834 1.855-2.79z" id="Shape" fill="#230753" opacity=".15" style="mix-blend-mode:multiply"/><ellipse id="Oval" fill="#E3E3E3" transform="rotate(-6.31 24.204 6.174)" cx="24.204" cy="6.174" rx="1.847" ry="1.037"/><path d="M30.877 14.378c-.45-.26-.536-.964-.236-1.627-.043.059-.084.12-.122.183-.405.724-.357 1.545.138 1.83.496.285 1.218-.07 1.652-.813a2.25 2.25 0 0 0 .098-.2c-.43.61-1.08.887-1.53.627z" id="Shape" fill="#E3E3E3"/><path d="M21.675 6.662c-.102-.912 1.132-1.794 2.76-1.977a4.582 4.582 0 0 1 1.86.154 4.221 4.221 0 0 0-2.27-.317c-1.623.18-2.841 1.066-2.76 1.977.057.525.548.944 1.266 1.171a1.362 1.362 0 0 1-.856-1.008z" id="Shape" fill="#230753" opacity=".15" style="mix-blend-mode:multiply"/><path d="M26.042 5.966c-.052-.492-.714-.834-1.55-.846.459.138.775.407.812.736.06.57-.71 1.123-1.725 1.22-.136.01-.271.01-.406 0 .369.106.755.136 1.136.09 1.023-.077 1.798-.63 1.733-1.2z" id="Shape" fill="#230753" opacity=".15" style="mix-blend-mode:multiply"/><ellipse id="Oval" fill="#E3E3E3" transform="rotate(-58 5.184 22.151)" cx="5.184" cy="22.151" rx="2.711" ry="1.871"/><path d="M7.132 19.19c.933.585 1.128 2.009.556 3.404.812-1.403.698-2.978-.256-3.571-.54-.3-1.192-.31-1.741-.029a1.876 1.876 0 0 1 1.44.195zm-3.974 5.755c-1.218-.749-1.368-2.677-.459-4.454-.097.13-.19.264-.28.407-1.177 1.887-1.08 4.067.215 4.88 1.295.814 3.3-.06 4.465-1.948.09-.142.167-.284.244-.43-1.185 1.606-2.988 2.297-4.185 1.545z" id="Shape" fill="#230753" opacity=".15" style="mix-blend-mode:multiply"/><path d="M6.624 19.844c-.872-.549-2.228.04-3.02 1.314a3.9 3.9 0 0 0-.308.61c.812-.882 1.871-1.22 2.61-.769.739.452.897 1.583.454 2.689.151-.17.287-.352.406-.545.796-1.273.731-2.733-.142-3.299z" id="Shape" fill="#230753" opacity=".15" style="mix-blend-mode:multiply"/><ellipse id="Oval" fill="#E3E3E3" transform="rotate(-58 11.706 31.982)" cx="11.706" cy="31.982" rx="3.304" ry="4.051"/><path d="M8.276 32.01c.966-1.55 3.288-1.847 5.18-.663a4.541 4.541 0 0 1 1.911 2.323c.585-1.505-.19-3.421-1.903-4.475-1.892-1.183-4.214-.89-5.18.663a3.044 3.044 0 0 0-.227 2.636c.058-.168.131-.33.22-.484z" id="Shape" fill="#230753" opacity=".15" style="mix-blend-mode:multiply"/><path d="M17.397 32.417a4.046 4.046 0 0 1-.54 2.229c-1.303 2.261-4.603 2.802-7.363 1.22a6.37 6.37 0 0 1-2.967-3.616c.081 1.794 1.218 3.66 3.166 4.771 2.764 1.599 6.06 1.062 7.363-1.22a4.258 4.258 0 0 0 .34-3.384zm-2.18 10.099c.743-1.187 2.716-1.293 4.408-.236 1.165.733 1.896 1.823 1.993 2.823.093-1.098-.666-2.395-1.993-3.23-1.692-1.057-3.653-.955-4.408.237a1.968 1.968 0 0 0-.272 1.248 1.88 1.88 0 0 1 .272-.842z" id="Shape" fill="#230753" opacity=".15" style="mix-blend-mode:multiply"/><path d="M20.441 44.168a1.348 1.348 0 0 1-.17.472c-.544.874-1.997.951-3.248.17a3.317 3.317 0 0 1-1.294-1.44c-.159.838.405 1.876 1.436 2.526 1.247.781 2.7.704 3.248-.17a1.659 1.659 0 0 0 .028-1.558z" id="Shape" fill="#230753" opacity=".15" style="mix-blend-mode:multiply"/><ellipse id="Oval" fill="#E3E3E3" transform="rotate(-58 32.996 34.055)" cx="32.996" cy="34.055" rx="5.407" ry="6.069"/><path d="M29.444 34.015c1.583-2.538 5.163-3.156 8-1.379.5.313.958.69 1.36 1.123a6.33 6.33 0 0 0-2.939-4.3c-2.841-1.773-6.417-1.158-8 1.38-1.295 2.078-.848 4.795.91 6.687a5.048 5.048 0 0 1 .669-3.51z" id="Shape" fill="#230753" opacity=".15" style="mix-blend-mode:multiply"/><path d="M40.42 33.055a8.07 8.07 0 0 1-1.218 4.34c-2.294 3.661-7.002 4.881-10.517 2.673a7.321 7.321 0 0 1-3.268-4.694 7.443 7.443 0 0 0 3.446 6.309c3.515 2.2 8.224 1.004 10.521-2.673a8.01 8.01 0 0 0 1.035-5.955z" id="Shape" fill="#230753" opacity=".15" style="mix-blend-mode:multiply"/><ellipse id="Oval" fill="#E3E3E3" transform="rotate(-70.86 17.373 21.846)" cx="17.373" cy="21.846" rx="1" ry="1.318"/><path d="M18.927 21.508a.998.998 0 0 1 .085.813c-.223.643-1.157.9-2.086.574a2.28 2.28 0 0 1-1.015-.683c.267.455.694.795 1.198.951.93.326 1.867.065 2.086-.573.11-.383.008-.795-.268-1.082z" id="Shape" fill="#230753" opacity=".15" style="mix-blend-mode:multiply"/><path d="M16.455 21.752c.162-.472.853-.663 1.538-.407.178.062.346.15.496.265a1.624 1.624 0 0 0-.812-.602c-.686-.24-1.376-.05-1.538.406a.96.96 0 0 0 .446 1.03.778.778 0 0 1-.13-.692zm12.567-1.111a1.163 1.163 0 0 0-1.259.269c.222-.038.45-.018.662.057.573.148.922.729.783 1.306a.834.834 0 0 1-.154.268.942.942 0 0 0 .751-.594 1.086 1.086 0 0 0-.783-1.306z" id="Shape" fill="#230753" opacity=".15" style="mix-blend-mode:multiply"/><path d="M28.677 22.895c-1.246-.342-2.03-1.464-1.738-2.506.052-.179.133-.348.24-.5a1.733 1.733 0 0 0-.706.968c-.289 1.041.49 2.164 1.737 2.506a2.307 2.307 0 0 0 2.52-.761 2.487 2.487 0 0 1-2.053.293zm12.505-.452c.01.2-.053.398-.178.554a.697.697 0 0 1-.958.203.533.533 0 0 1-.126-.146.566.566 0 0 0 .203.406.697.697 0 0 0 .958-.203.75.75 0 0 0 .101-.814zm-10.115-9.64a.738.738 0 0 1 1.027.135.615.615 0 0 1 .057.52.676.676 0 0 0 .081-.777.738.738 0 0 0-1.027-.134.866.866 0 0 0-.365.472.91.91 0 0 1 .227-.216zM41 15.826a.738.738 0 0 0-.958-.407.885.885 0 0 0-.43.293.913.913 0 0 1 .255-.13.738.738 0 0 1 .958.406.631.631 0 0 1-.134.582.68.68 0 0 0 .309-.744zm-9.17-7.464c.098-.472.87-.712 1.722-.537.217.044.429.115.629.211a2.154 2.154 0 0 0-1.19-.642c-.856-.175-1.623.065-1.72.537-.07.345.243.716.75.96a.656.656 0 0 1-.19-.53zM4.075 34.516c-.637-1.339-1.623-2.205-2.208-1.92a.565.565 0 0 0-.182.179c.385.134 1.168.895 1.733 2.082.402.81.531 1.73.37 2.62.132.048.28.038.405-.029.564-.28.52-1.582-.118-2.932z" id="Shape" fill="#230753" opacity=".15" style="mix-blend-mode:multiply"/><ellipse id="Oval" fill="#C2C2C2" transform="rotate(-25.53 2.813 35.119)" cx="2.813" cy="35.119" rx="1" ry="2.603"/><path d="M3.406 34.833a10.463 10.463 0 0 0-.187-.366c.487 1.143.653 2.119.361 2.257-.292.139-.946-.602-1.526-1.7.053.122.105.248.166.374.617 1.298 1.384 2.221 1.71 2.067.324-.155.092-1.335-.524-2.632zM40.639 16.9a1.132 1.132 0 0 1-1.47-.615.982.982 0 0 1 .17-.89 1.046 1.046 0 0 0-.405 1.134c.234.58.894.861 1.473.627a1.33 1.33 0 0 0 .658-.472 1.383 1.383 0 0 1-.426.215z" id="Shape" fill="#230753" opacity=".15" style="mix-blend-mode:multiply"/></g><path d="M10.069 0C15.577 0 21 2.47 21 8.376c0 5.447-6.412 7.542-7.79 9.51-1.033 1.465-.688 3.522-3.528 3.522-1.85 0-2.754-1.465-2.754-2.806 0-4.988 7.529-6.117 7.529-10.225 0-2.26-1.546-3.601-4.13-3.601-5.507 0-3.356 5.528-7.528 5.528C1.293 10.304 0 9.424 0 7.75-.001 3.64 4.818 0 10.069 0zm-.214 24.127c1.933 0 3.529 1.548 3.529 3.437 0 1.888-1.593 3.436-3.53 3.436-1.936 0-3.53-1.546-3.53-3.436 0-1.888 1.594-3.437 3.53-3.437z" transform="translate(24 19)" fill="#040437" id="Shape"/></g></g></g></g></g></svg>