<svg width="57" height="63" viewBox="0 0 57 63" xmlns="http://www.w3.org/2000/svg"><defs><radialGradient cx="29.208%" cy="23.669%" fx="29.208%" fy="23.669%" r="77.853%" gradientTransform="scale(1 .99876)" id="radialGradient-1"><stop stop-color="#FE560F" offset="0%"/><stop stop-color="#FB5212" offset="23%"/><stop stop-color="#F2471B" offset="44%"/><stop stop-color="#E2342A" offset="64%"/><stop stop-color="#CD1A3F" offset="85%"/><stop stop-color="#B80054" offset="100%"/></radialGradient></defs><g id="Page-1" stroke="none" stroke-width="1" fill="none" fill-rule="evenodd"><g id="aff_des_casino_item" transform="translate(-1421 -652)"><g id="warning_item" transform="translate(1384 652)"><g id="icon" transform="translate(37)"><g id="planets_2-05" fill-rule="nonzero"><ellipse id="Oval" fill="url(#radialGradient-1)" cx="29.61" cy="32.982" rx="27.019" ry="27.053"/><path d="M17.652 10.407c.745 1.06 1.548 2.382 2.288 3.443-.363 1.875-.552 3.876-.897 5.75a39.039 39.039 0 0 0 4.543 3.687.117.117 0 0 1-.22-.052.117.117 0 0 1 .22-.052 20.06 20.06 0 0 1 .395 3.107c2.138.428 4.304.7 6.481.814.372-.778.812-1.848 1.184-2.626a2.632 2.632 0 0 1 1.436-.225c.323-1.047.25-2.248.941-3.088.983-1.219 2.037-2.441 3.015-3.66.201-1.897.448-4.019.663-5.916.673-.773 1.418-1.551 2.09-2.324.395.108.808.27 1.207.377-.664 1.799-1.265 3.736-1.929 5.535.57 2.072 1.05 4.297 1.62 6.374a43.483 43.483 0 0 0-3.355 4.204c.614 1.55 1.394 3.183 2.009 4.734-.35-.023-.633.157-.982.135-.225 1.348-.274 3.061-.498 4.41 1.175 1.749 2.56 3.38 3.87 5.03a7.167 7.167 0 0 0 2.019-.822c1.32.195 2.665.171 3.978-.072.35-1.749.75-3.444 1.1-5.193.676-.27 1.345-.31 2.026-.58a14.785 14.785 0 0 0 1.054-3.529c.292.477.727 1.097 1.019 1.574-.794 1.974-1.66 3.875-2.454 5.844-.3.077-.637.275-.937.346-.924 1.35-2.023 3.237-3.624 3.597a8.713 8.713 0 0 1-4.122.072c-.337.337-.897.683-1.01 1.146a21.726 21.726 0 0 1-1.372 3.48 17.421 17.421 0 0 1-7.31-1.457 54.75 54.75 0 0 1-4.069 7.369c-.542-.238-1.031-.256-1.574-.495-.516.9-1.108 1.862-1.624 2.779a6.903 6.903 0 0 1-2.21-.495l-2.194 1.96c-1.17-.184-2.31.117-3.364-.422a26.687 26.687 0 0 1-5.22-3.507c0-2.122.057-4.212.066-6.334a21.678 21.678 0 0 0 4.118-1.587c.381-2.347.807-4.698 1.188-7.045-.197-.301-.327-.616-.529-.9 1.247-.35 2.395-.449 3.638-.804.116-1.974.107-3.979.224-5.952a55.913 55.913 0 0 1-6.728-3.565c-.143-1.776-.264-3.502-.408-5.278a41.675 41.675 0 0 1 2.75-4.168l-.817-4.58c.82-.455 1.485-.58 2.305-1.04z" id="Shape" fill="#FF8933" opacity=".3" style="mix-blend-mode:screen"/><path d="M21.98 32.786l-2.06 3.802c-.138 2.218-.267 4.44-.446 6.658v.144l-.098.085-2.024 1.755a432.8 432.8 0 0 0-1.992 1.705c-.446 1.687-.84 3.378-1.295 5.061.281-1.746.612-3.478.92-5.219v-.058l.054-.05c.638-.625 1.29-1.232 1.938-1.853l1.845-1.741c.067-2.213.16-4.422.246-6.636v-.094l.044-.086 2.001-3.779c-.147-1.408-.272-2.816-.406-4.224-1.648-1.012-3.283-2.047-4.913-3.077l-.197-.135.05-.256.651-3.437.67-3.406c-.098-1.125-.174-2.25-.259-3.383a209.87 209.87 0 0 1-.237-3.428c.184 1.13.349 2.25.51 3.396.16 1.148.335 2.25.482 3.402v.072l-.527 3.459-.496 3.194c1.648.985 3.301 1.97 4.945 2.974l.183.112v.22c.152 1.526.313 3.05.447 4.576v.14l-.036.107zm.295 11.841l.084-.08v-.127l.487-3.954.447-3.86 2.144-3.6.116-.193-.085-.207-1.478-3.54-1.48-2.866-1.49-2.86-.026-.05-.027-.031-2.108-2.29.263-2.807.25-2.956v-.08a181.91 181.91 0 0 0-1.71-2.821c.473.976.96 1.943 1.456 2.91l-.447 2.893-.424 2.933v.13l.094.113 2.076 2.425 1.403 2.861 1.371 2.82 1.34 3.33-2.05 3.518-.049.085v.09l-.389 3.964-.353 3.85a380.928 380.928 0 0 0-4.198 4.315l-.027.027v.027c-.58 1.404-1.175 2.803-1.737 4.215.696-1.35 1.362-2.699 2.04-4.049a174.643 174.643 0 0 0 4.508-4.134zm30.283-13.078c-.946.994-1.876 2.007-2.805 3.014l-.026.027v.05c-.233.966-.456 1.933-.67 2.902a381.007 381.007 0 0 0-2.993 3.027l-2.859.644-2.952.679h-.076l-.067.05-2.85 1.979-3.48-.342-3.644-.338h-.197l-.134.135c-1.165 1.188-2.336 2.371-3.488 3.572-1.152 1.202-2.305 2.394-3.448 3.6l-2.394 1.758c-.807.6-1.608 1.2-2.403 1.8a138.92 138.92 0 0 0 2.545-1.584l2.533-1.601a404.133 404.133 0 0 0 3.614-3.478c1.156-1.102 2.3-2.222 3.443-3.338l3.453.365 3.64.368h.161l.134-.094 2.908-2.051 2.876-.707 2.935-.751.107-.027.067-.072c.996-1.093 1.997-2.186 2.984-3.289l.054-.063v-.067c.172-.993.338-1.987.495-2.983a121.201 121.201 0 0 0 2.537-3.185zM22.855 45.495c-.822.959-1.643 1.917-2.452 2.893l2.68-2.7c.893-.899 1.787-1.799 2.649-2.698l.053-.059v-.09l.474-2.825.447-2.744 1.934-3.105 1.947-3.18.022-.04v-.05c.54-1.575 1.059-3.15 1.586-4.733 1.568-1.075 3.127-2.173 4.686-3.261l.13-.09.026-.149c.3-1.732.612-3.46.893-5.196.282-1.736.554-3.464.831-5.191l.96-1.53-1.112 1.449c-.393 1.714-.808 3.423-1.18 5.137-.37 1.714-.723 3.33-1.08 4.994-1.586 1.053-3.176 2.1-4.748 3.149l-.12.08-.05.14c-.545 1.606-1.103 3.208-1.63 4.819l-1.898 3.149-1.899 3.212-.044.072v.072l-.362 2.843-.34 2.767c-.8.977-1.602 1.936-2.403 2.874v-.009zm16.907-24.518c-.724.76-1.448 1.52-2.158 2.295-.71.773-1.46 1.62-2.193 2.415l-.08.09-.023.126a175.243 175.243 0 0 0-.558 3.28c-.179 1.062-.34 2.123-.5 3.19a167.412 167.412 0 0 0-2.542 3.261c-.857 1.13-1.706 2.25-2.519 3.433a100.19 100.19 0 0 0 2.917-3.1c.951-1.053 1.894-2.11 2.818-3.176l.063-.077v-.112c.21-1.089.415-2.182.603-3.275.187-1.093.366-2.106.536-3.15.692-.782 1.366-1.574 2.045-2.37.68-.796 1.398-1.665 2.09-2.501l.086-.104v-.112c-.17-1.683-.358-3.37-.599-5.048-.031 1.651-.031 3.298.014 4.944v-.009zm-2.587 20.051l-1.215-.9-1.389-.998-.236-.171-.237.148a70.025 70.025 0 0 0-5.436 3.739c1.014-.45 1.997-.9 2.97-1.409a64.668 64.668 0 0 0 2.627-1.426l1.148.864 1.389.999.165.121.183-.05a96.149 96.149 0 0 0 3.1-.858 39.476 39.476 0 0 0 3.06-1.035 39.81 39.81 0 0 0-3.194.45c-.97.135-1.952.328-2.935.535v-.009zm-13.279-16.06l2.42 6.581V28.49l-2.42-3.522zm11.408 11.809l1.505 1.687 3.573.607-5.078-2.294zm2.528-6.186l-.241-3.262-1.416 5.925 1.657-2.663zm-9.545 19.38l2.568-3.71-4.837 4.237 2.269-.526z" id="Shape" fill="#DB4200" opacity=".4" style="mix-blend-mode:multiply"/><path d="M4.442 35.486c1.718 8.989 8.927 16.69 17.77 18.993 8.842 2.302 18.886-.894 24.756-7.93 5.87-7.036 7.276-17.477 3.464-25.796.736 2.977.093 6.124-.853 9.038-1.603 4.944-4.83 9.423-9.258 12.14-4.428 2.718-10.061 3.545-14.958 1.82-4.897-1.726-8.87-6.097-9.709-11.229-3.004 1.94-7.65 3.237-11.212 2.964z" id="Shape" fill="#DB4200" opacity=".6" style="mix-blend-mode:multiply"/><path d="M9.555 18.127a23.65 23.65 0 0 0-.58 21.534 23.478 23.478 0 0 0 17.1 13.009c6.42 1.13 13.46-.699 17.983-5.434 3.831-4.055 5.523-9.727 5.832-15.291a26.826 26.826 0 0 0-1.14-10.02 16.91 16.91 0 0 0-5.67-8.213 16.022 16.022 0 0 1-7.368 13.142c-4.37 2.798-10.045 3.311-14.936 1.595-4.89-1.717-8.982-5.627-11.22-10.322z" id="Shape" fill="#DB4200" opacity=".4" style="mix-blend-mode:multiply"/><path d="M38.705 5.37c-.182.125-.288.245-.47.37a30.27 30.27 0 0 0-3.609-2.775c2.407 5.946-3.72 10.69-1.601 16.306 0-.205.031-.406.04-.61.858-1.225 2.725-3.564 2.725-3.564l1.185-5.385 1.588-1.928s.978-.557 1.411-.753a6.533 6.533 0 0 0-1.27-1.661zM27.49 9.635c1.906-1.305 3.573-3.092 4.341-5.363l-1.55-1.34c-.169 0-.303.035-.473.044A26.358 26.358 0 0 0 26.28.371c1.376 2.873 1.988 6.069 1.211 9.264z" id="Shape" fill="#E6250C"/><path d="M34.583 2.812l-.238-.162c-.768.42-1.494.913-2.166 1.474l-.121-.104c-.791 2.28-2.517 4.084-4.494 5.409.805-3.223.166-6.45-1.263-9.348L26.176 0c-.324.36-.616.748-.94 1.113-.3.086-.53.185-.83.27-1.03 1.407-2.068 2.858-3.097 4.264a19.792 19.792 0 0 0-3.173.784c.077.338.104.672.176 1.01.773.185 1.51.406 2.282.59-.274.167-.624.307-.898.451a28.075 28.075 0 0 1 3.028 3.443c-.359 1.952-.696 3.921-.862 5.9a8.58 8.58 0 0 0 3.559 3.038c.251-.05.498-.059.746-.108a19.23 19.23 0 0 0 1.258-5.512c.31 2.275.42 4.573.328 6.868a8.075 8.075 0 0 0 2.103.865l1.043-.685c.56-.166 1.11-.369 1.644-.608.22-.775.358-1.571.414-2.375-2.153-5.656 4.071-10.479 1.626-16.496z" id="Shape" fill="#FE560F"/><path d="M45.896 14.824c1.61 0 2.864 0 4.072-.618a8.523 8.523 0 0 0-.362-2.295l-.181-.052c-1.303 1.278-1.756 2.539-3.529 2.965zm9.691 9.398a10.5 10.5 0 0 0 .306-2.728c-.496.405-1.261.855-1.669 1.655.464 1.364 0 2.274-.927 3.183-.338-.332-.927.06-1.21-.054-.088.386-.18.782-.269 1.15a5.153 5.153 0 0 0 1.669.75c.209.291.232.455.436.728a6.111 6.111 0 0 0 2.707-1.633 8.33 8.33 0 0 0-1.043-3.05zM42.524 30.95c-.475.578-.982 1.246-.982 1.246-.316.77-.592 1.555-.828 2.355.365.993.919 1.9 1.63 2.668 1.103.2 2.226.258 3.342.172a8.897 8.897 0 0 0 1.762-1.84c.063-.794.076-1.591.04-2.387.572-.354 1.198-.822 1.805-1.113a11.34 11.34 0 0 0 .304-2.673 16.227 16.227 0 0 0-1.171-1.954c-1.247 2.05-3.136 4.49-5.902 3.527z" id="Shape" fill="#E6250C"/><path d="M54.352 20.395c-1.847.349-3.932-.613-5.815-.921 2.071-.827 4.522-.894 5.94-2.683v-.098a16.104 16.104 0 0 0-4.589-2.312v-.027c-1.199.63-2.438.635-4.025.635 1.753-.447 2.236-1.735 3.497-3.05a17.07 17.07 0 0 0-3.578-.599 13.918 13.918 0 0 0-3.292-2.816c-.196 1.933-.6 3.84-1.203 5.687l.814.617c.09 1.154.523 3.35.523 3.35s1.306 1.819 2.022 2.731a22.35 22.35 0 0 1-.984 3.81 4.72 4.72 0 0 1-1.159-.613 12.77 12.77 0 0 1-1.789 1.4c.184.568.448 1.681.448 1.681s1.248 2.08 1.789 3.18c-.139.147-.313.343-.488.55 2.81.947 4.728-1.454 6.007-3.475a4.19 4.19 0 0 0-.447-.532c.895-.635 1.686-1.252 2.603-1.829.416.17.93.344 1.342.514-.04.17-.08.349-.12.528.281.112.84-.273 1.167.053.894-.894 1.342-1.788.894-3.13.394-.786 1.132-1.225 1.61-1.627v-.04a8.44 8.44 0 0 0-1.167-.984z" id="Shape" fill="#FE560F"/><path d="M54.775 16.676c-1.413 1.802-3.855 1.856-5.918 2.703 1.858.315 3.935 1.279 5.793.927l-.258-.184c.284-1.125.413-2.285.383-3.446zm-50.243-.104c.088.484.098.98.03 1.466l-.12.12c1.541-.107 2.662-1.165 4.071-2.223a6.782 6.782 0 0 1-3.981.637zm3.611 3.81c-1.965.66-3.93.61-5.895.36l-.027.028c.032 1.277.146 2.444.288 3.689 2.574-.466 4.315-1.42 5.634-4.077zM6.824 37.296c-1.49-3.416-1.037-6.827.22-10.243a5.88 5.88 0 0 1-6.538.478c-.044.08-.092.152-.136.233.54 2.338 2.07 6.742 2.07 6.742l.175 6.34 2.368 3.39S6.209 48 7.035 49.775c.584.198 1.2.282 1.814.245.189-1.234.404-3.604.404-3.604L6.38 40.833c.088-1.186.236-2.366.444-3.537z" id="Shape" fill="#E6250C"/><path d="M7.064 38.356c-.032.82-.032 1.427-.032 1.427s1.638 2.605 2.854 3.576a13.024 13.024 0 0 0 3.439-2.442 111.35 111.35 0 0 1-.803-3.488c-1.602 1.294-3.67 1.897-5.458.927z" id="Shape" fill="#E6250C"/><path d="M13.373 33.32c.635-.317 1.385-.576 2.02-.893a7.185 7.185 0 0 0 .523-2.055c-.533-.286-1.007-.576-1.535-.862.057-.384.217-.76.27-1.148a17.936 17.936 0 0 1-4.436-3.573c.24.027.612.143.856.17a46.417 46.417 0 0 0-.257-5.453 1.19 1.19 0 0 0-.715.035c1.1-1.862 2.458-3.573 3.736-5.314a11.049 11.049 0 0 0-.95-4.221c-1.777.434-3.52.997-5.217 1.684.386.7.887 1.29 1.961 1.29a3.87 3.87 0 0 1-2.63.532l-.05.156a13.726 13.726 0 0 0-2.324 2.622v.045a6.973 6.973 0 0 0 4.117-.675c-1.455 1.099-2.613 2.198-4.206 2.31-.799.817-1.593 1.696-2.391 2.505 1.903.241 3.806.29 5.71-.349-1.283 2.582-2.969 3.506-5.457 3.993l.026.224A22.173 22.173 0 0 0 .37 27.335a5.992 5.992 0 0 0 6.602-.478c-1.27 3.412-1.726 6.82-.222 10.232.136-.844.368-1.67.692-2.46a17.768 17.768 0 0 0-.395 3.43c1.775.982 3.855.361 5.452-.934l-.048-.223c.241-1.21.55-2.406.922-3.582z" id="Shape" fill="#FE560F"/><path d="M9.623 13.139c-1.066 0-1.55-.59-1.93-1.28l-.093.035-.568 1.772a3.79 3.79 0 0 0 2.591-.527z" id="Shape" fill="#E6250C"/><path d="M30.72 61.196c.37.348-.118.964.09 1.433a12.774 12.774 0 0 0 1.852-1.009l.28.103c-.39-.813-1.457-.527-2.221-.527z" id="Shape" fill="#FE560F"/><path d="M55.887 39.405L57 34.324s-.404-1.761-1.019-2.453c-.448.125-.857.3-1.32.426a30.744 30.744 0 0 1-2.018 8.155c-.58.077-1.086.108-1.665.184l-3.945 3.177c-.62-.13-1.306-.391-1.925-.521-.691.656-1.346 1.262-2.033 1.918-.39 1.348-.925 2.939-1.315 4.277-.13-.413-.094-.808-.224-1.217-2.504.148-4.937.229-7.459.377l-1.719 2.543c.45 1.124.745 2.072 1.194 3.195-.439.393-.82.847-1.13 1.348.78.602 1.471 1.222 2.243 1.824a17.818 17.818 0 0 1-5.784-1.68 54.043 54.043 0 0 0-5.408 2.179s-1.14.027-1.795.022c-.094.243-.13.45-.224.71-1.01-.099-2.078-.22-3.088-.32-.278-.3-.449-.817-.848-.938-.803-.252-1.544-.553-2.343-.804a27.559 27.559 0 0 0 2.626 2.983s4.685.638 6.906.553c1.943.79 4.066 1.54 6.009 2.331l.076-.035c-.202-.45.265-1.092-.085-1.443.723 0 1.728-.287 2.1.53.853.342 1.88.625 2.693.984h.036c-.054-1.397.82-2.322 2.351-1.94.1.104.194.215.278.332 1.7.407 3.437.637 5.184.687l.053-.121c-1.557-2.552.714-5.935 3.505-5.872a25.704 25.704 0 0 0 3.397-1.254l.045-.108c-.408-.566-.583-1.303-1.247-1.303 1.005-2.695 2.508-5.863 5.075-7.867l.023-.058 1.44-1.748c-.785-.23-1.602-.31-1.602-.656-.372-1.47.71-2.314 1.85-3.316z" id="Shape" fill="#E6250C"/><path d="M35.535 62.63a11.36 11.36 0 0 0 2.266-1.538l.322.07a2.884 2.884 0 0 0-.274-.305c-1.506-.353-2.367.494-2.314 1.772zm7.911-.742c.821-1.9 1.669-3.706 2.49-5.61l1.07-.318c-2.817-.064-5.137 3.356-3.56 5.928zm5.781-8.728c.678 0 .857.745 1.274 1.316 1.31-3.036 3.665-8.624 3.908-9.264-2.616 2.01-4.155 5.238-5.182 7.948zm6.585-13.135l.078-.372c-1.088 1.013-2.128 1.906-1.784 3.398 0 .362.782.465 1.534.678l.03-.041.142-3.663z" id="Shape" fill="#FE560F"/><path d="M15.942 30.74a7.267 7.267 0 0 1-.521 2.06c-.638.319-1.392.58-2.03.899a33.71 33.71 0 0 0-.936 3.597s.526 2.456.856 3.764a13.09 13.09 0 0 1-3.456 2.478c-1.217-.985-2.867-3.629-2.867-3.629s0-3.27.446-4.902c-.892 1.898-1.142 6.04-1.142 6.04l2.917 5.616s-.219 2.384-.41 3.625a4.894 4.894 0 0 1-1.784-.23 6.967 6.967 0 0 0 3.268 2.195c.023-2.055.323-4.098.892-6.07-.098-.325-.142-.594-.245-.9a11.007 11.007 0 0 0 4.107-2.402 24.95 24.95 0 0 0 .566-5.283 8.488 8.488 0 0 1-1.516-1.255c.112-.4.259-.832.37-1.232a15.62 15.62 0 0 0 4.014-1.444c.374-1.296.633-2.623.776-3.966l-.388-.054c-.92.493-1.9.86-2.917 1.093z" id="Shape" fill="#800060"/><path d="M16.831 29.142c-.176-.513-.334-1.056-.515-1.573a6.373 6.373 0 0 1-3.519-2.035c.109-.099.271-.166.38-.265-.045-1.797 0-3.594-.045-5.39l-.615-.127a27.112 27.112 0 0 0 3.478-4.268 23.12 23.12 0 0 0-1-4.941l-1.768-.167c.588 1.323.909 2.747.945 4.192-1.303 1.761-2.687 3.473-3.808 5.346a1.23 1.23 0 0 1 .728-.036 46.1 46.1 0 0 1 .262 5.485c-.244-.027-.624-.143-.873-.17a18.243 18.243 0 0 0 4.523 3.594c-.059.386-.221.763-.276 1.154.543.243.995.53 1.543.818a11.96 11.96 0 0 0 2.976-1.1c-.814-.128-1.62-.3-2.416-.517zm23.453-22.05c-.45.216-1.376.731-1.376.731l-1.615 1.938-1.206 5.414s-1.898 2.36-2.77 3.588a12.526 12.526 0 0 1-.45 2.979 13.2 13.2 0 0 1-1.647.605l-1.043.682a8.11 8.11 0 0 1-2.105-.861 38.94 38.94 0 0 0-.333-6.836 19.044 19.044 0 0 1-1.242 5.495c-.252.049-.499.058-.746.107a8.576 8.576 0 0 1-3.563-3.023c.166-1.969.508-3.93.864-5.871a27.992 27.992 0 0 0-3.032-3.436c.274-.166.625-.305.9-.449-.774-.184-1.512-.403-2.286-.587-.067-.296-.099-.592-.157-.897a6.716 6.716 0 0 0-.71 2.027c.27.052.53.157.76.31.026.157-.059.318-.032.475 1.129.825 2.213 1.65 3.266 2.57-.45 2.158-.878 4.333-1.305 6.49a8.246 8.246 0 0 0 4.948 3.374c.173.705.29 1.424.347 2.148a11.443 11.443 0 0 0 4.525 1.135c.45-.69.818-1.368 1.246-2.059l1.565-.197c.504-1.122.45-1.987.558-3.212a34.935 34.935 0 0 0 3.333-3.588c.212-1.848.306-3.732.666-5.558a28.992 28.992 0 0 1 2.699-1.964c.007-.51-.013-1.021-.059-1.53zm2.651 1.454v-.022zm13.351 17.899c0-.044 0-.089-.026-.133.01.044.018.077.026.133zM41.55 32.358s.974-1.23 1.511-1.808c-.56-1.112-1.82-3.214-1.82-3.214s-.25-1.125-.455-1.7a12.98 12.98 0 0 0 1.82-1.414c.362.26.759.468 1.179.62a22.393 22.393 0 0 0 1-3.852c-.727-.904-2.056-2.762-2.056-2.762s-.455-2.22-.533-3.385l-.828-.624a27.3 27.3 0 0 0 1.215-5.695l-1.21.262a19.67 19.67 0 0 1-1.525 5.795l.51.452c.382 1.254.671 2.536.865 3.833.85.858 1.638 1.713 2.489 2.572a13.456 13.456 0 0 1-.674 1.808 12.154 12.154 0 0 0-1.966-.475c-.705.872-1.465 1.75-2.12 2.658.173.999.723 2.87.723 2.87s1.475 1.428 2.167 2.229c-.91.57-1.934 1.111-2.835 1.726a13.3 13.3 0 0 0-.105 2.952c.628-.312 1.292-.61 1.934-.976a32.63 32.63 0 0 1 .714-1.872z" id="Shape" fill="#B80054"/><path d="M47.709 35.649v-.146a8.75 8.75 0 0 1-1.763 1.784 13.565 13.565 0 0 1-3.345-.167 7.676 7.676 0 0 1-1.63-2.585c.034-.133.079-.291.136-.44-.622.356-1.265.647-1.873.95 0 .11 0 .216.022.33.163 1.63 1.877 2.608 2.873 3.907a6.331 6.331 0 0 0 1.693-.656c1.171.114 2.35.13 3.525.049.346-.97.47-2.003.362-3.026zm8.551-8.37c0 .72-.129 1.432-.379 2.106-.93.426-1.898.762-2.89 1.003-.135-.378-.228-.76-.366-1.138a21.32 21.32 0 0 1-2.027-1.134c.022-.347.098-.666.12-1.013a2.286 2.286 0 0 0-.726-.45c-.434.366-.844.762-1.225 1.184a5.11 5.11 0 0 0-.65-.797c.89-.639 1.68-1.26 2.592-1.84.415.171.927.346 1.337.517-.13.54-.254 1.13-.383 1.67a4.877 4.877 0 0 0 1.603.742c.2.288.223.45.419.72a5.812 5.812 0 0 0 2.575-1.57z" id="Shape" fill="#800060"/><path d="M49.597 28.906c.067.09.12.19.16.296 0 0-.06-.118-.16-.296z" id="Shape" fill="#B80054"/><path d="M50.01 29.276c.423 1.266.323 1.81.304 3.13-.89.383-1.748.823-2.567 1.318v-.864c.618-.337 1.293-.781 1.949-1.058a9.539 9.539 0 0 0 .314-2.526zM15.278 56.854c.799.252 1.535.555 2.33.807.388.122.562.645.843.942 1.004.1 2.066.221 3.07.32.094-.243.13-.45.223-.712.652 0 1.785-.022 1.785-.022a53.453 53.453 0 0 1 5.408-2.192 17.595 17.595 0 0 0 5.761 1.687c-.776-.605-1.463-1.227-2.231-1.831a6.27 6.27 0 0 1 1.124-1.353c-.446-1.127-.74-2.078-1.186-3.205l1.69-2.543c2.49-.15 4.91-.23 7.417-.38.13.416.094.808.223 1.223.388-1.353.92-2.949 1.308-4.293.687-.658 1.338-1.267 2.021-1.925.616.13 1.299.392 1.914.523l3.923-3.188c.575-.076 1.08-.108 1.655-.185a31.085 31.085 0 0 0 2.022-8.183c.446-.126.852-.302 1.312-.428v-.046a6.75 6.75 0 0 0-2.307-.37 58.17 58.17 0 0 1-2.678 6.764c-.562.1-1.548.406-1.548.406s-2.187 2.254-3.307 3.381c-.892.023-1.731.032-2.615.055a23.455 23.455 0 0 0-2.08 1.803s-.7 2.025-1.079 2.994c-1.406.09-4.132.234-4.132.234s-1.847-.419-2.82-.527a27.235 27.235 0 0 0-3.682 5.334c.103.59.268 1.2.37 1.803-1.226-.166-2.378-.347-3.605-.514-.232.573-.375 1.19-.607 1.763a20.716 20.716 0 0 0-2.677-.378 6.848 6.848 0 0 0-1.785 2.3 8.834 8.834 0 0 1-2.07.139c-.054-.104-.027-.203-.08-.307a42.277 42.277 0 0 0-4.383-1.528 6.18 6.18 0 0 0 .473 1.632z" id="Shape" fill="#800060"/><path d="M24.688 8.335c-.206.357-.498.732-.897.763a1.347 1.347 0 0 1-.896-.38 21.713 21.713 0 0 1-2.111-1.937 12.29 12.29 0 0 0 4.71-4.557 8.482 8.482 0 0 1-.806 6.11zm8.964-4.067l-1.51 1.174a10.54 10.54 0 0 1-5.805 6.08c.86.893 1.685 1.893 2.546 2.803a16.97 16.97 0 0 0 4.782-10.057h-.013zm14.283 7.656a5.98 5.98 0 0 0-2.24-.21 6.898 6.898 0 0 0-2.138-1.853 5.337 5.337 0 0 0 .049 3.978 8.532 8.532 0 0 0 4.347-1.92l-.018.005zm5.984 4.584a10.648 10.648 0 0 0-3.608-1.59 7.853 7.853 0 0 1-3.98.697c.896 1.09 1.918 1.964 3.307 2.138a6.513 6.513 0 0 0 4.28-1.245zM46.59 19.32a4.423 4.423 0 0 0-.897 2.2 6.058 6.058 0 0 0 5.222 2.68c.83-.044 1.66.063 2.451.316a2.738 2.738 0 0 0-.6-2.111c.704-.313 1.377-.69 2.012-1.125a48.117 48.117 0 0 1-8.188-1.964v.004zm-34.55-8.753c-1.3.243-2.546.72-3.675 1.406a4.622 4.622 0 0 0 1.739.446c.833.036 1.766-1.022 1.936-1.852zm-2.582 2.95a3.314 3.314 0 0 1-2.24.514 7.421 7.421 0 0 0-1.542 1.678c1.416-.094 2.855-1.098 3.782-2.192zm-.56 2.795c-1.255 1.026-4.222 2.379-4.222 2.379l-1.16 1.24c2.16-.133 4.293-1.731 5.382-3.62zm-2.487 9.936c1.43-1.339 1.82-3.446 2.124-5.392a8.759 8.759 0 0 1-5.584 3.767l-1.47 2.37a4.464 4.464 0 0 0 4.93-.745z" id="Shape" fill="#FF8933"/><path d="M26.663 59.164c-.185-1.422 1.566-1.93 2.62-1.711.453.055.886.218 1.26.477a22.609 22.609 0 0 0-.585 3.217c-.869-.312-3.156-.905-3.295-1.983zm8.175 1.943c.16-.966.463-1.903.9-2.78-.022.044-1.584 0-1.8.088a1.511 1.511 0 0 0-.923.847c-.437 1.15.963 1.59 1.823 1.845zm6.2-1.114c.134-3.063 2.021-5.782 4.861-7.006a13.188 13.188 0 0 0-4.123-1.836 6.994 6.994 0 0 0-4.448.361 4.974 4.974 0 0 0-2.251 2.041c-.617 1.101-.275 1.6.45 2.5a12.939 12.939 0 0 0 5.515 3.94h-.005zM52.183 44.84c-.198.21-1.634.25-1.986.357a9.46 9.46 0 0 0-1.953.833 8.738 8.738 0 0 0-3.062 2.759c-.864 1.336-.274 2.259 1.153 2.762.338.155.7.253 1.071.29.523 0 .45-.223.676-.717.291-.698.622-1.38.99-2.041a20.862 20.862 0 0 1 3.115-4.225l-.004-.018z" id="Shape" fill="#CC0B1B"/><path d="M56.62 27.229a8.364 8.364 0 0 0-.96-3.018c.226-.89.339-1.806.337-2.725v-.045l-.036-.036a9.296 9.296 0 0 0-1.348-1.154c.302-1.13.453-2.296.45-3.466v-.095l-.077-.063a15.108 15.108 0 0 0-4.513-2.326 9.877 9.877 0 0 0-.36-2.29l-.03-.125-.122-.036a17.067 17.067 0 0 0-3.727-.656A14.249 14.249 0 0 0 43.09 8.5l-.032-.063v-.076l-.143.031-.292-.18-.027.252-.898.198-1.271-.593c0-.226-.01-.453-.032-.678l.14-.063-.126-.215-.059-.1v-.089h-.031a6.435 6.435 0 0 0-1.226-1.558l-.13-.117-.144.099c-.13.09-.238.184-.341.27a33.075 33.075 0 0 0-3.786-2.861l-.112-.072-.117.063c-.728.394-1.416.855-2.057 1.379l-1.585-1.348-.072-.062h-.09l-.404.04A28.266 28.266 0 0 0 26.519.099L26.357 0l-.121.14-.899 1.063-.763.247-.076.027-.04.059-3.055 4.162c-1.067.18-2.118.446-3.143.795l-.184.063.036.202v.036a6.977 6.977 0 0 0-.656 1.845 27.17 27.17 0 0 0-2.847 1.635l-1.347-.13-.045-.104-.184.045-.113.027h-.166v.054c-1.754.44-3.477.998-5.155 1.67l-.1.04-.03.104-.616 1.9a14.289 14.289 0 0 0-2.34 2.626l-.054.072v.09c.084.473.1.955.045 1.432L1.99 20.718l-.067.072v.094c.032 1.262.157 2.515.301 3.754-.39.49-.772.992-1.132 1.513a23.886 23.886 0 0 0-1.05 1.688L0 27.916V28c.283 1.163.633 2.295.992 3.426.36 1.132.732 2.245 1.119 3.336l.09 3.144c.026 1.06.053 2.124.103 3.183v.068l.036.049 2.456 3.354c.327.928.666 1.852 1.02 2.77.359.926.723 1.85 1.154 2.749v.027h.062a7.055 7.055 0 0 0 3.333 2.146 6.992 6.992 0 0 1-3.225-2.205v-.031h-.085a39.76 39.76 0 0 1-1.06-2.744 98.522 98.522 0 0 1-.943-2.815l-2.33-3.386c0-1.041-.045-2.083-.077-3.143l-.09-3.184v-.067a140.737 140.737 0 0 1-1.127-3.359 51.247 51.247 0 0 1-.96-3.304c.309-.54.628-1.07.983-1.576.354-.508.759-1.051 1.167-1.559l.059-.071v-.095c-.14-1.239-.27-2.478-.306-3.713l2.502-2.604.049-.05v-.067a4.903 4.903 0 0 0-.027-1.54 13.368 13.368 0 0 1 2.245-2.524l.054-.04v-.063l.602-1.855a38.702 38.702 0 0 1 5.241-1.679l-.04.054 1.567.148h.08l.068-.045a26.74 26.74 0 0 1 2.964-1.697l.103-.05v-.112a6.56 6.56 0 0 1 .67-1.9l.035-.067c.964-.314 1.95-.553 2.95-.713h.09l.055-.077 3.049-4.19.754-.246h.068l.036-.045.817-.965a27.44 27.44 0 0 1 3.593 2.577l.072.063h.09l.4-.036 1.652 1.4.139.122.144-.117c.627-.52 1.3-.98 2.012-1.378a31.57 31.57 0 0 1 3.884 2.739l.13.121.149-.103c.125-.09.233-.175.332-.26.382.383.712.815.983 1.284l-.062.049a.22.22 0 0 0-.059.175.225.225 0 0 0 .135.189h.067v.799l.135.063 1.455.682.076.036h.072l.898-.193.095.117.229-.094a13.993 13.993 0 0 1 3.013 2.626l.063.072h.103c1.216.075 2.421.282 3.593.615a8.63 8.63 0 0 1 .323 2.21v.161l.153.054c.807.283 1.598.609 2.371.975.742.343 1.45.758 2.11 1.239a12.571 12.571 0 0 1-.34 3.381l-.027.103.085.059a9.43 9.43 0 0 1 1.406 1.104c.028.897-.058 1.793-.256 2.667v.059a8.306 8.306 0 0 1 1.05 2.963l-.026.027a5.985 5.985 0 0 1-.256 1.796 6.026 6.026 0 0 0 .31-1.796l.03-.031-.008.036zM12.975 10.404l.346-.153-.17.238-.176-.085z" id="Shape" fill="#FED893"/><path d="M57 34.404v-.027a9.333 9.333 0 0 0-.728-1.939 27.515 27.515 0 0 0-.361-3.532 27.43 27.43 0 0 1 .196 3.555c.277.61.485 1.25.62 1.908-.446 1.8-.892 3.6-1.267 5.4v.04l-.143 3.473-1.42 1.733v.058l-3.843 9.27a31.394 31.394 0 0 1-4.321 1.525l-.099.031-.044.1-2.429 5.543a26.206 26.206 0 0 1-2.589-.22 23.98 23.98 0 0 1-1.34-.225c-.445-.086-.892-.198-1.338-.297l-.116-.027-.085.067c-.375.31-.732.63-1.107.923-.34.271-.707.508-1.094.706-.446-.193-.92-.355-1.38-.513-.46-.157-.981-.342-1.45-.535l-.12-.05-.099.072c-.54.379-1.11.711-1.705.995l-5.933-2.264h-.094c-1.14.011-2.28-.043-3.415-.162a82.35 82.35 0 0 1-3.339-.378l-1.312-1.377a15.078 15.078 0 0 1-1.264-1.485 4.918 4.918 0 0 1-.366-1.129v-.063l-.049-.027a26.916 26.916 0 0 1-4.602-3.55 27.076 27.076 0 0 0 4.401 3.748c.06.408.171.808.33 1.188.375.559.785 1.093 1.228 1.597.447.509.893.986 1.366 1.458l.054.054h.071c1.143.153 2.286.284 3.438.387.575.054 1.147.1 1.727.13.58.032 1.125.055 1.692.032l5.937 2.331.094.036.085-.04a12.5 12.5 0 0 0 1.75-1.008c.446.184.915.35 1.375.504.46.153.986.333 1.45.54l.094.04.09-.045a6.84 6.84 0 0 0 1.258-.805c.358-.28.692-.576 1.032-.86.415.095.83.198 1.254.28.424.08.92.166 1.38.229.923.126 1.853.204 2.785.234h.152l.062-.14 2.451-5.589a30.64 30.64 0 0 0 4.362-1.552l.08-.036.031-.076 3.875-9.324 1.446-1.764.05-.058v-.077l.142-3.527c.415-1.8.728-3.636 1.09-5.454l.004-.032z" id="Shape" fill="#EA87B4"/></g><g id="close" transform="translate(15 18)" fill="#040437"><path d="M17.945 14.567l10.339-10.29a2.417 2.417 0 0 0 0-3.431 2.445 2.445 0 0 0-3.446 0l-10.34 10.29L4.16.847a2.445 2.445 0 0 0-3.446 0 2.418 2.418 0 0 0 0 3.43l10.339 10.29-10.34 10.29a2.418 2.418 0 0 0 0 3.431 2.445 2.445 0 0 0 3.447 0l10.339-10.29 10.339 10.29a2.445 2.445 0 0 0 3.446 0 2.417 2.417 0 0 0 0-3.43l-10.339-10.29z" id="Shape"/></g></g></g></g></g></svg>