<svg xmlns="http://www.w3.org/2000/svg" xmlns:xlink="http://www.w3.org/1999/xlink" width="40" height="40" viewBox="0 0 40 40"><defs><path id="f9mna" d="M559.26 1066.27h-9.31v-11.3h9.31zm-10.64 0h-9.31v-11.3h9.3zm-10.65 0h-9.3v-11.3h9.3zm21.96-12.64H528c-.37 0-.67.3-.67.67v12.64c0 .36.3.66.67.66h31.93c.37 0 .66-.3.66-.66v-12.64c0-.37-.3-.67-.66-.67z"/><path id="f9mnb" d="M525.33 1075.59v-27.94h3.05l.2.2-.57 2.3a.67.67 0 0 0 .92.76l2.72-1.2 2.72 1.2a.67.67 0 0 0 .92-.76l-.57-2.3.2-.2h4.7l-.96 3.83a.67.67 0 0 0 .97.73l4.33-2.47 4.32 2.47c.1.06.22.1.34.1a.67.67 0 0 0 .64-.83l-.96-3.83h4.7l.2.2-.57 2.3a.67.67 0 0 0 .91.76l2.73-1.2 2.72 1.2a.67.67 0 0 0 .92-.76l-.58-2.3.2-.2h3.06v27.94zm4.65-29.94c.26 0 .49-.15.6-.37l1.07-2.13 1.06 2.13c.11.22.34.37.6.37h1.71l-1.52 1.52a.66.66 0 0 0-.17.63l.33 1.33-1.75-.77a.66.66 0 0 0-.54 0l-1.74.77.33-1.33a.66.66 0 0 0-.17-.63l-1.52-1.52zm7.13-.19c.2-.2.25-.48.15-.73l-.01-.02 2.24 1.62h-3.24zm4.86-1.8c.27 0 .52-.17.62-.43l1.37-3.67 1.38 3.66c.1.26.34.44.62.44h3.92l-2.97 2.12a.67.67 0 0 0-.26.7l.95 3.82-3.3-1.9a.67.67 0 0 0-.66 0l-3.31 1.9.95-3.82a.67.67 0 0 0-.26-.7l-2.97-2.12zm8.84 1.8l.86.87h-3.24l2.24-1.62v.02c-.11.25-.05.54.14.73zm4.4-.18l1.06-2.13 1.06 2.13c.11.22.35.37.6.37h1.72l-1.53 1.52a.66.66 0 0 0-.17.63l.33 1.33-1.75-.77a.67.67 0 0 0-.54 0l-1.74.77.33-1.33a.66.66 0 0 0-.18-.63l-1.52-1.52h1.72c.26 0 .49-.15.6-.37zm8.04 1.04h-2.38l.86-.86a.67.67 0 0 0-.47-1.14h-2.92l-1.48-2.96a.7.7 0 0 0-1.19 0l-1.48 2.96h-2.98l1.12-.79a.67.67 0 0 0-.39-1.2h-5.52l-1.84-4.9a.67.67 0 0 0-1.24 0l-1.84 4.9h-5.52a.67.67 0 0 0-.4 1.2l1.13.8-.07-.01h-2.91l-1.48-2.96a.7.7 0 0 0-1.2 0l-1.47 2.96h-2.92a.67.67 0 0 0-.47 1.14l.86.86h-2.38c-.37 0-.67.3-.67.66v29.27c0 .37.3.67.67.67h38.58c.37 0 .67-.3.67-.67v-29.27c0-.37-.3-.66-.67-.66z"/><path id="f9mnc" d="M536.4 1056.44a.66.66 0 0 0-.42-.15h-5.32c-.37 0-.67.3-.67.67v1.33a.67.67 0 0 0 1.33 0v-.67h3.34a12.1 12.1 0 0 0-2 6.65.67.67 0 0 0 1.32 0c0-2.43.83-4.79 2.35-6.69l.17-.2a.67.67 0 0 0-.1-.94z"/><path id="f9mnd" d="M547.03 1056.44a.66.66 0 0 0-.41-.15h-5.32c-.37 0-.67.3-.67.67v1.33a.67.67 0 0 0 1.33 0v-.67h3.34a12.1 12.1 0 0 0-2 6.65.67.67 0 0 0 1.32 0c0-2.43.83-4.79 2.35-6.69l.17-.2a.67.67 0 0 0-.1-.94z"/><path id="f9mne" d="M557.68 1056.44a.66.66 0 0 0-.41-.15h-5.32c-.37 0-.67.3-.67.67v1.33a.67.67 0 0 0 1.33 0v-.67h3.34a12.1 12.1 0 0 0-2 6.65.67.67 0 0 0 1.32 0c0-2.43.83-4.79 2.35-6.69l.17-.2a.67.67 0 0 0-.1-.94z"/><path id="f9mnf" d="M530.65 1072.92a1.33 1.33 0 1 1 0-2.66 1.33 1.33 0 0 1 0 2.66zm0-3.99a2.66 2.66 0 1 0 0 5.32 2.66 2.66 0 0 0 0-5.32z"/><path id="f9mng" d="M537.31 1072.92a1.33 1.33 0 1 1 0-2.66 1.33 1.33 0 0 1 0 2.66zm0-3.99a2.66 2.66 0 1 0 0 5.32 2.66 2.66 0 0 0 0-5.32z"/><path id="f9mnh" d="M543.96 1072.92a1.33 1.33 0 1 1 0-2.66 1.33 1.33 0 0 1 0 2.66zm0-3.99a2.66 2.66 0 1 0 0 5.32 2.66 2.66 0 0 0 0-5.32z"/><path id="f9mni" d="M550.61 1072.92a1.33 1.33 0 1 1 0-2.66 1.33 1.33 0 0 1 0 2.66zm0-3.99a2.66 2.66 0 1 0 0 5.32 2.66 2.66 0 0 0 0-5.32z"/><path id="f9mnj" d="M557.26 1072.92a1.33 1.33 0 1 1 0-2.66 1.33 1.33 0 0 1 0 2.66zm0-3.99a2.66 2.66 0 1 0 0 5.32 2.66 2.66 0 0 0 0-5.32z"/></defs><g><g transform="translate(-524 -1037)"><g><use fill="#e4d73b" xlink:href="#f9mna"/></g><g><use fill="#e4d73b" xlink:href="#f9mnb"/></g><g><use fill="#e4d73b" xlink:href="#f9mnc"/></g><g><use fill="#e4d73b" xlink:href="#f9mnd"/></g><g><use fill="#e4d73b" xlink:href="#f9mne"/></g><g><use fill="#e4d73b" xlink:href="#f9mnf"/></g><g><use fill="#e4d73b" xlink:href="#f9mng"/></g><g><use fill="#e4d73b" xlink:href="#f9mnh"/></g><g><use fill="#e4d73b" xlink:href="#f9mni"/></g><g><use fill="#e4d73b" xlink:href="#f9mnj"/></g></g></g></svg>