<svg width="70" height="70" viewBox="0 0 70 70" xmlns="http://www.w3.org/2000/svg"><g id="Page-1" stroke="none" stroke-width="1" fill="none" fill-rule="evenodd"><g id="aff_des_home" transform="translate(-390 -2937)" fill-rule="nonzero"><g id="footer" transform="translate(-31 2904)"><g id="space-station" transform="rotate(70 212.626 353.815)"><g id="Group"><path id="Rectangle-path" fill="#5C546A" d="M43.125 52.5h4.688v3.75h-4.688z"/><path d="M54.375 50.625v-2.813a.938.938 0 0 0-.938-.937h-3.75v3.75h4.688z" id="Shape" fill="#5C546A"/><path id="Rectangle-path" fill="#5C546A" d="M43.125 46.875h4.688v3.75h-4.688z"/><path d="M36.563 52.5v2.813c0 .517.42.937.937.937h3.75V52.5h-4.688zm13.125 3.75h3.75c.517 0 .937-.42.937-.938V52.5h-4.688v3.75zm-8.438-9.375H37.5a.938.938 0 0 0-.938.938v2.812h4.688v-3.75z" id="Shape" fill="#5C546A"/><path id="Shape" fill="#888693" d="M36.563 52.5h4.687v3.75h1.875V52.5h4.688v3.75h1.874V52.5h4.688v-1.875h-4.688v-3.75h-1.874v3.75h-4.688v-3.75H41.25v3.75h-6.562V52.5z"/><path d="M23.438 50.625v-2.813a.938.938 0 0 0-.938-.937h-3.75v3.75h4.688zM18.75 56.25h3.75c.518 0 .938-.42.938-.938V52.5H18.75v3.75zM5.625 52.5v2.813c0 .517.42.937.938.937h3.75V52.5H5.625z" id="Shape" fill="#5C546A"/><path id="Rectangle-path" fill="#5C546A" d="M12.188 46.875h4.688v3.75h-4.688zm0 5.625h4.688v3.75h-4.688z"/><path d="M10.313 46.875h-3.75a.938.938 0 0 0-.938.938v2.812h4.688v-3.75zm17.812-33.75v2.813h3.75v-2.813H30zM30 36.563h-1.875v1.874h3.75v-1.874z" id="Shape" fill="#5C546A"/><path d="M30 29.063a4.689 4.689 0 0 1-4.594-3.75H22.5v6.562H30v4.687h5.625a.94.94 0 0 0 .91-.71l.937-3.75a.908.908 0 0 0 .028-.227H30v-2.813zm0-9.375v-3.75h-3.362c-.493 0-.977.2-1.326.549L23.05 18.75a1.863 1.863 0 0 0-.549 1.326v3.361h2.906A4.689 4.689 0 0 1 30 19.688z" id="Shape" fill="#B6B8BE"/><path d="M34.403 25.987a4.7 4.7 0 0 1-3.458 2.98 4.707 4.707 0 0 1-.945.096v2.812h7.5v-6.563h-2.906a4.67 4.67 0 0 1-.19.675zM30 19.688a4.706 4.706 0 0 1 1.394.21 4.696 4.696 0 0 1 3.198 3.532l.002.007H37.5v-3.361a1.86 1.86 0 0 0-.55-1.326l-2.263-2.263a1.887 1.887 0 0 0-1.325-.55H30v3.75z" id="Shape" fill="#D5D9DE"/><path d="M4.688 1.875H.938A.938.938 0 0 0 0 2.813v2.812h4.688v-3.75z" id="Shape" fill="#5C546A"/><path id="Rectangle-path" fill="#5C546A" d="M13.125 1.875h4.688v3.75h-4.688zm-6.562 0h4.688v3.75H6.563z"/><path d="M24.375 5.625V2.812a.938.938 0 0 0-.938-.937h-3.75v3.75h4.688zm-4.687 5.625h3.75c.517 0 .937-.42.937-.938V7.5h-4.688v3.75z" id="Shape" fill="#5C546A"/><path id="Rectangle-path" fill="#5C546A" d="M13.125 7.5h4.688v3.75h-4.688z"/><path d="M0 7.5v2.813c0 .517.42.937.938.937h3.75V7.5H0z" id="Shape" fill="#5C546A"/><path id="Rectangle-path" fill="#5C546A" d="M6.563 7.5h4.688v3.75H6.563z"/><path id="Shape" fill="#888693" d="M24.375 5.625h-4.688v-3.75h-1.875v3.75h-4.687v-3.75H11.25v3.75H6.562v-3.75H4.688v3.75H0V7.5h4.688v3.75h1.875V7.5h4.687v3.75h1.875V7.5h4.688v3.75h1.875V7.5h6.562V5.625z"/><path d="M40.313 1.875h-3.75a.938.938 0 0 0-.938.938v2.812h4.688v-3.75z" id="Shape" fill="#5C546A"/><path id="Rectangle-path" fill="#5C546A" d="M42.188 7.5h4.688v3.75h-4.688zm6.562-5.625h4.688v3.75H48.75zm-6.562 0h4.688v3.75h-4.688zM48.75 7.5h4.688v3.75H48.75z"/><path d="M59.063 1.875h-3.75v3.75H60V2.812a.938.938 0 0 0-.938-.937zm-3.75 9.375h3.75c.517 0 .937-.42.937-.938V7.5h-4.688v3.75zM35.625 7.5v2.813c0 .517.42.937.938.937h3.75V7.5h-4.688z" id="Shape" fill="#5C546A"/><path id="Shape" fill="#888693" d="M55.313 1.875h-1.876v3.75H48.75v-3.75h-1.875v3.75h-4.688v-3.75h-1.874v3.75H33.75V7.5h6.563v3.75h1.874V7.5h4.688v3.75h1.875V7.5h4.688v3.75h1.874V7.5H60V5.625h-4.688z"/><path d="M30 3.75v9.375h2.813c.517 0 .937-.42.937-.938V3.75H30zM31.875 0H30v1.875h3.75C33.75.84 32.91 0 31.875 0z" id="Shape" fill="#D5D9DE"/><path d="M30 38.438h-1.875a.937.937 0 0 0-.869.585L25.6 43.125H30v-4.688zm0 8.437V45h-4.688v5.625H18.75v-3.75h-1.875v3.75h-4.688v-3.75h-1.874v3.75H5.625V52.5h4.688v3.75h1.874V52.5h4.688v3.75h1.875V52.5h6.563v5.625c0 1.034.84 1.875 1.875 1.875h1.875V47.812c0-.517.42-.937.937-.937z" id="Shape" fill="#888693"/><path d="M30 0h-1.875C27.09 0 26.25.84 26.25 1.875H30V0zm0 3.75h-3.75v8.438c0 .517.42.937.938.937H30V3.75z" id="Shape" fill="#B6B8BE"/><path id="Rectangle-path" fill="#888693" d="M26.25 1.875H30V3.75h-3.75z"/><path id="Rectangle-path" fill="#B6B8BE" d="M30 1.875h3.75V3.75H30z"/><path d="M28.011 22.386a2.812 2.812 0 0 0 3.977 3.977l-3.977-3.977z" id="Shape" fill="#FFCF00"/><path d="M30 31.875h-7.5c0 .076.01.153.028.227l.938 3.75c.104.418.479.71.909.71H30v-4.687z" id="Shape" fill="#888693"/><path d="M30 46.875c.518 0 .938.42.938.938V60h1.875c1.033 0 1.874-.84 1.874-1.875V45H30v1.875zm0-3.75h4.401l.142.351a1.064 1.064 0 0 0-.02-.054l-1.78-4.399a.937.937 0 0 0-.868-.586H30v4.688z" id="Shape" fill="#B6B8BE"/><path d="M30 43.125h-4.401l-.142.351a2.797 2.797 0 0 0-.144.891V45H30v-1.875z" id="Shape" fill="#5C546A"/><path d="M30 43.125V45h4.688v-.633c0-.304-.049-.604-.145-.89l-.142-.352H30z" id="Shape" fill="#888693"/><path d="M30 46.875a.938.938 0 0 0-.938.938V60h1.876V47.812a.938.938 0 0 0-.938-.937z" id="Shape" fill="#D5D9DE"/><path d="M28.364 22.088a2.84 2.84 0 0 0-.124.094l-.045.037a3.222 3.222 0 0 0-.184.167l3.978 3.978a2.804 2.804 0 0 0 .82-2.134 2.813 2.813 0 0 0-4.445-2.142z" id="Shape" fill="#FFEDB9"/><path d="M34.592 23.43A4.695 4.695 0 0 0 30 19.687v1.876c.049 0 .097 0 .145.003A2.813 2.813 0 0 1 30 27.188v1.875a4.706 4.706 0 0 0 1.394-.211 4.7 4.7 0 0 0 3.2-3.54H37.5v-1.875h-2.906l-.002-.007z" id="Shape" fill="#B6B8BE"/></g><path d="M28.195 22.218a3.37 3.37 0 0 1 .169-.13A2.798 2.798 0 0 1 30 21.562v-1.875a4.689 4.689 0 0 0-4.594 3.75H22.5v1.875h2.906A4.689 4.689 0 0 0 30 29.062v-1.875a2.812 2.812 0 0 1-1.805-4.969z" id="Shape" fill="#888693"/></g></g></g></g></svg>