<svg width="29" height="28" viewBox="0 0 29 28" xmlns="http://www.w3.org/2000/svg"><g id="Page-1" stroke="none" stroke-width="1" fill="none" fill-rule="evenodd"><g id="aff_des_casino_item" transform="translate(-1390 -524)"><g id="casinos-infoblock" transform="translate(879 277)"><g id="stiker" transform="translate(511 247)"><g id="stiker-mobile"><ellipse id="Oval-2" fill="#7ED321" cx="14.5" cy="14" rx="14.5" ry="14"/><g id="smartphone-call" transform="translate(9.425 5.026)" fill="#264108" fill-rule="nonzero"><path d="M9.61 0H1.265C.57 0 0 .545 0 1.212v15.524c0 .667.57 1.213 1.264 1.213h8.347c.695 0 1.264-.545 1.264-1.213V1.212C10.875.545 10.305 0 9.611 0zM4.103.874h2.67a.15.15 0 0 1 .154.147.15.15 0 0 1-.153.147h-2.67a.15.15 0 0 1-.154-.147.15.15 0 0 1 .153-.147zm1.335 16.469a.62.62 0 0 1-.632-.607.62.62 0 0 1 .633-.606c.349 0 .632.27.632.606a.62.62 0 0 1-.633.607zM9.995 5.838V6.94l-4.502 4.363a.662.662 0 0 1-.462.185.662.662 0 0 1-.462-.185L2.26 9.063a.62.62 0 0 1 0-.895.668.668 0 0 1 .924 0l1.848 1.79L9.19 5.93a.67.67 0 0 1 .806-.09z" id="Combined-Shape"/></g></g></g></g></g></g></svg>