<svg xmlns="http://www.w3.org/2000/svg"><defs><symbol id="icon-star_notactive" viewBox="0 0 33 32"><path d="M16.945 10.274l1.316 2.722a.63.63 0 0 0 .473.351l2.942.437c.515.077.721.723.348 1.094l-2.129 2.119a.65.65 0 0 0-.181.568l.503 2.992c.088.524-.451.923-.912.676l-2.631-1.412a.619.619 0 0 0-.585 0l-2.631 1.412c-.461.247-1-.152-.912-.676l.502-2.992a.651.651 0 0 0-.181-.568l-2.129-2.119c-.373-.371-.167-1.018.348-1.094l2.942-.437a.628.628 0 0 0 .473-.351l1.316-2.722a.622.622 0 0 1 1.126 0z"/></symbol><symbol id="icon-star_active" viewBox="0 0 32 32"><path fill="var(--color1, #e4d73b)" d="M16.789 10.274l1.316 2.722a.63.63 0 0 0 .473.351l2.942.437c.515.077.721.723.348 1.094l-2.129 2.119a.65.65 0 0 0-.181.568l.503 2.992c.088.524-.451.923-.912.676l-2.631-1.412a.619.619 0 0 0-.585 0l-2.631 1.412c-.461.247-1-.152-.912-.676l.502-2.992a.651.651 0 0 0-.181-.568l-2.129-2.119c-.373-.371-.167-1.018.348-1.094l2.942-.437a.628.628 0 0 0 .473-.351l1.316-2.722a.622.622 0 0 1 1.126 0z"/></symbol></defs></svg>