<svg width="50" height="50" viewBox="0 0 50 50" xmlns="http://www.w3.org/2000/svg"><defs><filter x="-3.1%" y="-4.1%" width="106.1%" height="108.2%" filterUnits="objectBoundingBox" id="filter-1"><feOffset in="SourceAlpha" result="shadowOffsetOuter1"/><feGaussianBlur stdDeviation="7.5" in="shadowOffsetOuter1" result="shadowBlurOuter1"/><feColorMatrix values="0 0 0 0 0 0 0 0 0 0 0 0 0 0 0 0 0 0 0.5 0" in="shadowBlurOuter1" result="shadowMatrixOuter1"/><feMerge><feMergeNode in="shadowMatrixOuter1"/><feMergeNode in="SourceGraphic"/></feMerge></filter></defs><g id="Page-1" stroke="none" stroke-width="1" fill="none" fill-rule="evenodd"><g id="aff_des_slot_item" transform="translate(-1001 -267)" fill="#E4D73B" fill-rule="nonzero"><g id="casino_info" filter="url(#filter-1)" transform="translate(404 252)"><g id="warning-btn" transform="translate(597 16)"><g id="warning-icon" transform="translate(14 13)"><path d="M21.817 18.934L12.23.774a1.378 1.378 0 0 0-1.218-.738h-.001c-.51 0-.977.283-1.217.737l-9.63 18.16a1.41 1.41 0 0 0 .032 1.377c.25.42.7.68 1.185.68h19.215c.487 0 .936-.258 1.186-.68.25-.42.262-.943.035-1.376zm-10.806-.739a1.39 1.39 0 0 1-1.382-1.397 1.39 1.39 0 0 1 1.382-1.396 1.39 1.39 0 0 1 1.382 1.396 1.39 1.39 0 0 1-1.382 1.397zm1.383-5.565a1.39 1.39 0 0 1-1.382 1.397A1.389 1.389 0 0 1 9.63 12.63V7.042a1.39 1.39 0 0 1 1.382-1.396 1.39 1.39 0 0 1 1.382 1.396v5.588z" id="Shape"/></g></g></g></g></g></svg>