<?xml version="1.0" encoding="UTF-8"?>
<svg width="30px" height="30px" viewBox="0 0 30 30" version="1.1" xmlns="http://www.w3.org/2000/svg" xmlns:xlink="http://www.w3.org/1999/xlink">
    <!-- Generator: Sketch 51.3 (57544) - http://www.bohemiancoding.com/sketch -->
    <title>18plus</title>
    <desc>Created with Sketch.</desc>
    <defs></defs>
    <g id="Page-1" stroke="none" stroke-width="1" fill="none" fill-rule="evenodd">
        <g id="aff_des_home" transform="translate(-1323.000000, -3070.000000)" fill="#949FB6" fill-rule="nonzero">
            <g id="footer" transform="translate(-31.000000, 2904.000000)">
                <g id="18plus" transform="translate(1354.000000, 166.000000)">
                    <path d="M14.9552239,29.6911765 C6.71641791,29.6911765 0,23.0735294 0,14.9558824 C0,6.83823529 6.71641791,0.220588235 14.9552239,0.220588235 C16.5671642,0.220588235 18.1791045,0.485294118 19.7014925,0.970588235 C20.3731343,1.19117647 20.7313433,1.89705882 20.5074627,2.55882353 C20.2835821,3.22058824 19.5671642,3.57352941 18.8955224,3.35294118 C17.641791,2.91176471 16.2985075,2.73529412 14.9552239,2.73529412 C8.10447761,2.69117647 2.50746269,8.20588235 2.50746269,14.9558824 C2.50746269,21.7058824 8.10447761,27.2205882 14.9552239,27.2205882 C21.8059701,27.2205882 27.4029851,21.7058824 27.4029851,14.9558824 C27.4029851,13.8970588 27.2686567,12.8382353 27,11.8235294 C26.8208955,11.1617647 27.2238806,10.5 27.8955224,10.3235294 C28.5671642,10.1470588 29.238806,10.5441176 29.4179104,11.2058824 C29.7313433,12.4411765 29.9104478,13.7205882 29.9104478,15 C29.9104478,23.0735294 23.1940299,29.6911765 14.9552239,29.6911765 Z" id="round"></path>
                    <path d="M12.4477612,21.3529412 L9.98507463,21.3529412 L9.98507463,12.1764706 C9.08955224,13.0147059 8.01492537,13.6323529 6.80597015,14.0294118 L6.80597015,11.8235294 C7.43283582,11.6029412 8.14925373,11.2058824 8.91044776,10.6323529 C9.67164179,10.0588235 10.1641791,9.39705882 10.4776119,8.60294118 L12.4925373,8.60294118 L12.4925373,21.3529412 L12.4477612,21.3529412 Z" id="_x31_" stroke="#949FB6" stroke-width="0.5"></path>
                    <path d="M16.1641791,14.4705882 C15.5373134,14.2058824 15.0447761,13.8529412 14.7761194,13.3676471 C14.5074627,12.8823529 14.3283582,12.3970588 14.3283582,11.8235294 C14.3283582,10.8970588 14.641791,10.1029412 15.3134328,9.48529412 C15.9850746,8.86764706 16.9253731,8.55882353 18.1791045,8.55882353 C19.3880597,8.55882353 20.3731343,8.86764706 21.0447761,9.48529412 C21.7164179,10.1029412 22.0746269,10.8970588 22.0746269,11.8235294 C22.0746269,12.3970588 21.9402985,12.9264706 21.6268657,13.4117647 C21.3134328,13.8529412 20.8656716,14.2058824 20.3283582,14.4705882 C21.0447761,14.7352941 21.5820896,15.1764706 21.9402985,15.7058824 C22.2985075,16.2352941 22.4776119,16.8529412 22.4776119,17.6029412 C22.4776119,18.7941176 22.119403,19.7205882 21.358209,20.4705882 C20.5970149,21.2205882 19.6119403,21.5735294 18.3134328,21.5735294 C17.1492537,21.5735294 16.1641791,21.2647059 15.4029851,20.6470588 C14.4626866,19.9411765 14.0149254,18.9705882 14.0149254,17.6911765 C14.0149254,16.9852941 14.1940299,16.3676471 14.5522388,15.7941176 C14.8656716,15.2647059 15.4029851,14.8235294 16.1641791,14.4705882 Z M16.4328358,17.4705882 C16.4328358,18.1323529 16.6119403,18.6617647 16.9701493,19.0588235 C17.3283582,19.4558824 17.7313433,19.6323529 18.2686567,19.6323529 C18.761194,19.6323529 19.2089552,19.4558824 19.5223881,19.1029412 C19.8358209,18.75 20.0149254,18.2205882 20.0149254,17.5588235 C20.0149254,16.9852941 19.8358209,16.5 19.5223881,16.1470588 C19.1641791,15.7941176 18.761194,15.6176471 18.2238806,15.6176471 C17.641791,15.6176471 17.1492537,15.8382353 16.880597,16.2352941 C16.5671642,16.5441176 16.4328358,16.9852941 16.4328358,17.4705882 Z M16.6567164,12.0441176 C16.6567164,12.5294118 16.7910448,12.9264706 17.0597015,13.1911765 C17.3283582,13.4558824 17.6865672,13.5882353 18.1791045,13.5882353 C18.6268657,13.5882353 19.0298507,13.4558824 19.2985075,13.1911765 C19.5671642,12.9264706 19.7014925,12.5294118 19.7014925,12.0441176 C19.7014925,11.6029412 19.5671642,11.2058824 19.2985075,10.9411765 C19.0298507,10.6764706 18.6716418,10.5441176 18.1791045,10.5441176 C17.6865672,10.5441176 17.3283582,10.6764706 17.0597015,10.9411765 C16.7910448,11.2058824 16.6567164,11.6029412 16.6567164,12.0441176 Z" id="_x38_" stroke="#949FB6" stroke-width="0.5"></path>
                    <path d="M28.7014925,3.75 L27.1343284,3.75 L27.1343284,2.20588235 C27.1343284,1.5 26.5522388,0.970588235 25.880597,0.970588235 C25.1641791,0.970588235 24.6268657,1.54411765 24.6268657,2.20588235 L24.6268657,3.75 L23.0597015,3.75 C22.3432836,3.75 21.8059701,4.32352941 21.8059701,4.98529412 C21.8059701,5.64705882 22.3880597,6.22058824 23.0597015,6.22058824 L24.6268657,6.22058824 L24.6268657,7.76470588 C24.6268657,8.47058824 25.2089552,9 25.880597,9 C26.5970149,9 27.1343284,8.42647059 27.1343284,7.76470588 L27.1343284,6.22058824 L28.7014925,6.22058824 C29.4179104,6.22058824 29.9552239,5.64705882 29.9552239,4.98529412 C29.9552239,4.32352941 29.3731343,3.75 28.7014925,3.75 Z" id="plus"></path>
                </g>
            </g>
        </g>
    </g>
</svg>