<svg xmlns="http://www.w3.org/2000/svg" xmlns:xlink="http://www.w3.org/1999/xlink" width="40" height="40" viewBox="0 0 40 40"><defs><path id="pyega" d="M908.64 1069.37a8.74 8.74 0 0 1 0-17.46 8.74 8.74 0 0 1 0 17.46zm0-18.92a10.2 10.2 0 0 0 0 20.36 10.2 10.2 0 0 0 0-20.36z"/><path id="pyegb" d="M926.83 1062.98c0 .32-.26.57-.57.57h-2.61l-.13.56a15.2 15.2 0 0 1-1.9 4.6l-.31.48 1.85 1.85c.22.22.22.58 0 .8l-3.31 3.32a.57.57 0 0 1-.8 0l-1.86-1.85-.49.3a15.16 15.16 0 0 1-4.59 1.9l-.56.14v2.61c0 .31-.25.57-.57.57h-4.68a.57.57 0 0 1-.57-.57v-2.61l-.56-.13a15.2 15.2 0 0 1-4.6-1.9l-.48-.31-1.85 1.85a.57.57 0 0 1-.8 0l-3.31-3.31a.57.57 0 0 1 0-.8l1.84-1.86-.3-.49a15.16 15.16 0 0 1-1.9-4.59l-.13-.56h-2.62a.57.57 0 0 1-.57-.57v-4.68c0-.31.26-.57.57-.57h2.62l.13-.56a15.18 15.18 0 0 1 1.9-4.6l.3-.48-1.84-1.85a.57.57 0 0 1 0-.8l3.3-3.31a.57.57 0 0 1 .81 0l1.85 1.84.49-.3a15.16 15.16 0 0 1 4.59-1.9l.56-.13v-2.62c0-.31.26-.57.57-.57h4.68c.32 0 .57.26.57.57v2.62l.56.13a15.2 15.2 0 0 1 4.6 1.9l.48.3 1.85-1.84a.57.57 0 0 1 .8 0l3.32 3.3c.22.23.22.59 0 .81l-1.85 1.85.3.49a15.14 15.14 0 0 1 1.9 4.59l.14.56h2.61c.31 0 .57.26.57.57zm-.58-6.7h-1.47c-.37-1.4-.92-2.73-1.64-3.98l1.04-1.03a2.01 2.01 0 0 0 0-2.86l-3.31-3.31a2.07 2.07 0 0 0-2.86 0l-1.04 1.03a16.62 16.62 0 0 0-3.97-1.64v-1.47c0-1.11-.9-2.02-2.02-2.02h-4.69c-1.11 0-2.02.9-2.02 2.02v1.47c-1.39.37-2.72.92-3.97 1.64l-1.03-1.03a2.07 2.07 0 0 0-2.86 0l-3.31 3.3a2.01 2.01 0 0 0 0 2.87l1.03 1.03a16.56 16.56 0 0 0-1.64 3.97h-1.47c-1.11 0-2.02.91-2.02 2.02v4.69c0 1.11.9 2.02 2.02 2.02h1.47c.37 1.39.92 2.72 1.64 3.97l-1.03 1.04a2.01 2.01 0 0 0 0 2.86l3.3 3.3c.77.77 2.1.77 2.87 0l1.03-1.03c1.25.72 2.58 1.27 3.97 1.64v1.47c0 1.12.91 2.02 2.03 2.02h4.68c1.11 0 2.02-.9 2.02-2.02v-1.47c1.39-.37 2.72-.92 3.97-1.64l1.04 1.04c.76.76 2.1.76 2.86 0l3.3-3.31a2.01 2.01 0 0 0 0-2.86l-1.03-1.04a16.64 16.64 0 0 0 1.64-3.97h1.47c1.12 0 2.02-.9 2.02-2.02v-4.69c0-1.11-.9-2.02-2.02-2.02z"/><path id="pyegc" d="M908.45 1065.18a4.37 4.37 0 1 1 .01-8.74 4.37 4.37 0 0 1 0 8.74zm0-9.82a5.46 5.46 0 1 0 .02 10.92 5.46 5.46 0 0 0-.02-10.92z"/></defs><g><g transform="translate(-889 -1041)"><g><use fill="#e4d73b" xlink:href="#pyega"/></g><g><use fill="#e4d73b" xlink:href="#pyegb"/></g><g><use fill="#e4d73b" xlink:href="#pyegc"/></g></g></g></svg>