<?xml version="1.0" encoding="UTF-8"?>
<svg width="70px" height="30px" viewBox="0 0 70 30" version="1.1" xmlns="http://www.w3.org/2000/svg" xmlns:xlink="http://www.w3.org/1999/xlink">
    <!-- Generator: Sketch 51.3 (57544) - http://www.bohemiancoding.com/sketch -->
    <title>dmca-seal</title>
    <desc>Created with Sketch.</desc>
    <defs></defs>
    <g id="Page-1" stroke="none" stroke-width="1" fill="none" fill-rule="evenodd">
        <g id="aff_des_home" transform="translate(-1372.000000, -3066.000000)" fill="#949FB6" fill-rule="nonzero">
            <g id="footer" transform="translate(-31.000000, 2904.000000)">
                <g id="dmca-seal" transform="translate(1403.000000, 162.000000)">
                    <polygon id="XMLID_23_" points="59.36 17.9651163 61.775 17.9651163 60.55 13.9883721"></polygon>
                    <path d="M16.87,13.6395349 L16.03,13.6395349 L16.03,19.6744186 L16.87,19.6744186 C17.57,19.6744186 18.095,19.6046512 18.41,19.4302326 C18.725,19.255814 18.935,19.0116279 19.11,18.5930233 C19.285,18.2093023 19.355,17.5465116 19.355,16.6744186 C19.355,15.4883721 19.18,14.6860465 18.795,14.2674419 C18.41,13.8488372 17.78,13.6395349 16.87,13.6395349 Z" id="XMLID_24_"></path>
                    <path d="M66.5,4.04651163 L7.28,4.04651163 C8.365,4.91860465 9.065,6.24418605 9.1,7.95348837 L6.93,7.95348837 C6.86,5.96511628 5.39,4.39534884 3.605,4.39534884 C1.96,4.39534884 0.56,5.75581395 0.315,7.56976744 L0.315,9.10465116 L10.01,9.10465116 C10.605,9.10465116 11.06,9.55813953 11.06,10.1511628 L11.06,23.0232558 C11.06,23.5813953 10.605,24.0697674 10.01,24.0697674 L0.35,24.0697674 L0.35,26.4069767 C0.35,28.3255814 1.925,29.8953488 3.85,29.8953488 L66.5,29.8953488 C68.425,29.8953488 70,28.3255814 70,26.4069767 L70,7.5 C70,5.61627907 68.425,4.04651163 66.5,4.04651163 Z M22.4,19.3604651 C22.12,20.0232558 21.77,20.5465116 21.28,21 C20.79,21.4534884 20.3,21.7325581 19.74,21.872093 C19.005,22.0813953 18.305,22.1860465 17.71,22.1860465 L12.6,22.1860465 L12.6,11.127907 L17.71,11.127907 C18.725,11.127907 19.53,11.2674419 20.16,11.5465116 C20.79,11.8255814 21.28,12.2093023 21.7,12.7325581 C22.12,13.255814 22.4,13.8139535 22.575,14.5116279 C22.75,15.1744186 22.855,15.9069767 22.855,16.6395349 C22.82,17.7906977 22.68,18.7325581 22.4,19.3604651 Z M36.26,22.1860465 L33.46,22.1860465 L33.46,13.744186 L31.29,22.1860465 L28.735,22.1860465 L26.6,13.744186 L26.6,22.1860465 L23.8,22.1860465 L23.8,11.127907 L28.315,11.127907 L30.065,17.8604651 L31.78,11.127907 L36.295,11.127907 L36.295,22.1860465 L36.26,22.1860465 Z M50.435,24.1395349 C49.105,24.9069767 47.635,25.2906977 46.095,25.2906977 C44.555,25.2906977 43.085,24.9069767 41.755,24.1395349 C40.425,23.372093 39.34,22.3255814 38.57,20.9651163 C37.8,19.6395349 37.415,18.1744186 37.415,16.6395349 C37.415,15.1046512 37.8,13.6395349 38.57,12.3139535 C39.34,10.9534884 40.425,9.90697674 41.755,9.13953488 C43.085,8.37209302 44.555,7.98837209 46.095,7.98837209 C47.635,7.98837209 49.105,8.37209302 50.435,9.13953488 C51.765,9.90697674 52.85,10.9534884 53.62,12.3139535 C54.39,13.6744186 54.775,15.1046512 54.775,16.6395349 C54.775,18.1744186 54.39,19.6395349 53.62,20.9651163 C52.85,22.2906977 51.8,23.372093 50.435,24.1395349 Z M63.07,22.1860465 L62.51,20.372093 L58.625,20.372093 L58.1,22.1860465 L54.6,22.1860465 L58.765,11.127907 L62.51,11.127907 L66.675,22.1860465 L63.07,22.1860465 Z" id="XMLID_30_"></path>
                    <path d="M46.095,9.62790698 C44.17,9.62790698 42.49,10.3255814 41.125,11.6860465 C39.76,13.0465116 39.06,14.6860465 39.06,16.6395349 C39.06,18.5581395 39.76,20.2325581 41.125,21.5930233 C42.49,22.9534884 44.135,23.6511628 46.095,23.6511628 C48.055,23.6511628 49.7,22.9534884 51.065,21.5930233 C52.43,20.2325581 53.13,18.5930233 53.13,16.6395349 C53.13,14.7209302 52.43,13.0465116 51.065,11.6860465 C49.7,10.3255814 48.02,9.62790698 46.095,9.62790698 Z M49.28,20.372093 C48.475,21.1395349 47.425,21.5232558 46.165,21.5232558 C44.765,21.5232558 43.645,21.0697674 42.735,20.1627907 C41.86,19.255814 41.405,18.0697674 41.405,16.6046512 C41.405,15.2093023 41.86,14.0581395 42.77,13.1511628 C43.68,12.244186 44.8,11.7906977 46.165,11.7906977 C47.25,11.7906977 48.195,12.0697674 48.93,12.6627907 C49.665,13.255814 50.155,13.9883721 50.365,14.9302326 L48.125,15.2790698 C47.985,14.6511628 47.74,14.1976744 47.39,13.9186047 C47.04,13.6395349 46.585,13.4651163 46.06,13.4651163 C45.465,13.4651163 44.975,13.7093023 44.555,14.2325581 C44.135,14.7209302 43.96,15.5232558 43.96,16.6046512 C43.96,17.6860465 44.1,18.4534884 44.38,18.9069767 C44.765,19.5697674 45.36,19.9186047 46.095,19.9186047 C46.55,19.9186047 46.97,19.744186 47.355,19.3953488 C47.74,19.0465116 47.985,18.4883721 48.16,17.7209302 L50.505,18.2790698 C50.19,19.1511628 49.77,19.8837209 49.28,20.372093 Z" id="XMLID_27_"></path>
                    <g id="XMLID_1_" transform="translate(3.150000, 0.000000)">
                        <path d="M0.175,0.0348837209 L1.715,0.0348837209 C2.065,0.0348837209 2.31,0.104651163 2.485,0.279069767 C2.66,0.453488372 2.73,0.662790698 2.73,0.976744186 C2.73,1.29069767 2.625,1.5 2.45,1.6744186 C2.275,1.84883721 1.995,1.91860465 1.61,1.91860465 L1.085,1.91860465 L1.085,3.03488372 L0.175,3.03488372 L0.175,0.0348837209 Z M1.12,1.3255814 L1.365,1.3255814 C1.54,1.3255814 1.68,1.29069767 1.75,1.22093023 C1.82,1.15116279 1.855,1.08139535 1.855,0.976744186 C1.855,0.872093023 1.82,0.802325581 1.75,0.73255814 C1.68,0.662790698 1.575,0.627906977 1.4,0.627906977 L1.12,0.627906977 L1.12,1.3255814 Z" id="XMLID_2_"></path>
                        <path d="M3.29,3.03488372 L3.29,0.0348837209 L4.83,0.0348837209 C5.11,0.0348837209 5.32,0.0697674419 5.495,0.104651163 C5.67,0.139534884 5.775,0.244186047 5.845,0.38372093 C5.915,0.523255814 5.985,0.662790698 5.985,0.872093023 C5.985,1.04651163 5.95,1.18604651 5.88,1.29069767 C5.81,1.39534884 5.705,1.5 5.6,1.56976744 C5.53,1.60465116 5.425,1.63953488 5.285,1.6744186 C5.39,1.70930233 5.46,1.74418605 5.53,1.77906977 C5.565,1.81395349 5.6,1.84883721 5.67,1.95348837 C5.74,2.02325581 5.775,2.09302326 5.81,2.12790698 L6.265,3 L5.215,3 L4.725,2.09302326 C4.655,1.98837209 4.62,1.88372093 4.55,1.84883721 C4.48,1.81395349 4.41,1.77906977 4.305,1.77906977 L4.2,1.77906977 L4.2,3 L3.29,3 L3.29,3.03488372 Z M4.2,1.25581395 L4.585,1.25581395 C4.62,1.25581395 4.725,1.25581395 4.83,1.22093023 C4.9,1.22093023 4.935,1.18604651 4.97,1.11627907 C5.005,1.04651163 5.04,1.01162791 5.04,0.941860465 C5.04,0.837209302 5.005,0.76744186 4.935,0.73255814 C4.865,0.697674419 4.76,0.662790698 4.585,0.662790698 L4.2,0.662790698 L4.2,1.25581395 Z" id="XMLID_6_"></path>
                        <path d="M6.405,1.53488372 C6.405,1.04651163 6.545,0.662790698 6.825,0.38372093 C7.105,0.104651163 7.455,0 7.945,0 C8.435,0 8.82,0.139534884 9.1,0.418604651 C9.38,0.697674419 9.52,1.04651163 9.52,1.53488372 C9.52,1.88372093 9.45,2.1627907 9.345,2.40697674 C9.24,2.65116279 9.03,2.79069767 8.82,2.89534884 C8.61,3 8.33,3.06976744 7.98,3.06976744 C7.63,3.06976744 7.35,3 7.14,2.89534884 C6.93,2.79069767 6.755,2.65116279 6.615,2.44186047 C6.475,2.23255814 6.405,1.91860465 6.405,1.53488372 Z M7.315,1.56976744 C7.315,1.88372093 7.385,2.09302326 7.49,2.23255814 C7.595,2.37209302 7.77,2.44186047 7.945,2.44186047 C8.155,2.44186047 8.295,2.37209302 8.4,2.23255814 C8.505,2.09302326 8.575,1.88372093 8.575,1.53488372 C8.575,1.25581395 8.505,1.04651163 8.4,0.906976744 C8.295,0.76744186 8.155,0.697674419 7.945,0.697674419 C7.77,0.697674419 7.595,0.76744186 7.49,0.906976744 C7.385,1.04651163 7.315,1.25581395 7.315,1.56976744 Z" id="XMLID_9_"></path>
                        <polygon id="XMLID_13_" points="9.73 0.0348837209 12.565 0.0348837209 12.565 0.76744186 11.62 0.76744186 11.62 3.03488372 10.675 3.03488372 10.675 0.802325581 9.73 0.802325581 9.73 0.0348837209"></polygon>
                        <polygon id="XMLID_15_" points="13.055 0.0348837209 15.54 0.0348837209 15.54 0.697674419 13.965 0.697674419 13.965 1.18604651 15.4 1.18604651 15.4 1.81395349 13.965 1.81395349 13.965 2.40697674 15.575 2.40697674 15.575 3.06976744 13.055 3.06976744"></polygon>
                        <path d="M18.13,1.81395349 L18.935,2.05813953 C18.865,2.30232558 18.795,2.47674419 18.69,2.61627907 C18.585,2.75581395 18.41,2.89534884 18.235,2.96511628 C18.06,3.03488372 17.85,3.10465116 17.57,3.10465116 C17.255,3.10465116 16.975,3.06976744 16.765,2.96511628 C16.555,2.86046512 16.38,2.72093023 16.24,2.47674419 C16.1,2.23255814 16.03,1.91860465 16.03,1.56976744 C16.03,1.08139535 16.17,0.697674419 16.415,0.418604651 C16.695,0.139534884 17.045,0 17.535,0 C17.92,0 18.2,0.0697674419 18.445,0.244186047 C18.69,0.418604651 18.83,0.627906977 18.935,0.941860465 L18.13,1.11627907 C18.095,1.01162791 18.06,0.941860465 18.025,0.906976744 C17.99,0.837209302 17.92,0.76744186 17.85,0.73255814 C17.78,0.697674419 17.675,0.697674419 17.57,0.697674419 C17.36,0.697674419 17.185,0.76744186 17.08,0.941860465 C17.01,1.08139535 16.94,1.25581395 16.94,1.53488372 C16.94,1.88372093 16.975,2.09302326 17.08,2.23255814 C17.185,2.37209302 17.325,2.40697674 17.5,2.40697674 C17.675,2.40697674 17.815,2.37209302 17.92,2.26744186 C18.025,2.1627907 18.095,2.02325581 18.13,1.81395349 Z" id="XMLID_17_"></path>
                        <polygon id="XMLID_19_" points="19.25 0.0348837209 22.05 0.0348837209 22.05 0.76744186 21.105 0.76744186 21.105 3.03488372 20.16 3.03488372 20.16 0.802325581 19.25 0.802325581"></polygon>
                        <polygon id="XMLID_21_" points="22.54 0.0348837209 25.025 0.0348837209 25.025 0.697674419 23.45 0.697674419 23.45 1.18604651 24.885 1.18604651 24.885 1.81395349 23.45 1.81395349 23.45 2.40697674 25.06 2.40697674 25.06 3.06976744 22.54 3.06976744 22.54 0.0348837209"></polygon>
                        <path d="M25.655,0.0348837209 L27.02,0.0348837209 C27.3,0.0348837209 27.51,0.0697674419 27.685,0.139534884 C27.86,0.209302326 28,0.348837209 28.105,0.488372093 C28.21,0.627906977 28.28,0.802325581 28.35,0.976744186 C28.42,1.15116279 28.42,1.36046512 28.42,1.56976744 C28.42,1.88372093 28.385,2.12790698 28.315,2.30232558 C28.245,2.47674419 28.14,2.61627907 28,2.72093023 C27.86,2.8255814 27.72,2.93023256 27.58,2.96511628 C27.37,3.03488372 27.195,3.03488372 27.02,3.03488372 L25.655,3.03488372 L25.655,0.0348837209 Z M26.565,0.73255814 L26.565,2.37209302 L26.81,2.37209302 C27.02,2.37209302 27.125,2.3372093 27.23,2.30232558 C27.335,2.26744186 27.37,2.19767442 27.44,2.09302326 C27.51,1.98837209 27.51,1.81395349 27.51,1.56976744 C27.51,1.25581395 27.475,1.04651163 27.37,0.906976744 C27.265,0.76744186 27.09,0.73255814 26.845,0.73255814 L26.565,0.73255814 Z" id="XMLID_34_"></path>
                        <path d="M32.795,1.60465116 L33.46,1.74418605 C33.425,1.84883721 33.39,1.95348837 33.355,2.02325581 C33.32,2.09302326 33.285,2.19767442 33.215,2.26744186 L33.53,2.47674419 C33.565,2.51162791 33.6,2.54651163 33.67,2.58139535 L33.215,3.10465116 C33.145,3.06976744 33.04,3 32.97,2.96511628 C32.9,2.93023256 32.795,2.86046512 32.725,2.8255814 C32.585,2.93023256 32.445,3 32.305,3.03488372 C32.095,3.10465116 31.885,3.13953488 31.605,3.13953488 C31.22,3.13953488 30.905,3.06976744 30.695,2.89534884 C30.485,2.72093023 30.415,2.51162791 30.415,2.30232558 C30.415,2.12790698 30.485,1.95348837 30.59,1.81395349 C30.695,1.6744186 30.905,1.53488372 31.15,1.43023256 C31.045,1.29069767 30.975,1.18604651 30.94,1.08139535 C30.905,0.976744186 30.87,0.872093023 30.87,0.76744186 C30.87,0.558139535 30.94,0.38372093 31.115,0.244186047 C31.29,0.104651163 31.5,0 31.85,0 C32.2,0 32.445,0.0697674419 32.585,0.209302326 C32.725,0.348837209 32.83,0.488372093 32.83,0.662790698 C32.83,0.76744186 32.795,0.872093023 32.76,0.941860465 C32.725,1.01162791 32.655,1.11627907 32.585,1.18604651 C32.515,1.25581395 32.41,1.3255814 32.235,1.46511628 C32.375,1.60465116 32.55,1.74418605 32.69,1.88372093 C32.725,1.77906977 32.76,1.6744186 32.795,1.60465116 Z M31.535,1.77906977 C31.43,1.84883721 31.36,1.91860465 31.29,1.98837209 C31.22,2.05813953 31.22,2.09302326 31.22,2.1627907 C31.22,2.26744186 31.255,2.3372093 31.36,2.44186047 C31.465,2.54651163 31.57,2.54651163 31.71,2.54651163 C31.85,2.54651163 32.025,2.47674419 32.2,2.37209302 C32.025,2.26744186 31.815,2.05813953 31.535,1.77906977 Z M31.815,1.08139535 C31.92,1.01162791 31.99,0.941860465 32.06,0.906976744 C32.13,0.872093023 32.165,0.76744186 32.165,0.697674419 C32.165,0.627906977 32.13,0.593023256 32.095,0.523255814 C32.06,0.453488372 31.99,0.453488372 31.885,0.453488372 C31.815,0.453488372 31.745,0.488372093 31.675,0.523255814 C31.605,0.558139535 31.605,0.627906977 31.605,0.697674419 C31.605,0.76744186 31.675,0.906976744 31.815,1.08139535 Z" id="XMLID_37_"></path>
                        <polygon id="XMLID_41_" points="35.63 0.0348837209 36.855 0.0348837209 37.31 1.84883721 37.765 0.0348837209 38.99 0.0348837209 38.99 3.03488372 38.22 3.03488372 38.22 0.76744186 37.625 3.06976744 36.925 3.06976744 36.4 0.76744186 36.4 3.06976744 35.63 3.06976744"></polygon>
                        <path d="M39.55,1.53488372 C39.55,1.04651163 39.69,0.662790698 39.97,0.38372093 C40.25,0.104651163 40.6,0 41.09,0 C41.58,0 41.965,0.139534884 42.245,0.418604651 C42.525,0.697674419 42.665,1.04651163 42.665,1.53488372 C42.665,1.88372093 42.595,2.1627907 42.49,2.40697674 C42.385,2.65116279 42.21,2.79069767 41.965,2.93023256 C41.72,3.06976744 41.475,3.10465116 41.125,3.10465116 C40.775,3.10465116 40.495,3.03488372 40.285,2.93023256 C40.075,2.8255814 39.9,2.65116279 39.76,2.44186047 C39.62,2.23255814 39.55,1.91860465 39.55,1.53488372 Z M40.495,1.56976744 C40.495,1.88372093 40.565,2.09302326 40.67,2.23255814 C40.775,2.37209302 40.95,2.44186047 41.125,2.44186047 C41.335,2.44186047 41.475,2.37209302 41.58,2.23255814 C41.685,2.09302326 41.755,1.88372093 41.755,1.53488372 C41.755,1.25581395 41.685,1.04651163 41.58,0.906976744 C41.475,0.76744186 41.3,0.697674419 41.09,0.697674419 C40.915,0.697674419 40.74,0.76744186 40.635,0.906976744 C40.53,1.04651163 40.495,1.25581395 40.495,1.56976744 Z" id="XMLID_43_"></path>
                        <polygon id="XMLID_46_" points="43.225 0.0348837209 44.1 0.0348837209 45.22 1.70930233 45.22 0.0348837209 46.095 0.0348837209 46.095 3.03488372 45.22 3.03488372 44.1 1.39534884 44.1 3.03488372 43.225 3.03488372"></polygon>
                        <polygon id="XMLID_48_" points="46.83 0.0348837209 47.775 0.0348837209 47.775 3.03488372 46.83 3.03488372"></polygon>
                        <polygon id="XMLID_50_" points="48.265 0.0348837209 51.1 0.0348837209 51.1 0.76744186 50.155 0.76744186 50.155 3.03488372 49.21 3.03488372 49.21 0.802325581 48.265 0.802325581 48.265 0.0348837209"></polygon>
                        <path d="M51.31,1.53488372 C51.31,1.04651163 51.45,0.662790698 51.73,0.38372093 C52.01,0.104651163 52.36,0 52.85,0 C53.34,0 53.725,0.139534884 54.005,0.418604651 C54.285,0.697674419 54.425,1.04651163 54.425,1.53488372 C54.425,1.88372093 54.355,2.1627907 54.25,2.40697674 C54.145,2.65116279 53.97,2.79069767 53.725,2.93023256 C53.48,3.06976744 53.235,3.10465116 52.885,3.10465116 C52.535,3.10465116 52.255,3.03488372 52.045,2.93023256 C51.835,2.8255814 51.66,2.65116279 51.52,2.40697674 C51.38,2.1627907 51.31,1.91860465 51.31,1.53488372 Z M52.22,1.56976744 C52.22,1.88372093 52.29,2.09302326 52.395,2.23255814 C52.5,2.37209302 52.675,2.44186047 52.85,2.44186047 C53.06,2.44186047 53.2,2.37209302 53.305,2.23255814 C53.41,2.09302326 53.48,1.88372093 53.48,1.53488372 C53.48,1.25581395 53.41,1.04651163 53.305,0.906976744 C53.2,0.76744186 53.025,0.697674419 52.85,0.697674419 C52.675,0.697674419 52.5,0.76744186 52.395,0.906976744 C52.29,1.04651163 52.22,1.25581395 52.22,1.56976744 Z" id="XMLID_52_"></path>
                        <path d="M54.985,3.03488372 L54.985,0.0348837209 L56.525,0.0348837209 C56.805,0.0348837209 57.015,0.0697674419 57.19,0.104651163 C57.365,0.139534884 57.47,0.244186047 57.54,0.38372093 C57.61,0.523255814 57.68,0.662790698 57.68,0.872093023 C57.68,1.04651163 57.645,1.18604651 57.575,1.29069767 C57.505,1.39534884 57.4,1.5 57.295,1.56976744 C57.225,1.60465116 57.12,1.63953488 56.98,1.6744186 C57.085,1.70930233 57.155,1.74418605 57.225,1.77906977 C57.26,1.81395349 57.295,1.84883721 57.365,1.95348837 C57.435,2.02325581 57.47,2.09302326 57.505,2.12790698 L57.96,3 L56.91,3 L56.42,2.09302326 C56.35,1.98837209 56.315,1.88372093 56.245,1.84883721 C56.175,1.81395349 56.105,1.77906977 56,1.77906977 L55.93,1.77906977 L55.93,3 L54.985,3 L54.985,3.03488372 Z M55.895,1.25581395 L56.28,1.25581395 C56.315,1.25581395 56.42,1.25581395 56.525,1.22093023 C56.595,1.22093023 56.63,1.18604651 56.665,1.11627907 C56.7,1.04651163 56.735,1.01162791 56.735,0.941860465 C56.735,0.837209302 56.7,0.76744186 56.63,0.73255814 C56.56,0.697674419 56.455,0.662790698 56.28,0.662790698 L55.86,0.662790698 L55.86,1.25581395 L55.895,1.25581395 Z" id="XMLID_55_"></path>
                        <polygon id="XMLID_58_" points="58.275 0.0348837209 60.76 0.0348837209 60.76 0.697674419 59.185 0.697674419 59.185 1.18604651 60.62 1.18604651 60.62 1.81395349 59.185 1.81395349 59.185 2.40697674 60.795 2.40697674 60.795 3.06976744 58.275 3.06976744"></polygon>
                        <path d="M61.39,0.0348837209 L62.755,0.0348837209 C63.035,0.0348837209 63.245,0.0697674419 63.42,0.139534884 C63.595,0.209302326 63.735,0.313953488 63.84,0.453488372 C63.945,0.593023256 64.015,0.76744186 64.085,0.941860465 C64.155,1.11627907 64.155,1.3255814 64.155,1.53488372 C64.155,1.84883721 64.12,2.09302326 64.05,2.26744186 C63.98,2.44186047 63.875,2.58139535 63.735,2.72093023 C63.595,2.86046512 63.455,2.93023256 63.315,2.96511628 C63.105,3.03488372 62.93,3.03488372 62.755,3.03488372 L61.39,3.03488372 L61.39,0.0348837209 Z M62.3,0.73255814 L62.3,2.37209302 L62.545,2.37209302 C62.755,2.37209302 62.86,2.3372093 62.965,2.30232558 C63.07,2.26744186 63.105,2.19767442 63.175,2.09302326 C63.245,1.98837209 63.245,1.81395349 63.245,1.56976744 C63.245,1.25581395 63.21,1.04651163 63.105,0.906976744 C63,0.76744186 62.825,0.73255814 62.58,0.73255814 L62.3,0.73255814 Z" id="XMLID_60_"></path>
                    </g>
                    <path d="M5.845,20.5116279 L4.27,16.2906977 C4.9,15.9767442 5.32,15.3139535 5.32,14.5465116 C5.32,13.4651163 4.445,12.5930233 3.36,12.5930233 C2.275,12.5930233 1.4,13.4651163 1.4,14.5465116 C1.4,15.3837209 1.925,16.0813953 2.66,16.3604651 L1.365,20.5116279 L5.845,20.5116279 Z" id="XMLID_11_"></path>
                </g>
            </g>
        </g>
    </g>
</svg>