<?xml version="1.0" encoding="UTF-8"?>
<svg width="50px" height="50px" viewBox="0 0 50 50" version="1.1" xmlns="http://www.w3.org/2000/svg" xmlns:xlink="http://www.w3.org/1999/xlink">
    <!-- Generator: Sketch 51.3 (57544) - http://www.bohemiancoding.com/sketch -->
    <title>full-screen-icon</title>
    <desc>Created with Sketch.</desc>
    <defs>
        <filter x="-3.1%" y="-4.1%" width="106.1%" height="108.2%" filterUnits="objectBoundingBox" id="filter-1">
            <feOffset dx="0" dy="0" in="SourceAlpha" result="shadowOffsetOuter1"></feOffset>
            <feGaussianBlur stdDeviation="7.5" in="shadowOffsetOuter1" result="shadowBlurOuter1"></feGaussianBlur>
            <feColorMatrix values="0 0 0 0 0   0 0 0 0 0   0 0 0 0 0  0 0 0 0.5 0" type="matrix" in="shadowBlurOuter1" result="shadowMatrixOuter1"></feColorMatrix>
            <feMerge>
                <feMergeNode in="shadowMatrixOuter1"></feMergeNode>
                <feMergeNode in="SourceGraphic"></feMergeNode>
            </feMerge>
        </filter>
    </defs>
    <g id="Page-1" stroke="none" stroke-width="1" fill="none" fill-rule="evenodd">
        <g id="aff_des_slot_item" transform="translate(-1060.000000, -268.000000)" fill="#E4D73B" fill-rule="nonzero">
            <g id="casino_info" filter="url(#filter-1)" transform="translate(404.000000, 252.000000)">
                <g id="full-screen-btn" transform="translate(656.000000, 16.000000)">
                    <g id="full-screen-icon" transform="translate(14.000000, 14.000000)">
                        <path d="M14.4860947,9.59186558 C14.7385967,9.84143788 15.147679,9.84130346 15.4000453,9.59155193 L18.5034033,6.51988595 L19.49793,7.50352342 C19.702177,7.70569043 20.00307,7.77859063 20.2787942,7.69354786 C20.5545185,7.60774338 20.7594897,7.37846843 20.8106872,7.0970387 L21.9531029,0.855087576 C21.993572,0.632175153 21.9213251,0.404289206 21.7589959,0.245046843 C21.5973004,0.0850875764 21.3663457,0.0150549898 21.1418642,0.0564562118 L14.8675638,1.22012627 C14.5839177,1.27299796 14.3536872,1.47592668 14.2685844,1.74870876 C14.1834362,2.02095316 14.2577202,2.31810998 14.4612428,2.51951527 L15.455,3.50315275 L12.3501029,6.575222 C12.097465,6.82519756 12.0975556,7.23065173 12.3503292,7.48053768 L14.4860947,9.59186558 Z" id="XMLID_578_"></path>
                        <path d="M7.50362963,12.4429939 C7.25112757,12.1933768 6.84204527,12.1934664 6.58967901,12.4432627 L3.48645679,15.5149287 L2.49197531,14.5312464 C2.28763786,14.3290346 1.98679012,14.2561792 1.71111111,14.3411772 C1.43534156,14.4269369 1.23046091,14.6562118 1.17912757,14.9376864 L0.0367119342,21.1796823 C-0.00362139918,21.4025051 0.0685349794,21.630391 0.230864198,21.7896334 C0.392559671,21.9495927 0.623514403,22.0197149 0.847950617,21.978224 L7.12234156,20.814554 C7.40603292,20.7616823 7.63612757,20.5587536 7.72136626,20.2859267 C7.8065144,20.0137271 7.73218519,19.7166151 7.52861728,19.515165 L6.53490535,18.5315275 L9.64306173,15.464387 C9.89628807,15.2144562 9.8965144,14.808554 9.6435144,14.558444 L7.50362963,12.4429939 Z" id="XMLID_577_"></path>
                        <path d="M1.17917284,7.0970387 C1.23037037,7.37846843 1.43534156,7.60774338 1.71106584,7.69354786 C1.98679012,7.77859063 2.28768313,7.70569043 2.49193004,7.50352342 L3.48645679,6.51988595 L6.58981481,9.59155193 C6.8421358,9.84130346 7.25121811,9.84143788 7.50372016,9.59186558 L9.63953086,7.48058248 C9.89230453,7.23069654 9.89239506,6.82524236 9.63980247,6.5752668 L6.53490535,3.50319756 L7.52866255,2.51956008 C7.73218519,2.31815479 7.80646914,2.02099796 7.72132099,1.74875356 C7.63617284,1.47597149 7.40594239,1.27304277 7.12234156,1.22017108 L0.847995885,0.0565010183 C0.623514403,0.0150997963 0.392559671,0.0850875764 0.230864198,0.24509165 C0.0685349794,0.404334012 -0.00371193416,0.632219959 0.0367572016,0.855132383 L1.17917284,7.0970387 Z" id="XMLID_576_"></path>
                        <path d="M20.8107325,14.9376864 C20.7593992,14.6562566 20.5545185,14.4269817 20.278749,14.3411772 C20.00307,14.256224 19.7022222,14.3290346 19.4978848,14.5312464 L18.5034033,15.5148839 L15.4001358,12.4432179 C15.1478148,12.1934216 14.7386872,12.193332 14.4861852,12.4429491 L12.3463457,14.558444 C12.0933457,14.808554 12.0935267,15.2144562 12.3467984,15.464387 L15.4549547,18.5315275 L14.4612428,19.515165 C14.2576749,19.7166151 14.1833457,20.0137271 14.2684938,20.2859267 C14.3537325,20.5587536 14.5838724,20.7616823 14.8675185,20.814554 L21.1418642,21.978224 C21.3663004,22.0197149 21.5972551,21.9495927 21.7589506,21.7896334 C21.9212798,21.6303462 21.9934362,21.4024603 21.9531029,21.1796823 L20.8107325,14.9376864 Z" id="XMLID_575_"></path>
                    </g>
                </g>
            </g>
        </g>
    </g>
</svg>