<?xml version="1.0" encoding="UTF-8"?>
<svg width="129px" height="20px" viewBox="0 0 129 20" version="1.1" xmlns="http://www.w3.org/2000/svg" xmlns:xlink="http://www.w3.org/1999/xlink">
    <!-- Generator: Sketch 51.3 (57544) - http://www.bohemiancoding.com/sketch -->
    <title>gambleaware</title>
    <desc>Created with Sketch.</desc>
    <defs></defs>
    <g id="Page-1" stroke="none" stroke-width="1" fill="none" fill-rule="evenodd">
        <g id="aff_des_home" transform="translate(-1112.000000, -3076.000000)" fill="#949FB6" fill-rule="nonzero">
            <g id="footer" transform="translate(-31.000000, 2904.000000)">
                <g id="gambleaware" transform="translate(1143.000000, 172.000000)">
                    <path d="M2.87808765,9.84615385 C2.87808765,11.8461538 3.75179283,12.974359 5.34501992,12.974359 C6.83545817,12.974359 7.96613546,11.6410256 7.96613546,9.74358974 C7.96613546,7.94871795 6.93824701,6.61538462 5.55059761,6.61538462 C3.9059761,6.66666667 2.87808765,7.8974359 2.87808765,9.84615385 Z M7.91474104,13.6410256 C7.45219124,14.1538462 6.52709163,15.2820513 4.52270916,15.2820513 C1.90159363,15.2820513 -5.68434189e-14,13.025641 -5.68434189e-14,9.79487179 C-5.68434189e-14,6.56410256 1.95298805,4.30769231 4.72828685,4.30769231 C5.80756972,4.30769231 6.6812749,4.71794872 7.96613546,5.74358974 L7.96613546,4.56410256 L11.7693227,4.56410256 L11.7693227,6.71794872 L10.7414343,6.71794872 L10.7414343,15.3333333 C10.7414343,18 8.73705179,19.5897436 5.34501992,19.5897436 C3.70039841,19.5897436 2.41553785,19.2307692 1.49043825,18.4615385 C0.770916335,17.8974359 0.462549801,17.3333333 0.154183267,16 L2.87808765,16 C3.23784861,17.025641 4.00876494,17.4871795 5.2936255,17.4871795 C6.88685259,17.4871795 7.96613546,16.6666667 7.96613546,15.3846154 C7.91474104,15.3846154 7.91474104,13.6410256 7.91474104,13.6410256 Z" id="g"></path>
                    <path d="M19.5298805,10.4615385 C16.9087649,10.7179487 15.1613546,10.9230769 15.1613546,12.5128205 C15.1613546,13.4358974 15.8808765,14.0512821 17.0115538,14.0512821 C18.4505976,14.0512821 19.5298805,12.974359 19.5298805,11.5897436 C19.5298805,11.5384615 19.5298805,10.4615385 19.5298805,10.4615385 Z M22.150996,13.5897436 L23.12749,13.5897436 L23.12749,15.7435897 L19.6326693,15.7435897 L19.6326693,14.4102564 C18.501992,15.5897436 17.6282869,15.9487179 16.2406375,15.9487179 C13.9792829,15.9487179 12.2832669,14.4615385 12.2832669,12.4615385 C12.2832669,9.17948718 15.9836653,8.82051282 19.5812749,8.46153846 C19.5812749,6.71794872 19.1187251,6.30769231 17.525498,6.30769231 C16.3948207,6.30769231 15.57251,6.97435897 15.5211155,8 L12.7972112,7.8974359 C12.9513944,5.64102564 14.7501992,4.20512821 17.4227092,4.20512821 C20.5063745,4.20512821 22.2023904,5.58974359 22.2023904,8.15384615 L22.150996,13.5897436 Z" id="a_2_"></path>
                    <path d="M27.5988048,5.8974359 C28.7808765,4.61538462 29.5517928,4.30769231 30.8366534,4.30769231 C32.1215139,4.30769231 32.7896414,4.76923077 33.5091633,6.05128205 C34.074502,5.48717949 35.1023904,4.30769231 36.9011952,4.30769231 C38.7,4.30769231 39.9334661,5.58974359 39.9334661,7.48717949 L39.9334661,13.6410256 L40.9613546,13.6410256 L40.9613546,15.7948718 L37.1581673,15.7948718 L37.1581673,8.20512821 C37.1581673,7.23076923 36.6956175,6.61538462 35.9760956,6.61538462 C34.8454183,6.61538462 33.7661355,8.1025641 33.7661355,9.64102564 L33.7661355,13.5384615 L34.8454183,13.5384615 L34.8454183,15.6923077 L30.9908367,15.6923077 L30.9908367,8.30769231 C30.9908367,7.17948718 30.6310757,6.61538462 29.8087649,6.61538462 C28.5752988,6.61538462 27.4960159,8.1025641 27.5474104,9.8974359 L27.5474104,13.5384615 L28.6266932,13.5384615 L28.6266932,15.6923077 L23.847012,15.6923077 L23.847012,13.5384615 L24.7721116,13.5384615 L24.7721116,6.71794872 L23.7956175,6.71794872 L23.7956175,4.56410256 L27.4960159,4.56410256 L27.4960159,5.8974359 L27.5988048,5.8974359 Z" id="m"></path>
                    <path d="M45.3812749,10.2051282 C45.3812749,12.5128205 46.3063745,13.7435897 48.1051793,13.7435897 C49.647012,13.7435897 50.623506,12.3589744 50.623506,10.1538462 C50.623506,7.94871795 49.647012,6.56410256 48.1051793,6.56410256 C46.3577689,6.56410256 45.3812749,7.8974359 45.3812749,10.2051282 Z M41.6294821,0.307692308 L45.4326693,0.307692308 L45.4326693,5.79487179 C46.5633466,4.66666667 47.4370518,4.20512821 48.6191235,4.20512821 C51.4458167,4.20512821 53.4501992,6.61538462 53.4501992,10 C53.4501992,13.5897436 51.5486056,16 48.7733068,16 C47.3856574,16 46.614741,15.6410256 45.3298805,14.5128205 L45.3298805,15.7435897 L41.5266932,15.7435897 L41.5266932,13.5897436 L42.7087649,13.5897436 L42.7087649,2.46153846 L41.6294821,2.46153846 L41.6294821,0.307692308 Z" id="b"></path>
                    <polygon id="l" points="54.1183267 0.307692308 57.9215139 0.307692308 57.9215139 13.5897436 59.0007968 13.5897436 59.0007968 15.7435897 54.1183267 15.7435897 54.1183267 13.5897436 55.1976096 13.5897436 55.1976096 2.46153846 54.1183267 2.46153846"></polygon>
                    <path d="M67.2239044,8.76923077 C67.0183267,7.33333333 66.1960159,6.56410256 64.859761,6.56410256 C63.6262948,6.56410256 62.7011952,7.38461538 62.3414343,8.76923077 L67.2239044,8.76923077 Z M70.101992,12.1025641 C69.5880478,14.5128205 67.5836653,16.0512821 64.8083665,16.0512821 C61.6733068,16.0512821 59.3605578,13.5897436 59.3605578,10.1538462 C59.3605578,6.76923077 61.6733068,4.25641026 64.859761,4.25641026 C66.6585657,4.25641026 68.2003984,5.07692308 69.1768924,6.56410256 C70.2047809,8.15384615 70.2561753,9.64102564 70.3075697,10.7692308 L62.187251,10.7692308 C62.4442231,13.6923077 64.3458167,13.8461538 64.9111554,13.8461538 C66.0418327,13.8461538 66.7613546,13.3333333 67.2239044,12.1538462 L70.101992,12.1025641 Z" id="e_1_"></path>
                    <path d="M78.4278884,10.0512821 L77.4513944,10.2051282 C75.3956175,10.5128205 74.5219124,10.8205128 73.9565737,11.3846154 C73.6482072,11.6923077 73.4940239,12.1025641 73.4940239,12.4615385 C73.4940239,13.4871795 74.3677291,14.3589744 75.447012,14.3589744 C76.9888446,14.3589744 78.4278884,12.974359 78.4278884,11.5897436 L78.4278884,10.0512821 Z M78.4278884,14.2564103 C77.4,15.1794872 76.4749004,16 74.6247012,16 C72.5175299,16 70.9756972,14.5641026 70.9756972,12.6153846 C70.9756972,11.7435897 71.2840637,11.025641 71.798008,10.4102564 C72.6717131,9.53846154 73.9051793,9.12820513 76.8860558,8.82051282 L78.376494,8.66666667 L78.376494,7.94871795 C78.376494,6.66666667 77.5541833,5.94871795 76.0123506,5.94871795 C74.6247012,5.94871795 73.9565737,6.46153846 73.6996016,7.79487179 L71.3868526,7.79487179 C71.5410359,6.61538462 71.8494024,6 72.4661355,5.38461538 C73.3398406,4.61538462 74.5733068,4.20512821 76.1665339,4.20512821 C78.9418327,4.20512821 80.5864542,5.58974359 80.5864542,7.94871795 L80.5864542,13.9487179 L81.9227092,13.9487179 L81.9227092,15.7435897 L78.376494,15.7435897 L78.4278884,14.2564103 Z" id="a_1_"></path>
                    <polygon id="w" points="81.7685259 4.51282051 86.0856574 4.51282051 86.0856574 6.30769231 84.8521912 6.30769231 86.7023904 13.8974359 88.8609562 4.51282051 90.9681275 4.51282051 93.1266932 13.8974359 94.9768924 6.30769231 93.7434263 6.30769231 93.7434263 4.51282051 98.0091633 4.51282051 98.0091633 6.30769231 96.8784861 6.30769231 94.3087649 15.7435897 91.9446215 15.7435897 89.8888446 7.33333333 87.8844622 15.7435897 85.4689243 15.7435897 82.8478088 6.30769231 81.7685259 6.30769231"></polygon>
                    <path d="M105.87251,10.0512821 L104.896016,10.2051282 C102.840239,10.5128205 101.966534,10.8205128 101.401195,11.3846154 C101.092829,11.6923077 100.938645,12.1025641 100.938645,12.4615385 C100.938645,13.4871795 101.812351,14.3589744 102.891633,14.3589744 C104.433466,14.3589744 105.87251,12.974359 105.87251,11.5897436 L105.87251,10.0512821 Z M105.87251,14.2564103 C104.844622,15.1794872 103.919522,16 102.120717,16 C100.013546,16 98.4717131,14.5641026 98.4717131,12.6153846 C98.4717131,11.7435897 98.7800797,11.025641 99.2940239,10.4102564 C100.167729,9.53846154 101.401195,9.12820513 104.382072,8.82051282 L105.87251,8.66666667 L105.87251,7.94871795 C105.87251,6.66666667 105.050199,5.94871795 103.508367,5.94871795 C102.120717,5.94871795 101.45259,6.46153846 101.195618,7.79487179 L98.8828685,7.79487179 C99.0370518,6.61538462 99.3454183,6 99.9621514,5.38461538 C100.835857,4.61538462 102.069323,4.20512821 103.66255,4.20512821 C106.437849,4.20512821 108.08247,5.58974359 108.08247,7.94871795 L108.08247,13.9487179 L109.418725,13.9487179 L109.418725,15.7435897 L105.87251,15.7435897 L105.87251,14.2564103 Z" id="a"></path>
                    <path d="M113.633068,7.02564103 C114.249801,5.69230769 114.917928,4.25641026 116.922311,4.25641026 C117.333466,4.25641026 117.539044,4.30769231 118.001594,4.41025641 L118.001594,6.51282051 C117.436255,6.41025641 117.230677,6.35897436 116.922311,6.35897436 C114.403984,6.35897436 113.684462,8.87179487 113.684462,9.69230769 L113.684462,13.9487179 L114.969323,13.9487179 L114.969323,15.7435897 L110.189641,15.7435897 L110.189641,13.9487179 L111.474502,13.9487179 L111.474502,6.25641026 L110.189641,6.25641026 L110.189641,4.51282051 L113.633068,4.51282051 L113.633068,7.02564103 Z" id="r"></path>
                    <path d="M126.121912,9.02564103 C126.019124,7.17948718 125.145418,6.15384615 123.603586,6.15384615 C121.290837,6.15384615 120.622709,8.71794872 120.622709,9.02564103 L126.121912,9.02564103 Z M128.434661,12.3076923 C127.972112,13.4358974 126.841434,16 123.603586,16 C120.417131,16 118.258566,13.5897436 118.258566,10 C118.258566,6.66666667 120.571315,4.25641026 123.65498,4.25641026 C125.453785,4.25641026 128.640239,5.28205128 128.640239,10.5641026 L120.51992,10.5641026 C120.622709,13.0769231 122.215936,14.1025641 123.706375,14.1025641 C124.888446,14.1025641 125.607968,13.5384615 126.019124,12.2564103 L128.434661,12.2564103 L128.434661,12.3076923 Z" id="e"></path>
                </g>
            </g>
        </g>
    </g>
</svg>