<?xml version="1.0" encoding="UTF-8"?>
<svg width="27px" height="30px" viewBox="0 0 27 30" version="1.1" xmlns="http://www.w3.org/2000/svg" xmlns:xlink="http://www.w3.org/1999/xlink">
    <!-- Generator: Sketch 51.3 (57544) - http://www.bohemiancoding.com/sketch -->
    <title>gamcare</title>
    <desc>Created with Sketch.</desc>
    <defs></defs>
    <g id="Page-1" stroke="none" stroke-width="1" fill="none" fill-rule="evenodd">
        <g id="aff_des_home" transform="translate(-1272.000000, -3070.000000)" fill="#949FB6" fill-rule="nonzero">
            <g id="footer" transform="translate(-31.000000, 2904.000000)">
                <g id="gamcare" transform="translate(1303.000000, 166.000000)">
                    <g id="logo">
                        <path d="M25.9377049,14.2941176 C25.8491803,14.25 25.7163934,14.2058824 25.5836066,14.1617647 C25.5393443,14.1617647 25.5393443,14.1617647 25.495082,14.1617647 L25.4508197,14.1617647 L25.4065574,14.1617647 C25.3622951,14.1617647 25.3180328,14.1617647 25.2737705,14.1617647 L17.2622951,14.1617647 C16.6868852,14.1617647 16.2442623,14.6029412 16.2442623,15.1764706 C16.2442623,15.75 16.6868852,16.1911765 17.2622951,16.1911765 L20.3606557,16.1911765 C20.4491803,16.1911765 20.5377049,16.2794118 20.5377049,16.3676471 C20.5377049,16.4117647 20.4934426,16.4558824 20.4491803,16.5 C18.7229508,17.4264706 16.5540984,17.9558824 14.1196721,17.9558824 C13.5442623,17.9558824 12.9688525,17.9117647 12.3934426,17.8676471 L12.3934426,20.2058824 C12.8803279,20.25 13.3672131,20.25 13.8540984,20.25 C17.2180328,20.25 20.2721311,19.4558824 22.5295082,18.0882353 C22.5737705,18.0882353 22.5737705,18.0441176 22.6180328,18.0441176 C22.7508197,18.0441176 22.8393443,18.1323529 22.8393443,18.2647059 L22.8393443,18.3088235 L22.352459,19.5882353 C22.0868852,20.25 22.4409836,21 23.1491803,21.2647059 C23.2819672,21.3088235 23.4590164,21.3529412 23.5918033,21.3529412 C24.1229508,21.3529412 24.6098361,21.0441176 24.8311475,20.5147059 L26.557377,15.8382353 C26.8229508,15.2647059 26.557377,14.6029412 25.9377049,14.2941176 Z" id="XMLID_47_"></path>
                        <path d="M14.1639344,5.51470588 C16.5983607,5.51470588 18.8114754,6.08823529 20.5377049,7.01470588 C20.5377049,7.01470588 21.6442623,7.80882353 22.1311475,7.05882353 C22.7065574,6.17647059 21.5557377,5.64705882 21.5557377,5.64705882 C19.4311475,4.63235294 16.7754098,4.05882353 13.942623,4.05882353 C13.4557377,4.05882353 12.9688525,4.05882353 12.4819672,4.10294118 L12.4819672,5.60294118 C13.0131148,5.51470588 13.5885246,5.51470588 14.1639344,5.51470588 Z" id="XMLID_46_"></path>
                        <g id="XMLID_43_">
                            <path d="M1.8147541,0.132352941 C0.840983607,0.132352941 0,0.926470588 0,1.94117647 L0,21.6617647 C0,22.6764706 0.796721311,23.4705882 1.8147541,23.4705882 L12.4377049,23.4705882 L12.4377049,20.2058824 C6.06393443,19.7647059 1.10655738,16.3235294 1.10655738,12.1323529 C1.10655738,7.94117647 6.06393443,4.54411765 12.4377049,4.05882353 L12.4377049,0.132352941 L1.8147541,0.132352941 Z" id="XMLID_45_"></path>
                            <path d="M4.29344262,11.7352941 C4.29344262,14.8235294 7.79016393,17.3823529 12.4377049,17.8676471 L12.4377049,5.60294118 C7.83442623,6.08823529 4.29344262,8.64705882 4.29344262,11.7352941 Z" id="XMLID_44_"></path>
                        </g>
                    </g>
                    <g id="text" transform="translate(0.000000, 25.147059)">
                        <path d="M4.16065574,2.42647059 C4.11639344,3.70588235 3.23114754,4.54411765 2.08032787,4.54411765 C1.46065574,4.54411765 0.929508197,4.32352941 0.531147541,3.83823529 C0.17704918,3.44117647 0,2.95588235 0,2.38235294 C0,1.80882353 0.221311475,1.27941176 0.619672131,0.882352941 C1.01803279,0.485294118 1.50491803,0.308823529 2.12459016,0.308823529 C2.96557377,0.308823529 3.6295082,0.705882353 3.93934426,1.41176471 L3.18688525,1.41176471 C2.92131148,1.05882353 2.52295082,0.882352941 2.08032787,0.882352941 C1.68196721,0.882352941 1.32786885,1.01470588 1.06229508,1.32352941 C0.752459016,1.63235294 0.619672131,2.02941176 0.619672131,2.42647059 C0.619672131,2.86764706 0.752459016,3.26470588 1.01803279,3.52941176 C1.28360656,3.83823529 1.68196721,3.97058824 2.08032787,3.97058824 C2.7,3.97058824 3.18688525,3.66176471 3.49672131,3 L1.63770492,3 L1.63770492,2.42647059 C1.63770492,2.42647059 4.16065574,2.42647059 4.16065574,2.42647059 Z" id="XMLID_64_"></path>
                        <path d="M4.82459016,4.45588235 L4.20491803,4.45588235 L5.79836066,0.352941176 L6.37377049,0.352941176 L7.96721311,4.45588235 L7.30327869,4.45588235 L6.86065574,3.26470588 L5.26721311,3.26470588 L4.82459016,4.45588235 Z M6.06393443,1.14705882 L5.48852459,2.69117647 L6.63934426,2.69117647 L6.06393443,1.14705882 Z" id="XMLID_61_"></path>
                        <polygon id="XMLID_59_" points="8.18852459 4.45588235 8.18852459 0.352941176 9.07377049 0.352941176 10.2688525 3.52941176 11.4639344 0.352941176 12.3491803 0.352941176 12.3491803 4.45588235 11.7737705 4.45588235 11.8180328 0.926470588 10.4901639 4.45588235 10.047541 4.45588235 8.71967213 0.926470588 8.76393443 4.45588235"></polygon>
                        <path d="M14.9606557,4.54411765 C14.3409836,4.54411765 13.8540984,4.32352941 13.4557377,3.88235294 C13.057377,3.48529412 12.8803279,2.95588235 12.8803279,2.38235294 C12.8803279,1.80882353 13.1016393,1.27941176 13.5,0.882352941 C13.8983607,0.485294118 14.4295082,0.264705882 15.004918,0.264705882 C15.9786885,0.264705882 16.7754098,0.882352941 17.0409836,1.89705882 L15.9344262,1.89705882 C15.7131148,1.5 15.4032787,1.27941176 14.9606557,1.27941176 C14.3409836,1.27941176 13.8540984,1.76470588 13.8540984,2.33823529 C13.8540984,3 14.3409836,3.48529412 14.9163934,3.48529412 C15.3147541,3.48529412 15.6245902,3.26470588 15.8459016,2.91176471 L16.952459,2.91176471 C16.7311475,3.92647059 15.9344262,4.54411765 14.9606557,4.54411765 Z" id="XMLID_57_"></path>
                        <path d="M18.0147541,4.45588235 L16.9081967,4.45588235 L18.5016393,0.352941176 L19.342623,0.352941176 L20.9360656,4.45588235 L19.8295082,4.45588235 L19.6081967,3.88235294 L18.2360656,3.88235294 L18.0147541,4.45588235 Z M18.9,1.72058824 L18.5016393,3.04411765 L19.2983607,3.04411765 L18.9,1.72058824 Z" id="XMLID_54_"></path>
                        <path d="M20.9360656,4.45588235 L20.9360656,0.352941176 L22.3081967,0.352941176 C22.7508197,0.352941176 23.0606557,0.397058824 23.3262295,0.573529412 C23.6803279,0.838235294 23.9016393,1.19117647 23.9016393,1.72058824 C23.9016393,2.38235294 23.547541,2.86764706 22.9721311,3.04411765 L23.9901639,4.45588235 L22.7508197,4.45588235 L21.9540984,3.13235294 L21.9540984,4.45588235 L20.9360656,4.45588235 Z M22.1754098,2.25 C22.6622951,2.25 22.9278689,2.11764706 22.9278689,1.76470588 C22.9278689,1.41176471 22.7065574,1.27941176 22.2639344,1.27941176 L21.9983607,1.27941176 L21.9983607,2.25 C21.9983607,2.25 22.1754098,2.25 22.1754098,2.25 Z" id="XMLID_51_"></path>
                        <polygon id="XMLID_49_" points="24.4327869 4.45588235 24.4327869 0.352941176 26.6459016 0.352941176 26.6459016 1.23529412 25.4065574 1.23529412 25.4065574 1.89705882 26.6459016 1.89705882 26.6459016 2.82352941 25.4065574 2.82352941 25.4065574 3.52941176 26.6459016 3.52941176 26.6459016 4.41176471 24.4327869 4.41176471"></polygon>
                    </g>
                </g>
            </g>
        </g>
    </g>
</svg>