<?xml version="1.0" encoding="UTF-8"?>
<svg width="68px" height="30px" viewBox="0 0 68 30" version="1.1" xmlns="http://www.w3.org/2000/svg" xmlns:xlink="http://www.w3.org/1999/xlink">
    <!-- Generator: Sketch 51.3 (57544) - http://www.bohemiancoding.com/sketch -->
    <title>gpwa-seal-approval</title>
    <desc>Created with Sketch.</desc>
    <defs></defs>
    <g id="Page-1" stroke="none" stroke-width="1" fill="none" fill-rule="evenodd">
        <g id="aff_des_home" transform="translate(-1463.000000, -3066.000000)" fill-rule="nonzero">
            <g id="footer" transform="translate(-31.000000, 2904.000000)">
                <g id="gpwa-seal-approval" transform="translate(1494.000000, 162.000000)">
                    <g id="GOLD" fill="#949FB6">
                        <path d="M63.649863,29.9906542 L4.28493151,29.9906542 C1.91890411,29.9906542 -8.71525074e-15,28.0654206 -8.71525074e-15,25.6915888 L-8.71525074e-15,4.29906542 C-8.71525074e-15,1.92523364 1.91890411,-1.53002611e-13 4.28493151,-1.53002611e-13 L63.649863,-1.53002611e-13 C66.0158904,-1.53002611e-13 67.9347945,1.92523364 67.9347945,4.29906542 L67.9347945,25.6915888 C67.9347945,28.0560748 66.0065753,29.9906542 63.649863,29.9906542 Z M63.649863,29.8971963 C65.9506849,29.8971963 67.8416438,28 67.8416438,25.6915888 L67.8416438,4.29906542 C67.8416438,1.98130841 65.96,0.0934579439 63.649863,0.0934579439 L4.28493151,0.0934579439 C1.97479452,0.0934579439 0.0931506849,1.98130841 0.0931506849,4.29906542 L0.0931506849,25.6915888 C0.0931506849,28.0093458 1.97479452,29.8971963 4.28493151,29.8971963 L63.649863,29.8971963 Z M4.28493151,0.186915888 L63.649863,0.186915888 C65.9134247,0.186915888 67.7484932,2.02803738 67.7484932,4.29906542 L67.7484932,25.6915888 C67.7484932,27.9626168 65.9134247,29.8037383 63.649863,29.8037383 L4.28493151,29.8037383 C2.02136986,29.8037383 0.18630137,27.9626168 0.18630137,25.6915888 L0.18630137,4.29906542 C0.18630137,2.02803738 2.02136986,0.186915888 4.28493151,0.186915888 Z M62.690411,22.1121495 C64.739726,22.1121495 66.4164384,20.4299065 66.4164384,18.3738318 L66.4164384,5 C66.4164384,2.94392523 64.739726,1.26168224 62.690411,1.26168224 L5.04876712,1.26168224 C2.99945205,1.26168224 1.32273973,2.94392523 1.32273973,5 L1.32273973,18.3738318 C1.32273973,20.4299065 2.99945205,22.1121495 5.04876712,22.1121495 L62.690411,22.1121495 Z" id="Combined-Shape"></path>
                    </g>
                    <g id="APPROVED_PORTAL" transform="translate(4.378082, 23.831776)" fill="#0F205E">
                        <path d="M4.30356164,3.70093458 L3.37205479,3.70093458 L2.99945205,2.88785047 L1.27616438,2.88785047 L0.922191781,3.70093458 L0,3.70093458 L1.66739726,0.0934579439 L2.58027397,0.0934579439 L4.30356164,3.70093458 Z M2.71068493,2.27102804 L2.12383562,0.934579439 L1.54630137,2.27102804 L2.71068493,2.27102804 Z" id="XMLID_18_"></path>
                        <path d="M4.76,3.70093458 L4.76,0.0934579439 L6.14794521,0.0934579439 C6.66958904,0.0934579439 7.00493151,0.112149533 7.16328767,0.14953271 C7.41479452,0.205607477 7.6290411,0.327102804 7.79671233,0.504672897 C7.96438356,0.682242991 8.04821918,0.925233645 8.04821918,1.20560748 C8.04821918,1.46728972 7.97369863,1.68224299 7.8339726,1.85981308 C7.69424658,2.03738318 7.51726027,2.1588785 7.3030137,2.23364486 C7.08876712,2.30841121 6.71616438,2.3364486 6.19452055,2.3364486 L5.62630137,2.3364486 L5.62630137,3.70093458 L4.76,3.70093458 Z M5.62630137,0.710280374 L5.62630137,1.73831776 L6.10136986,1.73831776 C6.42739726,1.73831776 6.64164384,1.71962617 6.75342466,1.69158879 C6.86520548,1.6635514 6.96767123,1.60747664 7.04219178,1.52336449 C7.11671233,1.43925234 7.1539726,1.34579439 7.1539726,1.22429907 C7.1539726,1.10280374 7.11671233,1 7.04219178,0.925233645 C6.96767123,0.841121495 6.87452055,0.785046729 6.76273973,0.757009346 C6.6509589,0.728971963 6.41808219,0.719626168 6.05479452,0.719626168 L5.62630137,0.719626168 L5.62630137,0.710280374 Z" id="XMLID_21_"></path>
                        <path d="M8.75616438,3.70093458 L8.75616438,0.0934579439 L10.1441096,0.0934579439 C10.6657534,0.0934579439 11.0010959,0.112149533 11.1594521,0.14953271 C11.4109589,0.205607477 11.6252055,0.327102804 11.7928767,0.504672897 C11.9605479,0.682242991 12.0443836,0.925233645 12.0443836,1.20560748 C12.0443836,1.46728972 11.969863,1.68224299 11.830137,1.85981308 C11.690411,2.03738318 11.5134247,2.1588785 11.2991781,2.23364486 C11.0849315,2.30841121 10.7123288,2.3364486 10.1906849,2.3364486 L9.62246575,2.3364486 L9.62246575,3.70093458 L8.75616438,3.70093458 Z M9.61315068,0.710280374 L9.61315068,1.73831776 L10.0882192,1.73831776 C10.4142466,1.73831776 10.6284932,1.71962617 10.740274,1.69158879 C10.8520548,1.6635514 10.9545205,1.60747664 11.0290411,1.52336449 C11.1035616,1.43925234 11.1408219,1.34579439 11.1408219,1.22429907 C11.1408219,1.10280374 11.1035616,1 11.0290411,0.925233645 C10.9545205,0.841121495 10.8613699,0.785046729 10.749589,0.757009346 C10.6378082,0.728971963 10.4049315,0.719626168 10.0416438,0.719626168 L9.61315068,0.719626168 L9.61315068,0.710280374 Z" id="XMLID_24_"></path>
                        <path d="M12.7523288,3.70093458 L12.7523288,0.0934579439 L14.5780822,0.0934579439 C15.0438356,0.0934579439 15.3791781,0.121495327 15.5747945,0.186915888 C15.770411,0.252336449 15.9380822,0.364485981 16.0684932,0.523364486 C16.1989041,0.682242991 16.2641096,0.878504673 16.2641096,1.09345794 C16.2641096,1.37383178 16.1616438,1.59813084 15.9660274,1.77570093 C15.770411,1.94392523 15.4909589,2.05607477 15.1276712,2.10280374 C15.3139726,2.19626168 15.4630137,2.29906542 15.5841096,2.40186916 C15.7052055,2.51401869 15.8728767,2.71028037 16.0778082,2.99065421 L16.5994521,3.69158879 L15.5654795,3.69158879 L14.9413699,2.90654206 C14.7178082,2.62616822 14.5594521,2.44859813 14.4849315,2.37383178 C14.4010959,2.29906542 14.3172603,2.25233645 14.2241096,2.22429907 C14.1309589,2.19626168 13.9912329,2.18691589 13.7863014,2.18691589 L13.6093151,2.18691589 L13.6093151,3.69158879 L12.7523288,3.69158879 L12.7523288,3.70093458 Z M13.6093151,1.61682243 L14.2520548,1.61682243 C14.6432877,1.61682243 14.8947945,1.60747664 14.9972603,1.57943925 C15.099726,1.55140187 15.1928767,1.5046729 15.2580822,1.43925234 C15.3232877,1.36448598 15.3605479,1.27102804 15.3605479,1.14953271 C15.3605479,1.03738318 15.3232877,0.943925234 15.2580822,0.869158879 C15.1928767,0.803738318 15.099726,0.747663551 14.9879452,0.728971963 C14.9041096,0.710280374 14.6712329,0.700934579 14.2893151,0.700934579 L13.6093151,0.700934579 L13.6093151,1.61682243 Z" id="XMLID_28_"></path>
                        <path d="M16.8975342,1.92523364 C16.8975342,1.4953271 16.9906849,1.14018692 17.1769863,0.859813084 C17.3632877,0.579439252 17.6054795,0.373831776 17.9035616,0.242990654 C18.2016438,0.102803738 18.5649315,0.0373831776 18.9841096,0.0373831776 C19.5989041,0.0373831776 20.0926027,0.196261682 20.4838356,0.523364486 C20.8657534,0.85046729 21.0613699,1.30841121 21.0613699,1.90654206 C21.0613699,2.51401869 20.8564384,2.98130841 20.4465753,3.31775701 C20.0832877,3.61682243 19.5989041,3.76635514 18.9841096,3.76635514 C18.36,3.76635514 17.8756164,3.61682243 17.5123288,3.31775701 C17.1024658,2.98130841 16.8975342,2.51401869 16.8975342,1.92523364 Z M17.7824658,1.89719626 C17.7824658,2.30841121 17.8942466,2.62616822 18.1271233,2.8317757 C18.36,3.03738318 18.6394521,3.14018692 18.9747945,3.14018692 C19.3194521,3.14018692 19.5989041,3.03738318 19.8224658,2.8317757 C20.0460274,2.62616822 20.1578082,2.30841121 20.1578082,1.88785047 C20.1578082,1.46728972 20.0460274,1.1588785 19.8317808,0.962616822 C19.6175342,0.76635514 19.3287671,0.663551402 18.9747945,0.663551402 C18.6208219,0.663551402 18.3320548,0.76635514 18.1178082,0.962616822 C17.8942466,1.1588785 17.7824658,1.47663551 17.7824658,1.89719626 Z" id="XMLID_35_"></path>
                        <polygon id="XMLID_38_" points="22.8312329 3.70093458 21.2942466 0.0934579439 22.2350685 0.0934579439 23.3249315 2.76635514 24.3775342 0.0934579439 25.299726 0.0934579439 23.7534247 3.70093458"></polygon>
                        <polygon id="XMLID_40_" points="25.7282192 3.70093458 25.7282192 0.0934579439 28.9046575 0.0934579439 28.9046575 0.700934579 26.5852055 0.700934579 26.5852055 1.5046729 28.7369863 1.5046729 28.7369863 2.11214953 26.5852055 2.11214953 26.5852055 3.09345794 28.9791781 3.09345794 28.9791781 3.70093458"></polygon>
                        <path d="M29.7150685,0.0934579439 L31.2893151,0.0934579439 C31.689863,0.0934579439 31.9879452,0.121495327 32.1928767,0.186915888 C32.3978082,0.252336449 32.5841096,0.355140187 32.7517808,0.495327103 C32.9194521,0.635514019 33.0591781,0.831775701 33.1523288,1.06542056 C33.2454795,1.29906542 33.3013699,1.58878505 33.3013699,1.93457944 C33.3013699,2.24299065 33.2547945,2.51401869 33.1523288,2.74766355 C33.049863,2.98130841 32.9194521,3.1588785 32.7610959,3.29906542 C32.6027397,3.42990654 32.4164384,3.53271028 32.1928767,3.60747664 C31.9693151,3.6728972 31.689863,3.71028037 31.3358904,3.71028037 L29.7150685,3.71028037 L29.7150685,0.0934579439 Z M30.5720548,0.710280374 L30.5720548,3.09345794 L31.2241096,3.09345794 C31.5035616,3.09345794 31.6991781,3.07476636 31.829589,3.03738318 C31.96,3 32.0531507,2.94392523 32.1369863,2.87850467 C32.2208219,2.80373832 32.2860274,2.69158879 32.3326027,2.53271028 C32.3884932,2.37383178 32.4071233,2.1682243 32.4071233,1.90654206 C32.4071233,1.63551402 32.3791781,1.42990654 32.3232877,1.27102804 C32.2673973,1.11214953 32.1835616,1 32.0717808,0.906542056 C31.96,0.822429907 31.820274,0.757009346 31.6619178,0.728971963 C31.5408219,0.710280374 31.3079452,0.700934579 30.9632877,0.700934579 L30.5720548,0.700934579 L30.5720548,0.710280374 Z" id="XMLID_42_"></path>
                        <path d="M35.7046575,3.70093458 L35.7046575,0.0934579439 L37.0926027,0.0934579439 C37.6142466,0.0934579439 37.949589,0.112149533 38.1079452,0.14953271 C38.3594521,0.205607477 38.5736986,0.327102804 38.7413699,0.504672897 C38.9090411,0.682242991 38.9928767,0.925233645 38.9928767,1.20560748 C38.9928767,1.46728972 38.9183562,1.68224299 38.7786301,1.85981308 C38.6389041,2.03738318 38.4619178,2.1588785 38.2476712,2.23364486 C38.0334247,2.30841121 37.6608219,2.3364486 37.1391781,2.3364486 L36.5709589,2.3364486 L36.5709589,3.70093458 L35.7046575,3.70093458 Z M36.5709589,0.710280374 L36.5709589,1.73831776 L37.0460274,1.73831776 C37.3720548,1.73831776 37.5863014,1.71962617 37.6980822,1.69158879 C37.809863,1.6635514 37.9123288,1.60747664 37.9775342,1.52336449 C38.0520548,1.43925234 38.0893151,1.34579439 38.0893151,1.22429907 C38.0893151,1.10280374 38.0520548,1 37.9775342,0.925233645 C37.9030137,0.841121495 37.809863,0.785046729 37.6980822,0.757009346 C37.5863014,0.728971963 37.3534247,0.719626168 36.990137,0.719626168 L36.5709589,0.719626168 L36.5709589,0.710280374 Z" id="XMLID_45_"></path>
                        <path d="M39.5238356,1.92523364 C39.5238356,1.4953271 39.6169863,1.14018692 39.8032877,0.859813084 C39.989589,0.579439252 40.2317808,0.373831776 40.529863,0.242990654 C40.8279452,0.102803738 41.1912329,0.0373831776 41.610411,0.0373831776 C42.2252055,0.0373831776 42.7282192,0.196261682 43.110137,0.523364486 C43.4920548,0.85046729 43.6876712,1.30841121 43.6876712,1.90654206 C43.6876712,2.51401869 43.4827397,2.98130841 43.0728767,3.31775701 C42.709589,3.61682243 42.2252055,3.76635514 41.610411,3.76635514 C40.9863014,3.76635514 40.5019178,3.61682243 40.1386301,3.31775701 C39.7287671,2.98130841 39.5238356,2.51401869 39.5238356,1.92523364 Z M40.4180822,1.89719626 C40.4180822,2.30841121 40.529863,2.62616822 40.7627397,2.8317757 C40.9956164,3.03738318 41.2750685,3.14018692 41.610411,3.14018692 C41.9550685,3.14018692 42.2345205,3.03738318 42.4580822,2.8317757 C42.6816438,2.62616822 42.7934247,2.30841121 42.7934247,1.88785047 C42.7934247,1.46728972 42.6816438,1.1588785 42.4673973,0.962616822 C42.2531507,0.76635514 41.9643836,0.663551402 41.610411,0.663551402 C41.2564384,0.663551402 40.9676712,0.76635514 40.7534247,0.962616822 C40.5391781,1.1588785 40.4180822,1.47663551 40.4180822,1.89719626 Z" id="XMLID_48_"></path>
                        <path d="M44.3583562,3.70093458 L44.3583562,0.0934579439 L46.1841096,0.0934579439 C46.649863,0.0934579439 46.9852055,0.121495327 47.1808219,0.186915888 C47.3764384,0.252336449 47.5441096,0.364485981 47.6745205,0.523364486 C47.8049315,0.682242991 47.870137,0.878504673 47.870137,1.09345794 C47.870137,1.37383178 47.7676712,1.59813084 47.5720548,1.77570093 C47.3764384,1.94392523 47.0969863,2.05607477 46.7336986,2.10280374 C46.92,2.19626168 47.0690411,2.29906542 47.190137,2.40186916 C47.3112329,2.51401869 47.4789041,2.71028037 47.6838356,2.99065421 L48.2054795,3.69158879 L47.1715068,3.69158879 L46.5473973,2.90654206 C46.3238356,2.62616822 46.1654795,2.44859813 46.0909589,2.37383178 C46.0071233,2.29906542 45.9232877,2.25233645 45.830137,2.22429907 C45.7369863,2.19626168 45.5972603,2.18691589 45.3923288,2.18691589 L45.2153425,2.18691589 L45.2153425,3.69158879 L44.3583562,3.69158879 L44.3583562,3.70093458 Z M45.2246575,1.61682243 L45.8673973,1.61682243 C46.2586301,1.61682243 46.510137,1.60747664 46.6126027,1.57943925 C46.7150685,1.55140187 46.8082192,1.5046729 46.8734247,1.43925234 C46.9386301,1.36448598 46.9758904,1.27102804 46.9758904,1.14953271 C46.9758904,1.03738318 46.9386301,0.943925234 46.8734247,0.869158879 C46.8082192,0.803738318 46.7150685,0.747663551 46.6032877,0.728971963 C46.5194521,0.710280374 46.2865753,0.700934579 45.9046575,0.700934579 L45.2246575,0.700934579 L45.2246575,1.61682243 Z" id="XMLID_51_"></path>
                        <polygon id="XMLID_54_" points="49.6493151 3.70093458 49.6493151 0.700934579 48.3731507 0.700934579 48.3731507 0.0934579439 51.7824658 0.0934579439 51.7824658 0.700934579 50.5156164 0.700934579 50.5156164 3.70093458"></polygon>
                        <path d="M55.7693151,3.70093458 L54.8284932,3.70093458 L54.4558904,2.88785047 L52.7419178,2.88785047 L52.3879452,3.70093458 L51.4657534,3.70093458 L53.1331507,0.0934579439 L54.0460274,0.0934579439 L55.7693151,3.70093458 Z M54.1764384,2.27102804 L53.580274,0.934579439 L53.0027397,2.27102804 L54.1764384,2.27102804 Z" id="XMLID_56_"></path>
                        <polygon id="XMLID_59_" points="56.2443836 3.70093458 56.2443836 0.121495327 57.1106849 0.121495327 57.1106849 3.08411215 59.2624658 3.08411215 59.2624658 3.69158879 56.2443836 3.69158879"></polygon>
                    </g>
                    <g id="LOGO" transform="translate(3.632877, 2.897196)">
                        <g id="GPWA" transform="translate(0.186301, 0.280374)" fill="#949FB6">
                            <path d="M8.75616438,8.41121495 L15.1276712,8.41121495 L15.1276712,8.80373832 C15.1276712,10.4299065 14.8575342,11.7196262 14.3265753,12.6915888 C13.7024658,13.8130841 12.8082192,14.7102804 11.6438356,15.3831776 C10.4794521,16.0560748 9.23123288,16.3925234 7.88986301,16.3925234 C5.73808219,16.3925234 3.89369863,15.6168224 2.35671233,14.0747664 C0.810410959,12.5233645 0.0465753425,10.6542056 0.0465753425,8.47663551 C0.0465753425,6.28037383 0.829041096,4.41121495 2.38465753,2.85981308 C3.94027397,1.30841121 5.82191781,0.523364486 8.02027397,0.523364486 C9.76219178,0.523364486 11.3178082,1.04672897 12.6964384,2.08411215 C13.2646575,2.51401869 13.8515068,3.10280374 14.4569863,3.85046729 L13.1994521,5 C11.7463014,3.08411215 10.0323288,2.12149533 8.03890411,2.12149533 C6.2969863,2.12149533 4.81589041,2.73831776 3.59561644,3.98130841 C2.37534247,5.24299065 1.76054795,6.73831776 1.76054795,8.5046729 C1.76054795,10.2056075 2.3660274,11.6728972 3.58630137,12.9158879 C4.79726027,14.1588785 6.24109589,14.7757009 7.90849315,14.7757009 C8.85863014,14.7757009 9.77150685,14.5327103 10.6471233,14.0560748 C11.5227397,13.5700935 12.2027397,12.9439252 12.6778082,12.1588785 C13.0317808,11.588785 13.2367123,10.8691589 13.2926027,10 L8.75616438,10 L8.75616438,8.41121495 Z" id="XMLID_81_"></path>
                            <path d="M19.0865753,9.40186916 L19.0865753,16.1121495 L17.3632877,16.1121495 L17.3632877,0.775700935 L20.1391781,0.775700935 C21.8624658,0.775700935 23.1479452,1.14018692 23.9863014,1.85981308 C24.9364384,2.6728972 25.4115068,3.75700935 25.4115068,5.10280374 C25.4115068,6.39252336 24.9923288,7.42990654 24.1632877,8.21495327 C23.3342466,9 22.1326027,9.40186916 20.5769863,9.40186916 L19.0865753,9.40186916 Z M19.0865753,7.8317757 L20.4652055,7.8317757 C21.5084932,7.8317757 22.309589,7.58878505 22.8871233,7.11214953 C23.4646575,6.63551402 23.7441096,5.95327103 23.7441096,5.07476636 C23.7441096,4.21495327 23.4646575,3.55140187 22.9150685,3.07476636 C22.3654795,2.59813084 21.5084932,2.36448598 20.3441096,2.36448598 L19.0865753,2.36448598 L19.0865753,7.8317757 Z" id="XMLID_10_"></path>
                            <polygon id="XMLID_7_" points="28.3830137 0.775700935 32.4630137 12.271028 37.2509589 0 41.7687671 12.2803738 46.2586301 0.785046729 48.1123288 0.785046729 41.7221918 16.8971963 37.2043836 4.64485981 32.3884932 16.8971963 26.52 0.785046729 28.3830137 0.785046729"></polygon>
                            <path d="M56.4679452,11.7663551 L49.9380822,11.7663551 L48.1030137,16.1121495 L46.2493151,16.1121495 L53.2821918,0.0373831776 L60.1567123,16.1121495 L58.2750685,16.1121495 L56.4679452,11.7663551 Z M55.8065753,10.1775701 L53.2635616,4.03738318 L50.6553425,10.1775701 L55.8065753,10.1775701 Z" id="XMLID_3_"></path>
                        </g>
                        <g id="OUTLINES" fill="#FFFFFF">
                            <path d="M8.20657534,0.803738318 C9.94849315,0.803738318 11.5041096,1.3271028 12.8827397,2.36448598 C13.4509589,2.79439252 14.0378082,3.38317757 14.6432877,4.13084112 L13.3857534,5.28037383 C11.9326027,3.36448598 10.2186301,2.40186916 8.22520548,2.40186916 C6.48328767,2.40186916 5.00219178,3.01869159 3.78191781,4.26168224 C2.56164384,5.52336449 1.94684932,7.01869159 1.94684932,8.78504673 C1.94684932,10.4859813 2.55232877,11.953271 3.77260274,13.1962617 C4.98356164,14.4392523 6.42739726,15.0560748 8.09479452,15.0560748 C9.04493151,15.0560748 9.95780822,14.8130841 10.8334247,14.3364486 C11.7090411,13.8504673 12.3890411,13.2242991 12.8641096,12.4392523 C13.2180822,11.8691589 13.4230137,11.1495327 13.4789041,10.2803738 L8.94246575,10.2803738 L8.94246575,8.69158879 L15.3139726,8.69158879 L15.3139726,9.08411215 C15.3139726,10.7102804 15.0438356,12 14.5128767,12.9719626 C13.8887671,14.0934579 12.9945205,14.9906542 11.830137,15.6635514 C10.6657534,16.3364486 9.41753425,16.6728972 8.07616438,16.6728972 C5.92438356,16.6728972 4.08,15.8971963 2.5430137,14.3551402 C0.996712329,12.8037383 0.232876712,10.9345794 0.232876712,8.75700935 C0.232876712,6.56074766 1.01534247,4.69158879 2.5709589,3.14018692 C4.12657534,1.57943925 6.00821918,0.803738318 8.20657534,0.803738318 Z M8.20657534,0.61682243 C5.96164384,0.61682243 4.02410959,1.42056075 2.44054795,3.00934579 C0.856986301,4.59813084 0.0465753425,6.53271028 0.0465753425,8.76635514 C0.0465753425,10.9813084 0.838356164,12.9065421 2.40328767,14.4859813 C3.96821918,16.0654206 5.87780822,16.8598131 8.06684932,16.8598131 C9.43616438,16.8598131 10.7309589,16.5140187 11.9139726,15.8224299 C13.0969863,15.1308411 14.0284932,14.2056075 14.6619178,13.0654206 C15.2115068,12.0747664 15.4909589,10.7383178 15.4909589,9.08411215 L15.4909589,8.69158879 L15.4909589,8.5046729 L15.3046575,8.5046729 L8.94246575,8.5046729 L8.75616438,8.5046729 L8.75616438,8.69158879 L8.75616438,10.2803738 L8.75616438,10.4672897 L8.94246575,10.4672897 L13.2739726,10.4672897 C13.1994521,11.2149533 13.0038356,11.8504673 12.6964384,12.3457944 C12.24,13.0934579 11.5786301,13.7102804 10.740274,14.1775701 C9.89260274,14.6448598 8.99835616,14.8785047 8.09479452,14.8785047 C6.49260274,14.8785047 5.07671233,14.271028 3.91232877,13.0747664 C2.73863014,11.8785047 2.14246575,10.4299065 2.14246575,8.79439252 C2.14246575,7.09345794 2.73863014,5.61682243 3.92164384,4.42056075 C5.10465753,3.22429907 6.54849315,2.61682243 8.23452055,2.61682243 C10.1534247,2.61682243 11.830137,3.56074766 13.2460274,5.42056075 L13.3671233,5.57943925 L13.5161644,5.43925234 L14.7736986,4.28971963 L14.9041096,4.1682243 L14.7923288,4.02803738 C14.1775342,3.27102804 13.5720548,2.6635514 12.9945205,2.22429907 C11.5879452,1.1588785 9.97643836,0.61682243 8.20657534,0.61682243 Z" id="XMLID_13_"></path>
                            <path d="M19.3660274,16.4859813 L17.4564384,16.4859813 L17.4564384,0.962616822 L20.3254795,0.962616822 C22.0673973,0.962616822 23.3808219,1.3364486 24.2378082,2.06542056 C25.2065753,2.89719626 25.6909589,4.00934579 25.6909589,5.37383178 C25.6909589,6.68224299 25.2624658,7.75700935 24.4147945,8.56074766 C23.5671233,9.36448598 22.3375342,9.76635514 20.7632877,9.76635514 L19.3660274,9.76635514 L19.3660274,16.4859813 Z M17.6520548,16.2990654 L19.1890411,16.2990654 L19.1890411,9.58878505 L20.7726027,9.58878505 C22.300274,9.58878505 23.4832877,9.19626168 24.2936986,8.42990654 C25.1041096,7.6635514 25.5139726,6.63551402 25.5139726,5.38317757 C25.5139726,4.06542056 25.0482192,3 24.1260274,2.21495327 C23.3063014,1.51401869 22.030137,1.1588785 20.3347945,1.1588785 L17.6520548,1.1588785 L17.6520548,16.2990654 Z M20.6515068,8.20560748 L19.179726,8.20560748 L19.179726,2.55140187 L20.530411,2.55140187 C21.7041096,2.55140187 22.5890411,2.79439252 23.1572603,3.28971963 C23.7254795,3.78504673 24.0142466,4.47663551 24.0142466,5.36448598 C24.0142466,6.26168224 23.7161644,6.97196262 23.12,7.46728972 C22.5424658,7.96261682 21.7041096,8.20560748 20.6515068,8.20560748 Z M19.3660274,8.01869159 L20.6515068,8.01869159 C21.6668493,8.01869159 22.4586301,7.78504673 23.0082192,7.31775701 C23.5578082,6.85981308 23.8372603,6.19626168 23.8372603,5.35514019 C23.8372603,4.53271028 23.5671233,3.87850467 23.0454795,3.42990654 C22.5145205,2.97196262 21.6761644,2.73831776 20.539726,2.73831776 L19.3753425,2.73831776 L19.3753425,8.01869159 L19.3660274,8.01869159 Z" id="XMLID_73_"></path>
                            <path d="M32.5747945,17.4392523 L26.5758904,0.962616822 L28.6345205,0.962616822 L32.6493151,12.2803738 L37.4372603,0.00934579439 L41.9550685,12.2897196 L46.379726,0.962616822 L48.4383562,0.962616822 L41.9084932,17.4299065 L37.3906849,5.18691589 L32.5747945,17.4392523 Z M37.3906849,4.6635514 L41.9084932,16.9158879 L48.1589041,1.14953271 L46.5008219,1.14953271 L41.9457534,12.8130841 L37.4372603,0.542056075 L32.6493151,12.8224299 L28.5041096,1.14953271 L26.8460274,1.14953271 L32.5841096,16.9158879 L37.3906849,4.6635514 Z" id="XMLID_9_"></path>
                            <path d="M60.4920548,16.4859813 L58.4054795,16.4859813 L56.5983562,12.1401869 L50.189589,12.1401869 L48.3545205,16.4859813 L46.2958904,16.4859813 L53.4684932,0.0841121495 L60.4920548,16.4859813 Z M58.5265753,16.2990654 L60.2032877,16.2990654 L53.4684932,0.560747664 L46.5753425,16.2990654 L48.2241096,16.2990654 L50.0591781,11.953271 L56.710137,11.953271 L58.5265753,16.2990654 Z M56.1326027,10.5514019 L50.6926027,10.5514019 L53.449863,4.07476636 L56.1326027,10.5514019 Z M50.9813699,10.364486 L55.8531507,10.364486 L53.449863,4.56074766 L50.9813699,10.364486 Z" id="XMLID_63_"></path>
                        </g>
                    </g>
                </g>
            </g>
        </g>
    </g>
</svg>