<?xml version="1.0" encoding="UTF-8"?>
<svg width="58px" height="57px" viewBox="0 0 58 57" version="1.1" xmlns="http://www.w3.org/2000/svg" xmlns:xlink="http://www.w3.org/1999/xlink">
    <!-- Generator: Sketch 51.3 (57544) - http://www.bohemiancoding.com/sketch -->
    <title>icon</title>
    <desc>Created with Sketch.</desc>
    <defs>
        <linearGradient x1="50%" y1="0%" x2="50%" y2="100%" id="linearGradient-1">
            <stop stop-color="#B4EC51" offset="0%"></stop>
            <stop stop-color="#429321" offset="100%"></stop>
        </linearGradient>
    </defs>
    <g id="Page-1" stroke="none" stroke-width="1" fill="none" fill-rule="evenodd">
        <g id="aff_des_casino_item" transform="translate(-445.000000, -656.000000)" fill-rule="nonzero">
            <g id="sucs_block" transform="translate(405.000000, 656.000000)">
                <g id="sucs_item">
                    <g id="icon" transform="translate(40.570988, 0.000000)">
                        <g id="planets_2-02">
                            <path d="M1.99297872,32.739375 C1.00345599,30.7242683 0.461952773,28.5264783 0.404255319,26.29125 L2.0212766,24.9375 C2.19165892,21.9739107 3.26769861,19.1288549 5.10978723,16.7714583 L5.73234043,16.684375 C7.67211901,12.3935108 10.613064,8.60817481 14.3187234,5.63270833 C14.4834271,5.01401697 14.791954,4.44097658 15.2202128,3.95833333 C16.1055319,3.87125 17.8074468,3.88708333 17.8074468,3.88708333 C17.8074468,3.88708333 19.6468085,2.98854167 20.6170213,2.5175 C21.5183377,2.70200758 22.3836344,3.02674973 23.18,3.479375 C28.0961991,1.76832876 33.2302857,0.730668062 38.4365957,0.395833333 C38.2908271,1.48794803 38.2704875,2.5926168 38.3759574,3.68916667 C38.6377811,3.82436936 38.8677599,4.01180094 39.0510638,4.239375 C39.022766,5.15375 39.0510638,6.07604167 39.0065957,6.99041667 C40.5953191,6.566875 43.7323404,5.71583333 43.7323404,5.71583333 C44.081751,5.81843398 44.4212826,5.9508874 44.7470213,6.11166667 C47.4075086,5.67427255 50.1158383,5.58773947 52.7997872,5.854375 C52.8644681,6.67770833 52.9291489,7.588125 52.9938298,8.41145833 C53.1434043,10.3589583 52.6380851,12.3064583 52.0559574,14.1747917 C52.3348936,14.3647917 52.6623404,14.499375 52.9412766,14.6854167 C52.6373083,17.113675 52.64274,19.5695119 52.9574468,21.9964583 C54.2388369,22.1490362 55.5334458,22.1636373 56.8180851,22.04 C55.3870213,24.8702083 54.873617,28.1991667 54.9180851,31.3579167 C54.3668742,31.9618687 53.8767789,32.6167393 53.4546809,33.3133333 C53.5939473,35.4506915 53.4306991,37.5966403 52.9695745,39.6902083 C51.9222208,42.4823979 50.4160758,45.0883098 48.5106383,47.405 C47.9082979,48.129375 46.5338298,49.4158333 46.5338298,49.4158333 C46.5338298,49.4158333 44.876383,52.3252083 43.7040426,53.5958333 L40.2234043,53.9916667 C37.4298983,55.3603846 34.3049121,55.9479806 31.1923404,55.6897917 C31.1923404,55.6897917 28.5606383,56.21625 27.1942553,56.4577083 L25.4680851,55.6383333 C25.4680851,55.6383333 18.7817021,55.5908333 16.1176596,53.6829167 C15.3243236,53.7174419 14.5294377,53.6896446 13.7406383,53.5997917 C11.3151064,51.9372917 9.29382979,49.245625 7.50702128,46.9933333 C6.63741091,46.4824442 5.72120374,46.0517738 4.77021277,45.706875 C2.17489362,42.0454167 1.21276596,37.1291667 1.99297872,32.739375 Z" id="Shape" fill="url(#linearGradient-1)"></path>
                            <path d="M16.2106383,8.87854167 C10.8986851,12.8574511 7.04301143,18.411474 5.21893617,24.711875 C9.97297872,29.7627083 16.0448936,33.4716667 23.8510638,35.494375 C27.4893617,36.4364583 30.9134043,38.2058333 34.6729787,38 C34.163617,37.560625 33.5653191,36.8797917 33.0559574,36.444375 C36.1977607,35.1025331 39.0719563,33.2263221 41.5453191,30.9027083 C41.4038298,30.649375 41.1046809,30.174375 40.9631915,29.9210417 C43.6274674,26.5665307 45.6789937,22.7859951 47.0270213,18.7466667 C48.1831915,15.41375 47.4312766,11.435625 45.5514894,8.455 C42.1597872,15.58 35.7644681,21.2404167 28.2695745,24.0666667 C26.1238194,24.9415726 23.8265343,25.4051638 21.5023404,25.4322917 C19.1859574,25.3966667 16.8291489,24.6960417 15.0948936,23.191875 C13.11528,21.3975386 12.0743885,18.8204028 12.2651064,16.185625 C12.4631915,13.5770833 14.3025532,10.6875 16.2106383,8.87854167 Z" id="Shape" fill="#126B26" opacity="0.15" style="mix-blend-mode: multiply;"></path>
                            <path d="M9.39893617,19.21375 C8.20549228,20.8225789 7.31433325,22.6267424 6.76723404,24.5416667 C13.4374468,31.1283333 22.3512766,35.8902083 31.7542553,37.0104167 C31.4753191,36.6145833 31.35,36.2504167 31.0710638,35.8585417 C34.282695,34.5744266 37.3531961,32.9750097 40.2355319,31.0847917 C41.8970213,26.6910417 43.8212766,22.0835417 45.9234043,17.8758333 C43.5989362,20.698125 41.1087234,23.4808333 38.5982979,26.1447917 C36.8721277,27.9735417 35.0246809,29.7508333 32.7729787,30.8947917 C30.056383,32.3 26.8951064,32.6839583 23.8510638,32.4583333 C20.212766,32.1772917 16.5744681,30.9977083 13.7891489,28.654375 C11.0038298,26.3110417 9.02702128,22.77625 9.39893617,19.21375 Z" id="Shape" fill="#126B26" opacity="0.15" style="mix-blend-mode: multiply;"></path>
                            <path d="M8.95425532,38.9697917 C13.0655319,42.8529167 19.1334043,44.3610417 24.8131915,43.7435417 C30.4929787,43.1260417 35.8008511,40.576875 40.4093617,37.26375 C39.7857877,39.1198049 38.6293153,40.7606555 37.0782979,41.99 C41.9575122,40.9421961 46.3487256,38.3506735 49.5738298,34.615625 C47.9244309,41.1275459 43.3008114,46.5310904 37.0419149,49.2614583 C30.7092984,51.9172235 23.4831492,51.5861243 17.4314894,48.3629167 C13.5425532,46.2610417 11.6910638,42.4214583 8.95425532,38.9697917 Z" id="Shape" fill="#126B26" opacity="0.15" style="mix-blend-mode: multiply;"></path>
                            <path d="M24.9951064,51.1020833 C28.0270213,51.1535417 33.8240426,49.9145833 33.8240426,49.9145833 C33.8240426,49.9145833 40.3891489,49.2654167 42.7904255,46.989375 C42.7202606,47.4543104 42.7861408,47.9291969 42.9804255,48.3589583 C45.9031915,48.224375 48.4540426,46.09875 49.7234043,43.5179167 C50.992766,40.9370833 50.992766,38.035625 50.8068085,35.17375 C48.2397872,36.2820833 46.2670213,38.64125 43.9344681,40.1454167 C41.8017321,41.4980992 39.3743656,42.3414349 36.8478723,42.6075 C38.9921246,42.1532663 40.9571381,41.1032707 42.5074468,39.5833333 C41.9253191,39.6070833 41.2582979,39.6625 40.6721277,39.68625 C43.5238522,38.6584334 46.0759319,36.9639568 48.106383,34.7502083 C47.7021277,34.639375 47.382766,34.520625 46.9865957,34.4097917 C48.8865957,33.8952083 51.9468085,31.6389583 51.9468085,31.6389583 C51.9468085,31.6389583 54.2834043,25.6183333 56.122766,22.1033333 C56.357234,22.1033333 56.5917021,22.075625 56.8180851,22.051875 C55.3870213,24.8820833 54.873617,28.2110417 54.9180851,31.3697917 C54.3668742,31.9737437 53.8767789,32.6286143 53.4546809,33.3252083 C53.5939473,35.4625665 53.4306991,37.6085153 52.9695745,39.7020833 C51.9210309,42.4901006 50.4149328,45.0919205 48.5106383,47.405 C47.9082979,48.129375 46.5338298,49.4158333 46.5338298,49.4158333 C46.5338298,49.4158333 44.876383,52.3252083 43.7040426,53.5958333 L41.0925532,53.900625 C42.7321553,52.6378129 44.206661,51.182061 45.482766,49.56625 C38.8205956,51.3782645 31.861338,51.8999571 24.9951064,51.1020833 Z" id="Shape" fill="#126B26"></path>
                            <path d="M0.452765957,26.9879167 C0.590053167,28.9836622 1.11413571,30.9355667 1.99702128,32.739375 C1.21276596,37.1291667 2.17893617,42.0454167 4.77021277,45.7108333 C5.72119463,46.0557532 6.63739985,46.4864226 7.50702128,46.9972917 C9.29787234,49.2495833 11.3191489,51.94125 13.7446809,53.5997917 C14.5334802,53.6896446 15.3283662,53.7174419 16.1217021,53.6829167 L16.1621277,53.710625 C16.1565824,53.3619436 16.0909803,53.0166787 15.9680851,52.689375 C14.2061343,52.1515986 12.5907873,51.2315371 11.2423404,49.9977083 C10.8402905,49.6567713 10.5059037,49.2461539 10.2559574,48.7864583 C9.99094035,48.342961 9.9349196,47.8088596 10.1023404,47.321875 C11.67565,48.4668828 13.690488,48.8605836 15.5921277,48.3945833 C13.5098811,47.8535323 11.4806743,47.1329384 9.52829787,46.24125 C7.57632976,45.3409401 5.90259899,43.9506394 4.67723404,42.2116667 C2.90255319,39.5239583 2.73680851,36.1633333 2.80957447,32.94125 C3.19428563,33.0566929 3.58578199,33.1492233 3.98191489,33.2183333 C4.19212766,33.7210417 4.38617021,34.3029167 4.58021277,34.8016667 C10.5389362,38 17.3425532,39.8485417 24.1582979,39.6466667 C23.0748936,39.3260417 20.9242553,38.4235417 20.9242553,38.4235417 C16.0852555,37.2050298 11.4774099,35.2337689 7.27659574,32.585 C7.27659574,32.585 4.33765957,31.4766667 3.14914894,30.5385417 C3.39201375,30.2042932 3.72717082,29.9447743 4.11531915,29.7904167 C2.74249752,29.064129 1.50434407,28.1167229 0.452765957,26.9879167 Z" id="Shape" fill="#126B26"></path>
                            <path d="M52.7593617,5.85041667 C52.7695248,6.85419747 52.7155185,7.85761718 52.5976596,8.85479167 C52.5976596,8.85479167 50.313617,13.6483333 50.0104255,16.3320833 C49.7638298,16.2845833 49.6061702,16.233125 49.6061702,15.9877083 C48.902766,18.21625 48.4297872,22.716875 48.4297872,22.716875 L46.2306383,26.968125 C46.2306383,26.968125 45.8870213,28.8522917 45.6970213,29.7864583 C47.3388179,28.5734798 49.0606514,27.4680177 50.8512766,26.4772917 C50.7046372,26.0142169 50.683738,25.5217235 50.7906383,25.0483333 C50.9765957,23.7025 51.9387234,22.5783333 52.9291489,21.4858333 C52.6682626,19.2269976 52.6777596,16.9460528 52.9574468,14.689375 C52.6785106,14.499375 52.3510638,14.3647917 52.0721277,14.17875 C52.6542553,12.3104167 53.1595745,10.3629167 53.01,8.41541667 C52.9453191,7.59208333 52.8806383,6.68166667 52.8159574,5.85833333 L52.7593617,5.85041667 Z" id="Shape" fill="#126B26"></path>
                            <path d="M38.6508511,7.34270833 C38.7609597,7.14353901 38.8824284,6.95059506 39.0146809,6.76479167 C39.0348936,5.92166667 39.0146809,5.070625 39.0551064,4.2275 C38.8718025,3.99992594 38.6418237,3.81249436 38.38,3.67729167 C38.2737947,2.58350854 38.2927778,1.48152872 38.4365957,0.391875 C37.6716056,0.890742004 36.9652617,1.47086023 36.3304255,2.12166667 C36.7314635,2.39968467 37.0699402,2.75536038 37.3248936,3.16666667 C36.516383,3.44375 35.077234,3.906875 35.077234,3.906875 C35.077234,3.906875 33.0317021,5.9375 32.3808511,7.29125 C32.5021277,7.97604167 32.5870213,8.64895833 32.7082979,9.33375 C31.4401951,11.580614 30.6753563,14.0661677 30.4646809,16.625 C31.4083223,15.0399752 32.6908162,13.6734756 34.2242553,12.6191667 C34.6285106,12.3420833 35.2429787,12.3302083 35.7119149,12.2233333 C35.7210166,11.4076909 35.9392573,10.6073591 36.3465957,9.89583333 C36.6255319,9.321875 37.466383,8.98541667 38.0202128,8.656875 C38.1610556,8.19000542 38.3737074,7.7468672 38.6508511,7.34270833 Z" id="Shape" fill="#126B26"></path>
                            <path d="M39.3461702,25.9825 C39.3704255,26.2358333 39.4755319,26.5089583 39.4957447,26.7741667 C36.3021277,28.8522917 33.1731915,30.85125 29.9795745,32.929375 C32.2838298,32.1377083 35.3521277,30.7404167 37.2561702,29.2441667 L37.6078723,29.7270833 C39.061652,29.3891501 40.4831138,28.9296151 41.8565957,28.3535417 C44.3629787,25.15125 46.0204255,21.624375 47.5161702,17.8758333 C45.9065889,21.4718484 42.9970129,24.3588695 39.3461702,25.9825 Z" id="Shape" fill="#126B26"></path>
                            <path d="M23.5357447,14.0164583 C23.0465957,13.5375 13.9831915,16.4191667 10.1953191,18.7664583 C14.5006383,17.4641667 19.0485106,15.995625 24.2431915,15.5602083 C25.3637446,13.8409535 26.3476372,12.0398816 27.1861702,10.1729167 C26.0542553,11.578125 23.5357447,14.0164583 23.5357447,14.0164583 Z" id="Shape" fill="#126B26"></path>
                            <path d="M44.8319149,48.9170833 C34.0001292,54.6039045 20.994443,54.6661698 10.106383,49.0833333 C11.3878723,50.7220833 12.883617,52.570625 14.9251064,53.0772917 C17.5285106,53.7264583 20.0874468,55.2860417 22.763617,55.0247917 C23.8308511,54.921875 24.7485106,54.7397917 25.8157447,54.6289583 C26.3821605,55.0826887 26.977631,55.5004858 27.5985106,55.8797917 C28.8921277,55.5670833 30.1534043,55.016875 31.4874468,55.064375 C34.5193617,55.1791667 40.2597872,53.1960417 40.2597872,53.1960417 C40.2597872,53.1960417 42.0910638,53.2475 43.0895745,53.3108333 C44.4708067,52.1174773 45.5290555,50.6080494 46.17,48.9170833 C45.7374468,48.984375 45.22,48.71125 44.8319149,48.9170833 Z" id="Shape" fill="#126B26"></path>
                            <path d="M34.8710638,42.9954167 C33.856383,43.308125 32.9548936,43.39125 31.9402128,43.72375 C33.9170213,42.1997917 35.7442553,40.7233333 37.7210638,39.2033333 C30.7751005,43.7092076 22.0151317,44.5965321 14.2742553,41.5783333 C16.6229787,44.4639583 19.76,46.5658333 23.5114894,46.9260417 C27.2629787,47.28625 31.992766,45.3783333 34.8710638,42.9954167 Z" id="Shape" fill="#126B26"></path>
                            <path d="M24.2553191,38.961875 C18.3693617,37.3785417 13.3848936,33.309375 7.44638298,31.931875 C6.24913153,31.6168413 5.11286689,31.1113606 4.08297872,30.435625 L4.92382979,29.6122917 C3.59425205,28.7299025 2.36264874,27.7136717 1.24914894,26.5802083 L2.46191489,25.5510417 C2.83961001,22.8106524 3.83972043,20.1879814 5.3887234,17.8758333 C4.17572729,20.254668 3.44406427,22.8407696 3.23404255,25.4916667 C3.78412986,26.4265461 4.5113127,27.2500864 5.37659574,27.918125 C6.05574468,26.9602083 6.73085106,25.970625 7.39787234,25.0127083 C6.80001858,26.5905927 6.41409261,28.2378557 6.24978723,29.913125 C7.29239474,30.806689 8.57460126,31.3891063 9.94468085,31.5914583 C10.2988011,30.8339471 10.7352188,30.1159869 11.246383,29.45 L11.0846809,31.7141667 C15.2964497,34.4285926 19.6974601,36.8504372 24.2553191,38.961875 Z" id="Shape" fill="#126B26"></path>
                            <path d="M6.93702128,15.496875 C9.19513896,11.9871114 11.9422511,8.80295351 15.0989362,6.03645833 C15.1605535,5.58318159 15.2702965,5.13743572 15.426383,4.70645833 C16.4653191,4.67479167 17.3991489,4.59166667 18.4380851,4.56395833 C18.9864588,3.85835653 19.7493983,3.34138482 20.6170213,3.0875 C21.5624303,3.32741744 22.4936277,3.61813545 23.406383,3.95833333 C27.7389078,2.38395033 32.2840576,1.44104515 36.896383,1.15979167 C36.4486983,1.40425449 36.0456768,1.71995461 35.7038298,2.09395833 C35.9746809,2.34333333 36.2657447,2.71145833 36.5365957,2.96083333 C35.9059574,3.14291667 34.7255319,3.61 34.7255319,3.61 L31.9846809,6.68958333 C31.803791,7.52732939 31.6982804,8.37899461 31.6693617,9.23479167 C31.4165532,8.37702684 31.2953004,7.48724341 31.3095745,6.59458333 C32.0695745,5.8425 32.6880851,5.035 33.4480851,4.28291667 C33.0155319,4.32645833 32.562766,4.24333333 32.1302128,4.28291667 C32.7115468,3.86896389 33.3221596,3.49594296 33.9574468,3.16666667 C33.9574468,3.051875 33.8725532,2.90541667 33.8604255,2.77083333 C30.7943196,3.15358206 27.7683541,3.79861749 24.817234,4.69854167 C24.9951064,4.856875 25.0597872,4.97958333 25.2214894,5.13791667 C24.4129787,4.94791667 23.5438298,4.76583333 22.7353191,4.57979167 C22.4765957,4.81729167 22.1451064,5.070625 21.886383,5.308125 C20.7302128,5.23291667 19.5093617,5.25666667 18.3531915,5.18145833 C18.1914894,5.52583333 17.8882979,5.93354167 17.7265957,6.27791667 L15.7982979,6.52729167 C15.7982979,6.52729167 15.7982979,6.52729167 15.7982979,6.52729167 C16.0206383,6.64208333 16.1702128,6.756875 16.3925532,6.87166667 C12.7676489,9.20546513 9.57092652,12.1214721 6.93702128,15.496875 Z" id="Shape" fill="#126B26"></path>
                            <path d="M40.0212766,7.45354167 L43.5625532,6.139375 C44.1697866,6.26962675 44.7597973,6.46751203 45.3210638,6.72916667 C47.525083,6.12421459 49.8323328,5.96794439 52.1004255,6.27 C52.3793617,6.95479167 52.1004255,8.60145833 51.9953191,8.68458333 C51.9953191,8.68458333 50.2651064,13.074375 49.4606383,15.1960417 C49.3393617,15.12875 49.2302128,15.0258333 49.1089362,14.9545833 C48.6693185,16.6254419 48.3851787,18.3318589 48.26,20.0529167 C48.1676138,17.8022945 48.3030261,15.5482448 48.6642553,13.32375 C48.8744681,13.359375 49.0442553,13.2327083 49.2544681,13.2683333 C49.7112766,12.4291667 50.1559574,11.4870833 50.612766,10.6479167 C50.2085106,10.438125 49.7476596,10.058125 49.3070213,10.0383333 C49.9255319,9.46041667 50.4631915,8.751875 51.0817021,8.17395833 C50.8310638,7.991875 50.4874468,7.86916667 50.2408511,7.68708333 C49.626383,8.01166667 48.9189362,8.31645833 48.3044681,8.64104167 C48.3934043,8.21354167 48.377234,7.68708333 48.4661702,7.25958333 C47.5577278,7.16651133 46.6418466,7.16651133 45.7334043,7.25958333 C45.9597872,7.46541667 46.0891489,7.65541667 46.3155319,7.86916667 C45.4059574,7.493125 44.3831915,7.11708333 43.4857447,6.74104167 C42.4468085,7.22 41.1612766,7.33875 40.0212766,7.45354167 Z" id="Shape" fill="#126B26"></path>
                            <path d="M30.5091489,31.8804167 C33.430915,30.2304488 36.2644172,28.4349698 38.9985106,26.5010417 C38.9985106,26.2595833 38.9985106,25.9864583 38.9742553,25.7489583 C42.1547771,24.1018094 44.8181256,21.6389805 46.6793617,18.6239583 C44.0314894,21.2245833 40.8338298,23.2077083 37.4946809,24.878125 C37.5270213,25.3927083 37.4461702,25.8479167 37.4946809,26.3625 C37.3235146,26.5793053 37.0896937,26.7406735 36.823617,26.825625 C36.6659574,26.4654167 36.4193617,26.1566667 36.2455319,25.7964583 C36.2091489,26.2952083 36.1768085,26.8929167 36.1404255,27.3797917 C35.5247856,27.9520347 34.8501009,28.4601087 34.127234,28.8958333 C34.127234,28.69 34.046383,28.5 34.046383,28.2822917 C33.1246809,29.5885417 31.6451064,30.7285417 30.5091489,31.8804167 Z" id="Shape" fill="#126B26"></path>
                            <path d="M10.8744681,17.7452083 C12.3989107,16.288014 14.2199088,15.1617994 16.2187234,14.44 C16.4289362,14.55875 16.53,14.6735417 16.7402128,14.7922917 C17.4719149,14.3964583 18.1470213,14.0679167 18.8787234,13.6839583 C18.4799004,13.2605716 17.9576927,12.9675943 17.3829787,12.8447917 C18.807128,12.7725477 20.2350567,12.8575273 21.6397872,13.098125 C21.7812766,13.0110417 21.8661702,12.9754167 22.0076596,12.8883333 C21.623617,12.6785417 21.2880851,12.3777083 20.9040426,12.1679167 C22.6258946,11.5690693 24.3803662,11.0642651 26.1593617,10.6558333 C25.3508511,11.7602083 23.107234,13.5058333 23.107234,13.5058333 C23.107234,13.5058333 14.5531915,15.9125 10.8744681,17.7452083 Z" id="Shape" fill="#126B26"></path>
                            <path d="M55.2576596,26.5683333 C55.0898442,27.3529881 54.9643512,28.1457528 54.8817021,28.9433333 C54.8002851,29.7153088 54.7584595,30.4907968 54.756383,31.266875 C54.4829178,31.5480685 54.2340971,31.8512905 54.0125532,32.1733333 C53.77,32.5097917 53.543617,32.8502083 53.3253191,33.2025 L53.2889362,33.2579167 L53.2889362,33.3252083 C53.426097,35.438558 53.2655842,37.5603371 52.8119149,39.6308333 C52.1194049,41.4407689 51.2403246,43.1768904 50.1882979,44.8122917 C49.6603146,45.6359891 49.0839555,46.4289889 48.4621277,47.1872917 C47.820029,47.921491 47.1371525,48.6205341 46.4165957,49.28125 L46.3923404,49.305 L46.3923404,49.3327083 C45.9880851,50.0570833 45.5393617,50.7735417 45.0785106,51.4741667 C44.6459879,52.1545726 44.166503,52.8052538 43.6434043,53.4216667 L40.243617,53.8175 L40.207234,53.8175 L40.1748936,53.8175 C38.8075897,54.4993569 37.3464835,54.9833569 35.837234,55.254375 C34.3252884,55.5208045 32.7851958,55.6005932 31.2529787,55.491875 L31.196383,55.491875 L27.2670213,56.2479167 L25.5974468,55.45625 L25.5570213,55.4364583 L25.5085106,55.4364583 C24.7,55.4364583 23.8914894,55.3770833 23.1112766,55.3058333 C22.3310638,55.2345833 21.5185106,55.1395833 20.7302128,55.0089583 C19.9435983,54.8859821 19.1668413,54.7087352 18.4057447,54.4785417 C17.6504813,54.2692079 16.9330991,53.9460336 16.2793617,53.520625 L16.2146809,53.473125 L16.1338298,53.473125 C15.7489813,53.5014174 15.3625081,53.5014174 14.9776596,53.473125 C14.6017021,53.473125 14.2257447,53.425625 13.8538298,53.3939583 C12.6274467,52.5429895 11.5056077,51.5560956 10.5106383,50.4529167 C9.47978723,49.3445833 8.52170213,48.165 7.55148936,46.9933333 C8.46510638,48.2045833 9.36659574,49.42375 10.3570213,50.5835417 C11.3309021,51.7631205 12.443563,52.8260283 13.6719149,53.7502083 L13.7082979,53.7779167 L13.7648936,53.7779167 C14.1691489,53.829375 14.5734043,53.8610417 14.9776596,53.8808333 C15.3586751,53.9028677 15.7406866,53.9028677 16.1217021,53.8808333 C16.7943717,54.3109262 17.5287513,54.640449 18.3006383,54.8585417 C19.0706484,55.0980553 19.8568212,55.2845518 20.6534043,55.4166667 C21.4619149,55.55125 22.2704255,55.6502083 23.0789362,55.7175 C23.8874468,55.7847917 24.6595745,55.8322917 25.46,55.848125 L27.1538298,56.6397917 L27.2185106,56.6714583 L27.2831915,56.6714583 L31.2610638,55.9075 C32.8177889,56.0154226 34.3821818,55.9329819 35.9180851,55.6620833 C37.4532543,55.3861478 38.9399459,54.8955758 40.3325532,54.2054167 L43.7808511,53.8095833 L43.8617021,53.8095833 L43.9142553,53.7502083 C44.4723144,53.1023869 44.9816641,52.4157949 45.4382979,51.6958333 C45.8951064,50.9952083 46.3276596,50.2866667 46.7480851,49.5622917 C47.4733873,48.895532 48.1603306,48.1898631 48.8057447,47.4485417 C49.4371736,46.6840231 50.0229721,45.8844273 50.5602128,45.05375 C51.6304866,43.3897266 52.5244824,41.623069 53.2282979,39.78125 L53.2282979,39.7495833 C53.6865796,37.6596136 53.8524967,35.5183313 53.7214894,33.3845833 C53.923617,33.0639583 54.1257447,32.739375 54.3602128,32.430625 C54.5875062,32.1095096 54.8402735,31.8064198 55.1161702,31.5241667 L55.1848936,31.456875 L55.1848936,31.3697917 C55.1848936,30.578125 55.1848936,29.7864583 55.2131915,28.9947917 C55.2578865,28.199137 55.3455981,27.4063594 55.4759574,26.6197917 C55.7254172,25.0431592 56.1946896,23.5075107 56.8706383,22.0558333 C56.1252453,23.4809009 55.5825499,24.999156 55.2576596,26.5683333 Z" id="Shape" fill="#126B26"></path>
                            <path d="M53.2121277,7.944375 L53.0504255,5.8425 L53.0504255,5.67229167 L52.8765957,5.67229167 C50.1969236,5.40660365 47.4930864,5.49046134 44.8359574,5.92166667 C44.5192928,5.7624212 44.1892952,5.62999392 43.8495745,5.52583333 L43.7929787,5.52583333 L43.7282979,5.52583333 L39.2814894,6.71333333 L39.3219149,4.239375 L39.3219149,4.16020833 L39.2734043,4.10083333 C39.0881824,3.8844661 38.8650452,3.70216897 38.6144681,3.5625 C38.5178676,2.50779869 38.5395573,1.44590921 38.6791489,0.395833333 L38.7114894,0.1425 L38.452766,0.1425 C33.2581542,0.483127568 28.1357334,1.51929791 23.2285106,3.22208333 C22.437752,2.78306354 21.5829284,2.465345 20.6938298,2.28 L20.6210638,2.28 L20.556383,2.31166667 L17.787234,3.70104167 C16.9342553,3.70104167 16.0934043,3.70104167 15.2282979,3.77229167 L15.1474468,3.77229167 L15.0908511,3.835625 C14.659897,4.32004369 14.343758,4.89183763 14.1651064,5.51 C10.4863481,8.47900654 7.56103896,12.2430588 5.61914894,16.50625 L5.10170213,16.5775 L5.02085106,16.5775 L4.96829787,16.6447917 C3.12152738,19.0115642 2.0339474,21.8619183 1.84340426,24.8345833 L0.311276596,26.125 L0.234468085,26.1883333 L0.234468085,26.2872917 C0.262863103,27.4156837 0.411903408,28.5380588 0.679148936,29.6360417 C0.938915443,30.7151565 1.31707013,31.7636096 1.80702128,32.763125 C1.45961028,35.0009153 1.53773174,37.2823133 2.03744681,39.4922917 C2.52198189,41.7188699 3.45964046,43.8270549 4.79446809,45.6910417 C3.52446693,43.79924 2.65690861,41.6762026 2.24361702,39.44875 C1.82034983,37.2368158 1.82034983,34.9671426 2.24361702,32.7552083 L2.24361702,32.691875 L2.21531915,32.6285417 C1.25986093,30.6750154 0.732459519,28.5473363 0.667021277,26.3822917 L2.18297872,25.10375 L2.25170213,25.044375 L2.25170213,24.9375 C2.42374885,22.0485698 3.4692632,19.2749841 5.25531915,16.969375 L5.79297872,16.8941667 L5.90617021,16.8941667 L5.95468085,16.79125 C7.8788918,12.5221367 10.8006796,8.75548827 14.4844681,5.795 L14.5370213,5.75145833 L14.5370213,5.688125 C14.69102,5.13252442 14.9669369,4.61650237 15.3455319,4.17604167 C16.1540426,4.11270833 16.9948936,4.11270833 17.823617,4.11270833 L17.8761702,4.11270833 L17.9206383,4.08895833 L20.6574468,2.73520833 C21.510278,2.91642248 22.3287579,3.22764375 23.0829787,3.6575 L23.1678723,3.70895833 L23.2608511,3.67333333 C28.0812404,1.9910274 33.1134235,0.96027988 38.2182979,0.609583333 C38.0986629,1.63489533 38.0878249,2.66958435 38.1859574,3.69708333 L38.1859574,3.811875 L38.2910638,3.86333333 C38.504928,3.97553351 38.694416,4.12746151 38.8489362,4.310625 L38.8085106,6.97458333 L38.8085106,7.25166667 L39.0793617,7.18041667 L43.7444681,5.92166667 C44.0602073,6.0174814 44.3660832,6.14205364 44.6580851,6.29375 L44.7268085,6.33333333 L44.7995745,6.33333333 C47.383655,5.9082276 50.0134743,5.81640477 52.6219149,6.06020833 L52.7634043,7.98791667 C52.834728,8.67709394 52.8468984,9.37091425 52.7997872,10.0620833 C52.6626937,11.4515477 52.3781801,12.8232529 51.9508511,14.155 L51.9225532,14.2460417 L51.9993617,14.2975 C52.2823404,14.4795833 52.5774468,14.6022917 52.8402128,14.7645833 C52.5855186,17.178531 52.6343947,19.6139634 52.9857447,22.01625 C52.7069272,19.5902816 52.7368011,17.1398019 53.0746809,14.7210417 L53.0746809,14.65375 L53.0180851,14.6141667 C52.7512766,14.4320833 52.4682979,14.3014583 52.2095745,14.1391667 C52.6718263,12.8281248 52.9942534,11.4737561 53.1717021,10.0977083 C53.2604238,9.38317813 53.27397,8.66161527 53.2121277,7.944375 Z" id="Shape" fill="#126B26"></path>
                            <path d="M3.44021277,34.8729167 C2.63170213,37.69125 3.81212766,40.77875 5.8212766,42.94 C7.83042553,45.10125 10.5712766,46.4747917 13.3404255,47.5475 C11.8965926,46.8425733 10.6262719,45.8391154 9.61723404,44.6064583 C9.33425532,44.27 9.45553191,43.7197917 9.3706383,43.2922917 C9.14725123,43.6432128 8.82015586,43.919317 8.43276596,44.0839583 C7.49489362,43.4822917 5.9587234,41.6139583 5.9587234,41.6139583 C5.84143573,40.5029633 5.80630875,39.3851206 5.85361702,38.2691667 C5.59489362,38.7679167 5.15425532,39.2033333 4.89553191,39.7020833 C4.14413449,38.1810628 3.65250729,36.5497026 3.44021277,34.8729167 Z" id="Shape" fill="#126B26"></path>
                            <path d="M14.9251064,41.58625 C22.2883848,43.6360545 30.1745643,42.8367991 36.9529787,39.35375 C35.8861545,39.6925106 34.7783925,39.8921456 33.6582979,39.9475 C33.2321618,39.3742934 32.8766502,38.7538159 32.5991489,38.0989583 C32.6723444,38.9475943 32.379107,39.7874447 31.7906383,40.4145833 C31.2213146,41.043901 30.4056076,41.4065599 29.5470213,41.4120833 C29.0770176,41.4421868 28.6181757,41.2633461 28.2978723,40.9252083 C28.0499252,40.525505 27.9486738,40.0549299 28.0108511,39.59125 C27.1780851,40.8025 25.7429787,41.4872917 24.2714894,41.7366667 C22.7942516,41.9193807 21.2986675,41.907399 19.8246809,41.7010417 C19.655577,41.4399919 19.5881294,41.128047 19.6346809,40.8222917 C18.1047814,41.2736665 16.5219292,41.5304271 14.9251064,41.58625 Z" id="Shape" fill="#126B26"></path>
                            <path d="M41.5817021,38.6452083 C43.56283,37.7526491 45.3625064,36.5161706 46.893617,34.995625 C46.4781739,34.757444 46.017262,34.6052112 45.5393617,34.5483333 C47.5323404,33.5983333 49.4404255,32.5691667 51.4334043,31.635 C52.4161425,28.6200608 53.7139352,25.7124452 55.3061702,22.9583333 C54.6434773,22.7564286 53.9498732,22.6693575 53.2565957,22.7010417 C53.5921277,22.954375 53.8346809,23.2472917 54.1702128,23.4927083 C53.7183541,24.6489029 53.0988814,25.7353911 52.3308511,26.71875 C52.1565542,28.2667571 51.5416335,29.7356858 50.5561702,30.958125 C49.9578723,30.7602083 49.173617,30.5622917 48.5753191,30.3802083 C48.955441,30.6218935 49.2927143,30.9227256 49.5738298,31.2708333 C48.0174846,32.5932808 46.1996502,33.5876885 44.233617,34.1920833 C44.6605183,34.3659657 44.9943892,34.7057855 45.1553191,35.1302083 C44.2762701,36.5709072 43.0490706,37.7779773 41.5817021,38.6452083 Z" id="Shape" fill="#126B26"></path>
                            <path d="M11.1453191,48.9645833 C17.6456884,52.1789466 24.9616999,53.4691639 32.1989362,52.6775 C28.4811078,52.5442946 24.8175318,51.7614266 21.3810638,50.3658333 C21.0678264,50.8052758 20.5578738,51.070406 20.0106383,51.0783333 C19.5013583,51.0229846 19.0900376,50.6460091 19,50.1520833 C16.3076596,50.2075 13.6517021,49.97 11.1453191,48.9645833 Z" id="Shape" fill="#126B26" opacity="0.15" style="mix-blend-mode: multiply;"></path>
                            <path d="M26.7334043,50.6666667 C32.0217194,50.2369039 37.2253647,49.1022617 42.2002128,47.2941667 C41.0231325,47.5924823 39.7763129,47.474743 38.6791489,46.9616667 C38.6791489,47.2704167 38.5174468,47.464375 38.5053191,47.773125 C36.7938088,48.3440617 35.0186067,48.7121707 33.2176596,48.8695833 C33.1044681,48.61625 32.9346809,48.4064583 32.8134043,48.1570833 C32.735695,48.5797805 32.5735937,48.9833164 32.336383,49.3445833 C31.4380022,49.6586996 30.4961507,49.8375401 29.5429787,49.875 C29.4904255,49.7245833 29.4176596,49.5504167 29.3610638,49.4 C28.6033141,50.0250308 27.7013995,50.4597999 26.7334043,50.6666667 Z" id="Shape" fill="#126B26" opacity="0.15" style="mix-blend-mode: multiply;"></path>
                            <path d="M50.4753191,37.4972917 C50.8804142,41.5881966 48.6462108,45.4947278 44.8723404,47.2941667 C45.5302029,46.6863087 46.1334213,46.0241435 46.6753191,45.315 C47.2321448,44.6115104 47.5916688,43.7778177 47.7182979,42.8964583 C47.7182979,43.1141667 47.8638298,43.1933333 48.0821277,43.1814583 C48.3065637,43.154548 48.4984532,43.0105986 48.5834043,42.8054167 C48.6640958,42.6028768 48.6905367,42.3834932 48.6602128,42.168125 C48.6176823,41.7170793 48.4681817,41.2819877 48.223617,40.8975 C48.6885106,41.0004167 49.1614894,40.6322917 49.4768085,40.28 C49.7708645,39.9095206 49.9691827,39.4749773 50.0548936,39.0133333 C50.1721277,38.5383333 50.3176596,37.940625 50.4753191,37.4972917 Z" id="Shape" fill="#126B26" opacity="0.15" style="mix-blend-mode: multiply;"></path>
                        </g>
                        <g id="checked-(1)" transform="translate(13.000000, 18.000000)" fill="#040437">
                            <path d="M11.8724714,24 C11.2029102,24 10.5326529,23.7418699 10.0218776,23.2252189 L0.766743072,13.8707004 C-0.255581024,12.8373984 -0.255581024,11.1623671 0.766743072,10.129065 C1.78906717,9.09576298 3.44630264,9.09576298 4.46862673,10.129065 L11.8724714,17.612414 L28.5314506,0.774859291 C29.5537747,-0.258130077 31.2113969,-0.258442772 32.2330249,0.774859291 C33.2556584,1.80816135 33.2556584,3.48358349 32.2330249,4.51649469 L13.7234519,23.2252189 C13.2122899,23.7415572 12.542342,24 11.8724714,24 Z" id="Shape"></path>
                        </g>
                    </g>
                </g>
            </g>
        </g>
    </g>
</svg>