<svg xmlns="http://www.w3.org/2000/svg" xmlns:xlink="http://www.w3.org/1999/xlink" width="35" height="42" viewBox="0 0 35 42"><defs><path id="nncia" d="M634.37 1235.14a1.7 1.7 0 0 0-1.7-1.71h-6.65l.42-1.98c.32-1.51.23-3.35.04-4.64-.19-1.3-1.34-2.81-2.54-2.81h-.1c-1.03 0-1.4 1.14-1.4 2.57 0 6.97-3.4 6.86-3.4 6.86h-.86v13.71H630.53c.94 0 1.7-.76 1.7-1.71a1.7 1.7 0 0 0-1.7-1.72h1.28c.94 0 1.7-.76 1.7-1.71a1.7 1.7 0 0 0-1.7-1.71h1.28c.94 0 1.7-.77 1.7-1.72 0-1.07-.69-1.47-1.7-1.63-.5-.07-1.4-.08-1.7-.08h1.27c.94 0 1.7-.77 1.7-1.72z"/><path id="nncib" d="M612.21 1248v-15.43h5.96V1248z"/><path id="nncic" d="M613.49 1244.14c0-.94.76-1.71 1.7-1.71.95 0 1.71.77 1.71 1.72 0 .94-.76 1.71-1.7 1.71-.95 0-1.71-.77-1.71-1.72z"/><path id="nncif" d="M633.77 1236.43h-5.37c-.24 0-.43.2-.43.43 0 .24.2.43.43.43h5.73a2.76 2.76 0 0 0-1.05-.34c-.5-.08-1.4-.1-1.7-.1h1.28c.42 0 .81-.16 1.11-.42z"/><path id="nncig" d="M634.2 1239.86h-5.8c-.24 0-.43.2-.43.43 0 .24.2.43.43.43h4.52c-.3-.27-.69-.43-1.12-.43h1.28c.43 0 .82-.17 1.12-.43z"/><path id="nncih" d="M632.92 1243.29h-5.37c-.24 0-.43.2-.43.43 0 .24.2.43.43.43h4.1c-.3-.27-.7-.43-1.12-.43h1.28c.42 0 .81-.17 1.11-.43z"/><mask id="nncie" width="2" height="2" x="-1" y="-1"><path fill="#fff" d="M612 1224h17v24h-17z"/><use xlink:href="#nncia"/></mask><filter id="nncid" width="59" height="67" x="591" y="1203" filterUnits="userSpaceOnUse"><feOffset dy="1" in="SourceGraphic" result="FeOffset1123Out"/><feGaussianBlur in="FeOffset1123Out" result="FeGaussianBlur1124Out" stdDeviation="4.4 4.4"/></filter></defs><g><g transform="matrix(-1 0 0 1 644 -1216)"><g><use fill="#383838" xlink:href="#nncib"/></g><g><use fill="#d8a852" xlink:href="#nncic"/></g><g><g filter="url(#nncid)"><use fill="none" stroke-opacity=".37" stroke-width="0" mask="url(&quot;#nncie&quot;)" xlink:href="#nncia"/><use fill-opacity=".37" xlink:href="#nncia"/></g><use fill="#ffe1c0" xlink:href="#nncia"/></g><g><use fill="#f7b563" xlink:href="#nncif"/></g><g><use fill="#f7b563" xlink:href="#nncig"/></g><g><use fill="#f7b563" xlink:href="#nncih"/></g></g></g></svg>