<svg xmlns="http://www.w3.org/2000/svg" xmlns:xlink="http://www.w3.org/1999/xlink" width="193" height="152" viewBox="0 0 193 152"><defs><path id="v10aa" d="M507.31 25.63l25.96 18.21 18.7 47.3-16 31.63-29.09 25.58-28.18-25.58-16.91-31.63 19.48-47.3z"/><path id="v10ab" d="M588.33 89.65a20.68 20.68 0 0 0-2.67-6.43 12.54 12.54 0 0 0-4.11-4.12 9.55 9.55 0 0 0-4.96-1.4 6.8 6.8 0 0 0-3.3.78 5.84 5.84 0 0 0-2.29 2.25 9.28 9.28 0 0 0-1.1 3.77 17.9 17.9 0 0 0 .28 5.15c.36 1.92.92 3.66 1.67 5.21a13.71 13.71 0 0 0 2.72 3.87 11.01 11.01 0 0 0 3.42 2.3c1.22.5 2.5.75 3.84.75 1.72 0 3.2-.43 4.43-1.31a6.46 6.46 0 0 0 2.45-4.06c.4-1.83.26-4.08-.38-6.76zm-12.9-17.39c3.12 0 5.98.71 8.57 2.13a19.63 19.63 0 0 1 6.69 6.07 28.02 28.02 0 0 1 4.2 9.24c.68 2.61.97 4.99.84 7.12a11.6 11.6 0 0 1-1.68 5.56 9.58 9.58 0 0 1-4.26 3.6c-1.85.83-4.1 1.25-6.74 1.25-2.63 0-5.07-.43-7.31-1.28a17.62 17.62 0 0 1-5.83-3.61 19.2 19.2 0 0 1-4.06-5.6 26 26 0 0 1-2.21-7.09 22.9 22.9 0 0 1-.17-7.15c.32-2.17.99-4.01 2-5.53a9.84 9.84 0 0 1 4-3.5c1.67-.8 3.65-1.21 5.95-1.21zm-37 4.1l14.55 19.93-2.65-20.1c-.17-1.32-.05-2.3.37-2.95a2.1 2.1 0 0 1 1.9-.98c.88 0 1.62.33 2.22.98.6.65 1.01 1.63 1.2 2.94l3.99 26.6c.44 2.96-.56 4.45-3 4.45a4.94 4.94 0 0 1-3.17-1.1 9.78 9.78 0 0 1-1.36-1.36c-.43-.51-.86-1.04-1.29-1.58l-14.32-19.7 1.71 19.82c.12 1.29-.1 2.26-.63 2.93a2.7 2.7 0 0 1-2.21.99c-.96 0-1.76-.34-2.39-1a4.6 4.6 0 0 1-1.06-2.92l-1.79-26.1a7.99 7.99 0 0 1 .16-2.6 3.32 3.32 0 0 1 3.09-2.35c.55 0 1.03.1 1.43.3.41.2.78.47 1.1.8.33.35.68.78 1.04 1.32l1.12 1.69zm-20.5 26.7l-.7-26.65c-.03-1.38.22-2.42.77-3.11a2.6 2.6 0 0 1 2.15-1.04c.92 0 1.68.34 2.28 1.03.6.68.94 1.72 1 3.12l1.23 26.64c.06 1.4-.2 2.45-.8 3.14-.6.7-1.42 1.04-2.45 1.04-.97 0-1.8-.35-2.44-1.05-.66-.7-1-1.74-1.04-3.13zm-6.03-6.56a10 10 0 0 1-1.5 5.51 10.28 10.28 0 0 1-4.56 3.83 17.2 17.2 0 0 1-7.19 1.39c-3.31 0-6.02-.63-8.1-1.9a9.85 9.85 0 0 1-3.47-3.63 7.94 7.94 0 0 1-1.1-4.41c.05-.83.37-1.55.97-2.14.59-.59 1.31-.89 2.16-.89.7 0 1.27.24 1.72.7.45.46.83 1.14 1.12 2.05.36 1.08.77 1.98 1.22 2.7a5.18 5.18 0 0 0 1.98 1.79c.87.46 2.03.7 3.47.7 2 0 3.61-.47 4.87-1.42a4.35 4.35 0 0 0 1.9-3.54 3.8 3.8 0 0 0-.96-2.73 6.17 6.17 0 0 0-2.5-1.6 41.3 41.3 0 0 0-4.1-1.18 27.59 27.59 0 0 1-5.7-2 8.54 8.54 0 0 1-3.48-3.11 8.1 8.1 0 0 1-1.02-4.9 9.57 9.57 0 0 1 5.87-8.3 15 15 0 0 1 6.11-1.16c1.86 0 3.46.26 4.8.77a9.95 9.95 0 0 1 3.37 2.06c.9.85 1.56 1.74 1.98 2.68.43.94.64 1.86.64 2.75 0 .81-.25 1.55-.78 2.2-.54.65-1.2.98-2 .98-.73 0-1.28-.2-1.65-.59a7.75 7.75 0 0 1-1.2-1.92 8.64 8.64 0 0 0-1.98-3c-.76-.7-2.01-1.06-3.74-1.06a6.3 6.3 0 0 0-3.93 1.16 3.67 3.67 0 0 0-1.62 2.8c-.03.68.1 1.26.43 1.76.32.49.77.91 1.35 1.27.58.35 1.18.63 1.79.83.6.2 1.61.49 3.02.87 1.76.45 3.37.94 4.8 1.48a14.5 14.5 0 0 1 3.7 1.96 8.08 8.08 0 0 1 2.4 2.92c.6 1.17.9 2.61.9 4.32zm-49.25-3.07h9.62l-3.1-13.95zm11.98 9.4l-1.13-4.25h-13.32l-2.2 4.33a18.12 18.12 0 0 1-2.12 3.43c-.53.6-1.3.89-2.31.89-.86 0-1.56-.32-2.11-.95a2.49 2.49 0 0 1-.62-2.14c.08-.46.23-.94.47-1.43.23-.5.6-1.18 1.08-2.06l11.55-21.95 1.13-2.28c.43-.88.87-1.62 1.3-2.2a5.2 5.2 0 0 1 1.57-1.42 4.24 4.24 0 0 1 2.19-.54c.85 0 1.54.18 2.06.54.53.36.94.83 1.23 1.4.29.57.52 1.18.69 1.83.17.65.38 1.53.64 2.62l6.25 21.82c.54 1.66.78 2.87.72 3.62-.06.78-.44 1.5-1.14 2.16a3.46 3.46 0 0 1-3.78.69c-.36-.2-.66-.45-.88-.79a6.38 6.38 0 0 1-.69-1.52l-.58-1.8zM432.31 76.4l-2.89 11.86 15.5-14.03c.72-.67 1.32-1.17 1.79-1.5a2.95 2.95 0 0 1 1.71-.48c.88 0 1.54.29 1.97.86.44.58.58 1.29.43 2.12-.19 1-.84 1.99-1.96 2.97l-9.27 7.89 6.4 13.75c.47.95.82 1.78 1.02 2.5.2.71.24 1.41.12 2.09-.14.75-.55 1.4-1.24 1.96-.68.55-1.53.83-2.54.83-.95 0-1.68-.2-2.2-.61a3.9 3.9 0 0 1-1.18-1.63l-.72-1.85-5.11-12.45-6.62 5.37-1.7 7a5.78 5.78 0 0 1-1.72 3.14 4.12 4.12 0 0 1-2.73 1.03c-.58 0-1.1-.16-1.56-.46a2.2 2.2 0 0 1-.9-1.25 3.7 3.7 0 0 1 0-1.5c.1-.57.3-1.39.58-2.47l6.62-25.14a6.49 6.49 0 0 1 1.64-3.11 3.5 3.5 0 0 1 2.48-1.04c.92 0 1.58.34 1.98 1.03.4.68.44 1.72.1 3.12z"/><path id="v10ac" d="M414.19 112.36V67.64H599.8v44.72zM588.7 96.4a6.46 6.46 0 0 1-2.45 4.06 7.45 7.45 0 0 1-4.43 1.31 9.93 9.93 0 0 1-3.84-.76 11.01 11.01 0 0 1-3.42-2.3 13.71 13.71 0 0 1-2.72-3.86 20.46 20.46 0 0 1-1.67-5.2 17.9 17.9 0 0 1-.29-5.16 9.28 9.28 0 0 1 1.11-3.77 5.84 5.84 0 0 1 2.3-2.25 6.8 6.8 0 0 1 3.29-.78c1.74 0 3.4.47 4.96 1.4 1.57.93 2.94 2.3 4.1 4.12a20.68 20.68 0 0 1 2.68 6.43c.64 2.68.77 4.93.38 6.76zm-19.23-22.94c-1.67.8-3 1.97-4 3.5a13.28 13.28 0 0 0-2 5.53 22.9 22.9 0 0 0 .16 7.15 26 26 0 0 0 2.21 7.08 19.2 19.2 0 0 0 4.06 5.6 17.62 17.62 0 0 0 5.83 3.62c2.24.85 4.68 1.28 7.3 1.28 2.65 0 4.9-.42 6.75-1.25a9.58 9.58 0 0 0 4.26-3.6 11.6 11.6 0 0 0 1.68-5.56c.13-2.13-.16-4.5-.84-7.12a28.02 28.02 0 0 0-4.2-9.24 19.63 19.63 0 0 0-6.69-6.07 17.52 17.52 0 0 0-8.58-2.13c-2.3 0-4.28.4-5.94 1.21zm-32.16 1.21c-.36-.54-.7-.97-1.03-1.31a3.9 3.9 0 0 0-1.1-.81c-.41-.2-.9-.3-1.44-.3a3.32 3.32 0 0 0-3.1 2.35c-.17.63-.22 1.5-.15 2.6l1.79 26.1a4.6 4.6 0 0 0 1.06 2.91c.63.67 1.43 1 2.39 1a2.7 2.7 0 0 0 2.2-.98c.54-.67.76-1.64.64-2.93l-1.71-19.82 14.32 19.7c.43.54.86 1.07 1.29 1.58.43.52.88.97 1.36 1.35a4.94 4.94 0 0 0 3.17 1.1c2.44 0 3.44-1.48 3-4.44l-3.98-26.6c-.2-1.3-.6-2.29-1.2-2.94a2.91 2.91 0 0 0-2.23-.98 2.1 2.1 0 0 0-1.9.98c-.42.65-.54 1.63-.37 2.94l2.65 20.11-14.54-19.92-1.12-1.69zm-18.35 31.5c.65.7 1.47 1.05 2.44 1.05 1.03 0 1.84-.35 2.45-1.04.6-.7.86-1.74.8-3.14l-1.23-26.64c-.06-1.4-.4-2.44-1-3.12a2.9 2.9 0 0 0-2.28-1.03c-.9 0-1.6.35-2.15 1.04-.55.69-.8 1.73-.77 3.11l.7 26.64c.04 1.39.38 2.43 1.04 3.13zm-7.98-14a8.08 8.08 0 0 0-2.4-2.92 14.5 14.5 0 0 0-3.7-1.96 45.55 45.55 0 0 0-4.8-1.48c-1.41-.38-2.42-.67-3.02-.87-.61-.2-1.2-.48-1.8-.83a4.1 4.1 0 0 1-1.34-1.27 2.9 2.9 0 0 1-.43-1.76c.05-1.09.6-2.02 1.62-2.8a6.3 6.3 0 0 1 3.93-1.16c1.73 0 2.98.35 3.74 1.07a8.64 8.64 0 0 1 1.98 2.99c.43.89.83 1.53 1.2 1.92.37.4.92.59 1.65.59.8 0 1.46-.33 2-.98.53-.65.79-1.39.78-2.2 0-.9-.21-1.8-.64-2.75a8.58 8.58 0 0 0-1.98-2.68 9.95 9.95 0 0 0-3.37-2.06 13.42 13.42 0 0 0-4.8-.77 15 15 0 0 0-6.11 1.16 9.57 9.57 0 0 0-5.87 8.3 8.1 8.1 0 0 0 1.02 4.9 8.54 8.54 0 0 0 3.49 3.11c1.5.76 3.4 1.43 5.68 2 1.71.41 3.08.8 4.1 1.17 1.03.37 1.87.9 2.51 1.6.65.7.97 1.62.95 2.74a4.35 4.35 0 0 1-1.89 3.54 7.88 7.88 0 0 1-4.87 1.42c-1.44 0-2.6-.24-3.47-.7a5.18 5.18 0 0 1-1.98-1.8c-.45-.71-.86-1.61-1.22-2.7-.3-.9-.67-1.58-1.12-2.04a2.3 2.3 0 0 0-1.72-.7c-.85 0-1.57.3-2.16.9-.6.58-.92 1.3-.98 2.13-.1 1.43.27 2.9 1.1 4.41.86 1.52 2.01 2.73 3.48 3.64 2.08 1.26 4.79 1.89 8.1 1.89 2.77 0 5.17-.46 7.2-1.39 2-.92 3.52-2.2 4.55-3.83a10 10 0 0 0 1.5-5.5 9.82 9.82 0 0 0-.9-4.33zm-41.83-12.7l3.11 13.95h-9.62zm5.47 23.34l.58 1.81c.23.69.46 1.2.69 1.52.22.34.52.6.88.79a3.46 3.46 0 0 0 3.78-.7 3.29 3.29 0 0 0 1.14-2.15c.06-.75-.18-1.96-.72-3.62l-6.25-21.82c-.26-1.1-.47-1.97-.64-2.62a9.14 9.14 0 0 0-.7-1.83 3.66 3.66 0 0 0-1.22-1.4 3.59 3.59 0 0 0-2.06-.54c-.84 0-1.57.18-2.19.54a5.2 5.2 0 0 0-1.57 1.42c-.43.58-.87 1.32-1.3 2.2l-1.13 2.28-11.55 21.95c-.49.88-.85 1.56-1.08 2.06-.24.49-.4.97-.47 1.43-.14.8.07 1.51.62 2.14.55.63 1.25.95 2.1.95 1.01 0 1.79-.3 2.32-.9.53-.58 1.24-1.72 2.11-3.42l2.21-4.33h13.32l1.13 4.24zM432.21 73.3c-.4-.69-1.06-1.03-1.98-1.03a3.5 3.5 0 0 0-2.48 1.04 6.49 6.49 0 0 0-1.64 3.11l-6.62 25.14c-.28 1.08-.48 1.9-.58 2.47a3.7 3.7 0 0 0 0 1.5c.15.52.45.94.9 1.25.46.3.98.46 1.56.46 1 0 1.92-.34 2.73-1.03a5.78 5.78 0 0 0 1.72-3.15l1.7-6.99 6.62-5.37 5.11 12.45c.2.56.45 1.17.72 1.85a3.9 3.9 0 0 0 1.18 1.63c.52.4 1.25.6 2.2.6 1 0 1.86-.27 2.54-.82.7-.56 1.1-1.21 1.24-1.96a4.6 4.6 0 0 0-.12-2.1c-.2-.7-.55-1.54-1.03-2.5L439.6 86.1l9.27-7.89c1.12-.98 1.77-1.98 1.96-2.97.15-.83 0-1.54-.43-2.12-.43-.57-1.09-.86-1.97-.86-.67 0-1.24.16-1.71.48-.47.33-1.07.83-1.79 1.5l-15.5 14.03 2.89-11.86c.34-1.4.3-2.44-.1-3.12z"/><path id="v10ad" d="M588.4 89.65a20.59 20.59 0 0 0-2.65-6.43 12.48 12.48 0 0 0-4.1-4.12 9.54 9.54 0 0 0-4.96-1.4c-1.25 0-2.35.26-3.3.78a5.87 5.87 0 0 0-2.3 2.25 9.3 9.3 0 0 0-1.13 3.77c-.16 1.53-.07 3.24.28 5.15.35 1.92.9 3.66 1.65 5.21a13.66 13.66 0 0 0 2.71 3.87 10.97 10.97 0 0 0 3.42 2.3c1.22.5 2.5.75 3.84.75 1.71 0 3.2-.43 4.43-1.31a6.5 6.5 0 0 0 2.46-4.06c.4-1.83.28-4.08-.35-6.76zm-12.87-17.39c3.14 0 6 .71 8.58 2.13a19.53 19.53 0 0 1 6.68 6.07 27.88 27.88 0 0 1 4.16 9.24c.68 2.61.95 4.99.82 7.12-.14 2.14-.7 4-1.7 5.56a9.63 9.63 0 0 1-4.28 3.6c-1.85.83-4.1 1.25-6.74 1.25-2.63 0-5.07-.43-7.3-1.28a17.56 17.56 0 0 1-5.82-3.61 19.14 19.14 0 0 1-4.05-5.6 25.95 25.95 0 0 1-2.2-7.09c-.42-2.6-.47-4.98-.14-7.15.32-2.17 1-4.01 2.02-5.53a9.89 9.89 0 0 1 4.02-3.5c1.66-.8 3.64-1.21 5.95-1.21zm-37.05 4.1L553 96.3l-2.61-20.1c-.17-1.32-.04-2.3.37-2.95a2.1 2.1 0 0 1 1.9-.98c.89 0 1.63.33 2.23.98.6.65 1 1.63 1.2 2.94l3.93 26.6c.43 2.96-.57 4.45-3.01 4.45a4.92 4.92 0 0 1-3.17-1.1 9.76 9.76 0 0 1-1.36-1.36l-1.28-1.58-14.3-19.7 1.7 19.82c.1 1.29-.11 2.26-.65 2.93a2.7 2.7 0 0 1-2.2.99c-.97 0-1.76-.34-2.4-1a4.6 4.6 0 0 1-1.06-2.92l-1.75-26.1a7.98 7.98 0 0 1 .15-2.6 3.32 3.32 0 0 1 4.54-2.05c.4.2.78.47 1.1.8.33.35.67.78 1.03 1.32l1.12 1.69zm-20.54 26.7l-.7-26.65c-.03-1.38.23-2.42.78-3.11a2.6 2.6 0 0 1 2.15-1.04c.92 0 1.68.34 2.28 1.03.6.68.94 1.72 1 3.12l1.2 26.64c.07 1.4-.2 2.45-.8 3.14-.6.7-1.41 1.04-2.44 1.04a3.2 3.2 0 0 1-2.44-1.05c-.65-.7-1-1.74-1.03-3.13zm-6.05-6.56c.02 2.05-.47 3.88-1.5 5.51a10.28 10.28 0 0 1-4.55 3.83 17.2 17.2 0 0 1-7.19 1.39c-3.31 0-6.02-.63-8.1-1.9a9.87 9.87 0 0 1-3.47-3.63 7.94 7.94 0 0 1-1.11-4.41c.05-.83.38-1.55.97-2.14.59-.59 1.31-.89 2.16-.89.7 0 1.27.24 1.72.7.46.46.83 1.14 1.13 2.05.36 1.08.77 1.98 1.22 2.7a5.18 5.18 0 0 0 1.98 1.79c.87.46 2.02.7 3.47.7 1.99 0 3.61-.47 4.87-1.42a4.35 4.35 0 0 0 1.89-3.54 3.8 3.8 0 0 0-.96-2.73 6.17 6.17 0 0 0-2.5-1.6c-1.03-.38-2.4-.77-4.1-1.18a27.63 27.63 0 0 1-5.7-2 8.56 8.56 0 0 1-3.48-3.11 8.1 8.1 0 0 1-1.03-4.9 9.56 9.56 0 0 1 5.87-8.3c1.75-.77 3.8-1.16 6.12-1.16 1.85 0 3.45.26 4.8.77a9.96 9.96 0 0 1 3.37 2.06c.9.85 1.57 1.74 1.99 2.68.42.94.64 1.86.64 2.75 0 .81-.26 1.55-.79 2.2-.53.65-1.2.98-2 .98-.72 0-1.27-.2-1.65-.59a7.75 7.75 0 0 1-1.2-1.92 8.64 8.64 0 0 0-1.98-3c-.77-.7-2.02-1.06-3.75-1.06-1.6 0-2.91.39-3.93 1.16a3.67 3.67 0 0 0-1.62 2.8 2.9 2.9 0 0 0 .43 1.76c.32.49.77.91 1.35 1.27.59.35 1.19.63 1.8.83.6.2 1.6.49 3.02.87 1.77.45 3.37.94 4.8 1.48a14.5 14.5 0 0 1 3.7 1.96 8.08 8.08 0 0 1 2.41 2.92c.59 1.17.89 2.61.9 4.32zm-49.27-3.07h9.63l-3.14-13.95zm12 9.4l-1.13-4.25h-13.32l-2.2 4.33a18.07 18.07 0 0 1-2.11 3.43c-.53.6-1.3.89-2.31.89-.86 0-1.56-.32-2.12-.95a2.5 2.5 0 0 1-.62-2.14c.08-.46.23-.94.47-1.43.23-.5.59-1.18 1.08-2.06l11.5-21.95 1.13-2.28c.43-.88.87-1.62 1.3-2.2.43-.58.95-1.06 1.57-1.42a4.25 4.25 0 0 1 2.19-.54c.85 0 1.54.18 2.07.54.53.36.94.83 1.23 1.4.29.57.52 1.18.69 1.83.17.65.39 1.53.65 2.62l6.28 21.82c.55 1.66.8 2.87.73 3.62-.06.78-.44 1.5-1.14 2.16a3.46 3.46 0 0 1-3.77.69c-.37-.2-.66-.45-.9-.79a6.39 6.39 0 0 1-.68-1.52c-.23-.68-.42-1.29-.58-1.8zM432.2 76.4l-2.85 11.86 15.47-14.03c.72-.67 1.31-1.17 1.78-1.5a2.95 2.95 0 0 1 1.72-.48c.88 0 1.53.29 1.97.86.44.58.58 1.29.43 2.12-.18 1-.83 1.99-1.95 2.97l-9.25 7.89 6.44 13.75c.48.95.82 1.78 1.03 2.5.2.71.24 1.41.12 2.09-.13.75-.54 1.4-1.23 1.96-.68.55-1.53.83-2.54.83-.95 0-1.68-.2-2.2-.61-.51-.41-.9-.95-1.18-1.63-.28-.68-.52-1.3-.73-1.85l-5.15-12.45-6.6 5.37-1.68 7a5.76 5.76 0 0 1-1.71 3.14 4.1 4.1 0 0 1-2.72 1.03c-.59 0-1.1-.16-1.56-.46-.46-.31-.76-.73-.91-1.25a3.7 3.7 0 0 1 0-1.5c.1-.57.29-1.39.57-2.47l6.52-25.14c.36-1.38.9-2.42 1.63-3.11a3.49 3.49 0 0 1 2.48-1.04c.92 0 1.58.34 1.99 1.03.4.68.44 1.72.1 3.12z"/><path id="v10ag" d="M452 159V15h109v144zm29.27-114.16l-19.48 47.3 16.9 31.63 28.2 25.58 29.08-25.58 16-31.63-18.7-47.3-25.96-18.21z"/><path id="v10aj" d="M506.68 53.45l18.09 9.5s6.82 26.47 11.32 28.98c4.5 2.52 15.51 0 15.51 0l-15.51 31.8-29.4 24.39-17.14-17.94L479.28 108l10.27-31.53z"/><path id="v10ak" d="M482.08 45l8.45 27.4s4.93-9 7.8-13.96c2.9-5.03 5.88-9.12 7.9-16.06 6.04-20.69-24.15 2.62-24.15 2.62z"/><path id="v10am" d="M533.06 94.44l-18.89 19.2s14.2 14.11 17.07 9.16c2.9-5.04 1.82-28.36 1.82-28.36z"/><path id="v10ao" d="M508.12 50.88l15.6 8.66s-.37-16.24-9.95-23.38c-9.58-7.14-5.65 14.72-5.65 14.72z"/><path id="v10aq" d="M487.7 77.6l-7.73-27.24s-5.83 15.16-8.28 24.1c-2.46 8.95 16 3.14 16 3.14z"/><path id="v10as" d="M493.03 78.48l36.4 15.64s-4-17.44-7.61-23.54c-13.04-21.95-28.79 7.9-28.79 7.9z"/><path id="v10au" d="M528.04 96.63l-35.61-15.07s-13.07 22.53-3.44 23.6c30.26 3.37 39.05-8.53 39.05-8.53z"/><path id="v10aw" d="M461.97 91.52l16.73 32 28.08 24.89 19.4-15.64-14.04-19.66-33.44-4.22z"/><mask id="v10af" width="2" height="2" x="-1" y="-1"><path fill="#fff" d="M461 25h91v124h-91z"/><use xlink:href="#v10aa"/></mask><filter id="v10ae" width="147" height="181" x="433" y="-3" filterUnits="userSpaceOnUse"><feOffset dy="1" in="SourceGraphic" result="FeOffset1027Out"/><feGaussianBlur in="FeOffset1027Out" result="FeGaussianBlur1028Out" stdDeviation="7.2 7.2"/></filter><filter id="v10ah" width="200%" height="200%" x="-50%" y="-50%"><feGaussianBlur in="SourceGraphic" result="FeGaussianBlur1033Out" stdDeviation="4.5 4.5"/></filter><mask id="v10ai"><use fill="#fff" xlink:href="#v10aa"/></mask><linearGradient id="v10al" x1="485.2" x2="496.97" y1="56.31" y2="43.22" gradientUnits="userSpaceOnUse"><stop offset="0" stop-color="#fffeef"/><stop offset="1" stop-color="#f8e71c"/></linearGradient><linearGradient id="v10an" x1="512.19" x2="526.41" y1="83.22" y2="119.3" gradientUnits="userSpaceOnUse"><stop offset="0" stop-color="#fffeef"/><stop offset="1" stop-color="#ddd033"/></linearGradient><linearGradient id="v10ap" x1="509.06" x2="516.89" y1="49.36" y2="41.08" gradientUnits="userSpaceOnUse"><stop offset="0" stop-color="#fffeef"/><stop offset="1" stop-color="#f8e71c"/></linearGradient><linearGradient id="v10ar" x1="474.93" x2="487.76" y1="67.63" y2="52.63" gradientUnits="userSpaceOnUse"><stop offset="0" stop-color="#f9f7e6"/><stop offset="1" stop-color="#f8e71c"/></linearGradient><linearGradient id="v10at" x1="511.23" x2="511.23" y1="71.16" y2="94.12" gradientUnits="userSpaceOnUse"><stop offset="0" stop-color="#ddd033"/><stop offset="1" stop-color="#fff688"/></linearGradient><linearGradient id="v10av" x1="507.02" x2="507.02" y1="88.74" y2="105.76" gradientUnits="userSpaceOnUse"><stop offset="0" stop-color="#ddd033"/><stop offset="1" stop-color="#beb53f"/></linearGradient><linearGradient id="v10ax" x1="501.24" x2="515.77" y1="141.37" y2="77.65" gradientUnits="userSpaceOnUse"><stop offset="0" stop-color="#ddd033"/><stop offset="1" stop-color="#888022"/></linearGradient><mask id="v10az" width="2" height="2" x="-1" y="-1"><path fill="#fff" d="M418 72h178v36H418z"/><use xlink:href="#v10ab"/></mask><filter id="v10ay" width="216" height="84" x="399" y="53" filterUnits="userSpaceOnUse"><feOffset dy="10" in="SourceGraphic" result="FeOffset1111Out"/><feGaussianBlur in="FeOffset1111Out" result="FeGaussianBlur1112Out" stdDeviation="3.6 3.6"/></filter><mask id="v10aB" width="2" height="2" x="-1" y="-1"><path fill="#fff" d="M418 72h178v36H418z"/><use xlink:href="#v10ab"/></mask><filter id="v10aA" width="198" height="59" x="408" y="62" filterUnits="userSpaceOnUse"><feOffset dy="3" in="SourceGraphic" result="FeOffset1126Out"/><feGaussianBlur in="FeOffset1126Out" result="FeGaussianBlur1127Out" stdDeviation="0 0"/></filter><clipPath id="v10aC"><use fill="#fff" xlink:href="#v10ac"/></clipPath><mask id="v10aE" width="2" height="2" x="-1" y="-1"><path fill="#fff" d="M418 72h178v36H418z"/><use xlink:href="#v10ad"/></mask><filter id="v10aD" width="204" height="65" x="405" y="59" filterUnits="userSpaceOnUse"><feOffset dy="3" in="SourceGraphic" result="FeOffset1144Out"/><feGaussianBlur in="FeOffset1144Out" result="FeGaussianBlur1145Out" stdDeviation="1.2 1.2"/></filter></defs><g><g transform="translate(-411 -12)"><g><g><g filter="url(#v10ae)"><use fill="none" stroke-width="0" mask="url(&quot;#v10af&quot;)" xlink:href="#v10aa"/><use fill="#f4ff00" xlink:href="#v10aa"/></g><use fill="#f8e71c" xlink:href="#v10aa"/><use fill="#efff00" fill-opacity=".5" stroke="#efff00" stroke-opacity=".5" stroke-width="0" filter="url(#v10ah)" mask="url(&quot;#v10ai&quot;)" xlink:href="#v10ag"/></g><g><use fill="#ddd033" xlink:href="#v10aj"/></g><g opacity=".45"><use fill="url(#v10al)" xlink:href="#v10ak"/></g><g opacity=".45"><use fill="url(#v10an)" xlink:href="#v10am"/></g><g opacity=".45"><use fill="url(#v10ap)" xlink:href="#v10ao"/></g><g opacity=".45"><use fill="url(#v10ar)" xlink:href="#v10aq"/></g><g opacity=".45"><use fill="url(#v10at)" xlink:href="#v10as"/></g><g opacity=".45"><use fill="url(#v10av)" xlink:href="#v10au"/></g><g><use fill="url(#v10ax)" xlink:href="#v10aw"/></g></g><g><g><g filter="url(#v10ay)"><use fill="none" stroke-width="0" mask="url(&quot;#v10az&quot;)" xlink:href="#v10ab"/><use xlink:href="#v10ab"/></g></g><g><g filter="url(#v10aA)"><use fill="none" stroke-opacity=".5" stroke-width="0" mask="url(&quot;#v10aB&quot;)" xlink:href="#v10ab"/><use fill-opacity=".5" xlink:href="#v10ab"/></g><use fill="#fff" fill-opacity="0" stroke="#000" stroke-miterlimit="50" stroke-width="7.8" clip-path="url(&quot;#v10aC&quot;)" xlink:href="#v10ab"/></g><g><g filter="url(#v10aD)"><use fill="none" stroke-opacity=".5" stroke-width="0" mask="url(&quot;#v10aE&quot;)" xlink:href="#v10ad"/><use fill-opacity=".5" xlink:href="#v10ad"/></g><use fill="#fff" xlink:href="#v10ad"/></g></g></g></g></svg>