<?xml version="1.0" encoding="UTF-8"?>
<svg width="30px" height="30px" viewBox="01 02 29 28" version="1.1" xmlns="http://www.w3.org/2000/svg" xmlns:xlink="http://www.w3.org/1999/xlink">
    <!-- Generator: Sketch 51.3 (57544) - http://www.bohemiancoding.com/sketch -->
    <title>ourchoese_icon</title>
    <desc>Created with Sketch.</desc>
    <defs>
        <path d="M16.2118056,8 C16.2118056,7.32030769 15.6587514,6.76923077 14.9766204,6.76923077 L12.1974537,6.76923077 L11.2710648,6.76923077 L10.1587806,6.76923077 L10.4638713,5.348 C10.6967037,4.26369231 10.6343269,2.94215385 10.4959861,2.01384615 C10.3576454,1.08553846 9.52327778,0 8.65031065,0 L8.57650833,0 C7.83230926,0 7.56550926,0.818153846 7.56550926,1.84615385 C7.56550926,6.84615385 5.09513889,6.76923077 5.09513889,6.76923077 L4.4775463,6.76923077 L4.4775463,16.6153846 L9.10949074,16.6153846 L12.1974537,16.6153846 L13.4326389,16.6153846 C14.1147699,16.6153846 14.6678241,16.0643077 14.6678241,15.3846154 C14.6678241,14.7049231 14.1147699,14.1538462 13.4326389,14.1538462 L14.3590278,14.1538462 C15.0411588,14.1538462 15.594213,13.6027692 15.594213,12.9230769 C15.594213,12.2433846 15.0411588,11.6923077 14.3590278,11.6923077 L15.2854167,11.6923077 C15.9675477,11.6923077 16.5206019,11.1412308 16.5206019,10.4615385 C16.5206019,9.69446154 16.0225134,9.40246154 15.2854167,9.29353846 C14.9262866,9.24030769 14.2738,9.23076923 14.0502315,9.23076923 L14.9766204,9.23076923 C15.6587514,9.23076923 16.2118056,8.67969231 16.2118056,8 Z" id="path-1"></path>
        <filter x="-103.8%" y="-69.2%" width="307.6%" height="250.5%" filterUnits="objectBoundingBox" id="filter-2">
            <feOffset dx="0" dy="1" in="SourceAlpha" result="shadowOffsetOuter1"></feOffset>
            <feGaussianBlur stdDeviation="4" in="shadowOffsetOuter1" result="shadowBlurOuter1"></feGaussianBlur>
            <feColorMatrix values="0 0 0 0 0   0 0 0 0 0   0 0 0 0 0  0 0 0 0.368517889 0" type="matrix" in="shadowBlurOuter1"></feColorMatrix>
        </filter>
    </defs>
    <g id="Page-1" stroke="none" stroke-width="1" fill="none" fill-rule="evenodd">
        <g id="aff_des_casino_item" transform="translate(-1289.000000, -522.000000)">
            <g id="casinos-infoblock" transform="translate(879.000000, 277.000000)">
                <g id="stiker-ourch" transform="translate(411.000000, 247.000000)">
                    <g id="ourchoese_icon">
                        <ellipse id="Oval-2" fill="#E4D73B" cx="14.5" cy="14" rx="14.5" ry="14"></ellipse>
                        <g id="like" transform="translate(14.862500, 12.923077) scale(-1, 1) translate(-14.862500, -12.923077) translate(6.525000, 4.307692)" fill-rule="nonzero">
                            <rect id="Rectangle-path" fill="#383838" x="0.154398148" y="6.15384615" width="4.32314815" height="11.0769231"></rect>
                            <ellipse id="Oval" fill="#D8A852" cx="2.31597222" cy="14.4615385" rx="1.23518519" ry="1.23076923"></ellipse>
                            <g id="Shape">
                                <use fill="black" fill-opacity="1" filter="url(#filter-2)" xlink:href="#path-1"></use>
                                <use fill="#FFE1C0" xlink:href="#path-1"></use>
                            </g>
                            <path d="M15.7856667,8.92307692 L11.8886574,8.92307692 C11.7182019,8.92307692 11.5798611,9.06061538 11.5798611,9.23076923 C11.5798611,9.40092308 11.7182019,9.53846154 11.8886574,9.53846154 L16.0438204,9.53846154 C15.8409412,9.41446154 15.5843315,9.33753846 15.2854167,9.29353846 C14.9262866,9.24030769 14.2738,9.23076923 14.0502315,9.23076923 L14.9766204,9.23076923 C15.287887,9.23076923 15.5685829,9.11230769 15.7856667,8.92307692 Z" id="Shape" fill="#F7B563"></path>
                            <path d="M16.094463,11.3846154 L11.8886574,11.3846154 C11.7182019,11.3846154 11.5798611,11.5221538 11.5798611,11.6923077 C11.5798611,11.8624615 11.7182019,12 11.8886574,12 L15.1683829,12 C14.9512991,11.8107692 14.6702944,11.6923077 14.3590278,11.6923077 L15.2854167,11.6923077 C15.5966833,11.6923077 15.8773792,11.5738462 16.094463,11.3846154 Z" id="Shape" fill="#F7B563"></path>
                            <path d="M15.1680741,13.8461538 L11.2710648,13.8461538 C11.1006093,13.8461538 10.9622685,13.9836923 10.9622685,14.1538462 C10.9622685,14.324 11.1006093,14.4615385 11.2710648,14.4615385 L14.241994,14.4615385 C14.0249102,14.2723077 13.7439056,14.1538462 13.4326389,14.1538462 L14.3590278,14.1538462 C14.6702944,14.1538462 14.9509903,14.0353846 15.1680741,13.8461538 Z" id="Shape" fill="#F7B563"></path>
                        </g>
                    </g>
                </g>
            </g>
        </g>
    </g>
</svg>