<svg xmlns="http://www.w3.org/2000/svg" xmlns:xlink="http://www.w3.org/1999/xlink" width="15" height="25" viewBox="0 0 15 25"><defs><path id="vcira" d="M622.94 1292a.9.9 0 0 1-.64-.26l-3.18-3.12a.87.87 0 0 1 0-1.24.92.92 0 0 1 1.27 0l2.55 2.5 5.74-5.62c.3-.3.77-.34 1.12-.12v1.52l-6.22 6.08a.9.9 0 0 1-.64.26zm.56 8.16a.86.86 0 0 1-.87-.85c0-.47.39-.84.87-.84s.87.37.87.84-.39.85-.87.85zm-1.84-22.94h3.68c.12 0 .21.09.21.2 0 .11-.1.2-.2.2h-3.7a.2.2 0 0 1-.2-.2c0-.11.1-.2.2-.2zm7.6-1.22h-11.52c-.96 0-1.74.76-1.74 1.69v21.62c0 .93.78 1.69 1.74 1.69h11.52c.96 0 1.74-.76 1.74-1.69v-21.62c0-.93-.78-1.69-1.74-1.69z"/></defs><g><g transform="translate(-616 -1276)"><g><use fill="#264108" xlink:href="#vcira"/></g></g></g></svg>