<?xml version="1.0" encoding="UTF-8"?>
<svg width="213px" height="176px" viewBox="0 0 213 176" version="1.1" xmlns="http://www.w3.org/2000/svg" xmlns:xlink="http://www.w3.org/1999/xlink">
    <!-- Generator: Sketch 51.3 (57544) - http://www.bohemiancoding.com/sketch -->
    <title>planets_2-05</title>
    <desc>Created with Sketch.</desc>
    <defs>
        <radialGradient cx="29.2082502%" cy="23.669328%" fx="29.2082502%" fy="23.669328%" r="77.8526281%" id="radialGradient-1">
            <stop stop-color="#FE560F" offset="0%"></stop>
            <stop stop-color="#FB5212" offset="23%"></stop>
            <stop stop-color="#F2471B" offset="44%"></stop>
            <stop stop-color="#E2342A" offset="64%"></stop>
            <stop stop-color="#CD1A3F" offset="85%"></stop>
            <stop stop-color="#B80054" offset="100%"></stop>
        </radialGradient>
    </defs>
    <g id="Page-1" stroke="none" stroke-width="1" fill="none" fill-rule="evenodd">
        <g id="aff_des_home" transform="translate(-376.000000, -265.000000)" fill-rule="nonzero">
            <g id="header" transform="translate(376.000000, 0.000000)">
                <g id="planets_2-05" transform="translate(0.000000, 265.000000)">
                    <circle id="Oval" fill="url(#radialGradient-1)" cx="107" cy="89" r="73"></circle>
                    <path d="M74.6926856,28.0813276 C76.7042576,30.9442935 78.8733624,34.5108696 80.8728166,37.3738354 C79.8912664,42.4325505 79.3823144,47.8309394 78.4492358,52.8896545 C82.2868521,56.5081073 86.3901747,59.8332994 90.7246725,62.8372477 C90.6598997,62.9687311 90.5131716,63.0382017 90.3705546,63.00491 C90.2279377,62.9716183 90.1270363,62.8443424 90.1270363,62.6977387 C90.1270363,62.5511351 90.2279377,62.4238592 90.3705546,62.3905675 C90.5131716,62.3572758 90.6598997,62.4267464 90.7246725,62.5582298 C91.2982794,65.320282 91.654829,68.1230813 91.791048,70.9408967 C97.5668437,72.0974513 103.419117,72.8313093 109.301419,73.136646 C110.307205,71.0379464 111.49476,68.1507182 112.500546,66.0520186 C113.710915,65.4904114 115.054466,65.2802512 116.378275,65.4454581 C117.250764,62.6188859 117.056878,59.3798525 118.923035,57.111316 C121.576856,53.8237578 124.424563,50.5240683 127.066266,47.2365101 C127.611572,42.117139 128.278057,36.3912073 128.859716,31.2718362 C130.677402,29.1852679 132.688974,27.0865683 134.506659,25 C135.573035,25.2911491 136.687882,25.7278727 137.766376,26.0190217 C135.972926,30.8715062 134.349127,36.1000582 132.555677,40.9525427 C134.094651,46.5450311 135.391266,52.5499806 136.93024,58.1546002 C133.677834,61.7445382 130.650642,65.5326836 127.866048,69.4972826 C129.526201,73.6825505 131.634716,78.0861801 133.294869,82.271448 C132.349672,82.2107919 131.586245,82.6960404 130.641048,82.6353843 C130.035153,86.2747477 129.901856,90.8967391 129.295961,94.5361025 C132.470852,99.2551436 136.215284,103.658773 139.753712,108.110928 C141.673672,107.65309 143.512548,106.90446 145.206769,105.890916 C148.775898,106.418614 152.407552,106.353033 155.955349,105.696817 C156.900546,100.977776 157.979039,96.404309 158.924236,91.6852679 C160.754039,90.9573952 162.559607,90.8482143 164.401528,90.1203416 C165.744306,87.0775226 166.700992,83.8782754 167.249236,80.5973408 C168.0369,81.8832492 169.212336,83.5573564 170,84.8432648 C167.855131,90.1688665 165.516376,95.3003688 163.371507,100.613839 C162.559607,100.82007 161.650764,101.353843 160.838865,101.547943 C158.342576,105.187306 155.37369,110.282415 151.047598,111.252911 C147.404152,112.206425 143.585638,112.272979 139.911245,111.447011 C139.002402,112.356852 137.487664,113.290955 137.184716,114.54047 C136.221091,117.771381 134.980452,120.912913 133.476638,123.930027 C126.686692,124.058795 119.949051,122.718063 113.724454,119.999515 C110.576518,126.900043 106.901989,133.547414 102.733515,139.88257 C101.267249,139.239616 99.9463974,139.191091 98.480131,138.548137 C97.0865721,140.974379 95.4870087,143.570458 94.0934498,146.045225 C92.0423423,145.93218 90.0238914,145.481321 88.1193231,144.710792 L82.1936681,150 C79.0308952,149.50262 75.9529476,150.315411 73.1052402,148.859666 C68.0476896,146.272616 63.3131333,143.096491 59,139.397321 C59,133.67139 59.1575328,128.030377 59.1817686,122.304445 C63.0254783,121.258858 66.7527964,119.824013 70.3060044,118.022127 C71.3360262,111.689635 72.4872271,105.345012 73.5172489,99.0125194 C72.9840611,98.1997283 72.6326419,97.3505435 72.0873362,96.5862772 C75.4561135,95.6400427 78.5582969,95.3731561 81.9149563,94.4147904 C82.2300218,89.0891887 82.205786,83.6786685 82.5208515,78.3530668 C76.2508546,75.5630332 70.1778621,72.3489188 64.3439956,68.7330163 C63.9562227,63.9411879 63.6290393,59.2828028 63.2412664,54.4909744 C65.4904245,50.5970509 67.9709747,46.8417569 70.6695415,43.2453416 L68.464083,30.8836374 C70.6816594,29.6583851 72.4751092,29.3187112 74.6926856,28.0813276 Z" id="Shape" fill="#FF8933" opacity="0.3" style="mix-blend-mode: screen;"></path>
                    <path d="M86.3840798,88.4711558 L80.8208401,98.7289894 C80.4467394,104.713737 80.0967742,110.710625 79.6140636,116.695372 L79.6140636,117.083835 L79.3485728,117.314484 L73.8818751,122.048869 C72.0837781,123.57844 70.2615456,125.132289 68.4996519,126.64972 C67.2928754,131.202013 66.230912,135.766445 65,140.306599 C65.7602692,135.596493 66.6532838,130.922806 67.4859596,126.224839 L67.4859596,126.067026 L67.6307728,125.933492 C69.3564632,124.246109 71.1183569,122.607284 72.8681829,120.93204 L77.8521699,116.234073 C78.0331864,110.261465 78.2866094,104.300996 78.515897,98.3283876 L78.515897,98.0734592 L78.6365746,97.8428097 L84.0429334,87.6456734 C83.6446971,83.8460261 83.3067997,80.0463789 82.9447668,76.2467317 C78.4917614,73.5153559 74.0749594,70.7232828 69.6702251,67.9433492 L69.1392434,67.5791658 L69.2719889,66.8872173 L71.0338826,57.612679 L72.8440473,48.4231168 C72.5785565,45.3882548 72.3734045,42.3533928 72.144117,39.2942519 C71.9148294,36.235111 71.6855419,33.1395518 71.5045254,30.0439925 C71.9993038,33.090994 72.4458111,36.1137165 72.8802506,39.2092758 C73.3146902,42.304835 73.785333,45.2789998 74.1835693,48.3866985 L74.1835693,48.5809297 L72.759573,57.9161652 L71.4200511,66.5351733 C75.8730564,69.1937124 80.3381295,71.8522515 84.7790671,74.5593484 L85.2738454,74.8628346 L85.2738454,75.4576676 C85.6841495,79.5729404 86.118589,83.6882133 86.480622,87.8034862 L86.480622,88.1798091 L86.3840798,88.4711558 Z M87.1805523,120.422183 L87.4098399,120.203673 L87.4098399,119.863768 L88.7252263,109.193194 L89.9320028,98.7775472 L95.7245301,89.0659888 L96.0382919,88.5439925 L95.8090044,87.9855779 L91.8145741,78.4318323 L87.8201439,70.6990039 L83.7895103,62.978315 L83.7171037,62.8447811 L83.6446971,62.7598049 L77.948712,56.5808259 L78.6607101,49.0058103 L79.336505,41.030193 L79.336505,40.8966591 L79.336505,40.8116829 C77.8159666,38.2623988 76.2833604,35.7252542 74.7145509,33.200249 C75.993734,35.8345092 77.3091204,38.4444906 78.6486424,41.0544719 L77.4418659,48.860137 L76.2954282,56.7750571 L76.2954282,57.1271011 L76.5488512,57.4305873 L82.160362,63.9737497 L85.9496403,71.6944387 L89.6544442,79.3058726 L93.2747737,88.2890641 L87.7356695,97.7821125 L87.6029241,98.012762 L87.6029241,98.2555509 L86.5530285,108.950405 L85.5996751,119.341772 C81.7862613,123.194024 78.0050282,127.074601 74.2559759,130.983503 L74.1835693,131.056339 L74.1835693,131.129176 C72.6147598,134.916684 71.009747,138.692052 69.4892086,142.503839 C71.37178,138.862005 73.169877,135.22017 75.0041773,131.578336 C79.1393982,127.920315 83.1981898,124.201598 87.1805523,120.422183 Z M169,85.1328076 C166.441634,87.8156256 163.931539,90.5470015 161.421443,93.2662378 L161.349037,93.3390745 L161.349037,93.4726084 C160.721513,96.0785433 160.118125,98.6885246 159.538872,101.302552 C156.823625,104.009649 154.132513,106.741025 151.453469,109.472401 L143.7301,111.208342 L135.753307,113.041399 L135.548155,113.041399 L135.367139,113.174933 L127.667904,118.51629 L118.267115,117.593692 L108.419819,116.683233 L107.888837,116.683233 L107.526804,117.047416 C104.377118,120.252231 101.215363,123.444906 98.1018798,126.686138 C94.9883964,129.927371 91.874913,133.144325 88.7855651,136.397697 L82.317243,141.144221 C80.1370001,142.762814 77.9728475,144.381407 75.8247853,146 C78.1337511,144.599917 80.4266264,143.175555 82.7034115,141.726914 L89.5458343,137.405271 C92.8363116,134.281386 96.0905856,131.153455 99.3086563,128.021477 C102.434207,125.047313 105.523555,122.02459 108.612903,119.014007 L117.941286,119.997302 L127.776514,120.992737 L128.210954,120.992737 L128.572987,120.737809 L136.429102,115.20222 L144.200743,113.296327 L152.129264,111.269039 L152.418891,111.196203 L152.599907,111.001971 C155.291019,108.052085 157.994198,105.1022 160.661174,102.128035 L160.805987,101.958083 L160.805987,101.775991 C161.272608,99.0972193 161.719115,96.4144013 162.145509,93.7275368 C164.474588,90.886906 166.767463,88.0462752 169,85.1328076 Z M88.7493618,122.765096 C86.528893,125.350799 84.3084242,127.936501 82.1241587,130.570762 C84.5377118,128.142872 86.9512648,125.714982 89.3648178,123.287093 C91.7783709,120.859203 94.1919239,118.431314 96.5210026,116.003424 L96.6658157,115.845611 L96.6658157,115.602822 L97.9449988,107.979249 L99.1517754,100.574186 L104.377118,92.1979664 L109.638663,83.6153766 L109.699002,83.5061216 L109.699002,83.3725877 C111.159202,79.1237809 112.559062,74.8749741 113.983059,70.6018884 C118.218844,67.7005603 122.430494,64.738535 126.642144,61.8007885 L126.99211,61.5579996 L127.064516,61.1573978 C127.873056,56.4837103 128.7178,51.8221623 129.478069,47.1363353 C130.238338,42.4505084 130.974472,37.7889604 131.722673,33.1274123 L134.317243,29 L131.312369,32.9089023 C130.250406,37.534032 129.128104,42.1470222 128.126479,46.7721519 C127.124855,51.3972816 126.171502,55.7553434 125.20608,60.2469392 C120.922024,63.08757 116.625899,65.9160614 112.378046,68.7445528 L112.052216,68.9630629 L111.919471,69.3393858 C110.447204,73.6731687 108.938733,77.9948122 107.514737,82.3407346 L102.385936,90.8383482 L97.2571362,99.5059141 L97.1364586,99.7001453 L97.1364586,99.8943764 L96.1589696,107.566508 L95.2418194,115.032268 C93.0776669,117.670575 90.9135143,120.256277 88.7493618,122.789375 L88.7493618,122.765096 Z M134.425853,56.6051048 C132.470875,58.6566715 130.515897,60.7082382 128.597122,62.7962233 C126.678348,64.8842083 124.650963,67.1664246 122.67185,69.3151069 L122.45463,69.5578958 L122.394291,69.8978004 C121.863309,72.8436398 121.360486,75.7935256 120.88582,78.747458 C120.40311,81.6123677 119.96867,84.4772774 119.534231,87.3543266 C117.209175,90.2597012 114.920322,93.1934011 112.667672,96.1554264 C110.350661,99.2024279 108.057786,102.22515 105.861453,105.417825 C108.552564,102.686449 111.171269,99.8943764 113.741703,97.0537456 C116.312137,94.2131148 118.858436,91.3603445 121.356463,88.4832953 L121.525412,88.2769247 L121.525412,87.9734385 C122.092597,85.0356921 122.647714,82.0858062 123.15456,79.1359203 C123.661406,76.1860344 124.144117,73.4546586 124.602692,70.6383067 C126.473196,68.5260427 128.295428,66.3894999 130.129728,64.2408176 C131.964029,62.0921353 133.906939,59.7492218 135.777443,57.4912845 L136.00673,57.2120772 L136.00673,56.908591 C135.548155,52.3684374 135.041309,47.8161444 134.38965,43.2881303 C134.305175,47.7433077 134.305175,52.1863457 134.425853,56.6293837 L134.425853,56.6051048 Z M127.438617,110.710625 L124.156185,108.282735 L120.40311,105.587778 L119.763518,105.126479 L119.123927,105.52708 C116.613832,107.08093 114.131894,108.699523 111.678116,110.38286 C109.264563,112.058103 106.85101,113.757626 104.437456,115.614962 C107.176839,114.401017 109.831748,113.187072 112.46252,111.815314 C114.876073,110.577091 117.241355,109.294356 119.558366,107.967109 L122.659782,110.297883 L126.412857,112.992841 L126.859364,113.320606 L127.354142,113.187072 C130.153864,112.458705 132.941518,111.69392 135.729172,110.868437 C138.516825,110.042955 141.268276,109.132496 143.995591,108.076364 C141.087259,108.343432 138.227199,108.792592 135.367139,109.290309 C132.748434,109.654493 130.093525,110.176489 127.438617,110.734904 L127.438617,110.710625 Z M91.5611511,67.3727952 L98.1018798,85.1328076 L98.1018798,76.877983 L91.5611511,67.3727952 Z M122.382223,99.2388462 L126.44906,103.791139 L136.103272,105.429965 L122.382223,99.2388462 Z M129.212578,82.5471052 L128.560919,73.7460054 L124.735437,89.7336584 L129.212578,82.5471052 Z M103.423764,134.843847 L110.362729,124.828803 L97.2933395,136.264163 L103.423764,134.843847 Z" id="Shape" fill="#DB4200" opacity="0.4" style="mix-blend-mode: multiply;"></path>
                    <path d="M39,95.7556579 C43.6430764,120.011916 63.1198774,140.794379 87.010616,147.006201 C110.901355,153.218023 138.036217,144.593843 153.895036,125.608587 C169.753856,106.62333 173.552736,78.4469901 163.253549,56 C165.243438,64.0331517 163.506807,72.5246515 160.9501,80.3889382 C156.620582,93.7292772 147.901247,105.81519 135.937787,113.148758 C123.974328,120.482326 108.754686,122.713757 95.5249327,118.057906 C82.29518,113.402056 71.5618345,101.605626 69.294566,87.7586915 C61.1782273,92.9935081 48.6238311,96.491427 39,95.7556579 Z" id="Shape" fill="#DB4200" opacity="0.6" style="mix-blend-mode: multiply;"></path>
                    <path d="M52.8154096,48.9142065 C42.9786225,66.8964743 42.3952092,88.5334775 51.2485921,107.022649 C60.1019749,125.511821 77.3047438,138.582242 97.4484329,142.124636 C114.794945,145.176132 133.814286,140.240247 146.033212,127.462868 C156.385358,116.52125 160.955334,101.215142 161.791748,86.2008099 C162.485908,77.0738542 161.440976,67.8978063 158.712773,59.1628556 C155.948799,50.3955711 150.608057,42.6704066 143.390627,37 C143.071577,51.4113775 135.605575,64.7134056 123.486383,72.4630004 C111.679603,80.012717 96.3453354,81.3986553 83.1324089,76.7667036 C69.9194823,72.1347518 58.8642631,61.5821689 52.8154096,48.9142065 Z" id="Shape" fill="#DB4200" opacity="0.4" style="mix-blend-mode: multiply;"></path>
                    <path d="M131.570158,14.49003 C131.080181,14.8265501 130.793365,15.1510516 130.303388,15.4875717 C127.243964,12.7494909 123.984197,10.2465813 120.551643,8 C127.052806,24.0447965 110.501132,36.844578 116.225502,52 C116.225502,51.4471456 116.309156,50.9063098 116.333058,50.3534553 C118.651487,47.0483474 123.694669,40.738596 123.694669,40.738596 L126.897448,26.2081399 L131.187737,21.0040972 C131.187737,21.0040972 133.828835,19.5017755 135,18.9729582 C134.103892,17.3028667 132.945731,15.7891081 131.570158,14.49003 Z" id="Shape" fill="#E6250C"></path>
                    <path d="M101.272088,26 C106.420641,22.4785335 110.924159,17.6546068 113,11.52822 L108.813135,7.91027496 C108.355747,7.91027496 107.992181,8.0067535 107.534793,8.03087313 C104.550245,5.42124031 101.361134,3.06961778 98,1 C101.717748,8.75446213 103.371384,17.3772311 101.272088,26 Z" id="Shape" fill="#E6250C"></path>
                    <path d="M120.435839,7.58885838 L119.792369,7.15103962 C117.716481,8.28159517 115.756433,9.61360383 113.940436,11.1278933 L113.612631,10.8481758 C111.475825,17.0019616 106.813704,21.8666144 101.471691,25.4421342 C103.644919,16.7465673 101.920906,8.03883876 98.0600871,0.218909376 L97.7201407,0 C96.8459931,0.972930561 96.056832,2.01883091 95.1826844,3.00392311 C94.3692414,3.23499412 93.7500535,3.50255002 92.9366106,3.73362103 C90.1563354,7.52805022 87.3517784,11.4440957 84.5715033,15.2385249 C81.6611102,15.706618 78.7942222,16.4143924 76,17.3546489 C76.206396,18.2667713 76.2792416,19.1667321 76.4734966,20.0788545 C78.5617382,20.5774814 80.5528523,21.1734013 82.6410939,21.6720282 C81.9004966,22.1220086 80.9535033,22.4990192 80.212906,22.8881914 C83.1890364,25.756562 85.925835,28.8640958 88.3958992,32.1796783 C87.4246241,37.445665 86.5140536,42.7602982 86.0648388,48.0992546 C88.4505055,51.6707392 91.7793791,54.5084725 95.6804629,56.2961946 C96.3603555,56.1624166 97.0281072,56.1380934 97.6958589,56.0043154 C99.5563317,51.2418755 100.701931,46.2295332 101.095322,41.1306395 C101.931667,47.2708619 102.228235,53.4727813 101.981611,59.6649667 C103.756427,60.7073467 105.669299,61.493452 107.66357,62 L110.480268,60.1514319 C111.996048,59.7031031 113.480497,59.1546275 114.923852,58.5096116 C115.51586,56.4175274 115.890175,54.2696973 116.040818,52.1004315 C110.225308,36.8375834 127.04051,23.8246371 120.435839,7.58885838 Z" id="Shape" fill="#FE560F"></path>
                    <path d="M151,40 C155.351111,40 158.736667,40 162,38.3343109 C161.959105,36.2375247 161.630346,34.1550647 161.022222,32.1407625 L160.533333,32 C157.013333,35.4486804 155.791111,38.8504399 151,40 Z" id="Shape" fill="#E6250C"></path>
                    <path d="M177.182081,65.3619632 C177.77922,62.9529438 178.057038,60.4785842 178.008671,58 C176.668593,59.0920245 174.602119,60.3067485 173.5,62.4662577 C174.752408,66.1472393 173.5,68.601227 170.995183,71.0552147 C170.080925,70.1595092 168.490366,71.2147239 167.726397,70.9079755 C167.488439,71.9509202 167.237958,73.0184049 167,74.0122699 C168.365502,74.9487803 169.893143,75.6347409 171.508671,76.0368098 C172.072254,76.8220859 172.134875,77.2638037 172.685934,78 C175.478839,77.1915958 178.002755,75.6715632 180,73.595092 C179.608404,70.6990439 178.651709,67.9038607 177.182081,65.3619632 Z" id="Shape" fill="#E6250C"></path>
                    <path d="M141.890334,83.5176763 C140.605283,85.0753373 139.236941,86.8782991 139.236941,86.8782991 C138.38315,88.9539299 137.63646,91.0746569 137,93.2315934 C137.984276,95.9114904 139.481469,98.359915 141.40249,100.431176 C144.38258,100.970727 147.416076,101.127279 150.433545,100.897248 C152.243194,99.4856347 153.846138,97.8126732 155.192994,95.9299037 C155.362125,93.7880838 155.397894,91.6372911 155.300081,89.4907541 C156.846902,88.5340805 158.536507,87.2707806 160.178516,86.4858176 C160.737379,84.1255431 161.013109,81.7034886 160.999521,79.2739701 C160.067495,77.4406495 159.0098,75.6781878 157.834488,74 C154.467178,79.5315361 149.362669,86.1178662 141.890334,83.5176763 Z" id="Shape" fill="#E6250C"></path>
                    <path d="M173.845921,55.0341298 C168.854985,55.9752454 163.223565,53.3811445 158.135952,52.5486191 C163.731118,50.3164858 170.353474,50.135502 174.18429,45.3092678 C174.18429,45.2248087 174.18429,45.128284 174.18429,45.0438249 C170.412466,42.3152332 166.226238,40.2091163 161.785498,38.8059171 C161.785498,38.8059171 161.785498,38.8059171 161.785498,38.7335236 C158.546828,40.4347712 155.199396,40.4468368 150.909366,40.4468368 C155.646526,39.2402782 156.951662,35.7653896 160.359517,32.2181074 C157.203663,31.3376862 153.962791,30.795694 150.691843,30.6013189 C148.142713,27.6194973 145.141601,25.0546511 141.797583,23 C141.266985,28.2171812 140.17716,33.3624475 138.546828,38.3474249 L140.746224,40.0124757 C140.987915,43.1253968 142.160121,49.0495993 142.160121,49.0495993 C142.160121,49.0495993 145.688822,53.9602926 147.622356,56.4216721 C147.040462,59.9196492 146.150814,63.3595934 144.963746,66.701551 C143.848515,66.2985909 142.795055,65.7422316 141.833837,65.0485658 C140.338131,66.4482912 138.720453,67.7121339 137,68.8250941 C137.495468,70.3574235 138.208459,73.3617543 138.208459,73.3617543 C138.208459,73.3617543 141.58006,78.9722516 143.042296,81.9403857 C142.667674,82.33855 142.196375,82.8694357 141.725076,83.4244527 C149.314199,85.9823568 154.498489,79.5031374 157.954683,74.0494927 C157.592387,73.5383004 157.188177,73.0580468 156.746224,72.613688 C159.163142,70.9003748 161.302115,69.235324 163.779456,67.6788635 C164.903323,68.1373557 166.293051,68.6079136 167.404834,69.0664058 C167.296073,69.5248981 167.187311,70.0075215 167.07855,70.4901449 C167.839879,70.7917846 169.350453,69.7541442 170.232628,70.6349319 C172.649547,68.2218148 173.858006,65.8086977 172.649547,62.189022 C173.712991,60.065479 175.706949,58.8830516 177,57.7971489 C177,57.7971489 177,57.7247554 177,57.6885586 C176.03112,56.710427 174.975442,55.8219833 173.845921,55.0341298 Z" id="Shape" fill="#FE560F"></path>
                    <path d="M174.988645,45 C171.172078,49.8610845 164.574354,50.006917 159,52.2916268 C164.020531,53.1423166 169.631004,55.7429968 174.651535,54.7950853 L173.953235,54.2968241 C174.720779,51.2607823 175.069208,48.13228 174.988645,45 Z" id="Shape" fill="#E6250C"></path>
                    <path d="M39.2436709,44.7176015 C39.4821316,46.0239215 39.5095544,47.3600411 39.3248945,48.6750484 L39,49 C43.1656118,48.7098646 46.1940928,45.8549323 50,43 C46.6711116,44.648523 42.920288,45.2474653 39.2436709,44.7176015 Z" id="Shape" fill="#E6250C"></path>
                    <path d="M49,55 C43.6914153,56.7794118 38.3828306,56.6425339 33.0742459,55.9705882 L33,56.0452489 C33.0866203,59.4920814 33.3959783,62.6402715 33.7795824,66 C40.733952,64.7432127 45.4361949,62.1674208 49,55 Z" id="Shape" fill="#E6250C"></path>
                    <path d="M45.4362018,100.640767 C41.4124629,91.4231564 42.6350148,82.2176107 46.0296736,73 C40.9229246,76.973101 33.9814103,77.4804771 28.3679525,74.2909481 C28.2492582,74.5081169 28.1186944,74.7011559 28,74.9183247 C29.4599407,81.228286 33.5905045,93.1122474 33.5905045,93.1122474 L34.0652819,110.220326 L40.462908,119.365547 C40.462908,119.365547 43.7744807,129.524223 46.0059347,134.314002 C47.5834523,134.850601 49.2473191,135.075831 50.9080119,134.977573 C51.4183976,131.647651 52,125.253235 52,125.253235 L44.2373887,110.184131 C44.4747971,106.984122 44.8749363,103.798743 45.4362018,100.640767 Z" id="Shape" fill="#E6250C"></path>
                    <path d="M46.083921,103.499253 C46,105.71151 46,107.349776 46,107.349776 C46,107.349776 50.4238364,114.381166 53.7087447,117 C57.1443118,115.322047 60.2825762,113.096531 63,110.411061 C62.2686883,107.565022 61.1897038,102.686099 60.8300423,101 C56.5021157,104.491779 50.9153738,106.118087 46.083921,103.499253 Z" id="Shape" fill="#E6250C"></path>
                    <path d="M63.1318493,89.9105246 C64.8458904,89.0548451 66.8715753,88.3558392 68.5856164,87.5001597 C69.3287235,85.7332425 69.8054343,83.8647195 70,81.9563203 C68.5616438,81.1850036 67.2791096,80.401635 65.8527397,79.6303182 C66.0085616,78.5938613 66.4400685,77.581508 66.5839041,76.5329993 C62.1038304,73.9807219 58.0575224,70.7259802 54.5976027,66.8915395 C55.244863,66.9638505 56.2517123,67.2771979 56.9109589,67.3495089 C56.968487,62.4349156 56.736345,57.5212123 56.2157534,52.634231 C55.5777315,52.4680405 54.9044525,52.5016783 54.2859589,52.7306456 C57.2585616,47.7050347 60.9263699,43.0891859 64.3784247,38.3889743 C64.2827802,34.4592103 63.4108472,30.5878041 61.8133562,27 C57.012091,28.1714255 52.301213,29.689886 47.7174658,31.5435379 C48.760274,33.4356744 50.114726,35.0265152 53.015411,35.0265152 C50.890211,36.3368912 48.371006,36.845195 45.9075342,36.4606823 L45.7756849,36.8824962 C43.3898728,38.9609399 41.2790444,41.3384773 39.494863,43.9569173 L39.494863,44.0774355 C43.3003767,44.6190231 47.1797213,43.9843429 50.6181507,42.25761 C46.6866438,45.2223589 43.5582192,48.1871077 39.255137,48.4884033 C37.0976027,50.6938872 34.9520548,53.0680967 32.7945205,55.2494769 C37.9366438,55.9002755 43.0787671,56.0328455 48.2208904,54.3094346 C44.7568493,61.2753893 40.2020548,63.770117 33.4777397,65.0837659 L33.5496575,65.6863571 C31.4828857,68.2205183 29.6267522,70.9211829 28,73.7610796 C33.6687273,76.9471426 40.6785869,76.4403179 45.8356164,72.4715344 C42.4075342,81.6791284 41.1729452,90.8746706 45.2363014,100.082265 C45.6045598,97.8040398 46.2319625,95.5759074 47.1061644,93.4417092 C46.4506316,96.4845165 46.0933295,99.584607 46.0393836,102.697511 C50.8339041,105.348912 56.4554795,103.673708 60.7705479,100.178679 L60.6386986,99.576088 C61.2906895,96.3102054 62.123028,93.0833567 63.1318493,89.9105246 Z" id="Shape" fill="#FE560F"></path>
                    <path d="M53,35.4537822 C50.1197302,35.4537822 48.8094435,33.8643253 47.7824621,32 L47.53457,32.0956064 L46,36.8759278 C48.4260835,37.2572174 50.9070543,36.7531743 53,35.4537822 Z" id="Shape" fill="#E6250C"></path>
                    <path d="M110,165.131497 C111,166.071507 109.679487,167.734602 110.24359,169 C111.989607,168.227414 113.662337,167.316238 115.24359,166.276381 L116,166.553563 C114.948718,164.360206 112.064103,165.131497 110,165.131497 Z" id="Shape" fill="#FE560F"></path>
                    <path d="M177.993133,106.331727 L181,92.6196319 C181,92.6196319 179.908798,87.8670757 178.247747,86 C177.0353,86.3394683 175.931974,86.8122992 174.683155,87.1517675 C173.881074,94.7019857 172.045233,102.106181 169.227146,109.156588 C167.66309,109.362694 166.293026,109.447561 164.72897,109.653666 L154.071567,118.225241 C152.398391,117.873649 150.543348,117.170465 148.870172,116.818872 C147.003004,118.588957 145.232833,120.225679 143.37779,121.995764 C142.322961,125.632924 140.88015,129.924774 139.825322,133.537686 C139.473712,132.42229 139.570708,131.35539 139.219099,130.252118 C132.453648,130.652206 125.882189,130.870435 119.06824,131.270523 L114.424571,138.132632 C115.637017,141.163599 116.437232,143.721735 117.649678,146.752702 C116.464482,147.814647 115.435796,149.039213 114.594313,150.389863 C116.70397,152.014461 118.571137,153.687555 120.656545,155.312153 C115.227653,154.697675 109.942819,153.164369 105.028112,150.777826 C100.055945,152.473787 95.1788698,154.436663 90.418133,156.657902 C90.418133,156.657902 87.3385193,156.730646 85.5683476,156.718522 C85.3137339,157.373211 85.2167382,157.930909 84.9621245,158.634093 C82.2341202,158.367368 79.3484979,158.040023 76.6204936,157.773298 C75.8687768,156.960999 75.4080472,155.566754 74.32897,155.23941 C72.158691,154.560473 70.1581545,153.748174 68,153.069238 C70.1674244,155.919859 72.5378578,158.61027 75.0928112,161.119486 C75.0928112,161.119486 87.7507511,162.841075 93.7523605,162.610722 C99.0022532,164.744522 104.737124,166.769208 109.987017,168.903009 L110.193133,168.806018 C109.647532,167.593631 110.908476,165.859918 109.962768,164.914257 C111.914807,164.914257 114.630687,164.138329 115.637017,166.344873 C117.940665,167.266287 120.717167,168.030091 122.911695,169 L123.008691,169 C122.863197,165.229477 125.227468,162.73196 129.36191,163.762489 C129.633211,164.043548 129.884404,164.343343 130.113627,164.659655 C134.705541,165.756747 139.398183,166.378339 144.117382,166.514607 L144.262876,166.187263 C140.055687,159.300906 146.190665,150.171633 153.732082,150.341367 C156.867142,149.430809 159.934143,148.30049 162.9103,146.958808 L163.031545,146.667835 C161.928219,145.140228 161.455365,143.151914 159.660944,143.151914 C162.376824,135.877593 166.438519,127.330266 173.373712,121.923021 L173.434335,121.76541 L177.326288,117.049226 C175.204506,116.430909 172.997854,116.212679 172.997854,115.279141 C171.991524,111.314636 174.913519,109.035349 177.993133,106.331727 Z" id="Shape" fill="#E6250C"></path>
                    <path d="M123.006245,169 C125.223652,167.857246 127.280167,166.463405 129.128764,164.85035 L130,165.038971 C129.774364,164.749494 129.527102,164.475132 129.260046,164.217917 C125.190301,163.26372 122.863028,165.549356 123.006245,169 Z" id="Shape" fill="#FE560F"></path>
                    <path d="M144.381723,167 C146.598484,161.87145 148.889136,156.99994 151.105896,151.85915 L154,151.002352 C146.389123,150.830992 140.120617,160.059934 144.381723,167 Z" id="Shape" fill="#FE560F"></path>
                    <path d="M160,143.44782 C161.832007,143.44782 162.314766,145.456639 163.441202,147 C166.981432,138.805488 173.343943,123.727095 174,122 C166.931919,127.426262 162.772767,136.135228 160,143.44782 Z" id="Shape" fill="#FE560F"></path>
                    <path d="M177.790972,108.003421 L178,107 C175.061994,109.734322 172.251728,112.142531 173.180741,116.168757 C173.180741,117.147092 175.294248,117.423033 177.326465,118 L177.407754,117.887115 L177.790972,108.003421 Z" id="Shape" fill="#FE560F"></path>
                    <path d="M70.0722892,82.9486771 C69.8773355,84.8611255 69.4023051,86.7339628 68.6626506,88.5062662 C66.939759,89.3678138 64.9036145,90.0716133 63.1807229,90.9331609 C62.1594208,94.1193084 61.3147446,97.3601666 60.6506024,100.64074 C60.6506024,100.64074 62.0722892,107.266163 62.9638554,110.797295 C60.2329504,113.522363 57.079117,115.780694 53.626506,117.48339 C50.3373494,114.82594 45.8795181,107.690869 45.8795181,107.690869 C45.8795181,107.690869 45.8795181,98.8691068 47.0843373,94.4642928 C44.6746988,99.5850408 44,110.760891 44,110.760891 L51.8795181,125.916849 C51.8795181,125.916849 51.2891566,132.34812 50.7710843,135.697235 C49.140578,135.790125 47.5070072,135.580354 45.9518072,135.078377 C48.2712519,137.863911 51.3367041,139.919373 54.7831325,141 C54.8433972,135.454566 55.6540758,129.943299 57.1927711,124.61846 C56.9277108,123.744778 56.8072289,123.01671 56.5301205,122.191566 C60.6521393,120.868609 64.4386637,118.657443 67.626506,115.711757 C68.6416927,111.027932 69.1546722,106.247874 69.1566265,101.45375 C67.6656446,100.488758 66.2909749,99.3526423 65.060241,98.0682315 C65.3614458,96.9882634 65.7590361,95.8233539 66.060241,94.7433857 C69.8336047,93.9471378 73.4816277,92.6366918 76.9036145,90.8482196 C77.9133044,87.349657 78.6148147,83.7682602 79,80.1456137 L77.9518072,80 C75.466798,81.3305669 72.8170356,82.3221623 70.0722892,82.9486771 Z" id="Shape" fill="#800060"></path>
                    <path d="M72.4745418,78.6358827 C71.9979633,77.2539123 71.5702648,75.787084 71.0814664,74.392991 C67.3916848,73.6448116 64.0515893,71.7155033 61.5743381,68.9014767 C61.8676171,68.6347807 62.3075356,68.4529425 62.6008147,68.1862464 C62.4786151,63.3372272 62.6008147,58.4882081 62.4786151,53.6391889 L60.8167006,53.2997575 C64.3343745,49.7867643 67.4829432,45.9281214 70.2138493,41.783337 C69.8032703,37.2544723 68.8977501,32.7832868 67.5132383,28.4485343 L62.7352342,28 C64.3240203,31.5681271 65.1917305,35.4108067 65.2892057,39.3103372 C61.7698574,44.062376 58.0305499,48.6810668 55,53.7361693 C55.6305503,53.5058583 56.316954,53.4720232 56.9674134,53.6391889 C57.4980391,58.5548571 57.7347061,63.4973885 57.6761711,68.4408199 C57.0162933,68.3680846 55.9898167,68.0528984 55.3177189,67.9801631 C58.8450854,71.8371053 62.9702711,75.1109467 67.5376782,77.6782015 C67.3788187,78.7207406 66.9389002,79.7390346 66.7922607,80.7936963 C68.2586558,81.4483139 69.4806517,82.2241569 70.9592668,83 C73.7611502,82.3705377 76.465433,81.3716504 79,80.0299758 C76.8003017,79.6865796 74.6217327,79.2211521 72.4745418,78.6358827 Z" id="Shape" fill="#B80054"></path>
                    <path d="M135.838341,19.137739 C134.623032,19.7187122 132.119497,21.110627 132.119497,21.110627 L127.756539,26.3393851 L124.499513,40.9484386 C124.499513,40.9484386 119.370911,47.3149359 117.013213,50.6313241 C116.933284,53.3491092 116.525248,56.0474394 115.797904,58.6681191 C114.353105,59.3100575 112.867172,59.8559163 111.349875,60.302106 L108.53036,62.1418543 C106.534094,61.6377231 104.619309,60.8553685 102.842716,59.8179618 C103.085561,53.654966 102.78463,47.4826355 101.943388,41.3720649 C101.567561,46.4523589 100.437177,51.4490374 98.5891369,56.1989833 C97.9085641,56.332123 97.2401445,56.3563302 96.5717248,56.4894699 C92.6667387,54.7102773 89.3345351,51.8860833 86.946482,48.3316388 C87.3961461,43.0181554 88.3197805,37.7288792 89.2798742,32.4880174 C86.8083909,29.1798849 84.0688277,26.079051 81.0886953,23.2166546 C81.8300334,22.7688211 82.777974,22.3936093 83.5193122,22.0062939 C81.4289817,21.510046 79.4358758,20.9169693 77.3455453,20.4207214 C77.163249,19.6218833 77.0781774,18.8230453 76.9201873,18 C75.9901189,19.7094475 75.3417984,21.5565858 75,23.4708303 C75.7337679,23.609772 76.4321402,23.8937454 77.0538713,24.3059792 C77.1267898,24.7296054 76.8958812,25.1653353 76.9687997,25.5889615 C80.0192239,27.8160252 82.9481172,30.0430888 85.791939,32.5243282 C84.5766305,38.3461632 83.4220875,44.2164125 82.2675445,50.0382474 C85.4194228,54.6349825 90.1911178,57.8838061 95.6359373,59.1401598 C96.1037854,61.0445194 96.4167281,62.9833413 96.5717248,64.9377875 C100.391914,66.7859252 104.554172,67.8284341 108.797728,68 C110.013036,66.1360445 111.009589,64.3083999 112.164132,62.4444444 L116.393406,61.9118857 C117.754551,58.885984 117.608714,56.5499879 117.900388,53.2457032 C121.125903,50.2318168 124.135104,46.9962429 126.905824,43.5628177 C127.477019,38.5761317 127.732233,33.4926168 128.70448,28.5664488 C131.030749,26.6611888 133.465408,24.8911237 135.996331,23.265069 C136.015023,21.8875013 135.962289,20.509891 135.838341,19.137739 Z" id="Shape" fill="#B80054"></path>
                    <polygon id="Shape" fill="#B80054" points="143 23.06 143 23 143 23"></polygon>
                    <path d="M179.07,71.36 C179.07,71.24 179.07,71.12 179,71 C179.03,71.12 179.05,71.21 179.07,71.36 Z" id="Shape" fill="#B80054"></path>
                    <path d="M139.258623,87.3157716 C139.258623,87.3157716 141.889643,83.9981365 143.340391,82.4368965 C141.82817,79.4363883 138.422599,73.7646959 138.422599,73.7646959 C138.422599,73.7646959 137.746402,70.7275961 137.19315,69.1785533 C138.943485,68.0534537 140.58926,66.775826 142.110943,65.3608335 C143.088856,66.0620652 144.160613,66.6244929 145.295214,67.0318482 C146.502899,63.653439 147.407998,60.1759745 148,56.6398441 C146.032883,54.2004066 142.442894,49.1873624 142.442894,49.1873624 C142.442894,49.1873624 141.213446,43.1985431 141.00444,40.0516686 L138.766844,38.3684567 C140.406892,33.3755114 141.507284,28.2237461 142.049471,23 L138.779139,23.7074369 C138.214441,29.0969242 136.825633,34.3696488 134.660487,39.3442317 L136.037469,40.5639505 C137.070529,43.9502466 137.851283,47.4073001 138.373421,50.9071658 C140.672489,53.2246315 142.799434,55.5299001 145.098502,57.8473657 C144.610011,59.51462 144.001931,61.1450725 143.278919,62.7262409 C141.547702,62.1528332 139.771074,61.7244312 137.967703,61.4455362 C136.062058,63.7995934 134.00888,66.1658479 132.238474,68.6174826 C132.705665,71.3130612 134.193297,76.3626969 134.193297,76.3626969 C134.193297,76.3626969 138.176709,80.2170083 140.04547,82.3759106 C137.586574,83.9127562 134.820315,85.3764188 132.386008,87.0352363 C131.995967,89.6716876 131.901133,92.3428572 132.103235,95 C133.799873,94.158394 135.594868,93.3533796 137.32839,92.3654074 C138.066059,90.1577164 139.258623,87.3157716 139.258623,87.3157716 Z" id="Shape" fill="#B80054"></path>
                    <path d="M155.897179,96.1952462 C155.897179,96.0645161 155.897179,95.9337861 155.897179,95.803056 C154.549374,97.6274167 152.9453,99.2484781 151.134375,100.616299 C148.11478,100.839194 145.079145,100.687499 142.096955,100.164686 C140.174837,98.1574813 138.676623,95.7850689 137.691362,93.188455 C137.786618,92.8319185 137.905688,92.4040747 138.060479,92 C136.381591,92.9626486 134.643167,93.7470289 133,94.5670628 C133,94.8641766 133,95.1494058 133.059535,95.4584041 C133.500094,99.8556876 138.131921,102.494058 140.822905,106 C142.424338,105.632104 143.964273,105.035704 145.395196,104.229202 C148.561243,104.536903 151.747478,104.580631 154.920804,104.359932 C155.856036,101.745995 156.189742,98.955456 155.897179,96.1952462 Z" id="Shape" fill="#800060"></path>
                    <path d="M179,73.6097138 C178.99866,75.5503894 178.652178,77.4750765 177.977024,79.292281 C175.463936,80.4414079 172.848705,81.3480222 170.166302,82 C169.805252,80.980052 169.552516,79.9479618 169.179431,78.9280139 C167.30065,78.0086645 165.472657,76.9872173 163.703501,75.86817 C163.763676,74.9332177 163.968271,74.0711188 164.028446,73.1361665 C163.455584,72.6111844 162.790168,72.1993165 162.06674,71.9219428 C160.892558,72.9089272 159.786761,73.9758936 158.757112,75.1153513 C158.244668,74.3410653 157.655973,73.6210144 157,72.9661752 C159.407002,71.2419775 161.537199,69.5663487 164.004376,68 C165.123632,68.461405 166.507659,68.9349523 167.61488,69.3963573 C167.265864,70.8534258 166.928884,72.444059 166.579869,73.9011275 C167.892047,74.827891 169.360032,75.5067124 170.912473,75.9045967 C171.454048,76.6816999 171.514223,77.1188205 172.043764,77.8473547 C174.690366,77.0738834 177.089156,75.6125745 179,73.6097138 Z" id="Shape" fill="#800060"></path>
                    <path d="M161,78 C161.180072,78.2452256 161.324818,78.5145212 161.43,78.8 C161.43,78.8 161.27,78.48 161,78 Z" id="Shape" fill="#B80054"></path>
                    <path d="M162.113699,79 C163.256807,82.4135922 162.987085,83.8815534 162.935709,87.4466019 C160.532117,88.4773733 158.21413,89.6649562 156,91 C156,90.223301 156,89.4466019 156,88.6699029 C157.669708,87.761165 159.493542,86.561165 161.266001,85.815534 C161.853165,83.5834274 162.137835,81.2946654 162.113699,79 Z" id="Shape" fill="#800060"></path>
                    <path d="M68.2779407,153.415481 C70.4359726,154.096816 72.4252199,154.911986 74.5711958,155.593322 C75.6200717,155.921823 76.0902574,157.333161 76.8497882,158.136164 C79.5623982,158.403831 82.4317367,158.732332 85.1443467,159 C85.3975236,158.342998 85.493972,157.783329 85.7471489,157.07766 C87.5073314,157.07766 90.5695666,157.016826 90.5695666,157.016826 C95.3307364,154.780766 100.208537,152.806862 105.181492,151.103806 C110.075965,153.501423 115.339347,155.04021 120.745846,155.654155 C118.648094,154.023816 116.791463,152.34481 114.717823,150.714471 C115.554558,149.359049 116.577439,148.130156 117.755947,147.064459 C116.550342,144.022782 115.754643,141.455606 114.549039,138.413929 L119.11828,131.551905 C125.845552,131.150404 132.379928,130.931403 139.155425,130.529902 C139.505051,131.649239 139.408602,132.707743 139.758227,133.82708 C140.807103,130.177067 142.241773,125.870052 143.290648,122.244373 C145.147279,120.468034 146.907462,118.825528 148.752036,117.049188 C150.415771,117.402023 152.260345,118.107692 153.92408,118.460527 L164.521342,109.858664 C166.076572,109.65183 167.438905,109.566663 168.994135,109.359829 C171.808704,102.286307 173.646368,94.8558934 174.455523,87.2772523 C175.661127,86.9365845 176.758227,86.4620829 178,86.121415 L178,85.9997479 C175.994733,85.3076071 173.886099,84.9700922 171.767025,85.0020778 C169.738321,91.2328239 167.322318,97.3282724 164.533399,103.252141 C163.014337,103.519808 160.349951,104.347145 160.349951,104.347145 C160.349951,104.347145 154.442489,110.430499 151.416422,113.472176 C149.005213,113.53301 146.738677,113.557343 144.35158,113.618177 C142.386223,115.128188 140.510298,116.753204 138.733464,118.48486 C138.733464,118.48486 136.840665,123.947712 135.815901,126.563555 C132.018247,126.806889 124.652004,127.196224 124.652004,127.196224 C124.652004,127.196224 119.660802,126.06472 117.032584,125.772719 C113.15934,130.152262 109.82012,134.984453 107.086347,140.165935 C107.363636,141.759774 107.80971,143.402279 108.086999,145.032618 C104.771587,144.58245 101.661127,144.095782 98.3457152,143.645614 C97.7188009,145.190786 97.3330075,146.857625 96.7060932,148.402797 C94.3192421,147.905085 91.9029889,147.563704 89.4724666,147.380793 C87.4419046,149.075452 85.7970917,151.191839 84.6500489,153.585815 C82.806257,153.930627 80.9289015,154.057206 79.0560443,153.962983 C78.9113718,153.683148 78.983708,153.415481 78.8390355,153.135646 C74.9698424,151.544848 71.0176402,150.167969 67,149.011132 C67.2211914,150.532026 67.6513076,152.014397 68.2779407,153.415481 Z" id="Shape" fill="#800060"></path>
                    <path d="M93.7003027,22.490191 C93.1432896,23.4538253 92.3562059,24.4656412 91.2785066,24.5499592 C90.3709798,24.5217334 89.5069789,24.1564603 88.8567104,23.5260978 C86.8419321,21.9103791 84.9366724,20.1640036 83.1533804,18.2983821 C88.4367027,15.4207688 92.8353762,11.1700791 95.8799193,6 C97.2496004,11.574588 96.4720476,17.4572716 93.7003027,22.490191 Z M117.918264,11.5168061 L113.837538,14.6847536 C111.123078,22.0795067 105.443918,28.0211442 98.1564077,31.0906267 C100.481332,33.4997123 102.709384,36.1978882 105.034309,38.6551555 C112.280017,31.3072801 116.830745,21.7487222 117.954591,11.5168061 L117.918264,11.5168061 Z M156.509586,32.1747152 C154.545932,31.6049596 152.491088,31.4128181 150.455096,31.6085801 C148.897792,29.563082 146.931075,27.8609772 144.679112,26.6097274 C143.337123,30.0716299 143.384814,33.9143131 144.812311,37.3422038 C149.142561,36.7602643 153.216679,34.9636913 156.558022,32.1626698 L156.509586,32.1747152 Z M172.675076,44.5453698 C169.723373,42.5232935 166.417169,41.0688448 162.927346,40.2571974 C159.570276,41.809195 155.862395,42.4571608 152.174571,42.1362842 C154.596367,45.0753687 157.357215,47.4362726 161.110999,47.9060443 C165.243612,48.1786075 169.33993,46.9881628 172.675076,44.5453698 Z M152.876892,52.1339895 C151.54166,53.8574817 150.70434,55.9106426 150.455096,58.0723855 C153.5879,62.7424291 158.920819,65.4745819 164.562059,65.2996424 C166.803802,65.1826597 169.048235,65.4724556 171.185671,66.1548678 C171.464582,64.1138984 170.876673,62.0495606 169.563068,60.4573803 C171.464974,59.613271 173.284929,58.5971877 175,57.4219324 C167.483643,56.3041153 160.08073,54.5306144 152.876892,52.1219441 L152.876892,52.1339895 Z M59.5287588,28.5129051 C56.0155481,29.1699881 52.6512975,30.4555698 49.5993946,32.3072149 C51.0709078,33.0113848 52.6673208,33.4206721 54.2976791,33.5117577 C56.5499495,33.6081211 59.0686176,30.7533547 59.5287588,28.5129051 Z M52.5539859,36.474933 C50.7677387,37.6430991 48.6193038,38.1346457 46.4994955,37.8601572 C44.8849267,39.1475724 43.4798766,40.6752646 42.3340061,42.3892382 C46.160444,42.1362842 50.0474268,39.4260629 52.5539859,36.474933 Z M51.0403633,44.015371 C47.6498486,46.7858194 39.6337033,50.4355841 39.6337033,50.4355841 L36.4974773,53.7842131 C42.3340061,53.4228503 48.0978809,49.1105871 51.0403633,44.015371 Z M44.3198789,70.8284939 C48.1826438,67.2148654 49.2361251,61.5294234 50.0595358,56.2776168 C46.596481,61.5343195 41.1637936,65.194932 34.9717457,66.443958 L31,72.8400804 C35.4361849,74.9391305 40.7098597,74.1426928 44.3198789,70.8284939 Z" id="Shape" fill="#FF8933"></path>
                    <path d="M99.0364724,159.648811 C98.5377943,155.81279 103.269155,154.441924 106.115268,155.031156 C107.339469,155.179636 108.508506,155.621316 109.520875,156.317846 C108.784515,159.170795 108.256101,162.072292 107.9397,165 C105.592265,164.15824 99.4135217,162.558896 99.0364724,159.648811 Z M121.124262,164.891774 C121.554005,162.285057 122.373849,159.75611 123.556838,157.388084 C123.496023,157.508336 119.275504,157.388084 118.691686,157.628587 C117.565227,157.997443 116.655732,158.830844 116.198296,159.913364 C115.018496,163.015851 118.801152,164.206341 121.124262,164.891774 Z M137.872547,161.885488 C138.237358,153.620158 143.33563,146.283375 151.008457,142.981962 C147.612636,140.705629 143.842957,139.029297 139.867259,138.027603 C135.862593,137.033019 131.63768,137.375471 127.850334,139.00164 C125.291323,140.164734 123.164748,142.090618 121.768894,144.509156 C120.10258,147.479366 121.026959,148.826182 122.985182,151.255261 C126.904467,156.048422 132.048562,159.718532 137.88471,161.885488 L137.872547,161.885488 Z M167.987837,121 C167.45267,121.565182 163.572712,121.673408 162.624007,121.962011 C160.784114,122.51186 159.013233,123.266248 157.345317,124.210713 C154.02709,126.003805 151.191165,128.556097 149.074559,131.654277 C146.739286,135.26182 148.332624,137.751025 152.188256,139.109866 C153.102997,139.526403 154.081115,139.790511 155.083022,139.8915 C156.493916,139.8915 156.29931,139.290243 156.907454,137.955452 C157.695815,136.072156 158.589129,134.233498 159.583287,132.447937 C161.893771,128.31378 164.721584,124.483709 168,121.048101 L167.987837,121 Z" id="Shape" fill="#CC0B1B"></path>
                    <path d="M179.975734,73.4746069 C179.637245,70.620172 178.755954,67.8565613 177.379223,65.3323021 C177.989495,62.9284015 178.295215,60.4575132 178.289215,57.9775715 L178.289215,57.8564063 L178.192149,57.7594741 C177.081006,56.6079874 175.862135,55.5652583 174.552181,54.6455272 C175.367631,51.5945602 175.775606,48.4493268 175.765504,45.29157 L175.765504,45.037123 L175.559239,44.8674916 C171.878304,42.1033483 167.755454,39.9812621 163.365345,38.5911317 C163.285755,36.5004199 162.95996,34.4263351 162.394687,32.411704 L162.309754,32.0724414 L161.982157,31.9755092 C158.70136,31.0147919 155.323734,30.4214732 151.911578,30.2064965 C149.450016,27.3831873 146.588733,24.934035 143.418319,22.9365816 L143.333386,22.7669502 L143.333386,22.5609693 L142.945123,22.645785 L142.156463,22.161124 L142.083664,22.8396494 L139.657018,23.3727765 L136.223315,21.7733952 C136.225813,21.1624923 136.197467,20.551852 136.138382,19.9437999 L136.514512,19.7741686 L136.174782,19.1925754 L136.01705,18.9260119 L136.01705,18.6836814 L135.932117,18.6836814 C135.052122,17.1197385 133.934739,15.7014299 132.619746,14.4792472 L132.267883,14.1642176 L131.879619,14.4307811 C131.527756,14.6731116 131.236558,14.9275586 130.957494,15.1577726 C127.737494,12.3438058 124.319263,9.76442763 120.729183,7.43954627 L120.425852,7.24568188 L120.110389,7.41531323 C118.144856,8.47767455 116.284247,9.72313471 114.55337,11.1350864 L110.270341,7.5001289 L110.076209,7.33049755 L109.833545,7.33049755 L108.741554,7.43954627 C105.576702,4.7794643 102.200646,2.38057742 98.646709,0.266563547 L98.2099128,0 L97.8823156,0.375612271 L95.4556701,3.24722867 L93.3930214,3.91363754 L93.1867565,3.98633668 L93.0775575,4.14385151 L84.8269627,15.3758701 C81.9430309,15.8629222 79.102845,16.5800949 76.3337034,17.520495 L75.8362411,17.6901263 L75.9333069,18.2353699 L75.9333069,18.3323021 C75.111327,19.9008487 74.5149708,21.5773212 74.1618557,23.3121939 C71.5110174,24.6261379 68.9421734,26.0989644 66.4693894,27.7226089 L62.8294211,27.3712297 L62.7080888,27.0925496 L62.2106265,27.2137149 L61.9072958,27.286414 L61.4583664,27.286414 L61.4583664,27.4318123 C56.7189426,28.6189695 52.0653426,30.1248546 47.5294211,31.9391596 L47.2624901,32.0482083 L47.1775575,32.3268884 L45.5153053,37.4521784 C43.1238622,39.5458753 41.0006392,41.9266346 39.1938937,44.5403454 L39.048295,44.7342098 L39.048295,44.9765403 C39.2753155,46.252332 39.3161835,47.5542254 39.1696273,48.8417118 L32.3750198,55.9056458 L32.1930214,56.0995102 L32.1930214,56.3539572 C32.277954,59.7587007 32.6176844,63.1392111 33.0059477,66.483372 C31.9503569,67.8040732 30.9190325,69.161124 29.9483743,70.5666409 C28.9777161,71.9721578 27.9949247,73.5715391 27.109199,75.1224542 L27,75.3284352 L27,75.5586491 C27.7643933,78.6968291 28.7107851,81.7501933 29.6814433,84.8035576 C30.6521015,87.8569219 31.6591594,90.8618201 32.702617,93.8061356 L32.9452815,102.287703 C33.0180809,105.147203 33.0908803,108.018819 33.2243458,110.878319 L33.2243458,111.060067 L33.3214116,111.193349 L39.9582871,120.244393 C40.8399683,122.748475 41.7580492,125.24044 42.7125297,127.720289 C43.6831879,130.216293 44.6659794,132.712297 45.8307692,135.135602 L45.8307692,135.208301 L45.8914354,135.208301 L46.0006344,135.208301 C48.3856914,137.958351 51.509967,139.968254 55.0034893,141 C51.5926143,139.883669 48.5707935,137.82006 46.2918319,135.050786 L46.2918319,134.965971 L46.1583664,134.965971 L46.0613006,134.965971 C44.9935765,132.542666 44.0835845,130.058778 43.1978588,127.562774 C42.3121332,125.06677 41.4628073,122.498067 40.649881,119.965713 L34.3527359,110.829853 C34.3527359,108.018819 34.2314036,105.207786 34.1464711,102.348286 L33.9038065,93.7576695 L33.9038065,93.6607373 L33.9038065,93.5759216 C32.8522601,90.5710235 31.8371134,87.5499699 30.8583664,84.512761 C29.9119746,81.556329 29.0019826,78.5877804 28.2618557,75.5949987 C29.0990484,74.1410157 29.9605075,72.7112658 30.9190325,71.3420985 C31.8775575,69.9729312 32.969548,68.5068317 34.0736717,67.1376643 L34.2314036,66.9437999 L34.2314036,66.6893529 C33.8552736,63.3451921 33.50341,60.0010312 33.4063442,56.6689869 L40.1645519,49.6414024 L40.2980174,49.5081206 L40.2980174,49.3263728 C40.4931634,47.9458719 40.4685938,46.5432453 40.2252181,45.1704047 C41.9509684,42.6535472 43.989442,40.365457 46.2918319,38.3609178 L46.4374306,38.251869 L46.4374306,38.0822377 L48.0632831,33.0781129 C52.6694333,31.2339231 57.4012215,29.7195678 62.2227597,28.5465326 L62.1135607,28.6919309 L66.3480571,29.0917762 L66.5664552,29.0917762 L66.7484536,28.970611 C69.3172901,27.275057 71.9920561,25.7452544 74.7563838,24.3905646 L75.0354481,24.2572828 L75.0354481,23.9543697 C75.3692012,22.1629045 75.979061,20.433941 76.843299,18.8290797 L76.9403648,18.6473318 C79.5431697,17.7985544 82.2084774,17.1544135 84.9118953,16.7208043 L85.1545599,16.7208043 L85.3001586,16.5148234 L93.5386201,5.2101057 L95.5770024,4.54369683 L95.7590008,4.54369683 L95.8560666,4.42253158 L98.064314,1.81747873 C101.48193,3.87123296 104.727995,6.19707805 107.770896,8.77236401 L107.965028,8.94199536 L108.207692,8.94199536 L109.28755,8.84506316 L113.752577,12.6254189 L114.128707,12.9525651 L114.516971,12.6375354 C116.212077,11.2354571 118.03148,9.99039463 119.952657,8.91776231 C123.632089,11.1145791 127.140445,13.5852736 130.447898,16.3088425 L130.799762,16.6359887 L131.200159,16.3573086 C131.539889,16.1149781 131.831086,15.8847641 132.098017,15.6545501 C133.129477,16.6905736 134.022594,17.8553211 134.755194,19.1198763 C134.755194,19.1198763 134.755194,19.1198763 134.585329,19.253158 C134.465928,19.3799672 134.408267,19.5527134 134.427597,19.7257025 C134.4451,19.9495944 134.585189,20.1454485 134.791594,20.2345965 L134.973592,20.2345965 C134.973592,20.8040732 134.973592,21.446249 134.973592,22.0036092 L134.973592,22.391338 L135.337589,22.5609693 L139.268755,24.4026811 L139.47502,24.4996133 L139.669151,24.4996133 L142.095797,23.9786027 L142.350595,24.2936324 L142.969389,24.0391854 C146.00891,26.0006185 148.750681,28.387695 151.110785,31.1273524 L151.28065,31.3212168 L151.559715,31.3212168 C154.845654,31.5239145 158.100057,32.0804637 161.266297,32.9811807 C161.814748,34.9221334 162.108403,36.9260089 162.139889,38.942511 L162.139889,39.3787059 L162.552419,39.5241042 C164.732301,40.2884195 166.870668,41.1660464 168.958763,42.15339 C170.964016,43.0802614 172.873934,44.2002867 174.66138,45.4975509 C174.768901,48.5664583 174.458693,51.6357366 173.739255,54.6212941 L173.666455,54.8999742 L173.896987,55.057489 C175.254548,55.9287074 176.526161,56.9267459 177.694687,58.0381542 C177.772008,60.4568479 177.539596,62.8754974 177.003093,65.2353699 L177.003093,65.3201856 L177.003093,65.3928848 C178.450649,67.8537166 179.414301,70.5679662 179.842268,73.3897912 L179.769469,73.4624903 C179.786878,75.1037347 179.553668,76.7380406 179.077875,78.3091003 C179.601949,76.7454358 179.884256,75.1111254 179.915067,73.4624903 L180,73.3776747 L179.975734,73.4746069 Z M62.0528945,28.0739881 L62.9871531,27.6620263 L62.5260904,28.3042021 L62.0528945,28.0739881 Z" id="Shape" fill="#FED893"></path>
                    <path d="M181,92.8375346 L181,92.7646826 C180.540773,90.9518764 179.881356,89.1965383 179.034077,87.5314768 C178.914216,84.336343 178.587882,81.1524525 178.057146,78 C178.44165,81.1823222 178.618922,84.3865615 178.587824,87.5921869 C179.335641,89.2399328 179.89796,90.9667474 180.264286,92.7403986 C179.058199,97.5972021 177.852111,102.454006 176.838997,107.310809 L176.838997,107.420087 L176.453049,116.793718 L172.617689,121.468391 L172.617689,121.541243 L172.617689,121.626237 L162.233273,146.638775 C158.445748,148.293566 154.54384,149.669232 150.558342,150.754916 L150.293003,150.83991 L150.172394,151.107034 L143.611276,166.065989 C141.271465,165.980995 138.931655,165.786723 136.615966,165.471031 C135.393797,165.301043 134.187709,165.098676 132.997703,164.86393 C131.791615,164.633232 130.585527,164.329682 129.379439,164.062558 L129.065856,163.989706 L128.8367,164.171836 C127.823586,165.009634 126.858715,165.871717 125.845602,166.660948 C124.926238,167.393989 123.936337,168.0326 122.890686,168.567243 C121.684598,168.045137 120.406145,167.608024 119.163875,167.183054 C117.921604,166.758084 116.510481,166.260261 115.244089,165.738155 L114.918445,165.604593 L114.653106,165.798865 C113.193987,166.820496 111.652912,167.718057 110.04585,168.482249 L94.0169427,162.374819 L93.8963339,162.374819 L93.7636642,162.374819 C90.6823995,162.405124 87.6019127,162.259185 84.537092,161.937706 C81.5218723,161.65844 78.5066526,161.318464 75.5155547,160.917777 L71.9696564,157.202323 C70.7471402,155.942324 69.6070087,154.603899 68.5564277,153.19546 C68.1046321,152.223947 67.7725046,151.200475 67.5674356,150.147816 L67.5674356,149.977828 L67.434766,149.904976 C62.959141,147.171915 58.7900136,143.959918 55,140.324931 C58.5945899,144.113436 62.5812598,147.50414 66.8920264,150.439224 C67.0536913,151.541416 67.3535868,152.61851 67.7845314,153.644714 C68.7950628,155.153158 69.9030339,156.593069 71.1012731,157.955127 C72.307361,159.327174 73.5134488,160.614227 74.791902,161.889138 L74.9366325,162.034842 L75.1296066,162.034842 C78.2171915,162.447671 81.3047765,162.799789 84.4164832,163.079055 C85.9723366,163.224759 87.516129,163.346179 89.0840433,163.431173 C90.6519575,163.516167 92.1233847,163.576877 93.6551163,163.516167 L109.696085,169.805728 L109.949363,169.902864 L110.17852,169.793586 C111.824483,169.0163 113.405555,168.106753 114.906385,167.073776 C116.112472,167.571598 117.378865,168.020853 118.621135,168.433681 C119.863406,168.846509 121.286589,169.33219 122.540921,169.890722 L122.794199,170 L123.035417,169.87858 C124.24434,169.280895 125.384822,168.552103 126.436585,167.70516 C127.401455,166.952356 128.306021,166.150983 129.222648,165.386037 C130.344309,165.641019 131.465971,165.920285 132.611755,166.138841 C133.757538,166.357397 135.096296,166.588096 136.338566,166.758084 C138.83462,167.100121 141.346694,167.310869 143.864554,167.389468 L144.274624,167.389468 L144.443477,167.013066 L151.064899,151.932691 C155.091459,150.835644 159.030388,149.435366 162.848378,147.743698 L163.065473,147.646562 L163.149899,147.440148 L173.618742,122.281906 L177.526467,117.522238 L177.659137,117.364392 L177.659137,117.157978 L178.045085,107.638643 C179.166746,102.78184 180.011008,97.8279002 180.987939,92.9225287 L181,92.8375346 Z" id="Shape" fill="#EA87B4"></path>
                    <path d="M206.857193,37.8455026 C209.329642,32.5995458 211.060344,27.0381472 212,21.3197252 C209.574148,15.7789423 207.148296,9.68287393 204.722443,4.14209101 C200.149712,3.46609135 191.004249,5.42166179 191.004249,5.42166179 L180.015139,19.2434405 C180.015139,19.2434405 179.8332,29.8421495 180.730766,35.057004 C185.278843,38.9749493 190.735256,41.7046662 196.607968,43 C200.175202,41.5965645 203.605914,39.8712052 206.857193,37.8455026 Z" id="Shape" fill="#FE560F"></path>
                    <path d="M212,22.9365352 C210.10589,26.1663808 208.175119,29.348199 206.293229,32.6140652 C205.694446,29.6123499 204.961242,26.6106346 204.362458,23.6569468 C203.360413,24.4253859 202.395028,25.3138937 201.405202,26.058319 C197.458121,24.0531732 193.59658,22.1560892 189.661718,20.1509434 C189.661718,18.3979417 190.04054,16.7530017 190.077201,15 C188.351285,16.396838 187.077296,18.2577902 186.411181,20.35506 C184.998375,23.6730443 183.953637,27.1309767 183.295064,30.6689537 C182.298657,27.615594 181.683152,24.4546832 181.462054,21.2555746 L180.007866,21.8919383 C179.951252,26.3059686 180.200302,30.7186705 180.75329,35.0994854 C185.335416,38.9964764 190.832679,41.7115941 196.749357,43 C200.354576,41.6176001 203.823284,39.9135056 207.111973,37.9090909 C209.361392,33.1345891 211.003118,28.1058032 212,22.9365352 Z" id="Shape" fill="#B80054"></path>
                    <path d="M183,34.4073252 C186.244374,37.654828 195.625113,41 195.625113,41 L205.346085,37.3374029 L210,20.9778024 C210,20.9778024 206.670567,11.8579356 203.59631,8 C204.689401,14.3500437 203.162708,20.8735692 199.367687,26.0688124 C196.013951,30.7447281 188.528803,32.6126526 183,34.4073252 Z" id="Shape" fill="#DB4200" opacity="0.6" style="mix-blend-mode: multiply;"></path>
                    <path d="M213,22.0876487 C212.299963,20.6866676 211.612207,19.2613216 210.936732,17.8481581 L208.92259,13.5843026 L205.004838,5.05659161 L205.508374,5.43424738 C203.237553,5.26483805 200.95463,5.35476552 198.704503,5.70226115 C196.420171,5.98245737 194.123558,6.37229559 191.87607,6.83522847 L192.318199,6.55503225 C188.633792,11.1965435 184.875698,15.8380548 181.043915,20.3942889 L181.166729,20.040998 C181.068478,22.6967709 181.031634,25.3525437 181.031634,28.020499 C180.986531,30.6833892 181.080815,33.3468067 181.314105,36 C180.790363,33.3746858 180.449771,30.7166676 180.294753,28.0448639 C180.122814,25.3769086 180.036844,22.7089533 180,20.0288156 L180,19.821714 L180.122814,19.6511598 C183.708969,14.9000066 187.393376,10.2341304 191.090063,5.58043671 L191.262002,5.36115271 L191.532192,5.36115271 C193.853368,4.89821983 196.162263,4.52056406 198.520283,4.26473273 C199.748418,4.14290829 200.878303,4.04544874 202.069594,4.02108385 C203.279605,3.96596601 204.492162,4.01897035 205.692594,4.17945562 L206.061035,4.17945562 L206.183848,4.49619917 L209.671753,13.2553766 L211.354298,17.6654214 C211.919241,19.1273147 212.471902,20.6013905 213,22.0876487 Z" id="Shape" fill="#FED893"></path>
                    <path d="M181,36.0411985 C183.378776,37.8300472 185.923206,39.3757031 188.596743,40.6559658 C191.250998,41.8949825 194.033194,42.8237977 196.890655,43.4248261 L196.50601,43.4248261 C198.254525,42.7547576 199.953744,41.9569117 201.590539,41.0374532 C203.273362,40.1514179 204.920124,39.1915463 206.554866,38.2193686 L206.278402,38.5393258 C207.480419,35.905832 208.622334,33.2108079 209.595967,30.4542536 C210.551711,27.6846114 211.354326,24.862057 212,22 C211.795355,24.9819891 211.291869,27.9345468 210.49748,30.8111289 C209.735979,33.6853964 208.75946,36.4953763 207.57658,39.2161584 L207.492439,39.4130551 L207.300116,39.5361156 C205.665374,40.5698234 204.006592,41.5420011 202.299729,42.4772606 C200.584576,43.4356392 198.800398,44.2584376 196.962776,44.9384698 L196.770454,45 L196.578131,45 C193.633885,44.3000125 190.80113,43.1772487 188.164017,41.6650615 C185.522739,40.1552868 183.109563,38.2609065 181,36.0411985 Z" id="Shape" fill="#EA87B4"></path>
                    <path d="M183.006804,31.374425 C186.726802,34.4334682 191.030923,36.6886873 195.651818,38 C198.707774,36.9546929 201.646019,35.5877523 204.417921,33.9218031 C205.71255,29.501194 206.570791,24.9624341 206.980138,20.3716651 C207.276691,17.2382705 204.180679,14.5952162 202.484397,12 C199.70131,17.9019345 196.343666,23.5105753 192.46091,28.7433303 C189.456386,27.8495828 186.550764,26.6473331 183.789703,25.1554738 C183.217137,27.1763714 182.953144,29.2733921 183.006804,31.374425 Z" id="Shape" fill="#DB4200" opacity="0.6" style="mix-blend-mode: multiply;"></path>
                    <path d="M3.00746152,134.38843 C1.35279458,128.529433 0.713595643,122.431032 1.11749893,116.356875 C3.14915266,113.625337 5.51036328,111.1544 8.14767824,109 C11.8132251,109.091522 15.4528964,109.640743 18.9818587,110.634861 C21.6066896,113.233306 23.9583217,116.093184 26,119.169797 C24.8678464,125.739554 22.8681589,132.130357 20.0532387,138.175056 C16.6271214,139.719806 12.9640933,140.674918 9.2190583,141 C7.13648806,138.884298 5.16225963,136.504132 3.00746152,134.38843 Z" id="Shape" fill="#FE560F"></path>
                    <path d="M20.8566203,139.173231 C23.7644737,133.019837 25.8302712,126.514189 27,119.826386 C24.8908175,116.694476 22.4614331,113.783197 19.7498171,111.13805 C17.9465984,110.685277 16.1806876,110.29369 14.4023409,110 C17.1184132,112.574998 18.8340795,116.003397 19.2523775,119.691778 C18.0010921,122.214579 16.3702097,124.537205 14.4147769,126.581262 C15.630106,129.665617 16.5583251,132.852184 17.1880029,136.101721 C15.1236008,138.429017 12.6975277,140.419786 10,142 C13.7512536,141.646277 17.4184995,140.691426 20.8566203,139.173231 Z" id="Shape" fill="#B80054"></path>
                    <path d="M5,132.842882 L12.4554102,138.999028 C14.6158445,139.0248 16.7526831,138.537549 18.6979786,137.575572 C22.0877293,131.953447 24.2383729,125.642557 25,119.0828 L15.2734839,118 C14.8935348,121.124472 13.9671588,124.153486 12.5386445,126.942228 C11.0285375,129.72831 8.07966706,132.81855 5,132.842882 Z" id="Shape" fill="#DB4200" opacity="0.6" style="mix-blend-mode: multiply;"></path>
                    <path d="M25.663356,119 L26,119.411579 C25.7376894,122.780763 25.1374907,126.114581 24.2085729,129.362105 C23.2953102,132.617384 22.1377721,135.798113 20.7459488,138.876842 L20.6257188,139.155263 L20.3491898,139.276316 C16.8638788,140.885334 13.105571,141.809769 9.27600627,142 L8.98745426,142 L8.83115525,141.830526 C7.78515421,140.704737 6.78724516,139.554737 5.84945112,138.356316 C4.91165708,137.157895 3.96184004,135.935263 3,134.809474 C4.20230005,135.753684 5.2723471,136.831053 6.37846315,137.872105 C7.48457919,138.913158 8.50653424,140.014737 9.62467329,141.007368 L9.19184527,140.85 C12.8212304,140.370698 16.36143,139.359283 19.6999477,137.847895 L19.3031887,138.247368 C20.6738108,135.221053 21.9001568,132.194737 23.0303189,129.011053 C24.1604809,125.827368 25.086252,122.68 25.915839,119.423684 L25.663356,119 Z" id="Shape" fill="#EA87B4"></path>
                    <path d="M2.76673283,134 C1.68437211,131.141667 0.924014051,128.178634 0.498870149,125.162385 C0.0444811116,122.134302 -0.100014585,119.070222 0.0674832254,116.014679 L0.0674832254,115.811927 L0.203061973,115.633028 C2.28375841,112.843092 4.74201161,110.336002 7.51198899,108.178899 L7.73384512,108 L8.01732796,108 C11.8287775,108.10714 15.6051799,108.737596 19.233388,109.872477 L19.4059427,109.872477 L19.4922201,109.96789 C20.7486749,111.263812 21.9257017,112.629754 23.0172676,114.058716 C24.1071233,115.475326 25.1033536,116.957179 26,118.495413 C24.8660687,117.13578 23.719812,115.8 22.4996032,114.53578 C21.2793945,113.27156 20.0345351,112.019266 18.728049,110.850459 L18.9868812,110.993578 C15.3996828,110.159406 11.7304354,109.699594 8.04197864,109.622018 L8.55964295,109.443119 C5.92707004,111.563341 3.54972155,113.9638 1.47257206,116.599083 L1.62047615,116.217431 C1.36846879,119.193152 1.33963415,122.182632 1.53419877,125.162385 C1.75264109,128.1304 2.1643028,131.082129 2.76673283,134 Z" id="Shape" fill="#FED893"></path>
                    <path d="M19.0533902,113.019185 C20.7125097,114.721823 23.1830234,116.616307 22.9892576,118.930456 C22.5134897,125.280908 20.6322774,131.449933 17.4790432,137 C15.5581423,136.423233 13.7279641,135.583798 12.0414911,134.505995 C14.2598842,130.842195 15.8477946,126.838803 16.7403112,122.659472 C15.3812112,118.839833 13.445841,115.245947 11,112 C13.6037277,112.275779 16.4496625,112.719424 19.0533902,113.019185 Z" id="Shape" fill="#DB4200" opacity="0.6" style="mix-blend-mode: multiply;"></path>
                    <path d="M43,168.974333 C42.4905625,163.043518 40.5823703,157.319983 37.4334471,152.277713 C34.5426621,151.461487 31.5921502,150.645261 28.6296928,151.161404 C23.6879119,152.012649 19.0171315,154.028233 15,157.043031 C15.9767807,162.272723 17.8308138,167.297612 20.4829352,171.903143 C23.7081911,173.559601 30.8276451,175 30.8276451,175 C30.8276451,175 39.5836177,170.786834 43,168.974333 Z" id="Shape" fill="#FE560F"></path>
                    <path d="M26,168.664134 L31.7513369,175 C31.7513369,175 40.5588235,170.760029 44,168.977314 C43.4868653,163.025721 41.5648245,157.282135 38.3930481,152.2222 C35.7932068,151.315797 33.0462271,150.907177 30.2954545,151.017663 C32.7906592,154.118151 34.7322901,157.626726 36.0347594,161.388729 C32.8322478,164.004863 29.4817716,166.434026 26,168.664134 Z" id="Shape" fill="#B80054"></path>
                    <path d="M22,170.366032 C24.6215406,171.368237 27.3961629,171.919569 30.2045455,171.99632 C34.1868687,172.103419 37.677399,169.854336 41,167.688552 C40.7501046,162.590876 39.3087364,157.620687 36.7897727,153.170661 C33.5869085,152.841048 30.3523372,152.989462 27.1938131,153.610958 C28.9968225,156.481584 29.4355154,159.993786 28.3933081,163.214186 C27.4285467,166.416259 25.0892293,169.033126 22,170.366032 Z" id="Shape" fill="#DB4200" opacity="0.6" style="mix-blend-mode: multiply;"></path>
                    <path d="M39,151.845347 C37.0018962,151.409756 34.9714962,151.137824 32.9290488,151.032262 C31.9429641,151.010061 30.9575878,151.101 29.9922879,151.303291 C29.0051414,151.512722 28.0303342,151.78375 27.055527,152.067098 C23.1945298,153.218229 19.5565219,155.013478 16.2956298,157.376789 L16.6041131,156.600663 C17.575897,161.925158 19.2349674,167.101408 21.5398458,172 C18.353473,167.468802 16.1587896,162.318339 15.0987147,156.88401 L15,156.403551 L15.3948586,156.095564 C18.7582097,153.527126 22.6199752,151.685357 26.7347044,150.687317 C27.7588689,150.440928 28.7953728,150.256136 29.8318766,150.108302 C30.9005268,149.963899 31.983792,149.963899 33.0524422,150.108302 C35.0971812,150.448748 37.0938526,151.031897 39,151.845347 Z" id="Shape" fill="#FED893"></path>
                    <path d="M21,172.141321 C22.7462841,172.767994 24.5379225,173.260974 26.3593429,173.615975 C28.1581109,174.033794 29.9815195,174.390169 31.8049281,174.6851 L31.3983573,174.6851 C33.4435318,173.579109 35.513347,172.509985 37.5585216,171.465438 C39.6036961,170.420891 41.7227926,169.388633 43.8172485,168.380952 L43.3983573,169.167435 C43.125597,166.194063 42.593815,163.250023 41.8090349,160.368664 C41.4147844,158.918587 40.8973306,157.517665 40.3552361,156.116743 C39.7982888,154.711115 39.1649049,153.336826 38.4579055,152 C39.4058829,153.200946 40.2507586,154.479402 40.9835729,155.821813 C41.727619,157.18861 42.3660224,158.610043 42.8932238,160.073733 C43.9720788,162.967619 44.6799457,165.9859 45,169.056836 L45,169.597542 L44.5195072,169.843318 C42.4414784,170.900154 40.3470226,171.932412 38.2361396,172.940092 C36.1293634,173.947773 34.0225873,174.943164 31.8788501,175.90169 L31.6570842,176 L31.4722793,176 C29.6488706,175.545315 27.8501027,175.041475 26.063655,174.463902 C24.3007251,173.864106 22.6039936,173.085855 21,172.141321 Z" id="Shape" fill="#EA87B4"></path>
                    <path d="M28,170.329446 C29.9175212,170.868474 31.9126625,171.085012 33.902439,170.970053 C35.8414634,170.655793 37.7926829,168.419711 39,167.005539 C38.6291461,162.358356 37.0676681,157.881891 34.4634146,154 C33.2439024,154.15713 31.8292683,154.580173 30.5487805,154.725216 C32.5007518,157.440088 33.9615356,160.470703 34.8658537,163.681633 C32.8292683,165.518847 30.0365854,168.504319 28,170.329446 Z" id="Shape" fill="#DB4200" opacity="0.6" style="mix-blend-mode: multiply;"></path>
                </g>
            </g>
        </g>
    </g>
</svg>