<?xml version="1.0" encoding="UTF-8"?>
<svg width="26px" height="26px" viewBox="0 0 26 26" version="1.1" xmlns="http://www.w3.org/2000/svg" xmlns:xlink="http://www.w3.org/1999/xlink">
    <!-- Generator: Sketch 51.3 (57544) - http://www.bohemiancoding.com/sketch -->
    <title>planets_2-02</title>
    <desc>Created with Sketch.</desc>
    <defs>
        <radialGradient cx="30.0967395%" cy="32.7472993%" fx="30.0967395%" fy="32.7472993%" r="50.6996805%" gradientTransform="translate(0.300967,0.327473),scale(0.993761,1.000000),rotate(180.000000),translate(-0.300967,-0.327473)" id="radialGradient-1">
            <stop stop-color="#7EEEDA" offset="0%"></stop>
            <stop stop-color="#78E8D6" offset="14%"></stop>
            <stop stop-color="#67D6CB" offset="33%"></stop>
            <stop stop-color="#4BB9B9" offset="56%"></stop>
            <stop stop-color="#2590A0" offset="80%"></stop>
            <stop stop-color="#016A88" offset="100%"></stop>
        </radialGradient>
    </defs>
    <g id="Page-1" stroke="none" stroke-width="1" fill="none" fill-rule="evenodd">
        <g id="aff_des_home" transform="translate(-1508.000000, -300.000000)" fill-rule="nonzero">
            <g id="header" transform="translate(376.000000, 0.000000)">
                <g id="planets_2-02" transform="translate(1132.000000, 300.000000)">
                    <path d="M0.909078014,14.93375 C0.457716767,14.0145785 0.2107153,13.0120778 0.184397163,11.9925 L0.921985816,11.375 C0.999704068,10.0231873 1.49052919,8.7254426 2.33078014,7.65013889 L2.61475177,7.61041667 C3.49956306,5.65318035 4.84104676,3.92653588 6.53134752,2.56930556 C6.6064755,2.28709546 6.74720709,2.02570862 6.94255319,1.80555556 C7.34638298,1.76583333 8.12269504,1.77305556 8.12269504,1.77305556 C8.12269504,1.77305556 8.96170213,1.36319444 9.40425532,1.14833333 C9.81538211,1.23249468 10.2100788,1.38062269 10.5733333,1.58708333 C12.8158101,0.806606102 15.1576742,0.333287186 17.5324823,0.180555556 C17.4659913,0.678713136 17.4567136,1.18259713 17.5048227,1.68277778 C17.624251,1.74444918 17.7291537,1.82994429 17.812766,1.93375 C17.7998582,2.35083333 17.812766,2.77152778 17.7924823,3.18861111 C18.5171631,2.99541667 19.9480851,2.60722222 19.9480851,2.60722222 C20.1074654,2.65402252 20.2623394,2.71443987 20.410922,2.78777778 C21.6244776,2.58826467 22.8598561,2.54879344 24.0841135,2.67041667 C24.113617,3.04597222 24.1431206,3.46125 24.1726241,3.83680556 C24.2408511,4.72513889 24.0103546,5.61347222 23.7448227,6.46569444 C23.8720567,6.55236111 24.0214184,6.61375 24.1486525,6.69861111 C24.0100003,7.80623771 24.0124779,8.92644405 24.1560284,10.0334722 C24.7405221,10.1030692 25.3310455,10.1097293 25.9170213,10.0533333 C25.2642553,11.3443056 25.0300709,12.8627778 25.0503546,14.3036111 C24.7989251,14.579098 24.5753728,14.8778109 24.3828369,15.1955556 C24.4463619,16.1704909 24.3718978,17.1493447 24.1615603,18.1043056 C23.68382,19.3779359 22.9968065,20.5665975 22.1276596,21.6233333 C21.8529078,21.95375 21.2259574,22.5405556 21.2259574,22.5405556 C21.2259574,22.5405556 20.4699291,23.8676389 19.9351773,24.4472222 L18.3475177,24.6277778 C17.073287,25.2521052 15.6478546,25.5201315 14.2280851,25.4023611 C14.2280851,25.4023611 13.0276596,25.6425 12.4043972,25.7526389 L11.6170213,25.3788889 C11.6170213,25.3788889 8.5670922,25.3572222 7.35191489,24.4869444 C6.99004235,24.5026928 6.6274628,24.4900133 6.26765957,24.4490278 C5.1612766,23.6906944 4.23929078,22.4629167 3.42425532,21.4355556 C3.02759094,21.2025184 2.60967188,21.0060723 2.17588652,20.84875 C0.992056738,19.1786111 0.553191489,16.9361111 0.909078014,14.93375 Z" id="Shape" fill="url(#radialGradient-1)"></path>
                    <path d="M7.39432624,4.04986111 C4.97133003,5.86480223 3.21260171,8.39821622 2.38056738,11.2720833 C4.54907801,13.5759722 7.3187234,15.2677778 10.8794326,16.1904167 C12.5390071,16.6201389 14.1008511,17.4272222 15.8157447,17.3333333 C15.5834043,17.1329167 15.3104965,16.8223611 15.078156,16.62375 C16.5112593,16.0116818 17.8222958,15.1558662 18.9504965,14.0959722 C18.8859574,13.9804167 18.7495035,13.76375 18.6849645,13.6481944 C19.9002483,12.1180666 20.8360322,10.3936118 21.450922,8.55111111 C21.9782979,7.03083333 21.6353191,5.21625 20.7778723,3.85666667 C19.2307801,7.10666667 16.313617,9.68861111 12.8948936,10.9777778 C11.9161281,11.3768577 10.8682437,11.5883203 9.80808511,11.6006944 C8.75148936,11.5844444 7.6764539,11.2648611 6.88539007,10.57875 C5.98240841,9.76028078 5.5076158,8.58474515 5.59460993,7.38291667 C5.68496454,6.19305556 6.52397163,4.875 7.39432624,4.04986111 Z" id="Shape" fill="#0A85AB" opacity="0.15" style="mix-blend-mode: multiply;"></path>
                    <path d="M4.28723404,8.76416667 C3.74285613,9.49801844 3.33636253,10.3209702 3.08680851,11.1944444 C6.1293617,14.1988889 10.1953191,16.3709722 14.4843972,16.8819444 C14.3571631,16.7013889 14.3,16.5352778 14.172766,16.3565278 C15.6377205,15.7707911 17.0383,15.0412325 18.3530496,14.1790278 C19.110922,12.1748611 19.9886525,10.0731944 20.9475177,8.15388889 C19.887234,9.44125 18.7513475,10.7105556 17.6062411,11.9256944 C16.8188652,12.7598611 15.9761702,13.5705556 14.949078,14.0923611 C13.7099291,14.7333333 12.2679433,14.9084722 10.8794326,14.8055556 C9.21985816,14.6773611 7.56028369,14.1393056 6.28978723,13.0704167 C5.01929078,12.0015278 4.11758865,10.3891667 4.28723404,8.76416667 Z" id="Shape" fill="#0A85AB" opacity="0.15" style="mix-blend-mode: multiply;"></path>
                    <path d="M4.08439716,17.7756944 C5.95971631,19.5469444 8.72751773,20.2348611 11.3182979,19.9531944 C13.909078,19.6715278 16.3302128,18.50875 18.4323404,16.9975 C18.1479032,17.8441216 17.6203894,18.5925797 16.9129078,19.1533333 C19.1385144,18.6753877 21.1415239,17.4932897 22.6126241,15.7895833 C21.8602667,18.7599332 19.7512473,21.2247079 16.8963121,22.4701389 C14.0077501,23.6815405 10.7116119,23.5305128 7.95120567,22.0602778 C6.17730496,21.1015278 5.33276596,19.3501389 4.08439716,17.7756944 Z" id="Shape" fill="#0A85AB" opacity="0.15" style="mix-blend-mode: multiply;"></path>
                    <path d="M11.4012766,23.3097222 C12.7842553,23.3331944 15.4285106,22.7680556 15.4285106,22.7680556 C15.4285106,22.7680556 18.4231206,22.4719444 19.5184397,21.43375 C19.4864347,21.6458258 19.5164853,21.8624407 19.6051064,22.0584722 C20.9382979,21.9970833 22.101844,21.0275 22.6808511,19.8502778 C23.2598582,18.6730556 23.2598582,17.3495833 23.1750355,16.0441667 C22.0041135,16.5497222 21.1042553,17.6258333 20.0402837,18.3119444 C19.0674567,18.9289575 17.9602369,19.313637 16.8078014,19.435 C17.7858814,19.2278057 18.6822033,18.7488603 19.3893617,18.0555556 C19.1238298,18.0663889 18.8195745,18.0916667 18.5521986,18.1025 C19.8529852,17.6336714 21.0170918,16.8607522 21.9432624,15.8509722 C21.7588652,15.8004167 21.6131915,15.74625 21.4324823,15.6956944 C22.2991489,15.4609722 23.6950355,14.4318056 23.6950355,14.4318056 C23.6950355,14.4318056 24.7608511,11.6855556 25.5998582,10.0822222 C25.7068085,10.0822222 25.8137589,10.0695833 25.9170213,10.05875 C25.2642553,11.3497222 25.0300709,12.8681944 25.0503546,14.3090278 C24.7989251,14.5845147 24.5753728,14.8832276 24.3828369,15.2009722 C24.4463619,16.1759075 24.3718978,17.1547614 24.1615603,18.1097222 C23.6832773,19.3814494 22.9962851,20.5682444 22.1276596,21.6233333 C21.8529078,21.95375 21.2259574,22.5405556 21.2259574,22.5405556 C21.2259574,22.5405556 20.4699291,23.8676389 19.9351773,24.4472222 L18.7439716,24.58625 C19.4918603,24.0102304 20.1644418,23.3462033 20.7465248,22.6091667 C17.7076401,23.4356996 14.5332419,23.6736646 11.4012766,23.3097222 Z" id="Shape" fill="#0A85AB"></path>
                    <path d="M0.206524823,12.3102778 C0.269147059,13.2206179 0.508202254,14.1109603 0.910921986,14.93375 C0.553191489,16.9361111 0.993900709,19.1786111 2.17588652,20.8505556 C2.60966772,21.0078874 3.0275859,21.2043331 3.42425532,21.4373611 C4.24113475,22.4647222 5.16312057,23.6925 6.26950355,24.4490278 C6.62930677,24.4900133 6.99188632,24.5026928 7.35375887,24.4869444 L7.37219858,24.4995833 C7.36966914,24.3405357 7.33974541,24.1830464 7.28368794,24.03375 C6.47999109,23.7884485 5.74316613,23.3687713 5.12808511,22.8059722 C4.94469391,22.6504571 4.79216661,22.4631579 4.67815603,22.2534722 C4.55727104,22.0511752 4.53171771,21.80755 4.60808511,21.5854167 C5.32573509,22.1077009 6.24478402,22.2872838 7.11219858,22.0747222 C6.16240193,21.827927 5.2367988,21.499235 4.34624113,21.0925 C3.45586972,20.6818323 2.69241357,20.0476601 2.13347518,19.2544444 C1.32397163,18.0284722 1.24836879,16.4955556 1.28156028,15.0258333 C1.45704257,15.0784915 1.63561985,15.1206983 1.81631206,15.1522222 C1.91219858,15.3815278 2.00070922,15.6469444 2.08921986,15.8744444 C4.80723404,17.3333333 7.9106383,18.1765278 11.0195745,18.0844444 C10.5253901,17.9381944 9.54439716,17.5265278 9.54439716,17.5265278 C7.33713407,16.9707154 5.23530978,16.0715437 3.31914894,14.8633333 C3.31914894,14.8633333 1.97858156,14.3577778 1.4364539,13.9298611 C1.54723434,13.7773969 1.70011301,13.6590199 1.87716312,13.5886111 C1.25096378,13.257322 0.686192033,12.8251719 0.206524823,12.3102778 Z" id="Shape" fill="#0A85AB"></path>
                    <path d="M24.0656738,2.66861111 C24.0703096,3.12647604 24.0456751,3.58417626 23.9919149,4.03902778 C23.9919149,4.03902778 22.9500709,6.22555556 22.811773,7.44972222 C22.6992908,7.42805556 22.6273759,7.40458333 22.6273759,7.29263889 C22.3065248,8.30916667 22.0907801,10.3620833 22.0907801,10.3620833 L21.0876596,12.30125 C21.0876596,12.30125 20.930922,13.1606944 20.8442553,13.5868056 C21.593145,13.0335171 22.3785428,12.5292712 23.1953191,12.0773611 C23.128431,11.866134 23.1188981,11.6414879 23.1676596,11.4255556 C23.2524823,10.8116667 23.6913475,10.2988889 24.1431206,9.80055556 C24.0241198,8.77020942 24.0284518,7.72977848 24.1560284,6.70041667 C24.0287943,6.61375 23.8794326,6.55236111 23.7521986,6.4675 C24.0177305,5.61527778 24.248227,4.72694444 24.18,3.83861111 C24.1504965,3.46305556 24.1209929,3.04777778 24.0914894,2.67222222 L24.0656738,2.66861111 Z" id="Shape" fill="#0A85AB"></path>
                    <path d="M17.6302128,3.34930556 C17.6804378,3.25845639 17.7358445,3.17044687 17.7961702,3.08569444 C17.8053901,2.70111111 17.7961702,2.31291667 17.8146099,1.92833333 C17.7309976,1.82452762 17.626095,1.73903252 17.5066667,1.67736111 C17.4582221,1.17844249 17.4668811,0.675785032 17.5324823,0.17875 C17.1835394,0.40630337 16.8613474,0.670918699 16.571773,0.967777778 C16.7547026,1.09459301 16.9090955,1.25683105 17.0253901,1.44444444 C16.6565957,1.57083333 16.0001418,1.78208333 16.0001418,1.78208333 C16.0001418,1.78208333 15.0670922,2.70833333 14.7702128,3.32583333 C14.8255319,3.63819444 14.8642553,3.94513889 14.9195745,4.2575 C14.3411416,5.28238532 13.9922678,6.41614667 13.8961702,7.58333333 C14.3266032,6.86033956 14.9116004,6.23702397 15.6110638,5.75611111 C15.795461,5.62972222 16.0757447,5.62430556 16.2896454,5.57555556 C16.293797,5.20350811 16.3933454,4.83844452 16.5791489,4.51388889 C16.706383,4.25208333 17.0899291,4.09861111 17.3425532,3.94875 C17.4067973,3.73579194 17.5037964,3.53365872 17.6302128,3.34930556 Z" id="Shape" fill="#0A85AB"></path>
                    <path d="M17.9473759,11.8516667 C17.9584397,11.9672222 18.006383,12.0918056 18.0156028,12.2127778 C16.5588652,13.1606944 15.1316312,14.0725 13.6748936,15.0204167 C14.7259574,14.6593056 16.1255319,14.0219444 16.9940426,13.3394444 L17.1544681,13.5597222 C17.8175956,13.4055772 18.4659817,13.1959648 19.0924823,12.9331944 C20.2357447,11.4725 20.991773,9.86375 21.6740426,8.15388889 C20.9398476,9.79417646 19.6126726,11.1110633 17.9473759,11.8516667 Z" id="Shape" fill="#0A85AB"></path>
                    <path d="M10.7356028,6.39347222 C10.5124823,6.175 6.37829787,7.48944444 4.65049645,8.56013889 C6.61432624,7.96611111 8.68879433,7.29625 11.0582979,7.09763889 C11.5694274,6.31341738 12.0182205,5.4918758 12.4007092,4.64027778 C11.8843972,5.28125 10.7356028,6.39347222 10.7356028,6.39347222 Z" id="Shape" fill="#0A85AB"></path>
                    <path d="M20.4496454,22.3130556 C15.5088309,24.9070442 9.57641259,24.9354459 4.60992908,22.3888889 C5.19446809,23.1363889 5.87673759,23.9795833 6.80794326,24.2106944 C7.99546099,24.5068056 9.16269504,25.2181944 10.3834043,25.0990278 C10.8702128,25.0520833 11.2887943,24.9690278 11.7756028,24.9184722 C12.0339679,25.125437 12.3055861,25.3160111 12.5887943,25.4890278 C13.1788652,25.3463889 13.7541844,25.0954167 14.362695,25.1170833 C15.7456738,25.1694444 18.3641135,24.2648611 18.3641135,24.2648611 C18.3641135,24.2648611 19.1994326,24.2883333 19.6548936,24.3172222 C20.2849294,23.7728844 20.7676393,23.0843734 21.06,22.3130556 C20.862695,22.34375 20.6266667,22.2191667 20.4496454,22.3130556 Z" id="Shape" fill="#0A85AB"></path>
                    <path d="M15.9060993,19.6119444 C15.4432624,19.7545833 15.0320567,19.7925 14.5692199,19.9441667 C15.470922,19.2490278 16.3043972,18.5755556 17.2060993,17.8822222 C14.0377651,19.9375333 10.0419899,20.3422778 6.51106383,18.9655556 C7.58241135,20.2818056 9.01333333,21.2405556 10.724539,21.4048611 C12.4357447,21.5691667 14.5931915,20.6988889 15.9060993,19.6119444 Z" id="Shape" fill="#0A85AB"></path>
                    <path d="M11.0638298,17.7720833 C8.37900709,17.0498611 6.10539007,15.19375 3.39659574,14.5654167 C2.85048105,14.4217171 2.3321849,14.1911469 1.86241135,13.8829167 L2.24595745,13.5073611 C1.63948339,13.1048678 1.07769942,12.6413239 0.569787234,12.1243056 L1.12297872,11.6548611 C1.2952607,10.404859 1.75145143,9.20855292 2.45801418,8.15388889 C1.90471771,9.23897135 1.57097669,10.4185967 1.4751773,11.6277778 C1.72609432,12.054214 2.05779176,12.429864 2.45248227,12.7345833 C2.7622695,12.2976389 3.07021277,11.84625 3.37446809,11.4093056 C3.10176286,12.1290423 2.92572646,12.8804254 2.85078014,13.6445833 C3.3263555,14.0521739 3.91122163,14.317838 4.53617021,14.4101389 C4.69769873,14.0646074 4.89676645,13.7371168 5.12992908,13.4333333 L5.05617021,14.4661111 C6.97732792,15.7042703 8.98480635,16.8089714 11.0638298,17.7720833 Z" id="Shape" fill="#BCFFEE"></path>
                    <path d="M3.16425532,7.06875 C4.19427391,5.4678052 5.44734262,4.0153823 6.88723404,2.75347222 C6.91534022,2.54671441 6.96539838,2.34339173 7.03659574,2.14680556 C7.51049645,2.13236111 7.9364539,2.09444444 8.41035461,2.08180556 C8.66048999,1.7599521 9.00849748,1.52414044 9.40425532,1.40833333 C9.83549454,1.51776936 10.2602512,1.65037757 10.6765957,1.80555556 C12.6528351,1.08741594 14.7260613,0.657318841 16.8299291,0.529027778 C16.625722,0.640537137 16.4418877,0.784540698 16.2859574,0.955138889 C16.4095035,1.06888889 16.5422695,1.23680556 16.6658156,1.35055556 C16.378156,1.43361111 15.8397163,1.64666667 15.8397163,1.64666667 L14.5895035,3.05138889 C14.5069924,3.43351867 14.4588648,3.82199754 14.4456738,4.21236111 C14.3303576,3.82109996 14.2750493,3.41523384 14.2815603,3.00805556 C14.628227,2.665 14.9103546,2.29666667 15.2570213,1.95361111 C15.0597163,1.97347222 14.8531915,1.93555556 14.6558865,1.95361111 C14.9210564,1.76479055 15.1995816,1.59464065 15.4893617,1.44444444 C15.4893617,1.39208333 15.4506383,1.32527778 15.4451064,1.26388889 C14.0465318,1.43847603 12.6662668,1.73270272 11.3201418,2.14319444 C11.4012766,2.21541667 11.4307801,2.27138889 11.504539,2.34361111 C11.1357447,2.25694444 10.7392908,2.17388889 10.3704965,2.08902778 C10.2524823,2.19736111 10.1012766,2.31291667 9.98326241,2.42125 C9.45588652,2.38694444 8.89900709,2.39777778 8.37163121,2.36347222 C8.29787234,2.52055556 8.15957447,2.70652778 8.0858156,2.86361111 L7.20624113,2.97736111 C7.20624113,2.97736111 7.20624113,2.97736111 7.20624113,2.97736111 C7.30765957,3.02972222 7.37588652,3.08208333 7.47730496,3.13444444 C5.82383986,4.19898409 4.36568578,5.52909253 3.16425532,7.06875 Z" id="Shape" fill="#BCFFEE"></path>
                    <path d="M18.2553191,3.39986111 L19.8706383,2.80041667 C20.147622,2.85982975 20.4167496,2.95009321 20.672766,3.06944444 C21.678108,2.79350139 22.7305378,2.72222025 23.7651064,2.86 C23.8923404,3.17236111 23.7651064,3.92347222 23.7171631,3.96138889 C23.7171631,3.96138889 22.9279433,5.96375 22.5609929,6.93152778 C22.5056738,6.90083333 22.4558865,6.85388889 22.4005674,6.82138889 C22.20004,7.58353492 22.0704324,8.36190055 22.0133333,9.14694444 C21.9711923,8.12034485 22.0329593,7.09218186 22.1977305,6.0775 C22.293617,6.09375 22.3710638,6.03597222 22.4669504,6.05222222 C22.6753191,5.66944444 22.878156,5.23972222 23.0865248,4.85694444 C22.9021277,4.76125 22.6919149,4.58791667 22.490922,4.57888889 C22.7730496,4.31527778 23.0182979,3.99208333 23.3004255,3.72847222 C23.1860993,3.64541667 23.0293617,3.58944444 22.9168794,3.50638889 C22.6365957,3.65444444 22.3139007,3.79347222 22.033617,3.94152778 C22.0741844,3.74652778 22.0668085,3.50638889 22.1073759,3.31138889 C21.6929987,3.26893499 21.2752283,3.26893499 20.8608511,3.31138889 C20.9641135,3.40527778 21.0231206,3.49194444 21.126383,3.58944444 C20.7114894,3.41791667 20.2449645,3.24638889 19.8356028,3.07486111 C19.3617021,3.29333333 18.7753191,3.3475 18.2553191,3.39986111 Z" id="Shape" fill="#92EED6"></path>
                    <path d="M13.9164539,14.5419444 C15.2491893,13.7893275 16.541664,12.9703371 17.7887943,12.0881944 C17.7887943,11.9780556 17.7887943,11.8534722 17.7777305,11.7451389 C19.2284948,10.9938078 20.4433555,9.87041217 21.2923404,8.49513889 C20.084539,9.68138889 18.6259574,10.5859722 17.1028369,11.3479167 C17.1175887,11.5826389 17.0807092,11.7902778 17.1028369,12.025 C17.0247611,12.1238937 16.9181059,12.1975002 16.7967376,12.23625 C16.7248227,12.0719444 16.6123404,11.9311111 16.5330496,11.7668056 C16.5164539,11.9943056 16.5017021,12.2669444 16.4851064,12.4890278 C16.2042882,12.7500509 15.8965372,12.9818039 15.5668085,13.1805556 C15.5668085,13.0866667 15.5299291,13 15.5299291,12.9006944 C15.1095035,13.4965278 14.4346099,14.0165278 13.9164539,14.5419444 Z" id="Shape" fill="#92EED6"></path>
                    <path d="M4.96028369,8.09430556 C5.65564348,7.42962041 6.48627419,6.91590851 7.39801418,6.58666667 C7.49390071,6.64083333 7.54,6.69319444 7.63588652,6.74736111 C7.96964539,6.56680556 8.27758865,6.41694444 8.61134752,6.24180556 C8.42942824,6.0486818 8.19122825,5.91504301 7.92907801,5.85902778 C8.57868994,5.82607437 9.23002585,5.864837 9.87078014,5.97458333 C9.93531915,5.93486111 9.97404255,5.91861111 10.0385816,5.87888889 C9.86340426,5.78319444 9.71035461,5.64597222 9.5351773,5.55027778 C10.3205835,5.27711931 11.1208688,5.04685774 11.9323404,4.86055556 C11.5635461,5.36430556 10.5401418,6.16055556 10.5401418,6.16055556 C10.5401418,6.16055556 6.63829787,7.25833333 4.96028369,8.09430556 Z" id="Shape" fill="#BCFFEE"></path>
                    <path d="M25.2052482,12.1188889 C25.1287008,12.4768016 25.0714584,12.8384136 25.0337589,13.2022222 C24.9966213,13.5543514 24.977543,13.9080827 24.9765957,14.2620833 C24.8518572,14.390347 24.7383601,14.5286588 24.637305,14.6755556 C24.5266667,14.8290278 24.4234043,14.9843056 24.3238298,15.145 L24.307234,15.1702778 L24.307234,15.2009722 C24.3697987,16.1649563 24.2965823,17.1327853 24.0896454,18.0772222 C23.7737637,18.9028069 23.3727797,19.6947219 22.8929078,20.4406944 C22.6520733,20.8164161 22.3891727,21.1781353 22.1055319,21.5240278 C21.8126448,21.8589257 21.5011573,22.1777875 21.1724823,22.4791667 L21.1614184,22.49 L21.1614184,22.5026389 C20.9770213,22.8330556 20.7723404,23.1598611 20.5621277,23.4794444 C20.3648366,23.789805 20.1461242,24.086607 19.9075177,24.3677778 L18.3567376,24.5483333 L18.3401418,24.5483333 L18.3253901,24.5483333 C17.7017076,24.8593558 17.0352381,25.0801277 16.3468085,25.20375 C15.6571491,25.3252792 14.9546507,25.3616741 14.2557447,25.3120833 L14.2299291,25.3120833 L12.4375887,25.6569444 L11.6760284,25.2958333 L11.6575887,25.2868056 L11.635461,25.2868056 C11.2666667,25.2868056 10.8978723,25.2597222 10.5419858,25.2272222 C10.1860993,25.1947222 9.81546099,25.1513889 9.45588652,25.0918056 C9.09707991,25.0357111 8.7427697,24.9548617 8.39560284,24.8498611 C8.05109674,24.7543755 7.72386978,24.6069627 7.42567376,24.4129167 L7.39617021,24.39125 L7.35929078,24.39125 C7.18374586,24.4041553 7.00745982,24.4041553 6.83191489,24.39125 C6.66042553,24.39125 6.48893617,24.3695833 6.31929078,24.3551389 C5.75988797,23.9669777 5.24817193,23.5168155 4.79432624,23.0136111 C4.32411348,22.5080556 3.8870922,21.97 3.44453901,21.4355556 C3.8612766,21.9880556 4.27248227,22.5441667 4.72425532,23.0731944 C5.16848165,23.611248 5.67601119,24.0960831 6.23631206,24.5176389 L6.2529078,24.5302778 L6.2787234,24.5302778 C6.46312057,24.55375 6.64751773,24.5681944 6.83191489,24.5772222 C7.00571146,24.587273 7.1799623,24.587273 7.35375887,24.5772222 C7.66059058,24.7734049 7.99557079,24.9237136 8.34765957,25.0231944 C8.69889226,25.1324463 9.05749741,25.2175149 9.42085106,25.2777778 C9.78964539,25.3391667 10.1584397,25.3843056 10.527234,25.415 C10.8960284,25.4456944 11.248227,25.4673611 11.6133333,25.4745833 L12.3859574,25.8356944 L12.415461,25.8501389 L12.4449645,25.8501389 L14.2594326,25.5016667 C14.9695177,25.5508945 15.6831005,25.51329 16.3836879,25.3897222 C17.0839405,25.2638569 17.7620806,25.0400872 18.397305,24.7252778 L19.9702128,24.5447222 L20.0070922,24.5447222 L20.0310638,24.5176389 C20.2856171,24.2221414 20.5179521,23.9089591 20.7262411,23.5805556 C20.9346099,23.2609722 21.1319149,22.9377778 21.3236879,22.6073611 C21.6545276,22.3032251 21.9678701,21.981341 22.2622695,21.6431944 C22.5502897,21.2944667 22.817496,20.9297388 23.0625532,20.5508333 C23.5507483,19.7918051 23.9585358,18.9859613 24.2795745,18.1458333 L24.2795745,18.1313889 C24.4886153,17.1780694 24.5642967,16.2013441 24.504539,15.2280556 C24.5967376,15.0818056 24.6889362,14.93375 24.7958865,14.7929167 C24.8995643,14.646443 25.0148616,14.5081915 25.1407092,14.3794444 L25.1720567,14.34875 L25.1720567,14.3090278 C25.1720567,13.9479167 25.1720567,13.5868056 25.1849645,13.2256944 C25.2053517,12.8627642 25.2453605,12.5011464 25.3048227,12.1423611 C25.4186114,11.4231954 25.6326654,10.7227242 25.9409929,10.0605556 C25.6009891,10.7105864 25.3534438,11.4031238 25.2052482,12.1188889 Z" id="Shape" fill="#A1EADF"></path>
                    <path d="M24.2721986,3.62375 L24.1984397,2.665 L24.1984397,2.58736111 L24.1191489,2.58736111 C22.8968423,2.46617009 21.6635131,2.50442096 20.4514894,2.70111111 C20.3070458,2.62847283 20.1565206,2.5680674 20.0015603,2.52055556 L19.9757447,2.52055556 L19.9462411,2.52055556 L17.9178723,3.06222222 L17.9363121,1.93375 L17.9363121,1.89763889 L17.9141844,1.87055556 C17.8296972,1.77186173 17.7279154,1.68870865 17.613617,1.625 C17.5695536,1.14390818 17.5794472,0.659537535 17.6431206,0.180555556 L17.6578723,0.065 L17.5398582,0.065 C15.1703861,0.220373978 12.8338433,0.693013084 10.595461,1.46972222 C10.2347641,1.26946758 9.84484453,1.12454333 9.43929078,1.04 L9.40609929,1.04 L9.37659574,1.05444444 L8.11347518,1.68819444 C7.72439716,1.68819444 7.34085106,1.68819444 6.94624113,1.72069444 L6.9093617,1.72069444 L6.8835461,1.74958333 C6.68697055,1.97054625 6.54276681,2.23136453 6.4612766,2.51333333 C4.78324649,3.86761702 3.44889496,5.58455314 2.56312057,7.52916667 L2.3270922,7.56166667 L2.29021277,7.56166667 L2.26624113,7.59236111 C1.4238546,8.67194156 0.927765481,9.97210309 0.840851064,11.3280556 L0.141985816,11.9166667 L0.106950355,11.9455556 L0.106950355,11.9906944 C0.119902468,12.5053996 0.187885765,13.0173602 0.309787234,13.5181944 C0.42827722,14.0104223 0.600768833,14.488664 0.824255319,14.9445833 C0.665787144,15.9653298 0.701421495,17.0059675 0.929361702,18.0140278 C1.1503777,19.0296599 1.57808161,19.9912882 2.18695035,20.8415278 C1.60765158,19.9786007 1.21192322,19.0101977 1.02340426,17.9941667 C0.830335011,16.9852142 0.830335011,15.9499247 1.02340426,14.9409722 L1.02340426,14.9120833 L1.01049645,14.8831944 C0.574673405,13.9921123 0.334104342,13.021592 0.304255319,12.0340278 L0.995744681,11.4508333 L1.0270922,11.42375 L1.0270922,11.375 C1.10556965,10.0572424 1.58247093,8.79209803 2.39716312,7.74041667 L2.64241135,7.70611111 L2.69404255,7.70611111 L2.71617021,7.65916667 C3.59388047,5.71185182 4.9266258,3.99373149 6.60695035,2.64333333 L6.63092199,2.62347222 L6.63092199,2.59458333 C6.70116703,2.34115149 6.82702385,2.10577301 6.99971631,1.90486111 C7.36851064,1.87597222 7.75205674,1.87597222 8.13007092,1.87597222 L8.15404255,1.87597222 L8.17432624,1.86513889 L9.42269504,1.24763889 C9.81170578,1.33029797 10.1850475,1.47225855 10.529078,1.66833333 L10.5678014,1.69180556 L10.6102128,1.67555556 C12.8089868,0.908187936 15.1043686,0.438022401 17.4329078,0.278055556 C17.3783374,0.745741731 17.3733938,1.21770514 17.418156,1.68638889 L17.418156,1.73875 L17.4660993,1.76222222 C17.5636513,1.81340125 17.6500845,1.88270174 17.7205674,1.96625 L17.7021277,3.18138889 L17.7021277,3.30777778 L17.8256738,3.27527778 L19.953617,2.70111111 C20.0976384,2.74481608 20.2371608,2.8016385 20.3703546,2.87083333 L20.4017021,2.88888889 L20.4348936,2.88888889 C21.613597,2.69498101 22.8131637,2.65309691 24.0029787,2.76430556 L24.0675177,3.64361111 C24.1000514,3.95797267 24.1056028,4.27445211 24.0841135,4.58972222 C24.0215796,5.22351298 23.8918015,5.84920309 23.6968794,6.45666667 L23.6839716,6.49819444 L23.7190071,6.52166667 C23.8480851,6.60472222 23.982695,6.66069444 24.1025532,6.73472222 C23.9863769,7.83582115 24.0086713,8.94672016 24.1689362,10.0425 C24.0417562,8.9359179 24.0553829,7.81815527 24.2095035,6.71486111 L24.2095035,6.68416667 L24.1836879,6.66611111 C24.0619858,6.58305556 23.9329078,6.52347222 23.8148936,6.44944444 C24.0257453,5.85142536 24.1728173,5.23364311 24.2537589,4.60597222 C24.2942284,4.28004616 24.3004074,3.95091223 24.2721986,3.62375 Z" id="Shape" fill="#FED893"></path>
                    <path d="M1.56921986,15.9069444 C1.20042553,17.1925 1.73886525,18.6008333 2.65531915,19.5866667 C3.57177305,20.5725 4.82198582,21.1990278 6.08510638,21.6883333 C5.42651591,21.3667878 4.84707141,20.9090702 4.38680851,20.3468056 C4.2577305,20.1933333 4.31304965,19.9423611 4.27432624,19.7473611 C4.17243038,19.9074304 4.02322899,20.0333727 3.84652482,20.1084722 C3.4187234,19.8340278 2.71801418,18.9818056 2.71801418,18.9818056 C2.66451454,18.4750359 2.64849171,17.9651427 2.67007092,17.4561111 C2.55205674,17.6836111 2.35106383,17.8822222 2.23304965,18.1097222 C1.89030696,17.4159234 1.66605596,16.6717942 1.56921986,15.9069444 Z" id="Shape" fill="#65D4C9"></path>
                    <path d="M6.80794326,18.9691667 C10.1666316,19.9041652 13.7638363,19.5395926 16.8557447,17.9508333 C16.3691231,18.1053557 15.8638282,18.1964173 15.3529078,18.2216667 C15.15853,17.960204 14.9963668,17.6771792 14.8697872,17.3784722 C14.9031747,17.7655693 14.7694172,18.148659 14.5009929,18.4347222 C14.2413014,18.7217794 13.8692245,18.8872028 13.4775887,18.8897222 C13.263201,18.9034536 13.0539047,18.8218772 12.9078014,18.6676389 C12.7947027,18.4853181 12.7485179,18.2706698 12.7768794,18.0591667 C12.3970213,18.6116667 11.7424113,18.9240278 11.0712057,19.0377778 C10.3973779,19.121121 9.71518168,19.1156557 9.04283688,19.0215278 C8.96570178,18.9024525 8.93493623,18.7601618 8.95617021,18.6206944 C8.25832135,18.8265847 7.5363186,18.9437036 6.80794326,18.9691667 Z" id="Shape" fill="#65D4C9"></path>
                    <path d="M18.9670922,17.6276389 C19.8707646,17.2205066 20.6916696,16.6564989 21.3900709,15.9629167 C21.2005706,15.8542727 20.99033,15.7848332 20.7723404,15.7588889 C21.6814184,15.3255556 22.551773,14.8561111 23.4608511,14.43 C23.9091176,13.0547646 24.5010933,11.7284838 25.2273759,10.4722222 C24.9250949,10.3801253 24.6087141,10.3404087 24.2924823,10.3548611 C24.4455319,10.4704167 24.5561702,10.6040278 24.7092199,10.7159722 C24.5031089,11.2433592 24.2205424,11.7389503 23.8702128,12.1875 C23.7907089,12.8936085 23.5102188,13.5636462 23.0607092,14.12125 C22.7878014,14.0309722 22.4300709,13.9406944 22.1571631,13.8576389 C22.330552,13.9678812 22.484396,14.1051029 22.6126241,14.2638889 C21.9027123,14.8671105 21.0735246,15.3207 20.1767376,15.5963889 C20.3714645,15.6757037 20.5237565,15.8307092 20.5971631,16.0243056 C20.1961934,16.6814664 19.6364182,17.2320598 18.9670922,17.6276389 Z" id="Shape" fill="#65D4C9"></path>
                    <path d="M5.08382979,22.3347222 C8.04891048,23.800923 11.3860386,24.3894432 14.687234,24.0283333 C12.9913825,23.967573 11.3202777,23.6104753 9.75276596,22.9738889 C9.60988571,23.1743363 9.37727577,23.2952729 9.12765957,23.2988889 C8.89535644,23.2736421 8.70773644,23.1016884 8.66666667,22.8763889 C7.43858156,22.9016667 6.2270922,22.7933333 5.08382979,22.3347222 Z" id="Shape" fill="#0A85AB" opacity="0.15" style="mix-blend-mode: multiply;"></path>
                    <path d="M12.1941844,23.1111111 C14.6063983,22.915079 16.9799909,22.3975229 19.2492199,21.5727778 C18.7123061,21.7088516 18.1435813,21.6551459 17.6431206,21.4211111 C17.6431206,21.5619444 17.5693617,21.6504167 17.5638298,21.79125 C16.7831409,22.0516772 15.9733995,22.2195866 15.1519149,22.2913889 C15.1002837,22.1758333 15.0228369,22.0801389 14.9675177,21.9663889 C14.9320714,22.1591981 14.8581305,22.3432672 14.7499291,22.5080556 C14.3401414,22.6513367 13.9105249,22.732913 13.4757447,22.75 C13.451773,22.6813889 13.4185816,22.6019444 13.392766,22.5333333 C13.0471257,22.8184351 12.6357261,23.0167508 12.1941844,23.1111111 Z" id="Shape" fill="#0A85AB" opacity="0.15" style="mix-blend-mode: multiply;"></path>
                    <path d="M23.0238298,17.1040278 C23.20861,18.9700546 22.1894997,20.7519811 20.4680851,21.5727778 C20.7681627,21.2955092 21.043315,20.993469 21.2904965,20.67 C21.5444871,20.34911 21.7084805,19.9688291 21.7662411,19.5668056 C21.7662411,19.6661111 21.8326241,19.7022222 21.9321986,19.6968056 C22.0345729,19.6845306 22.1221015,19.6188695 22.1608511,19.5252778 C22.1976577,19.4328912 22.2097185,19.3328214 22.1958865,19.2345833 C22.1764866,19.0288432 22.1082934,18.8303804 21.9967376,18.655 C22.2087943,18.7019444 22.424539,18.5340278 22.5683688,18.3733333 C22.7024996,18.2043427 22.7929605,18.00613 22.8320567,17.7955556 C22.8855319,17.5788889 22.9519149,17.30625 23.0238298,17.1040278 Z" id="Shape" fill="#0A85AB" opacity="0.15" style="mix-blend-mode: multiply;"></path>
                </g>
            </g>
        </g>
    </g>
</svg>