<?xml version="1.0" encoding="UTF-8"?>
<svg width="164px" height="156px" viewBox="0 0 164 156" version="1.1" xmlns="http://www.w3.org/2000/svg" xmlns:xlink="http://www.w3.org/1999/xlink">
    <!-- Generator: Sketch 51.3 (57544) - http://www.bohemiancoding.com/sketch -->
    <title>planets_2-03</title>
    <desc>Created with Sketch.</desc>
    <defs></defs>
    <g id="Page-1" stroke="none" stroke-width="1" fill="none" fill-rule="evenodd">
        <g id="aff_des_home" transform="translate(-1439.000000, -2378.000000)" fill-rule="nonzero">
            <g id="header" transform="translate(376.000000, 0.000000)">
                <g id="planets_2-03" transform="translate(1063.000000, 2378.000000)">
                    <path d="M13,54.37 L12.2,48.09 L23.39,32 L39.66,15.57 L47.48,14.25 L52.22,10.52 L69.47,9 L76.31,6.41 L93.71,8.71 L109.11,9.18 L116.71,13.94 C116.71,13.94 116.93,15.49 117.13,16.24 C120.33,17.32 126.49,19.86 126.49,19.86 L130.49,27.53 L137.65,33.08 L141.32,42.65 C141.32,42.65 141.02,43.83 140.93,44.35 C142.79,46.24 146.47,50.07 146.47,50.07 L147.34,54.76 L149.47,61.61 L148,69.77 L150.28,81.33 L149.47,85.47 L150.19,89.47 L145.5,107.83 L138.26,117.43 L135.42,123.62 L128.19,134.62 L111.49,144.7 L106.06,145.48 L98.75,150 L83.75,152.47 C83.75,152.47 67.28,149.72 57.22,148.85 C56.1540463,146.96156 54.8463512,145.220207 53.33,143.67 C51.2108071,143.922145 49.0691929,143.922145 46.95,143.67 C46.52,143 45.52,142.33 45.1,141.67 C41.72,141.21 37.92,140.58 34.54,140.12 C31.9505759,136.203143 30.7952933,131.511353 31.27,126.84 C30.32,126.12 28.27,124.84 28.27,124.84 C24.7149226,123.684354 21.2377616,122.301506 17.86,120.7 C17.86,119.32 17.6,117.78 17.56,116.4 C16.23,115.3 14.63,114.08 13.3,112.98 C13.03,110.84 12.46,106.7 12.46,106.7 L9,101.57 C9,101.57 8.76,96.68 8.71,94.44 C7.85,93.3 7.01,92 6.15,90.86 C6.28,87.53 6.23,84.36 6.36,81.03 C6.43,79.15 5.08,77.37 4.36,75.62 C5.78739328,70.9279748 7.67664058,66.3890917 10,62.07 C9.81,61.26 9.5,60.73 9.3,59.92 C10.49,57.93 11.78,56.37 13,54.37 Z" id="Shape" fill="#FEAA0F"></path>
                    <path d="M122.31,47.38 C122.308582,35.6192836 119.204093,24.067137 113.31,13.89 L108.56,10.89 L93.56,10.43 L76.51,8.19 L69.85,10.71 L52.85,12.18 L48.17,15.87 L40.46,17.17 L24.71,33.07 L13.94,48.53 L14.73,54.74 L14.43,55.25 C13.8,56.3 13.16,57.25 12.53,58.13 C12.05,58.81 11.6,59.47 11.16,60.13 L11.25,60.36 C11.4147145,60.7771689 11.5516796,61.2047673 11.66,61.64 L11.81,62.28 L11.49,62.86 C9.33426442,66.8943764 7.57277154,71.1273174 6.23,75.5 C6.37,75.81 6.54,76.14 6.7,76.5 C7.54412387,77.8865785 8.01601468,79.4675849 8.07,81.09 C8,82.75 8,84.36 8,86 C8,87.44 8,88.89 7.92,90.36 C8.24,90.8 8.55,91.25 8.87,91.71 C9.19,92.17 9.7,92.9 10.11,93.45 L10.44,93.89 L10.44,94.44 C10.44,95.26 10.5,96.44 10.55,97.64 C30.3263614,115.205835 58.5715718,119.527491 82.6955231,108.67862 C106.819474,97.8297497 122.328673,73.8311375 122.31,47.38 Z" id="Shape" fill="#FFCC33"></path>
                    <path d="M23.65,68.24 C35.1871186,46.5899013 53.0420156,28.9652101 74.84,17.71 C73.11,18.6 68.68,17.9 66.62,18.16 C63.8277617,18.5136097 61.0641487,19.0649956 58.35,19.81 C52.8514959,21.3230296 47.5956997,23.6091831 42.74,26.6 C39.1,28.85 34.9,31.55 32.06,34.81 C28.95,38.39 27.12,43.62 25.77,48.08 C23.7809235,54.6026561 23.0612584,61.4462638 23.65,68.24 Z" id="Shape" fill="#FFDB6E" opacity="0.35" style="mix-blend-mode: screen;"></path>
                    <path d="M22.25,100.44 C15.13,86.13 15.25,68.65 21.63,53.99 C28.01,39.33 40.37,27.58 54.93,20.99 C69.49,14.4 86.1,12.8 101.86,15.49 C82.25,20.49 63.8,30.88 50.06,45.72 C36.32,60.56 25.69,80.51 22.25,100.44 Z" id="Shape" fill="#FFDB6E" opacity="0.35" style="mix-blend-mode: screen;"></path>
                    <path d="M148.58,81.33 L146.3,69.79 L147.71,61.79 L145.71,55.24 L144.91,50.96 C143.91,49.96 141.24,47.15 139.73,45.62 L139.11,44.99 L139.27,44.12 C139.33,43.8 139.46,43.25 139.56,42.84 L136.26,34.22 L129.18,28.73 L125.31,21.29 C124.06,20.78 121.03,19.56 118.55,18.64 C136.841618,37.5732892 142.530174,65.3785246 133.143984,89.9742998 C123.757794,114.570075 100.991262,131.516338 74.7364724,133.449917 C48.4816825,135.383496 23.4781741,121.955341 10.59,99 C10.59,99.85 10.66,100.6 10.68,101.06 L14.05,106.13 L14.1,106.52 C14.1,106.52 14.57,109.91 14.86,112.15 L16.44,113.41 C17.18,114 17.92,114.58 18.6,115.14 L19.2,115.64 L19.2,116.42 C19.2,117.08 19.28,117.77 19.34,118.42 C19.34,118.83 19.41,119.25 19.44,119.65 C22.69,121.23 28.66,123.21 28.73,123.23 L28.91,123.29 L29.07,123.39 C29.16,123.44 31.24,124.7 32.25,125.47 L33.05,126.08 L32.91,127.08 C32.4992457,131.082886 33.4163618,135.109763 35.52,138.54 C36.98,138.75 38.52,138.97 40.01,139.2 C41.8,139.47 43.58,139.74 45.26,139.97 L46.04,140.08 L46.47,140.74 C46.6701747,140.985101 46.8909823,141.2126 47.13,141.42 C47.33,141.61 47.55,141.81 47.76,142.03 C48.85,142.12 49.76,142.17 50.6,142.17 C51.4061794,142.176157 52.2117101,142.122678 53.01,142.01 L53.9,141.88 L54.52,142.54 C55.9137116,143.981823 57.1506252,145.567352 58.21,147.27 C67.53,148.14 81.54,150.43 83.69,150.78 L98.1,148.41 L105.43,143.86 L110.87,143.08 L126.97,133.38 L133.91,122.78 L136.78,116.54 L144,107 L148.52,89.34 L147.81,85.41 L148.58,81.33 Z" id="Shape" fill="#DE6C1C"></path>
                    <path d="M115.2,15.39 L115.14,15.01 L113.78,14.16 C114.26,14.56 114.74,15 115.2,15.39 Z" id="Shape" fill="#DE6C1C"></path>
                    <path d="M39.9,98.07 C42.03,106.85 44.76,115.6 49.49,123.29 C54.22,130.98 61.15,137.6 69.69,140.55 C77.37,143.2 85.82,142.74 93.76,141.01 C102.19,139.18 110.48,135.86 116.91,130.1 C124.01,123.74 128.38,114.79 130.77,105.56 C134.16,92.46 133.71,78.02 127.49,66 C121.27,53.98 108.76,44.91 95.23,44.72 C97.59,49.87 94.23,55.52 91.37,60.44 C85.64,70.44 79.52,80.33 71.1,88.14 C62.68,95.95 51.37,98.59 39.9,98.07 Z" id="Shape" fill="#DE6C1C" opacity="0.25" style="mix-blend-mode: multiply;"></path>
                    <path d="M109.84,28.59 C120.84,36.52 131.77,45.43 137.89,57.54 C146.18,73.92 144.12,94.62 134.12,110.02 C124.12,125.42 106.92,135.5 88.79,138.44 C75.15,140.65 60.58,138.91 48.73,131.8 C36.88,124.69 28.19,111.8 27.85,98 C41.55,113.63 65.06,120.17 84.97,114.21 C91.7371874,112.298932 97.9497162,108.798384 103.09,104 C112.57,94.81 116.44,81 116.34,67.82 C116.24,54.64 113.45,41.29 109.84,28.59 Z" id="Shape" fill="#DE6C1C" opacity="0.25" style="mix-blend-mode: multiply;"></path>
                    <path d="M14,69.4 C13.0466667,70.4666667 12.0466667,71.53 11,72.59 C11.5466667,71.2566667 12.1233333,69.9233333 12.73,68.59 L13.64,66.59 C13.9786489,65.9530356 14.3629877,65.3414356 14.79,64.76 L14.96,64.46 L15.36,64.31 L23.53,61.31 L25.53,60.56 L26.04,60.37 L26.3,60.28 L26.48,60.21 C26.7261516,60.1025523 26.9579407,59.9648226 27.17,59.8 C28.09,59.11 28.86,57.8 30.12,56.7 L30.35,56.49 L30.66,56.43 C31.2676472,56.308319 31.8684765,56.1547737 32.46,55.97 C32.98,55.82 33.54,55.66 34.12,55.54 L44.39,45.42 L44.58,44.42 C44.69,43.97 44.69,43.51 44.82,43.06 L45.02,42.37 L45.45,42.23 L48.75,41.17 C49.85,40.8 50.96,40.45 52.05,40.03 C51.1805316,40.8247409 50.2692335,41.5724728 49.32,42.27 C48.56,42.84 47.78,43.38 47,43.91 C46.94,44.22 46.86,44.52 46.82,44.83 L46.57,46.19 L46.5,46.54 L46.25,46.78 L35.54,57.38 L35.31,57.61 L34.97,57.67 C34.3623651,57.7917349 33.7615386,57.9452794 33.17,58.13 C32.65,58.28 32.09,58.44 31.51,58.56 C30.6099256,59.6126467 29.6517671,60.6142061 28.64,61.56 C28.2804837,61.8408711 27.8874758,62.0760041 27.47,62.26 L27.15,62.39 L26.89,62.48 L26.38,62.67 L24.38,63.42 L16.51,66.3 C16.2311329,66.8249178 15.8958146,67.3178356 15.51,67.77 L14,69.4 Z M30.8,49.46 L33.8,48.39 L34.12,48.28 L34.33,48 L39.86,40.43 L39.95,40.3 L40.01,40.15 L44.01,29.51 L49.46,26.35 L52.36,24.67 C53.3495517,24.1193333 54.2666188,23.4474893 55.09,22.67 L55.26,22.53 C56.12,21.36 56.96,20.14 57.8,18.9 C56.56,19.7 55.32,20.54 54.1,21.41 L54.27,21.27 C53.1931067,21.6045528 52.1618932,22.071454 51.2,22.66 L48.3,24.34 L42.5,27.7 L42.15,27.91 L42.01,28.29 L38.01,39.17 L32.7,46.37 L30.05,47.31 L28.56,47.82 C28.07,48.02 27.56,48.08 27.07,48.33 L24.23,49.79 L21.37,51.25 C23.5239584,51.1274083 25.6681427,50.8702398 27.79,50.48 C28.81,50.19 29.79,49.79 30.8,49.46 Z M57.49,24.18 L56.18,25.11 C55.77,25.46 55.23,25.62 54.93,26.11 C54.23,26.97 53.54,27.85 52.93,28.81 C54.04,28.53 55.1,28.18 56.14,27.81 C56.71,27.7 57.05,27.24 57.51,26.97 L58.81,26 L64,22.35 L64.27,22.16 L64.39,21.88 L66.51,16.88 L70.63,14.37 C71.01,14.15 71.36,13.9 71.75,13.71 C72.0913829,13.4223739 72.4060025,13.1044074 72.69,12.76 C73.3,12.1 73.89,11.4 74.47,10.69 C73.57,10.87 72.68,11.08 71.81,11.32 C71.3754788,11.414794 70.950416,11.548672 70.54,11.72 C70.2,11.99 69.81,12.18 69.44,12.42 L65,15.1 L64.68,15.29 L64.55,15.61 L62.41,20.67 L57.49,24.18 Z M22.26,74.88 L25.16,73.31 L34.55,74.48 L34.87,74.48 L35.16,74.33 L40.16,71.83 L40.67,71.58 L40.78,71.04 C41.3,68.59 41.62,66.16 42.08,63.81 C43.32,63.81 44.61,63.95 45.97,63.94 L46.65,63.94 L46.97,63.33 L56.71,44.8 L69.77,45.8 L70.24,45.8 L70.63,45.45 L78.32,38.61 L80.73,37.05 L80.9,36.94 L81.02,36.77 L88.39,26.84 L88.6,26.56 L88.6,26.23 L88.95,16.78 L88.95,15.51 L87.64,15.65 C85.1666667,15.9166667 82.7066667,16.2833333 80.26,16.75 C79.04,16.98 77.82,17.24 76.61,17.51 C75.3844748,17.7573022 74.1780962,18.0914791 73,18.51 L72.44,18.71 L72.29,19.13 C71.4,21.57 70.29,23.99 69.29,26.52 L69.07,27.12 L69.57,27.35 L73.12,29 L73.4,29.13 L73.59,28.98 C75.52,27.46 77.41,25.89 79.32,24.34 C77.32,25.58 75.32,26.81 73.32,28.07 L70.86,26.59 C71.86,24.59 73.03,22.59 74.08,20.59 C75.08,20.37 76.14,20.1 77.17,19.84 C78.2,19.58 79.54,19.32 80.73,19.09 C82.73,18.72 84.65,18.43 86.62,18.19 L86.34,25.87 L79.34,35.35 L77,36.79 L76.93,36.79 L76.88,36.79 L69.45,43.5 L56.12,42.5 L55.38,42.44 L55.03,43.11 L45.29,61.71 C43.98,61.71 42.6,61.56 41.15,61.58 L40.24,61.58 L40.05,62.47 C39.5,65.06 39.18,67.62 38.68,70.09 L34.46,72.19 L25.05,71 L24.71,71 L24.41,71.16 L21.18,72.9 C20.09,73.43 19,74 18,74.62 L17.52,74.92 L17.45,75.37 L16,84 C14.3533333,87.1 12.7233333,90.21 11.11,93.33 C13.1633333,90.4166667 15.1966667,87.4933333 17.21,84.56 L17.21,84.5 L17.21,84.36 L19.37,76.41 C20.41,75.91 21.33,75.39 22.26,74.88 Z M55.43,72 L55.6,71.84 L61.36,66.09 L61.5,65.95 L61.59,65.76 L63.27,62.22 L64.13,60.46 C64.28,60.17 64.45,59.89 64.59,59.59 C64.73,59.29 64.83,58.98 64.94,58.67 L66.3,55 C66.77,53.77 67.24,52.53 67.77,51.31 C66.0463833,53.3474096 64.4532099,55.4916807 63,57.73 C62.82,58.01 62.62,58.28 62.46,58.57 C62.3,58.86 62.19,59.17 62.04,59.47 L61.17,61.25 L59.6,64.64 L54.15,70.08 L33.62,78.31 L33.17,78.49 L33,78.93 L30.55,85 C29.79,86.87 29.06,88.75 28.27,90.61 L26.77,91.17 L24.71,91.95 C23.3366667,92.4833333 21.96,93.04 20.58,93.62 C22.0533333,93.5066667 23.5333333,93.37 25.02,93.21 L27.25,92.95 C27.99,92.85 28.75,92.79 29.48,92.66 L30.02,92.56 L30.23,91.98 C30.99,89.93 31.85,87.91 32.65,85.88 L34.92,80.22 L55.2,72.08 L55.43,72 Z M85,35.38 C84.6692045,35.7514536 84.3838588,36.1610086 84.15,36.6 C83.89,37.03 83.63,37.45 83.38,37.89 C82.8522247,38.7571882 82.3909046,39.6631138 82,40.6 C82.76,39.95 83.54,39.36 84.32,38.77 L85.48,37.89 C85.8875561,37.6271602 86.2663099,37.322146 86.61,36.98 C87.23,36.25 87.93,35.59 88.61,34.9 C89.29,34.21 89.88,33.65 90.52,33.04 L102.4,28.23 L102.85,28.05 L103.03,27.62 C103.64,26.19 103.84,24.83 104.23,23.69 C105.32,23.58 106.37,23.43 107.42,23.24 L109.34,22.87 C109.98,22.75 110.6,22.59 111.26,22.48 L111.36,22.48 L111.6,22.36 C112.006289,22.0916269 112.384826,21.7834378 112.73,21.44 L113.83,20.44 C114.56,19.78 115.29,19.1 116.01,18.44 C115.01,18.72 114.11,19.03 113.17,19.34 L111.77,19.84 C111.38,20 110.95,20.1 110.58,20.3 C110.03,20.45 109.45,20.56 108.89,20.68 L107,21 C105.786699,21.233462 104.561535,21.400378 103.33,21.5 L102.62,21.5 L102.35,22.14 C101.71,23.65 101.51,25.09 101.09,26.26 L89.48,31 L89.29,31.08 L89.14,31.23 C88.42,31.91 87.73,32.59 87.03,33.28 C86.33,33.97 85.67,34.7 85,35.38 Z M28,113.24 L28.28,113.24 C30.64,112.85 32.98,112.43 35.28,111.93 C36.45,111.68 37.62,111.42 38.78,111.13 C39.4,111.13 39.89,110.61 40.42,110.28 C40.926585,109.884214 41.4075509,109.456689 41.86,109 L39.96,108.82 C39.3673869,108.693518 38.7528132,108.714118 38.17,108.88 C37.04,109.17 35.9,109.42 34.75,109.66 C32.55,110.12 30.32,110.53 28.1,110.9 C26.82,110.46 25.52,109.97 24.27,109.43 L23.27,108.99 C22.99,108.73 22.58,108.77 22.2,108.71 C21.45,108.6 20.67,108.53 19.86,108.37 C20.2601084,109.103441 20.7617211,109.776746 21.35,110.37 C21.64,110.66 21.9,111.02 22.29,111.08 L23.34,111.55 C24.75,112.16 26.16,112.69 27.62,113.19 L28,113.24 Z M118.07,27 C117.596546,28.7197802 116.893556,30.3679368 115.98,31.9 C115.131701,33.397013 113.930121,34.663821 112.48,35.59 C111.73652,36.010151 110.948259,36.3455813 110.13,36.59 C109.27,36.89 108.41,37.15 107.55,37.44 C100.768528,39.9534666 93.6356691,41.3908356 86.41,41.7 L86,41.7 L85.71,41.92 C79.0466639,47.0479834 73.9144723,53.9024334 70.87,61.74 L70.74,62.07 L70.82,62.42 C71.1016179,63.8003928 71.3019625,65.1961267 71.42,66.6 C71.56,68 71.66,69.43 71.73,70.83 C71.0189619,78.4034005 68.8166853,85.7613152 65.25,92.48 C62.3835586,95.3442542 58.98709,97.6232847 55.25,99.19 C51.518281,100.716908 47.5952616,101.726261 43.59,102.19 C42.69,101.77 41.77,101.31 40.9,100.81 C40.1246992,100.375756 39.3915323,99.8702393 38.71,99.3 C38.7632102,98.4252573 38.8633544,97.554003 39.01,96.69 C39.18,95.64 39.41,94.58 39.65,93.53 C40.1,91.53 40.65,89.6 41.23,87.67 C42.05,87.19 42.89,86.73 43.72,86.27 L46.55,84.58 C47.5,84.03 48.45,83.49 49.42,82.99 C50.2833078,82.540117 51.1713957,82.1394758 52.08,81.79 L54.88,83.86 C54.5834099,86.4217239 53.8707082,88.9178687 52.77,91.25 C54.2514062,88.9498692 55.2987077,86.3977074 55.86,83.72 L55.86,83.48 L55.65,83.29 L52.58,80.5 L52.33,80.27 L51.95,80.36 C50.837,80.6421111 49.7444783,80.9996029 48.68,81.43 C47.62,81.84 46.59,82.29 45.56,82.75 C44.53,83.21 43.56,83.69 42.56,84.22 C41.56,84.75 40.63,85.35 39.66,85.93 L39.29,86.15 L39.16,86.56 C38.5,88.7 37.92,90.83 37.41,93 C37.16,94.09 36.93,95.18 36.74,96.3 C36.5335891,97.4395667 36.4099327,98.5925792 36.37,99.75 L36.37,100.23 L36.69,100.55 C37.6043128,101.424063 38.6298045,102.173849 39.74,102.78 C40.7785973,103.376763 41.8466195,103.920787 42.94,104.41 L43.22,104.54 L43.54,104.54 C47.8675447,104.048292 52.1051716,102.954385 56.13,101.29 C60.1973994,99.5983246 63.8912177,97.1210537 67,94 L67.12,93.88 L67.2,93.73 C70.9646292,86.6631655 73.276709,78.9142983 74,70.94 L74,70.79 C73.92,69.3 73.82,67.84 73.68,66.37 C73.5597259,64.997855 73.3694783,63.6327449 73.11,62.28 C75.9975649,55.0732772 80.7500257,48.7642733 86.88,44 C94.2035163,43.6338662 101.430641,42.1709127 108.32,39.66 C109.19,39.32 110.03,38.93 110.88,38.55 C111.790238,38.1743075 112.655614,37.6980152 113.46,37.13 C115.002554,35.9010269 116.218413,34.3107926 117,32.5 C117.805429,30.7892276 118.370768,28.9754312 118.68,27.11 C118.78,25.11 117.61,23.51 117.63,21.64 C117.44,23.48 118.4,25.34 118.07,27 Z M108.72,46.42 C106.540851,46.4862442 104.383776,46.877214 102.32,47.58 C100.246071,48.2954887 98.2985967,49.3350418 96.55,50.66 C95.6751274,51.322148 94.8557421,52.0545782 94.1,52.85 C93.3368281,53.6634527 92.6660745,54.5589088 92.1,55.52 C91.0061078,57.4133177 90.2005874,59.4591372 89.71,61.59 C89.45,62.59 89.25,63.68 89.08,64.72 C88.9539267,65.7054936 88.7601349,66.6811351 88.5,67.64 C87.9100585,69.5834034 87.2225192,71.4958305 86.44,73.37 C85.65,75.37 85.07,77.26 84.2,79.1 C82.5636877,82.8119845 80.4817166,86.3110391 78,89.52 L77.07,90.72 L76.07,91.88 C75.43,92.67 74.72,93.38 74.07,94.13 C73.42,94.88 72.63,95.55 71.9,96.25 L70.75,97.25 C70.38,97.59 70.03,97.97 69.66,98.31 C66.673704,101.136606 63.4029556,103.646638 59.9,105.8 C63.8409252,104.341789 67.5729322,102.371558 71,99.94 C72.6946634,98.6790592 74.2681329,97.2629367 75.7,95.71 C76.42,94.94 77.16,94.19 77.83,93.37 L78.83,92.16 L79.83,90.91 C82.4143217,87.5482511 84.580221,83.8846912 86.28,80 C87.18,78.09 87.82,76 88.56,74.17 C89.3706054,72.2241342 90.0815273,70.2382259 90.69,68.22 C90.9705519,67.181969 91.1810261,66.126257 91.32,65.06 C91.48,64.06 91.68,63.06 91.91,62.06 C92.3422424,60.1843502 93.0463533,58.381961 94,56.71 C95.0095125,55.0662645 96.3310271,53.6360392 97.89,52.5 C99.4478105,51.3208414 101.182665,50.3960358 103.03,49.76 C106.7,48.39 110.75,48.76 115.03,48.5 C116.124275,48.4200666 117.2108,48.256252 118.28,48.01 C119.396186,47.7338497 120.469435,47.306569 121.47,46.74 C122.483365,46.1537207 123.348861,45.3429599 124,44.37 C124.364633,43.861566 124.644897,43.2976618 124.83,42.7 C125.013125,42.1242097 125.013125,41.5057903 124.83,40.93 C125.403248,39.7254171 126.093215,38.5799381 126.89,37.51 C127.773611,36.3136193 128.860042,35.2813399 130.1,34.46 C128.683471,35.0575661 127.393799,35.9196099 126.3,37 C125.178433,38.0750029 124.172914,39.2648674 123.3,40.55 L123.1,40.83 L123.27,41.28 C123.45,41.74 123.03,42.5 122.41,43.13 C121.751464,43.7481919 121.04232,44.3101551 120.29,44.81 C118.618894,45.7128193 116.758719,46.2095511 114.86,46.26 C112.9,46.37 110.84,46.33 108.72,46.45 L108.72,46.42 Z M48.2,120.31 C49.9926727,120.20721 51.7642821,119.871042 53.47,119.31 C55.1167885,118.735897 56.7294182,118.068142 58.3,117.31 C59.8862975,116.606908 61.4320432,115.815673 62.93,114.94 C65.9235938,113.176538 68.7224664,111.101685 71.28,108.75 C71.91,108.15 72.57,107.59 73.16,106.96 C73.75,106.33 74.16,105.56 74.7,104.85 C75.6824285,103.427145 76.5806347,101.947943 77.39,100.42 C76.1166667,101.58 74.8266667,102.696667 73.52,103.77 C72.87,104.31 72.2,104.82 71.52,105.34 C71.2064079,105.612164 70.9092203,105.902674 70.63,106.21 C70.33,106.5 70.02,106.77 69.72,107.06 C67.2693864,109.303925 64.5877255,111.28165 61.72,112.96 C60.2869484,113.795932 58.8079381,114.550461 57.29,115.22 C55.7966608,115.929783 54.2641899,116.554123 52.7,117.09 C49.7,118.09 46.3,118.49 43.54,117.31 L42.81,117 L42.26,117.57 C40.068117,119.836415 37.3037345,121.467401 34.26,122.29 L33.11,122.56 C32.7184758,122.594535 32.3304836,122.66143 31.95,122.76 L30.79,123.06 L29.6,123.28 C27.9656897,123.532114 26.3065959,123.582492 24.66,123.43 C26.2358132,124.184414 27.925061,124.674296 29.66,124.88 L31,125 L32.33,125 C33.2045104,124.87854 34.0698145,124.698129 34.92,124.46 C38.1144344,123.588633 41.0399873,121.931622 43.43,119.64 C44.9628164,120.165094 46.5818396,120.392504 48.2,120.31 Z M129.27,53.37 L129.06,54.02 C128.555241,55.4167727 127.761259,56.6912336 126.73,57.76 C125.689701,58.8868036 124.494393,59.8598852 123.18,60.65 C120.572063,62.1988508 117.474338,62.702633 114.51,62.06 L114.14,61.98 L113.8,62.13 C108.609524,64.4241244 103.714268,67.3350892 99.22,70.8 C96.9788837,72.5462043 94.8512448,74.4333566 92.85,76.45 C91.095549,78.6927829 89.574349,81.1086093 88.31,83.66 C90.272512,81.6842954 92.3423109,79.818138 94.51,78.07 C96.4099013,76.1025087 98.4520886,74.2775753 100.62,72.61 C104.882279,69.3256004 109.517756,66.556398 114.43,64.36 C117.839428,65.0066316 121.367636,64.3842159 124.35,62.61 C125.85756,61.7063847 127.228108,60.5917622 128.42,59.3 C129.506745,58.1313174 130.373942,56.7763222 130.98,55.3 C131.81663,55.112435 132.638737,54.8651345 133.44,54.56 C134.418355,54.1187591 135.311858,53.509553 136.08,52.76 C137.622911,51.3718719 138.792078,49.6181213 139.48,47.66 C138.266284,49.2026137 136.739402,50.4704712 135,51.38 C134.19,51.84 133.28,52.08 132.48,52.47 C131.658711,52.8440993 130.790986,53.1064347 129.9,53.25 L129.27,53.37 Z M80.42,105.74 C84.2183671,98.7482919 89.7745514,92.8681117 96.54,88.68 C98.21,87.61 99.92,86.59 101.7,85.68 C102.58,85.21 103.48,84.79 104.38,84.35 L105.74,83.74 C106.18,83.54 106.65,83.34 107.18,83.07 C109.146235,81.9926072 110.784159,80.4030601 111.92,78.47 C112.942642,76.7723107 113.717155,74.9370531 114.22,73.02 C118.746997,70.1733946 123.992491,68.6781514 129.34,68.71 L129.86,68.71 L130.48,68.65 C130.886955,68.6098986 131.288925,68.5295045 131.68,68.41 C132.452816,68.1797703 133.189871,67.8432153 133.87,67.41 C135.142278,66.5935215 136.262397,65.5613883 137.18,64.36 C138.892997,62.054211 140.345193,59.56569 141.51,56.94 C139.96126,59.28973 138.204171,61.4952945 136.26,63.53 C135.3193,64.4805831 134.21934,65.2590162 133.01,65.83 C132.442998,66.0811996 131.843997,66.2528235 131.23,66.34 C130.932679,66.389059 130.630925,66.4058231 130.33,66.39 L129.33,66.39 C126.378186,66.4026699 123.442804,66.8301854 120.61,67.66 C117.788491,68.5083725 115.096723,69.7398562 112.61,71.32 L112.22,71.56 L112.11,72 C111.676287,73.8529682 110.964914,75.6297137 110,77.27 C109.068622,78.8385081 107.731746,80.1270218 106.13,81 L105.52,81.29 L104.82,81.6 L103.41,82.23 C102.48,82.68 101.55,83.11 100.64,83.61 C98.81,84.55 97.03,85.61 95.3,86.72 C88.2140985,91.1137013 82.3933987,97.2755789 78.41,104.6 C74.61,111.6 69.91,118.25 63.68,123.13 C62.1364455,124.346854 60.4902796,125.427569 58.76,126.36 C57.01,127.24 55.32,128.27 53.48,129 C49.7892778,130.582427 45.8156574,131.398924 41.8,131.4 C50.1228718,132.722567 58.6116808,130.389875 65.09,125 C71.68,119.83 76.54,112.92 80.42,105.74 Z M68.09,134.63 L68.25,134.47 C69.79,132.95 71.38,131.47 72.85,129.91 C74.32,128.35 75.63,126.91 77.04,125.44 C79.1773587,125.019295 81.2877621,124.471658 83.36,123.8 C84.4740759,123.445371 85.5660138,123.024624 86.63,122.54 C87.7644718,122.04841 88.8274005,121.405944 89.79,120.63 L90.1,120.36 L90.17,119.94 C91.82,109.6 96.28,99.59 103.55,92.05 C110.611775,84.7415485 119.644351,79.6416173 129.55,77.37 C130.950786,85.0265855 128.489495,92.8817694 122.97,98.37 C121.466213,99.752578 119.865462,101.025827 118.18,102.18 C116.513384,103.377819 114.773304,104.469962 112.97,105.45 C109.822967,107.22702 106.316298,108.272869 102.71,108.51 C102.806116,107.399214 102.979874,106.296518 103.23,105.21 C103.545938,103.87034 104.054569,102.583604 104.74,101.39 C105.74,100.88 106.56,100.31 107.35,99.96 L107.7,99.8 L107.88,99.46 C108.701557,97.901665 109.644467,96.4103953 110.7,95 C111.787606,93.6249891 112.95988,92.3191227 114.21,91.09 C114.52,90.78 114.83,90.47 115.16,90.17 C115.459272,89.8895088 115.77662,89.6289495 116.11,89.39 C116.801208,88.9141602 117.542257,88.5151338 118.32,88.2 C119.585713,87.7156187 120.881827,87.3147587 122.2,87 C120.49731,91.2939661 117.411154,94.8974143 113.43,97.24 C115.772666,96.1594969 117.892474,94.6501933 119.68,92.79 C121.483917,90.8896278 122.921356,88.6724452 123.92,86.25 L124.39,85.12 L123.14,85.35 C121.306727,85.6318201 119.493109,86.0292798 117.71,86.54 C116.766922,86.8262842 115.85814,87.2152831 115,87.7 C114.568253,87.9591608 114.154025,88.246448 113.76,88.56 C113.39,88.85 113.03,89.15 112.67,89.46 C111.258499,90.7144456 109.984645,92.1156848 108.87,93.64 C107.808283,95.0213953 106.849055,96.4786184 106,98 C105,98.51 104.17,99.08 103.38,99.44 L103.06,99.58 L102.87,99.89 C101.988209,101.357372 101.34044,102.953179 100.95,104.62 C100.588278,106.235106 100.360835,107.877378 100.27,109.53 L100.19,110.72 L101.38,110.72 C105.799171,110.743735 110.148421,109.61679 114,107.45 C115.886306,106.424934 117.706538,105.282697 119.45,104.03 C121.230604,102.820003 122.921655,101.483205 124.51,100.03 C130.904407,93.7073424 133.555158,84.5168131 131.51,75.76 L131.25,74.7 L130.18,74.92 C119.396093,77.1515978 109.536423,82.5850462 101.89,90.51 C98.1025995,94.4783623 94.9883228,99.038312 92.67,104.01 C90.4333683,108.814325 88.8622316,113.901175 88,119.13 C87.275186,119.65306 86.4976169,120.098822 85.68,120.46 C84.7040195,120.908989 83.7022594,121.299675 82.68,121.63 C80.5859499,122.308235 78.451854,122.855953 76.29,123.27 L75.91,123.34 L75.66,123.61 C74.18,125.183333 72.69,126.746667 71.19,128.3 C69.74,129.82 68.39,131.45 67,133.03 C63.8189721,134.583486 60.5614864,135.975261 57.24,137.2 C55.54,137.826667 53.82,138.38 52.08,138.86 C50.3408153,139.383061 48.5506018,139.718307 46.74,139.86 C48.5701209,139.911559 50.400512,139.767407 52.2,139.43 C54.0068796,139.117884 55.7960331,138.710651 57.56,138.21 C61.097465,137.230096 64.5820854,136.068555 68,134.73 L68.09,134.63 Z M139.79,90.63 C137.527906,93.7798278 134.947646,96.6884844 132.09,99.31 C130.666811,100.621892 129.174693,101.856978 127.62,103.01 C126.84,103.59 126.05,104.15 125.25,104.68 C124.388423,105.235062 123.55723,105.835925 122.76,106.48 C119.687081,109.030576 117.171627,112.185956 115.37,115.75 C114.25,116.32 113.11,116.86 111.96,117.34 C110.70696,117.880496 109.421074,118.341411 108.11,118.72 C106.85,119.25 105.58,119.79 104.26,120.21 C102.929213,120.656137 101.569344,121.010304 100.19,121.27 C101.610421,121.472574 103.046893,121.539542 104.48,121.47 C105.927846,121.407082 107.368736,121.233239 108.79,120.95 C110.15,120.47 111.51,120.01 112.79,119.44 C114.07,118.87 115.41,118.27 116.68,117.61 L117.01,117.44 L117.18,117.1 C118.861002,113.685179 121.246771,110.665477 124.18,108.24 C124.919029,107.641702 125.690177,107.084206 126.49,106.57 C127.33,106.016667 128.153333,105.436667 128.96,104.83 C130.577446,103.626821 132.129645,102.338328 133.61,100.97 C136.577533,98.2515775 139.258243,95.2357784 141.61,91.97 C144.18,88.84 145.53,84.88 146.61,81.05 C145.49,82.71 144.34,84.33 143.16,85.89 C142.532471,86.6359506 141.948181,87.41723 141.41,88.23 C140.92,89 140.36,89.82 139.79,90.61 L139.79,90.63 Z M142.59,100.21 L142.44,100.3 L142.36,100.56 C142.006659,101.788166 141.537903,102.980145 140.96,104.12 C140.41,105.26 139.65,106.27 139.02,107.33 C138.347924,108.375653 137.559565,109.341812 136.67,110.21 C135.889821,110.973773 135.04314,111.666512 134.14,112.28 L132.85,111.99 L132.05,111.81 L131.62,112.46 C127.235468,119.01057 121.193879,124.282727 114.11,127.74 C105.997514,126.193021 97.6745103,126.101597 89.53,127.47 L89.21,127.53 L88.97,127.75 C85.2255488,131.115765 81.1478128,134.091139 76.8,136.63 C75.6787706,137.205749 74.5904239,137.8434 73.54,138.54 C72.4666667,139.206667 71.3766667,139.85 70.27,140.47 C68.0566667,141.716667 65.7833333,142.876667 63.45,143.95 C65.9686294,143.387222 68.4500345,142.669184 70.88,141.8 C72.0933333,141.353333 73.3,140.88 74.5,140.38 C75.09,140.12 75.7,139.87 76.28,139.58 C76.86,139.29 77.4,138.92 77.96,138.58 C82.3392626,136.02164 86.4528899,133.033565 90.24,129.66 C98.1522703,128.366418 106.231644,128.491706 114.1,130.03 L114.46,130.1 L114.8,129.94 C122.141022,126.423487 128.438189,121.053489 133.07,114.36 L134.13,114.6 L134.64,114.72 L135.04,114.46 C136.212675,113.695647 137.304915,112.814483 138.3,111.83 C139.290347,110.840378 140.184369,109.758845 140.97,108.6 C141.736467,107.428632 142.319838,106.147239 142.7,104.8 C143.089677,103.540824 143.364139,102.248846 143.52,100.94 C145.086905,99.453876 146.120225,97.4926765 146.46,95.36 C145.717494,97.3411687 144.361611,99.0333936 142.59,100.19 L142.59,100.21 Z M108,136 C107.463303,136.218124 106.944973,136.478961 106.45,136.78 C104.45,137.78 102.36,138.78 100.27,139.58 C98.88,139.58 97.5,139.52 96.11,139.52 C94.72,139.52 93.16,139.52 91.63,139.66 L91.28,139.66 L91,139.89 C88.2769082,142.152254 85.2121471,143.968159 81.92,145.27 C80.2742917,145.91721 78.5830234,146.441971 76.86,146.84 C75.1689179,147.54913 73.4434294,148.173242 71.69,148.71 C73.5608576,149.039079 75.4635979,149.149821 77.36,149.04 C79.2025953,148.636139 81.0087234,148.080922 82.76,147.38 C86.1486788,146.035387 89.3118846,144.180629 92.14,141.88 C93.43,141.79 94.77,141.77 96.14,141.76 C97.51,141.75 99.04,141.76 100.48,141.83 L100.72,141.83 L100.93,141.75 C103.179653,140.863047 105.382524,139.861742 107.53,138.75 L108.34,138.33 C108.623899,138.209585 108.884506,138.04036 109.11,137.83 C109.58,137.43 110.05,137.03 110.5,136.6 C111.414982,135.768897 112.224379,134.828518 112.91,133.8 C111.876022,134.39282 110.795842,134.90114 109.68,135.32 C109.08,135.62 108.52,135.81 108,136 Z" id="Shape" fill="#FEAA0F"></path>
                    <path d="M13,67.75 C12.02,68.83 11.02,69.8933333 10,70.94 C10.5466667,69.6066667 11.1233333,68.2733333 11.73,66.94 L12.64,64.94 C12.9786489,64.3030356 13.3629877,63.6914356 13.79,63.11 L13.96,62.81 L14.36,62.66 L22.53,59.66 L24.53,58.91 L25.04,58.72 L25.3,58.63 L25.48,58.56 C25.7261994,58.4526454 25.9579996,58.314909 26.17,58.15 C27.09,57.46 27.86,56.15 29.12,55.05 L29.35,54.84 L29.66,54.78 C30.2676227,54.6582114 30.8684464,54.5046676 31.46,54.32 C31.98,54.17 32.54,54.01 33.12,53.89 L43.35,43.77 L43.54,42.77 C43.65,42.32 43.65,41.86 43.78,41.41 L43.98,40.72 L44.41,40.58 L47.71,39.52 C48.81,39.15 49.92,38.8 51.01,38.38 C50.1405067,39.1747122 49.2292101,39.9224427 48.28,40.62 C47.52,41.19 46.74,41.73 45.96,42.26 C45.9,42.57 45.82,42.87 45.78,43.18 L45.53,44.54 L45.46,44.89 L45.21,45.13 L34.49,55.73 L34.26,55.96 L33.92,56.02 C33.3123528,56.141681 32.7115235,56.2952263 32.12,56.48 C31.6,56.63 31.04,56.79 30.46,56.91 C29.5599411,57.9626606 28.6017818,58.9642209 27.59,59.91 C27.2304837,60.1908711 26.8374758,60.4260041 26.42,60.61 L26.1,60.74 L25.84,60.83 L25.33,61.02 L23.33,61.77 L15.52,64.64 C15.2412012,65.164959 14.9058781,65.657884 14.52,66.11 L13,67.75 Z M29.76,47.81 L32.76,46.74 L33.08,46.63 L33.29,46.35 L38.82,38.78 L38.91,38.65 L38.97,38.5 L42.97,27.86 L48.42,24.7 L51.27,23 C52.2595517,22.4493333 53.1766188,21.7774893 54,21 L54.17,20.86 C55.03,19.69 55.87,18.47 56.71,17.23 C55.47,18.03 54.23,18.87 53.01,19.74 L53.18,19.6 C52.1031067,19.9345528 51.0718932,20.401454 50.11,20.99 L47.21,22.67 L41.41,26.03 L41.06,26.24 L40.92,26.62 L36.92,37.5 L31.69,44.66 L29,45.66 L27.51,46.17 C27.02,46.37 26.51,46.43 26.02,46.68 L23.18,48.14 L20.32,49.6 C22.4739538,49.4773563 24.6181349,49.2201882 26.74,48.83 C27.77,48.54 28.75,48.14 29.76,47.81 Z M56.45,22.53 L55.14,23.46 C54.73,23.81 54.19,23.97 53.89,24.46 C53.19,25.32 52.5,26.2 51.89,27.16 C53,26.88 54.06,26.53 55.1,26.16 C55.67,26.05 56.01,25.59 56.47,25.32 L57.78,24.39 L63,20.69 L63.27,20.5 L63.39,20.22 L65.51,15.22 L69.63,12.71 C70,12.49 70.36,12.24 70.75,12.05 C71.0913086,11.7622935 71.4059212,11.444334 71.69,11.1 C72.3,10.44 72.89,9.74 73.47,9.03 C72.57,9.21 71.68,9.42 70.81,9.66 C70.3754648,9.75474108 69.9503972,9.88862064 69.54,10.06 C69.2,10.33 68.81,10.52 68.44,10.76 L64,13.45 L63.68,13.64 L63.55,13.96 L61.42,19 L56.45,22.53 Z M21.21,73.23 L24.11,71.66 L33.5,72.83 L33.82,72.83 L34.11,72.68 L39.11,70.18 L39.62,69.93 L39.73,69.39 C40.25,66.94 40.57,64.51 41.03,62.16 C42.27,62.16 43.56,62.3 44.92,62.29 L45.6,62.29 L45.92,61.68 L55.64,43.13 L68.7,44.13 L69.17,44.13 L69.56,43.78 L77.28,37 L79.69,35.44 L79.86,35.33 L79.98,35.16 L87.35,25.23 L87.56,24.95 L87.56,24.62 L87.91,15.17 L87.91,13.9 L86.6,14.04 C84.1266667,14.3066667 81.6666667,14.6733333 79.22,15.14 C78,15.37 76.78,15.63 75.57,15.9 C74.3444748,16.1473022 73.1380962,16.4814791 71.96,16.9 L71.4,17.1 L71.25,17.52 C70.36,19.96 69.25,22.38 68.25,24.91 L68.03,25.51 L68.53,25.74 L71.96,27.33 L72.24,27.46 L72.43,27.31 C74.36,25.79 76.25,24.22 78.16,22.67 C76.16,23.91 74.16,25.14 72.16,26.4 L69.7,24.92 C70.7,22.92 71.87,20.92 72.92,18.92 C73.92,18.7 74.98,18.43 76.01,18.17 C77.04,17.91 78.38,17.65 79.57,17.42 C81.57,17.05 83.49,16.76 85.46,16.52 L85.18,24.2 L78.18,33.68 L76,35.14 L75.93,35.14 L75.88,35.14 L68.44,41.75 L55.11,40.75 L54.37,40.69 L54.02,41.36 L44.25,60 C42.94,60 41.56,59.85 40.11,59.87 L39.2,59.87 L39.01,60.76 C38.46,63.35 38.14,65.91 37.64,68.38 L33.42,70.48 L24,69.34 L23.66,69.34 L23.36,69.5 L20.13,71.24 C19,71.78 18,72.33 16.91,73 L16.43,73.3 L16.36,73.75 L15,82.33 C13.3533333,85.43 11.7233333,88.54 10.11,91.66 C12.1633333,88.7466667 14.1966667,85.8233333 16.21,82.89 L16.21,82.83 L16.21,82.69 L18.37,74.74 C19.36,74.26 20.29,73.74 21.21,73.23 Z M54.38,70.38 L54.54,70.22 L60.3,64.47 L60.44,64.33 L60.53,64.14 L62.21,60.6 L63.07,58.84 C63.22,58.55 63.39,58.27 63.53,57.97 C63.67,57.67 63.77,57.36 63.88,57.05 L65.25,53.34 C65.72,52.11 66.19,50.87 66.72,49.65 C65.0131816,51.6920739 63.4367253,53.8396618 62,56.08 C61.82,56.36 61.62,56.63 61.46,56.92 C61.3,57.21 61.19,57.52 61.04,57.82 L60.17,59.6 L58.55,63 L53.1,68.43 L32.57,76.66 L32.12,76.84 L31.95,77.28 L29.5,83.37 C28.74,85.24 28.01,87.12 27.22,88.98 L25.72,89.54 L23.66,90.32 C22.2866667,90.8533333 20.91,91.41 19.53,91.99 C21.0033333,91.8766667 22.4833333,91.74 23.97,91.58 L26.2,91.32 C26.94,91.22 27.7,91.16 28.43,91.03 L28.97,90.93 L29.18,90.35 C29.94,88.3 30.8,86.28 31.6,84.25 L33.87,78.59 L54.15,70.45 L54.38,70.38 Z M83.91,33.73 C83.5792791,34.1015124 83.2939399,34.5110582 83.06,34.95 C82.8,35.38 82.54,35.8 82.29,36.24 C81.7907959,37.1260404 81.3595575,38.04869 81,39 C81.76,38.35 82.54,37.76 83.32,37.17 L84.48,36.29 C84.8875127,36.0271001 85.2662605,35.7220908 85.61,35.38 C86.23,34.65 86.93,33.99 87.61,33.3 C88.29,32.61 88.88,32.05 89.52,31.44 L101.4,26.63 L101.85,26.45 L102,26 C102.61,24.57 102.81,23.21 103.2,22.07 C104.29,21.96 105.34,21.81 106.39,21.62 L108.31,21.25 C108.95,21.13 109.57,20.97 110.23,20.86 L110.33,20.86 L110.57,20.74 C110.976211,20.4715201 111.354737,20.1633393 111.7,19.82 L112.8,18.82 C113.53,18.16 114.26,17.48 114.98,16.82 C113.98,17.1 113.08,17.41 112.14,17.72 L110.74,18.22 C110.35,18.38 109.92,18.48 109.55,18.68 C109,18.83 108.42,18.94 107.86,19.06 L106,19.42 C104.786699,19.653462 103.561535,19.820378 102.33,19.92 L101.62,19.92 L101.35,20.56 C100.71,22.07 100.51,23.51 100.09,24.68 L88.46,29.4 L88.27,29.48 L88.12,29.63 C87.4,30.31 86.71,30.99 86.01,31.68 C85.31,32.37 84.63,33 83.92,33.73 L83.91,33.73 Z M26.91,111.59 L27.19,111.59 C29.55,111.2 31.89,110.78 34.19,110.28 C35.36,110.03 36.53,109.77 37.69,109.48 C38.31,109.48 38.8,108.96 39.33,108.63 C39.8525274,108.248769 40.3502045,107.834595 40.82,107.39 L38.92,107.21 C38.3273869,107.083518 37.7128132,107.104118 37.13,107.27 C36,107.56 34.86,107.81 33.71,108.05 C31.51,108.51 29.28,108.92 27.06,109.29 C25.78,108.85 24.48,108.36 23.23,107.82 L22.23,107.38 C21.95,107.12 21.54,107.16 21.17,107.1 C20.42,106.99 19.64,106.92 18.83,106.76 C19.2301084,107.493441 19.7317211,108.166746 20.32,108.76 C20.61,109.05 20.87,109.41 21.26,109.47 L22.31,109.94 C23.72,110.55 25.13,111.08 26.59,111.58 L26.91,111.59 Z M117,25.37 C116.526431,27.0897401 115.823448,28.7378816 114.91,30.27 C114.061701,31.767013 112.860121,33.033821 111.41,33.96 C110.66652,34.380151 109.878259,34.7155813 109.06,34.96 C108.2,35.26 107.34,35.52 106.48,35.81 C99.6985281,38.3234666 92.5656691,39.7608356 85.34,40.07 L85,40.07 L84.71,40.29 C78.0311829,45.4059329 72.8814807,52.2537571 69.82,60.09 L69.69,60.42 L69.77,60.77 C70.0516179,62.1503928 70.2519625,63.5461267 70.37,64.95 C70.51,66.35 70.61,67.78 70.68,69.18 C69.9689619,76.7534005 67.7666853,84.1113152 64.2,90.83 C61.3335586,93.6942542 57.93709,95.9732847 54.2,97.54 C50.468281,99.0669079 46.5452616,100.076261 42.54,100.54 C41.64,100.12 40.72,99.66 39.85,99.16 C39.0746992,98.7257562 38.3415323,98.2202393 37.66,97.65 C37.713191,96.7752556 37.8133353,95.9040003 37.96,95.04 C38.13,93.99 38.36,92.93 38.6,91.88 C39.05,89.88 39.6,87.95 40.18,86.02 C41,85.54 41.84,85.08 42.67,84.62 L45.5,83 C46.45,82.45 47.4,81.91 48.37,81.41 C49.2228741,80.950939 50.1009319,80.5402884 51,80.18 L53.8,82.25 C53.5035859,84.8117589 52.7908762,87.3079319 51.69,89.64 C53.1714062,87.3398692 54.2187077,84.7877074 54.78,82.11 L54.78,81.87 L54.57,81.68 L51.5,78.89 L51.25,78.66 L50.87,78.75 C49.7570086,79.0321407 48.6644889,79.3896319 47.6,79.82 C46.54,80.23 45.51,80.68 44.48,81.14 C43.45,81.6 42.48,82.08 41.48,82.61 C40.48,83.14 39.55,83.74 38.58,84.32 L38.21,84.54 L38.08,84.95 C37.42,87.09 36.84,89.22 36.33,91.39 C36.08,92.48 35.85,93.57 35.66,94.69 C35.4533807,95.8295366 35.3297227,96.9825643 35.29,98.14 L35.29,98.62 L35.61,98.94 C36.5243128,99.8140628 37.5498045,100.563849 38.66,101.17 C39.6986135,101.766733 40.7666341,102.310756 41.86,102.8 L42.14,102.93 L42.46,102.93 C46.7875209,102.438163 51.0251301,101.344261 55.05,99.68 C59.1127749,97.9771158 62.7997984,95.4896492 65.9,92.36 L66.02,92.24 L66.1,92.09 C69.9007233,85.0275465 72.246956,77.2747776 73,69.29 L73,69.14 C72.92,67.65 72.82,66.2 72.68,64.72 C72.5596741,63.3478608 72.3694268,61.9827535 72.11,60.63 C74.9929658,53.4123635 79.7457794,47.0925366 85.88,42.32 C93.1923627,41.9573178 100.409128,40.501156 107.29,38 C108.16,37.66 109,37.27 109.85,36.89 C110.760238,36.5143075 111.625614,36.0380152 112.43,35.47 C113.982209,34.2473981 115.208505,32.6604268 116,30.85 C116.805429,29.1392276 117.370768,27.3254312 117.68,25.46 C117.78,23.46 116.61,21.86 116.63,19.99 C116.4,21.83 117.35,23.69 117,25.37 Z M107.67,44.8 C105.490851,44.8662442 103.333776,45.257214 101.27,45.96 C99.2020792,46.6641205 97.2581852,47.6900646 95.51,49 C94.6351557,49.6621823 93.8157731,50.3946101 93.06,51.19 C92.296891,52.0035055 91.6261428,52.8989543 91.06,53.86 C89.9526724,55.773925 89.1402095,57.8438511 88.65,60 C88.39,61 88.19,62.09 88.02,63.13 C87.8939267,64.1154936 87.7001349,65.0911351 87.44,66.05 C86.8501874,67.9934461 86.1626459,69.9058797 85.38,71.78 C84.59,73.78 84.01,75.67 83.14,77.51 C81.5182055,81.1980972 79.4565889,84.6766555 77,87.87 L76.07,89.07 L75.07,90.23 C74.43,91.02 73.72,91.73 73.07,92.48 C72.42,93.23 71.63,93.9 70.9,94.6 L69.75,95.6 C69.38,95.94 69.03,96.32 68.66,96.66 C65.673704,99.4866064 62.4029556,101.996638 58.9,104.15 C62.8428367,102.701977 66.5781795,100.741846 70.01,98.32 C71.7046634,97.0590592 73.2781329,95.6429367 74.71,94.09 C75.43,93.32 76.17,92.57 76.84,91.75 L77.84,90.54 L78.84,89.29 C81.4250316,85.9412681 83.5942148,82.2912648 85.3,78.42 C86.2,76.51 86.84,74.42 87.58,72.59 C88.390557,70.6441155 89.1014779,68.6582096 89.71,66.64 C89.9905519,65.601969 90.2010261,64.546257 90.34,63.48 C90.5,62.48 90.7,61.48 90.93,60.48 C91.3494241,58.5812831 92.0469487,56.7549146 93,55.06 C94.009719,53.4164209 95.3311993,51.9862327 96.89,50.85 C98.4386373,49.6736154 100.16317,48.7489151 102,48.11 C105.67,46.74 109.72,47.11 114,46.85 C115.094284,46.7701449 116.180815,46.6063294 117.25,46.36 C118.366186,46.0838497 119.439435,45.656569 120.44,45.09 C121.464266,44.5074209 122.340317,43.6963893 123,42.72 C123.364633,42.211566 123.644897,41.6476618 123.83,41.05 C124.013125,40.4742097 124.013125,39.8557903 123.83,39.28 C124.403248,38.0754171 125.093215,36.9299381 125.89,35.86 C126.773611,34.6636193 127.860042,33.6313399 129.1,32.81 C127.679569,33.3933926 126.383165,34.2418246 125.28,35.31 C124.158379,36.3849523 123.152855,37.5748227 122.28,38.86 L122.08,39.14 L122.25,39.59 C122.43,40.05 122.01,40.81 121.39,41.44 C120.731464,42.0581919 120.02232,42.6201551 119.27,43.12 C117.598894,44.0228193 115.738719,44.5195511 113.84,44.57 C111.86,44.72 109.79,44.68 107.67,44.8 Z M47.15,118.66 C48.9426727,118.55721 50.7142821,118.221042 52.42,117.66 C54.0668118,117.085959 55.679445,116.418202 57.25,115.66 C58.8363155,114.956946 60.3820632,114.16571 61.88,113.29 C64.8735938,111.526538 67.6724664,109.451685 70.23,107.1 C70.86,106.5 71.52,105.94 72.11,105.31 C72.7,104.68 73.11,103.91 73.65,103.2 C74.6324285,101.777145 75.5306347,100.297943 76.34,98.77 C75.0666667,99.93 73.7766667,101.046667 72.47,102.12 C71.82,102.66 71.15,103.17 70.47,103.69 C70.1564079,103.962164 69.8592203,104.252674 69.58,104.56 C69.28,104.85 68.97,105.12 68.67,105.41 C66.2193864,107.653925 63.5377255,109.63165 60.67,111.31 C59.2369382,112.145913 57.757929,112.900442 56.24,113.57 C54.7466695,114.279803 53.2141975,114.904143 51.65,115.44 C48.65,116.44 45.25,116.84 42.49,115.66 L41.76,115.35 L41.21,115.92 C39.018117,118.186415 36.2537345,119.817401 33.21,120.64 L32.06,120.91 C31.6684818,120.94458 31.2804932,121.011475 30.9,121.11 L29.74,121.41 L28.55,121.63 C26.9156897,121.882114 25.2565959,121.932492 23.61,121.78 C25.1858132,122.534414 26.875061,123.024296 28.61,123.23 L29.93,123.35 L31.26,123.35 C32.1345156,123.22857 32.9998218,123.048159 33.85,122.81 C37.0612766,121.949204 40.0047488,120.29522 42.41,118 C43.9340098,118.517922 45.5424726,118.741886 47.15,118.66 Z M128.22,51.72 L128.01,52.37 C127.505241,53.7667727 126.711259,55.0412336 125.68,56.11 C124.639794,57.2369027 123.444471,58.2099965 122.13,59 C119.522063,60.5488508 116.424338,61.052633 113.46,60.41 L113.09,60.33 L112.75,60.48 C107.559524,62.7741244 102.664268,65.6850892 98.17,69.15 C95.928901,70.8962251 93.8012634,72.7833762 91.8,74.8 C90.0461821,77.0396646 88.5250016,79.4521095 87.26,82 C89.2224841,80.0242661 91.2922847,78.1581072 93.46,76.41 C95.3648929,74.4593651 97.4103878,72.6511743 99.58,71 C103.842279,67.7156004 108.477756,64.946398 113.39,62.75 C116.796215,63.3941066 120.320404,62.7717726 123.3,61 C124.80756,60.0963847 126.178108,58.9817622 127.37,57.69 C128.456745,56.5213174 129.323942,55.1663222 129.93,53.69 C130.766656,53.5025348 131.58877,53.2552322 132.39,52.95 C133.368355,52.5087591 134.261858,51.899553 135.03,51.15 C136.572911,49.7618719 137.742078,48.0081213 138.43,46.05 C137.226644,47.5726871 135.717545,48.8262957 134,49.73 C133.19,50.19 132.28,50.43 131.48,50.82 C130.658668,51.1939866 129.790959,51.4563173 128.9,51.6 L128.22,51.72 Z M79.38,104.09 C83.1741532,97.0873005 88.7306893,91.196407 95.5,87 C97.17,85.93 98.88,84.91 100.66,84 C101.54,83.52 102.44,83.11 103.34,82.67 L104.7,82.06 C105.14,81.86 105.61,81.66 106.14,81.39 C108.106235,80.3126072 109.744159,78.7230601 110.88,76.79 C111.902642,75.0923107 112.677155,73.2570531 113.18,71.34 C117.706997,68.4933946 122.952491,66.9981514 128.3,67.03 L128.82,67.03 L129.44,66.97 C129.846945,66.9298335 130.248909,66.8494407 130.64,66.73 C131.412816,66.4997703 132.149871,66.1632153 132.83,65.73 C134.102278,64.9135215 135.222397,63.8813883 136.14,62.68 C137.852929,60.3741657 139.30512,57.8856525 140.47,55.26 C138.921172,57.6096664 137.164089,59.8152233 135.22,61.85 C134.2793,62.8005831 133.17934,63.5790162 131.97,64.15 C131.402998,64.4011996 130.803997,64.5728235 130.19,64.66 C129.892679,64.709059 129.590925,64.7258231 129.29,64.71 L128.29,64.71 C125.343944,64.7310375 122.415405,65.1652691 119.59,66 C116.768491,66.8483725 114.076723,68.0798562 111.59,69.66 L111.2,69.9 L111.09,70.34 C110.64159,72.1992454 109.913277,73.9795638 108.93,75.62 C108.011192,77.2042635 106.680854,78.510413 105.08,79.4 L104.47,79.69 L103.77,80 L102.36,80.63 C101.43,81.08 100.5,81.51 99.59,82.01 C97.76,82.95 95.98,84.01 94.25,85.12 C87.1677683,89.5150501 81.3506248,95.6768111 77.37,103 C73.57,110 68.87,116.66 62.64,121.53 C61.0964455,122.746854 59.4502796,123.827569 57.72,124.76 C55.97,125.64 54.28,126.67 52.44,127.4 C48.7456889,128.965272 44.7722055,129.764731 40.76,129.75 C49.0694723,131.052088 57.5372376,128.712886 64,123.33 C70.63,118.18 75.49,111.27 79.38,104.09 Z M67,133 L67.16,132.84 C68.7,131.32 70.29,129.84 71.76,128.28 C73.23,126.72 74.54,125.28 75.95,123.81 C78.0873692,123.389341 80.1977754,122.841704 82.27,122.17 C83.3840759,121.815371 84.4760138,121.394624 85.54,120.91 C86.6744718,120.41841 87.7374005,119.775944 88.7,119 L89.01,118.73 L89.08,118.31 C90.73,107.97 95.19,97.96 102.46,90.42 C109.521775,83.1115485 118.554351,78.0116173 128.46,75.74 C129.860786,83.3965855 127.399495,91.2517694 121.88,96.74 C120.376213,98.122578 118.775462,99.3958266 117.09,100.55 C115.423355,101.747776 113.683277,102.839917 111.88,103.82 C108.732967,105.59702 105.226298,106.642869 101.62,106.88 C101.716084,105.76921 101.889842,104.666512 102.14,103.58 C102.455938,102.24034 102.964569,100.953604 103.65,99.76 C104.65,99.25 105.47,98.68 106.26,98.33 L106.61,98.17 L106.79,97.83 C107.615742,96.2782531 108.56198,94.7936963 109.62,93.39 C110.707666,92.0150392 111.879936,90.7091765 113.13,89.48 C113.44,89.17 113.75,88.86 114.08,88.56 C114.379291,88.2795304 114.696637,88.0189723 115.03,87.78 C115.721208,87.3041602 116.462257,86.9051338 117.24,86.59 C118.504991,86.0954438 119.801118,85.6845584 121.12,85.36 C119.41731,89.6539661 116.331154,93.2574143 112.35,95.6 C114.692666,94.5194969 116.812474,93.0101933 118.6,91.15 C120.403917,89.2496278 121.841356,87.0324452 122.84,84.61 L123.31,83.48 L122.06,83.71 C120.226727,83.9918201 118.413109,84.3892798 116.63,84.9 C115.716841,85.1724628 114.835223,85.5412001 114,86 C113.568284,86.2592093 113.154059,86.5464943 112.76,86.86 C112.39,87.15 112.03,87.45 111.67,87.76 C110.258499,89.0144456 108.984645,90.4156848 107.87,91.94 C106.804134,93.3534925 105.844824,94.8442673 105,96.4 C104,96.91 103.17,97.48 102.38,97.84 L102.06,97.98 L101.87,98.29 C101.007561,99.7541987 100.376772,101.342978 100,103 C99.6382777,104.615106 99.4108348,106.257378 99.32,107.91 L99.24,109.1 L100.43,109.1 C104.834922,109.105912 109.166022,107.968869 113,105.8 C114.886359,104.775025 116.706597,103.632784 118.45,102.38 C120.230604,101.170003 121.921655,99.8332046 123.51,98.38 C129.904407,92.0573424 132.555158,82.8668131 130.51,74.11 L130.22,73 L129.15,73.22 C118.366093,75.4515978 108.506423,80.8850462 100.86,88.81 C97.0725995,92.7783623 93.9583228,97.338312 91.64,102.31 C89.4093709,107.131636 87.8482556,112.235541 87,117.48 C86.275186,118.00306 85.4976169,118.448822 84.68,118.81 C83.703992,119.258924 82.7022358,119.649609 81.68,119.98 C79.5859285,120.658161 77.4518372,121.205877 75.29,121.62 L74.91,121.69 L74.66,121.96 C73.18,123.533333 71.69,125.096667 70.19,126.65 C68.74,128.17 67.39,129.8 66,131.38 C62.818958,132.933455 59.5614738,134.325229 56.24,135.55 C54.54,136.176667 52.82,136.73 51.08,137.21 C49.3408153,137.733061 47.5506018,138.068307 45.74,138.21 C47.5701228,138.261635 49.400522,138.117483 51.2,137.78 C53.0068905,137.467938 54.7960469,137.060705 56.56,136.56 C60.065183,135.550637 63.5163701,134.362414 66.9,133 L67,133 Z M138.7,89 C136.437906,92.1498278 133.857646,95.0584844 131,97.68 C129.577038,98.9952804 128.084918,100.233707 126.53,101.39 C125.756667,101.97 124.966667,102.526667 124.16,103.06 C123.298456,103.61511 122.467265,104.215971 121.67,104.86 C118.597081,107.410576 116.081627,110.565956 114.28,114.13 C113.16,114.7 112.02,115.24 110.87,115.72 C109.616941,116.260446 108.331057,116.72136 107.02,117.1 C105.76,117.63 104.49,118.17 103.17,118.59 C101.839213,119.036137 100.479344,119.390304 99.1,119.65 C100.520421,119.852574 101.956893,119.919542 103.39,119.85 C104.837849,119.787121 106.278742,119.613278 107.7,119.33 C109.06,118.85 110.43,118.39 111.7,117.82 C112.97,117.25 114.32,116.65 115.59,115.99 L115.92,115.82 L116.09,115.48 C117.771002,112.065179 120.156771,109.045477 123.09,106.62 C123.828981,106.021639 124.600132,105.46414 125.4,104.95 C126.24,104.396667 127.063333,103.816667 127.87,103.21 C129.487434,102.006806 131.039633,100.718314 132.52,99.35 C135.487533,96.6315775 138.168243,93.6157784 140.52,90.35 C143.09,87.22 144.44,83.26 145.52,79.43 C144.4,81.09 143.25,82.71 142.07,84.27 C141.442489,85.0159642 140.858199,85.7972426 140.32,86.61 C139.88,87.38 139.31,88.17 138.75,89 L138.7,89 Z M141.5,98.58 L141.35,98.67 L141.27,98.93 C140.916659,100.158166 140.447903,101.350145 139.87,102.49 C139.32,103.63 138.56,104.64 137.93,105.7 C137.257855,106.745603 136.469502,107.711754 135.58,108.58 C134.799821,109.343773 133.95314,110.036512 133.05,110.65 L131.76,110.36 L130.96,110.18 L130.53,110.83 C126.145468,117.38057 120.103879,122.652727 113.02,126.11 C104.907514,124.563021 96.5845103,124.471597 88.44,125.84 L88.12,125.9 L87.88,126.12 C84.148196,129.483605 80.0839472,132.458917 75.75,135 C74.6287706,135.575749 73.5404239,136.2134 72.49,136.91 C71.4166667,137.576667 70.3266667,138.22 69.22,138.84 C67.0066667,140.086667 64.7333333,141.246667 62.4,142.32 C64.9186104,141.757148 67.400011,141.039111 69.83,140.17 C71.0433333,139.723333 72.25,139.25 73.45,138.75 C74.04,138.49 74.65,138.24 75.23,137.95 C75.81,137.66 76.35,137.29 76.91,136.95 C81.2871451,134.381656 85.3974536,131.383509 89.18,128 C97.0922703,126.706418 105.171644,126.831706 113.04,128.37 L113.4,128.44 L113.74,128.28 C121.07618,124.764823 127.369649,119.398486 132,112.71 L133.06,112.95 L133.57,113.07 L133.97,112.81 C135.142675,112.045647 136.234915,111.164483 137.23,110.18 C138.220391,109.190418 139.114417,108.108882 139.9,106.95 C140.666604,105.778707 141.249985,104.497292 141.63,103.15 C142.019731,101.890838 142.294193,100.598855 142.45,99.29 C144.016905,97.803876 145.050225,95.8426765 145.39,93.71 C144.655394,95.6869325 143.310437,97.378635 141.55,98.54 L141.5,98.58 Z M106.88,134.4 C106.343285,134.618085 105.824952,134.878924 105.33,135.18 C103.33,136.18 101.24,137.18 99.15,137.98 C97.76,137.98 96.38,137.92 94.99,137.92 C93.6,137.92 92.04,137.92 90.51,138.06 L90.16,138.06 L89.88,138.29 C87.1569082,140.552254 84.0921471,142.368159 80.8,143.67 C79.1542917,144.31721 77.4630234,144.841971 75.74,145.24 C74.0489544,145.949223 72.3234612,146.573338 70.57,147.11 C72.4408576,147.439079 74.3435979,147.549821 76.24,147.44 C78.0825606,147.036007 79.888678,146.480793 81.64,145.78 C85.0286788,144.435387 88.1918846,142.580629 91.02,140.28 C92.31,140.19 93.65,140.17 95.02,140.16 C96.39,140.15 97.92,140.16 99.36,140.23 L99.6,140.23 L99.81,140.15 C102.059714,139.263192 104.262593,138.261883 106.41,137.15 L107.22,136.73 C107.503899,136.609585 107.764506,136.44036 107.99,136.23 C108.46,135.83 108.93,135.43 109.38,135 C110.295054,134.168967 111.10446,133.228579 111.79,132.2 C110.756042,132.792859 109.675859,133.30118 108.56,133.72 C108,134 107.48,134.16 106.93,134.36 L106.88,134.4 Z" id="Shape" fill="#DE6C1C"></path>
                    <path d="M149.47,61.65 L148.23,69.81 L148.23,69.74 L150.79,81.24 L150.79,81.32 L150.79,81.42 L150.07,85.58 L150.07,85.37 C150.323333,86.7033333 150.563333,88.0366667 150.79,89.37 L150.79,89.5 L150.79,89.62 L146.09,107.98 L146.09,108.09 L146.02,108.18 L138.78,117.78 L138.84,117.68 L136,123.83 L128.77,134.83 L128.7,134.94 L128.59,135.01 L111.86,145.09 L111.76,145.15 L111.65,145.15 L106.22,145.93 L106.44,145.85 L99.13,150.39 L99.03,150.45 L98.92,150.45 L83.92,152.92 L83.83,152.92 L83.74,152.92 C79.2466667,152.306667 74.8033333,151.666667 70.41,151 C66,150.38 61.57,149.8 57.15,149.41 L56.84,149.41 L56.69,149.13 C55.6492045,147.284974 54.3717176,145.583899 52.89,144.07 L53.39,144.24 C51.2241792,144.495556 49.0358208,144.495556 46.87,144.24 L46.6,144.24 L46.44,144 C46.1899368,143.676442 45.9085753,143.378333 45.6,143.11 C45.2250862,142.775983 44.8895757,142.400212 44.6,141.99 L45,142.25 L34.48,140.46 L34.32,140.46 L34.25,140.34 C33.0373453,138.320356 32.1371629,136.1289 31.58,133.84 C31.008176,131.551269 30.89938,129.171357 31.26,126.84 C31.0166425,129.149789 31.2341792,131.484909 31.9,133.71 C32.5465804,135.924297 33.5243012,138.028082 34.8,139.95 L34.57,139.8 L45.16,141.1 L45.41,141.1 L45.56,141.33 C45.8078305,141.655459 46.0893974,141.953786 46.4,142.22 C46.7765842,142.548616 47.1123233,142.921287 47.4,143.33 L46.97,143.07 C49.0423929,143.321577 51.1376071,143.321577 53.21,143.07 L53.51,143.07 L53.71,143.29 C55.2703849,144.876963 56.6152527,146.662275 57.71,148.6 L57.25,148.3 C61.72,148.7 66.15,149.3 70.57,149.9 C74.99,150.5 79.41,151.2 83.82,151.9 L83.63,151.9 L98.63,149.43 L98.42,149.51 L105.73,144.97 L105.83,144.91 L105.95,144.91 L111.38,144.13 L111.17,144.21 L127.9,134.13 L127.72,134.31 L134.95,123.31 L134.95,123.38 L137.79,117.19 L137.79,117.13 L145.03,107.53 L144.93,107.73 L149.62,89.37 L149.62,89.61 C149.366667,88.2766667 149.126667,86.9433333 148.9,85.61 L148.9,85.49 L148.9,85.39 L149.81,81.27 L149.81,81.45 L147.81,69.84 L147.81,69.77 L149.47,61.65 Z" id="Shape" fill="#A1EADF"></path>
                    <path d="M31.26,126.83 L28.2,124.9 C26.42,124.33 24.65,123.74 22.89,123.1 C21.11735,122.483225 19.3841099,121.758537 17.7,120.93 L17.58,120.87 L17.58,120.72 C17.52,119.3 17.28,117.88 17.21,116.42 L17.33,116.66 L13,113.31 L12.88,113.22 L12.88,113.05 L11.93,106.79 L12,107 C10.83,105.31 9.66,103.61 8.52,101.9 L8.43,101.76 L8.43,101.6 L8.15,94.46 L8.26,94.79 L5.7,91.21 L5.58,91.04 L5.58,90.84 L5.76,83 L5.76,81 C5.77192451,80.4191835 5.6700072,79.8416521 5.46,79.3 C5.06,78.15 4.34,77.05 3.84,75.76 L3.77,75.58 L3.83,75.39 C5.26774355,70.6842939 7.16697135,66.1321765 9.5,61.8 L9.44,62.21 C9.3,61.56 8.94,60.89 8.74,60.06 L8.69,59.83 L8.81,59.63 C9.97,57.63 11.37,55.94 12.48,54.08 L12.4,54.44 L11.6,48.16 L11.6,47.94 L11.73,47.76 L22.92,31.64 L39.25,15.17 L39.38,15.04 L39.56,15.04 L47.38,13.72 L47.12,13.83 L51.86,10.1 L52,10 L52.17,10 L69.42,8.5 L69.27,8.5 L76.11,5.91 L76.24,5.86 L76.38,5.86 L93.78,8.16 L93.72,8.16 L109.12,8.63 L109.27,8.63 L109.4,8.71 L117,13.47 L117.21,13.6 L117.21,13.87 L117.62,16.1 L117.25,15.71 L126.65,19.34 L126.84,19.41 L126.94,19.6 L130.94,27.27 L130.78,27.08 C133.18,28.92 135.56,30.77 137.91,32.67 L138.03,32.77 L138.03,32.9 L141.54,42.53 L141.54,42.64 L141.54,42.75 L141.13,44.43 L141.04,44.14 L146.61,50 L146.61,50.05 L147.41,54.75 L149.41,61.63 L147.17,54.82 L146.22,50.15 L146.27,50.25 L140.63,44.62 L140.51,44.5 L140.51,44.34 L140.88,42.61 L140.88,42.82 L137.06,33.31 L137.23,33.54 C134.8,31.74 132.42,29.89 130.04,28.03 L129.94,27.95 L129.88,27.84 L125.88,20.17 L126.17,20.43 L117,16.82 L116.68,16.7 L116.68,16.43 L116.25,14.06 L116.51,14.46 L108.91,9.7 L109.2,9.79 L93.8,9.32 L93.74,9.32 L76.23,7 L76.51,7 L69.67,9.59 L69.6,9.59 L69.52,9.59 L52.27,11.09 L52.57,10.97 L47.83,14.7 L47.72,14.79 L47.58,14.79 L39.76,16.11 L40.07,15.95 L23.8,32.37 L23.86,32.29 L12.63,48.42 L12.73,48.02 L13.53,54.3 L13.53,54.49 L13.43,54.66 C12.27,56.66 10.87,58.35 9.76,60.21 L9.82,59.79 C9.96,60.44 10.32,61.11 10.52,61.94 L10.57,62.16 L10.46,62.35 C8.20112779,66.6424089 6.37223012,71.1476605 5,75.8 L5,75.43 C5.44,76.57 6.16,77.68 6.63,79 C6.88710234,79.6799066 7.00937691,80.4033645 6.99,81.13 L6.99,83.13 L6.82,90.95 L6.71,90.58 L9.27,94.16 L9.38,94.31 L9.38,94.49 L9.68,101.6 L9.58,101.31 C10.72,103.02 11.83,104.75 12.94,106.49 L13.01,106.6 L13.01,106.71 L13.75,113.01 L13.6,112.75 L17.8,116.24 L17.91,116.33 L17.91,116.47 C17.91,117.88 18.12,119.31 18.14,120.77 L18.01,120.56 C19.6266252,121.412478 21.292954,122.167168 23,122.82 C24.7333333,123.486667 26.48,124.153333 28.24,124.82 L31.26,126.83 Z" id="Shape" fill="#FEEBC9"></path>
                    <path d="M4.87,39.88 C2.86008969,38.2211095 2.24556864,35.402699 3.38247442,33.0576824 C4.5193802,30.7126659 7.11272828,29.4494875 9.66,30 C10.714008,28.4495403 12.3326513,27.3728375 14.17,27 C15.9328115,26.7202398 17.7341471,27.1597657 19.17,28.22 C19.2714212,26.8029899 20.1547776,25.5608906 21.46,25 C22.7650931,24.4865088 24.2505868,24.7992002 25.2379286,25.795241 C26.2252705,26.7912819 26.5249194,28.2794613 26,29.58 C25.3374624,30.812674 24.3249474,31.8217096 23.09,32.48 C24.3185198,33.9049693 24.6431213,35.8989496 23.93,37.64 C23.2518571,39.3930906 21.9328161,40.8229454 20.24,41.64 C18.5569321,42.4617887 16.7214742,42.9249097 14.85,43 C14.3612752,44.9867369 13.1626116,46.7260441 11.48,47.89 C10.8365508,48.4382154 10.0334869,48.7643506 9.19,48.82 C8.32492539,48.8547559 7.54152953,48.3120911 7.27,47.49 C6.48678721,47.9634789 5.65544675,48.3523317 4.79,48.65 C4.05305554,49.0080843 3.212046,49.0897012 2.42,48.88 C1.22436323,48.4171943 0.431860598,47.272028 0.42,45.99 C0.437169101,44.724486 0.921544403,43.5099862 1.78,42.58 C2.70474382,41.566209 3.74135246,40.6604345 4.87,39.88 Z" id="Shape" fill="#FFF8ED"></path>
                    <path d="M41.65,23.83 C42.5564157,23.9674351 43.4747558,23.6711964 44.13,23.03 C44.77,22.4 45.64,21.55 45.51,20.66 C49.7578116,21.3084295 54.0449916,19.7614313 56.9,16.55 C56.7039288,17.7472478 57.0155655,18.9720525 57.76,19.93 C58.4785294,20.8991302 59.5627245,21.5315774 60.76,21.68 C59.948536,23.1319785 60.0062556,24.9135898 60.91,26.31 C61.8390698,27.6852002 63.2791928,28.632081 64.91,28.94 C66.5169967,29.2415867 68.1727276,29.1558864 69.74,28.69 C71.4115733,28.2812378 72.9612724,27.4789599 74.26,26.35 C75.6324003,25.1946042 76.5327202,23.5754518 76.79,21.8 C78.305403,22.6609116 80.0717226,22.9717838 81.79,22.68 C83.5058986,22.3510473 85.052211,21.4310445 86.16,20.08 C88.0774373,21.9552348 90.9936118,22.3608224 93.35,21.08 C95.646913,19.646919 96.7577,16.8962066 96.1,14.27 C96.52,12.89 96.26,10.96 95.01,10.27 C96.0438554,9.05454138 96.8623113,7.67128341 97.43,6.18 C97.9908077,4.65614373 97.7343418,2.95140015 96.75,1.66 C95.8310994,0.752340729 94.6182689,0.202666102 93.33,0.11 C89.7046849,-0.328914702 86.0928003,1.02554203 83.65,3.74 C82.5054934,2.17519207 80.5404634,1.44027084 78.65,1.87 C76.8863094,2.24701294 75.3071484,3.22206539 74.18,4.63 C71.2778889,1.29008321 66.6982267,-0.0568762727 62.45,1.18 C58.32,2.46 55.62,6.46 55.19,10.76 C53.0732445,9.86688592 50.7651907,9.52291368 48.48,9.76 C46.1798407,9.99962698 44.0566113,11.1041352 42.54,12.85 C41.2101003,14.5590806 40.9043537,16.8521799 41.74,18.85 C40.2460808,19.1370483 38.839169,19.7669066 37.63,20.69 C36.4052589,21.6468185 35.7195866,23.1374104 35.79,24.69 C35.8917573,26.2726239 37.1307037,27.5455141 38.71,27.69 C40.5,27.68 41.86,25.58 41.65,23.83 Z" id="Shape" fill="#FFF8ED"></path>
                    <path d="M112.57,11.48 C111.285514,13.7075657 111.699343,16.5257445 113.57,18.29 C114.852479,19.3456708 116.45896,19.928241 118.12,19.94 C119.929016,19.9949761 121.738828,19.860916 123.52,19.54 C124.507528,21.3971081 126.568242,22.4189375 128.644249,22.0809199 C130.720257,21.7429024 132.350373,20.1201286 132.69776,18.0456683 C133.045146,15.9712081 132.032631,13.9059024 130.18,12.91 C129.463383,12.4137948 128.552368,12.2910866 127.73,12.58 C127.802762,11.2178321 127.403672,9.87222793 126.6,8.77 C125.77656,7.67308267 124.49146,7.0194543 123.12,7 C121.734996,7.01579147 120.485653,7.83567303 119.92,9.1 C117.59,8.2 113.87,9.36 112.57,11.48 Z" id="Shape" fill="#FFF8ED"></path>
                    <path d="M4.74,94.92 C4.96656233,95.9691935 5.58084481,96.8941886 6.46,97.51 C7.61014372,98.1367341 8.970296,98.2528005 10.21,97.83 C11.8313948,97.3229642 13.2609474,96.3362242 14.31,95 C17.1199121,95.1721278 19.8839887,94.2268064 22,92.37 C24,90.37 25.21,87.22 23.73,84.85 C27.1576047,84.3817443 29.9415144,81.8483865 30.73,78.48 C31.1223865,78.3899548 31.4570188,78.1353493 31.6484552,77.781192 C31.8398916,77.4270347 31.8696018,77.0076064 31.73,76.63 C31.5284591,76.2834197 31.1906832,76.0373623 30.7989999,75.9518004 C30.4073166,75.8662385 29.9977045,75.9490316 29.67,76.18 C29.2461405,75.0010902 28.2307418,74.1340081 27,73.9 C25.0962665,73.4147212 23.0826033,73.6129025 21.31,74.46 C19.521054,75.3386669 18.0904224,76.8081551 17.26,78.62 C16.6398461,77.766608 15.6807949,77.2232673 14.63,77.13 C13.7230014,76.9239137 12.772715,77.1783211 12.09,77.81 C9.10101161,76.7845556 5.81360863,78.1205529 4.38732607,80.9403589 C2.96104351,83.7601648 3.83283068,87.1999169 6.43,89 C5.4,90.49 4.31,93.19 4.74,94.92 Z" id="Shape" fill="#FFF8ED"></path>
                    <path d="M70.49,76.11 C71.0593531,76.9460717 71.9894842,77.46487 73,77.51 C74.0236014,77.5360239 75.0425005,77.3628111 76,77 C78.62,76.15 81.32,75 82.7,72.62 C84.6061679,73.0793249 86.5972502,73.0518143 88.49,72.54 C90.4112449,71.9237797 91.8396623,70.3033708 92.21,68.32 C94.2786121,68.5420169 96.3413361,67.8520084 97.86,66.43 C99.4036689,65.0544202 100.260229,63.0667622 100.2,61 C102.941412,61.0732438 105.536705,59.7662074 107.11,57.52 C107.700988,56.7148669 108.048102,55.7568322 108.11,54.76 C108.231788,53.6889147 107.864453,52.6199716 107.11,51.85 C108.704858,51.4633913 109.72762,49.9073946 109.45,48.29 C109.0582,46.7003885 107.571943,45.6290976 105.94,45.76 C104.265571,46.0435826 102.962719,47.3706358 102.71,49.05 C101.834249,47.4521597 100.094648,46.5254199 98.28,46.69 C96.5576281,46.8277804 95.1042113,48.0256514 94.64,49.69 C93.0062857,48.2083222 90.8406973,47.4539755 88.64,47.6 C86.4284644,47.7804881 84.4260533,48.9775014 83.22,50.84 C82.1602037,52.6917348 82.1985767,54.9749244 83.32,56.79 C81.3126617,56.1614537 79.1247254,56.8142737 77.79,58.44 C76.4627984,60.0105355 76.3050427,62.2595649 77.4,64 C75.2044366,63.5182131 72.9344602,64.4033304 71.6445497,66.2441857 C70.3546392,68.085041 70.2976282,70.5208109 71.5,72.42 C70.65,72.95 70,75.25 70.49,76.11 Z" id="Shape" fill="#FFF8ED"></path>
                    <path d="M6.76,132.59 C7.66202801,133.769283 8.99754494,134.539635 10.47,134.73 C9.27692718,136.599255 9.24978291,138.984073 10.4,140.88 C11.5834341,142.738697 13.5729708,143.931678 15.77,144.1 C18.0288015,144.301931 20.2859954,143.695997 22.14,142.39 C22.4570449,143.361913 23.1899508,144.142458 24.14,144.52 C25.2333068,144.774434 26.3831328,144.568334 27.32,143.95 C29.4635893,144.597635 31.7804911,144.317208 33.7076713,143.176864 C35.6348515,142.036521 36.995876,140.140661 37.46,137.95 C38.5585209,137.960223 39.6053874,137.484375 40.32,136.65 C41.056422,135.729892 41.3818924,134.54735 41.22,133.38 C43.4918561,134.167566 46.0052859,133.7941 47.95,132.38 C49.8882282,130.982913 51.0110864,128.718483 50.95,126.33 C53.5545956,126.487319 56.0105139,125.106842 57.23,122.8 C58.5298393,120.597851 58.359599,117.826497 56.8,115.8 C58.3089936,115.570281 59.6580117,114.732434 60.5328252,113.481621 C61.4076387,112.230808 61.7318717,110.676231 61.43,109.18 C61.2711892,108.187756 60.71977,107.30116 59.9,106.72 C59.0949201,106.256766 58.1425822,106.120718 57.24,106.34 C55.1324035,106.750797 53.5224272,108.461397 53.24,110.59 C51.7587639,109.869454 50.0348517,109.840173 48.53,110.51 C47.0017967,111.196521 45.8482162,112.514377 45.37,114.12 C45.3012348,113.282804 44.6770496,112.597021 43.85,112.45 C43.0324946,112.327995 42.204003,112.585748 41.6,113.15 C41.0450226,113.807235 40.6420887,114.578956 40.42,115.41 C39.8016299,113.035033 37.7113268,111.337674 35.26,111.22 C32.8531009,111.217888 30.7376465,112.814688 30.08,115.13 C28.3206346,113.429026 25.8708488,112.641991 23.45,113 C21.0200847,113.328007 18.8881398,114.785145 17.7,116.93 C16.0451555,116.217658 14.1350433,116.450692 12.7,117.54 C10.8165095,115.888045 8.15039595,115.467694 5.85,116.46 C3.57990908,117.523694 2.13825332,119.813153 2.16,122.32 C2.26195559,124.822795 3.83017351,127.030062 6.16,127.95 C5.91,129.23 6,131.49 6.76,132.59 Z" id="Shape" fill="#FFF8ED"></path>
                    <path d="M127.09,62.35 C126.287676,63.2781967 125.800938,64.4372636 125.7,65.66 C125.734954,66.8748967 126.423275,67.9762101 127.5,68.54 C125.616338,68.7647275 123.93973,69.8407815 122.950845,71.4596668 C121.96196,73.0785521 121.77,75.0614938 122.43,76.84 C120.290599,76.885549 118.236199,77.6860567 116.63,79.1 C115.11219,80.6369485 114.181507,82.6575566 114,84.81 C112.857004,84.7408345 111.835849,85.5194647 111.6,86.64 C111.421662,87.7590111 111.904542,88.8805401 112.84,89.52 C113.705106,90.234472 114.826786,90.560121 115.94,90.42 C118.23786,91.8365315 121.017879,92.243607 123.625403,91.5453659 C126.232926,90.8471248 128.437508,89.1052757 129.72,86.73 C132.108237,87.8761151 134.967168,87.2961606 136.72,85.31 C141.61241,86.7630169 146.846999,84.5340136 149.19,80 C150.44,77.57 150.9,73.86 149.02,71.87 C151.836128,70.8351499 153.745479,68.1984276 153.85,65.2 C153.9,62.28 152.2,58.94 149.48,57.88 C151.263839,55.2139431 151.421748,51.778455 149.89,48.96 C149.319372,47.848707 148.388668,46.9638328 147.25,46.45 C146.219264,45.8937291 144.950058,46.0458736 144.08,46.83 C142.055644,45.6555722 139.569164,45.6064472 137.5,46.7 C135.515777,47.8759 134.290734,50.0036065 134.27,52.31 C132.488985,52.4318307 130.880007,53.4166261 129.961248,54.9472271 C129.042489,56.477828 128.929997,58.3609043 129.66,59.99 C128.720668,60.6816061 127.85898,61.472884 127.09,62.35 Z" id="Shape" fill="#FFF8ED"></path>
                    <path d="M147.93,92 C147.092491,92.848274 146.537218,93.9343747 146.34,95.11 C146.155391,96.3046054 146.624735,97.5065834 147.57,98.26 C148.468612,98.8058346 149.530575,99.0182272 150.57,98.86 C151.484289,98.8189099 152.377062,98.5692073 153.18,98.13 C154.087778,97.6563235 154.763115,96.8329176 155.05,95.85 C157.893094,96.1586874 160.710851,95.0792295 162.62,92.95 C163.179235,92.3784726 163.549278,91.6488592 163.68,90.86 C163.802796,90.0274968 163.406885,89.2040028 162.68,88.78 C163.298995,88.150547 163.568293,87.2566278 163.4,86.39 C163.23,85.54 162.92,84.39 162.12,84.09 C163.161365,82.9691015 163.359413,81.3038793 162.61,79.97 C161.822159,78.6742968 160.416422,77.8823856 158.9,77.88 C157.391825,77.9025133 155.953823,78.5208544 154.9,79.6 C152.278066,82.1947079 152.229044,86.4150896 154.79,89.07 C152.228912,89.2052099 149.798513,90.2432665 147.93,92 Z" id="Shape" fill="#FFF8ED"></path>
                    <path d="M98.69,153.25 C101.015755,153.517613 103.363535,152.988834 105.35,151.75 C110.090326,155.472591 116.40321,156.517196 122.09,154.52 C123.162165,154.177517 124.147892,153.60791 124.98,152.85 C125.78,152.06 126.72,151.18 126.59,150.06 C131.396829,149.548262 135.018919,145.453348 134.94,140.62 C134.94,139.46 135.2,137.9 134.24,137.26 C135.573338,136.364928 136.616069,135.099748 137.24,133.62 C137.866374,132.122718 137.848289,130.433528 137.19,128.95 C136.5,127.5 135.71,126.09 134.11,125.95 C134.652656,124.707374 134.387665,123.259807 133.44,122.29 C132.489129,121.35561 131.254148,120.764508 129.93,120.61 C127.476898,120.226435 124.967654,120.737511 122.86,122.05 C120.832218,123.358027 119.36088,125.370874 118.73,127.7 C116.722512,126.954098 114.475997,127.24989 112.73,128.49 C111.021834,129.749512 110.057172,131.780182 110.16,133.9 C108.487955,133.875071 106.895064,134.610817 105.83,135.9 C104.774624,137.244655 104.364936,138.98583 104.71,140.66 C101.821043,140.447502 99.0125468,141.670375 97.2,143.93 C94.7665905,142.959097 92.0140428,143.223551 89.81,144.64 C89.0771123,145.014534 88.5812501,145.732031 88.49,146.55 C88.5881067,147.306003 89.0623488,147.960909 89.75,148.29 C90.6050292,148.792288 91.5901065,149.028985 92.58,148.97 C94.23,150.59 96.41,153 98.69,153.25 Z" id="Shape" fill="#FFF8ED"></path>
                    <path d="M137.27,133.63 C137.896374,132.132718 137.878289,130.443528 137.22,128.96 C136.53,127.51 135.74,126.1 134.14,125.96 C134.479503,125.249701 134.526194,124.434413 134.27,123.69 C132.986491,123.82066 131.721823,124.095734 130.5,124.51 C130.855147,126.08355 130.308248,127.724249 129.08,128.77 C127.87,129.77 126.03,130.53 124.59,129.88 C125.346385,130.700964 125.47253,131.921715 124.9,132.88 C124.450957,133.793159 123.387841,134.223571 122.43,133.88 C124.128918,135.361242 124.87257,137.658614 124.363909,139.854442 C123.855247,142.050271 122.177179,143.786653 120,144.37 C117.993689,145.003282 115.801948,144.43203 114.36,142.9 C114.703056,144.049939 114.221013,145.285947 113.19,145.9 C112.168914,146.466298 110.949246,146.550539 109.86,146.13 C108.77,145.75 108.11,144.74 107.27,143.95 C106.520204,145.997313 104.804966,147.540278 102.69,148.07 C100.487057,148.413989 98.3545959,147.128612 97.63,145.02 C97.0187258,146.225908 95.8607503,147.060625 94.5234447,147.259333 C93.1861391,147.458041 91.8354919,146.996077 90.9,146.02 C90.5394536,146.823557 90.3001795,147.676182 90.19,148.55 C90.9571381,148.924824 91.8074807,149.096959 92.66,149.05 C94.27,150.67 96.45,153.1 98.73,153.33 C101.055755,153.597613 103.403535,153.068834 105.39,151.83 C110.130326,155.552591 116.44321,156.597196 122.13,154.6 C123.202165,154.257517 124.187892,153.68791 125.02,152.93 C125.82,152.14 126.76,151.26 126.63,150.14 C131.436829,149.628262 135.058919,145.533348 134.98,140.7 C134.98,139.54 135.24,137.98 134.28,137.34 C135.62028,136.424775 136.660444,135.134137 137.27,133.63 Z" id="Shape" fill="#A1EAC5"></path>
                    <path d="M162.66,88.73 C163.278995,88.100547 163.548293,87.2066278 163.38,86.34 C163.21,85.49 162.9,84.34 162.1,84.04 C163.141365,82.9191015 163.339413,81.2538793 162.59,79.92 C162.273169,79.3680997 161.827053,78.9013939 161.29,78.56 C161.97696,80.0975047 161.77091,81.88725 160.752535,83.2284233 C159.73416,84.5695966 158.065517,85.2487705 156.4,85 C157.278187,85.3596092 158.084398,85.8745006 158.78,86.52 C159.607559,87.1400996 160.125572,88.0885749 160.2,89.12 C160.24002,90.1710752 159.546492,91.1096215 158.53,91.38 C157.193409,92.7824053 155.029998,92.9910807 153.45,91.87 C153.000161,93.3531323 151.894199,94.547571 150.45,95.11 C149.14417,95.6964238 147.644998,95.6707656 146.36,95.04 C146.175391,96.2346054 146.644735,97.4365834 147.59,98.19 C148.488612,98.7358346 149.550575,98.9482272 150.59,98.79 C151.504289,98.7489099 152.397062,98.4992073 153.2,98.06 C154.107778,97.5863235 154.783115,96.7629176 155.07,95.78 C157.913094,96.0886874 160.730851,95.0092295 162.64,92.88 C163.198705,92.308093 163.568659,91.5786561 163.7,90.79 C163.806563,89.955379 163.394834,89.1398384 162.66,88.73 Z" id="Shape" fill="#A1EAC5"></path>
                    <path d="M51,126.36 C53.1621245,126.486803 55.2508783,125.554324 56.6,123.86 C56.48,123.95 56.36,124.05 56.24,124.13 C54.82,125.02 52.79,125.52 51.29,124.77 C52.5753271,124.378283 53.6333917,123.458385 54.2,122.24 C54.7691542,121.074132 54.7947698,119.716508 54.27,118.53 C53.7274953,120.186434 52.3094088,121.404138 50.59,121.69 C48.9774437,122.023517 47.3221412,121.357455 46.39,120 C46.2923081,121.808858 45.0689525,123.36141 43.333117,123.87947 C41.5972814,124.397529 39.7231118,123.769432 38.65,122.31 C38.7740471,122.761653 38.7240869,123.243413 38.51,123.66 C38.144415,124.291188 37.5613916,124.767561 36.87,125 C35.6510544,125.466387 34.2980636,125.437676 33.1,124.92 C32.4297498,124.685577 31.7834707,124.387552 31.17,124.03 C31.9147752,126.722566 30.7791512,129.582051 28.39,131.03 C27.9494786,131.324442 27.438832,131.496957 26.91,131.53 C26.38,131.53 25.85,131.95 25.6,131.53 C25.8838349,132.689081 25.2692126,133.879912 24.16,134.32 C23.0738147,134.660138 21.9128655,134.081871 21.53,133.01 C21.8413681,135.151918 20.5487126,137.202183 18.4818336,137.844659 C16.4149547,138.487134 14.1877758,137.530987 13.23,135.59 C12.6797148,134.357985 12.5668141,132.974951 12.91,131.67 C13.3439621,130.301712 13.9239707,128.984121 14.64,127.74 C13.9072073,127.787406 13.2341773,127.335984 13,126.64 C12.7907643,125.951929 12.870174,125.208366 13.22,124.58 C13.2656965,124.500611 13.3157739,124.423826 13.37,124.35 C11.6951249,125.707354 9.34327522,125.851805 7.5148787,124.709621 C5.68648218,123.567438 4.7847729,121.390517 5.27,119.29 C4.18610521,120.121809 3.18179369,121.052471 2.27,122.07 C2.27,122.18 2.27,122.3 2.27,122.41 C2.37195559,124.912795 3.94017351,127.120062 6.27,128.04 C5.96,129.37 6,131.62 6.8,132.73 C7.70202801,133.909283 9.03754494,134.679635 10.51,134.87 C9.31692718,136.739255 9.28978291,139.124073 10.44,141.02 C11.6234341,142.878697 13.6129708,144.071678 15.81,144.24 C18.0688015,144.441931 20.3259954,143.835997 22.18,142.53 C22.4970449,143.501913 23.2299508,144.282458 24.18,144.66 C25.2733068,144.914434 26.4231328,144.708334 27.36,144.09 C29.5035893,144.737635 31.8204911,144.457208 33.7476713,143.316864 C35.6748515,142.176521 37.035876,140.280661 37.5,138.09 C38.5985209,138.100223 39.6453874,137.624375 40.36,136.79 C41.096422,135.869892 41.4218924,134.68735 41.26,133.52 C43.5318561,134.307566 46.0452859,133.9341 47.99,132.52 C49.9650093,131.103174 51.0959177,128.788756 51,126.36 Z" id="Shape" fill="#A1EAC5"></path>
                    <path d="M88.49,72.54 C90.4112449,71.9237797 91.8396623,70.3033708 92.21,68.32 C94.2786121,68.5420169 96.3413361,67.8520084 97.86,66.43 C99.4036689,65.0544202 100.260229,63.0667622 100.2,61 C102.941412,61.0732438 105.536705,59.7662074 107.11,57.52 C107.700988,56.7148669 108.048102,55.7568322 108.11,54.76 C108.231788,53.6889147 107.864453,52.6199716 107.11,51.85 C108.704858,51.4633913 109.72762,49.9073946 109.45,48.29 C109.373906,47.9332912 109.231432,47.5940667 109.03,47.29 C108.38891,47.9241368 107.496581,48.2362683 106.6,48.14 C106.327793,49.3537184 105.512952,50.3750346 104.39,50.91 C103.333952,51.4090638 102.099985,51.3567137 101.09,50.77 C100.732542,51.4511614 100.055704,51.9061471 99.29,51.98 C98.6016838,52.1188878 97.8931074,51.8647245 97.45,51.32 C97.6618454,52.3008522 97.338436,53.320543 96.6,54 C95.9742413,54.6675791 95.0134225,54.9028817 94.15,54.6 C95.7615264,55.7561664 96.6289064,57.6880225 96.4221393,59.6605806 C96.2153722,61.6331388 94.9662463,63.343139 93.15,64.14 C91.4215735,65.0257512 89.3520322,64.9228458 87.72,63.87 C87.5173529,65.1852959 86.4852959,66.2173529 85.17,66.42 C83.9003951,66.6389167 82.6418055,65.9788746 82.1,64.81 C81.7900392,66.5299375 80.861728,68.0771228 79.49,69.16 C78.3993744,70.0873068 76.9404869,70.4566454 75.54,70.16 C74.1297708,69.7866952 73.2535792,68.3804076 73.54,66.95 C72.5379263,67.744199 71.5766964,68.5886127 70.66,69.48 C70.6667921,70.4980266 70.9539693,71.4944971 71.49,72.36 C70.65,72.91 69.96,75.21 70.49,76.08 C71.0527957,76.927476 71.9840025,77.4580041 73,77.51 C74.0236014,77.5360239 75.0425005,77.3628111 76,77 C78.62,76.15 81.32,75 82.7,72.62 C84.6061679,73.0793249 86.5972502,73.0518143 88.49,72.54 Z" id="Shape" fill="#A1EAC5"></path>
                    <path d="M125.44,10.92 C125.365894,11.3995423 125.342431,11.8855492 125.37,12.37 C125.741766,11.9675495 125.77127,11.3563902 125.44,10.92 Z" id="Shape" fill="#A1EAC5"></path>
                    <path d="M126.58,73.46 C126.58,73.55 126.58,73.63 126.58,73.72 C126.601588,73.6346776 126.601588,73.5453224 126.58,73.46 Z" id="Shape" fill="#A1EAC5"></path>
                    <path d="M113.57,18.29 C114.852479,19.3456708 116.45896,19.928241 118.12,19.94 C119.929016,19.9949761 121.738828,19.860916 123.52,19.54 C124.497539,21.4152029 126.565904,22.4538594 128.653763,22.1179864 C130.741622,21.7821134 132.379887,20.1471729 132.72,18.06 C132.883819,16.9277363 132.654391,15.7735368 132.07,14.79 C131.239581,14.4862247 130.336664,14.4409045 129.48,14.66 C129.7,15.66 128.56,16.58 127.55,16.4 C126.536102,16.1315809 125.773265,15.2944163 125.6,14.26 C125.466369,13.6379764 125.386078,13.0056812 125.36,12.37 C125.318609,12.4277286 125.271723,12.4813121 125.22,12.53 C124.709376,12.88537 124.044798,12.9314679 123.49,12.65 C122.991227,12.4571686 122.569613,12.1058236 122.29,11.65 C121.560091,12.6462907 120.683481,13.5262721 119.69,14.26 C118.682439,14.9964156 117.42204,15.2989114 116.19,15.1 C114.945721,14.8642603 113.993721,13.8557862 113.83,12.6 C113.173409,12.7334143 112.530643,12.9275832 111.91,13.18 C111.550936,15.0552643 112.177416,16.9837642 113.57,18.29 Z" id="Shape" fill="#A1EAC5"></path>
                    <path d="M149.19,80 C150.44,77.57 150.9,73.86 149.02,71.87 C151.836128,70.8351499 153.745479,68.1984276 153.85,65.2 C153.9,62.28 152.2,58.94 149.48,57.88 C151.263839,55.2139431 151.421748,51.778455 149.89,48.96 L149.89,48.89 C148.640674,48.3662065 147.33552,47.9870744 146,47.76 C147.97992,50.3803337 147.538593,54.0963068 145,56.18 C144.298646,56.8810321 143.264585,57.1318305 142.32,56.83 C142.958073,57.6744795 143.339906,58.6846007 143.42,59.74 C143.631342,60.8754535 143.323141,62.0458838 142.58,62.93 C141.800587,63.8041238 140.556943,64.0960402 139.47,63.66 C142.06,64.53 143.9,67.59 143.9,70.32 C143.961691,71.6195926 143.419043,72.8746953 142.43,73.72 C141.378392,74.5382103 139.868192,74.3792418 139.01,73.36 C138.914398,74.4646938 138.008226,75.3236242 136.9,75.36 C135.871311,75.2800464 135.096846,74.389857 135.16,73.36 C135.26,74.81 134.01,76.14 132.79,76.92 C131.5765,77.6959266 130.042734,77.7708229 128.759409,77.1168204 C127.476083,76.462818 126.635334,75.1778323 126.55,73.74 C126.49,74.19 125.93,74.74 125.61,75.02 C125.209782,75.4070937 124.625211,75.5348476 124.1,75.35 C124.998319,76.2035012 125.653979,77.2801638 126,78.47 C126.420173,79.6561709 125.852815,80.9654573 124.7,81.47 C125.9,82.23 125.95,84.15 125.29,85.4 C124.548863,86.6388751 123.241386,87.4293555 121.8,87.51 C121.047029,87.6148888 120.281311,87.4482742 119.64,87.04 C118.985377,86.6051683 118.706089,85.783733 118.96,85.04 C118.503942,85.7618145 117.921254,86.3953176 117.24,86.91 C116.671428,87.4564662 115.8776,87.7012916 115.1,87.57 C114.31175,87.4016047 113.771836,86.6731489 113.84,85.87 C112.983864,86.5898079 112.372375,87.5577081 112.09,88.64 C112.293886,88.9467965 112.551323,89.2143951 112.85,89.43 C113.715106,90.144472 114.836786,90.470121 115.95,90.33 C118.24786,91.7465315 121.027879,92.153607 123.635403,91.4553659 C126.242926,90.7571248 128.447508,89.0152757 129.73,86.64 C132.118237,87.7861151 134.977168,87.2061606 136.73,85.22 C141.597149,86.6821728 146.818451,84.4947576 149.19,80 Z" id="Shape" fill="#A1EAC5"></path>
                    <path d="M35.83,24.69 C35.9317573,26.2726239 37.1707037,27.5455141 38.75,27.69 C40.51,27.69 41.86,25.62 41.65,23.87 C42.5564157,24.0074351 43.4747558,23.7111964 44.13,23.07 C44.77,22.44 45.64,21.59 45.51,20.7 C49.7578116,21.3484295 54.0449916,19.8014313 56.9,16.59 C56.7039288,17.7872478 57.0155655,19.0120525 57.76,19.97 C58.4785294,20.9391302 59.5627245,21.5715774 60.76,21.72 C59.948536,23.1719785 60.0062556,24.9535898 60.91,26.35 C61.8390698,27.7252002 63.2791928,28.672081 64.91,28.98 C66.516205,29.2848311 68.1719262,29.2025593 69.74,28.74 C71.4115733,28.3312378 72.9612724,27.5289599 74.26,26.4 C75.6324003,25.2446042 76.5327202,23.6254518 76.79,21.85 C78.305403,22.7109116 80.0717226,23.0217838 81.79,22.73 C83.5058986,22.4010473 85.052211,21.4810445 86.16,20.13 C88.0774373,22.0052348 90.9936118,22.4108224 93.35,21.13 C95.646913,19.696919 96.7577,16.9462066 96.1,14.32 C96.52,12.94 96.26,11.01 95.01,10.32 C96.0438554,9.10454138 96.8623113,7.72128341 97.43,6.23 C97.8353349,5.02678122 97.781916,3.71623845 97.28,2.55 C95.9769014,3.12521486 94.5817993,3.46383188 93.16,3.55 C93.4174353,5.75573581 92.7310032,7.96757268 91.27,9.64 C89.82,11.28 88.02,12.73 85.84,12.73 C84.5922922,15.4432502 82.1972337,17.4568599 79.31,18.22 C76.5384222,18.9680186 73.5764522,18.3719222 71.31,16.61 C71.1451914,17.7209456 70.4250582,18.671069 69.4,19.13 C68.3820488,19.5728255 67.2456763,19.6642982 66.17,19.39 C63.73,18.84 61.95,16.51 61.34,14.08 C59.5,15.63 56.4,16 54.55,14.46 C53.0958362,15.5210083 51.4730526,16.3290193 49.75,16.85 C48.01,17.28 46.14,17.3 44.82,16.09 C44.7107694,18.1029562 43.6996559,19.9593328 42.0678015,21.1429608 C40.4359471,22.3265888 38.3573618,22.7112542 36.41,22.19 C35.9636667,22.9436554 35.761095,23.8168093 35.83,24.69 Z" id="Shape" fill="#A1EAC5"></path>
                    <path d="M0.71,47.23 C1.02658716,47.9822022 1.64843862,48.5640515 2.42,48.83 C3.212046,49.0397012 4.05305554,48.9580843 4.79,48.6 C5.65544675,48.3023317 6.48678721,47.9134789 7.27,47.44 C7.54152953,48.2620911 8.32492539,48.8047559 9.19,48.77 C10.0336488,48.715056 10.8369266,48.388834 11.48,47.84 C13.1526933,46.6883122 14.3502468,44.9683837 14.85,43 C16.7145054,42.9391774 18.5462492,42.493158 20.23,41.69 C21.9228161,40.8729454 23.2418571,39.4430906 23.92,37.69 C24.6331213,35.9489496 24.3085198,33.9549693 23.08,32.53 C24.3258257,31.8599786 25.3427474,30.832609 26,29.58 C26.5133645,28.2772136 26.2247132,26.7949502 25.26,25.78 L25.13,25.67 C24.93,25.54 24.73,25.41 24.51,25.29 L22.63,28.7 C22.0026938,29.9719839 21.2053948,31.1527938 20.26,32.21 C18.7592424,33.7233784 16.7112662,34.5670869 14.58,34.55 C14.81,38.14 11.66,41.4 8.08,41.79 C8.10652225,42.8347504 7.43991373,43.7714837 6.44414514,44.0887402 C5.44837656,44.4059967 4.36274122,44.0275364 3.78,43.16 C2.13804042,43.9149368 0.984805017,45.4438189 0.71,47.23 Z" id="Shape" fill="#A1EAC5"></path>
                    <path d="M21.35,79.82 C19.4723192,80.7272585 17.3064255,80.8319434 15.35,80.11 C15.78,80.18 15.73,80.92 15.35,81.11 C14.9184577,81.2232806 14.4591233,81.1018037 14.14,80.79 C13.8608539,80.5259781 13.5152027,80.3427829 13.14,80.26 C13.0409605,81.623745 12.6008163,82.9407391 11.86,84.09 C11.092269,85.2470534 9.75325393,85.8916222 8.37,85.77 C7.69808451,85.6699124 7.09543253,85.3017464 6.69968974,84.749591 C6.30394696,84.1974356 6.14891386,83.5084505 6.27,82.84 C5.49438645,83.7964114 4.77644765,84.7981864 4.12,85.84 C4.53178411,87.1135022 5.34150962,88.2211787 6.43,89 C5.43,90.45 4.3,93.16 4.74,94.88 C4.96656233,95.9291935 5.58084481,96.8541886 6.46,97.47 C7.61014372,98.0967341 8.970296,98.2128005 10.21,97.79 C11.8263076,97.293818 13.2552641,96.3214306 14.31,95 C17.1199121,95.1721278 19.8839887,94.2268064 22,92.37 C24,90.37 25.21,87.22 23.73,84.85 C27.1576047,84.3817443 29.9415144,81.8483865 30.73,78.48 C31.1223865,78.3899548 31.4570188,78.1353493 31.6484552,77.781192 C31.8398916,77.4270347 31.8696018,77.0076064 31.73,76.63 C31.5284591,76.2834197 31.1906832,76.0373623 30.7989999,75.9518004 C30.4073166,75.8662385 29.9977045,75.9490316 29.67,76.18 C29.3584185,75.2018061 28.5896986,74.4368178 27.61,74.13 C26.8482579,74.4640595 26.1128332,74.8551717 25.41,75.3 C24.7182211,77.2905433 23.2551689,78.9193601 21.35,79.82 Z" id="Shape" fill="#A1EAC5"></path>
                </g>
            </g>
        </g>
    </g>
</svg>