<?xml version="1.0" encoding="UTF-8"?>
<svg width="87px" height="52px" viewBox="0 0 87 52" version="1.1" xmlns="http://www.w3.org/2000/svg" xmlns:xlink="http://www.w3.org/1999/xlink">
    <!-- Generator: Sketch 51.3 (57544) - http://www.bohemiancoding.com/sketch -->
    <title>Group-Copy</title>
    <desc>Created with Sketch.</desc>
    <defs>
        <polygon id="path-1" points="0.000306535092 0.189 86.7772197 0.189 86.7772197 51.5 0.000306535092 51.5"></polygon>
    </defs>
    <g id="Page-1" stroke="none" stroke-width="1" fill="none" fill-rule="evenodd">
        <g id="aff_des_home" transform="translate(-414.000000, -1525.000000)">
            <g id="Group-Copy" transform="translate(414.000000, 1525.000000)">
                <g id="Group-3" transform="translate(0.000000, 0.311000)">
                    <g id="Fill-1-Clipped">
                        <mask id="mask-2" fill="white">
                            <use xlink:href="#path-1"></use>
                        </mask>
                        <g id="path-3"></g>
                        <path d="M8.97392428,51.0784 C11.5617971,50.5044 14.2004618,49.9644 16.7682191,49.3369 C37.0678838,44.3734 56.092722,33.0819 72.1575486,20.0379 C76.0997046,16.8369 80.1208145,13.6524 83.4066988,9.7569 C84.8278665,8.0724 86.7584618,5.7679 86.7770688,3.4299 C86.8298723,-3.1496 75.7622653,2.1619 73.2644098,3.1474 C66.2506006,5.9134 59.2362884,8.6789 52.2194618,11.4364 C51.7955254,11.6029 51.3615312,11.7759 51.0256006,12.0829 C50.2526584,12.7889 50.570485,13.8199 51.6914272,13.7699 C52.1742017,13.7484 52.6157393,13.5069 53.0371613,13.2719 C56.8359936,11.1499 60.4950225,9.2289 64.4733867,7.5939 C68.7565023,5.8339 73.025537,4.0394 77.3011092,2.2624 C78.6146584,1.7164 80.0524214,1.1609 81.4253116,1.5344 C86.7514214,2.9829 79.3066353,8.8059 77.7386237,9.9934 C76.7776006,10.8019 75.7341035,11.5314 74.7273173,12.2814 C65.5118549,19.1479 55.9333058,25.5324 46.0439705,31.3994 C34.512196,38.2409 22.8687798,44.7479 9.72473931,47.6274 C8.37347341,47.9234 5.31439249,49.1574 4.58067572,47.3809 C3.58696474,44.9744 8.24573931,42.2179 9.72423642,41.2059 C12.7093925,39.1629 15.6824792,37.1034 18.6927798,35.0979 C24.6163231,31.1509 30.6821844,27.3844 37.1010746,24.2784 C37.4817624,24.0944 37.2303173,23.4504 36.8280052,23.5884 C29.8604618,25.9844 23.4953809,29.5514 17.4762884,33.7304 C11.6477913,37.7769 5.91534624,42.0559 1.18164104,47.3694 C-3.33632428,52.4399 6.37850809,51.6539 8.97392428,51.0784" id="Fill-1" fill="#003864" fill-rule="nonzero" mask="url(#mask-2)"></path>
                    </g>
                </g>
                <path d="M22.9723249,22.53075 C23.264504,10.61425 33.2172035,1.18875 45.202585,1.47925 C57.1884694,1.76975 66.6679491,11.66525 66.3757699,23.58225 C66.0840936,35.49875 56.1308913,44.92375 44.1455098,44.63325 C32.1601283,44.34325 22.6801457,34.44725 22.9723249,22.53075" id="Fill-4" fill="#008CF7" fill-rule="nonzero"></path>
                <path d="M65.791663,28.0608 C65.3405705,26.8678 64.5495243,25.7908 63.5678827,24.9603 C62.110004,23.7273 60.2794838,22.9928 58.4097382,22.5848 C57.7318422,22.4368 57.0237728,22.3298 56.3478884,22.4843 C54.4550098,22.9168 52.9357786,25.9353 51.2023162,26.8063 C49.4970156,27.6638 47.425611,27.0218 45.7243335,26.1553 C44.0230561,25.2893 42.9529058,23.3823 41.0429289,23.3048 C39.6619925,23.2493 38.2659694,23.7788 37.2727613,24.7348 C36.2795532,25.6913 35.7027382,27.0613 35.7143046,28.4358 C35.7273798,29.8563 36.3348711,31.2603 36.106559,32.6628 C35.8556168,34.2018 34.6522006,35.4168 34.1553451,36.8958 C33.7273855,38.1683 33.8495879,39.5618 34.1483046,40.8703 C34.2448595,41.2928 34.3640445,41.7143 34.5073682,42.1258 C37.3899347,43.6478 40.6602295,44.5488 44.1452584,44.6333 C54.5817382,44.8858 63.4743451,37.7713 65.791663,28.0608" id="Fill-6" fill="#0061D0" fill-rule="nonzero"></path>
                <path d="M57.0588746,15.79855 C56.447863,16.12805 54.492626,19.76205 54.3442734,20.19455 C53.3565971,23.06105 51.5597705,26.11205 48.1707936,26.57355 C47.5542503,26.65755 47.1509324,26.00305 47.5894526,25.52305 C48.7541462,24.24755 49.9299035,22.74305 47.5421809,22.80455 C47.0116318,22.81855 46.6631289,22.33705 46.6364757,21.85905 C46.5776376,20.80305 46.9040133,19.78705 47.9550538,19.29405 C48.3266896,19.11955 48.7501231,19.21655 49.1207532,19.08205 C51.4174526,18.24855 49.8615104,14.04805 47.4667474,15.03705 C46.7440942,15.33505 46.1164873,14.80455 46.2447243,14.05505 C46.4649902,12.76455 47.3108514,12.04105 48.5710942,11.69105 C50.165759,11.24805 51.6885104,12.34155 53.1685162,12.23055 C53.1207416,11.94755 53.1388457,11.64255 53.2831751,11.31705 C53.8826202,9.96405 55.9630769,10.47205 55.8293081,8.57355 C55.7392908,7.30155 54.831574,6.85005 55.5396434,5.43605 C55.6895046,5.13605 55.8715509,4.90105 56.0757243,4.71205 C60.1275104,7.20655 63.284152,10.97455 64.9824121,15.45305 C64.5609902,15.67155 64.0927994,15.83705 63.5914179,15.93905 C61.7005509,16.32405 58.7028225,14.91155 57.0588746,15.79855" id="Fill-8" fill="#4A4AE2" fill-rule="nonzero"></path>
                <path d="M37.2506844,43.29395 C37.284378,42.19495 37.5197306,40.63545 38.5310428,39.96595 C39.5966671,39.26095 40.4264358,40.07095 41.2144647,40.83145 C42.5310312,42.10145 43.5694994,43.49195 44.9715572,44.61195 C44.6954705,44.61545 44.4239098,44.63995 44.1453087,44.63345 C42.7236382,44.59895 41.3406902,44.41945 40.0014936,44.12745 C39.9793665,44.09245 39.9562335,44.05795 39.9341064,44.02295 C39.8621931,43.99345 39.7404936,43.95145 39.560459,43.88795 C39.5398405,43.92895 39.5212335,43.96945 39.5026266,44.00995 C38.7357191,43.82395 37.9894301,43.59195 37.2582277,43.32745 C37.2577249,43.31545 37.2501815,43.30595 37.2506844,43.29395" id="Fill-10" fill="#2929B4" fill-rule="nonzero"></path>
                <path d="M22.9723249,22.53075 C23.0894983,17.73825 24.7887642,13.36425 27.5350474,9.84725 C27.5390705,9.89525 27.5430936,9.94375 27.5476197,9.99175 C28.9783422,9.59625 30.3502266,9.62525 31.8478335,10.08425 C32.5533884,10.30025 32.6328451,11.25725 32.0117757,11.62025 C30.4120821,12.55575 30.6645329,14.75925 32.0877121,15.70125 C33.4445098,16.59925 35.1654,16.13875 36.4668798,15.46775 C36.8445503,15.27275 37.2222208,15.42475 37.4545561,15.75075 C37.6240301,15.98925 37.7070069,16.24275 37.7346659,16.49075 C39.1844983,16.71875 39.3715734,18.67925 38.8958393,19.91725 C37.4324289,23.72625 29.4787179,23.17925 31.7874867,28.79825 C32.0947526,29.54525 31.6894231,30.23425 30.8722266,30.29875 C29.3394173,30.42025 29.7216139,32.83525 30.0127873,33.64475 C30.2486428,34.29875 30.6107237,34.89025 30.9003884,35.51975 C31.2604578,36.30325 31.6929434,37.18725 31.7085329,38.06675 C31.7226139,38.89675 31.4882671,39.44775 31.0457237,39.82825 C25.9866486,35.75875 22.8013422,29.49875 22.9723249,22.53075" id="Fill-12" fill="#4A4AE2" fill-rule="nonzero"></path>
                <path d="M39.4125087,10.92505 C40.4283468,10.78405 41.288289,11.36355 41.6106416,12.32305 C41.874659,13.10855 41.6941214,14.11455 40.8110462,14.40555 C40.7683006,14.41955 40.7290751,14.41855 40.6873353,14.42805 C40.6375491,14.52605 40.5681503,14.61655 40.4771272,14.68255 C39.4633006,15.41855 37.6649653,14.72505 36.7748497,14.08005 C36.489711,13.87305 36.3076647,13.44305 36.5475434,13.12305 C37.2671792,12.16005 38.1412023,11.10205 39.4125087,10.92505" id="Fill-14" fill="#4A4AE2" fill-rule="nonzero"></path>
                <path d="M1.18159075,47.68015 C1.87356763,46.90315 2.59320347,46.15415 3.32541156,45.41865 C3.91932486,45.37815 4.51323815,45.33915 5.10765434,45.30415 C4.53787977,46.08915 4.25726705,46.90865 4.58062543,47.69215 C5.31383931,49.46815 8.37342312,48.23415 9.72468902,47.93815 C22.8687295,45.05865 34.5121457,38.55215 46.0439202,31.71065 C55.9332555,25.84315 65.5118046,19.45915 74.7272671,12.59265 C75.7340532,11.84215 76.7775503,11.11265 77.7385734,10.30415 C79.3070879,9.11665 86.7513711,3.29365 81.4252613,1.84515 C80.0523711,1.47165 78.615111,2.02715 77.301059,2.57365 C74.7192208,3.64665 72.1368798,4.71865 69.5555445,5.79265 C70.0166948,5.32615 70.4743249,4.85565 70.9264231,4.37865 C71.7059029,4.07165 72.4853827,3.76515 73.2643595,3.45815 C75.762215,2.47315 86.829822,-2.83835 86.7770185,3.74115 C86.7584116,6.07915 84.8278162,8.38315 83.4066486,10.06815 C80.1207642,13.96315 76.1001572,17.14765 72.1574983,20.34915 C56.0926717,33.39265 37.0678335,44.68465 16.7681688,49.64815 C14.2004116,50.27565 11.5617468,50.81565 8.97387399,51.38915 C6.3784578,51.96465 -3.33637457,52.75065 1.18159075,47.68015" id="Fill-16" fill="#0052AA" fill-rule="nonzero"></path>
                <path d="M7.78348266,48.49805 C11.4711763,48.95705 14.8511012,46.88655 18.3215462,45.90805 C21.6411243,44.97155 25.0522283,44.34755 28.3190029,43.22555 C35.4087486,40.79105 41.9920838,36.25855 48.4738353,32.56455 C54.9530723,28.87205 61.2568006,24.99805 67.2075,20.49955 C72.8162341,16.25855 79.3452572,12.02905 83.082737,5.98155 C83.1591763,5.85805 83.3799451,5.94605 83.3231185,6.08955 C82.1936272,8.93155 79.8335636,11.04605 77.5207717,12.96305 C74.5346098,15.43755 71.4850838,17.84755 68.4078988,20.20855 C62.1544595,25.00755 55.5650896,29.10105 48.7001358,32.97255 C42.1369162,36.67455 35.6048757,41.27905 28.460315,43.79055 C24.875211,45.05105 21.1321994,45.77855 17.4998237,46.88355 C14.3773786,47.83255 11.0286329,49.97355 7.70151156,49.00655 C7.42743642,48.92655 7.48376012,48.46055 7.78348266,48.49805" id="Fill-18" fill="#003864" fill-rule="nonzero"></path>
            </g>
        </g>
    </g>
</svg>