<?xml version="1.0" encoding="UTF-8"?>
<svg width="125px" height="127px" viewBox="0 0 125 127" version="1.1" xmlns="http://www.w3.org/2000/svg" xmlns:xlink="http://www.w3.org/1999/xlink">
    <!-- Generator: Sketch 51.3 (57544) - http://www.bohemiancoding.com/sketch -->
    <title>play-icon</title>
    <desc>Created with Sketch.</desc>
    <defs>
        <filter x="-3.1%" y="-4.1%" width="106.1%" height="108.2%" filterUnits="objectBoundingBox" id="filter-1">
            <feOffset dx="0" dy="0" in="SourceAlpha" result="shadowOffsetOuter1"></feOffset>
            <feGaussianBlur stdDeviation="7.5" in="shadowOffsetOuter1" result="shadowBlurOuter1"></feGaussianBlur>
            <feColorMatrix values="0 0 0 0 0   0 0 0 0 0   0 0 0 0 0  0 0 0 0.5 0" type="matrix" in="shadowBlurOuter1" result="shadowMatrixOuter1"></feColorMatrix>
            <feMerge>
                <feMergeNode in="shadowMatrixOuter1"></feMergeNode>
                <feMergeNode in="SourceGraphic"></feMergeNode>
            </feMerge>
        </filter>
    </defs>
    <g id="Page-1" stroke="none" stroke-width="1" fill="none" fill-rule="evenodd">
        <g id="aff_des_slot_item" transform="translate(-712.000000, -443.000000)" fill-rule="nonzero">
            <g id="casino_info" filter="url(#filter-1)" transform="translate(404.000000, 252.000000)">
                <g id="btn-play" transform="translate(302.000000, 184.000000)">
                    <g id="play-icon">
                        <g id="space-03" transform="translate(70.000000, 70.000000) rotate(-50.000000) translate(-70.000000, -70.000000) translate(21.000000, 21.000000)">
                            <path d="M37.9027859,83.6090655 L41.7182234,84.0808918 C44.689368,84.4534317 46.8012237,87.1624076 46.4428716,90.1414186 L46.0856817,93.0618604 C45.7139195,96.0392208 43.0105991,98.1554946 40.0378073,97.7963928 L36.2223698,97.3245665 C33.2476608,96.9521238 31.1345401,94.2378869 31.4977216,91.2559048 L31.8549115,88.335463 C32.2307306,85.3613904 34.9327897,83.2497386 37.9027859,83.6090655 Z" id="Shape" fill="#E4D73B"></path>
                            <rect id="Rectangle-path" fill="#E4D73B" transform="translate(88.380050, 59.320670) rotate(111.161260) translate(-88.380050, -59.320670) " x="81.0535349" y="52.4331296" width="14.6530306" height="13.7750818" rx="4.4874"></rect>
                            <path d="M86.0422423,18.7410911 L88.0392585,21.4174849 C89.9114648,23.938418 89.3919395,27.5026094 86.8783914,29.3815866 L84.9382008,30.83774 C82.4253663,32.7028083 78.8809887,32.1829451 77.0069615,29.6744442 L74.9937094,26.9899156 C73.1215031,24.4689824 73.6410285,20.904791 76.1545765,19.0258139 L78.0947671,17.5777954 C80.6104374,15.7016724 84.1671878,16.2222846 86.0422423,18.7410911 Z" id="Shape" fill="#E4D73B"></path>
                            <rect id="Rectangle-path" fill="#E4D73B" transform="translate(44.353206, 7.224897) rotate(-178.030000) translate(-44.353206, -7.224897) " x="37.0064592" y="0.318337124" width="14.6934934" height="13.8131202" rx="4.5846"></rect>
                            <path d="M19.3207934,27.5186864 L17.2588335,30.1300006 C14.8921236,33.1133325 10.5657683,33.6220977 7.57411656,31.2688916 C4.59701291,28.8972303 4.08930986,24.5618241 6.43760325,21.5639137 L8.49956311,18.9525995 C10.8633368,15.9702617 15.1871405,15.46137 18.1761621,17.8137085 C21.1600598,20.180589 21.6718559,24.5199509 19.3207934,27.5186864 Z" id="Shape" fill="#E4D73B"></path>
                            <ellipse id="Oval" fill="#E4D73B" cx="47.2384309" cy="49.7351948" rx="46.7918763" ry="46.8897673"></ellipse>
                            <path d="M47.2384309,77.1824666 C25.1336913,77.1763294 6.04632539,61.6750437 1.46129857,40.0058121 C-2.47884651,58.6935473 5.28644139,77.9085273 21.0925755,88.5828384 C36.8987097,99.2571494 57.58627,99.2571494 73.3924042,88.5828384 C89.1985384,77.9085273 96.9638263,58.6935473 93.0236812,40.0058121 C88.438022,61.6780286 69.3462162,77.1801709 47.2384309,77.1824666 Z" id="Shape" fill="#230753" opacity="0.15" style="mix-blend-mode: multiply;"></path>
                            <ellipse id="Oval" fill="#E4D73B" transform="translate(30.875203, 24.866975) rotate(-22.600000) translate(-30.875203, -24.866975) " cx="30.8752027" cy="24.8669751" rx="5.52020748" ry="3.74207026"></ellipse>
                            <path d="M23.9155543,28.6901171 C22.7222153,25.8184849 25.1900728,22.0520098 29.4357618,20.2785939 C32.5774093,18.9688693 35.8002363,19.1234331 37.7485448,20.4494276 C35.9625953,18.5702575 32.277045,18.1635107 28.7051461,19.635934 C24.4594571,21.4093499 21.9915996,25.175825 23.1849386,28.0474572 C23.5052673,28.795717 24.0390326,29.4324813 24.7192316,29.8778176 C24.3809982,29.5345936 24.1085822,29.1320083 23.9155543,28.6901171 Z" id="Shape" fill="#C7B835"></path>
                            <path d="M35.9707133,22.7353444 C35.7753256,22.2716058 35.4548601,21.8715944 35.0452667,21.5801836 C35.6054054,23.4512187 33.981815,25.7696753 31.2866549,26.8922963 C29.1597514,27.7790043 26.9679043,27.6569803 25.6771499,26.7214627 C25.6771499,26.810947 25.7339756,26.9004313 25.7664474,26.9899156 C26.5782426,28.8934904 29.4844695,29.4873407 32.2608091,28.31591 C35.0371488,27.1444793 36.7581546,24.6470542 35.9707133,22.7353444 Z" id="Shape" fill="#230753" opacity="0.15" style="mix-blend-mode: multiply;"></path>
                            <ellipse id="Oval" fill="#E4D73B" transform="translate(48.407338, 12.347728) rotate(-6.310000) translate(-48.407338, -12.347728) " cx="48.4073381" cy="12.3477284" rx="3.69366824" ry="2.07440851"></ellipse>
                            <path d="M61.7533294,28.7551965 C60.8522367,28.2345607 60.6817597,26.8272169 61.2824882,25.5012224 C61.1951446,25.6190136 61.1138593,25.7411967 61.0389496,25.8672945 C60.2271544,27.315313 60.3245698,28.9585699 61.31496,29.5280154 C62.3053501,30.0974609 63.7503456,29.3897215 64.6189665,27.9010283 C64.6920281,27.7708694 64.7569717,27.6325755 64.8137974,27.5024165 C63.9532944,28.7226568 62.6544221,29.2758324 61.7533294,28.7551965 Z" id="Shape" fill="#C7B835"></path>
                            <path d="M43.3499318,13.3232242 C43.146983,11.5009987 45.6148405,9.73571771 48.8701393,9.36964562 C50.1175312,9.2166178 51.382993,9.3218321 52.5881614,9.67877317 C51.1625734,9.05294391 49.5923188,8.83338024 48.0502261,9.04424821 C44.8030452,9.40218536 42.3676596,11.1756013 42.5300186,12.9978268 C42.64367,14.0472334 43.6259422,14.8851318 45.0628197,15.3406882 C44.1821813,15.0101952 43.5344164,14.2472484 43.3499318,13.3232242 Z" id="Shape" fill="#230753" opacity="0.15" style="mix-blend-mode: multiply;"></path>
                            <path d="M52.0848483,11.9321503 C51.979315,10.9478231 50.6560888,10.2644885 48.9837906,10.2400837 C49.9011192,10.5166715 50.5343195,11.0535772 50.607381,11.712507 C50.7291503,12.8513979 49.1867394,13.9577492 47.1572514,14.1529876 C46.8869231,14.1701237 46.6157844,14.1701237 46.3454562,14.1529876 C47.0836416,14.3639382 47.8564785,14.4247881 48.6184828,14.3319562 C50.6642067,14.1773924 52.2147356,13.0710412 52.0848483,11.9321503 Z" id="Shape" fill="#230753" opacity="0.15" style="mix-blend-mode: multiply;"></path>
                            <ellipse id="Oval" fill="#E4D73B" transform="translate(10.368272, 44.302363) rotate(-58.000000) translate(-10.368272, -44.302363) " cx="10.3682724" cy="44.3023626" rx="5.42279205" ry="3.74207026"></ellipse>
                            <path d="M14.2633092,38.378825 C16.1304382,39.5502557 16.5200999,42.3974831 15.3754686,45.1877659 C16.999059,42.3812132 16.7717564,39.2329933 14.8640376,38.0452927 C13.7851469,37.4460322 12.4792628,37.4246795 11.3814361,37.9883481 C12.3554315,37.7257472 13.3938804,37.8664509 14.2633092,38.378825 Z" id="Shape" fill="#230753" opacity="0.15" style="mix-blend-mode: multiply;"></path>
                            <path d="M6.31583397,49.8897586 C3.88044832,48.3929305 3.58008409,44.5369711 5.39850538,40.9820044 C5.20367452,41.2423223 5.01696162,41.5107752 4.83836668,41.7954979 C2.48416054,45.5701079 2.6789914,49.9304332 5.26861814,51.5574203 C7.85824489,53.1844074 11.8685133,51.4353963 14.1983655,47.6607863 C14.3769605,47.3760635 14.5312016,47.0913408 14.6854427,46.7984831 C12.3150006,50.0117826 8.71062986,51.3947216 6.31583397,49.8897586 Z" id="Shape" fill="#230753" opacity="0.15" style="mix-blend-mode: multiply;"></path>
                            <path d="M13.2485651,39.6885496 C11.5032054,38.5903334 8.79180939,39.769899 7.20880871,42.3161338 C6.96785965,42.7039726 6.76140977,43.1122919 6.59184435,43.5363741 C8.21543478,41.7710931 10.3342203,41.0958934 11.8116876,41.9988713 C13.2891549,42.9018491 13.605755,45.1633611 12.7208982,47.3760635 C13.0229418,47.0373182 13.294592,46.6725454 13.5326935,46.2859822 C15.1238121,43.7397474 14.9939248,40.8193056 13.2485651,39.6885496 Z" id="Shape" fill="#230753" opacity="0.15" style="mix-blend-mode: multiply;"></path>
                            <ellipse id="Oval" fill="#E4D73B" transform="translate(23.412057, 63.963278) rotate(-58.000000) translate(-23.412057, -63.963278) " cx="23.4120566" cy="63.963278" rx="6.60801307" ry="8.1023956"></ellipse>
                            <path d="M16.5525717,64.0201412 C18.4846443,60.9207309 23.1281129,60.3268806 26.9110786,62.6941468 C28.6753773,63.7620281 30.0239792,65.4003777 30.7346341,67.3391949 C31.9036192,64.3292688 30.3530904,60.4977142 26.9273145,58.390766 C23.1443488,56.0234998 18.5008802,56.6092151 16.5688076,59.7167604 C15.6217792,61.3120997 15.4543367,63.2537014 16.1142022,64.9881985 C16.2291133,64.6522141 16.3759082,64.3280449 16.5525717,64.0201412 Z" id="Shape" fill="#230753" opacity="0.15" style="mix-blend-mode: multiply;"></path>
                            <path d="M34.7936102,64.8336348 C34.8711749,66.3929483 34.496155,67.9413757 33.7139226,69.2915793 C31.1080599,73.8146034 24.5081648,74.8965498 18.9879573,71.7320599 C16.1660576,70.1629935 14.0447593,67.5777958 13.0537343,64.5001024 C13.2160933,68.0876089 15.4891199,71.8215442 19.385737,74.0423816 C24.9140624,77.2394112 31.5058396,76.1655997 34.1117022,71.601901 C35.2691593,69.5392568 35.5162768,67.0864963 34.7936102,64.8336348 Z" id="Shape" fill="#230753" opacity="0.15" style="mix-blend-mode: multiply;"></path>
                            <path d="M30.4342699,85.0326792 C31.9198551,82.6572781 35.8651799,82.4457698 39.250366,84.560853 C41.5802182,86.0251413 43.0414496,88.205304 43.2362805,90.2064981 C43.4229934,88.0100656 41.9049363,85.4150212 39.250366,83.7473594 C35.8651799,81.6322763 31.944209,81.8356496 30.4342699,84.2191857 C29.9802563,84.9676413 29.7888199,85.8466554 29.8903671,86.7166108 C29.9349968,86.1198532 30.1214913,85.5424631 30.4342699,85.0326792 Z" id="Shape" fill="#230753" opacity="0.15" style="mix-blend-mode: multiply;"></path>
                            <path d="M40.8820743,88.335463 C40.8284411,88.668646 40.7127812,88.9887559 40.5411203,89.2791155 C39.4533148,91.0281266 36.5470879,91.1826903 34.0467586,89.6207828 C32.9168454,88.9404429 32.0151814,87.937757 31.4571319,86.7410156 C31.1405317,88.4168123 32.2689271,90.4912208 34.3308869,91.7928105 C36.8230983,93.3547181 39.7293251,93.2001543 40.8252487,91.4511432 C41.3612105,90.486986 41.3825202,89.318602 40.8820743,88.335463 Z" id="Shape" fill="#230753" opacity="0.15" style="mix-blend-mode: multiply;"></path>
                            <ellipse id="Oval" fill="#E4D73B" transform="translate(65.991390, 68.109790) rotate(-58.000000) translate(-65.991390, -68.109790) " cx="65.9913897" cy="68.1097899" rx="10.8131123" ry="12.1373235"></ellipse>
                            <path d="M58.8876923,68.0306644 C62.0536936,62.9544647 69.2137274,61.7179545 74.888176,65.2729213 C75.8892775,65.8982205 76.8036728,66.6531492 77.60769,67.5181634 C76.9716114,63.9391906 74.8306901,60.8070248 71.7302926,58.9195368 C66.0477261,55.372705 58.8958102,56.6010802 55.7298089,61.6772799 C53.1401821,65.8342318 54.0331569,71.2683686 57.5482302,75.0511136 C57.1239022,72.6255678 57.6003726,70.1282696 58.8876923,68.0306644 Z" id="Shape" fill="#230753" opacity="0.15" style="mix-blend-mode: multiply;"></path>
                            <path d="M80.838635,66.1108196 C80.8675498,69.1774181 80.0226815,72.1886194 78.4032493,74.7907956 C73.8166063,82.1122374 64.3997818,84.552718 57.3696352,80.1354481 C54.0105041,78.0243144 51.6517419,74.6358594 50.8346837,70.7477328 C50.8159947,75.8608359 53.4186034,80.6253718 57.7268251,83.3650175 C64.7569717,87.7660175 74.1737962,85.3743465 78.7685572,78.020365 C80.9868838,74.4747994 81.7300585,70.1991757 80.838635,66.1108196 Z" id="Shape" fill="#230753" opacity="0.15" style="mix-blend-mode: multiply;"></path>
                            <ellipse id="Oval" fill="#E4D73B" transform="translate(34.745368, 43.691493) rotate(-70.860000) translate(-34.745368, -43.691493) " cx="34.745368" cy="43.6914934" rx="1.81030334" ry="2.63571905"></ellipse>
                            <path d="M37.8540782,43.0157382 C38.1396191,43.5089613 38.2016351,44.1008254 38.0245552,44.6427253 C37.5780678,45.928045 35.7109388,46.440546 33.8519278,45.7897511 C33.0639411,45.5277282 32.3622418,45.0551999 31.8224397,44.423082 C32.3559757,45.3345922 33.2100693,46.0134939 34.2172356,46.3266569 C36.0762467,46.9774517 37.9514936,46.4568158 38.389863,45.179631 C38.6099397,44.4142134 38.4056855,43.5892848 37.8540782,43.0157382 Z" id="Shape" fill="#230753" opacity="0.15" style="mix-blend-mode: multiply;"></path>
                            <path d="M32.9102453,43.5038343 C33.2349634,42.5601818 34.6150153,42.1778399 35.9869492,42.6903408 C36.342765,42.8133301 36.6770003,42.9917788 36.9773393,43.2191116 C36.5776239,42.6550359 36.0089055,42.2333039 35.3537489,42.0151411 C33.981815,41.53518 32.6017631,41.9175219 32.277045,42.8286347 C32.1019005,43.6357455 32.4615415,44.4646501 33.1700198,44.8867733 C32.8681371,44.4937592 32.7716204,43.979941 32.9102453,43.5038343 Z" id="Shape" fill="#230753" opacity="0.15" style="mix-blend-mode: multiply;"></path>
                            <path d="M58.0434252,41.282997 C57.173075,40.9394873 56.1820956,41.1509114 55.5268601,41.8199027 C55.9704403,41.7448992 56.4257657,41.7840887 56.8500863,41.9337918 C57.9961921,42.2296074 58.6936191,43.3920033 58.416851,44.545106 C58.3483916,44.7418119 58.243759,44.9239224 58.1083689,45.0820118 C58.7873064,44.9893557 59.3624589,44.534502 59.61019,43.8943112 C59.8869581,42.7412085 59.1895311,41.5788126 58.0434252,41.282997 Z" id="Shape" fill="#230753" opacity="0.15" style="mix-blend-mode: multiply;"></path>
                            <path d="M57.3533993,45.7897511 C54.861188,45.1064166 53.2944232,42.8611744 53.8789158,40.778631 C53.9815443,40.4205812 54.143449,40.0823451 54.357875,39.7780339 C53.672083,40.2343626 53.1712267,40.920875 52.9453513,41.7141485 C52.3689767,43.796692 53.9276235,46.0419341 56.4198348,46.7252687 C58.2523966,47.3214067 60.2617257,46.7150772 61.4610831,45.2040358 C60.241863,45.9882021 58.7425043,46.2019959 57.3533993,45.7897511 Z" id="Shape" fill="#230753" opacity="0.15" style="mix-blend-mode: multiply;"></path>
                            <path d="M82.36481,44.8867733 C82.385812,45.2870581 82.2586186,45.681024 82.0076201,45.9931245 C81.5868354,46.6299833 80.7341393,46.8110172 80.0917834,46.3998713 C79.9907872,46.318438 79.9054995,46.2191869 79.8401268,46.1070136 C79.8558386,46.4231563 80.0030654,46.7182258 80.2460244,46.9205072 C80.8883804,47.331653 81.7410765,47.1506191 82.1618612,46.5137604 C82.5462722,46.0600908 82.6259536,45.421306 82.36481,44.8867733 Z" id="Shape" fill="#230753" opacity="0.15" style="mix-blend-mode: multiply;"></path>
                            <path d="M62.1348731,25.6069766 C62.7779569,25.1201065 63.6917713,25.239549 64.188715,25.8754294 C64.3797811,26.1881274 64.4214621,26.5700083 64.3023664,26.9167012 C64.6803019,26.4858964 64.7454069,25.8628426 64.4647254,25.3629285 C63.9677817,24.7270481 63.0539672,24.6076056 62.4108835,25.0944756 C62.0634398,25.3123176 61.8045086,25.6467492 61.6802678,26.0381281 C61.8057952,25.86916 61.9596085,25.7232822 62.1348731,25.6069766 Z" id="Shape" fill="#230753" opacity="0.15" style="mix-blend-mode: multiply;"></path>
                            <path d="M81.9995021,31.6512335 C81.6920236,30.8990178 80.8368467,30.5358966 80.0836654,30.83774 C79.7447541,30.9421852 79.4449661,31.1462409 79.2231625,31.4234553 C79.3788936,31.3102317 79.5514986,31.2223759 79.7345935,31.1631374 C80.4877748,30.861294 81.3429516,31.2244152 81.6504302,31.9766309 C81.7615863,32.3848765 81.660974,32.8217752 81.3825378,33.1399267 C81.8915008,32.8327791 82.1415908,32.2293289 81.9995021,31.6512335 Z" id="Shape" fill="#230753" opacity="0.15" style="mix-blend-mode: multiply;"></path>
                            <path d="M63.6610481,16.7236272 C63.855879,15.7799747 65.3982899,15.3000135 67.1030599,15.6498157 C67.5384053,15.7378543 67.9610948,15.8799565 68.3613425,16.0728323 C67.726463,15.3999885 66.8926202,14.9493988 65.9827825,14.7875126 C64.2698946,14.4377103 62.7356016,14.9176715 62.5407707,15.861324 C62.4027656,16.5527935 63.0278479,17.2930726 64.0425919,17.7811688 C63.7631787,17.5040894 63.6230546,17.1157014 63.6610481,16.7236272 Z" id="Shape" fill="#230753" opacity="0.15" style="mix-blend-mode: multiply;"></path>
                            <path d="M8.15049116,69.0312614 C6.87597267,66.3548677 4.90331029,64.6221265 3.73432518,65.1915719 C3.58684817,65.2813267 3.46187577,65.4037776 3.36901733,65.5495091 C4.14022279,65.8179619 5.70698756,67.3391949 6.83538291,69.714596 C7.63924407,71.3352836 7.89838818,73.1730632 7.57411656,74.9534943 C7.84065243,75.049852 8.13537149,75.0291785 8.38591178,74.8965498 C9.51430713,74.3352393 9.42500966,71.7320599 8.15049116,69.0312614 Z" id="Shape" fill="#230753" opacity="0.15" style="mix-blend-mode: multiply;"></path>
                            <ellipse id="Oval" fill="#E4D73B" transform="translate(5.625332, 70.238057) rotate(-25.530000) translate(-5.625332, -70.238057) " cx="5.62533177" cy="70.2380566" rx="1.31510825" ry="5.20635862"></ellipse>
                            <path d="M6.81102905,69.6657864 C6.68925977,69.4136034 6.56749049,69.1776902 6.43760325,68.9336422 C7.41175752,71.219559 7.74459355,73.1719435 7.160101,73.4485313 C6.57560844,73.7251191 5.26861814,72.2445609 4.10775098,70.0481283 C4.21328436,70.2921764 4.31881774,70.5443594 4.44058702,70.7965424 C5.67451575,73.3915868 7.20880871,75.2382171 7.85824489,74.9290895 C8.50768106,74.619962 8.04495779,72.2608307 6.81102905,69.6657864 Z" id="Shape" fill="#230753" opacity="0.15" style="mix-blend-mode: multiply;"></path>
                            <path d="M81.2770044,33.7988564 C80.1270382,34.264904 78.8169171,33.7172737 78.3383057,32.5704812 C78.1544713,31.9564857 78.281792,31.2912101 78.6792597,30.7889304 C77.9567459,31.2971873 77.631646,32.2061136 77.8674645,33.0585773 C78.3365922,34.2193649 79.6553242,34.7799974 80.8142811,34.3113574 C81.3401835,34.1420487 81.8000379,33.8120814 82.1293894,33.3677049 C81.8723262,33.5598113 81.5839085,33.7056981 81.2770044,33.7988564 Z" id="Shape" fill="#230753" opacity="0.15" style="mix-blend-mode: multiply;"></path>
                        </g>
                        <g id="play-button" transform="translate(57.000000, 53.000000)" fill="#030337">
                            <path d="M31.068,20.176 L2.068,0.176 C1.761,-0.035 1.363,-0.057 1.035,0.114 C0.706,0.287 0.5,0.627 0.5,0.999 L0.5,40.999 C0.5,41.371 0.706,41.712 1.035,41.885 C1.181,41.961 1.341,41.999 1.5,41.999 C1.699,41.999 1.897,41.939 2.068,41.822 L31.068,21.822 C31.339,21.635 31.5,21.328 31.5,20.999 C31.5,20.67 31.338,20.363 31.068,20.176 Z" id="Shape"></path>
                        </g>
                    </g>
                </g>
            </g>
        </g>
    </g>
</svg>