<?xml version="1.0" encoding="UTF-8"?>
<svg width="49px" height="49px" viewBox="0 0 49 49" version="1.1" xmlns="http://www.w3.org/2000/svg" xmlns:xlink="http://www.w3.org/1999/xlink">
    <!-- Generator: Sketch 51.3 (57544) - http://www.bohemiancoding.com/sketch -->
    <title>question-mark</title>
    <desc>Created with Sketch.</desc>
    <defs></defs>
    <g id="Page-1" stroke="none" stroke-width="1" fill="none" fill-rule="evenodd">
        <g id="aff_des_casino_item" transform="translate(-404.000000, -1362.000000)" fill-rule="nonzero">
            <g id="faq_block" transform="translate(394.000000, 1352.000000)">
                <g id="faq_item1" transform="translate(1.000000, 0.000000)">
                    <g id="question-mark">
                        <g id="space-03" transform="translate(34.516385, 34.516385) rotate(-50.000000) translate(-34.516385, -34.516385) translate(10.016385, 10.016385)">
                            <path d="M18.9513929,41.8045328 L20.8591117,42.0404459 C22.344684,42.2267158 23.4006119,43.5812038 23.2214358,45.0707093 L23.0428408,46.5309302 C22.8569598,48.0196104 21.5052996,49.0777473 20.0189037,48.8981964 L18.1111849,48.6622833 C16.6238304,48.4760619 15.5672701,47.1189435 15.7488608,45.6279524 L15.9274558,44.1677315 C16.1153653,42.6806952 17.4663949,41.6248693 18.9513929,41.8045328 Z" id="Shape" fill="#C2C2C2"></path>
                            <rect id="Rectangle-path" fill="#C2C2C2" transform="translate(44.190025, 29.660335) rotate(111.161260) translate(-44.190025, -29.660335) " x="40.5267674" y="26.2165648" width="7.32651531" height="6.88754088" rx="2.2437"></rect>
                            <path d="M43.0211212,9.37054557 L44.0196293,10.7087424 C44.9557324,11.969209 44.6959697,13.7513047 43.4391957,14.6907933 L42.4691004,15.41887 C41.2126832,16.3514041 39.4404944,16.0914725 38.5034808,14.8372221 L37.4968547,13.4949578 C36.5607516,12.2344912 36.8205142,10.4523955 38.0772883,9.51290694 L39.0473836,8.78889769 C40.3052187,7.85083618 42.0835939,8.11114229 43.0211212,9.37054557 Z" id="Shape" fill="#D6D6D6"></path>
                            <rect id="Rectangle-path" fill="#D6D6D6" transform="translate(22.176603, 3.612449) rotate(-178.030000) translate(-22.176603, -3.612449) " x="18.5032296" y="0.159168562" width="7.34674672" height="6.9065601" rx="2.2923"></rect>
                            <path d="M9.66039668,13.7593432 L8.62941675,15.0650003 C7.44606178,16.5566663 5.28288416,16.8110489 3.78705828,15.6344458 C2.29850645,14.4486152 2.04465493,12.2809121 3.21880163,10.7819568 L4.24978155,9.47629973 C5.4316684,7.98513087 7.59357027,7.73068502 9.08808105,8.90685425 C10.5800299,10.0902945 10.8359279,12.2599754 9.66039668,13.7593432 Z" id="Shape" fill="#D6D6D6"></path>
                            <ellipse id="Oval" fill="#F6F6F6" cx="23.6192154" cy="24.8675974" rx="23.3959382" ry="23.4448837"></ellipse>
                            <path d="M23.6192154,38.5912333 C12.5668457,38.5881647 3.0231627,30.8375219 0.730649285,20.0029061 C-1.23942326,29.3467737 2.64322069,38.9542637 10.5462878,44.2914192 C18.4493549,49.6285747 28.793135,49.6285747 36.6962021,44.2914192 C44.5992692,38.9542637 48.4819131,29.3467737 46.5118406,20.0029061 C44.219011,30.8390143 34.6731081,38.5900855 23.6192154,38.5912333 Z" id="Shape" fill="#230753" opacity="0.15" style="mix-blend-mode: multiply;"></path>
                            <ellipse id="Oval" fill="#E3E3E3" transform="translate(15.437601, 12.433488) rotate(-22.600000) translate(-15.437601, -12.433488) " cx="15.4376014" cy="12.4334876" rx="2.76010374" ry="1.87103513"></ellipse>
                            <path d="M11.9577771,14.3450585 C11.3611077,12.9092424 12.5950364,11.0260049 14.7178809,10.139297 C16.2887046,9.48443466 17.9001181,9.56171655 18.8742724,10.2247138 C17.9812977,9.28512875 16.1385225,9.08175536 14.352573,9.81796701 C12.2297285,10.704675 10.9957998,12.5879125 11.5924693,14.0237286 C11.7526336,14.3978585 12.0195163,14.7162406 12.3596158,14.9389088 C12.1904991,14.7672968 12.0542911,14.5660042 11.9577771,14.3450585 Z" id="Shape" fill="#E3E3E3"></path>
                            <path d="M17.9853566,11.3676722 C17.8876628,11.1358029 17.7274301,10.9357972 17.5226334,10.7900918 C17.8027027,11.7256093 16.9909075,12.8848376 15.6433274,13.4461482 C14.5798757,13.8895021 13.4839522,13.8284901 12.838575,13.3607314 C12.838575,13.4054735 12.8669878,13.4502156 12.8832237,13.4949578 C13.2891213,14.4467452 14.7422347,14.7436704 16.1304046,14.157955 C17.5185744,13.5722397 18.3790773,12.3235271 17.9853566,11.3676722 Z" id="Shape" fill="#230753" opacity="0.15" style="mix-blend-mode: multiply;"></path>
                            <ellipse id="Oval" fill="#E3E3E3" transform="translate(24.203669, 6.173864) rotate(-6.310000) translate(-24.203669, -6.173864) " cx="24.203669" cy="6.1738642" rx="1.84683412" ry="1.03720426"></ellipse>
                            <path d="M30.8766647,14.3775983 C30.4261183,14.1172803 30.3408799,13.4136084 30.6412441,12.7506112 C30.5975723,12.8095068 30.5569296,12.8705983 30.5194748,12.9336472 C30.1135772,13.6576565 30.1622849,14.479285 30.65748,14.7640077 C31.1526751,15.0487304 31.8751728,14.6948607 32.3094833,13.9505142 C32.346014,13.8854347 32.3784858,13.8162877 32.4068987,13.7512082 C31.9766472,14.3613284 31.327211,14.6379162 30.8766647,14.3775983 Z" id="Shape" fill="#E3E3E3"></path>
                            <path d="M21.6749659,6.6616121 C21.5734915,5.75049934 22.8074202,4.86785886 24.4350696,4.68482281 C25.0587656,4.6083089 25.6914965,4.66091605 26.2940807,4.83938658 C25.5812867,4.52647196 24.7961594,4.41669012 24.0251131,4.5221241 C22.4015226,4.70109268 21.1838298,5.58780063 21.2650093,6.49891339 C21.321835,7.02361672 21.8129711,7.44256589 22.5314099,7.67034408 C22.0910907,7.50509762 21.7672082,7.12362419 21.6749659,6.6616121 Z" id="Shape" fill="#230753" opacity="0.15" style="mix-blend-mode: multiply;"></path>
                            <path d="M26.0424242,5.96607513 C25.9896575,5.47391154 25.3280444,5.13224425 24.4918953,5.12004185 C24.9505596,5.25833575 25.2671597,5.52678862 25.3036905,5.8562535 C25.3645752,6.42569897 24.5933697,6.97887458 23.5786257,7.0764938 C23.4434616,7.08506183 23.3078922,7.08506183 23.1727281,7.0764938 C23.5418208,7.18196908 23.9282392,7.21239404 24.3092414,7.16597809 C25.3321034,7.0886962 26.1073678,6.5355206 26.0424242,5.96607513 Z" id="Shape" fill="#230753" opacity="0.15" style="mix-blend-mode: multiply;"></path>
                            <ellipse id="Oval" fill="#E3E3E3" transform="translate(5.184136, 22.151181) rotate(-58.000000) translate(-5.184136, -22.151181) " cx="5.18413619" cy="22.1511813" rx="2.71139603" ry="1.87103513"></ellipse>
                            <path d="M7.13165458,19.1894125 C8.06521908,19.7751279 8.26004993,21.1987416 7.6877343,22.593883 C8.49952952,21.1906066 8.38587819,19.6164966 7.43201881,19.0226463 C6.89257344,18.7230161 6.23963139,18.7123398 5.69071807,18.9941741 C6.17771575,18.8628736 6.6969402,18.9332255 7.13165458,19.1894125 Z" id="Shape" fill="#230753" opacity="0.15" style="mix-blend-mode: multiply;"></path>
                            <path d="M3.15791699,24.9448793 C1.94022416,24.1964652 1.79004204,22.2684855 2.69925269,20.4910022 C2.60183726,20.6211611 2.50848081,20.7553876 2.41918334,20.8977489 C1.24208027,22.7850539 1.3394957,24.9652166 2.63430907,25.7787101 C3.92912244,26.5922037 5.93425663,25.7176981 7.09918277,23.8303931 C7.18848024,23.6880318 7.26560079,23.5456704 7.34272133,23.3992416 C6.15750032,25.0058913 4.35531493,25.6973608 3.15791699,24.9448793 Z" id="Shape" fill="#230753" opacity="0.15" style="mix-blend-mode: multiply;"></path>
                            <path d="M6.62428257,19.8442748 C5.75160271,19.2951667 4.39590469,19.8849495 3.60440436,21.1580669 C3.48392982,21.3519863 3.38070489,21.5561459 3.29592217,21.768187 C4.10771739,20.8855465 5.16711015,20.5479467 5.9058438,20.9994356 C6.64457745,21.4509245 6.80287751,22.5816806 6.36044912,23.6880318 C6.5114709,23.5186591 6.64729602,23.3362727 6.76634673,23.1429911 C7.56190604,21.8698737 7.49696242,20.4096528 6.62428257,19.8442748 Z" id="Shape" fill="#230753" opacity="0.15" style="mix-blend-mode: multiply;"></path>
                            <ellipse id="Oval" fill="#E3E3E3" transform="translate(11.706028, 31.981639) rotate(-58.000000) translate(-11.706028, -31.981639) " cx="11.7060283" cy="31.981639" rx="3.30400654" ry="4.0511978"></ellipse>
                            <path d="M8.27628583,32.0100706 C9.24232214,30.4603654 11.5640565,30.1634403 13.4555393,31.3470734 C14.3376886,31.881014 15.0119896,32.7001888 15.3673171,33.6695974 C15.9518096,32.1646344 15.1765452,30.2488571 13.4636573,29.195383 C11.5721744,28.0117499 9.25044009,28.3046076 8.28440379,29.8583802 C7.81088959,30.6560499 7.72716837,31.6268507 8.05710112,32.4940993 C8.11455664,32.326107 8.18795408,32.1640225 8.27628583,32.0100706 Z" id="Shape" fill="#230753" opacity="0.15" style="mix-blend-mode: multiply;"></path>
                            <path d="M17.3968051,32.4168174 C17.4355875,33.1964742 17.2480775,33.9706879 16.8569613,34.6457897 C15.55403,36.9073017 12.2540824,37.4482749 9.49397866,35.86603 C8.08302882,35.0814967 7.02237964,33.7888979 6.52686714,32.2500512 C6.60804666,34.0438045 7.74455997,35.9107721 9.69286849,37.0211908 C12.4570312,38.6197056 15.7529198,38.0827999 17.0558511,35.8009505 C17.6345797,34.7696284 17.7581384,33.5432481 17.3968051,32.4168174 Z" id="Shape" fill="#230753" opacity="0.15" style="mix-blend-mode: multiply;"></path>
                            <path d="M15.2171349,42.5163396 C15.9599276,41.3286391 17.9325899,41.2228849 19.625183,42.2804265 C20.7901091,43.0125707 21.5207248,44.102652 21.6181402,45.103249 C21.7114967,44.0050328 20.9524682,42.7075106 19.625183,41.8736797 C17.9325899,40.8161381 15.9721045,40.9178248 15.2171349,42.1095928 C14.9901282,42.4838207 14.8944099,42.9233277 14.9451835,43.3583054 C14.9674984,43.0599266 15.0607457,42.7712316 15.2171349,42.5163396 Z" id="Shape" fill="#230753" opacity="0.15" style="mix-blend-mode: multiply;"></path>
                            <path d="M20.4410372,44.1677315 C20.4142205,44.334323 20.3563906,44.494378 20.2705602,44.6395577 C19.7266574,45.5140633 18.2735439,45.5913452 17.0233793,44.8103914 C16.4584227,44.4702215 16.0075907,43.9688785 15.7285659,43.3705078 C15.5702659,44.2084062 16.1344635,45.2456104 17.1654435,45.8964052 C18.4115491,46.677359 19.8646626,46.6000772 20.4126243,45.7255716 C20.6806052,45.243493 20.6912601,44.659301 20.4410372,44.1677315 Z" id="Shape" fill="#230753" opacity="0.15" style="mix-blend-mode: multiply;"></path>
                            <ellipse id="Oval" fill="#E3E3E3" transform="translate(32.995695, 34.054895) rotate(-58.000000) translate(-32.995695, -34.054895) " cx="32.9956949" cy="34.054895" rx="5.40655615" ry="6.06866176"></ellipse>
                            <path d="M29.4438461,34.0153322 C31.0268468,31.4772324 34.6068637,30.8589773 37.444088,32.6364606 C37.9446387,32.9491103 38.4018364,33.3265746 38.803845,33.7590817 C38.4858057,31.9695953 37.415345,30.4035124 35.8651463,29.4597684 C33.023863,27.6863525 29.4479051,28.3005401 27.8649044,30.8386399 C26.5700911,32.9171159 27.0165784,35.6341843 28.7741151,37.5255568 C28.5619511,36.3127839 28.8001863,35.0641348 29.4438461,34.0153322 Z" id="Shape" fill="#230753" opacity="0.15" style="mix-blend-mode: multiply;"></path>
                            <path d="M40.4193175,33.0554098 C40.4337749,34.5887091 40.0113407,36.0943097 39.2016247,37.3953978 C36.9083032,41.0561187 32.1998909,42.276359 28.6848176,40.0677241 C27.0052521,39.0121572 25.825871,37.3179297 25.4173419,35.3738664 C25.4079973,37.9304179 26.7093017,40.3126859 28.8634126,41.6825087 C32.3784858,43.8830087 37.0868981,42.6871733 39.3842786,39.0101825 C40.4934419,37.2373997 40.8650293,35.0995878 40.4193175,33.0554098 Z" id="Shape" fill="#230753" opacity="0.15" style="mix-blend-mode: multiply;"></path>
                            <ellipse id="Oval" fill="#E3E3E3" transform="translate(17.372684, 21.845747) rotate(-70.860000) translate(-17.372684, -21.845747) " cx="17.372684" cy="21.8457467" rx="1" ry="1.31785953"></ellipse>
                            <path d="M18.9270391,21.5078691 C19.0698096,21.7544806 19.1008176,22.0504127 19.0122776,22.3213626 C18.7890339,22.9640225 17.8554694,23.220273 16.9259639,22.8948756 C16.5319705,22.7638641 16.1811209,22.5275999 15.9112199,22.211541 C16.1779879,22.6672961 16.6050346,23.006747 17.1086178,23.1633284 C18.0381233,23.4887259 18.9757468,23.2284079 19.1949315,22.5898155 C19.3049699,22.2071067 19.2028428,21.7946424 18.9270391,21.5078691 Z" id="Shape" fill="#230753" opacity="0.15" style="mix-blend-mode: multiply;"></path>
                            <path d="M16.4551227,21.7519172 C16.6174817,21.2800909 17.3075076,21.0889199 17.9934746,21.3451704 C18.1713825,21.4066651 18.3385001,21.4958894 18.4886697,21.6095558 C18.2888119,21.327518 18.0044528,21.1166519 17.6768745,21.0075706 C16.9909075,20.76759 16.3008816,20.958761 16.1385225,21.4143173 C16.0509503,21.8178727 16.2307707,22.232325 16.5850099,22.4433867 C16.4340686,22.2468796 16.3858102,21.9899705 16.4551227,21.7519172 Z" id="Shape" fill="#230753" opacity="0.15" style="mix-blend-mode: multiply;"></path>
                            <path d="M29.0217126,20.6414985 C28.5865375,20.4697436 28.0910478,20.5754557 27.76343,20.9099513 C27.9852202,20.8724496 28.2128828,20.8920444 28.4250431,20.9668959 C28.9980961,21.1148037 29.3468095,21.6960017 29.2084255,22.272553 C29.1741958,22.3709059 29.1218795,22.4619612 29.0541844,22.5410059 C29.3936532,22.4946779 29.6812294,22.267251 29.805095,21.9471556 C29.943479,21.3706042 29.5947655,20.7894063 29.0217126,20.6414985 Z" id="Shape" fill="#230753" opacity="0.15" style="mix-blend-mode: multiply;"></path>
                            <path d="M28.6766997,22.8948756 C27.430594,22.5532083 26.6472116,21.4305872 26.9394579,20.3893155 C26.9907722,20.2102906 27.0717245,20.0411725 27.1789375,19.889017 C26.8360415,20.1171813 26.5856134,20.4604375 26.4726756,20.8570743 C26.1844883,21.898346 26.9638117,23.0209671 28.2099174,23.3626344 C29.1261983,23.6607034 30.1308628,23.3575386 30.7305416,22.6020179 C30.1209315,22.9941011 29.3712522,23.100998 28.6766997,22.8948756 Z" id="Shape" fill="#230753" opacity="0.15" style="mix-blend-mode: multiply;"></path>
                            <path d="M41.182405,22.4433867 C41.192906,22.6435291 41.1293093,22.840512 41.00381,22.9965623 C40.7934177,23.3149916 40.3670697,23.4055086 40.0458917,23.1999356 C39.9953936,23.159219 39.9527497,23.1095935 39.9200634,23.0535068 C39.9279193,23.2115781 40.0015327,23.3591129 40.1230122,23.4602536 C40.4441902,23.6658265 40.8705383,23.5753096 41.0809306,23.2568802 C41.2731361,23.0300454 41.3129768,22.710653 41.182405,22.4433867 Z" id="Shape" fill="#230753" opacity="0.15" style="mix-blend-mode: multiply;"></path>
                            <path d="M31.0674366,12.8034883 C31.3889784,12.5600532 31.8458857,12.6197745 32.0943575,12.9377147 C32.1898905,13.0940637 32.2107311,13.2850042 32.1511832,13.4583506 C32.3401509,13.2429482 32.3727034,12.9314213 32.2323627,12.6814643 C31.9838908,12.3635241 31.5269836,12.3038028 31.2054418,12.5472378 C31.0317199,12.6561588 30.9022543,12.8233746 30.8401339,13.0190641 C30.9028976,12.93458 30.9798043,12.8616411 31.0674366,12.8034883 Z" id="Shape" fill="#230753" opacity="0.15" style="mix-blend-mode: multiply;"></path>
                            <path d="M40.9997511,15.8256168 C40.8460118,15.4495089 40.4184234,15.2679483 40.0418327,15.41887 C39.8723771,15.4710926 39.722483,15.5731204 39.6115812,15.7117277 C39.6894468,15.6551159 39.7757493,15.611188 39.8672967,15.5815687 C40.2438874,15.430647 40.6714758,15.6122076 40.8252151,15.9883155 C40.8807931,16.1924382 40.830487,16.4108876 40.6912689,16.5699633 C40.9457504,16.4163896 41.0707954,16.1146645 40.9997511,15.8256168 Z" id="Shape" fill="#230753" opacity="0.15" style="mix-blend-mode: multiply;"></path>
                            <path d="M31.8305241,8.36181359 C31.9279395,7.88998734 32.699145,7.65000674 33.5515299,7.82490785 C33.7692027,7.86892717 33.9805474,7.93997824 34.1806712,8.03641617 C33.8632315,7.69999424 33.4463101,7.4746994 32.9913912,7.39375628 C32.1349473,7.21885517 31.3678008,7.45883576 31.2703854,7.93066201 C31.2013828,8.27639676 31.5139239,8.64653632 32.021296,8.89058438 C31.8815893,8.75204469 31.8115273,8.55785069 31.8305241,8.36181359 Z" id="Shape" fill="#230753" opacity="0.15" style="mix-blend-mode: multiply;"></path>
                            <path d="M4.07524558,34.5156307 C3.43798634,33.1774338 2.45165515,32.3110632 1.86716259,32.595786 C1.79342409,32.6406633 1.73093789,32.7018888 1.68450867,32.7747545 C2.07011139,32.908981 2.85349378,33.6695974 3.41769146,34.857298 C3.81962203,35.6676418 3.94919409,36.5865316 3.78705828,37.4767472 C3.92032622,37.524926 4.06768575,37.5145893 4.19295589,37.4482749 C4.75715356,37.1676196 4.71250483,35.86603 4.07524558,34.5156307 Z" id="Shape" fill="#230753" opacity="0.15" style="mix-blend-mode: multiply;"></path>
                            <ellipse id="Oval" fill="#C2C2C2" transform="translate(2.812666, 35.119028) rotate(-25.530000) translate(-2.812666, -35.119028) " cx="2.81266589" cy="35.1190283" rx="1" ry="2.60317931"></ellipse>
                            <path d="M3.40551453,34.8328932 C3.34462989,34.7068017 3.28374524,34.5888451 3.21880163,34.4668211 C3.70587876,35.6097795 3.87229678,36.5859717 3.5800505,36.7242656 C3.28780422,36.8625596 2.63430907,36.1222804 2.05387549,35.0240642 C2.10664218,35.1460882 2.15940887,35.2721797 2.22029351,35.3982712 C2.83725787,36.6957934 3.60440436,37.6191085 3.92912244,37.4645448 C4.25384053,37.309981 4.02247889,36.1304154 3.40551453,34.8328932 Z" id="Shape" fill="#230753" opacity="0.15" style="mix-blend-mode: multiply;"></path>
                            <path d="M40.6385022,16.8994282 C40.0635191,17.132452 39.4084586,16.8586369 39.1691528,16.2852406 C39.0772356,15.9782428 39.140896,15.645605 39.3396298,15.3944652 C38.978373,15.6485936 38.815823,16.1030568 38.9337322,16.5292887 C39.1682961,17.1096825 39.8276621,17.3899987 40.4071405,17.1556787 C40.6700918,17.0710243 40.9000189,16.9060407 41.0646947,16.6838524 C40.9361631,16.7799057 40.7919542,16.8528491 40.6385022,16.8994282 Z" id="Shape" fill="#230753" opacity="0.15" style="mix-blend-mode: multiply;"></path>
                        </g>
                        <g transform="translate(24.000000, 19.000000)" fill="#040437" id="Shape">
                            <path d="M10.0689106,0 C15.5771073,0 21,2.46948147 21,8.37626762 C21,13.8233625 14.5879879,15.9181708 13.2109387,17.8864405 C12.1771363,19.3505326 12.5224141,21.4077747 9.68199631,21.4077747 C7.83171343,21.4077747 6.92789797,19.942694 6.92789797,18.6021749 C6.92789797,13.6137828 14.4569854,12.4848205 14.4569854,8.3772562 C14.4569854,6.11636584 12.9113594,4.77584667 10.3278689,4.77584667 C4.81967225,4.77584667 6.97054994,10.3040054 2.79878151,10.3040054 C1.29276092,10.3040054 1.60486007e-07,9.42416608 1.60486007e-07,7.74950571 C-0.0010153625,3.64095287 4.81764121,0 10.0689106,0 Z M9.85463522,24.1273678 C11.788191,24.1273678 13.3835776,25.6754895 13.3835776,27.5636839 C13.3835776,29.4518783 11.7912376,31 9.85463522,31 C7.91803289,31 6.32467732,29.4538555 6.32467732,27.5636839 C6.32467732,25.6764781 7.91803289,24.1273678 9.85463522,24.1273678 Z"></path>
                        </g>
                    </g>
                </g>
            </g>
        </g>
    </g>
</svg>