<svg xmlns="http://www.w3.org/2000/svg" xmlns:xlink="http://www.w3.org/1999/xlink" width="40" height="40" viewBox="0 0 40 40"><defs><path id="ma38a" d="M904.75 1896.37a1.2 1.2 0 0 1 1.6.5l2.2 4.09a.78.78 0 0 0 1.47-.37v-5.97a.78.78 0 0 0-1.56 0v2.88l-.74-1.37a2.75 2.75 0 0 0-3.67-1.15 2.75 2.75 0 0 0-1.44 3.11l1.43 5.93a10.7 10.7 0 0 0 1.77 3.82l2.8 3.84a.78.78 0 1 0 1.26-.93l-2.8-3.83a9.14 9.14 0 0 1-1.51-3.27l-1.43-5.93a1.2 1.2 0 0 1 .62-1.35z"/><path id="ma38b" d="M922.4 1893.04c-.47 0-.9.12-1.28.33a2.66 2.66 0 0 0-3.83-1.35 2.66 2.66 0 0 0-3.51-1.32v-3.73a2.66 2.66 0 0 0-5.32 0v1.35a.78.78 0 0 0 1.56 0v-1.35a1.1 1.1 0 0 1 2.2 0v11.02a.78.78 0 0 0 1.56 0v-4.86a1.1 1.1 0 0 1 2.2 0v4.86a.78.78 0 0 0 1.56 0v-3.67a1.1 1.1 0 0 1 2.2 0v3.67a.78.78 0 0 0 1.55 0v-2.29a1.1 1.1 0 0 1 2.2 0v6.6c0 1.75-.27 3.49-.8 5.17l-1.1 3.51a.78.78 0 0 0 1.5.47l1.1-3.52c.57-1.82.86-3.72.86-5.64v-6.59c0-1.47-1.2-2.66-2.66-2.66z"/><path id="ma38c" d="M929.69 1878.15c-.31.3-.46.74-.38 1.17l.34 2.01-1.8-.95c-.4-.2-.85-.2-1.23 0l-1.81.95.34-2.01c.08-.43-.07-.86-.38-1.17l-1.46-1.43 2.02-.29c.43-.06.8-.33 1-.72l.9-1.84.9 1.84c.2.39.57.66 1 .72l2.02.3zm3.24-2a1.3 1.3 0 0 0-1.06-.9l-2.4-.35-1.06-2.17a1.3 1.3 0 0 0-1.18-.73c-.5 0-.96.28-1.18.73l-1.07 2.17-2.4.35c-.5.07-.9.42-1.05.9-.16.48-.03 1 .33 1.34l1.73 1.7-.4 2.37a1.3 1.3 0 0 0 1.29 1.54c.2 0 .42-.05.61-.15l2.14-1.12 2.14 1.12c.45.23.98.2 1.39-.1.4-.3.6-.79.52-1.29l-.41-2.38 1.73-1.69c.36-.35.49-.87.33-1.35z"/><path id="ma38d" d="M915.46 1878.15c-.31.3-.46.74-.38 1.17l.34 2.01-1.8-.95c-.4-.2-.85-.2-1.23 0l-1.81.95.34-2.01c.08-.43-.07-.86-.38-1.17l-1.46-1.43 2.02-.29c.43-.06.8-.33 1-.72l.9-1.84.9 1.84c.2.39.57.66 1 .72l2.02.3zm3.24-2a1.3 1.3 0 0 0-1.06-.9l-2.4-.35-1.06-2.17a1.3 1.3 0 0 0-1.18-.73c-.5 0-.96.28-1.18.73l-1.07 2.17-2.4.35c-.5.07-.9.42-1.05.9-.16.48-.03 1 .33 1.34l1.73 1.7-.4 2.37a1.3 1.3 0 0 0 1.29 1.54c.2 0 .42-.05.61-.15l2.14-1.12 2.14 1.12c.45.23.98.2 1.39-.1.4-.3.6-.79.52-1.29l-.41-2.38 1.73-1.69c.36-.35.49-.87.33-1.35z"/><path id="ma38e" d="M901.23 1878.15c-.31.3-.46.74-.38 1.17l.34 2.01-1.8-.95c-.4-.2-.85-.2-1.23 0l-1.81.95.34-2.01c.08-.43-.07-.86-.38-1.17l-1.46-1.43 2.02-.29c.43-.06.8-.33 1-.72l.9-1.84.9 1.84c.2.39.57.66 1 .72l2.02.3zm3.24-2a1.3 1.3 0 0 0-1.06-.9l-2.4-.35-1.06-2.17a1.3 1.3 0 0 0-1.18-.73c-.5 0-.96.28-1.18.73l-1.07 2.17-2.4.35c-.5.07-.9.42-1.05.9-.16.48-.03 1 .33 1.34l1.73 1.7-.4 2.37a1.3 1.3 0 0 0 1.29 1.54c.2 0 .42-.05.61-.15l2.14-1.12 2.14 1.12c.45.23.98.2 1.39-.1.4-.3.6-.79.52-1.29l-.41-2.38 1.73-1.69c.36-.35.49-.87.33-1.35z"/><path id="ma38f" d="M909.8 1891a.79.79 0 0 0-1.11 0 .79.79 0 0 0 0 1.1.79.79 0 0 0 1.1 0 .79.79 0 0 0 0-1.1z"/></defs><g><g transform="translate(-893 -1872)"><g><use fill="#e4d73b" xlink:href="#ma38a"/></g><g><use fill="#e4d73b" xlink:href="#ma38b"/></g><g><use fill="#e4d73b" xlink:href="#ma38c"/></g><g><use fill="#e4d73b" xlink:href="#ma38d"/></g><g><use fill="#e4d73b" xlink:href="#ma38e"/></g><g><use fill="#e4d73b" xlink:href="#ma38f"/></g></g></g></svg>