<?xml version="1.0" encoding="UTF-8"?>
<svg width="57px" height="63px" viewBox="0 0 57 63" version="1.1" xmlns="http://www.w3.org/2000/svg" xmlns:xlink="http://www.w3.org/1999/xlink">
    <!-- Generator: Sketch 51.3 (57544) - http://www.bohemiancoding.com/sketch -->
    <title>icon</title>
    <desc>Created with Sketch.</desc>
    <defs>
        <radialGradient cx="29.2082502%" cy="23.669328%" fx="29.2082502%" fy="23.669328%" r="77.8526281%" gradientTransform="translate(0.292083,0.236693),scale(1.000000,0.998763),translate(-0.292083,-0.236693)" id="radialGradient-1">
            <stop stop-color="#FE560F" offset="0%"></stop>
            <stop stop-color="#FB5212" offset="23%"></stop>
            <stop stop-color="#F2471B" offset="44%"></stop>
            <stop stop-color="#E2342A" offset="64%"></stop>
            <stop stop-color="#CD1A3F" offset="85%"></stop>
            <stop stop-color="#B80054" offset="100%"></stop>
        </radialGradient>
    </defs>
    <g id="Page-1" stroke="none" stroke-width="1" fill="none" fill-rule="evenodd">
        <g id="aff_des_casino_item" transform="translate(-1421.000000, -652.000000)">
            <g id="warning_item" transform="translate(1384.000000, 652.000000)">
                <g id="icon" transform="translate(37.000000, 0.000000)">
                    <g id="planets_2-05" fill-rule="nonzero">
                        <ellipse id="Oval" fill="url(#radialGradient-1)" cx="29.6103896" cy="32.9823529" rx="27.0194805" ry="27.0529412"></ellipse>
                        <path d="M17.6524875,10.4066097 C18.3970304,11.4675911 19.1998809,12.7893223 19.9399386,13.8503037 C19.5766376,15.725004 19.3882592,17.7255834 19.042899,19.6002837 C20.4633154,20.9412398 21.9820776,22.1735168 23.5864048,23.2867447 C23.5624304,23.3354709 23.5081219,23.3612159 23.4553352,23.3488784 C23.4025484,23.3365409 23.3652017,23.2893739 23.3652017,23.2350444 C23.3652017,23.1807148 23.4025484,23.1335478 23.4553352,23.1212103 C23.5081219,23.1088728 23.5624304,23.1346178 23.5864048,23.183344 C23.7987138,24.206928 23.9306835,25.2456125 23.9811022,26.2898617 C26.1188967,26.7184673 28.284998,26.9904264 30.4622136,27.1035806 C30.8344851,26.3258272 31.2740345,25.2558544 31.6463059,24.478101 C32.0942998,24.269976 32.5915879,24.1920931 33.0815694,24.2533168 C33.4045036,23.2058224 33.3327405,22.0054747 34.023461,21.1647818 C35.0057194,19.9464514 36.059741,18.7236253 37.0375142,17.5052949 C37.2393481,15.6081162 37.486034,13.4861533 37.7013235,11.5889746 C38.3741032,10.8157169 39.1186461,10.0379636 39.7914259,9.26470588 C40.1861233,9.3726023 40.5987616,9.53444693 40.9979442,9.64234335 C40.3341349,11.440617 39.7331183,13.3782569 39.069309,15.1765305 C39.6389291,17.2490409 40.1188453,19.4744046 40.6884655,21.5514106 C39.4846528,22.8817995 38.3641986,24.2856416 37.3335373,25.7548753 C37.9480094,27.3058863 38.7284339,28.9378197 39.3429061,30.4888307 C38.9930606,30.4663523 38.7104931,30.6461797 38.3606476,30.6237012 C38.1363877,31.9724065 38.0870506,33.6852621 37.8627906,35.0339674 C39.0379126,36.7827885 40.4238388,38.4147219 41.7335167,40.0646379 C42.4441514,39.8949688 43.1247741,39.6175351 43.7518559,39.2419277 C45.0728973,39.4374864 46.4170811,39.4131829 47.7302267,39.1699968 C48.0800722,37.4211757 48.4792548,35.7263027 48.8291003,33.9774816 C49.5063652,33.7077406 50.1746597,33.6672794 50.8564099,33.3975384 C51.3534121,32.2699054 51.7075101,31.0843021 51.9104314,29.8684263 C52.2019693,30.3449688 52.6370335,30.9653732 52.9285714,31.4419158 C52.1346913,33.4155211 51.2690481,35.3171955 50.475168,37.2863051 C50.1746597,37.3627318 49.8382699,37.5605419 49.5377616,37.6324728 C48.6138108,38.9811781 47.5149372,40.8693654 45.9137214,41.2290201 C44.565173,41.5823809 43.1518272,41.6070451 41.7918243,41.3009511 C41.4554344,41.6381274 40.8947846,41.9842951 40.7826547,42.4473505 C40.4259881,43.6446883 39.9667907,44.8089032 39.410184,45.9270101 C36.8970224,45.9747298 34.4032202,45.4778704 32.099311,44.4704084 C30.9341656,47.0276628 29.5741129,49.4911004 28.0312362,51.8388347 C27.4885272,51.6005635 26.9996406,51.5825807 26.4569316,51.3443095 C25.9411338,52.2434463 25.3490876,53.2055227 24.8332899,54.1226423 C24.0741137,54.0807489 23.3270248,53.9136659 22.6220871,53.628117 L20.4288252,55.5882353 C19.2581885,55.4039122 18.1189481,55.7051231 17.0649266,55.165641 C15.192976,54.2069106 13.4405753,53.0298761 11.8441558,51.6590074 C11.8441558,49.5370444 11.9024634,47.4465513 11.9114338,45.3245884 C13.3341056,44.9371063 14.7136974,44.4053694 16.0288458,43.7376119 C16.4100876,41.3908648 16.8361814,39.039622 17.2174233,36.6928748 C17.0200746,36.391664 16.8900038,36.0769661 16.6881699,35.793738 C17.935055,35.4430746 19.0832658,35.3441696 20.3256657,34.9890105 C20.4422808,33.0154052 20.4333104,31.0103301 20.5499256,29.0367247 C18.2292124,28.0027711 15.9814165,26.8116582 13.8221283,25.4716472 C13.6786019,23.695852 13.5575016,21.9695093 13.4139752,20.193714 C14.2464558,18.7506718 15.1645815,17.359004 16.1634017,16.0262148 L15.3470956,11.4451127 C16.1678869,10.9910486 16.8316963,10.8651694 17.6524875,10.4066097 Z" id="Shape" fill="#FF8933" opacity="0.3" style="mix-blend-mode: screen;"></path>
                        <path d="M21.9798218,32.7863695 L19.9207006,36.587802 C19.7822347,38.8056791 19.6527021,41.028055 19.4740365,43.2459322 L19.4740365,43.3898917 L19.3757704,43.4753677 L17.3523824,45.229875 C16.6868529,45.7967158 16.0123903,46.3725541 15.3602608,46.9348962 C14.9135967,48.6219224 14.5205324,50.3134474 14.0649351,51.9959749 C14.3463334,50.2504651 14.6768648,48.5184515 14.985063,46.7774404 L14.985063,46.7189568 L15.0386627,46.6694707 C15.6773922,46.0441463 16.3295217,45.4368169 16.9771846,44.8159912 L18.821907,43.0749802 C18.8889066,40.8616017 18.9827061,38.6527221 19.0675723,36.4393437 L19.0675723,36.3448702 L19.1122387,36.2593942 L21.1132935,32.4804554 C20.9658944,31.0723509 20.8408285,29.6642463 20.7068293,28.2561417 C19.058639,27.243926 17.4238486,26.2092166 15.7935249,25.1790059 L15.5969927,25.0440438 L15.6461257,24.7876158 L16.2982552,21.350581 L16.9682513,17.9450374 C16.8699852,16.8203533 16.7940523,15.6956691 16.7091861,14.5619875 C16.62432,13.4283058 16.5394538,12.281128 16.4724542,11.1339502 C16.6555865,12.2631331 16.8208522,13.3833185 16.9816512,14.5304963 C17.1424503,15.6776742 17.3166492,16.7798646 17.4640484,17.9315412 L17.4640484,18.003521 L16.9369848,21.4630494 L16.4411877,24.6571524 C18.089378,25.6423758 19.7420349,26.6275991 21.3857586,27.6308174 L21.5688908,27.7432858 L21.5688908,27.9637239 C21.7207566,29.4887956 21.8815557,31.0138673 22.0155549,32.538939 L22.0155549,32.6783998 L21.9798218,32.7863695 Z M22.27462,44.6270443 L22.3594862,44.546067 L22.3594862,44.4201024 L22.84635,40.4657129 L23.293014,36.6057969 L25.4370014,33.0068076 L25.553134,32.8133619 L25.4682679,32.6064201 L23.9898099,29.0659143 L22.511352,26.2002191 L21.0194941,23.3390226 L20.9926942,23.2895365 L20.9658944,23.2580454 L18.8576402,20.9681884 L19.1211719,18.1609768 L19.3713038,15.2053068 L19.3713038,15.1558207 L19.3713038,15.1243296 C18.8085071,14.1795949 18.2412438,13.2393589 17.6605805,12.3036217 C18.1340444,13.2798475 18.6209082,14.2470759 19.1167053,15.2143043 L18.6700413,18.1069919 L18.2457104,21.0401682 L18.2457104,21.1706316 L18.3395099,21.2831 L20.4164976,23.707919 L21.8190227,26.5691155 L23.1902813,29.3898234 L24.5302734,32.7188885 L22.4800855,36.2369005 L22.4309524,36.3223765 L22.4309524,36.4123512 L22.0423547,40.3757382 L21.6894901,44.2266567 C20.2780318,45.6542558 18.8784845,47.092352 17.4908482,48.5409452 L17.4640484,48.5679376 L17.4640484,48.59493 C16.8833851,49.9985358 16.289322,51.3976429 15.7265253,52.8102462 C16.4233212,51.4606252 17.0888506,50.1110042 17.7677799,48.7613833 C19.2983487,47.4057639 20.8006287,46.027651 22.27462,44.6270443 Z M52.5584416,31.5492169 C51.6115138,32.5434377 50.6824526,33.5556535 49.7533914,34.5633705 L49.7265916,34.5903629 L49.7265916,34.639849 C49.4943263,35.6055778 49.2709943,36.5728062 49.0565955,37.5415341 C48.0516015,38.5447524 47.0555407,39.5569681 46.0639465,40.5691839 L43.2052967,41.2125032 L40.2528474,41.8918124 L40.1769145,41.8918124 L40.1099149,41.9412985 L37.2601984,43.9207426 L33.7806855,43.5788387 L30.135907,43.2414334 L29.9393749,43.2414334 L29.8053756,43.3763955 C28.6395825,44.564062 27.4693227,45.7472297 26.3169295,46.9483924 C25.1645363,48.1495551 24.0121431,49.3417203 22.8686832,50.5473817 L20.474564,52.3063877 C19.6675909,52.9062193 18.8665734,53.5060508 18.0715115,54.1058824 C18.9261286,53.5870281 19.7747903,53.0591763 20.6174965,52.5223271 L23.1500815,50.9207768 C24.3679855,49.7631019 25.5724895,48.6039275 26.7635936,47.4432534 C27.9204534,46.3410629 29.0639133,45.2208775 30.2073733,44.1051908 L33.6600863,44.4695885 L37.3003981,44.8384849 L37.4611972,44.8384849 L37.5951964,44.7440114 L40.5029793,42.6925876 L43.3794956,41.9862859 L46.3140784,41.2349969 L46.4212777,41.2080045 L46.4882773,41.1360247 C47.4843381,40.0428317 48.4848656,38.9496387 49.4719931,37.8474482 L49.5255928,37.7844659 L49.5255928,37.7169849 C49.6983029,36.7242636 49.8635686,35.7300428 50.0213898,34.7343225 C50.8834514,33.6816181 51.7321131,32.6289137 52.5584416,31.5492169 Z M22.8552833,45.4953005 C22.0334214,46.4535314 21.2115596,47.4117623 20.4030977,48.3879881 C21.2964258,47.4882408 22.1897539,46.5884935 23.0830819,45.6887461 C23.97641,44.7889988 24.8697381,43.8892515 25.7317996,42.9895042 L25.7853993,42.9310206 L25.7853993,42.8410459 L26.2588632,40.0158393 L26.7055272,37.2716099 L28.6395825,34.1674817 L30.5870377,30.9868749 L30.6093709,30.9463862 L30.6093709,30.8969001 C31.1498344,29.3223423 31.6679647,27.7477845 32.1950282,26.1642292 C33.762819,25.0890312 35.3216765,23.9913394 36.8805339,22.9026452 L37.0100665,22.8126704 L37.0368664,22.6642121 C37.3361313,20.9321985 37.6487961,19.2046837 37.9301944,17.4681713 C38.2115928,15.731659 38.4840578,14.0041441 38.7609895,12.2766293 L39.7213172,10.7470588 L38.6091238,12.195652 C38.2160594,13.9096707 37.8006619,15.6191906 37.4299307,17.3332092 C37.0591996,19.0472279 36.706335,20.6622743 36.3490037,22.3268069 C34.7633464,23.3795112 33.1732225,24.4277169 31.6009651,25.4759225 L31.4803658,25.5568998 L31.4312327,25.6963606 C30.8863026,27.3024096 30.3279726,28.9039598 29.800909,30.5145075 L27.9025869,33.6636232 L26.0042647,36.8757211 L25.9595983,36.9477009 L25.9595983,37.0196807 L25.5978004,39.8628822 L25.2583358,42.6296052 C24.4573183,43.6073307 23.6563008,44.5655616 22.8552833,45.5042979 L22.8552833,45.4953005 Z M39.761517,20.9771859 C39.0379212,21.7374724 38.3143255,22.4977589 37.6041297,23.2715416 C36.8939339,24.0453243 36.1435383,24.8910868 35.4110093,25.6873631 L35.3306097,25.7773379 L35.3082765,25.9033025 C35.1117444,26.9949959 34.9256344,28.0881889 34.7499465,29.1828815 C34.5712809,30.2445833 34.4104818,31.3062852 34.2496828,32.3724857 C33.3891101,33.4491834 32.5419373,34.5363781 31.7081644,35.6340698 C30.8505695,36.7632527 30.0019078,37.8834381 29.1889793,39.0666058 C30.1850401,38.0543901 31.154301,37.0196807 32.1056954,35.9669763 C33.0570898,34.9142719 33.9995509,33.8570688 34.9241455,32.7908683 L34.9866784,32.7143897 L34.9866784,32.6019213 C35.1966105,31.5132271 35.402076,30.4200341 35.5896749,29.3268411 C35.7772738,28.2336481 35.9559394,27.2214323 36.1256717,26.1777254 C36.818001,25.3949453 37.4924637,24.6031676 38.171393,23.8068912 C38.8503223,23.0106148 39.5694514,22.1423587 40.2617807,21.3055937 L40.3466469,21.2021227 L40.3466469,21.0896543 C40.1769145,19.4071268 39.9893156,17.7201006 39.748117,16.0420718 C39.7168506,17.6931082 39.7168506,19.3396458 39.761517,20.9861834 L39.761517,20.9771859 Z M37.1753322,41.028055 L35.960406,40.1283077 L34.5712809,39.1295881 L34.334549,38.9586362 L34.097817,39.1070945 C33.1687558,39.6829328 32.2501168,40.2827643 31.3418999,40.9065891 C30.4485719,41.5274148 29.5552438,42.1572379 28.6619157,42.8455446 C29.6758431,42.3956709 30.6585039,41.9457973 31.6322315,41.43744 C32.5255596,40.9785689 33.4010211,40.5032024 34.2586161,40.0113405 L35.4065426,40.875098 L36.7956678,41.8738175 L36.9609335,41.9952834 L37.1440657,41.9457973 C38.1803263,41.6758731 39.2121202,41.3924527 40.2439141,41.0865386 C41.275708,40.7806245 42.294102,40.4432192 43.3035628,40.0518292 C42.2271024,40.1508014 41.1685087,40.3172546 40.1099149,40.5017028 C39.140654,40.6366649 38.1579931,40.8301106 37.1753322,41.0370525 L37.1753322,41.028055 Z M23.8960105,24.9675653 L26.3169295,31.5492169 L26.3169295,28.490076 L23.8960105,24.9675653 Z M35.3038099,36.7767489 L36.8090677,38.4637751 L40.38238,39.0711046 L35.3038099,36.7767489 Z M37.8319283,30.590986 L37.5907298,27.329402 L36.1748048,33.2542381 L37.8319283,30.590986 Z M28.2867179,49.9715434 L30.8550361,46.2600857 L26.0176646,50.4978956 L28.2867179,49.9715434 Z" id="Shape" fill="#DB4200" opacity="0.4" style="mix-blend-mode: multiply;"></path>
                        <path d="M4.44155844,35.4859203 C6.16009971,44.4750043 13.3690455,52.1767406 22.2117215,54.4787686 C31.0543975,56.7807966 41.0978205,53.5847772 46.9676432,46.5490645 C52.837466,39.5133517 54.2435452,29.0715316 50.4315082,20.7529412 C51.1680259,23.7299327 50.5252468,26.8767826 49.5789332,29.7911947 C47.9764493,34.7349674 44.7491627,39.2138646 40.3211291,41.9315986 C35.8930955,44.6493326 30.2598511,45.4762747 25.3631245,43.7508712 C20.4663978,42.0254677 16.493666,37.6538495 15.6544822,32.5223386 C12.6503828,34.4623001 8.00362579,35.7585877 4.44155844,35.4859203 Z" id="Shape" fill="#DB4200" opacity="0.6" style="mix-blend-mode: multiply;"></path>
                        <path d="M9.5550542,18.1270295 C5.91416546,24.7910463 5.69822679,32.8094652 8.97512824,39.6613346 C12.2520297,46.5132041 18.6192883,51.3569484 26.0750693,52.6697182 C32.4955315,53.8005666 39.5351577,51.9713855 44.0577474,47.2362393 C47.8893859,43.1814043 49.5808703,37.5091407 49.8904523,31.945006 C50.1473816,28.5626636 49.760621,25.1621282 48.7508315,21.9250582 C47.7278022,18.6760058 45.751034,15.8131507 43.0796476,13.7117647 C42.9615576,19.0524517 40.1981675,23.9820268 35.7124926,26.8539354 C31.3424506,29.6517716 25.66678,30.165384 20.7762812,28.4488372 C15.8857824,26.7322904 11.7939156,22.8216273 9.5550542,18.1270295 Z" id="Shape" fill="#DB4200" opacity="0.4" style="mix-blend-mode: multiply;"></path>
                        <path d="M38.7045392,5.36983466 C38.5231839,5.49454505 38.4170248,5.61480148 38.2356695,5.73951187 C37.1032853,4.72481132 35.8967484,3.79726248 34.6262576,2.96470588 C37.0325322,8.9107187 30.9062632,13.6541671 33.0250234,19.2705882 C33.0250234,19.0657069 33.0559865,18.8652795 33.0648331,18.6603982 C33.922953,17.4355641 35.7895852,15.0972444 35.7895852,15.0972444 L36.9750293,9.7124283 L38.5629936,7.78387133 C38.5629936,7.78387133 39.5405427,7.22712856 39.974026,7.0311551 C39.6423495,6.41223885 39.2136795,5.85125772 38.7045392,5.36983466 Z" id="Shape" fill="#E6250C"></path>
                        <path d="M27.4903181,9.63529412 C29.3959516,8.33028007 31.0628383,6.5425896 31.8311688,4.2722227 L30.2814851,2.93145484 C30.112192,2.93145484 29.9776256,2.96720865 29.8083324,2.9761471 C28.703662,2.00904788 27.5232768,1.13756424 26.2792208,0.370588235 C27.6552705,3.24430067 28.2673304,6.4397974 27.4903181,9.63529412 Z" id="Shape" fill="#E6250C"></path>
                        <path d="M34.5833948,2.81234163 L34.3452274,2.65009115 C33.5768793,3.06906174 32.8514069,3.56268848 32.1792523,4.12386634 L32.0579217,4.02020631 C31.2670262,6.30072693 29.5414361,8.10351003 27.5641973,9.4285556 C28.368574,6.20608082 27.7304651,2.97909907 26.3014608,0.0811252394 L26.1756365,0 C25.8520884,0.36055662 25.5599963,0.748154986 25.2364481,1.11321856 C24.9353686,1.19885076 24.7061886,1.29800383 24.4051091,1.38363603 C23.3760462,2.78980684 22.3379959,4.24104724 21.308933,5.64721806 C20.2317096,5.82068785 19.1705887,6.08298071 18.1363636,6.4314287 C18.212757,6.76945053 18.2397193,7.10296541 18.3116189,7.44098724 C19.0845395,7.62577251 19.8215103,7.84661344 20.5944309,8.0313987 C20.3203137,8.19815614 19.9698032,8.33787183 19.695686,8.48209448 C20.7972408,9.54507887 21.8102116,10.6966943 22.7244562,11.9254102 C22.3649583,13.8769229 22.0279289,15.8464634 21.8616611,17.8250179 C22.7446676,19.1485681 23.9767832,20.2001986 25.4206908,20.8627074 C25.6723394,20.8131309 25.9194942,20.804117 26.1666491,20.7545404 C26.8552656,18.9896362 27.2792861,17.1321211 27.4248919,15.2425311 C27.7344481,17.5180253 27.8442168,19.8163837 27.7529338,22.1111347 C28.4098465,22.4974285 29.1178573,22.7887498 29.8559968,22.9764706 L30.8985408,22.291413 C31.4595764,22.1252676 32.009015,21.922009 32.5432439,21.6829737 C32.7623636,20.9076719 32.9009089,20.1117114 32.9566666,19.307807 C30.8041726,13.651575 37.0279808,8.82913022 34.5833948,2.81234163 Z" id="Shape" fill="#FE560F"></path>
                        <path d="M45.8961039,14.8235294 C47.5065801,14.8235294 48.7596753,14.8235294 49.9675325,14.2062446 C49.9523958,13.4292003 49.8307124,12.6574651 49.6056277,11.9109884 L49.4246753,11.8588235 C48.1218182,13.1368639 47.6694372,14.397516 45.8961039,14.8235294 Z" id="Shape" fill="#E6250C"></path>
                        <path d="M55.5868741,24.2223746 C55.8078932,23.3296204 55.9107217,22.4126518 55.8928196,21.4941176 C55.3968171,21.8988091 54.6319533,22.3489715 54.224026,23.1492602 C54.6875798,24.5133887 54.224026,25.4228077 53.2969184,26.3322266 C52.9585241,26.0002887 52.3698108,26.3913389 52.087043,26.2776615 C51.9989678,26.6641646 51.906257,27.0597618 51.8181818,27.4280765 C52.3235948,27.7751362 52.8890204,28.0293451 53.4869755,28.1783472 C53.6955747,28.4693612 53.7187523,28.6330567 53.922716,28.9058824 C54.9564534,28.6062973 55.8906302,28.0429911 56.6298701,27.2734753 C56.4849289,26.2002339 56.1308272,25.1643719 55.5868741,24.2223746 Z" id="Shape" fill="#E6250C"></path>
                        <path d="M42.5243443,30.9506683 C42.0487085,31.5279191 41.5422444,32.1960756 41.5422444,32.1960756 C41.2262309,32.9652799 40.9498587,33.7511964 40.7142857,34.5505317 C41.0785956,35.54367 41.6327515,36.4510273 42.3437789,37.2186122 C43.446799,37.4185636 44.5695867,37.4765798 45.6864419,37.3913329 C46.3562472,36.8682058 46.9495447,36.2482259 47.4480561,35.5504937 C47.5106566,34.7567605 47.5238958,33.959702 47.4876924,33.1642206 C48.060217,32.8096886 48.6855901,32.3415246 49.293347,32.0506265 C49.5001987,31.1759365 49.6022545,30.2783517 49.5972254,29.3780007 C49.2522547,28.6985937 48.8607703,28.0454461 48.425752,27.4235294 C47.1794099,29.4734516 45.2900787,31.9142681 42.5243443,30.9506683 Z" id="Shape" fill="#E6250C"></path>
                        <path d="M54.3520618,20.395001 C52.5047671,20.7437674 50.4204104,19.7824242 48.5373328,19.4739 C50.6082709,18.6466977 53.0594028,18.5796272 54.4773022,16.7910816 C54.4773022,16.759782 54.4773022,16.7240111 54.4773022,16.6927116 C53.0812375,15.6815276 51.5317894,14.9010254 49.8881391,14.3810164 C49.8881391,14.3810164 49.8881391,14.3810164 49.8881391,14.3541882 C48.6894103,14.9846505 47.4504257,14.9891219 45.8625574,14.9891219 C47.6159218,14.5419855 48.0989916,13.2542326 49.3603406,11.9396516 C48.1922647,11.6133778 46.9927212,11.4125219 45.7820457,11.3404888 C44.8385366,10.2354608 43.7277354,9.28495893 42.4900145,8.52352941 C42.2936243,10.4569554 41.8902477,12.3637306 41.2868129,14.2111045 L42.100875,14.8281528 C42.1903323,15.9817647 42.6242006,18.1772044 42.6242006,18.1772044 C42.6242006,18.1772044 43.9302782,19.9970496 44.6459371,20.9092079 C44.4305604,22.2055171 44.1012752,23.4803199 43.6619061,24.7188101 C43.2491257,24.5694778 42.8592086,24.3632976 42.5034331,24.1062332 C41.9498278,24.624955 41.3510767,25.0933202 40.7142857,25.5057702 C40.8976733,26.0736334 41.1615726,27.1870031 41.1615726,27.1870031 C41.1615726,27.1870031 42.4095029,29.2661874 42.95072,30.3661429 C42.8120611,30.5136979 42.6376192,30.710438 42.4631773,30.9161207 C45.2721387,31.8640499 47.1909993,29.4629274 48.4702397,27.4418708 C48.3361432,27.252429 48.1865329,27.0744526 48.0229529,26.9097785 C48.9175266,26.2748448 49.7092243,25.6577965 50.6261624,25.0809906 C51.0421391,25.2509024 51.556519,25.4252856 51.9680229,25.5951975 C51.9277671,25.7651093 51.8875113,25.9439638 51.8472555,26.1228184 C52.1290462,26.2346025 52.6881547,25.8500652 53.0146741,26.1764748 C53.9092479,25.282202 54.3565347,24.3879292 53.9092479,23.0465199 C54.3028603,22.2595599 55.0408836,21.8213662 55.5194805,21.4189434 C55.5194805,21.4189434 55.5194805,21.3921152 55.5194805,21.3787011 C55.160869,21.0162171 54.7701311,20.6869703 54.3520618,20.395001 Z" id="Shape" fill="#FE560F"></path>
                        <path d="M54.7750178,16.6764706 C53.3623926,18.4779313 50.9203779,18.5319751 48.8571429,19.3786617 C50.7153912,19.6939173 52.791995,20.6576988 54.6502434,20.306414 L54.391782,20.1217642 C54.6758728,18.9966428 54.8048367,17.8372567 54.7750178,16.6764706 Z" id="Shape" fill="#E6250C"></path>
                        <path d="M4.53174831,16.571817 C4.62000974,17.0559239 4.63015976,17.551074 4.56181161,18.0384003 L4.44155844,18.1588235 C5.9833758,18.0513028 7.10430709,16.9932984 8.51298701,15.9352941 C7.28086599,16.5462173 5.89257414,16.7681783 4.53174831,16.571817 Z" id="Shape" fill="#E6250C"></path>
                        <path d="M8.14285714,20.3823529 C6.17799138,21.041782 4.21312562,20.9910567 2.24825986,20.7420415 L2.22077922,20.7697099 C2.25283997,22.0470655 2.36734263,23.2137477 2.50932594,24.4588235 C5.08334589,23.9930729 6.82378642,23.0385148 8.14285714,20.3823529 Z" id="Shape" fill="#E6250C"></path>
                        <path d="M6.82378897,37.2962843 C5.33448302,33.8803462 5.78698601,30.4688793 7.04345061,27.0529412 C5.15329027,28.5253257 2.5840285,28.7133533 0.506320089,27.5313514 C0.462387761,27.6118316 0.414062199,27.6833695 0.37012987,27.7638498 C0.910497514,30.1022472 2.43934256,34.5063034 2.43934256,34.5063034 L2.61507187,40.846356 L4.98302439,44.2354674 C4.98302439,44.2354674 6.20873637,48.0001531 7.03466415,49.7751889 C7.61855054,49.9740464 8.23439731,50.0575139 8.84906933,50.0211007 C9.03797834,48.7870707 9.25324675,46.4173755 9.25324675,46.4173755 L6.38007245,40.8329427 C6.46794437,39.647057 6.61604786,38.4665929 6.82378897,37.2962843 Z" id="Shape" fill="#E6250C"></path>
                        <path d="M7.06352921,38.3556054 C7.03246753,39.1754418 7.03246753,39.782564 7.03246753,39.782564 C7.03246753,39.782564 8.66986152,42.3883144 9.88570421,43.3588235 C11.1573102,42.7369938 12.3188756,41.912244 13.3246753,40.9170404 C13.053995,39.8623318 12.6546306,38.0542601 12.5215092,37.4294118 C10.9196142,38.7234239 8.85179419,39.3261145 7.06352921,38.3556054 Z" id="Shape" fill="#E6250C"></path>
                        <path d="M13.3734767,33.3197826 C14.0078945,33.0026779 14.757661,32.7436345 15.3920788,32.4265298 C15.6671249,31.7717311 15.8435698,31.0792784 15.9155844,30.3720481 C15.3832058,30.0862072 14.9085016,29.7959 14.3805595,29.5100591 C14.4382339,29.1259604 14.5979474,28.7507941 14.6511853,28.3622291 C12.9929762,27.4163852 11.4953167,26.2102162 10.2146971,24.7892176 C10.4542675,24.8160152 10.8269325,24.9321381 11.0709393,24.9589356 C11.0922322,23.1376452 11.0063095,21.3166846 10.813623,19.5056268 C10.577472,19.4440386 10.3282714,19.4565043 10.0993484,19.5413569 C11.1995975,17.6789246 12.5571629,15.9683454 13.8348715,14.2265022 C13.7994706,12.770178 13.4767421,11.3354803 12.885463,10.0058824 C11.1083714,10.4399989 9.3647347,11.0027225 7.66815291,11.689664 C8.05412738,12.3908676 8.55545054,12.9804145 9.62908068,12.9804145 C8.8424807,13.4660244 7.91004769,13.6543958 6.9982432,13.5118999 L6.94944183,13.6682192 C6.0663815,14.438466 5.28510085,15.3195533 4.62472202,16.2899164 L4.62472202,16.334579 C6.03325631,16.535285 7.46911761,16.30008 8.74178305,15.6601731 C7.28661493,16.7588742 6.12869151,17.8575752 4.53599226,17.9692318 C3.73742439,18.7865582 2.94329301,19.6664123 2.14472514,20.4748062 C4.04797856,20.7159844 5.95123199,20.7651134 7.85448541,20.1264375 C6.57234033,22.7079384 4.88647483,23.6324551 2.39760496,24.1192779 L2.42422389,24.3425912 C1.65924991,25.2817215 0.972239434,26.282556 0.37012987,27.3349883 C2.46829517,28.5157058 5.06285361,28.3278825 6.97162427,26.857098 C5.70278865,30.269324 5.24583037,33.6770838 6.74979986,37.0893098 C6.8861033,36.2450265 7.11832377,35.4193069 7.44189201,34.6283981 C7.19925974,35.7560267 7.06701156,36.9048838 7.04704457,38.0584892 C8.82163983,39.0410674 10.9023528,38.4202566 12.4994885,37.1250399 L12.4506872,36.9017267 C12.6920085,35.691429 13.0000818,34.4955969 13.3734767,33.3197826 Z" id="Shape" fill="#FE560F"></path>
                        <path d="M9.62337662,13.1387546 C8.55730273,13.1387546 8.07232649,12.5497206 7.69220998,11.8588235 L7.60045772,11.8942541 L7.03246753,13.665785 C7.93043351,13.8070865 8.84871492,13.620294 9.62337662,13.1387546 Z" id="Shape" fill="#E6250C"></path>
                        <path d="M30.7207792,61.1957899 C31.0909091,61.5441466 30.6021479,62.16047 30.8109391,62.6294118 C31.4571923,62.3431005 32.0763195,62.0054295 32.6615884,61.6200705 L32.9415584,61.7227911 C32.5524476,60.9099588 31.4847652,61.1957899 30.7207792,61.1957899 Z" id="Shape" fill="#FE560F"></path>
                        <path d="M55.8870687,39.4052869 L57,34.3237459 C57,34.3237459 56.5961137,32.5625045 55.9813089,31.8705882 C55.5325463,31.9963912 55.1241723,32.1716167 54.6619468,32.2974197 C54.365073,35.0954418 53.6855733,37.8393496 52.642515,40.4521472 C52.0636113,40.5285276 51.5565095,40.5599783 50.9776058,40.6363587 L47.0329824,43.8128834 C46.41369,43.6825875 45.7270832,43.4219957 45.1077908,43.2916997 C44.4166964,43.9476723 43.761503,44.5542223 43.0748962,45.2101949 C42.6844727,46.5580837 42.1504452,48.1485926 41.7600217,49.4874955 C41.6298806,49.0741429 41.6657816,48.6787622 41.5356404,48.2699026 C39.0315451,48.4181703 36.5992517,48.4990437 34.0772058,48.6473114 L32.358445,51.1903284 C32.8072077,52.3135691 33.103391,53.2615843 33.5521536,54.384825 C33.1134772,54.7783692 32.7327298,55.232179 32.4212718,55.7327138 C33.2021188,56.3347708 33.8932132,56.9547997 34.6650849,57.5568567 C32.6556896,57.3291383 30.6996148,56.7609133 28.8805348,55.8764886 C27.0401876,56.5049918 25.2350362,57.2324105 23.4729453,58.0555756 C23.4729453,58.0555756 22.3330883,58.0825334 21.6778949,58.0780404 C21.5836548,58.3206604 21.5477537,58.5273367 21.4535136,58.7879285 C20.4437977,58.6890834 19.3757427,58.5677734 18.3660268,58.4689282 C18.087794,58.1678997 17.9172642,57.6512089 17.5178655,57.529899 C16.7145804,57.278293 15.9741221,56.9772645 15.1753247,56.7256586 C15.9775532,57.7820654 16.8549214,58.7791001 17.8005859,59.7089859 C17.8005859,59.7089859 22.4856676,60.3469866 24.7070425,60.2616204 C26.6501846,61.0523818 28.7728318,61.8027066 30.7159739,62.5934681 L30.7922635,62.5575244 C30.5903204,62.1082281 31.0570335,61.4657344 30.7069986,61.1152833 C31.4295064,61.1152833 32.4347347,60.8277337 32.8072077,61.6454529 C33.6598566,61.9869181 34.687523,62.2699747 35.4997833,62.6294118 L35.5356843,62.6294118 C35.4818328,61.2321003 36.3569199,60.30655 37.8872004,60.6884518 C37.9876172,60.7926089 38.080591,60.9037095 38.1654332,61.0209311 C39.8650379,61.4275005 41.601925,61.6578552 43.3486414,61.7083544 L43.4024929,61.5870444 C41.8452866,59.0350415 44.1160254,55.6518405 46.9073289,55.714742 C48.0677084,55.3772998 49.2028971,54.958417 50.3044618,54.4612053 L50.3493381,54.3533742 C49.9409641,53.7872609 49.7659467,53.050415 49.1017781,53.050415 C50.1070063,50.3546373 51.610361,47.1870985 54.1772832,45.1832371 L54.1997213,45.1248286 L55.6402493,43.377066 C54.8549147,43.1479249 54.0381668,43.0670516 54.0381668,42.7210935 C53.6656938,41.2518946 54.7472117,40.4072176 55.8870687,39.4052869 Z" id="Shape" fill="#E6250C"></path>
                        <path d="M35.5347789,62.6294118 C36.3555076,62.2059204 37.116685,61.6893796 37.8009063,61.0916005 L38.1233766,61.161501 C38.039862,61.0542241 37.9483431,60.9525489 37.8494977,60.8572282 C36.3431635,60.5036138 35.48177,61.3506435 35.5347789,62.6294118 Z" id="Shape" fill="#FE560F"></path>
                        <path d="M43.446482,61.8882353 C44.2669712,59.9876551 45.11481,58.1823306 45.9352993,56.2772144 L47.0064935,55.9596951 C44.1894805,55.8961912 41.8693194,59.3163284 43.446482,61.8882353 Z" id="Shape" fill="#FE560F"></path>
                        <path d="M49.2272727,53.1600744 C49.9053533,53.1600744 50.0840367,53.9045191 50.5009646,54.4764706 C51.8113094,51.4396807 54.1662648,45.8518056 54.4090909,45.2117647 C51.7929829,47.2226734 50.2535568,50.4501138 49.2272727,53.1600744 Z" id="Shape" fill="#FE560F"></path>
                        <path d="M55.8122429,40.0247971 L55.8896104,39.6529412 C54.8021667,40.6662486 53.7620031,41.5587028 54.1058588,43.0507747 C54.1058588,43.4133342 54.8881306,43.5155946 55.640315,43.7294118 L55.6704024,43.687578 L55.8122429,40.0247971 Z" id="Shape" fill="#FE560F"></path>
                        <path d="M15.9423408,30.7398039 C15.8701826,31.4485347 15.6943597,32.1425862 15.4205915,32.799381 C14.7828978,33.1186604 14.0292599,33.3794802 13.3915663,33.6987596 C13.0135519,34.8795084 12.7009119,36.0805323 12.4550931,37.2962742 C12.4550931,37.2962742 12.9813018,39.7515779 13.3112971,41.0601739 C12.3005076,42.0700522 11.1331797,42.9069633 9.85526522,43.5379621 C8.6378501,42.5531424 6.98787357,39.9089692 6.98787357,39.9089692 C6.98787357,39.9089692 6.98787357,36.6397278 7.43381317,35.0073556 C6.54193397,36.9050445 6.29220779,41.0466832 6.29220779,41.0466832 L9.20865279,46.6633029 C9.20865279,46.6633029 8.99014239,49.0466563 8.79838836,50.2877988 C8.19488928,50.3222229 7.59025593,50.244484 7.01462995,50.0584573 C7.8731257,51.0907436 9.00774114,51.8524736 10.2833672,52.2529412 C10.305673,50.1978688 10.6057293,48.1554577 11.1752464,46.1821353 C11.0771397,45.858359 11.0325458,45.5885454 10.9299797,45.2827566 C12.4556619,44.7924846 13.8571677,43.9730524 15.0370834,42.8814156 C15.4128343,41.1456455 15.6027033,39.374212 15.6034267,37.5975661 C15.0515697,37.2399516 14.5427635,36.8189204 14.087232,36.3429329 C14.1987169,35.9427094 14.345877,35.5110076 14.4573619,35.1107841 C15.8539966,34.815704 17.2042388,34.3300681 18.4708183,33.6672814 C18.8445347,32.3707552 19.1041847,31.0435317 19.2467532,29.7010215 L18.8587858,29.6470588 C17.9390097,30.1401513 16.9582534,30.5076248 15.9423408,30.7398039 Z" id="Shape" fill="#800060"></path>
                        <path d="M16.8314862,29.141533 C16.6550903,28.629391 16.4967863,28.0858017 16.3158674,27.5691672 C14.950169,27.2919008 13.7138999,26.5769218 12.7969953,25.5340767 C12.9055466,25.4352423 13.0683736,25.3678552 13.1769249,25.2690207 C13.1316952,23.4720313 13.1769249,21.6750418 13.1316952,19.8780524 L12.516571,19.7522631 C13.8185672,18.4503891 14.9839465,17.0204215 15.9947364,15.4844131 C15.8427689,13.8060692 15.5076088,12.1491004 14.9951596,10.5426921 L13.2266776,10.3764706 C13.8147348,11.6987765 14.1359002,13.1228284 14.1719787,14.5679485 C12.8693628,16.3289982 11.4853334,18.0406306 10.3636364,19.9139921 C10.5970219,19.8286416 10.8510804,19.8161027 11.0918348,19.8780524 C11.2882353,21.6997412 11.3758328,23.5313851 11.3541672,25.3633627 C11.1099267,25.3364078 10.7299971,25.2196035 10.4812336,25.1926487 C11.7868173,26.6219861 13.3136718,27.8352332 15.0042056,28.7866276 C14.9454069,29.1729803 14.7825799,29.5503481 14.7283043,29.9411933 C15.2710609,30.1837869 15.7233581,30.4713052 16.2706377,30.7588235 C17.3076984,30.5255522 18.3086343,30.1553763 19.2467532,29.6581675 C18.4325792,29.5309089 17.6262257,29.3584269 16.8314862,29.141533 Z" id="Shape" fill="#B80054"></path>
                        <path d="M40.2843209,7.09222094 C39.8344989,7.30752275 38.9078657,7.82334999 38.9078657,7.82334999 L37.2930049,9.76106626 L36.087482,15.1750096 C36.087482,15.1750096 34.1892334,17.5343586 33.3165788,18.7633731 C33.2869949,19.7705522 33.1359685,20.7705217 32.8667568,21.7417147 C32.3319935,21.9796096 31.7820053,22.1818984 31.2204085,22.3472511 L30.1768215,23.0290401 C29.4379437,22.842215 28.7292247,22.5522836 28.0716548,22.1678329 C28.161539,19.8838992 28.0501552,17.5965061 27.7387865,15.3320005 C27.5996817,17.2146977 27.1812927,19.066408 26.4972779,20.826682 C26.2453776,20.876022 25.9979756,20.884993 25.7505735,20.9343329 C24.3052214,20.2749851 23.0718734,19.228372 22.1879836,17.9111367 C22.3544177,15.9420223 22.6962824,13.9818788 23.0516417,12.039677 C22.136872,10.8137221 21.1228778,9.6645895 20.0198418,8.60381904 C20.2942332,8.43785723 20.6450943,8.29880815 20.9194857,8.15527361 C20.1457919,7.97136999 19.4080839,7.75158272 18.6343901,7.5676791 C18.5669168,7.27163911 18.5354293,6.97559913 18.4769525,6.67058824 C18.1327063,7.30408936 17.8927435,7.98861707 17.7662338,8.69801358 C18.0378232,8.74950376 18.2963116,8.85474096 18.5264329,9.00750993 C18.5534222,9.16450083 18.467956,9.32597719 18.4949453,9.48296809 C19.6239984,10.3082917 20.7080694,11.1336153 21.7606527,12.0531334 C21.3108308,14.2106369 20.8834999,16.3860823 20.4561691,18.5435858 C21.6227734,20.2470817 23.3889202,21.4510576 25.4042106,21.9166474 C25.5773751,22.6223807 25.6932046,23.3408853 25.7505735,24.0651801 C27.1645398,24.7500782 28.7051155,25.1364197 30.2757824,25.2 C30.7256043,24.50924 31.0944583,23.8319364 31.5217892,23.1411765 L33.0871696,22.9438165 C33.5909702,21.8224529 33.5369915,20.9567602 33.6449488,19.7322312 C34.8388081,18.6153203 35.9526034,17.4162547 36.9781295,16.1438677 C37.1895458,14.2958606 37.2840084,12.4119698 37.643866,10.5863899 C38.5048878,9.88032293 39.4060277,9.2243576 40.3427977,8.62176086 C40.3497163,8.11125046 40.330198,7.60072431 40.2843209,7.09222094 Z" id="Shape" fill="#B80054"></path>
                        <polygon id="Shape" fill="#B80054" points="42.9350649 8.5457372 42.9350649 8.52352941 42.9350649 8.52352941"></polygon>
                        <path d="M56.2856494,26.4450115 C56.2856494,26.4005959 56.2856494,26.3561803 56.2597403,26.3117647 C56.2708442,26.3561803 56.2782468,26.389492 56.2856494,26.4450115 Z" id="Shape" fill="#B80054"></path>
                        <path d="M41.5502697,32.3581977 C41.5502697,32.3581977 42.5240885,31.1287212 43.0610539,30.550144 C42.5013357,29.4381909 41.240832,27.3363285 41.240832,27.3363285 C41.240832,27.3363285 40.9905514,26.210815 40.7857765,25.636758 C41.4336274,25.2198093 42.0427779,24.7463355 42.6059984,24.2219559 C42.9679532,24.4818242 43.3646425,24.6902533 43.7845922,24.8412143 C44.2315925,23.5892156 44.5665968,22.3005082 44.7857143,20.9900599 C44.0576255,20.086033 42.7288634,18.2282578 42.7288634,18.2282578 C42.7288634,18.2282578 42.2738079,16.0088719 42.1964485,14.8426772 L41.3682475,14.2188987 C41.9752781,12.3685719 42.382566,10.4593883 42.5832457,8.52352941 L41.372798,8.7856972 C41.1637867,10.7829778 40.6497472,12.7369875 39.8483621,14.5805094 L40.3580243,15.0325228 C40.7403906,16.2874443 41.0293711,17.5685877 41.2226297,18.8655968 C42.0735835,19.7244223 42.8608295,20.5787277 43.7117833,21.4375532 C43.530978,22.055418 43.3059096,22.6596445 43.0383012,23.2456069 C42.3975259,23.0331088 41.739943,22.874348 41.0724614,22.7709928 C40.3671254,23.6433787 39.6071827,24.5202848 38.9519028,25.4288318 C39.1248239,26.4277815 39.675441,28.2991171 39.675441,28.2991171 C39.675441,28.2991171 41.1498209,29.7274795 41.8415052,30.5275433 C40.9313942,31.0970802 39.9075193,31.6394964 39.0065095,32.2542346 C38.8621438,33.2312725 38.8270427,34.2211765 38.9018467,35.2058824 C39.5298233,34.8939931 40.1942043,34.5956642 40.8358326,34.2295333 C41.1088659,33.411389 41.5502697,32.3581977 41.5502697,32.3581977 Z" id="Shape" fill="#B80054"></path>
                        <path d="M47.708696,35.6488265 C47.708696,35.6003795 47.708696,35.5519325 47.708696,35.5034855 C47.2098332,36.1795721 46.6161175,36.7803184 45.9458401,37.2872166 C44.8281977,37.3698189 43.7046186,37.3136025 42.600821,37.1198542 C41.8893876,36.3760078 41.3348539,35.4968197 40.9701793,34.5345451 C41.0054364,34.4024169 41.0495078,34.243863 41.1068006,34.0941176 C40.4853939,34.4508639 39.8419515,34.741546 39.2337662,35.0454409 C39.2337662,35.1555478 39.2337662,35.2612504 39.2558019,35.3757615 C39.4188661,37.0053431 41.1332435,37.983092 42.129257,39.2823529 C42.7219954,39.146015 43.2919712,38.9249963 43.8215987,38.626116 C44.993447,38.7401463 46.172768,38.7563514 47.3473105,38.6745631 C47.6934677,37.7058687 47.8169826,36.6717278 47.708696,35.6488265 Z" id="Shape" fill="#800060"></path>
                        <path d="M56.2597403,27.2788939 C56.2592444,27.9980855 56.131001,28.7113519 55.8811063,29.3847865 C54.9509374,29.8106394 53.9829621,30.14662 52.9901248,30.3882353 C52.8564892,30.0102546 52.7629444,29.6277741 52.6248544,29.2497934 C51.9294613,28.9090933 51.2528665,28.530557 50.5980491,28.1158512 C50.6203217,27.7693689 50.6960485,27.4498852 50.7183211,27.1034029 C50.5062875,26.9088507 50.2599971,26.7562173 49.9922348,26.6534258 C49.5576352,27.0191907 49.1483466,27.4145959 48.7672426,27.8368655 C48.5775721,27.5499242 48.3596784,27.2830818 48.1168831,27.0404061 C49.0077865,26.4014387 49.796236,25.7804704 50.709412,25.2 C51.1236821,25.3709913 51.6359516,25.5464823 52.0457671,25.7174736 C51.9165861,26.257446 51.7918597,26.846916 51.6626787,27.3868884 C52.1483549,27.7303361 52.6917003,27.9818993 53.2663048,28.1293505 C53.4667581,28.4173359 53.4890307,28.5793276 53.6850294,28.8493138 C54.6646159,28.5626745 55.5524797,28.0211305 56.2597403,27.2788939 Z" id="Shape" fill="#800060"></path>
                        <path d="M49.5974026,28.9058824 C49.6640525,28.9966477 49.7176274,29.096322 49.7565584,29.2019862 C49.7565584,29.2019862 49.6973377,29.0835447 49.5974026,28.9058824 Z" id="Shape" fill="#B80054"></path>
                        <path d="M50.0096159,29.2764706 C50.4327142,30.5415077 50.332882,31.0855168 50.3138664,32.4066819 C49.4242252,32.7886736 48.566269,33.2287779 47.7467532,33.7235294 C47.7467532,33.4356939 47.7467532,33.1478584 47.7467532,32.8600228 C48.364762,32.5232553 49.0398176,32.0785494 49.6958577,31.8022273 C49.9131843,30.9750349 50.0185492,30.1268466 50.0096159,29.2764706 Z" id="Shape" fill="#800060"></path>
                        <path d="M15.2781988,56.8539723 C16.0769509,57.1064673 16.8132308,57.4085595 17.6075205,57.6610545 C17.9957408,57.7827931 18.1697706,58.3058185 18.4508956,58.6034018 C19.4549136,58.7025963 20.5169415,58.824335 21.5209595,58.9235294 C21.6146678,58.6800521 21.6503663,58.4726455 21.7440746,58.2111328 C22.3955707,58.2111328 23.5289954,58.1885886 23.5289954,58.1885886 C25.2912466,57.359931 27.0966664,56.6284255 28.9373056,55.9972928 C30.748896,56.8858214 32.6970312,57.4560778 34.6981376,57.6835987 C33.9216971,57.0794142 33.2345025,56.4571944 32.4669866,55.85301 C32.776687,55.3507065 33.1552858,54.8952931 33.5914867,54.5003583 C33.1452565,53.3731485 32.8507446,52.4217834 32.4045144,51.2945737 L34.0957269,48.7515884 C36.5856914,48.6027967 39.0042592,48.5216376 41.512073,48.3728459 C41.6414797,48.7876591 41.6057813,49.1799281 41.7351881,49.5947413 C42.1234084,48.2420896 42.6544223,46.6459605 43.0426426,45.3023265 C43.7298371,44.644036 44.3813332,44.0353427 45.0640655,43.3770522 C45.6798631,43.5078085 46.3625954,43.7693212 46.9783931,43.9000775 L50.9007566,40.7123283 C51.4763936,40.635678 51.9806337,40.6041162 52.5562707,40.5274659 C53.5980267,37.9061019 54.2782013,35.1524781 54.5776936,32.3439229 C55.0239238,32.2176754 55.4299933,32.0418307 55.8896104,31.9155832 L55.8896104,31.8704948 C55.1474013,31.6139956 54.3669327,31.4889165 53.5826002,31.50077 C52.8317162,33.8098112 51.9374815,36.0687127 50.9052189,38.2640287 C50.3429689,38.3632231 49.3568001,38.6698242 49.3568001,38.6698242 C49.3568001,38.6698242 47.1702721,40.9242437 46.0502342,42.0514535 C45.1577738,42.0739977 44.318861,42.0830154 43.4353252,42.1055596 C42.7078879,42.6651519 42.0135519,43.267364 41.3558924,43.9090952 C41.3558924,43.9090952 40.655311,45.933564 40.2760153,46.9029644 C38.8703901,46.9931412 36.1439235,47.137424 36.1439235,47.137424 C36.1439235,47.137424 34.2965304,46.718102 33.3237486,46.6098898 C31.8901453,48.2328972 30.6542003,50.0236503 29.6423493,51.9438465 C29.7449823,52.5345044 29.9100875,53.1431977 30.0127204,53.7473821 C28.7855873,53.5805551 27.6343134,53.4002015 26.4071803,53.2333745 C26.1751406,53.805997 26.0323469,54.423708 25.8003072,54.9963306 C24.9168624,54.8118844 24.0225348,54.6853728 23.1229259,54.6175881 C22.3713543,55.2456088 21.7625599,56.0299167 21.3380051,56.917096 C20.6555627,57.0448796 19.9606973,57.0917879 19.2674969,57.05687 C19.2139493,56.9531667 19.2407231,56.8539723 19.1871755,56.750269 C17.7550715,56.1607376 16.2922434,55.6504826 14.8051948,55.2217725 C14.8870644,55.785398 15.0462632,56.334747 15.2781988,56.8539723 Z" id="Shape" fill="#800060"></path>
                        <path d="M24.6877744,8.3346002 C24.4816072,8.69171172 24.190284,9.06667881 23.7913953,9.09792607 C23.4554925,9.0874659 23.1357,8.95209998 22.8950162,8.71849508 C22.1492866,8.11972873 21.444093,7.47254249 20.7840434,6.78116512 C22.7395588,5.71475551 24.3676392,4.13949991 25.4945156,2.22352941 C26.0014755,4.28940614 25.71368,6.46945947 24.6877744,8.3346002 Z M33.6515654,4.26799283 L32.1411666,5.44199694 C31.136464,8.18240543 29.034437,10.3843064 26.3371119,11.5218205 C27.1976359,12.4145993 28.0223046,13.4145115 28.8828286,14.3251459 C31.5646814,11.6021097 33.2490421,8.05982059 33.6650111,4.26799283 L33.6515654,4.26799283 Z M47.9353663,11.9235709 C47.2085593,11.7124262 46.4480002,11.6412208 45.6944186,11.7137679 C45.1180139,10.9557304 44.390073,10.3249504 43.5565544,9.86125193 C43.0598443,11.1441923 43.0774961,12.5682454 43.6058553,13.8385814 C45.2086104,13.6229215 46.7165628,12.9571326 47.9532939,11.919107 L47.9353663,11.9235709 Z M53.9186968,16.50799 C52.8261834,15.7586323 51.6024585,15.2196307 50.310771,14.9188438 C49.0682192,15.4939958 47.6958216,15.7341243 46.3308478,15.6152112 C47.2272269,16.7044013 48.249099,17.5793245 49.6384866,17.7534164 C51.16809,17.8544251 52.68426,17.4132603 53.9186968,16.50799 Z M46.5907977,19.3202432 C46.0965885,19.9589491 45.7866714,20.7198264 45.6944186,21.5209429 C46.8539629,23.2516061 48.8278357,24.2641098 50.9158269,24.1992792 C51.7455632,24.1559268 52.5762949,24.2633218 53.3674237,24.5162157 C53.4706569,23.7598565 53.2530544,22.9948372 52.7668497,22.4047939 C53.4708022,22.0919769 54.1444216,21.7154284 54.7792208,21.2798926 C51.9971926,20.8656427 49.2571533,20.2084041 46.5907977,19.3157793 L46.5907977,19.3202432 Z M12.0398653,10.5665472 C10.7395211,10.8100544 9.4943114,11.2864759 8.36471097,11.9726738 C8.90936197,12.2336309 9.50024211,12.3853079 10.1036864,12.4190632 C10.937319,12.4547743 11.8695533,11.3968314 12.0398653,10.5665472 Z M9.45829347,13.5171811 C8.79715005,13.9500897 8.00195012,14.1322511 7.21734572,14.0305289 C6.61974561,14.5076298 6.0996946,15.0737745 5.67557367,15.708953 C7.09185265,15.6152112 8.5305411,14.6108351 9.45829347,13.5171811 Z M8.89805653,16.3115787 C7.64312579,17.3382743 4.67611097,18.6908341 4.67611097,18.6908341 L3.51530004,19.9317966 C5.67557367,19.7978798 7.80895593,18.1998058 8.89805653,16.3115787 Z M6.41060453,26.2482066 C7.8403292,24.9090384 8.23025411,22.8020804 8.535023,20.8558227 C7.25324296,22.8038949 5.2424431,24.1604748 2.9505812,24.6233492 L1.48051948,26.9936768 C3.12248401,27.7715601 5.0744286,27.4764097 6.41060453,26.2482066 Z" id="Shape" fill="#FF8933"></path>
                        <path d="M26.6628502,59.1639712 C26.4782745,57.742387 28.2294923,57.2343601 29.282924,57.4527225 C29.7360372,57.5077475 30.1687328,57.671429 30.5434406,57.9295548 C30.2708921,58.986824 30.0753102,60.0620847 29.9582008,61.1470588 C29.0893447,60.8351125 26.8024074,60.2424144 26.6628502,59.1639712 Z M34.8382008,61.1069514 C34.9972616,60.1409327 35.3007103,59.203735 35.7385698,58.3261724 C35.7160606,58.3707361 34.1539204,58.3261724 33.9378318,58.4152999 C33.5208959,58.5519935 33.1842646,58.8608421 33.0149536,59.2620115 C32.5782746,60.4117567 33.9783484,60.852938 34.8382008,61.1069514 Z M41.0372415,59.9928573 C41.1722689,56.9298231 43.0592917,54.2108978 45.8992341,52.9874331 C44.6423391,52.1438506 43.2470686,51.5226219 41.7755441,51.1514059 C40.2932975,50.7828249 38.729531,50.9097335 37.3277211,51.5123724 C36.3805546,51.9434014 35.5934455,52.6571113 35.0767986,53.5533929 C34.4600458,54.654118 34.8021861,55.1532322 35.5269831,56.0534203 C36.9776276,57.8297094 38.8816108,59.1898088 41.0417433,59.9928573 L41.0372415,59.9928573 Z M52.1838098,44.8411765 C51.9857287,45.0506262 50.5496401,45.0907336 50.1984962,45.1976866 C49.5174966,45.4014539 48.8620407,45.6810214 48.2446954,46.0310291 C47.0165202,46.6955276 45.9668596,47.641377 45.1834408,48.7895262 C44.3190865,50.1264392 44.9088282,51.0489092 46.3359131,51.5524798 C46.6744861,51.7068433 47.0365166,51.8047186 47.4073522,51.8421443 C47.9295663,51.8421443 47.8575367,51.6193254 48.082629,51.1246676 C48.3744251,50.4267401 48.7050673,49.7453553 49.0730349,49.0836471 C49.9282139,47.5515771 50.9748719,46.132198 52.1883117,44.859002 L52.1838098,44.8411765 Z" id="Shape" fill="#CC0B1B"></path>
                        <path d="M56.6208884,27.2288249 C56.4956038,26.1710049 56.1694114,25.1468433 55.6598422,24.2113826 C55.8857223,23.3205252 55.9988785,22.4048431 55.9966575,21.4858059 L55.9966575,21.4409035 L55.9607305,21.4049816 C55.5494633,20.9782542 55.0983226,20.591831 54.6134695,20.2509895 C54.9152921,19.120337 55.0662959,17.9547505 55.0625565,16.784523 L55.0625565,16.6902279 L54.9862117,16.6273645 C53.6237879,15.6030056 52.0977977,14.8165854 50.4728874,14.3014194 C50.4434289,13.5266262 50.3228424,12.7579948 50.1136178,12.0113962 L50.0821817,11.8856694 L49.9609282,11.8497475 C48.7466072,11.493717 47.4964472,11.2738401 46.2335062,11.1941722 C45.3224086,10.1478871 44.2633622,9.24026002 43.0898972,8.5000273 L43.0584611,8.43716391 L43.0584611,8.36082981 L42.9147533,8.3922615 L42.6228467,8.21265184 L42.5959015,8.46410536 L41.6977275,8.66167599 L40.4268113,8.06896411 C40.4277361,7.84257066 40.4172441,7.61627456 40.3953752,7.39093763 L40.5345922,7.32807425 L40.4088479,7.11254265 L40.3504665,7.01375734 L40.3504665,6.9239525 L40.3190305,6.9239525 C39.9933179,6.34437369 39.579741,5.81876518 39.093023,5.36583868 L38.9627877,5.2490924 L38.8190799,5.34787771 C38.6888447,5.43768254 38.5810638,5.53197762 38.4777738,5.61729221 C37.2859555,4.57446919 36.0207661,3.618582 34.6919704,2.75700833 L34.5796987,2.68516446 L34.462936,2.74802784 C33.7354339,3.14172645 33.0467668,3.60327933 32.4061176,4.126532 L30.8208405,2.77945953 L30.7489866,2.71659615 L30.6591692,2.71659615 L30.2549909,2.75700833 C29.0835844,1.77121324 27.8340052,0.882213986 26.5185871,0.0987853146 L26.3569158,0 L26.2356623,0.139197489 L25.3374883,1.20338474 L24.5740404,1.45034803 L24.4976956,1.47728948 L24.4572778,1.53566262 L21.4034862,5.69811656 C20.3360569,5.87861235 19.2848192,6.14438811 18.2598772,6.49288931 L18.0757516,6.5557527 L18.1116785,6.75781357 L18.1116785,6.7937355 C17.8074392,7.3750204 17.58671,7.99630139 17.4560115,8.63922479 C16.4748571,9.12615697 15.5240512,9.67196916 14.6088,10.2736727 L13.261539,10.1434557 L13.2166303,10.0401802 L13.0325046,10.0850826 L12.9202329,10.112024 L12.7540707,10.112024 L12.7540707,10.1659069 C10.9998684,10.6058534 9.27743201,11.1639167 7.59855196,11.8362768 L7.49975282,11.876689 L7.46831673,11.9799645 L6.85306755,13.8793367 C5.96792303,14.6552361 5.18205476,15.5375175 4.5133243,16.506128 L4.45943387,16.5779719 L4.45943387,16.6677767 C4.54346094,17.1405701 4.5585874,17.6230365 4.50434256,18.1001638 L1.98945539,20.7179746 L1.92209234,20.7898185 L1.92209234,20.8841136 C1.95352843,22.1458714 2.07927279,23.3986488 2.22298063,24.6379555 C1.83227494,25.1273918 1.450551,25.6302989 1.0912814,26.1511669 C0.732011803,26.6720349 0.368251336,27.2647468 0.0404178296,27.8394977 L0,27.9158319 L0,28.0011464 C0.282924807,29.164119 0.633212664,30.2956599 0.99248226,31.4272008 C1.35175186,32.5587416 1.72449406,33.6723216 2.11070888,34.7634503 L2.20052628,37.9066194 C2.2274715,38.9663164 2.25441672,40.0305036 2.30381629,41.0902006 L2.30381629,41.1575543 L2.33974325,41.2069469 L4.79624911,44.5611574 C5.12258566,45.4891406 5.46239482,46.4126336 5.81567659,47.3316364 C6.17494619,48.2566262 6.53870665,49.1816159 6.96983017,50.0796643 L6.96983017,50.1066057 L6.99228452,50.1066057 L7.03270235,50.1066057 C7.91548319,51.1257418 9.07187088,51.8705881 10.3649279,52.2529412 C9.10246114,51.8392422 7.98399499,51.0744928 7.14048323,50.0482326 L7.14048323,50.0168009 L7.09108366,50.0168009 L7.0551567,50.0168009 C6.65996014,49.1187526 6.3231449,48.198253 5.99531139,47.2732633 C5.66747788,46.3482735 5.35311699,45.3963423 5.0522287,44.4578818 L2.72146719,41.0722397 C2.72146719,40.0305036 2.67655849,38.9887676 2.6451224,37.9290706 L2.555305,34.7454893 L2.555305,34.7095674 L2.555305,34.6781357 C2.16609627,33.5645558 1.79036016,32.4449889 1.42809665,31.319435 C1.07780879,30.223816 0.740993543,29.1237068 0.467050475,28.0146172 C0.776920502,27.4757882 1.09577227,26.9459397 1.450551,26.4385424 C1.80532972,25.9311451 2.20950802,25.3878258 2.61817718,24.8804286 L2.67655849,24.8085847 L2.67655849,24.7142896 C2.53734152,23.4749829 2.4071063,22.2356763 2.37117934,21.0008598 L4.8725939,18.3965197 L4.92199347,18.3471271 L4.92199347,18.2797734 C4.99422281,17.768176 4.98512888,17.2483791 4.89504825,16.7396206 C5.5338,15.8069028 6.28829997,14.9589635 7.14048323,14.2161048 L7.19437367,14.1756926 L7.19437367,14.1128293 L7.79615024,12.2583595 C9.50102402,11.5749244 11.2524001,11.0137222 13.0369955,10.5790091 L12.9965776,10.632892 L14.5638913,10.78107 L14.6447269,10.78107 L14.71209,10.7361676 C15.6628931,10.1078153 16.6529039,9.54088841 17.6760641,9.03885628 L17.7793542,8.98946363 L17.7793542,8.87720759 C17.9028862,8.21331166 18.1286135,7.57257814 18.4484938,6.9778354 L18.4844207,6.91048178 C19.4477966,6.59593486 20.4343066,6.35722384 21.4349223,6.19653337 L21.5247397,6.19653337 L21.5786301,6.12019926 L24.6279308,1.93080388 L25.382397,1.68384059 L25.44976,1.68384059 L25.485687,1.63893817 L26.3030253,0.673536236 C27.5679872,1.43463339 28.7694526,2.29656422 29.8957213,3.2509349 L29.9675752,3.31379828 L30.0573926,3.31379828 L30.45708,3.27787635 L32.1097202,4.67883172 L32.2489371,4.80006824 L32.392645,4.68332196 C33.0200544,4.16372823 33.69347,3.70232272 34.4045547,3.3048178 C35.7664227,4.11893227 37.0649698,5.03454256 38.2891572,6.04386516 L38.4193925,6.16510168 L38.5675912,6.06182612 C38.6933355,5.97202129 38.8011164,5.8867067 38.8999155,5.80139211 C39.2816896,6.1853302 39.6122587,6.61697194 39.8834161,7.0856012 C39.8834161,7.0856012 39.8834161,7.0856012 39.8205439,7.13499386 C39.7763501,7.18198785 39.7550079,7.24600554 39.7621626,7.31011328 C39.7686411,7.39308499 39.8204921,7.46566622 39.8968887,7.49870343 L39.9642517,7.49870343 C39.9642517,7.70974478 39.9642517,7.94772758 39.9642517,8.1542787 L39.9642517,8.29796643 L40.0989778,8.36082981 L41.5540197,9.04334653 L41.6303645,9.07926846 L41.7022184,9.07926846 L42.6003924,8.88618807 L42.6947007,9.00293435 L42.923735,8.90863928 C44.0487524,9.63552333 45.0635639,10.5201458 45.9371088,11.5354306 L45.9999809,11.6072745 L46.103271,11.6072745 C47.3194955,11.6823918 48.5240472,11.8886424 49.6959669,12.2224376 C49.8989653,12.9417318 50.0076555,13.6843445 50.0193096,14.4316364 L50.0193096,14.5932851 L50.1719991,14.647168 C50.9788386,14.9304143 51.7703124,15.2556525 52.5431785,15.6215504 C53.2853824,15.965038 53.9923004,16.3801063 54.6538873,16.8608571 C54.6936843,17.9981581 54.578867,19.1355965 54.3125812,20.242009 L54.285636,20.3452846 L54.3709625,20.4036577 C54.8734367,20.726521 55.3440984,21.0963823 55.7766048,21.5082571 C55.8052238,22.4045966 55.7192009,23.3009196 55.5206253,24.1754606 L55.5206253,24.2068923 L55.5206253,24.2338338 C56.0564092,25.1457891 56.4130854,26.1516581 56.5714888,27.1973932 L56.5445436,27.2243347 C56.5509873,27.8325605 56.4646695,28.4382151 56.288564,29.0204313 C56.4825394,28.4409556 56.5870297,27.8352994 56.598434,27.2243347 L56.6298701,27.192903 L56.6208884,27.2288249 Z M12.9741233,10.4038897 L13.3199203,10.2512215 L13.1492672,10.4892043 L12.9741233,10.4038897 Z" id="Shape" fill="#FED893"></path>
                        <path d="M57,34.4044981 L57,34.3775 C56.8300262,33.7056954 56.5859566,33.0551877 56.2723531,32.4381355 C56.2279891,31.2540565 56.1072032,30.0741442 55.9107617,28.9058824 C56.0530784,30.0852135 56.1186919,31.2726669 56.1071817,32.460634 C56.3839709,33.0712692 56.5921021,33.7112064 56.7276904,34.3685006 C56.2812813,36.1683749 55.8348721,37.9682491 55.4598884,39.7681233 L55.4598884,39.8086205 L55.3170375,43.2823778 L53.8974564,45.0147567 L53.8974564,45.0417548 L53.8974564,45.0732526 L50.0538737,54.3426049 C48.6519977,54.9558511 47.207785,55.4656567 45.7326331,55.8679984 L45.6344231,55.8994962 L45.5897822,55.9984892 L43.1613164,61.5421019 C42.2952827,61.5106041 41.4292489,61.4386091 40.5721434,61.3216173 C40.1197821,61.2586217 39.673373,61.1836269 39.2329159,61.096633 C38.7865068,61.011139 38.3400976,60.8986468 37.8936885,60.7996538 L37.7776221,60.7726556 L37.6928044,60.8401509 C37.3178207,61.1506292 36.9606934,61.4701069 36.5857097,61.7625865 C36.2454257,62.0342429 35.879034,62.2709048 35.4920073,62.4690371 C35.0455981,62.2755506 34.5724044,62.1135619 34.112603,61.9560729 C33.6528016,61.7985839 33.1305029,61.6140968 32.6617733,61.4206104 L32.5412428,61.3711138 L32.4430328,61.4431088 C31.9029691,61.8217133 31.3325715,62.1543389 30.7377499,62.4375393 L24.8049723,60.1741975 L24.7603314,60.1741975 L24.7112264,60.1741975 C23.5707583,60.1854283 22.4305781,60.131345 21.2961964,60.0122088 C20.1801735,59.908716 19.0641506,59.7827248 17.957056,59.6342352 L16.6446131,58.2573314 C16.1921233,57.7903905 15.7701266,57.2943859 15.3812752,56.7724352 C15.2140521,56.412404 15.0911218,56.033117 15.0152197,55.6430141 L15.0152197,55.5800185 L14.9661147,55.5530204 C13.3095522,54.5401802 11.7664336,53.349852 10.3636364,52.0027684 C11.6941015,53.4067439 13.1696871,54.6632991 14.7652306,55.7510065 C14.8250676,56.1594659 14.9360678,56.5586243 15.0955733,56.9389235 C15.4696012,57.497935 15.8796944,58.0315492 16.3231985,58.5363119 C16.7696076,59.0447764 17.2160168,59.521743 17.6892105,59.99421 L17.7427796,60.0482063 L17.814205,60.0482063 C18.9570125,60.2011956 20.0998199,60.3316865 21.2515555,60.4351792 C21.8274233,60.4891754 22.398827,60.5341723 22.9791589,60.5656701 C23.5594908,60.5971679 24.1041099,60.6196663 24.6710495,60.5971679 L30.6082912,62.928005 L30.7020371,62.9640025 L30.7868549,62.9235053 C31.396075,62.6354524 31.9812768,62.2983851 32.5367787,61.9155758 C32.9831879,62.1000629 33.4519175,62.2665513 33.9117189,62.4195406 C34.3715203,62.5725299 34.8982831,62.7525173 35.3625486,62.9595028 L35.4562945,63 L35.5455764,62.9550031 C35.9930349,62.7335083 36.4151612,62.4634265 36.8044502,62.1495594 C37.1615775,61.8705789 37.4963843,61.5735997 37.8356553,61.2901195 C38.2508158,61.3846129 38.6659763,61.4881056 39.090065,61.5691 C39.5141537,61.6500943 40.0096678,61.7355884 40.4694693,61.7985839 C41.3933332,61.925339 42.3231271,62.0034396 43.2550623,62.0325676 L43.4068415,62.0325676 L43.4693387,61.8930773 L45.920125,56.3044679 C47.4104752,55.8979151 48.8683903,55.3789886 50.2815423,54.7520763 L50.361896,54.7160788 L50.3931446,54.6395842 L54.267976,45.3162357 L55.7143417,43.5523589 L55.7634467,43.493863 L55.7634467,43.4173684 L55.9062976,39.8896149 C56.3214581,38.0897406 56.6339445,36.2538689 56.9955359,34.4359959 L57,34.4044981 Z" id="Shape" fill="#EA87B4"></path>
                    </g>
                    <g id="close" transform="translate(15.000000, 18.000000)" fill="#040437">
                        <path d="M17.9451455,14.5665374 L28.2838498,4.27614486 C29.2355399,3.32890187 29.2355399,1.7931215 28.2838498,0.846014019 C27.3321596,-0.101228972 25.7893052,-0.101228972 24.837615,0.846014019 L14.4987746,11.1365421 L4.15993427,0.845878505 C3.20824413,-0.101364486 1.66538967,-0.101364486 0.713699531,0.845878505 C-0.23785446,1.7931215 -0.23785446,3.32890187 0.713699531,4.27600935 L11.0525399,14.5664019 L0.713699531,24.8569299 C-0.23785446,25.8041729 -0.23785446,27.3399533 0.713699531,28.2870607 C1.66538967,29.2343037 3.20824413,29.2343037 4.15993427,28.2870607 L14.4987746,17.9965327 L24.837615,28.2870607 C25.789169,29.2343037 27.3321596,29.2343037 28.2838498,28.2870607 C29.2355399,27.3398178 29.2355399,25.8041729 28.2838498,24.8569299 L17.9451455,14.5665374 Z" id="Shape"></path>
                    </g>
                </g>
            </g>
        </g>
    </g>
</svg>