<?xml version="1.0" encoding="UTF-8"?>
<svg width="70px" height="70px" viewBox="0 0 70 70" version="1.1" xmlns="http://www.w3.org/2000/svg" xmlns:xlink="http://www.w3.org/1999/xlink">
    <!-- Generator: Sketch 51.3 (57544) - http://www.bohemiancoding.com/sketch -->
    <title>space-station</title>
    <desc>Created with Sketch.</desc>
    <defs></defs>
    <g id="Page-1" stroke="none" stroke-width="1" fill="none" fill-rule="evenodd">
        <g id="aff_des_home" transform="translate(-390.000000, -2937.000000)" fill-rule="nonzero">
            <g id="footer" transform="translate(-31.000000, 2904.000000)">
                <g id="space-station" transform="translate(454.451383, 71.451383) rotate(70.000000) translate(-454.451383, -71.451383) translate(424.451383, 41.451383)">
                    <g id="Group">
                        <rect id="Rectangle-path" fill="#5C546A" x="43.125" y="52.5" width="4.6875" height="3.75"></rect>
                        <path d="M54.375,50.625 L54.375,47.8125 C54.375,47.2947656 53.9552344,46.875 53.4375,46.875 L49.6875,46.875 L49.6875,50.625 L54.375,50.625 Z" id="Shape" fill="#5C546A"></path>
                        <rect id="Rectangle-path" fill="#5C546A" x="43.125" y="46.875" width="4.6875" height="3.75"></rect>
                        <path d="M36.5625,52.5 L36.5625,55.3125 C36.5625,55.8302344 36.9822656,56.25 37.5,56.25 L41.25,56.25 L41.25,52.5 L36.5625,52.5 Z" id="Shape" fill="#5C546A"></path>
                        <path d="M49.6875,56.25 L53.4375,56.25 C53.9552344,56.25 54.375,55.8302344 54.375,55.3125 L54.375,52.5 L49.6875,52.5 L49.6875,56.25 Z" id="Shape" fill="#5C546A"></path>
                        <path d="M41.25,46.875 L37.5,46.875 C36.9822656,46.875 36.5625,47.2947656 36.5625,47.8125 L36.5625,50.625 L41.25,50.625 L41.25,46.875 Z" id="Shape" fill="#5C546A"></path>
                        <polygon id="Shape" fill="#888693" points="36.5625 52.5 41.25 52.5 41.25 56.25 43.125 56.25 43.125 52.5 47.8125 52.5 47.8125 56.25 49.6875 56.25 49.6875 52.5 54.375 52.5 54.375 50.625 49.6875 50.625 49.6875 46.875 47.8125 46.875 47.8125 50.625 43.125 50.625 43.125 46.875 41.25 46.875 41.25 50.625 36.5625 50.625 34.6875 50.625 34.6875 52.5"></polygon>
                        <path d="M23.4375,50.625 L23.4375,47.8125 C23.4375,47.2947656 23.0177344,46.875 22.5,46.875 L18.75,46.875 L18.75,50.625 L23.4375,50.625 Z" id="Shape" fill="#5C546A"></path>
                        <path d="M18.75,56.25 L22.5,56.25 C23.0177344,56.25 23.4375,55.8302344 23.4375,55.3125 L23.4375,52.5 L18.75,52.5 L18.75,56.25 Z" id="Shape" fill="#5C546A"></path>
                        <path d="M5.625,52.5 L5.625,55.3125 C5.625,55.8302344 6.04476563,56.25 6.5625,56.25 L10.3125,56.25 L10.3125,52.5 L5.625,52.5 Z" id="Shape" fill="#5C546A"></path>
                        <rect id="Rectangle-path" fill="#5C546A" x="12.1875" y="46.875" width="4.6875" height="3.75"></rect>
                        <rect id="Rectangle-path" fill="#5C546A" x="12.1875" y="52.5" width="4.6875" height="3.75"></rect>
                        <path d="M10.3125,46.875 L6.5625,46.875 C6.04476563,46.875 5.625,47.2947656 5.625,47.8125 L5.625,50.625 L10.3125,50.625 L10.3125,46.875 Z" id="Shape" fill="#5C546A"></path>
                        <polygon id="Shape" fill="#5C546A" points="28.125 13.125 28.125 15.9375 30 15.9375 31.875 15.9375 31.875 13.125 30 13.125"></polygon>
                        <polygon id="Shape" fill="#5C546A" points="30 36.5625 28.125 36.5625 28.125 38.4375 30 38.4375 31.875 38.4375 31.875 36.5625"></polygon>
                        <path d="M30,29.0625 C27.7321875,29.0625 25.8407812,27.4521094 25.4064844,25.3125 L22.5,25.3125 L22.5,31.8745313 C22.5,31.9509375 22.5091406,32.0274609 22.5283594,32.1019922 C22.5091406,32.0275781 22.5,31.9511719 22.5,31.8748828 L30,31.8748828 L30,36.5623828 L31.875,36.5623828 L35.625,36.5623828 C36.0553125,36.5623828 36.4297266,36.2694141 36.5341406,35.8523437 L37.4716406,32.101875 C37.4908594,32.0274609 37.5,31.9510547 37.5,31.8747656 L30,31.8747656 L30,29.0625 Z" id="Shape" fill="#B6B8BE"></path>
                        <path d="M30,19.6875 L30,15.9375 L28.125,15.9375 L26.638125,15.9375 C26.1446484,15.9375 25.66125,16.1375391 25.3123828,16.486875 L23.049375,18.75 C22.6951172,19.1042578 22.5,19.5748828 22.5,20.0757422 L22.5,23.4375 L25.4064844,23.4375 C25.8407812,21.2978906 27.7323047,19.6875 30,19.6875 Z" id="Shape" fill="#B6B8BE"></path>
                        <path d="M34.4030859,25.9866797 C34.0876172,26.8482422 33.5265234,27.5913281 32.8046484,28.1312109 C32.3834766,28.4460938 31.9076953,28.6919531 31.3939453,28.8516797 C31.2472266,28.8973828 31.0973438,28.9359375 30.9447656,28.9672266 C30.6396094,29.0296875 30.3236719,29.0625 30.0001172,29.0625 L30.0001172,31.875 L37.5001172,31.875 C37.5001172,31.8748828 37.5001172,31.8746484 37.5001172,31.8745312 L37.5001172,25.3125 L34.5936328,25.3125 C34.5465234,25.5438281 34.4827734,25.7690625 34.4030859,25.9866797 Z" id="Shape" fill="#D5D9DE"></path>
                        <path d="M30,19.6875 C30.3235547,19.6875 30.6396094,19.7203125 30.9446484,19.7827734 C31.0972266,19.8139453 31.2471094,19.8526172 31.3938281,19.8983203 C31.9075781,20.0581641 32.3833594,20.3039062 32.8045313,20.6187891 C33.5866406,21.2036719 34.1799609,22.0270312 34.4766797,22.9810547 C34.5222656,23.1278906 34.5609375,23.2776562 34.5922266,23.4302344 C34.5926953,23.4325781 34.5930469,23.4350391 34.5935156,23.4373828 L37.5,23.4373828 L37.5,20.0755078 C37.5,19.5747656 37.305,19.1041406 36.950625,18.7497656 L34.6875,16.486875 C34.3386328,16.1376562 33.8552344,15.9375 33.3617578,15.9375 L31.875,15.9375 L30,15.9375 L30,19.6875 Z" id="Shape" fill="#D5D9DE"></path>
                        <path d="M4.6875,1.875 L0.9375,1.875 C0.419765625,1.875 0,2.29476563 0,2.8125 L0,5.625 L4.6875,5.625 L4.6875,1.875 Z" id="Shape" fill="#5C546A"></path>
                        <rect id="Rectangle-path" fill="#5C546A" x="13.125" y="1.875" width="4.6875" height="3.75"></rect>
                        <rect id="Rectangle-path" fill="#5C546A" x="6.5625" y="1.875" width="4.6875" height="3.75"></rect>
                        <path d="M24.375,5.625 L24.375,2.8125 C24.375,2.29476563 23.9552344,1.875 23.4375,1.875 L19.6875,1.875 L19.6875,5.625 L24.375,5.625 Z" id="Shape" fill="#5C546A"></path>
                        <path d="M19.6875,11.25 L23.4375,11.25 C23.9552344,11.25 24.375,10.8302344 24.375,10.3125 L24.375,7.5 L19.6875,7.5 L19.6875,11.25 Z" id="Shape" fill="#5C546A"></path>
                        <rect id="Rectangle-path" fill="#5C546A" x="13.125" y="7.5" width="4.6875" height="3.75"></rect>
                        <path d="M0,7.5 L0,10.3125 C0,10.8302344 0.419765625,11.25 0.9375,11.25 L4.6875,11.25 L4.6875,7.5 L0,7.5 Z" id="Shape" fill="#5C546A"></path>
                        <rect id="Rectangle-path" fill="#5C546A" x="6.5625" y="7.5" width="4.6875" height="3.75"></rect>
                        <polygon id="Shape" fill="#888693" points="24.375 5.625 19.6875 5.625 19.6875 1.875 17.8125 1.875 17.8125 5.625 13.125 5.625 13.125 1.875 11.25 1.875 11.25 5.625 6.5625 5.625 6.5625 1.875 4.6875 1.875 4.6875 5.625 0 5.625 0 7.5 4.6875 7.5 4.6875 11.25 6.5625 11.25 6.5625 7.5 11.25 7.5 11.25 11.25 13.125 11.25 13.125 7.5 17.8125 7.5 17.8125 11.25 19.6875 11.25 19.6875 7.5 24.375 7.5 26.25 7.5 26.25 5.625"></polygon>
                        <path d="M40.3125,1.875 L36.5625,1.875 C36.0447656,1.875 35.625,2.29476563 35.625,2.8125 L35.625,5.625 L40.3125,5.625 L40.3125,1.875 Z" id="Shape" fill="#5C546A"></path>
                        <rect id="Rectangle-path" fill="#5C546A" x="42.1875" y="7.5" width="4.6875" height="3.75"></rect>
                        <rect id="Rectangle-path" fill="#5C546A" x="48.75" y="1.875" width="4.6875" height="3.75"></rect>
                        <rect id="Rectangle-path" fill="#5C546A" x="42.1875" y="1.875" width="4.6875" height="3.75"></rect>
                        <rect id="Rectangle-path" fill="#5C546A" x="48.75" y="7.5" width="4.6875" height="3.75"></rect>
                        <path d="M59.0625,1.875 L55.3125,1.875 L55.3125,5.625 L60,5.625 L60,2.8125 C60,2.29476563 59.5802344,1.875 59.0625,1.875 Z" id="Shape" fill="#5C546A"></path>
                        <path d="M55.3125,11.25 L59.0625,11.25 C59.5802344,11.25 60,10.8302344 60,10.3125 L60,7.5 L55.3125,7.5 L55.3125,11.25 Z" id="Shape" fill="#5C546A"></path>
                        <path d="M35.625,7.5 L35.625,10.3125 C35.625,10.8302344 36.0447656,11.25 36.5625,11.25 L40.3125,11.25 L40.3125,7.5 L35.625,7.5 Z" id="Shape" fill="#5C546A"></path>
                        <polygon id="Shape" fill="#888693" points="55.3125 1.875 53.4375 1.875 53.4375 5.625 48.75 5.625 48.75 1.875 46.875 1.875 46.875 5.625 42.1875 5.625 42.1875 1.875 40.3125 1.875 40.3125 5.625 35.625 5.625 33.75 5.625 33.75 7.5 35.625 7.5 40.3125 7.5 40.3125 11.25 42.1875 11.25 42.1875 7.5 46.875 7.5 46.875 11.25 48.75 11.25 48.75 7.5 53.4375 7.5 53.4375 11.25 55.3125 11.25 55.3125 7.5 60 7.5 60 5.625 55.3125 5.625"></polygon>
                        <path d="M30,3.75 L30,13.125 L32.8125,13.125 C33.3302344,13.125 33.75,12.7052344 33.75,12.1875 L33.75,7.5 L33.75,5.625 L33.75,3.75 L30,3.75 Z" id="Shape" fill="#D5D9DE"></path>
                        <path d="M31.875,0 L30,0 L30,1.875 L33.75,1.875 C33.75,0.83953125 32.9105859,0 31.875,0 Z" id="Shape" fill="#D5D9DE"></path>
                        <path d="M30,38.4375 L28.125,38.4375 C27.7432031,38.4375 27.3990234,38.6691797 27.2561719,39.0234375 L25.5990234,43.125 L30,43.125 L30,38.4375 Z" id="Shape" fill="#888693"></path>
                        <path d="M30,46.875 L30,45 L25.3125,45 L25.3125,50.625 L23.4375,50.625 L18.75,50.625 L18.75,46.875 L16.875,46.875 L16.875,50.625 L12.1875,50.625 L12.1875,46.875 L10.3125,46.875 L10.3125,50.625 L5.625,50.625 L5.625,52.5 L10.3125,52.5 L10.3125,56.25 L12.1875,56.25 L12.1875,52.5 L16.875,52.5 L16.875,56.25 L18.75,56.25 L18.75,52.5 L23.4375,52.5 L25.3125,52.5 L25.3125,58.125 C25.3125,59.1590625 26.1539063,60 27.1875,60 L29.0625,60 L29.0625,47.8125 C29.0625,47.2947656 29.4822656,46.875 30,46.875 Z" id="Shape" fill="#888693"></path>
                        <path d="M30,0 L28.125,0 C27.0895313,0 26.25,0.839414063 26.25,1.875 L30,1.875 L30,0 Z" id="Shape" fill="#B6B8BE"></path>
                        <path d="M30,3.75 L26.25,3.75 L26.25,5.625 L26.25,7.5 L26.25,12.1875 C26.25,12.7052344 26.6697656,13.125 27.1875,13.125 L28.125,13.125 L30,13.125 L30,3.75 Z" id="Shape" fill="#B6B8BE"></path>
                        <rect id="Rectangle-path" fill="#888693" x="26.25" y="1.875" width="3.75" height="1.875"></rect>
                        <rect id="Rectangle-path" fill="#B6B8BE" x="30" y="1.875" width="3.75" height="1.875"></rect>
                        <path d="M30.9446484,28.9672266 C31.0972266,28.9360547 31.2471094,28.8973828 31.3938281,28.8516797 C31.2471094,28.8973828 31.0972266,28.9360547 30.9446484,28.9672266 Z" id="Shape" fill="#888693"></path>
                        <path d="M28.0112109,22.3863281 C27.5022656,22.8952734 27.1875,23.5983984 27.1875,24.375 C27.1875,25.9283203 28.4466797,27.1875 30,27.1875 C30.7766016,27.1875 31.4797266,26.8727344 31.9886719,26.3637891 L28.0112109,22.3863281 Z" id="Shape" fill="#FFCF00"></path>
                        <path d="M30,31.875 L22.5001172,31.875 C22.5001172,31.9512891 22.5092578,32.0275781 22.5284766,32.1021094 L23.4659766,35.8525781 C23.5702734,36.2695312 23.9446875,36.5625 24.375,36.5625 L28.125,36.5625 L30,36.5625 L30,31.875 Z" id="Shape" fill="#888693"></path>
                        <path d="M30,46.875 C30.5177344,46.875 30.9375,47.2947656 30.9375,47.8125 L30.9375,60 L32.8125,60 C33.8460938,60 34.6875,59.1590625 34.6875,58.125 L34.6875,52.5 L34.6875,50.625 L34.6875,45 L30,45 L30,46.875 Z" id="Shape" fill="#B6B8BE"></path>
                        <path d="M30,43.125 L34.4009766,43.125 L34.5427734,43.4760937 C34.5363281,43.4578125 34.53,43.4398828 34.5226172,43.4220703 L32.7438281,39.0234375 C32.6009766,38.6691797 32.2567969,38.4375 31.875,38.4375 L30,38.4375 L30,43.125 Z" id="Shape" fill="#B6B8BE"></path>
                        <path d="M30,43.125 L25.5990234,43.125 L25.4572266,43.4760937 C25.3611328,43.7626172 25.3126172,44.0625 25.3126172,44.3669531 L25.3126172,45 L30.0001172,45 L30.0001172,43.125 L30,43.125 Z" id="Shape" fill="#5C546A"></path>
                        <path d="M30,43.125 L30,45 L34.6875,45 L34.6875,44.3669531 C34.6875,44.0625 34.6389844,43.7627344 34.5428906,43.4760938 L34.4010938,43.125 L30,43.125 Z" id="Shape" fill="#888693"></path>
                        <path d="M30,46.875 C29.4822656,46.875 29.0625,47.2947656 29.0625,47.8125 L29.0625,60 L30,60 L30.9375,60 L30.9375,47.8125 C30.9375,47.2947656 30.5177344,46.875 30,46.875 Z" id="Shape" fill="#D5D9DE"></path>
                        <path d="M28.3638281,22.0882031 C28.3216406,22.1184375 28.2803906,22.1496094 28.2399609,22.1820703 C28.2249609,22.1941406 28.2099609,22.2060937 28.1951953,22.2185156 C28.1315625,22.2718359 28.0699219,22.3277344 28.0112109,22.3864453 L31.9886719,26.3639062 C32.4976172,25.8549609 32.8125,25.1518359 32.8125,24.3751172 C32.8125,24.3266016 32.8112109,24.2783203 32.8088672,24.2303906 C32.7359766,22.7922656 31.5828516,21.6391406 30.1447266,21.56625 C30.0967969,21.5636719 30.0485156,21.5625 30,21.5625 C29.8058203,21.5625 29.6162109,21.5821875 29.4331641,21.6196875 C29.0405859,21.6999609 28.6782422,21.8628516 28.3638281,22.0882031 Z" id="Shape" fill="#FFEDB9"></path>
                        <path d="M34.5922266,23.4303516 C34.5610547,23.2777734 34.5223828,23.1278906 34.4766797,22.9811719 C34.1799609,22.0271484 33.5866406,21.2036719 32.8045313,20.6189062 C32.3833594,20.3039062 31.9075781,20.0581641 31.3938281,19.8984375 C31.2471094,19.8528516 31.0972266,19.8141797 30.9446484,19.7828906 C30.6394922,19.7204297 30.3235547,19.6876172 30,19.6876172 L30,21.5626172 C30.0485156,21.5626172 30.0967969,21.5637891 30.1447266,21.56625 C31.5828516,21.6391406 32.7359766,22.7922656 32.8088672,24.2303906 C32.8113281,24.2783203 32.8125,24.3266016 32.8125,24.3751172 C32.8125,25.1517188 32.4976172,25.8548438 31.9886719,26.3639063 C31.4798438,26.8727344 30.7767188,27.1875 30,27.1875 L30,29.0625 C30.3235547,29.0625 30.6396094,29.0296875 30.9446484,28.9672266 C31.0972266,28.9360547 31.2471094,28.8973828 31.3938281,28.8516797 C31.9075781,28.6918359 32.3833594,28.4460937 32.8045313,28.1312109 C33.5264063,27.5913281 34.0875,26.8482422 34.4029688,25.9866797 C34.4826563,25.7690625 34.5465234,25.5438281 34.5933984,25.3125 L37.5,25.3125 L37.5,23.4375 L34.5935156,23.4375 C34.5930469,23.4351562 34.5928125,23.4326953 34.5922266,23.4303516 Z" id="Shape" fill="#B6B8BE"></path>
                    </g>
                    <path d="M28.1951953,22.2183984 C28.2099609,22.2060938 28.2249609,22.1940234 28.2399609,22.1819531 C28.2802734,22.1494922 28.3216406,22.1183203 28.3638281,22.0880859 C28.6782422,21.8627344 29.0405859,21.6999609 29.4331641,21.6195703 C29.6162109,21.5820703 29.8058203,21.5623828 30,21.5623828 L30,19.6873828 C27.7321875,19.6873828 25.8407812,21.2977734 25.4064844,23.4373828 L22.5,23.4373828 L22.5,25.3123828 L25.4064844,25.3123828 C25.8407812,27.4519922 27.7323047,29.0623828 30,29.0623828 L30,27.1873828 C28.4466797,27.1873828 27.1875,25.9282031 27.1875,24.3748828 C27.1875,23.5982812 27.5022656,22.8951562 28.0112109,22.3862109 C28.0699219,22.3276172 28.1315625,22.2717187 28.1951953,22.2183984 Z" id="Shape" fill="#888693"></path>
                </g>
            </g>
        </g>
    </g>
</svg>