<?xml version="1.0" encoding="UTF-8"?>
<svg width="29px" height="28px" viewBox="0 0 29 28" version="1.1" xmlns="http://www.w3.org/2000/svg" xmlns:xlink="http://www.w3.org/1999/xlink">
    <!-- Generator: Sketch 51.3 (57544) - http://www.bohemiancoding.com/sketch -->
    <title>stiker-mobile</title>
    <desc>Created with Sketch.</desc>
    <defs></defs>
    <g id="Page-1" stroke="none" stroke-width="1" fill="none" fill-rule="evenodd">
        <g id="aff_des_casino_item" transform="translate(-1390.000000, -524.000000)">
            <g id="casinos-infoblock" transform="translate(879.000000, 277.000000)">
                <g id="stiker" transform="translate(511.000000, 247.000000)">
                    <g id="stiker-mobile">
                        <ellipse id="Oval-2" fill="#7ED321" cx="14.5" cy="14" rx="14.5" ry="14"></ellipse>
                        <g id="smartphone-call" transform="translate(9.425000, 5.025641)" fill="#264108" fill-rule="nonzero">
                            <path d="M9.61056463,0 L1.26443537,0 C0.569102892,0 0,0.545128205 0,1.21230769 L0,16.7358974 C-4.75061003e-16,17.4030769 0.569102892,17.9487179 1.26443537,17.9487179 L9.61056463,17.9487179 C10.3058971,17.9487179 10.875,17.4041026 10.875,16.7364103 L10.875,1.21230769 C10.875,0.545128205 10.3058971,0 9.61056463,0 Z M4.10246164,0.873846154 L6.77253836,0.873846154 C6.857048,0.873846154 6.92551151,0.939487179 6.92551151,1.02102564 C6.92551151,1.10205128 6.857048,1.16769231 6.77253836,1.16769231 L4.10246164,1.16769231 C4.017952,1.16769231 3.94948849,1.10205128 3.94948849,1.02102564 C3.94948849,0.939487179 4.017952,0.873846154 4.10246164,0.873846154 Z M5.4375,17.3425641 C5.08822915,17.3425641 4.80528231,17.0712821 4.80528231,16.7358974 C4.80528231,16.4005128 5.08822915,16.1297436 5.4375,16.1297436 C5.78677085,16.1297436 6.06971769,16.4005128 6.06971769,16.7358974 C6.06971769,17.0712821 5.78677085,17.3425641 5.4375,17.3425641 Z M9.99513698,5.83809038 L9.99513698,6.93905357 L5.49327505,11.3017618 C5.36568567,11.4253299 5.1984623,11.4871795 5.03125823,11.4871795 C4.86413139,11.4871795 4.69683079,11.4254048 4.56933794,11.3017618 L2.2591959,9.06307361 C2.00401713,8.81578765 2.00401713,8.41492546 2.2591959,8.1676395 C2.51437467,7.92035353 2.92803147,7.92035353 3.18321024,8.1676395 L5.03125823,9.95852643 L9.18944825,5.92902616 C9.40812476,5.71717755 9.74325373,5.68681853 9.99513698,5.83809038 Z" id="Combined-Shape"></path>
                        </g>
                    </g>
                </g>
            </g>
        </g>
    </g>
</svg>