<?xml version="1.0" encoding="UTF-8"?>
<svg version="1.1" xmlns="http://www.w3.org/2000/svg" xmlns:xlink="http://www.w3.org/1999/xlink">
<defs>
<symbol id="icon-star_notactive" width="30" height="30" viewBox="0 0 33 32">
<title>star_notactive</title>
<path d="M16.945 10.274l1.316 2.722c0.091 0.189 0.268 0.32 0.473 0.351l2.942 0.437c0.515 0.077 0.721 0.723 0.348 1.094l-2.129 2.119c-0.148 0.147-0.216 0.36-0.181 0.568l0.503 2.992c0.088 0.524-0.451 0.923-0.912 0.676l-2.631-1.412c-0.183-0.098-0.402-0.098-0.585 0l-2.631 1.412c-0.461 0.247-1-0.152-0.912-0.676l0.502-2.992c0.035-0.208-0.033-0.42-0.181-0.568l-2.129-2.119c-0.373-0.371-0.167-1.018 0.348-1.094l2.942-0.437c0.205-0.030 0.382-0.162 0.473-0.351l1.316-2.722c0.23-0.477 0.896-0.477 1.126 0z"></path>
</symbol>
<symbol id="icon-star_active" width="30" height="30" viewBox="0 0 32 32">
<title>star_active</title>
<path fill="#e4d73b" style="fill: var(--color1, #e4d73b)" d="M16.789 10.274l1.316 2.722c0.091 0.189 0.268 0.32 0.473 0.351l2.942 0.437c0.515 0.077 0.721 0.723 0.348 1.094l-2.129 2.119c-0.148 0.147-0.216 0.36-0.181 0.568l0.503 2.992c0.088 0.524-0.451 0.923-0.912 0.676l-2.631-1.412c-0.183-0.098-0.402-0.098-0.585 0l-2.631 1.412c-0.461 0.247-1-0.152-0.912-0.676l0.502-2.992c0.035-0.208-0.033-0.42-0.181-0.568l-2.129-2.119c-0.373-0.371-0.167-1.018 0.348-1.094l2.942-0.437c0.205-0.030 0.382-0.162 0.473-0.351l1.316-2.722c0.23-0.477 0.896-0.477 1.126 0z"></path>
</symbol>
</defs>
</svg>
